<svg width="16" height="18" viewBox="0 0 16 18" fill="none" xmlns="http://www.w3.org/2000/svg">
<path d="M12.6428 9.51237C12.6341 8.03695 13.3026 6.92497 14.6526 6.10505C13.8975 5.02336 12.7553 4.42843 11.2496 4.31377C9.8239 4.20128 8.2641 5.14451 7.69297 5.14451C7.08939 5.14451 5.70915 4.35272 4.62314 4.35272C2.38188 4.38733 0 6.13966 0 9.70491C0 10.7585 0.192541 11.8467 0.577622 12.9673C1.09251 14.4427 2.94868 18.0577 4.88491 17.9993C5.89737 17.9755 6.61344 17.2811 7.93094 17.2811C9.2095 17.2811 9.87149 17.9993 11.0008 17.9993C12.9543 17.9712 14.6331 14.685 15.122 13.2053C12.5022 11.97 12.6428 9.58809 12.6428 9.51237ZM10.3691 2.91407C11.4659 1.61172 11.3664 0.426185 11.3339 0C10.3647 0.0562478 9.24411 0.65983 8.60592 1.40187C7.90282 2.19799 7.48961 3.18233 7.57831 4.29214C8.62539 4.37219 9.5816 3.8335 10.3691 2.91407Z" fill="#374151"/>
</svg>
