<svg width="24" height="28" viewBox="0 0 24 28" fill="none" xmlns="http://www.w3.org/2000/svg">
<path d="M23.8756 9.0581L23.0122 6.71312L23.6127 5.36696C23.6504 5.28204 23.6616 5.18771 23.6448 5.09631C23.628 5.00492 23.584 4.92074 23.5185 4.8548L21.8858 3.20448C21.5354 2.84885 21.0911 2.60009 20.6047 2.48718C20.1183 2.37427 19.6099 2.40186 19.1386 2.56672L18.6814 2.72567L16.1872 0.023547L11.9565 0H11.929L7.67074 0.0333592L5.17858 2.75707L4.7351 2.60008C4.26074 2.43327 3.74864 2.40522 3.2589 2.51922C2.76916 2.63323 2.32209 2.88456 1.97018 3.24373L0.308084 4.92544C0.255921 4.978 0.220884 5.04512 0.207575 5.11797C0.194266 5.19082 0.20331 5.26599 0.233517 5.3336L0.8595 6.73078L0 9.0738L0.555339 11.1872L3.0887 20.8183C3.38056 21.9278 4.05199 22.8999 4.98628 23.5656C4.98628 23.5656 8.06124 25.734 11.095 27.7041C11.3349 27.8957 11.6328 28 11.9398 28C12.2468 28 12.5447 27.8957 12.7846 27.7041C16.1931 25.471 18.8894 23.5577 18.8894 23.5577C19.8229 22.8917 20.4936 21.9196 20.785 20.8105L23.3046 11.1755L23.8756 9.0581Z" fill="url(#paint0_linear_3368_69524)"/>
<path d="M12.6359 17.3573C12.4744 17.285 12.3078 17.2247 12.1375 17.1768H11.8373C11.6669 17.2247 11.5003 17.285 11.3388 17.3573L10.5833 17.6713C10.3439 17.7713 9.95931 17.9499 9.72972 18.0637L8.34039 18.7878C8.29008 18.8042 8.2458 18.8352 8.21326 18.8769C8.18073 18.9186 8.16143 18.9691 8.15784 19.0218C8.15425 19.0746 8.16654 19.1273 8.19313 19.173C8.21972 19.2187 8.25939 19.2554 8.30703 19.2784L9.51386 20.1301C9.72579 20.2792 10.0594 20.5422 10.2556 20.7188L10.5951 21.0111C10.7913 21.1799 11.1112 21.4605 11.3055 21.6332L11.6273 21.9177C11.7267 22.0006 11.8521 22.046 11.9815 22.046C12.1109 22.046 12.2362 22.0006 12.3357 21.9177L12.6732 21.6234L13.3836 21.0033L13.725 20.705C13.9212 20.5343 14.2529 20.2713 14.4648 20.1163L15.6716 19.2529C15.7194 19.23 15.7591 19.1932 15.7856 19.1473C15.812 19.1014 15.8241 19.0487 15.82 18.9958C15.816 18.943 15.7961 18.8927 15.763 18.8514C15.7299 18.81 15.685 18.7797 15.6344 18.7643L14.247 18.0598C14.0154 17.9421 13.6308 17.7655 13.3895 17.6673L12.6359 17.3573Z" fill="white"/>
<path d="M21.1911 9.58125L21.2304 9.45566C21.2327 9.28766 21.2222 9.11971 21.199 8.9533C21.0821 8.65606 20.932 8.37299 20.7515 8.10951L19.9666 6.95762C19.8214 6.74176 19.5742 6.40032 19.4074 6.1982L18.3555 4.88147C18.2596 4.75314 18.1554 4.63122 18.0435 4.51648H18.022C18.022 4.51648 17.81 4.55377 17.5549 4.60282L15.9478 4.91287L15.2433 5.04827C15.0094 5.05926 14.7756 5.02529 14.5545 4.9482L13.2849 4.53807C13.0376 4.45761 12.6295 4.34184 12.3763 4.28689C12.1096 4.25854 11.8405 4.25854 11.5737 4.28689C11.3206 4.34576 10.9124 4.45958 10.6652 4.54003L9.39556 4.95212C9.17448 5.02921 8.94066 5.06319 8.70678 5.0522L8.0023 4.91876L6.3932 4.61068C6.13809 4.56162 5.92812 4.52237 5.92616 4.52433H5.90458C5.79273 4.63907 5.68851 4.76099 5.59257 4.88933L4.54272 6.20605C4.38181 6.40228 4.12867 6.75157 3.98346 6.96547L3.19853 8.11735C3.06296 8.316 2.93912 8.52239 2.82765 8.73549C2.7604 8.9731 2.72477 9.21854 2.72168 9.46547L2.76093 9.59106C2.77982 9.67174 2.80408 9.75106 2.83353 9.8285C2.99641 10.0247 3.27506 10.3505 3.45363 10.5408L6.20089 13.4608C6.29209 13.5672 6.35312 13.6962 6.37762 13.8342C6.40212 13.9723 6.3892 14.1143 6.34021 14.2457L5.89084 15.3112C5.78866 15.5935 5.78108 15.9014 5.86925 16.1884L5.95952 16.4357C6.10701 16.8372 6.35983 17.1917 6.69147 17.462L7.12318 17.8132C7.23533 17.8941 7.36619 17.9452 7.50348 17.9617C7.64078 17.9781 7.78001 17.9595 7.90811 17.9074L9.44265 17.1755C9.72433 17.0344 9.98789 16.8598 10.2276 16.6554L11.456 15.5467C11.5049 15.5026 11.5445 15.449 11.5724 15.3893C11.6002 15.3295 11.6158 15.2648 11.6182 15.1989C11.6205 15.133 11.6097 15.0673 11.5862 15.0057C11.5627 14.9441 11.5271 14.8879 11.4815 14.8403L8.70874 12.9722C8.60376 12.8977 8.52898 12.788 8.49801 12.663C8.46704 12.538 8.48194 12.4061 8.53998 12.2912L9.61534 10.27C9.67649 10.1463 9.71265 10.0117 9.72174 9.87401C9.73083 9.73629 9.71268 9.59813 9.66832 9.46744C9.53478 9.21813 9.31918 9.02263 9.05804 8.91406L5.68676 7.64051C5.44343 7.54828 5.45716 7.44428 5.71423 7.42858L7.69422 7.23235C8.0047 7.2126 8.31638 7.24039 8.61847 7.31476L10.3414 7.79553C10.4637 7.8324 10.5685 7.91238 10.6364 8.02064C10.7042 8.12889 10.7305 8.25808 10.7103 8.38423L10.0333 12.0813C9.98803 12.286 9.97676 12.4968 9.99995 12.7053C10.0274 12.7936 10.259 12.9015 10.5121 12.9643L11.562 13.188C11.8668 13.244 12.1794 13.244 12.4843 13.188L13.4281 12.9741C13.6813 12.9172 13.9109 12.7975 13.9403 12.7092C13.9629 12.5007 13.951 12.2898 13.905 12.0852L13.2241 8.38816C13.2039 8.262 13.2302 8.13282 13.298 8.02456C13.3659 7.91631 13.4707 7.83633 13.593 7.79946L15.3159 7.31672C15.618 7.24233 15.9297 7.21453 16.2402 7.23431L18.2201 7.41877C18.4792 7.44231 18.4909 7.53847 18.2496 7.6307L14.8803 8.90817C14.6191 9.01675 14.4035 9.21224 14.27 9.46155C14.1806 9.72553 14.1997 10.0142 14.323 10.2641L15.4003 12.2853C15.4583 12.4002 15.4732 12.5322 15.4422 12.6571C15.4113 12.7821 15.3365 12.8918 15.2315 12.9663L12.4607 14.8383C12.4151 14.8859 12.3795 14.9422 12.356 15.0038C12.3325 15.0654 12.3217 15.1311 12.3241 15.1969C12.3264 15.2628 12.342 15.3275 12.3699 15.3873C12.3977 15.447 12.4373 15.5006 12.4862 15.5448L13.7166 16.6535C13.9564 16.8572 14.22 17.0311 14.5015 17.1715L16.0361 17.9015C16.1643 17.9533 16.3037 17.9717 16.441 17.9548C16.5783 17.938 16.709 17.8866 16.821 17.8054L17.2527 17.4521C17.5847 17.1814 17.8376 16.8262 17.9847 16.4239L18.0749 16.1766C18.1631 15.8897 18.1555 15.5818 18.0533 15.2995L17.602 14.2339C17.553 14.1026 17.5401 13.9605 17.5646 13.8225C17.5891 13.6844 17.6501 13.5555 17.7413 13.449L20.4886 10.5251C20.6672 10.3289 20.9439 10.0149 21.1067 9.81281C21.1399 9.73757 21.1681 9.66021 21.1911 9.58125Z" fill="white"/>
<defs>
<linearGradient id="paint0_linear_3368_69524" x1="0.00784931" y1="14.0012" x2="23.8678" y2="14.0012" gradientUnits="userSpaceOnUse">
<stop stop-color="#F1562B"/>
<stop offset="0.3" stop-color="#F1542B"/>
<stop offset="0.41" stop-color="#F04D2A"/>
<stop offset="0.49" stop-color="#EF4229"/>
<stop offset="0.5" stop-color="#EF4029"/>
<stop offset="0.56" stop-color="#E83E28"/>
<stop offset="0.67" stop-color="#E13C26"/>
<stop offset="1" stop-color="#DF3C26"/>
</linearGradient>
</defs>
</svg>
