<svg width="20" height="20" viewBox="0 0 20 20" fill="none" xmlns="http://www.w3.org/2000/svg">
<path d="M10.3574 20.0006C11.8868 19.7828 13.2276 18.1832 14.0712 15.8209C12.8516 15.5472 11.6071 15.4003 10.3574 15.3828V20.0006Z" fill="#374151"/>
<path d="M12.8014 19.6248C12.8918 19.5986 12.9818 19.5722 13.0712 19.5432C13.1466 19.5189 13.221 19.4926 13.2953 19.4666C13.3833 19.4361 13.4709 19.4048 13.5581 19.3716C13.6325 19.3433 13.7061 19.3132 13.78 19.2831C13.8651 19.2472 13.9501 19.2116 14.0343 19.1757C14.1077 19.1434 14.1807 19.1094 14.2536 19.0753C14.3362 19.0363 14.4184 18.9966 14.4999 18.9553C14.5714 18.9188 14.6428 18.8815 14.7144 18.8432C14.7945 18.8002 14.8741 18.7563 14.9531 18.7112C15.0247 18.6706 15.0936 18.6299 15.1633 18.5879C15.2408 18.5401 15.3179 18.4924 15.3945 18.4446C15.4631 18.4009 15.5315 18.3565 15.5991 18.3107C15.6745 18.2598 15.7488 18.2068 15.8228 18.1538C15.8893 18.106 15.9555 18.0585 16.0204 18.0106C16.0919 17.9553 16.1652 17.8981 16.237 17.8407C16.3007 17.7898 16.3642 17.7393 16.4269 17.687C16.4982 17.6275 16.5667 17.566 16.6359 17.5044C16.6967 17.4504 16.7578 17.3968 16.8171 17.3414C16.8853 17.2776 16.9518 17.2115 17.0183 17.1459C17.0759 17.0888 17.1342 17.0327 17.1906 16.9743C17.2011 16.9634 17.211 16.9517 17.2218 16.9405C16.4422 16.537 15.6211 16.2203 14.7727 15.9961C14.3315 17.4061 13.5463 18.6839 12.4883 19.7133C12.5173 19.7058 12.5462 19.6997 12.5752 19.6922C12.6516 19.6707 12.7267 19.6471 12.8014 19.6248V19.6248Z" fill="#374151"/>
<path d="M19.9996 10.3594H15.7139C15.6976 12.0363 15.4549 13.7032 14.9922 15.3149C15.9357 15.5674 16.8462 15.9305 17.7049 16.3966C19.1147 14.6938 19.9217 12.5708 19.9996 10.3594V10.3594Z" fill="#374151"/>
<path d="M10.3574 9.64251H14.9994C14.9812 8.02489 14.7444 6.41724 14.2957 4.86328C13.0031 5.15868 11.683 5.31644 10.3574 5.33393V9.64251Z" fill="#374151"/>
<path d="M10.3574 0V4.6178C11.6071 4.60013 12.8516 4.45339 14.0712 4.17968C13.2276 1.81735 11.8868 0.217746 10.3574 0V0Z" fill="#374151"/>
<path d="M10.3574 14.668C11.683 14.6856 13.0031 14.8434 14.2957 15.1388C14.7444 13.5848 14.9812 11.977 14.9994 10.3594H10.3574V14.668Z" fill="#374151"/>
<path d="M17.7049 3.60547C16.8462 4.07157 15.9357 4.43465 14.9922 4.6872C15.4549 6.29888 15.6976 7.96582 15.7139 9.64273H19.9996C19.9216 7.43151 19.1146 5.30844 17.7049 3.60547V3.60547Z" fill="#374151"/>
<path d="M17.2227 3.061C17.2122 3.05033 17.2023 3.03879 17.192 3.02777C17.1354 2.96935 17.0768 2.91304 17.0192 2.85619C16.9529 2.79061 16.8867 2.72432 16.8183 2.66066C16.7592 2.60539 16.6979 2.5531 16.6372 2.49801C16.5679 2.43644 16.4986 2.37435 16.4274 2.31489C16.3656 2.2626 16.3022 2.21258 16.2394 2.16238C16.1678 2.10431 16.0945 2.0466 16.0209 1.99116C15.9563 1.94236 15.8909 1.89514 15.8251 1.84792C15.7504 1.79405 15.6753 1.74035 15.5992 1.68911C15.5324 1.64399 15.4645 1.59991 15.3966 1.55671C15.3193 1.50687 15.2421 1.45807 15.1634 1.41085C15.0945 1.3694 15.0249 1.32847 14.955 1.28877C14.8751 1.24295 14.795 1.19852 14.7142 1.15515C14.6426 1.1193 14.5713 1.08029 14.4997 1.04444C14.4175 1.00282 14.3346 0.962764 14.2496 0.923412C14.178 0.889308 14.1054 0.856077 14.0318 0.823721C13.9471 0.786119 13.8616 0.752189 13.7763 0.716335C13.7026 0.686253 13.6293 0.65652 13.555 0.628187C13.4682 0.594957 13.3803 0.563825 13.2923 0.533393C13.218 0.507159 13.1436 0.481099 13.0682 0.456613C12.9788 0.427581 12.8895 0.401171 12.7977 0.374587C12.7233 0.352725 12.6486 0.330513 12.5734 0.310575C12.5446 0.302704 12.5153 0.296583 12.4863 0.289062C13.5443 1.3185 14.3294 2.59612 14.7707 4.00631C15.62 3.7821 16.4424 3.46518 17.2227 3.061V3.061Z" fill="#374151"/>
<path d="M0 9.64273H4.28572C4.30196 7.96582 4.54473 6.29888 5.00723 4.6872C4.0639 4.43483 3.15338 4.07174 2.2947 3.60547C0.88486 5.30826 0.0778398 7.43151 0 9.64273Z" fill="#374151"/>
<path d="M9.64348 20.0006V15.3828C8.39386 15.4005 7.14929 15.5472 5.92969 15.8209C6.77318 18.1832 8.11409 19.7828 9.64348 20.0006Z" fill="#374151"/>
<path d="M9.64193 10.3594H5C5.01815 11.977 5.25481 13.5848 5.7037 15.1388C6.99626 14.8432 8.31621 14.6854 9.64193 14.668V10.3594Z" fill="#374151"/>
<path d="M9.64153 0C8.11213 0.217746 6.77123 1.81735 5.92773 4.17968C7.14734 4.45357 8.3919 4.60031 9.64153 4.6178V0Z" fill="#374151"/>
<path d="M9.64193 5.33393C8.31639 5.31644 6.99626 5.15868 5.7037 4.86328C5.25481 6.41724 5.01815 8.02489 5 9.64251H9.64193V5.33393Z" fill="#374151"/>
<path d="M7.51182 0.289062C7.48285 0.296583 7.45388 0.302704 7.42491 0.310225C7.34916 0.330513 7.27446 0.353075 7.19907 0.374937C7.10936 0.401171 7.02035 0.427581 6.93029 0.456264C6.85437 0.480924 6.77968 0.507159 6.70498 0.533218C6.61754 0.564175 6.52992 0.594957 6.44336 0.627837C6.36866 0.65652 6.29501 0.686253 6.22101 0.716685C6.13601 0.752539 6.05084 0.788392 5.96689 0.824071C5.89324 0.856427 5.82046 0.890357 5.74751 0.924462C5.66496 0.963464 5.58276 1.00317 5.50125 1.04444C5.42969 1.08099 5.35814 1.11842 5.28675 1.15655C5.20665 1.19957 5.12724 1.24365 5.04835 1.28877C4.97679 1.32882 4.90646 1.36992 4.83752 1.4119C4.75985 1.45877 4.68306 1.50722 4.60662 1.55514C4.53785 1.59921 4.46961 1.64364 4.40207 1.68946C4.32667 1.74035 4.25232 1.79335 4.17832 1.84634C4.11183 1.89409 4.04568 1.94166 3.98058 1.98976C3.90745 2.04485 3.83764 2.10222 3.76399 2.15941C3.70046 2.2103 3.63641 2.26085 3.57428 2.31349C3.50272 2.37261 3.43483 2.43382 3.36589 2.49503C3.3048 2.5496 3.24319 2.60259 3.18351 2.65909C3.11561 2.72257 3.04947 2.78851 2.98315 2.85392C2.92555 2.91094 2.86691 2.96725 2.81036 3.02584C2.80007 3.03669 2.79012 3.04858 2.7793 3.0596C3.55874 3.46326 4.38008 3.78 5.22846 4.00422C5.66967 2.5949 6.45435 1.31798 7.51182 0.289062V0.289062Z" fill="#374151"/>
<path d="M2.98178 17.1455C3.04828 17.2111 3.11443 17.2774 3.18267 17.3412C3.24201 17.3963 3.30309 17.4486 3.364 17.5037C3.43329 17.5654 3.50258 17.6274 3.57378 17.6868C3.63557 17.7388 3.69857 17.789 3.76175 17.8393C3.83331 17.8974 3.90469 17.9551 3.98044 18.0109C4.04484 18.0593 4.11029 18.1062 4.17573 18.1543C4.25043 18.208 4.32583 18.2617 4.40192 18.3133C4.46877 18.3584 4.53666 18.4025 4.60455 18.4459C4.68187 18.4955 4.75901 18.5443 4.83772 18.5916C4.90666 18.6332 4.9763 18.6739 5.04611 18.7138C5.12604 18.7596 5.20615 18.8041 5.28696 18.8473C5.35834 18.8831 5.4299 18.9221 5.50145 18.958C5.58366 18.9996 5.66656 19.0396 5.75155 19.0792C5.82311 19.1129 5.89571 19.1462 5.96936 19.1787C6.05401 19.2163 6.13935 19.2502 6.22487 19.2861C6.29852 19.3162 6.37183 19.3459 6.44618 19.3742C6.53292 19.4076 6.62088 19.4388 6.70884 19.4692C6.78319 19.4952 6.85754 19.5215 6.93294 19.5458C7.02229 19.5748 7.11165 19.6014 7.20346 19.6278C7.2778 19.6497 7.3525 19.6719 7.42755 19.692C7.45652 19.6999 7.48584 19.706 7.51481 19.7135C6.45682 18.6839 5.67179 17.4063 5.23041 15.9961C4.38203 16.2205 3.56069 16.5372 2.78125 16.9411C2.79172 16.9517 2.80167 16.9633 2.81214 16.9743C2.86572 17.0324 2.92349 17.0887 2.98178 17.1455V17.1455Z" fill="#374151"/>
<path d="M2.2947 16.3966C3.15338 15.9305 4.0639 15.5674 5.00723 15.3149C4.54473 13.7032 4.30196 12.0363 4.28572 10.3594H0C0.0780143 12.5706 0.88486 14.6937 2.2947 16.3966V16.3966Z" fill="#374151"/>
</svg>
