<svg width="18" height="18" viewBox="0 0 18 18" fill="none" xmlns="http://www.w3.org/2000/svg">
<path fill-rule="evenodd" clip-rule="evenodd" d="M9.18426 18C11.6932 18 13.8012 17.1819 15.3261 15.7754L12.1768 13.7119C11.3707 14.1978 10.3574 14.4783 9.18426 14.4783C6.97869 14.4783 5.07362 13.1464 4.2 11.2764L1.2 13.4499C1.60577 14.1492 2.10628 14.7935 2.68919 15.3648C3.5421 16.2006 4.55471 16.8635 5.66916 17.3156C6.78362 17.7678 7.97807 18.0004 9.18426 18Z" fill="#50B94F"/>
<path fill-rule="evenodd" clip-rule="evenodd" d="M4.2 11.2764L1.2 13.4499C1.01205 13.126 0.844431 12.7903 0.698362 12.4446C0.23694 11.3525 -0.000367335 10.182 4.26794e-07 9C-0.000367335 7.818 0.23694 6.64752 0.698362 5.55542C0.844431 5.20971 1.01205 4.87399 1.2 4.55008L4.09304 6.95712C3.83376 7.5904 3.69087 8.27907 3.69087 8.99451C3.69087 9.80272 3.87332 10.5772 4.2 11.2764Z" fill="#FCCE05"/>
<path fill-rule="evenodd" clip-rule="evenodd" d="M1.2 4.55008L4.09304 6.95712C4.91027 4.96112 6.88381 3.51534 9.18426 3.51534C10.5501 3.51534 11.7733 3.97704 12.7371 4.87668V4.88308L15.3261 2.346C13.7363 0.894149 11.6641 4.18231e-07 9.18426 4.18231e-07C7.97807 -0.000359965 6.78362 0.232186 5.66916 0.684351C4.55471 1.13652 3.5421 1.79944 2.68919 2.63524C2.10628 3.20645 1.60577 3.85077 1.2 4.55008Z" fill="#E64649"/>
<path fill-rule="evenodd" clip-rule="evenodd" d="M18 9.20205C18 8.5447 17.9375 7.91477 17.8227 7.31227H9.18426V10.8221H14.1897C13.9693 12.0351 13.2601 13.059 12.1768 13.7119L15.3261 15.7754C17.0248 14.2086 18 11.9116 18 9.20205Z" fill="#7D9ED3"/>
</svg>
