<svg xmlns="http://www.w3.org/2000/svg" xmlns:xlink="http://www.w3.org/1999/xlink" viewBox="0 0 256 256" style="height: 42px; width: 42px;"><defs><radialGradient id="f" cx="33.9%" cy="6.9%" r="38.6%" fx="33.9%" fy="6.9%" gradientTransform="rotate(68.4 .4 .1) scale(1 1.748)"><stop offset="0%" stop-color="#00E09D"></stop><stop offset="23.1%" stop-color="#00E09D" stop-opacity=".9"></stop><stop offset="100%" stop-color="#3BEB9F" stop-opacity="0"></stop></radialGradient><radialGradient id="g" cx="102.2%" cy="53.7%" r="43.7%" fx="102.2%" fy="53.7%" gradientTransform="matrix(.67893 .7342 -.9508 .87921 .8 -.7)"><stop offset="0%" stop-color="#19CF7A"></stop><stop offset="100%" stop-color="#82D148" stop-opacity="0"></stop></radialGradient><radialGradient id="h" cx="57.9%" cy="99.8%" r="34.6%" fx="57.9%" fy="99.8%" gradientTransform="matrix(-.193 -.981 1.271 -.25 -.6 1.8)"><stop offset="0%" stop-color="#F79A0F"></stop><stop offset="31.7%" stop-color="#F4A227" stop-opacity=".9"></stop><stop offset="100%" stop-color="#E6C832" stop-opacity="0"></stop></radialGradient><radialGradient id="j" cx="61.3%" cy="39.9%" r="17.9%" fx="61.3%" fy="39.9%" gradientTransform="matrix(.6046 .79653 -1.17647 .893 .7 -.4)"><stop offset="0%" stop-color="#73D444"></stop><stop offset="33.5%" stop-color="#73D444" stop-opacity=".5"></stop><stop offset="100%" stop-color="#73D444" stop-opacity="0"></stop></radialGradient><radialGradient id="k" cx="90.1%" cy="45.1%" r="34.2%" fx="90.1%" fy="45.1%" gradientTransform="rotate(93.3 .9 .4) scale(1 .878)"><stop offset="0%" stop-color="#00CF5C"></stop><stop offset="35.1%" stop-color="#00CF5C" stop-opacity=".8"></stop><stop offset="62.8%" stop-color="#00D05B" stop-opacity=".3"></stop><stop offset="100%" stop-color="#00D05B" stop-opacity="0"></stop></radialGradient><radialGradient id="l" cx="16%" cy="11.7%" r="52.9%" fx="16%" fy="11.7%" gradientTransform="matrix(.642 .767 -1.29 1.08 .2 -.1)"><stop offset="0%" stop-color="#FFF" stop-opacity=".7"></stop><stop offset="84.6%" stop-color="#FFF" stop-opacity=".1"></stop><stop offset="100%" stop-color="#FFF" stop-opacity="0"></stop></radialGradient><linearGradient id="c" x1="46.5%" x2="67.4%" y1="55.3%" y2="32.9%"><stop offset="0%" stop-color="#35D07F" stop-opacity="0"></stop><stop offset="100%" stop-color="#00D063"></stop></linearGradient><linearGradient id="d" x1="47.3%" x2="76.6%" y1="98%" y2="16%"><stop offset="0%" stop-color="#F8CD0C"></stop><stop offset="29.2%" stop-color="#F2CE27"></stop><stop offset="100%" stop-color="#86D23C" stop-opacity="0"></stop></linearGradient><linearGradient id="e" x1=".3%" x2="64.5%" y1="54.9%" y2="18.9%"><stop offset="0%" stop-color="#FDEB3F"></stop><stop offset="100%" stop-color="#FBC74B" stop-opacity="0"></stop></linearGradient><linearGradient id="i" x1="23.2%" x2="27.7%" y1="8.2%" y2="24.2%"><stop offset="0%" stop-color="#39E2A4"></stop><stop offset="100%" stop-color="#67E290" stop-opacity="0"></stop></linearGradient><path id="b" d="M-82-82h420v420H-82z"></path><path id="m" d="M142.2 206.2c6.8-53.5 31.9-83.9 69.7-111.5l-19.3-25.6c-24.8 19-51.8 46.1-64.3 83.4C118 122 96.7 95.3 62.3 69L42 95.3c43 30.7 64.6 65.1 70.5 111h29.6z"></path><clipPath id="a"><path d="M166.7 0c25.7 0 38.6 0 52.4 4.4a54.4 54.4 0 0132.5 32.5c4.4 13.8 4.4 26.7 4.4 52.4v77.4c0 25.7 0 38.6-4.4 52.4a54.4 54.4 0 01-32.5 32.5c-13.8 4.4-26.7 4.4-52.4 4.4H89.3c-25.7 0-38.6 0-52.4-4.4a54.4 54.4 0 01-32.5-32.5C0 205.3 0 192.4 0 166.7V89.3c0-25.7 0-38.6 4.4-52.4A54.4 54.4 0 0136.9 4.4C50.7 0 63.6 0 89.3 0h77.4z"></path></clipPath><filter id="n" width="140%" height="149.6%" x="-20%" y="-21.2%" filterUnits="objectBoundingBox"><feOffset dy="5" in="SourceAlpha" result="shadowOffsetOuter1"></feOffset><feGaussianBlur in="shadowOffsetOuter1" result="shadowBlurOuter1" stdDeviation="10.5"></feGaussianBlur><feColorMatrix in="shadowBlurOuter1" result="shadowMatrixOuter1" values="0 0 0 0 0.0454666095 0 0 0 0 0.692623415 0 0 0 0 0.418861661 0 0 0 0.1 0"></feColorMatrix><feOffset dy="1" in="SourceAlpha" result="shadowOffsetOuter2"></feOffset><feGaussianBlur in="shadowOffsetOuter2" result="shadowBlurOuter2" stdDeviation="2.5"></feGaussianBlur><feColorMatrix in="shadowBlurOuter2" result="shadowMatrixOuter2" values="0 0 0 0 0.100878734 0 0 0 0 0.550724638 0 0 0 0 0.389331606 0 0 0 0.07 0"></feColorMatrix><feMerge><feMergeNode in="shadowMatrixOuter1"></feMergeNode><feMergeNode in="shadowMatrixOuter2"></feMergeNode></feMerge></filter></defs><g clip-path="url(#a)"><use fill="#35D07F" xlink:href="#b"></use><use fill="url(#c)" xlink:href="#b" fill-opacity=".8"></use><use fill="url(#d)" xlink:href="#b"></use><use fill="url(#e)" xlink:href="#b"></use><use fill="url(#f)" xlink:href="#b"></use><use fill="url(#g)" xlink:href="#b"></use><use fill="url(#h)" xlink:href="#b"></use><use fill="url(#i)" xlink:href="#b"></use><use fill="url(#j)" xlink:href="#b" fill-opacity=".6"></use><use fill="url(#k)" xlink:href="#b"></use><path fill="url(#l)" fill-opacity=".5" d="M-100-100h455v455h-455z"></path><use xlink:href="#m" filter="url(#n)"></use><use fill="#FFF" xlink:href="#m"></use></g></svg>