<svg width="9" height="9" viewBox="0 0 9 9" fill="none" xmlns="http://www.w3.org/2000/svg">
<path fill-rule="evenodd" clip-rule="evenodd" d="M2.30934 2.31822C0.342306 4.29383 0.143127 4.52729 0.143127 4.85879C0.143127 5.18547 0.30352 5.38411 1.67398 6.75458C3.04445 8.12504 3.24309 8.28544 3.56977 8.28544C3.90127 8.28544 4.13474 8.08626 6.11034 6.11922L8.28598 3.95301V2.04779V0.142578H6.38077H4.47556L2.30934 2.31822ZM7.21456 1.21401C7.33241 1.33186 7.42884 1.52472 7.42884 1.64258C7.42884 1.91858 7.06199 2.28544 6.78598 2.28544C6.50998 2.28544 6.14313 1.91858 6.14313 1.64258C6.14313 1.52472 6.23956 1.33186 6.35741 1.21401C6.47527 1.09615 6.66813 0.999721 6.78598 0.999721C6.90384 0.999721 7.0967 1.09615 7.21456 1.21401Z" fill="white"/>
</svg>
