<svg width="14" height="13" viewBox="0 0 14 13" fill="none" xmlns="http://www.w3.org/2000/svg">
<path fill-rule="evenodd" clip-rule="evenodd" d="M3.86967 3.38433C0.809834 6.4575 0.5 6.82067 0.5 7.33633C0.5 7.8445 0.7495 8.1535 2.88133 10.2853C5.01317 12.4172 5.32217 12.6667 5.83033 12.6667C6.346 12.6667 6.70917 12.3568 9.78233 9.297L13.1667 5.92733V2.96367V0H10.203H7.23933L3.86967 3.38433ZM11.5 1.66667C11.6833 1.85 11.8333 2.15 11.8333 2.33333C11.8333 2.76267 11.2627 3.33333 10.8333 3.33333C10.404 3.33333 9.83333 2.76267 9.83333 2.33333C9.83333 2.15 9.98333 1.85 10.1667 1.66667C10.35 1.48333 10.65 1.33333 10.8333 1.33333C11.0167 1.33333 11.3167 1.48333 11.5 1.66667Z" fill="#528FD2"/>
</svg>
