<svg width="15" height="12" viewBox="0 0 15 12" fill="none" xmlns="http://www.w3.org/2000/svg">
<path fill-rule="evenodd" clip-rule="evenodd" d="M11.888 0.014755C11.7539 0.0418798 11.2929 0.272014 7.99853 1.95614L5.69548 3.13351V5.3042V7.47486L7.87058 8.59312C9.06688 9.20817 10.4359 9.91023 10.9129 10.1532L11.7801 10.5951L12.002 10.5951C12.4249 10.5952 12.7067 10.4381 12.866 10.1136L12.9458 9.95115V5.31662V0.682098L12.8781 0.532258C12.7147 0.170708 12.2687 -0.0623828 11.888 0.014755ZM1.40772 3.39659C1.19308 3.48044 1.03363 3.6294 0.927324 3.84537L0.833496 4.03596V5.30181V6.56766L0.909724 6.73029C1.00958 6.94331 1.20488 7.13114 1.40405 7.20566C1.55603 7.26253 1.61289 7.26426 3.32243 7.26426H5.08418V5.30241V3.34055L3.31425 3.34189C1.65221 3.34314 1.53598 3.34647 1.40772 3.39659ZM13.5571 5.30241C13.5571 6.07586 13.565 6.29755 13.5924 6.29755C13.6577 6.29755 13.9205 6.09642 13.9937 5.99036C14.1433 5.77379 14.1663 5.68244 14.1668 5.30241C14.1674 4.91709 14.1343 4.79611 13.969 4.57942C13.8938 4.48079 13.6522 4.30726 13.5902 4.30726C13.5657 4.30726 13.5571 4.56523 13.5571 5.30241ZM2.80957 7.91884C2.80957 7.98952 3.67037 10.9497 3.71816 11.0434C3.77744 11.1595 3.98153 11.3594 4.10746 11.4245C4.26026 11.5035 4.53159 11.5373 4.89894 11.5232C5.22509 11.5106 5.26717 11.5024 5.43709 11.4188C5.76432 11.2577 5.96488 10.9462 5.96622 10.5969C5.9667 10.4733 5.88061 10.131 5.60529 9.16214L5.24371 7.88978H4.02663C3.21664 7.88978 2.80957 7.8995 2.80957 7.91884Z" fill="#6B7280"/>
</svg>
