<svg width="690" height="161" viewBox="0 0 690 161" fill="none" xmlns="http://www.w3.org/2000/svg">
<g filter="url(#filter0_d_2566_82087)">
<rect x="12" y="8" width="120" height="120" rx="60" fill="white" shape-rendering="crispEdges"/>
<path fill-rule="evenodd" clip-rule="evenodd" d="M71.1706 35.9191C69.3568 36.3177 68.0706 37.9375 68.0733 39.8197C68.0749 40.9709 68.4264 41.8429 69.2115 42.6431C71.0195 44.4862 73.9428 44.1689 75.3411 41.9776C75.7491 41.3384 75.9317 40.6855 75.9295 39.8744C75.9272 39.0631 75.8423 38.6691 75.5305 38.0228C75.0321 36.9896 73.9611 36.1643 72.7953 35.9148C72.1524 35.7773 71.8121 35.7781 71.1706 35.9191ZM68.1016 46.4555C66.4245 46.7159 65.0496 48.0531 64.7532 49.7122C64.7007 50.0059 64.6719 51.9027 64.6719 55.0634C64.6719 60.3487 64.6658 60.2628 65.0722 60.7114C65.2957 60.9581 65.7827 61.1779 66.1105 61.1799C66.4757 61.1822 66.996 60.8971 67.2745 60.5419L67.5056 60.2474L67.5255 56.4776C67.5365 54.4043 67.5621 52.6326 67.5824 52.5406C67.6277 52.3353 67.8624 52.2488 68.0695 52.3613C68.2231 52.4448 68.2235 52.4666 68.2235 61.6469C68.2235 69.7926 68.237 70.8816 68.3409 71.1339C68.8125 72.2798 70.3328 72.5486 71.1855 71.637C71.6339 71.1575 71.624 71.2812 71.624 66.1358C71.624 61.9534 71.6374 61.4091 71.7427 61.3021C71.887 61.1558 72.1054 61.1461 72.216 61.2813C72.2718 61.3496 72.3045 62.8664 72.3197 66.0933C72.3417 70.7536 72.3437 70.8089 72.505 71.1123C72.6933 71.4664 72.9998 71.7746 73.3242 71.9361C74.1361 72.3402 75.1736 71.986 75.6044 71.1578L75.7802 70.8197V61.6799C75.7802 52.9228 75.786 52.5347 75.9184 52.4131C76.0815 52.2633 76.2439 52.2507 76.3696 52.3782C76.4376 52.4472 76.4603 53.3832 76.4607 56.1166C76.4609 58.3227 76.4911 59.8725 76.537 60.0404C76.6567 60.4775 76.9242 60.8219 77.2892 61.0091C78.0153 61.3813 78.8365 61.0746 79.189 60.2997C79.3201 60.0116 79.3285 59.6919 79.329 55.0085C79.3296 49.5591 79.3258 49.5048 78.886 48.6207C78.4327 47.7093 77.5302 46.9295 76.5413 46.5943C76.0592 46.431 75.9339 46.4256 72.2663 46.4108C70.1882 46.4024 68.3141 46.4226 68.1016 46.4555Z" fill="#9498FF"/>
<path d="M62.8573 90.5654L65.2294 86.0059H66.9999L63.6777 92.1172V96H62.0439V92.1787L58.7148 86.0059H60.4989L62.8573 90.5654ZM75.2676 92.1992C75.2676 92.8281 75.1855 93.3864 75.0215 93.874C74.8574 94.3617 74.6182 94.7741 74.3037 95.1113C73.9893 95.444 73.611 95.6992 73.1689 95.877C72.7269 96.0501 72.2279 96.1367 71.6719 96.1367C71.1523 96.1367 70.6761 96.0501 70.2432 95.877C69.8102 95.6992 69.4342 95.444 69.1152 95.1113C68.8008 94.7741 68.557 94.3617 68.3838 93.874C68.2106 93.3864 68.124 92.8281 68.124 92.1992C68.124 91.3652 68.2676 90.6589 68.5547 90.0801C68.8464 89.4967 69.2611 89.0524 69.7988 88.7471C70.3366 88.4417 70.9769 88.2891 71.7197 88.2891C72.417 88.2891 73.0322 88.4417 73.5654 88.7471C74.0986 89.0524 74.5156 89.4967 74.8164 90.0801C75.1172 90.6634 75.2676 91.3698 75.2676 92.1992ZM69.7783 92.1992C69.7783 92.7507 69.8444 93.2223 69.9766 93.6143C70.1133 94.0062 70.3229 94.307 70.6055 94.5166C70.888 94.7217 71.2526 94.8242 71.6992 94.8242C72.1458 94.8242 72.5104 94.7217 72.793 94.5166C73.0755 94.307 73.2829 94.0062 73.415 93.6143C73.5472 93.2223 73.6133 92.7507 73.6133 92.1992C73.6133 91.6478 73.5472 91.1807 73.415 90.7979C73.2829 90.4105 73.0755 90.1165 72.793 89.916C72.5104 89.7109 72.1436 89.6084 71.6924 89.6084C71.027 89.6084 70.5417 89.8317 70.2363 90.2783C69.931 90.7249 69.7783 91.3652 69.7783 92.1992ZM84.13 88.4326V96H82.8653L82.6466 94.9814H82.5577C82.3982 95.2412 82.1954 95.4577 81.9493 95.6309C81.7032 95.7995 81.4298 95.9248 81.129 96.0068C80.8282 96.0934 80.5115 96.1367 80.1788 96.1367C79.6091 96.1367 79.1215 96.041 78.7159 95.8496C78.3149 95.6536 78.0072 95.3529 77.793 94.9473C77.5789 94.5417 77.4718 94.0176 77.4718 93.375V88.4326H79.085V93.0742C79.085 93.6621 79.2035 94.1019 79.4405 94.3936C79.682 94.6852 80.0557 94.8311 80.5616 94.8311C81.0492 94.8311 81.4366 94.7308 81.7237 94.5303C82.0108 94.3298 82.2136 94.0335 82.3321 93.6416C82.4552 93.2497 82.5167 92.7689 82.5167 92.1992V88.4326H84.13Z" fill="#374151"/>
</g>
<path d="M174.792 72.2587C175.986 71.4098 179.257 70.2396 179.919 68.9763C179.303 68.773 178.102 69.1463 177.451 69.2199C176.415 69.3303 175.381 69.4149 174.35 69.5093C172.527 69.6724 170.703 69.8061 168.873 69.8547C166.046 69.9323 163.206 69.8104 160.399 69.7985C157.232 69.7833 154.078 69.5706 150.922 69.4749C149.02 69.4168 147.122 69.3915 145.22 69.3334C144.158 69.2985 141.246 69.6294 140.483 68.6496C139.7 67.6453 140.798 67.5237 141.594 67.475C143.236 67.372 144.881 67.3863 146.528 67.339C149.967 67.2399 153.404 67.1537 156.841 67.0023C160.226 66.8533 163.641 66.7263 167.026 66.6911C170.283 66.6585 174.218 66.8537 177.375 65.9866C177.05 65.3939 175.508 64.9229 174.872 64.5683C173.88 64.0153 172.868 63.4543 171.913 62.8328C171.239 62.3905 170.158 61.6676 170.514 60.6623C170.77 59.948 171.831 59.7616 172.472 59.8954C174.218 60.2563 176.175 62.0366 177.771 62.8635C179.67 63.8452 181.581 64.7987 183.505 65.6979C184.706 66.2582 186.082 67.2752 185.015 68.6941C184.158 69.8308 181.751 70.7203 180.524 71.3681C178.852 72.256 177.118 72.9566 175.415 73.7866C173.255 74.8362 173.575 73.6327 174.789 72.2616C175.013 72.1043 174.412 72.683 174.789 72.2616L174.792 72.2587Z" fill="#D1D5DB"/>
<g filter="url(#filter1_d_2566_82087)">
<rect x="194" y="8" width="120" height="120" rx="60" fill="white" shape-rendering="crispEdges"/>
<path d="M241 73H247.609V49.8696H241V73Z" fill="#EC88E0"/>
<path d="M250.913 73H257.522V43.2609H250.913V73Z" fill="#EC88E0"/>
<path d="M260.826 73H267.435V35H260.826V73Z" fill="#EC88E0"/>
<path d="M217.59 90.4561H220.325V91.6729H217.59V94.4346H216.374V91.6729H213.646V90.4561H216.374V87.667H217.59V90.4561ZM230.831 96H229.218V89.5674C229.218 89.3532 229.22 89.139 229.224 88.9248C229.229 88.7106 229.233 88.501 229.238 88.2959C229.247 88.0908 229.259 87.8949 229.272 87.708C229.177 87.8128 229.058 87.9268 228.917 88.0498C228.78 88.1729 228.634 88.3005 228.479 88.4326L227.331 89.3486L226.524 88.3301L229.491 86.0059H230.831V96ZM241.932 94.8379C242.141 94.8379 242.349 94.8197 242.554 94.7832C242.759 94.7422 242.946 94.6943 243.114 94.6396V95.8564C242.936 95.9339 242.706 96 242.424 96.0547C242.141 96.1094 241.847 96.1367 241.542 96.1367C241.114 96.1367 240.728 96.0661 240.387 95.9248C240.045 95.779 239.774 95.5306 239.573 95.1797C239.373 94.8288 239.272 94.3434 239.272 93.7236V89.6562H238.24V88.9385L239.348 88.3711L239.874 86.751H240.886V88.4326H243.053V89.6562H240.886V93.7031C240.886 94.0859 240.981 94.3708 241.173 94.5576C241.364 94.7445 241.617 94.8379 241.932 94.8379ZM251.771 92.1992C251.771 92.8281 251.689 93.3864 251.525 93.874C251.361 94.3617 251.122 94.7741 250.808 95.1113C250.493 95.444 250.115 95.6992 249.673 95.877C249.231 96.0501 248.732 96.1367 248.176 96.1367C247.656 96.1367 247.18 96.0501 246.747 95.877C246.314 95.6992 245.938 95.444 245.619 95.1113C245.305 94.7741 245.061 94.3617 244.888 93.874C244.715 93.3864 244.628 92.8281 244.628 92.1992C244.628 91.3652 244.771 90.6589 245.059 90.0801C245.35 89.4967 245.765 89.0524 246.303 88.7471C246.84 88.4417 247.481 88.2891 248.224 88.2891C248.921 88.2891 249.536 88.4417 250.069 88.7471C250.603 89.0524 251.02 89.4967 251.32 90.0801C251.621 90.6634 251.771 91.3698 251.771 92.1992ZM246.282 92.1992C246.282 92.7507 246.348 93.2223 246.48 93.6143C246.617 94.0062 246.827 94.307 247.109 94.5166C247.392 94.7217 247.757 94.8242 248.203 94.8242C248.65 94.8242 249.014 94.7217 249.297 94.5166C249.579 94.307 249.787 94.0062 249.919 93.6143C250.051 93.2223 250.117 92.7507 250.117 92.1992C250.117 91.6478 250.051 91.1807 249.919 90.7979C249.787 90.4105 249.579 90.1165 249.297 89.916C249.014 89.7109 248.647 89.6084 248.196 89.6084C247.531 89.6084 247.046 89.8317 246.74 90.2783C246.435 90.7249 246.282 91.3652 246.282 92.1992ZM257.982 88.2891C258.834 88.2891 259.497 88.5101 259.971 88.9521C260.449 89.3896 260.689 90.0938 260.689 91.0645V96H259.082V91.3652C259.082 90.7773 258.961 90.3376 258.72 90.0459C258.478 89.7497 258.105 89.6016 257.599 89.6016C256.865 89.6016 256.355 89.8271 256.067 90.2783C255.785 90.7295 255.644 91.3835 255.644 92.2402V96H254.037V88.4326H255.288L255.514 89.458H255.603C255.767 89.1937 255.969 88.9772 256.211 88.8086C256.457 88.6354 256.731 88.5055 257.031 88.4189C257.337 88.3324 257.653 88.2891 257.982 88.2891ZM271.837 87.2568C271.359 87.2568 270.93 87.3434 270.552 87.5166C270.178 87.6898 269.862 87.9404 269.602 88.2686C269.342 88.5921 269.144 88.9863 269.007 89.4512C268.87 89.9115 268.802 90.431 268.802 91.0098C268.802 91.7845 268.911 92.4521 269.13 93.0127C269.349 93.5687 269.682 93.9971 270.128 94.2979C270.575 94.5941 271.14 94.7422 271.823 94.7422C272.247 94.7422 272.66 94.7012 273.061 94.6191C273.462 94.5371 273.877 94.4255 274.305 94.2842V95.6787C273.899 95.8382 273.489 95.9544 273.074 96.0273C272.66 96.1003 272.181 96.1367 271.639 96.1367C270.618 96.1367 269.77 95.9248 269.096 95.501C268.426 95.0771 267.925 94.4801 267.592 93.71C267.264 92.9398 267.1 92.0374 267.1 91.0029C267.1 90.2464 267.205 89.5537 267.414 88.9248C267.624 88.2959 267.929 87.7536 268.33 87.2979C268.731 86.8376 269.226 86.4844 269.814 86.2383C270.406 85.9876 271.083 85.8623 271.844 85.8623C272.345 85.8623 272.837 85.9193 273.321 86.0332C273.808 86.1426 274.259 86.2998 274.674 86.5049L274.1 87.8584C273.753 87.6943 273.391 87.5531 273.013 87.4346C272.635 87.3161 272.243 87.2568 271.837 87.2568ZM285.744 90.9893C285.744 91.7594 285.646 92.4613 285.451 93.0947C285.259 93.7236 284.97 94.266 284.582 94.7217C284.195 95.1729 283.71 95.5215 283.126 95.7676C282.543 96.0137 281.859 96.1367 281.076 96.1367C280.278 96.1367 279.585 96.0137 278.997 95.7676C278.414 95.5215 277.929 95.1706 277.541 94.7148C277.159 94.2591 276.871 93.7145 276.68 93.0811C276.489 92.4476 276.393 91.7458 276.393 90.9756C276.393 89.9456 276.562 89.0479 276.899 88.2822C277.241 87.512 277.758 86.915 278.451 86.4912C279.148 86.0628 280.027 85.8486 281.089 85.8486C282.128 85.8486 282.992 86.0605 283.68 86.4844C284.368 86.9082 284.883 87.5052 285.225 88.2754C285.571 89.041 285.744 89.9456 285.744 90.9893ZM278.116 90.9893C278.116 91.7594 278.22 92.4271 278.43 92.9922C278.64 93.5527 278.961 93.9857 279.394 94.291C279.831 94.5918 280.392 94.7422 281.076 94.7422C281.764 94.7422 282.324 94.5918 282.757 94.291C283.19 93.9857 283.509 93.5527 283.714 92.9922C283.919 92.4271 284.022 91.7594 284.022 90.9893C284.022 89.818 283.787 88.902 283.318 88.2412C282.853 87.5758 282.11 87.2432 281.089 87.2432C280.406 87.2432 279.843 87.3936 279.401 87.6943C278.963 87.9951 278.64 88.4258 278.43 88.9863C278.22 89.5423 278.116 90.21 278.116 90.9893ZM294.395 96H287.627V94.79L290.218 92.165C290.719 91.6546 291.132 91.2148 291.455 90.8457C291.779 90.472 292.018 90.1188 292.173 89.7861C292.333 89.4535 292.412 89.0911 292.412 88.6992C292.412 88.2161 292.274 87.8516 291.996 87.6055C291.718 87.3548 291.351 87.2295 290.895 87.2295C290.462 87.2295 290.061 87.3161 289.692 87.4893C289.327 87.6579 288.949 87.8994 288.557 88.2139L287.675 87.1543C287.953 86.9173 288.249 86.7008 288.564 86.5049C288.883 86.3089 289.238 86.154 289.63 86.04C290.022 85.9215 290.469 85.8623 290.97 85.8623C291.604 85.8623 292.15 85.9762 292.611 86.2041C293.071 86.4274 293.424 86.7396 293.67 87.1406C293.921 87.5417 294.046 88.0088 294.046 88.542C294.046 89.0798 293.939 89.5765 293.725 90.0322C293.511 90.488 293.205 90.9391 292.809 91.3857C292.412 91.8278 291.941 92.3086 291.394 92.8281L289.664 94.5166V94.5918H294.395V96Z" fill="#EB46B3"/>
</g>
<path d="M356.792 72.2587C357.986 71.4098 361.257 70.2396 361.919 68.9763C361.303 68.773 360.102 69.1463 359.451 69.2199C358.415 69.3303 357.381 69.4149 356.35 69.5093C354.527 69.6724 352.703 69.8061 350.873 69.8547C348.046 69.9323 345.206 69.8104 342.399 69.7985C339.232 69.7833 336.078 69.5706 332.922 69.4749C331.02 69.4168 329.122 69.3915 327.22 69.3334C326.158 69.2985 323.246 69.6294 322.483 68.6496C321.7 67.6453 322.798 67.5237 323.594 67.475C325.236 67.372 326.881 67.3863 328.528 67.339C331.967 67.2399 335.404 67.1537 338.841 67.0023C342.226 66.8533 345.641 66.7263 349.026 66.6911C352.283 66.6585 356.218 66.8537 359.375 65.9866C359.05 65.3939 357.508 64.9229 356.872 64.5683C355.88 64.0153 354.868 63.4543 353.913 62.8328C353.239 62.3905 352.158 61.6676 352.514 60.6623C352.77 59.948 353.831 59.7616 354.472 59.8954C356.218 60.2563 358.175 62.0366 359.771 62.8635C361.67 63.8452 363.581 64.7987 365.505 65.6979C366.706 66.2582 368.082 67.2752 367.015 68.6941C366.158 69.8308 363.751 70.7203 362.524 71.3681C360.852 72.256 359.118 72.9566 357.415 73.7866C355.255 74.8362 355.575 73.6327 356.789 72.2616C357.013 72.1043 356.412 72.683 356.789 72.2616L356.792 72.2587Z" fill="#D1D5DB"/>
<g filter="url(#filter2_d_2566_82087)">
<rect x="376" y="8" width="120" height="120" rx="60" fill="white" shape-rendering="crispEdges"/>
<path d="M423 35H429.609V58.1304H423V35Z" fill="#9DE2A0"/>
<path d="M432.913 35H439.522V64.7391H432.913V35Z" fill="#9DE2A0"/>
<path d="M442.826 35H449.435V73H442.826V35Z" fill="#9DE2A0"/>
<path d="M397.232 92.9238V91.5635H400.759V92.9238H397.232ZM411.081 96H409.468V89.5674C409.468 89.3532 409.47 89.139 409.474 88.9248C409.479 88.7106 409.483 88.501 409.488 88.2959C409.497 88.0908 409.509 87.8949 409.522 87.708C409.427 87.8128 409.308 87.9268 409.167 88.0498C409.03 88.1729 408.884 88.3005 408.729 88.4326L407.581 89.3486L406.774 88.3301L409.741 86.0059H411.081V96ZM422.182 94.8379C422.391 94.8379 422.599 94.8197 422.804 94.7832C423.009 94.7422 423.196 94.6943 423.364 94.6396V95.8564C423.186 95.9339 422.956 96 422.674 96.0547C422.391 96.1094 422.097 96.1367 421.792 96.1367C421.364 96.1367 420.978 96.0661 420.637 95.9248C420.295 95.779 420.024 95.5306 419.823 95.1797C419.623 94.8288 419.522 94.3434 419.522 93.7236V89.6562H418.49V88.9385L419.598 88.3711L420.124 86.751H421.136V88.4326H423.303V89.6562H421.136V93.7031C421.136 94.0859 421.231 94.3708 421.423 94.5576C421.614 94.7445 421.867 94.8379 422.182 94.8379ZM432.021 92.1992C432.021 92.8281 431.939 93.3864 431.775 93.874C431.611 94.3617 431.372 94.7741 431.058 95.1113C430.743 95.444 430.365 95.6992 429.923 95.877C429.481 96.0501 428.982 96.1367 428.426 96.1367C427.906 96.1367 427.43 96.0501 426.997 95.877C426.564 95.6992 426.188 95.444 425.869 95.1113C425.555 94.7741 425.311 94.3617 425.138 93.874C424.965 93.3864 424.878 92.8281 424.878 92.1992C424.878 91.3652 425.021 90.6589 425.309 90.0801C425.6 89.4967 426.015 89.0524 426.553 88.7471C427.09 88.4417 427.731 88.2891 428.474 88.2891C429.171 88.2891 429.786 88.4417 430.319 88.7471C430.853 89.0524 431.27 89.4967 431.57 90.0801C431.871 90.6634 432.021 91.3698 432.021 92.1992ZM426.532 92.1992C426.532 92.7507 426.598 93.2223 426.73 93.6143C426.867 94.0062 427.077 94.307 427.359 94.5166C427.642 94.7217 428.007 94.8242 428.453 94.8242C428.9 94.8242 429.264 94.7217 429.547 94.5166C429.829 94.307 430.037 94.0062 430.169 93.6143C430.301 93.2223 430.367 92.7507 430.367 92.1992C430.367 91.6478 430.301 91.1807 430.169 90.7979C430.037 90.4105 429.829 90.1165 429.547 89.916C429.264 89.7109 428.897 89.6084 428.446 89.6084C427.781 89.6084 427.296 89.8317 426.99 90.2783C426.685 90.7249 426.532 91.3652 426.532 92.1992ZM438.232 88.2891C439.084 88.2891 439.747 88.5101 440.221 88.9521C440.699 89.3896 440.939 90.0938 440.939 91.0645V96H439.332V91.3652C439.332 90.7773 439.211 90.3376 438.97 90.0459C438.728 89.7497 438.355 89.6016 437.849 89.6016C437.115 89.6016 436.605 89.8271 436.317 90.2783C436.035 90.7295 435.894 91.3835 435.894 92.2402V96H434.287V88.4326H435.538L435.764 89.458H435.853C436.017 89.1937 436.219 88.9772 436.461 88.8086C436.707 88.6354 436.981 88.5055 437.281 88.4189C437.587 88.3324 437.903 88.2891 438.232 88.2891ZM452.087 87.2568C451.609 87.2568 451.18 87.3434 450.802 87.5166C450.428 87.6898 450.112 87.9404 449.852 88.2686C449.592 88.5921 449.394 88.9863 449.257 89.4512C449.12 89.9115 449.052 90.431 449.052 91.0098C449.052 91.7845 449.161 92.4521 449.38 93.0127C449.599 93.5687 449.932 93.9971 450.378 94.2979C450.825 94.5941 451.39 94.7422 452.073 94.7422C452.497 94.7422 452.91 94.7012 453.311 94.6191C453.712 94.5371 454.127 94.4255 454.555 94.2842V95.6787C454.149 95.8382 453.739 95.9544 453.324 96.0273C452.91 96.1003 452.431 96.1367 451.889 96.1367C450.868 96.1367 450.02 95.9248 449.346 95.501C448.676 95.0771 448.175 94.4801 447.842 93.71C447.514 92.9398 447.35 92.0374 447.35 91.0029C447.35 90.2464 447.455 89.5537 447.664 88.9248C447.874 88.2959 448.179 87.7536 448.58 87.2979C448.981 86.8376 449.476 86.4844 450.064 86.2383C450.656 85.9876 451.333 85.8623 452.094 85.8623C452.595 85.8623 453.087 85.9193 453.571 86.0332C454.058 86.1426 454.509 86.2998 454.924 86.5049L454.35 87.8584C454.003 87.6943 453.641 87.5531 453.263 87.4346C452.885 87.3161 452.493 87.2568 452.087 87.2568ZM465.994 90.9893C465.994 91.7594 465.896 92.4613 465.701 93.0947C465.509 93.7236 465.22 94.266 464.832 94.7217C464.445 95.1729 463.96 95.5215 463.376 95.7676C462.793 96.0137 462.109 96.1367 461.326 96.1367C460.528 96.1367 459.835 96.0137 459.247 95.7676C458.664 95.5215 458.179 95.1706 457.791 94.7148C457.409 94.2591 457.121 93.7145 456.93 93.0811C456.739 92.4476 456.643 91.7458 456.643 90.9756C456.643 89.9456 456.812 89.0479 457.149 88.2822C457.491 87.512 458.008 86.915 458.701 86.4912C459.398 86.0628 460.277 85.8486 461.339 85.8486C462.378 85.8486 463.242 86.0605 463.93 86.4844C464.618 86.9082 465.133 87.5052 465.475 88.2754C465.821 89.041 465.994 89.9456 465.994 90.9893ZM458.366 90.9893C458.366 91.7594 458.47 92.4271 458.68 92.9922C458.89 93.5527 459.211 93.9857 459.644 94.291C460.081 94.5918 460.642 94.7422 461.326 94.7422C462.014 94.7422 462.574 94.5918 463.007 94.291C463.44 93.9857 463.759 93.5527 463.964 92.9922C464.169 92.4271 464.272 91.7594 464.272 90.9893C464.272 89.818 464.037 88.902 463.568 88.2412C463.103 87.5758 462.36 87.2432 461.339 87.2432C460.656 87.2432 460.093 87.3936 459.651 87.6943C459.213 87.9951 458.89 88.4258 458.68 88.9863C458.47 89.5423 458.366 90.21 458.366 90.9893ZM474.645 96H467.877V94.79L470.468 92.165C470.969 91.6546 471.382 91.2148 471.705 90.8457C472.029 90.472 472.268 90.1188 472.423 89.7861C472.583 89.4535 472.662 89.0911 472.662 88.6992C472.662 88.2161 472.524 87.8516 472.246 87.6055C471.968 87.3548 471.601 87.2295 471.145 87.2295C470.712 87.2295 470.311 87.3161 469.942 87.4893C469.577 87.6579 469.199 87.8994 468.807 88.2139L467.925 87.1543C468.203 86.9173 468.499 86.7008 468.814 86.5049C469.133 86.3089 469.488 86.154 469.88 86.04C470.272 85.9215 470.719 85.8623 471.22 85.8623C471.854 85.8623 472.4 85.9762 472.861 86.2041C473.321 86.4274 473.674 86.7396 473.92 87.1406C474.171 87.5417 474.296 88.0088 474.296 88.542C474.296 89.0798 474.189 89.5765 473.975 90.0322C473.761 90.488 473.455 90.9391 473.059 91.3857C472.662 91.8278 472.191 92.3086 471.644 92.8281L469.914 94.5166V94.5918H474.645V96Z" fill="#11D645"/>
</g>
<path d="M538.792 72.2587C539.986 71.4098 543.257 70.2396 543.919 68.9763C543.303 68.773 542.102 69.1463 541.451 69.2199C540.415 69.3303 539.381 69.4149 538.35 69.5093C536.527 69.6724 534.703 69.8061 532.873 69.8547C530.046 69.9323 527.206 69.8104 524.399 69.7985C521.232 69.7833 518.078 69.5706 514.922 69.4749C513.02 69.4168 511.122 69.3915 509.22 69.3334C508.158 69.2985 505.246 69.6294 504.483 68.6496C503.7 67.6453 504.798 67.5237 505.594 67.475C507.236 67.372 508.881 67.3863 510.528 67.339C513.967 67.2399 517.404 67.1537 520.841 67.0023C524.226 66.8533 527.641 66.7263 531.026 66.6911C534.283 66.6585 538.218 66.8537 541.375 65.9866C541.05 65.3939 539.508 64.9229 538.872 64.5683C537.88 64.0153 536.868 63.4543 535.913 62.8328C535.239 62.3905 534.158 61.6676 534.514 60.6623C534.77 59.948 535.831 59.7616 536.472 59.8954C538.218 60.2563 540.175 62.0366 541.771 62.8635C543.67 63.8452 545.581 64.7987 547.505 65.6979C548.706 66.2582 550.082 67.2752 549.015 68.6941C548.158 69.8308 545.751 70.7203 544.524 71.3681C542.852 72.256 541.118 72.9566 539.415 73.7866C537.255 74.8362 537.575 73.6327 538.789 72.2616C539.013 72.1043 538.412 72.683 538.789 72.2616L538.792 72.2587Z" fill="#D1D5DB"/>
<g filter="url(#filter3_d_2566_82087)">
<rect x="558" y="8" width="120" height="120" rx="60" fill="white" shape-rendering="crispEdges"/>
<path fill-rule="evenodd" clip-rule="evenodd" d="M626.526 35.059C626.317 35.2525 625.78 35.4029 624.916 35.5101C624.436 35.5696 623.594 35.6731 623.045 35.7401C621.701 35.904 620.768 36.1498 619.942 36.5576C618.911 37.067 618.093 37.8836 617.639 38.8578C617.129 39.9541 617.129 41.427 617.64 42.6339C617.919 43.2907 618.215 43.7194 618.429 43.7762C618.994 43.926 619.329 43.5758 619.332 42.8321C619.333 42.3963 619.62 41.3432 619.889 40.7826C620.252 40.0276 620.758 39.388 621.395 38.8814C621.951 38.439 622.735 37.9842 622.628 38.1656C622.597 38.2195 622.447 38.4474 622.297 38.6721C621.608 39.6997 621.095 40.9711 620.679 42.6835C619.978 45.5657 619.728 47.6018 619.548 51.8849C619.464 53.8891 619.466 53.958 619.61 54.2853C619.824 54.7688 620.205 55.0358 620.736 55.0743C621.064 55.0981 621.23 55.0698 621.465 54.9502C621.807 54.7753 621.921 54.6286 622.365 53.7947C622.705 53.1561 623.305 52.3575 623.613 52.1328L623.806 51.9919L624.259 52.3348C625.165 53.0213 626.139 53.2665 627.144 53.0613C628.462 52.7922 629.154 52.1839 630.507 50.1033C630.863 49.5565 631.25 48.9857 631.367 48.8347L631.581 48.5603L631.169 48.2966C630.943 48.1516 630.347 47.7206 629.846 47.3389C628.455 46.28 627.898 45.9996 626.941 45.8782C626.196 45.7836 625.575 45.888 624.899 46.2211C623.973 46.6782 623.116 47.7133 623.116 48.3756C623.116 48.6686 623.291 48.8626 623.511 48.812C623.6 48.7916 623.956 48.7082 624.303 48.6269C625.112 48.4373 626.102 48.3679 626.942 48.442L627.605 48.5005L626.95 48.5984C625.094 48.8755 623.624 49.585 622.276 50.8534L621.686 51.4092L621.736 50.5934C621.862 48.5184 622.068 46.3233 622.194 45.7171C622.23 45.54 622.291 45.5067 622.768 45.3998C624.435 45.0267 625.985 43.3897 626.672 41.2753C626.969 40.3614 627.068 39.5036 627.031 38.1639C627 37.0135 626.792 35.1404 626.682 35.0141C626.656 34.9838 626.586 35.004 626.526 35.059ZM613.878 46.0196C613.117 46.244 612.589 46.5476 611.32 47.4898C610.645 47.9906 610.035 48.4428 609.963 48.4947C609.842 48.5826 609.849 48.6097 610.061 48.8863C610.186 49.0497 610.626 49.7005 611.038 50.3325C612.235 52.1709 613.087 52.8845 614.323 53.0844C615.743 53.314 617.3 52.6026 617.821 51.4863C618.035 51.0278 618.04 50.7702 617.843 50.3625C617.489 49.6312 615.593 48.7794 613.878 48.5813L613.358 48.5214L613.729 48.469C614.803 48.317 616.185 48.4472 617.291 48.8042C618.008 49.0357 618.002 49.0354 618.205 48.8462C618.422 48.6433 618.409 48.3812 618.155 47.8463C617.749 46.9914 616.953 46.2968 616.06 46.0185C615.48 45.8377 614.493 45.8382 613.878 46.0196ZM610.724 55.3614C610.179 55.4472 609.424 55.6623 608.826 55.9021C607.51 56.4302 607.179 56.7104 602.916 60.9076C600.762 63.0279 599 64.7842 599 64.8105C599 64.8366 600.83 66.69 603.067 68.929L607.134 73L608.494 70.9555L609.853 68.9111L616.763 68.8881C623.57 68.8654 623.68 68.8627 624.166 68.7072C624.857 68.4862 625.532 68.1476 626.01 67.7817C626.234 67.61 628.761 65.3847 631.624 62.8367C635.419 59.4599 636.853 58.1412 636.911 57.9725C637.246 57.0124 636.62 56.2685 635.284 56.0393C634.833 55.9617 634.668 55.9668 634.149 56.0739C633.815 56.1429 633.324 56.3088 633.059 56.4428C632.794 56.5766 630.515 58.1989 627.996 60.0476L623.415 63.409H620.685H617.956L617.334 62.7839L616.713 62.1588L619.488 62.1311C622.146 62.1045 622.283 62.0962 622.737 61.9348C624.306 61.3767 625.093 60.0933 624.717 58.7042C624.493 57.8725 623.875 57.243 622.911 56.8624C622.506 56.7026 622.351 56.6919 619.74 56.6428C616.692 56.5855 616.565 56.5685 615.42 56.0641C614.124 55.4933 613.238 55.3078 611.874 55.322C611.344 55.3276 610.826 55.3453 610.724 55.3614Z" fill="#9DE2A0"/>
<path d="M590.631 90.9961C590.631 91.8027 590.567 92.5251 590.439 93.1631C590.316 93.7965 590.12 94.3343 589.851 94.7764C589.582 95.2184 589.231 95.5557 588.799 95.7881C588.366 96.0205 587.841 96.1367 587.226 96.1367C586.456 96.1367 585.82 95.9339 585.319 95.5283C584.818 95.1182 584.446 94.5303 584.205 93.7646C583.963 92.9945 583.842 92.0716 583.842 90.9961C583.842 89.9206 583.952 89 584.171 88.2344C584.394 87.4642 584.754 86.874 585.251 86.4639C585.747 86.0537 586.406 85.8486 587.226 85.8486C588.001 85.8486 588.639 86.0537 589.14 86.4639C589.646 86.8695 590.02 87.4574 590.261 88.2275C590.507 88.9932 590.631 89.916 590.631 90.9961ZM585.463 90.9961C585.463 91.8392 585.517 92.5433 585.627 93.1084C585.741 93.6735 585.927 94.0973 586.187 94.3799C586.447 94.6579 586.793 94.7969 587.226 94.7969C587.659 94.7969 588.006 94.6579 588.265 94.3799C588.525 94.1019 588.712 93.6803 588.826 93.1152C588.944 92.5501 589.004 91.8438 589.004 90.9961C589.004 90.1576 588.947 89.4557 588.833 88.8906C588.719 88.3255 588.532 87.9017 588.272 87.6191C588.012 87.332 587.664 87.1885 587.226 87.1885C586.789 87.1885 586.44 87.332 586.18 87.6191C585.925 87.9017 585.741 88.3255 585.627 88.8906C585.517 89.4557 585.463 90.1576 585.463 90.9961ZM599.687 94.8379C599.897 94.8379 600.104 94.8197 600.309 94.7832C600.514 94.7422 600.701 94.6943 600.87 94.6396V95.8564C600.692 95.9339 600.462 96 600.18 96.0547C599.897 96.1094 599.603 96.1367 599.298 96.1367C598.869 96.1367 598.484 96.0661 598.142 95.9248C597.801 95.779 597.529 95.5306 597.329 95.1797C597.128 94.8288 597.028 94.3434 597.028 93.7236V89.6562H595.996V88.9385L597.103 88.3711L597.63 86.751H598.641V88.4326H600.808V89.6562H598.641V93.7031C598.641 94.0859 598.737 94.3708 598.929 94.5576C599.12 94.7445 599.373 94.8379 599.687 94.8379ZM609.527 92.1992C609.527 92.8281 609.445 93.3864 609.281 93.874C609.117 94.3617 608.878 94.7741 608.563 95.1113C608.249 95.444 607.871 95.6992 607.429 95.877C606.987 96.0501 606.488 96.1367 605.932 96.1367C605.412 96.1367 604.936 96.0501 604.503 95.877C604.07 95.6992 603.694 95.444 603.375 95.1113C603.06 94.7741 602.817 94.3617 602.643 93.874C602.47 93.3864 602.384 92.8281 602.384 92.1992C602.384 91.3652 602.527 90.6589 602.814 90.0801C603.106 89.4967 603.521 89.0524 604.059 88.7471C604.596 88.4417 605.237 88.2891 605.979 88.2891C606.677 88.2891 607.292 88.4417 607.825 88.7471C608.358 89.0524 608.775 89.4967 609.076 90.0801C609.377 90.6634 609.527 91.3698 609.527 92.1992ZM604.038 92.1992C604.038 92.7507 604.104 93.2223 604.236 93.6143C604.373 94.0062 604.583 94.307 604.865 94.5166C605.148 94.7217 605.512 94.8242 605.959 94.8242C606.406 94.8242 606.77 94.7217 607.053 94.5166C607.335 94.307 607.543 94.0062 607.675 93.6143C607.807 93.2223 607.873 92.7507 607.873 92.1992C607.873 91.6478 607.807 91.1807 607.675 90.7979C607.543 90.4105 607.335 90.1165 607.053 89.916C606.77 89.7109 606.403 89.6084 605.952 89.6084C605.287 89.6084 604.801 89.8317 604.496 90.2783C604.191 90.7249 604.038 91.3652 604.038 92.1992ZM615.737 88.2891C616.59 88.2891 617.253 88.5101 617.727 88.9521C618.205 89.3896 618.444 90.0938 618.444 91.0645V96H616.838V91.3652C616.838 90.7773 616.717 90.3376 616.476 90.0459C616.234 89.7497 615.86 89.6016 615.354 89.6016C614.621 89.6016 614.11 89.8271 613.823 90.2783C613.541 90.7295 613.399 91.3835 613.399 92.2402V96H611.793V88.4326H613.044L613.27 89.458H613.358C613.522 89.1937 613.725 88.9772 613.967 88.8086C614.213 88.6354 614.486 88.5055 614.787 88.4189C615.092 88.3324 615.409 88.2891 615.737 88.2891ZM629.593 87.2568C629.114 87.2568 628.686 87.3434 628.308 87.5166C627.934 87.6898 627.617 87.9404 627.358 88.2686C627.098 88.5921 626.9 88.9863 626.763 89.4512C626.626 89.9115 626.558 90.431 626.558 91.0098C626.558 91.7845 626.667 92.4521 626.886 93.0127C627.105 93.5687 627.437 93.9971 627.884 94.2979C628.331 94.5941 628.896 94.7422 629.579 94.7422C630.003 94.7422 630.416 94.7012 630.817 94.6191C631.218 94.5371 631.632 94.4255 632.061 94.2842V95.6787C631.655 95.8382 631.245 95.9544 630.83 96.0273C630.416 96.1003 629.937 96.1367 629.395 96.1367C628.374 96.1367 627.526 95.9248 626.852 95.501C626.182 95.0771 625.68 94.4801 625.348 93.71C625.02 92.9398 624.856 92.0374 624.856 91.0029C624.856 90.2464 624.96 89.5537 625.17 88.9248C625.38 88.2959 625.685 87.7536 626.086 87.2979C626.487 86.8376 626.982 86.4844 627.569 86.2383C628.162 85.9876 628.839 85.8623 629.6 85.8623C630.101 85.8623 630.593 85.9193 631.076 86.0332C631.564 86.1426 632.015 86.2998 632.43 86.5049L631.856 87.8584C631.509 87.6943 631.147 87.5531 630.769 87.4346C630.39 87.3161 629.999 87.2568 629.593 87.2568ZM643.5 90.9893C643.5 91.7594 643.402 92.4613 643.206 93.0947C643.015 93.7236 642.725 94.266 642.338 94.7217C641.951 95.1729 641.465 95.5215 640.882 95.7676C640.299 96.0137 639.615 96.1367 638.831 96.1367C638.034 96.1367 637.341 96.0137 636.753 95.7676C636.17 95.5215 635.684 95.1706 635.297 94.7148C634.914 94.2591 634.627 93.7145 634.436 93.0811C634.244 92.4476 634.149 91.7458 634.149 90.9756C634.149 89.9456 634.317 89.0479 634.655 88.2822C634.996 87.512 635.514 86.915 636.206 86.4912C636.904 86.0628 637.783 85.8486 638.845 85.8486C639.884 85.8486 640.748 86.0605 641.436 86.4844C642.124 86.9082 642.639 87.5052 642.981 88.2754C643.327 89.041 643.5 89.9456 643.5 90.9893ZM635.871 90.9893C635.871 91.7594 635.976 92.4271 636.186 92.9922C636.395 93.5527 636.717 93.9857 637.15 94.291C637.587 94.5918 638.148 94.7422 638.831 94.7422C639.519 94.7422 640.08 94.5918 640.513 94.291C640.946 93.9857 641.265 93.5527 641.47 92.9922C641.675 92.4271 641.778 91.7594 641.778 90.9893C641.778 89.818 641.543 88.902 641.073 88.2412C640.609 87.5758 639.866 87.2432 638.845 87.2432C638.161 87.2432 637.599 87.3936 637.156 87.6943C636.719 87.9951 636.395 88.4258 636.186 88.9863C635.976 89.5423 635.871 90.21 635.871 90.9893ZM652.151 96H645.383V94.79L647.974 92.165C648.475 91.6546 648.888 91.2148 649.211 90.8457C649.535 90.472 649.774 90.1188 649.929 89.7861C650.089 89.4535 650.168 89.0911 650.168 88.6992C650.168 88.2161 650.029 87.8516 649.751 87.6055C649.473 87.3548 649.106 87.2295 648.651 87.2295C648.218 87.2295 647.817 87.3161 647.448 87.4893C647.083 87.6579 646.705 87.8994 646.313 88.2139L645.431 87.1543C645.709 86.9173 646.005 86.7008 646.32 86.5049C646.639 86.3089 646.994 86.154 647.386 86.04C647.778 85.9215 648.225 85.8623 648.726 85.8623C649.359 85.8623 649.906 85.9762 650.367 86.2041C650.827 86.4274 651.18 86.7396 651.426 87.1406C651.677 87.5417 651.802 88.0088 651.802 88.542C651.802 89.0798 651.695 89.5765 651.481 90.0322C651.267 90.488 650.961 90.9391 650.565 91.3857C650.168 91.8278 649.697 92.3086 649.15 92.8281L647.42 94.5166V94.5918H652.151V96Z" fill="#11D645"/>
</g>
<path d="M233.75 157H228.98V148.434H233.75V149.312H229.976V152.084H233.533V152.951H229.976V156.121H233.75V157ZM242.834 150.461C243.541 150.461 244.075 150.646 244.434 151.018C244.793 151.385 244.973 151.977 244.973 152.793V157H244.012V152.84C244.012 152.32 243.899 151.932 243.672 151.674C243.45 151.412 243.118 151.281 242.676 151.281C242.055 151.281 241.604 151.461 241.323 151.82C241.041 152.18 240.901 152.709 240.901 153.408V157H239.934V152.84C239.934 152.492 239.883 152.203 239.782 151.973C239.684 151.742 239.536 151.57 239.336 151.457C239.141 151.34 238.893 151.281 238.592 151.281C238.166 151.281 237.825 151.369 237.567 151.545C237.309 151.721 237.121 151.982 237.004 152.33C236.891 152.674 236.834 153.098 236.834 153.602V157H235.862V150.578H236.647L236.793 151.486H236.846C236.975 151.264 237.137 151.076 237.332 150.924C237.528 150.771 237.746 150.656 237.989 150.578C238.231 150.5 238.489 150.461 238.762 150.461C239.25 150.461 239.659 150.553 239.987 150.736C240.319 150.916 240.559 151.191 240.707 151.562H240.76C240.971 151.191 241.26 150.916 241.627 150.736C241.995 150.553 242.397 150.461 242.834 150.461ZM248.304 150.578V157H247.331V150.578H248.304ZM247.829 148.176C247.989 148.176 248.126 148.229 248.239 148.334C248.356 148.436 248.415 148.596 248.415 148.814C248.415 149.029 248.356 149.189 248.239 149.295C248.126 149.4 247.989 149.453 247.829 149.453C247.661 149.453 247.521 149.4 247.407 149.295C247.298 149.189 247.243 149.029 247.243 148.814C247.243 148.596 247.298 148.436 247.407 148.334C247.521 148.229 247.661 148.176 247.829 148.176ZM254.881 155.242C254.881 155.652 254.777 155.998 254.57 156.279C254.367 156.557 254.074 156.766 253.691 156.906C253.312 157.047 252.859 157.117 252.332 157.117C251.883 157.117 251.494 157.082 251.166 157.012C250.838 156.941 250.55 156.842 250.304 156.713V155.816C250.566 155.945 250.879 156.062 251.242 156.168C251.605 156.273 251.976 156.326 252.355 156.326C252.91 156.326 253.312 156.236 253.562 156.057C253.812 155.877 253.937 155.633 253.937 155.324C253.937 155.148 253.886 154.994 253.785 154.861C253.687 154.725 253.521 154.594 253.287 154.469C253.052 154.34 252.728 154.199 252.314 154.047C251.904 153.891 251.549 153.736 251.248 153.584C250.951 153.428 250.72 153.238 250.556 153.016C250.396 152.793 250.316 152.504 250.316 152.148C250.316 151.605 250.535 151.189 250.972 150.9C251.414 150.607 251.992 150.461 252.707 150.461C253.093 150.461 253.455 150.5 253.791 150.578C254.131 150.652 254.447 150.754 254.74 150.883L254.412 151.662C254.146 151.549 253.863 151.453 253.562 151.375C253.261 151.297 252.955 151.258 252.642 151.258C252.193 151.258 251.847 151.332 251.605 151.48C251.367 151.629 251.248 151.832 251.248 152.09C251.248 152.289 251.302 152.453 251.412 152.582C251.525 152.711 251.705 152.832 251.951 152.945C252.197 153.059 252.521 153.191 252.924 153.344C253.326 153.492 253.674 153.646 253.966 153.807C254.259 153.963 254.484 154.154 254.64 154.381C254.8 154.604 254.881 154.891 254.881 155.242ZM260.959 155.242C260.959 155.652 260.856 155.998 260.649 156.279C260.446 156.557 260.153 156.766 259.77 156.906C259.391 157.047 258.938 157.117 258.41 157.117C257.961 157.117 257.573 157.082 257.244 157.012C256.916 156.941 256.629 156.842 256.383 156.713V155.816C256.645 155.945 256.957 156.062 257.321 156.168C257.684 156.273 258.055 156.326 258.434 156.326C258.989 156.326 259.391 156.236 259.641 156.057C259.891 155.877 260.016 155.633 260.016 155.324C260.016 155.148 259.965 154.994 259.864 154.861C259.766 154.725 259.6 154.594 259.366 154.469C259.131 154.34 258.807 154.199 258.393 154.047C257.983 153.891 257.627 153.736 257.326 153.584C257.03 153.428 256.799 153.238 256.635 153.016C256.475 152.793 256.395 152.504 256.395 152.148C256.395 151.605 256.614 151.189 257.051 150.9C257.493 150.607 258.071 150.461 258.785 150.461C259.172 150.461 259.534 150.5 259.869 150.578C260.209 150.652 260.526 150.754 260.819 150.883L260.491 151.662C260.225 151.549 259.942 151.453 259.641 151.375C259.34 151.297 259.034 151.258 258.721 151.258C258.272 151.258 257.926 151.332 257.684 151.48C257.446 151.629 257.326 151.832 257.326 152.09C257.326 152.289 257.381 152.453 257.491 152.582C257.604 152.711 257.784 152.832 258.03 152.945C258.276 153.059 258.6 153.191 259.002 153.344C259.405 153.492 259.752 153.646 260.045 153.807C260.338 153.963 260.563 154.154 260.719 154.381C260.879 154.604 260.959 154.891 260.959 155.242ZM263.856 150.578V157H262.884V150.578H263.856ZM263.382 148.176C263.542 148.176 263.679 148.229 263.792 148.334C263.909 148.436 263.968 148.596 263.968 148.814C263.968 149.029 263.909 149.189 263.792 149.295C263.679 149.4 263.542 149.453 263.382 149.453C263.214 149.453 263.073 149.4 262.96 149.295C262.851 149.189 262.796 149.029 262.796 148.814C262.796 148.596 262.851 148.436 262.96 148.334C263.073 148.229 263.214 148.176 263.382 148.176ZM271.816 153.777C271.816 154.305 271.748 154.775 271.611 155.189C271.474 155.604 271.277 155.953 271.019 156.238C270.761 156.523 270.449 156.742 270.082 156.895C269.718 157.043 269.306 157.117 268.845 157.117C268.416 157.117 268.021 157.043 267.662 156.895C267.306 156.742 266.998 156.523 266.736 156.238C266.478 155.953 266.277 155.604 266.132 155.189C265.992 154.775 265.921 154.305 265.921 153.777C265.921 153.074 266.041 152.477 266.279 151.984C266.517 151.488 266.857 151.111 267.298 150.854C267.744 150.592 268.273 150.461 268.886 150.461C269.472 150.461 269.984 150.592 270.421 150.854C270.863 151.115 271.205 151.494 271.447 151.99C271.693 152.482 271.816 153.078 271.816 153.777ZM266.929 153.777C266.929 154.293 266.998 154.74 267.134 155.119C267.271 155.498 267.482 155.791 267.767 155.998C268.052 156.205 268.42 156.309 268.869 156.309C269.314 156.309 269.679 156.205 269.964 155.998C270.254 155.791 270.466 155.498 270.603 155.119C270.74 154.74 270.808 154.293 270.808 153.777C270.808 153.266 270.74 152.824 270.603 152.453C270.466 152.078 270.255 151.789 269.97 151.586C269.685 151.383 269.316 151.281 268.863 151.281C268.195 151.281 267.705 151.502 267.392 151.943C267.084 152.385 266.929 152.996 266.929 153.777ZM276.899 150.461C277.66 150.461 278.237 150.648 278.627 151.023C279.018 151.395 279.213 151.992 279.213 152.816V157H278.252V152.881C278.252 152.346 278.129 151.945 277.883 151.68C277.641 151.414 277.268 151.281 276.764 151.281C276.053 151.281 275.553 151.482 275.264 151.885C274.975 152.287 274.83 152.871 274.83 153.637V157H273.858V150.578H274.643L274.789 151.504H274.842C274.979 151.277 275.153 151.088 275.364 150.936C275.574 150.779 275.811 150.662 276.073 150.584C276.334 150.502 276.61 150.461 276.899 150.461Z" fill="#9CA3AF"/>
<path d="M426.807 152.705C426.807 153.365 426.723 153.967 426.555 154.51C426.387 155.049 426.137 155.514 425.805 155.904C425.477 156.291 425.069 156.59 424.581 156.801C424.093 157.012 423.526 157.117 422.882 157.117C422.218 157.117 421.637 157.012 421.141 156.801C420.649 156.59 420.239 156.289 419.911 155.898C419.587 155.508 419.343 155.041 419.178 154.498C419.018 153.955 418.938 153.354 418.938 152.693C418.938 151.818 419.083 151.051 419.372 150.391C419.661 149.73 420.098 149.217 420.684 148.85C421.274 148.482 422.012 148.299 422.899 148.299C423.747 148.299 424.46 148.48 425.038 148.844C425.62 149.207 426.059 149.719 426.356 150.379C426.657 151.035 426.807 151.811 426.807 152.705ZM419.987 152.705C419.987 153.432 420.091 154.061 420.298 154.592C420.505 155.123 420.821 155.533 421.247 155.822C421.676 156.111 422.221 156.256 422.882 156.256C423.546 156.256 424.089 156.111 424.51 155.822C424.936 155.533 425.251 155.123 425.454 154.592C425.657 154.061 425.759 153.432 425.759 152.705C425.759 151.6 425.526 150.736 425.061 150.115C424.6 149.49 423.88 149.178 422.899 149.178C422.235 149.178 421.688 149.32 421.259 149.605C420.829 149.891 420.509 150.297 420.298 150.824C420.091 151.348 419.987 151.975 419.987 152.705ZM431.79 151.34H430.191V157H429.218V151.34H428.081V150.871L429.218 150.549V150.121C429.218 149.582 429.298 149.145 429.458 148.809C429.619 148.469 429.851 148.219 430.156 148.059C430.46 147.898 430.831 147.818 431.269 147.818C431.515 147.818 431.74 147.84 431.943 147.883C432.15 147.926 432.331 147.975 432.488 148.029L432.236 148.797C432.103 148.754 431.953 148.715 431.785 148.68C431.62 148.641 431.453 148.621 431.281 148.621C430.91 148.621 430.634 148.742 430.454 148.984C430.279 149.223 430.191 149.598 430.191 150.109V150.578H431.79V151.34ZM435.828 151.34H434.228V157H433.255V151.34H432.119V150.871L433.255 150.549V150.121C433.255 149.582 433.335 149.145 433.495 148.809C433.656 148.469 433.888 148.219 434.193 148.059C434.497 147.898 434.869 147.818 435.306 147.818C435.552 147.818 435.777 147.84 435.98 147.883C436.187 147.926 436.369 147.975 436.525 148.029L436.273 148.797C436.14 148.754 435.99 148.715 435.822 148.68C435.658 148.641 435.49 148.621 435.318 148.621C434.947 148.621 434.671 148.742 434.492 148.984C434.316 149.223 434.228 149.598 434.228 150.109V150.578H435.828V151.34ZM441.52 155.242C441.52 155.652 441.416 155.998 441.209 156.279C441.006 156.557 440.713 156.766 440.33 156.906C439.951 157.047 439.498 157.117 438.971 157.117C438.521 157.117 438.133 157.082 437.805 157.012C437.477 156.941 437.189 156.842 436.943 156.713V155.816C437.205 155.945 437.518 156.062 437.881 156.168C438.244 156.273 438.615 156.326 438.994 156.326C439.549 156.326 439.951 156.236 440.201 156.057C440.451 155.877 440.576 155.633 440.576 155.324C440.576 155.148 440.525 154.994 440.424 154.861C440.326 154.725 440.16 154.594 439.926 154.469C439.691 154.34 439.367 154.199 438.953 154.047C438.543 153.891 438.188 153.736 437.887 153.584C437.59 153.428 437.359 153.238 437.195 153.016C437.035 152.793 436.955 152.504 436.955 152.148C436.955 151.605 437.174 151.189 437.611 150.9C438.053 150.607 438.631 150.461 439.346 150.461C439.732 150.461 440.094 150.5 440.43 150.578C440.77 150.652 441.086 150.754 441.379 150.883L441.051 151.662C440.785 151.549 440.502 151.453 440.201 151.375C439.9 151.297 439.594 151.258 439.281 151.258C438.832 151.258 438.486 151.332 438.244 151.48C438.006 151.629 437.887 151.832 437.887 152.09C437.887 152.289 437.941 152.453 438.051 152.582C438.164 152.711 438.344 152.832 438.59 152.945C438.836 153.059 439.16 153.191 439.563 153.344C439.965 153.492 440.313 153.646 440.605 153.807C440.898 153.963 441.123 154.154 441.279 154.381C441.439 154.604 441.52 154.891 441.52 155.242ZM445.917 150.461C446.464 150.461 446.932 150.582 447.323 150.824C447.714 151.066 448.012 151.406 448.219 151.844C448.426 152.277 448.53 152.785 448.53 153.367V153.971H444.094C444.106 154.725 444.294 155.299 444.657 155.693C445.02 156.088 445.532 156.285 446.192 156.285C446.598 156.285 446.958 156.248 447.27 156.174C447.583 156.1 447.907 155.99 448.243 155.846V156.701C447.919 156.846 447.596 156.951 447.276 157.018C446.96 157.084 446.585 157.117 446.151 157.117C445.534 157.117 444.995 156.992 444.534 156.742C444.077 156.488 443.721 156.117 443.467 155.629C443.214 155.141 443.087 154.543 443.087 153.836C443.087 153.145 443.202 152.547 443.432 152.043C443.667 151.535 443.995 151.145 444.417 150.871C444.842 150.598 445.342 150.461 445.917 150.461ZM445.905 151.258C445.385 151.258 444.971 151.428 444.663 151.768C444.354 152.107 444.171 152.582 444.112 153.191H447.51C447.506 152.809 447.446 152.473 447.329 152.184C447.215 151.891 447.042 151.664 446.807 151.504C446.573 151.34 446.272 151.258 445.905 151.258ZM452.616 156.32C452.777 156.32 452.941 156.307 453.109 156.279C453.277 156.252 453.413 156.219 453.519 156.18V156.936C453.406 156.986 453.247 157.029 453.044 157.064C452.845 157.1 452.65 157.117 452.458 157.117C452.118 157.117 451.81 157.059 451.533 156.941C451.255 156.82 451.033 156.617 450.865 156.332C450.7 156.047 450.618 155.652 450.618 155.148V151.34H449.704V150.865L450.624 150.484L451.011 149.09H451.597V150.578H453.478V151.34H451.597V155.119C451.597 155.521 451.689 155.822 451.872 156.021C452.06 156.221 452.308 156.32 452.616 156.32Z" fill="#9CA3AF"/>
<path d="M578.23 149.189C577.758 149.189 577.332 149.271 576.953 149.436C576.578 149.596 576.258 149.83 575.992 150.139C575.73 150.443 575.529 150.812 575.389 151.246C575.248 151.68 575.178 152.168 575.178 152.711C575.178 153.43 575.289 154.055 575.512 154.586C575.738 155.113 576.074 155.521 576.519 155.811C576.969 156.1 577.529 156.244 578.201 156.244C578.584 156.244 578.943 156.213 579.279 156.15C579.619 156.084 579.949 156.002 580.269 155.904V156.771C579.957 156.889 579.629 156.975 579.285 157.029C578.941 157.088 578.533 157.117 578.06 157.117C577.189 157.117 576.461 156.937 575.875 156.578C575.293 156.215 574.855 155.703 574.562 155.043C574.273 154.383 574.129 153.604 574.129 152.705C574.129 152.057 574.219 151.465 574.398 150.93C574.582 150.391 574.848 149.926 575.195 149.535C575.547 149.145 575.976 148.844 576.484 148.633C576.996 148.418 577.582 148.311 578.242 148.311C578.676 148.311 579.094 148.354 579.496 148.439C579.898 148.525 580.262 148.648 580.586 148.809L580.187 149.652C579.914 149.527 579.613 149.42 579.285 149.33C578.961 149.236 578.609 149.189 578.23 149.189ZM584.743 150.473C585.508 150.473 586.077 150.645 586.448 150.988C586.819 151.332 587.004 151.881 587.004 152.635V157H586.295L586.108 156.051H586.061C585.881 156.285 585.694 156.482 585.499 156.643C585.303 156.799 585.077 156.918 584.819 157C584.565 157.078 584.252 157.117 583.881 157.117C583.491 157.117 583.143 157.049 582.838 156.912C582.538 156.775 582.299 156.568 582.124 156.291C581.952 156.014 581.866 155.662 581.866 155.236C581.866 154.596 582.12 154.104 582.627 153.76C583.135 153.416 583.909 153.229 584.948 153.197L586.055 153.15V152.758C586.055 152.203 585.936 151.814 585.698 151.592C585.459 151.369 585.124 151.258 584.69 151.258C584.354 151.258 584.034 151.307 583.729 151.404C583.424 151.502 583.135 151.617 582.862 151.75L582.563 151.012C582.852 150.863 583.184 150.736 583.559 150.631C583.934 150.525 584.329 150.473 584.743 150.473ZM586.043 153.836L585.065 153.877C584.264 153.908 583.7 154.039 583.372 154.27C583.043 154.5 582.879 154.826 582.879 155.248C582.879 155.615 582.991 155.887 583.213 156.062C583.436 156.238 583.731 156.326 584.098 156.326C584.668 156.326 585.135 156.168 585.499 155.852C585.862 155.535 586.043 155.061 586.043 154.428V153.836ZM592.286 150.461C592.415 150.461 592.55 150.469 592.691 150.484C592.831 150.496 592.956 150.514 593.066 150.537L592.943 151.439C592.837 151.412 592.72 151.391 592.591 151.375C592.462 151.359 592.341 151.352 592.228 151.352C591.97 151.352 591.726 151.404 591.495 151.51C591.269 151.611 591.069 151.76 590.898 151.955C590.726 152.146 590.591 152.379 590.493 152.652C590.396 152.922 590.347 153.223 590.347 153.555V157H589.368V150.578H590.177L590.282 151.762H590.323C590.456 151.523 590.616 151.307 590.804 151.111C590.991 150.912 591.208 150.754 591.454 150.637C591.704 150.52 591.982 150.461 592.286 150.461ZM595.611 147.883V150.162C595.611 150.424 595.603 150.678 595.588 150.924C595.576 151.17 595.566 151.361 595.558 151.498H595.611C595.787 151.209 596.041 150.965 596.373 150.766C596.705 150.566 597.129 150.467 597.644 150.467C598.449 150.467 599.09 150.746 599.566 151.305C600.047 151.859 600.287 152.686 600.287 153.783C600.287 154.506 600.178 155.115 599.959 155.611C599.74 156.107 599.431 156.482 599.033 156.736C598.635 156.99 598.164 157.117 597.621 157.117C597.113 157.117 596.695 157.023 596.367 156.836C596.043 156.645 595.793 156.412 595.617 156.139H595.541L595.342 157H594.638V147.883H595.611ZM597.486 151.281C597.021 151.281 596.652 151.373 596.379 151.557C596.105 151.736 595.908 152.01 595.787 152.377C595.67 152.74 595.611 153.201 595.611 153.76V153.812C595.611 154.621 595.746 155.24 596.015 155.67C596.285 156.096 596.775 156.309 597.486 156.309C598.084 156.309 598.531 156.09 598.828 155.652C599.129 155.215 599.279 154.59 599.279 153.777C599.279 152.949 599.131 152.326 598.834 151.908C598.541 151.49 598.092 151.281 597.486 151.281ZM607.883 153.777C607.883 154.305 607.815 154.775 607.678 155.189C607.541 155.604 607.344 155.953 607.086 156.238C606.829 156.523 606.516 156.742 606.149 156.895C605.786 157.043 605.373 157.117 604.913 157.117C604.483 157.117 604.088 157.043 603.729 156.895C603.373 156.742 603.065 156.523 602.803 156.238C602.545 155.953 602.344 155.604 602.2 155.189C602.059 154.775 601.989 154.305 601.989 153.777C601.989 153.074 602.108 152.477 602.346 151.984C602.584 151.488 602.924 151.111 603.366 150.854C603.811 150.592 604.34 150.461 604.954 150.461C605.539 150.461 606.051 150.592 606.489 150.854C606.93 151.115 607.272 151.494 607.514 151.99C607.76 152.482 607.883 153.078 607.883 153.777ZM602.996 153.777C602.996 154.293 603.065 154.74 603.202 155.119C603.338 155.498 603.549 155.791 603.834 155.998C604.12 156.205 604.487 156.309 604.936 156.309C605.381 156.309 605.746 156.205 606.032 155.998C606.321 155.791 606.534 155.498 606.67 155.119C606.807 154.74 606.875 154.293 606.875 153.777C606.875 153.266 606.807 152.824 606.67 152.453C606.534 152.078 606.323 151.789 606.038 151.586C605.752 151.383 605.383 151.281 604.93 151.281C604.262 151.281 603.772 151.502 603.459 151.943C603.151 152.385 602.996 152.996 602.996 153.777ZM612.966 150.461C613.728 150.461 614.304 150.648 614.694 151.023C615.085 151.395 615.28 151.992 615.28 152.816V157H614.319V152.881C614.319 152.346 614.196 151.945 613.95 151.68C613.708 151.414 613.335 151.281 612.831 151.281C612.12 151.281 611.62 151.482 611.331 151.885C611.042 152.287 610.897 152.871 610.897 153.637V157H609.925V150.578H610.71L610.856 151.504H610.909C611.046 151.277 611.22 151.088 611.431 150.936C611.642 150.779 611.878 150.662 612.14 150.584C612.401 150.502 612.677 150.461 612.966 150.461ZM624.162 150.461C624.924 150.461 625.5 150.648 625.891 151.023C626.282 151.395 626.477 151.992 626.477 152.816V157H625.516V152.881C625.516 152.346 625.393 151.945 625.147 151.68C624.905 151.414 624.532 151.281 624.028 151.281C623.317 151.281 622.817 151.482 622.528 151.885C622.239 152.287 622.094 152.871 622.094 153.637V157H621.121V150.578H621.907L622.053 151.504H622.106C622.243 151.277 622.416 151.088 622.627 150.936C622.838 150.779 623.075 150.662 623.336 150.584C623.598 150.502 623.873 150.461 624.162 150.461ZM631.313 150.461C631.86 150.461 632.329 150.582 632.72 150.824C633.11 151.066 633.409 151.406 633.616 151.844C633.823 152.277 633.927 152.785 633.927 153.367V153.971H629.491C629.503 154.725 629.69 155.299 630.054 155.693C630.417 156.088 630.929 156.285 631.589 156.285C631.995 156.285 632.354 156.248 632.667 156.174C632.979 156.1 633.304 155.99 633.64 155.846V156.701C633.315 156.846 632.993 156.951 632.673 157.018C632.356 157.084 631.981 157.117 631.548 157.117C630.931 157.117 630.392 156.992 629.931 156.742C629.474 156.488 629.118 156.117 628.864 155.629C628.61 155.141 628.483 154.543 628.483 153.836C628.483 153.145 628.599 152.547 628.829 152.043C629.063 151.535 629.392 151.145 629.813 150.871C630.239 150.598 630.739 150.461 631.313 150.461ZM631.302 151.258C630.782 151.258 630.368 151.428 630.06 151.768C629.751 152.107 629.567 152.582 629.509 153.191H632.907C632.903 152.809 632.843 152.473 632.726 152.184C632.612 151.891 632.438 151.664 632.204 151.504C631.97 151.34 631.669 151.258 631.302 151.258ZM641.242 150.578V157H640.445L640.304 156.098H640.252C640.119 156.32 639.947 156.508 639.736 156.66C639.525 156.812 639.287 156.926 639.021 157C638.759 157.078 638.48 157.117 638.183 157.117C637.675 157.117 637.25 157.035 636.906 156.871C636.562 156.707 636.302 156.453 636.127 156.109C635.955 155.766 635.869 155.324 635.869 154.785V150.578H636.853V154.715C636.853 155.25 636.974 155.65 637.216 155.916C637.459 156.178 637.828 156.309 638.324 156.309C638.8 156.309 639.179 156.219 639.461 156.039C639.746 155.859 639.951 155.596 640.076 155.248C640.201 154.896 640.263 154.467 640.263 153.959V150.578H641.242ZM645.733 156.32C645.893 156.32 646.057 156.307 646.225 156.279C646.393 156.252 646.53 156.219 646.635 156.18V156.936C646.522 156.986 646.364 157.029 646.16 157.064C645.961 157.1 645.766 157.117 645.574 157.117C645.235 157.117 644.926 157.059 644.649 156.941C644.371 156.82 644.149 156.617 643.981 156.332C643.817 156.047 643.735 155.652 643.735 155.148V151.34H642.821V150.865L643.74 150.484L644.127 149.09H644.713V150.578H646.594V151.34H644.713V155.119C644.713 155.521 644.805 155.822 644.989 156.021C645.176 156.221 645.424 156.32 645.733 156.32ZM651.214 150.461C651.343 150.461 651.477 150.469 651.618 150.484C651.759 150.496 651.884 150.514 651.993 150.537L651.87 151.439C651.765 151.412 651.647 151.391 651.518 151.375C651.39 151.359 651.268 151.352 651.155 151.352C650.897 151.352 650.653 151.404 650.423 151.51C650.196 151.611 649.997 151.76 649.825 151.955C649.653 152.146 649.518 152.379 649.421 152.652C649.323 152.922 649.274 153.223 649.274 153.555V157H648.296V150.578H649.104L649.21 151.762H649.251C649.384 151.523 649.544 151.307 649.731 151.111C649.919 150.912 650.136 150.754 650.382 150.637C650.632 150.52 650.909 150.461 651.214 150.461ZM655.968 150.473C656.734 150.473 657.302 150.645 657.673 150.988C658.044 151.332 658.23 151.881 658.23 152.635V157H657.521L657.334 156.051H657.287C657.107 156.285 656.919 156.482 656.724 156.643C656.529 156.799 656.302 156.918 656.044 157C655.791 157.078 655.478 157.117 655.107 157.117C654.716 157.117 654.369 157.049 654.064 156.912C653.763 156.775 653.525 156.568 653.349 156.291C653.177 156.014 653.091 155.662 653.091 155.236C653.091 154.596 653.345 154.104 653.853 153.76C654.361 153.416 655.134 153.229 656.173 153.197L657.281 153.15V152.758C657.281 152.203 657.162 151.814 656.923 151.592C656.685 151.369 656.349 151.258 655.916 151.258C655.58 151.258 655.259 151.307 654.955 151.404C654.65 151.502 654.361 151.617 654.087 151.75L653.789 151.012C654.078 150.863 654.41 150.736 654.785 150.631C655.16 150.525 655.554 150.473 655.968 150.473ZM657.269 153.836L656.291 153.877C655.49 153.908 654.925 154.039 654.597 154.27C654.269 154.5 654.105 154.826 654.105 155.248C654.105 155.615 654.216 155.887 654.439 156.062C654.662 156.238 654.957 156.326 655.324 156.326C655.894 156.326 656.361 156.168 656.724 155.852C657.087 155.535 657.269 155.061 657.269 154.428V153.836ZM661.572 157H660.594V147.883H661.572V157Z" fill="#9CA3AF"/>
<defs>
<filter id="filter0_d_2566_82087" x="0" y="0" width="144" height="144" filterUnits="userSpaceOnUse" color-interpolation-filters="sRGB">
<feFlood flood-opacity="0" result="BackgroundImageFix"/>
<feColorMatrix in="SourceAlpha" type="matrix" values="0 0 0 0 0 0 0 0 0 0 0 0 0 0 0 0 0 0 127 0" result="hardAlpha"/>
<feOffset dy="4"/>
<feGaussianBlur stdDeviation="6"/>
<feComposite in2="hardAlpha" operator="out"/>
<feColorMatrix type="matrix" values="0 0 0 0 0 0 0 0 0 0 0 0 0 0 0 0 0 0 0.05 0"/>
<feBlend mode="normal" in2="BackgroundImageFix" result="effect1_dropShadow_2566_82087"/>
<feBlend mode="normal" in="SourceGraphic" in2="effect1_dropShadow_2566_82087" result="shape"/>
</filter>
<filter id="filter1_d_2566_82087" x="182" y="0" width="144" height="144" filterUnits="userSpaceOnUse" color-interpolation-filters="sRGB">
<feFlood flood-opacity="0" result="BackgroundImageFix"/>
<feColorMatrix in="SourceAlpha" type="matrix" values="0 0 0 0 0 0 0 0 0 0 0 0 0 0 0 0 0 0 127 0" result="hardAlpha"/>
<feOffset dy="4"/>
<feGaussianBlur stdDeviation="6"/>
<feComposite in2="hardAlpha" operator="out"/>
<feColorMatrix type="matrix" values="0 0 0 0 0 0 0 0 0 0 0 0 0 0 0 0 0 0 0.05 0"/>
<feBlend mode="normal" in2="BackgroundImageFix" result="effect1_dropShadow_2566_82087"/>
<feBlend mode="normal" in="SourceGraphic" in2="effect1_dropShadow_2566_82087" result="shape"/>
</filter>
<filter id="filter2_d_2566_82087" x="364" y="0" width="144" height="144" filterUnits="userSpaceOnUse" color-interpolation-filters="sRGB">
<feFlood flood-opacity="0" result="BackgroundImageFix"/>
<feColorMatrix in="SourceAlpha" type="matrix" values="0 0 0 0 0 0 0 0 0 0 0 0 0 0 0 0 0 0 127 0" result="hardAlpha"/>
<feOffset dy="4"/>
<feGaussianBlur stdDeviation="6"/>
<feComposite in2="hardAlpha" operator="out"/>
<feColorMatrix type="matrix" values="0 0 0 0 0 0 0 0 0 0 0 0 0 0 0 0 0 0 0.05 0"/>
<feBlend mode="normal" in2="BackgroundImageFix" result="effect1_dropShadow_2566_82087"/>
<feBlend mode="normal" in="SourceGraphic" in2="effect1_dropShadow_2566_82087" result="shape"/>
</filter>
<filter id="filter3_d_2566_82087" x="546" y="0" width="144" height="144" filterUnits="userSpaceOnUse" color-interpolation-filters="sRGB">
<feFlood flood-opacity="0" result="BackgroundImageFix"/>
<feColorMatrix in="SourceAlpha" type="matrix" values="0 0 0 0 0 0 0 0 0 0 0 0 0 0 0 0 0 0 127 0" result="hardAlpha"/>
<feOffset dy="4"/>
<feGaussianBlur stdDeviation="6"/>
<feComposite in2="hardAlpha" operator="out"/>
<feColorMatrix type="matrix" values="0 0 0 0 0 0 0 0 0 0 0 0 0 0 0 0 0 0 0.05 0"/>
<feBlend mode="normal" in2="BackgroundImageFix" result="effect1_dropShadow_2566_82087"/>
<feBlend mode="normal" in="SourceGraphic" in2="effect1_dropShadow_2566_82087" result="shape"/>
</filter>
</defs>
</svg>
