<svg width="616" height="570" viewBox="0 0 616 570" fill="none" xmlns="http://www.w3.org/2000/svg">
<path d="M154.735 434.145C160.143 441.674 168.609 448.355 176.989 452.248C181.741 454.456 186.883 455.753 192.028 456.65C194.69 457.117 197.35 457.451 200.043 457.651C200.826 457.708 204.102 457.302 204.46 458.032C205.663 460.486 193.86 459.606 192.592 459.416C187.243 458.632 181.852 457.568 176.844 455.48C168.435 451.996 159.825 446.454 153.926 439.45C150.494 435.374 147.005 431.326 144.506 426.534C143.455 424.517 142.586 422.401 141.934 420.228C141.469 418.687 141.03 417.103 140.764 415.513C140.569 414.339 140.919 412.729 140.541 411.655C139.016 412.977 138.642 415.727 137.161 417.218C135.4 418.989 134.939 416.952 135.379 415.349C136.086 412.803 137.207 410.397 138.209 407.963C139.062 405.885 139.649 403.022 142.359 403.511C144.737 403.939 147.018 405.317 149.23 406.22C150.705 406.827 154.232 407.381 154.679 409.237C156.084 415.019 145.227 407.819 144.274 407.657C144.258 408.595 144.715 409.611 144.858 410.556C145.068 411.921 145.083 413.304 145.301 414.668C145.714 417.242 146.419 419.856 147.334 422.3C148.916 426.539 151.612 430.87 154.731 434.149C154.278 433.68 156.688 436.874 154.731 434.149L154.735 434.145Z" fill="#D1D5DB"/>
<path d="M429.368 77.9068C430.873 76.8508 434.997 75.3953 435.832 73.8239C435.055 73.571 433.541 74.0354 432.72 74.127C431.414 74.2643 430.111 74.3694 428.81 74.487C426.512 74.6898 424.212 74.8561 421.905 74.9166C418.34 75.0131 414.759 74.8614 411.219 74.8467C407.227 74.8277 403.25 74.5632 399.27 74.4441C396.872 74.3718 394.479 74.3404 392.082 74.2681C390.742 74.2246 387.071 74.6363 386.109 73.4175C385.121 72.1683 386.505 72.017 387.51 71.9565C389.58 71.8283 391.654 71.8461 393.731 71.7872C398.066 71.664 402.401 71.5568 406.734 71.3685C411.001 71.1831 415.308 71.0251 419.576 70.9814C423.683 70.9408 428.644 71.1837 432.624 70.105C432.214 69.3678 430.271 68.7819 429.469 68.3408C428.217 67.653 426.942 66.9552 425.738 66.1822C424.888 65.632 423.524 64.7328 423.973 63.4823C424.296 62.5938 425.634 62.3619 426.442 62.5284C428.643 62.9773 431.111 65.1917 433.124 66.2203C435.518 67.4415 437.927 68.6274 440.354 69.746C441.867 70.4429 443.602 71.7079 442.258 73.4729C441.177 74.8868 438.141 75.9932 436.595 76.7991C434.487 77.9034 432.3 78.7749 430.153 79.8073C427.43 81.1129 427.834 79.6159 429.363 77.9105C429.646 77.7148 428.888 78.4345 429.363 77.9105L429.368 77.9068Z" fill="#D1D5DB"/>
<path d="M409 73C409 72.7239 409.224 72.5 409.5 72.5C409.776 72.5 410 72.7239 410 73H409ZM406.833 109.5C406.833 108.027 408.027 106.833 409.5 106.833C410.973 106.833 412.167 108.027 412.167 109.5C412.167 110.973 410.973 112.167 409.5 112.167C408.027 112.167 406.833 110.973 406.833 109.5ZM410 73V91H409V73H410ZM410 91V109.5H409V91H410Z" fill="#D1D5DB"/>
<path d="M314.907 163.132C313.851 161.627 312.395 157.503 310.824 156.668C310.571 157.445 311.035 158.959 311.127 159.78C311.264 161.086 311.369 162.389 311.487 163.69C311.69 165.988 311.856 168.288 311.917 170.595C312.013 174.16 311.861 177.741 311.847 181.281C311.828 185.273 311.563 189.25 311.444 193.23C311.372 195.628 311.34 198.021 311.268 200.418C311.225 201.758 311.636 205.429 310.417 206.391C309.168 207.379 309.017 205.995 308.957 204.99C308.828 202.92 308.846 200.846 308.787 198.769C308.664 194.434 308.557 190.099 308.369 185.766C308.183 181.499 308.025 177.192 307.981 172.924C307.941 168.817 308.184 163.856 307.105 159.876C306.368 160.286 305.782 162.229 305.341 163.031C304.653 164.283 303.955 165.558 303.182 166.762C302.632 167.612 301.733 168.976 300.482 168.527C299.594 168.204 299.362 166.866 299.528 166.058C299.977 163.857 302.192 161.389 303.22 159.376C304.441 156.982 305.627 154.573 306.746 152.146C307.443 150.633 308.708 148.898 310.473 150.242C311.887 151.323 312.993 154.359 313.799 155.905C314.903 158.013 315.775 160.2 316.807 162.347C318.113 165.07 316.616 164.666 314.91 163.137C314.715 162.854 315.435 163.612 314.91 163.137L314.907 163.132Z" fill="#D1D5DB"/>
<path d="M314.907 403.868C313.851 405.373 312.395 409.497 310.824 410.332C310.571 409.555 311.035 408.041 311.127 407.22C311.264 405.914 311.369 404.611 311.487 403.31C311.69 401.012 311.856 398.712 311.917 396.405C312.013 392.84 311.861 389.259 311.847 385.719C311.828 381.727 311.563 377.75 311.444 373.77C311.372 371.372 311.34 368.979 311.268 366.582C311.225 365.242 311.636 361.571 310.417 360.609C309.168 359.621 309.017 361.005 308.957 362.01C308.828 364.08 308.846 366.154 308.787 368.231C308.664 372.566 308.557 376.901 308.369 381.234C308.183 385.501 308.025 389.808 307.981 394.076C307.941 398.183 308.184 403.144 307.105 407.124C306.368 406.714 305.782 404.771 305.341 403.969C304.653 402.717 303.955 401.442 303.182 400.238C302.632 399.388 301.733 398.024 300.482 398.473C299.594 398.796 299.362 400.134 299.528 400.942C299.977 403.143 302.192 405.611 303.22 407.624C304.441 410.018 305.627 412.427 306.746 414.854C307.443 416.367 308.708 418.102 310.473 416.758C311.887 415.677 312.993 412.641 313.799 411.095C314.903 408.987 315.775 406.8 316.807 404.653C318.113 401.93 316.616 402.334 314.91 403.863C314.715 404.146 315.435 403.388 314.91 403.863L314.907 403.868Z" fill="#D1D5DB"/>
<g filter="url(#filter0_d_2404_80402)">
<rect x="249.5" y="434" width="120" height="120" rx="60" fill="white" shape-rendering="crispEdges"/>
<path fill-rule="evenodd" clip-rule="evenodd" d="M293.958 465.866C293.668 466.098 293.637 466.318 293.683 467.85C293.788 471.338 294.193 473.716 295.026 475.737C296.263 478.741 298.258 480.095 301.454 480.099C302.687 480.1 303.862 479.858 304.886 479.392C305.153 479.27 305.379 479.18 305.39 479.19C305.54 479.34 306.298 481.312 306.619 482.389C307.459 485.204 308.007 489.21 308.011 492.565C308.012 493.178 308.041 493.781 308.076 493.907C308.223 494.437 308.867 494.638 309.235 494.27C309.459 494.046 309.496 493.873 309.497 493.037C309.498 492.264 309.637 490.494 309.771 489.545C310.184 486.623 311.087 483.898 312.326 481.836C312.481 481.579 312.615 481.359 312.624 481.348C312.633 481.337 312.803 481.46 313.001 481.622C313.2 481.784 313.641 482.049 313.981 482.211C315.064 482.727 316.114 482.945 317.514 482.946C319.844 482.946 321.516 482.24 322.714 480.75C324.353 478.71 325.169 475.541 325.308 470.667C325.372 468.454 325.487 468.562 323.118 468.614C320.592 468.67 318.917 468.866 317.189 469.308C314.161 470.081 312.281 471.436 311.465 473.433C310.957 474.679 310.761 476.892 311.115 477.392C311.278 477.623 311.652 477.732 311.909 477.626C312.015 477.582 312.33 477.296 312.608 476.991C313.894 475.583 315.552 474.328 317.349 473.4C317.978 473.076 318.088 473.039 318.331 473.066C318.715 473.109 318.978 473.376 318.978 473.721C318.978 474.108 318.838 474.253 318.109 474.619C316.275 475.54 314.916 476.518 313.548 477.9C311.568 479.901 310.058 482.504 309.2 485.398C308.937 486.284 308.973 486.317 308.721 484.956C308.081 481.51 306.85 478.323 305.304 476.115C304.003 474.255 302.734 472.967 301.044 471.792C300.391 471.337 300.155 471.07 300.155 470.785C300.155 470.405 300.329 470.182 300.724 470.057C300.921 469.995 301.176 470.124 301.98 470.692C303.911 472.057 305.031 473.183 306.171 474.904C306.407 475.261 306.675 475.616 306.765 475.693C306.999 475.891 307.386 475.882 307.634 475.673C307.871 475.474 307.93 475.256 308.017 474.274C308.182 472.41 307.716 470.487 306.811 469.292C305.876 468.059 304.072 467.04 301.803 466.463C300.063 466.021 298.351 465.821 295.856 465.77C294.153 465.734 294.121 465.736 293.958 465.866Z" fill="url(#paint0_linear_2404_80402)"/>
<path d="M279.986 512.888C279.435 512.888 278.938 512.983 278.496 513.175C278.058 513.362 277.685 513.635 277.375 513.995C277.069 514.351 276.835 514.781 276.671 515.287C276.506 515.793 276.424 516.363 276.424 516.996C276.424 517.835 276.554 518.564 276.814 519.184C277.078 519.799 277.47 520.275 277.99 520.612C278.514 520.95 279.168 521.118 279.952 521.118C280.398 521.118 280.818 521.082 281.21 521.009C281.606 520.931 281.991 520.836 282.365 520.722V521.733C282 521.87 281.617 521.97 281.216 522.034C280.815 522.103 280.339 522.137 279.788 522.137C278.771 522.137 277.922 521.927 277.238 521.508C276.559 521.084 276.048 520.487 275.707 519.717C275.369 518.947 275.201 518.037 275.201 516.989C275.201 516.233 275.306 515.542 275.515 514.918C275.729 514.289 276.039 513.747 276.445 513.291C276.855 512.835 277.356 512.484 277.949 512.238C278.546 511.988 279.229 511.862 280 511.862C280.506 511.862 280.993 511.912 281.463 512.013C281.932 512.113 282.356 512.257 282.734 512.443L282.269 513.428C281.95 513.282 281.599 513.157 281.216 513.052C280.838 512.942 280.428 512.888 279.986 512.888ZM287.666 514.371C288.304 514.371 288.851 514.512 289.306 514.795C289.762 515.077 290.111 515.474 290.352 515.984C290.594 516.49 290.715 517.083 290.715 517.762V518.466H285.54C285.553 519.345 285.772 520.015 286.196 520.476C286.62 520.936 287.217 521.166 287.987 521.166C288.461 521.166 288.88 521.123 289.245 521.036C289.609 520.95 289.988 520.822 290.38 520.653V521.651C290.001 521.82 289.625 521.943 289.252 522.021C288.883 522.098 288.445 522.137 287.939 522.137C287.219 522.137 286.59 521.991 286.052 521.699C285.519 521.403 285.105 520.97 284.808 520.4C284.512 519.831 284.364 519.133 284.364 518.309C284.364 517.502 284.498 516.805 284.767 516.217C285.041 515.624 285.424 515.169 285.916 514.85C286.412 514.531 286.996 514.371 287.666 514.371ZM287.652 515.301C287.046 515.301 286.563 515.499 286.203 515.896C285.843 516.292 285.629 516.846 285.56 517.557H289.525C289.521 517.11 289.45 516.718 289.313 516.381C289.181 516.039 288.978 515.775 288.705 515.588C288.431 515.396 288.08 515.301 287.652 515.301ZM296.467 514.371C296.617 514.371 296.774 514.38 296.938 514.398C297.102 514.412 297.248 514.433 297.376 514.46L297.232 515.513C297.109 515.481 296.972 515.456 296.822 515.438C296.672 515.419 296.53 515.41 296.398 515.41C296.097 515.41 295.813 515.472 295.544 515.595C295.279 515.713 295.047 515.886 294.846 516.114C294.646 516.338 294.489 516.609 294.375 516.928C294.261 517.242 294.204 517.593 294.204 517.98V522H293.062V514.508H294.006L294.129 515.889H294.177C294.332 515.611 294.518 515.358 294.737 515.13C294.956 514.897 295.209 514.713 295.496 514.576C295.788 514.439 296.111 514.371 296.467 514.371ZM301.631 521.207C301.818 521.207 302.009 521.191 302.205 521.159C302.401 521.127 302.56 521.089 302.683 521.043V521.925C302.551 521.984 302.367 522.034 302.13 522.075C301.897 522.116 301.669 522.137 301.446 522.137C301.05 522.137 300.69 522.068 300.366 521.932C300.043 521.79 299.783 521.553 299.587 521.221C299.395 520.888 299.3 520.428 299.3 519.84V515.396H298.233V514.843L299.307 514.398L299.758 512.771H300.441V514.508H302.636V515.396H300.441V519.806C300.441 520.275 300.548 520.626 300.763 520.858C300.981 521.091 301.271 521.207 301.631 521.207ZM305.756 514.508V522H304.621V514.508H305.756ZM305.202 511.705C305.389 511.705 305.548 511.767 305.681 511.89C305.817 512.008 305.886 512.195 305.886 512.45C305.886 512.701 305.817 512.888 305.681 513.011C305.548 513.134 305.389 513.195 305.202 513.195C305.006 513.195 304.842 513.134 304.71 513.011C304.582 512.888 304.519 512.701 304.519 512.45C304.519 512.195 304.582 512.008 304.71 511.89C304.842 511.767 305.006 511.705 305.202 511.705ZM311.918 515.396H310.052V522H308.917V515.396H307.591V514.85L308.917 514.474V513.975C308.917 513.346 309.01 512.835 309.197 512.443C309.384 512.047 309.655 511.755 310.011 511.568C310.366 511.382 310.799 511.288 311.31 511.288C311.597 511.288 311.859 511.313 312.096 511.363C312.337 511.413 312.549 511.47 312.731 511.534L312.438 512.43C312.283 512.38 312.107 512.334 311.911 512.293C311.72 512.247 311.524 512.225 311.323 512.225C310.89 512.225 310.569 512.366 310.359 512.648C310.154 512.926 310.052 513.364 310.052 513.961V514.508H311.918V515.396ZM314.427 514.508V522H313.292V514.508H314.427ZM313.873 511.705C314.06 511.705 314.219 511.767 314.352 511.89C314.488 512.008 314.557 512.195 314.557 512.45C314.557 512.701 314.488 512.888 314.352 513.011C314.219 513.134 314.06 513.195 313.873 513.195C313.677 513.195 313.513 513.134 313.381 513.011C313.253 512.888 313.189 512.701 313.189 512.45C313.189 512.195 313.253 512.008 313.381 511.89C313.513 511.767 313.677 511.705 313.873 511.705ZM320.247 522.137C319.573 522.137 318.978 521.998 318.463 521.72C317.948 521.442 317.547 521.018 317.26 520.448C316.973 519.879 316.829 519.161 316.829 518.295C316.829 517.388 316.98 516.647 317.28 516.073C317.586 515.494 318.005 515.066 318.538 514.788C319.071 514.51 319.678 514.371 320.357 514.371C320.73 514.371 321.09 514.41 321.437 514.487C321.788 514.56 322.075 514.654 322.298 514.768L321.956 515.718C321.728 515.627 321.464 515.545 321.163 515.472C320.867 515.399 320.589 515.362 320.329 515.362C319.81 515.362 319.377 515.474 319.03 515.697C318.689 515.921 318.431 516.249 318.258 516.682C318.089 517.115 318.005 517.648 318.005 518.281C318.005 518.887 318.087 519.405 318.251 519.833C318.42 520.261 318.668 520.59 318.996 520.817C319.329 521.041 319.744 521.152 320.24 521.152C320.637 521.152 320.995 521.111 321.314 521.029C321.633 520.943 321.922 520.842 322.182 520.729V521.74C321.931 521.868 321.651 521.966 321.341 522.034C321.036 522.103 320.671 522.137 320.247 522.137ZM327.182 514.385C328.075 514.385 328.738 514.585 329.171 514.986C329.604 515.387 329.821 516.028 329.821 516.907V522H328.993L328.775 520.893H328.72C328.51 521.166 328.292 521.396 328.064 521.583C327.836 521.765 327.571 521.904 327.271 522C326.974 522.091 326.61 522.137 326.177 522.137C325.721 522.137 325.316 522.057 324.96 521.897C324.609 521.738 324.331 521.496 324.126 521.173C323.926 520.849 323.825 520.439 323.825 519.942C323.825 519.195 324.122 518.621 324.714 518.22C325.307 517.819 326.209 517.6 327.421 517.563L328.713 517.509V517.051C328.713 516.404 328.574 515.95 328.296 515.69C328.018 515.431 327.626 515.301 327.12 515.301C326.728 515.301 326.355 515.358 325.999 515.472C325.644 515.586 325.307 515.72 324.987 515.875L324.639 515.014C324.976 514.84 325.363 514.692 325.801 514.569C326.238 514.446 326.699 514.385 327.182 514.385ZM328.699 518.309L327.558 518.356C326.624 518.393 325.965 518.546 325.582 518.814C325.199 519.083 325.008 519.464 325.008 519.956C325.008 520.384 325.138 520.701 325.398 520.906C325.657 521.111 326.001 521.214 326.43 521.214C327.095 521.214 327.64 521.029 328.064 520.66C328.487 520.291 328.699 519.737 328.699 518.999V518.309ZM334.998 521.207C335.185 521.207 335.377 521.191 335.573 521.159C335.769 521.127 335.928 521.089 336.051 521.043V521.925C335.919 521.984 335.734 522.034 335.497 522.075C335.265 522.116 335.037 522.137 334.814 522.137C334.417 522.137 334.057 522.068 333.734 521.932C333.41 521.79 333.15 521.553 332.954 521.221C332.763 520.888 332.667 520.428 332.667 519.84V515.396H331.601V514.843L332.674 514.398L333.125 512.771H333.809V514.508H336.003V515.396H333.809V519.806C333.809 520.275 333.916 520.626 334.13 520.858C334.349 521.091 334.638 521.207 334.998 521.207ZM340.873 514.371C341.511 514.371 342.058 514.512 342.514 514.795C342.97 515.077 343.318 515.474 343.56 515.984C343.801 516.49 343.922 517.083 343.922 517.762V518.466H338.747C338.761 519.345 338.98 520.015 339.404 520.476C339.827 520.936 340.425 521.166 341.195 521.166C341.669 521.166 342.088 521.123 342.452 521.036C342.817 520.95 343.195 520.822 343.587 520.653V521.651C343.209 521.82 342.833 521.943 342.459 522.021C342.09 522.098 341.653 522.137 341.147 522.137C340.427 522.137 339.798 521.991 339.26 521.699C338.727 521.403 338.312 520.97 338.016 520.4C337.72 519.831 337.572 519.133 337.572 518.309C337.572 517.502 337.706 516.805 337.975 516.217C338.248 515.624 338.631 515.169 339.123 514.85C339.62 514.531 340.203 514.371 340.873 514.371ZM340.86 515.301C340.254 515.301 339.771 515.499 339.411 515.896C339.05 516.292 338.836 516.846 338.768 517.557H342.733C342.728 517.11 342.658 516.718 342.521 516.381C342.389 516.039 342.186 515.775 341.912 515.588C341.639 515.396 341.288 515.301 340.86 515.301Z" fill="#374151"/>
</g>
<g filter="url(#filter1_d_2404_80402)">
<rect x="249.5" y="13" width="120" height="120" rx="60" fill="white" shape-rendering="crispEdges"/>
<g clip-path="url(#clip0_2404_80402)">
<path fill-rule="evenodd" clip-rule="evenodd" d="M336.959 71.6249C336.419 70.9851 335.694 70.6521 334.809 70.6521C333.901 70.6521 333.189 71.038 332.685 71.7965V68.2021H331.705V77.6834H332.638V76.6182C333.141 77.4431 333.865 77.8426 334.811 77.8426C335.694 77.8426 336.419 77.5233 336.959 76.8576C337.498 76.1917 337.756 75.3398 337.756 74.2473C337.756 73.1549 337.486 72.2906 336.959 71.6249ZM336.159 76.1647C335.786 76.6432 335.302 76.8846 334.688 76.8846H334.686C334.06 76.8846 333.569 76.6578 333.201 76.1782C332.833 75.7258 332.649 75.0734 332.649 74.2473C332.649 73.4213 332.833 72.7691 333.201 72.3032C333.569 71.837 334.064 71.6114 334.686 71.6114C335.308 71.6114 335.803 71.8506 336.171 72.3032C336.54 72.7556 336.724 73.3954 336.724 74.1944C336.724 75.0205 336.532 75.6861 336.159 76.1647Z" fill="#1F2937"/>
<path fill-rule="evenodd" clip-rule="evenodd" d="M286.027 68.3057H291.807V69.3199H287.058V72.2328H291.316V73.245H287.058V77.6798H286.027V68.3057Z" fill="#1F2937"/>
<path fill-rule="evenodd" clip-rule="evenodd" d="M295.384 76.4856V77.6841H294.501C294.413 77.6844 294.324 77.6657 294.242 77.6292C294.16 77.5926 294.085 77.5388 294.022 77.4708L293.063 76.4305C293 76.3603 292.95 76.277 292.917 76.1854C292.884 76.0939 292.868 75.9961 292.871 75.8978V68.3037H293.889V76.1891C293.89 76.2285 293.897 76.2674 293.912 76.3035C293.926 76.3396 293.947 76.3722 293.974 76.3995C294 76.4268 294.031 76.4481 294.065 76.4624C294.098 76.4766 294.135 76.4835 294.171 76.4825L295.384 76.4856Z" fill="#1F2937"/>
<path fill-rule="evenodd" clip-rule="evenodd" d="M301.332 71.6394C301.047 71.3189 300.704 71.0658 300.325 70.8962C299.945 70.7267 299.537 70.6443 299.127 70.6541C298.231 70.6541 297.497 70.9872 296.922 71.6394C296.346 72.2917 296.059 73.1581 296.059 74.2494C296.059 75.3407 296.34 76.2208 296.922 76.8597C297.497 77.5253 298.235 77.8447 299.127 77.8447C300.019 77.8447 300.743 77.5253 301.332 76.8597C301.897 76.2208 302.195 75.3418 302.195 74.2494C302.195 73.1569 301.901 72.2927 301.332 71.6394ZM300.608 76.1802C300.24 76.6599 299.737 76.8867 299.123 76.8867C298.509 76.8867 298.007 76.6599 297.638 76.1802C297.27 75.7278 297.085 75.0754 297.085 74.2494C297.085 73.4234 297.27 72.7712 297.638 72.3053C298.006 71.8391 298.501 71.6135 299.123 71.6135C299.402 71.6034 299.68 71.66 299.937 71.7795C300.194 71.8991 300.423 72.0787 300.608 72.3053C300.976 72.7712 301.16 73.4245 301.16 74.2494C301.16 75.0743 300.976 75.7278 300.608 76.1802Z" fill="#1F2937"/>
<path fill-rule="evenodd" clip-rule="evenodd" d="M318.356 77.1645C317.865 77.6181 317.251 77.8438 316.538 77.8438C315.655 77.8438 314.956 77.5245 314.416 76.8587C313.876 76.1929 313.605 75.3409 313.605 74.2486C313.605 73.1562 313.876 72.2783 314.416 71.626C314.931 70.9862 315.643 70.6533 316.538 70.6533C317.287 70.6533 317.901 70.8801 318.392 71.3191C318.883 71.7581 319.165 72.3709 319.264 73.1438H318.244C318.191 72.6978 317.98 72.2918 317.656 72.0119C317.337 71.7445 316.943 71.6028 316.541 71.6104C316.276 71.6007 316.013 71.6581 315.772 71.7782C315.531 71.8983 315.32 72.0778 315.154 72.3022C314.81 72.7558 314.638 73.408 314.638 74.2465C314.638 75.085 314.81 75.7383 315.154 76.1908C315.498 76.6433 315.964 76.8837 316.541 76.8837C316.95 76.8931 317.35 76.7458 317.67 76.4675C317.997 76.1844 318.208 75.7735 318.259 75.3232H319.266C319.153 76.0993 318.846 76.7078 318.356 77.1645Z" fill="#1F2937"/>
<path fill-rule="evenodd" clip-rule="evenodd" d="M325.585 76.6669C325.541 76.6671 325.499 76.6484 325.468 76.6151C325.437 76.5817 325.419 76.5366 325.419 76.4892L325.479 72.6545C325.479 71.3231 324.681 70.6572 323.098 70.6572C321.454 70.6572 320.595 71.4164 320.521 72.9344H321.503C321.528 72.4289 321.662 72.0825 321.907 71.8828C322.153 71.683 322.546 71.5758 323.098 71.5758C323.614 71.5758 323.97 71.6695 324.19 71.8296C324.411 71.99 324.522 72.2823 324.522 72.6545C324.522 73.2144 324.19 73.5202 323.528 73.6003L322.62 73.7043C321.048 73.8915 320.275 74.5968 320.275 75.8347C320.275 76.4745 320.472 76.9791 320.864 77.3266C321.256 77.6741 321.81 77.8466 322.51 77.8466C323.44 77.8466 324.126 77.4888 324.567 76.7471C324.584 76.8263 324.621 76.8987 324.675 76.9553L325.25 77.5658C325.328 77.6462 325.43 77.6913 325.537 77.6918H326.133V76.6669H325.585ZM324.522 74.966C324.522 75.6058 324.326 76.0855 323.932 76.4225C323.544 76.7634 323.058 76.9457 322.558 76.9374C322.141 76.9374 321.822 76.844 321.613 76.6442C321.404 76.4445 321.294 76.1646 321.294 75.8056C321.286 75.6475 321.312 75.4895 321.37 75.344C321.427 75.1986 321.515 75.0691 321.626 74.966C321.846 74.7803 322.226 74.6472 322.766 74.5666L323.687 74.447C324.055 74.4076 324.338 74.3139 324.522 74.1547V74.966Z" fill="#1F2937"/>
<path fill-rule="evenodd" clip-rule="evenodd" d="M328.308 72.0252C328.725 71.1461 329.413 70.7061 330.346 70.7061H330.68V71.7412H330.435C329.772 71.7412 329.269 71.9274 328.9 72.2738C328.532 72.6202 328.361 73.1258 328.361 73.7645V77.6802H327.375V70.8122H328.308V72.0252Z" fill="#1F2937"/>
<path fill-rule="evenodd" clip-rule="evenodd" d="M346.601 71.8382C347.081 71.0528 347.743 70.6533 348.59 70.6533C349.289 70.6533 349.836 70.8666 350.234 71.2775C350.632 71.6884 350.823 72.2897 350.823 73.0346V77.6826H349.841V73.1428C349.841 72.1305 349.35 71.6114 348.393 71.6114C348.166 71.6097 347.941 71.6583 347.733 71.7544C347.523 71.8505 347.335 71.9919 347.178 72.1701C346.823 72.5435 346.65 73.0897 346.65 73.795V77.6836H345.668V70.8125H346.601V71.8382Z" fill="#1F2937"/>
<path fill-rule="evenodd" clip-rule="evenodd" d="M343.791 71.6237C343.506 71.303 343.163 71.0501 342.784 70.8806C342.404 70.7109 341.996 70.6286 341.586 70.6385C340.694 70.6385 339.956 70.9713 339.381 71.6237C338.805 72.2759 338.518 73.1425 338.518 74.2338C338.518 75.3251 338.805 76.204 339.381 76.8429C339.956 77.5086 340.706 77.829 341.586 77.829C342.466 77.829 343.202 77.5086 343.791 76.8429C344.36 76.204 344.654 75.3251 344.654 74.2338C344.654 73.1363 344.36 72.2706 343.791 71.6237ZM343.071 76.1646C342.703 76.6431 342.207 76.8699 341.586 76.8699C340.965 76.8699 340.47 76.6431 340.102 76.1646C339.733 75.711 339.549 75.0587 339.549 74.2338C339.549 73.4016 339.733 72.7418 340.102 72.2894C340.47 71.837 340.961 71.5965 341.586 71.5965C341.865 71.5866 342.143 71.6437 342.4 71.7635C342.656 71.883 342.886 72.0626 343.071 72.2894C343.439 72.7556 343.623 73.4086 343.623 74.2338C343.623 75.0589 343.439 75.711 343.071 76.1646Z" fill="#1F2937"/>
<path d="M312.548 70.8097V75.7597C312.548 76.9498 311.615 77.8425 310.464 77.8425C309.313 77.8425 308.379 76.9559 308.379 75.7597L308.376 72.0121C308.372 71.9008 308.327 71.7954 308.249 71.718C308.172 71.6408 308.069 71.5975 307.961 71.5975C307.86 71.5975 307.763 71.6355 307.688 71.7038C307.683 71.7084 307.678 71.7132 307.673 71.718C307.668 71.7228 307.664 71.7279 307.659 71.7329C307.65 71.7425 307.642 71.7526 307.634 71.7629C307.63 71.7679 307.627 71.7732 307.623 71.7787C307.576 71.8467 307.549 71.9276 307.546 72.0121L307.549 76.0353C307.552 76.129 307.537 76.2225 307.504 76.3097C307.47 76.3972 307.42 76.4767 307.356 76.5439L306.416 77.5348C306.288 77.6658 306.116 77.7389 305.936 77.7385H304.957C304.778 77.7387 304.605 77.6654 304.478 77.5348L303.521 76.5439C303.458 76.4767 303.408 76.3972 303.374 76.3097C303.341 76.2225 303.326 76.129 303.328 76.0353V70.821H304.348V76.5933C304.349 76.6311 304.357 76.6685 304.371 76.7031C304.385 76.7376 304.406 76.7686 304.433 76.7947C304.459 76.8208 304.49 76.8414 304.524 76.8549C304.558 76.8684 304.594 76.8749 304.63 76.8739H306.246C306.282 76.8749 306.318 76.8684 306.352 76.8549C306.386 76.8409 306.417 76.8206 306.443 76.7947C306.469 76.7686 306.49 76.7376 306.505 76.7031C306.519 76.6685 306.527 76.6311 306.527 76.5933V72.1347C306.527 71.324 307.163 70.7158 307.947 70.7158C308.731 70.7158 309.418 71.3199 309.418 72.1347V72.2877L309.418 75.8131C309.428 76.1043 309.503 76.3801 309.706 76.5823C309.908 76.7846 310.178 76.8975 310.46 76.8975C310.741 76.8975 311.011 76.7846 311.214 76.5823C311.416 76.3801 311.513 76.1043 311.523 75.8131V70.8097H312.548Z" fill="#1F2937"/>
<path d="M272.511 68.5556C272.941 68.5556 273.291 68.1936 273.291 67.7471C273.291 67.3005 272.941 66.9385 272.511 66.9385C272.08 66.9385 271.73 67.3005 271.73 67.7471C271.73 68.1936 272.08 68.5556 272.511 68.5556Z" fill="#1F2937"/>
<path d="M272.511 71.3154C272.941 71.3154 273.291 70.9534 273.291 70.5068C273.291 70.0603 272.941 69.6982 272.511 69.6982C272.08 69.6982 271.73 70.0603 271.73 70.5068C271.73 70.9534 272.08 71.3154 272.511 71.3154Z" fill="#1F2937"/>
<path d="M272.511 76.3564C272.941 76.3564 273.291 75.9944 273.291 75.5478C273.291 75.1013 272.941 74.7393 272.511 74.7393C272.08 74.7393 271.73 75.1013 271.73 75.5478C271.73 75.9944 272.08 76.3564 272.511 76.3564Z" fill="#1F2937"/>
<path d="M272.511 81.4931C272.941 81.4931 273.291 81.1311 273.291 80.6846C273.291 80.238 272.941 79.876 272.511 79.876C272.08 79.876 271.73 80.238 271.73 80.6846C271.73 81.1311 272.08 81.4931 272.511 81.4931Z" fill="#1F2937"/>
<path d="M272.477 73.6925C272.807 73.6925 273.074 73.4157 273.074 73.0743C273.074 72.7329 272.807 72.4561 272.477 72.4561C272.148 72.4561 271.881 72.7329 271.881 73.0743C271.881 73.4157 272.148 73.6925 272.477 73.6925Z" fill="#1F2937"/>
<path d="M272.477 65.7982C272.807 65.7982 273.074 65.5213 273.074 65.1798C273.074 64.8384 272.807 64.5615 272.477 64.5615C272.148 64.5615 271.881 64.8384 271.881 65.1798C271.881 65.5213 272.148 65.7982 272.477 65.7982Z" fill="#1F2937"/>
<path d="M274.858 74.929C275.188 74.929 275.455 74.6522 275.455 74.3107C275.455 73.9692 275.188 73.6924 274.858 73.6924C274.529 73.6924 274.262 73.9692 274.262 74.3107C274.262 74.6522 274.529 74.929 274.858 74.929Z" fill="#1F2937"/>
<path d="M272.477 78.7337C272.807 78.7337 273.074 78.4569 273.074 78.1154C273.074 77.7739 272.807 77.4971 272.477 77.4971C272.148 77.4971 271.881 77.7739 271.881 78.1154C271.881 78.4569 272.148 78.7337 272.477 78.7337Z" fill="#1F2937"/>
<path d="M274.858 66.8859C275.188 66.8859 275.455 66.6091 275.455 66.2677C275.455 65.9262 275.188 65.6494 274.858 65.6494C274.529 65.6494 274.262 65.9262 274.262 66.2677C274.262 66.6091 274.529 66.8859 274.858 66.8859Z" fill="#1F2937"/>
<path d="M277.268 76.1789C277.598 76.1789 277.865 75.9021 277.865 75.5606C277.865 75.2192 277.598 74.9424 277.268 74.9424C276.939 74.9424 276.672 75.2192 276.672 75.5606C276.672 75.9021 276.939 76.1789 277.268 76.1789Z" fill="#1F2937"/>
<path d="M277.268 67.9739C277.598 67.9739 277.865 67.6971 277.865 67.3556C277.865 67.0141 277.598 66.7373 277.268 66.7373C276.939 66.7373 276.672 67.0141 276.672 67.3556C276.672 67.6971 276.939 67.9739 277.268 67.9739Z" fill="#1F2937"/>
<path d="M274.837 69.792C275.268 69.792 275.617 69.4299 275.617 68.9834C275.617 68.5368 275.268 68.1748 274.837 68.1748C274.406 68.1748 274.057 68.5368 274.057 68.9834C274.057 69.4299 274.406 69.792 274.837 69.792Z" fill="#1F2937"/>
<path d="M274.837 72.5517C275.268 72.5517 275.617 72.1897 275.617 71.7431C275.617 71.2966 275.268 70.9346 274.837 70.9346C274.406 70.9346 274.057 71.2966 274.057 71.7431C274.057 72.1897 274.406 72.5517 274.837 72.5517Z" fill="#1F2937"/>
<path d="M277.247 70.8388C277.678 70.8388 278.027 70.4768 278.027 70.0303C278.027 69.5837 277.678 69.2217 277.247 69.2217C276.816 69.2217 276.467 69.5837 276.467 70.0303C276.467 70.4768 276.816 70.8388 277.247 70.8388Z" fill="#1F2937"/>
<path d="M277.247 73.6923C277.678 73.6923 278.027 73.3303 278.027 72.8838C278.027 72.4372 277.678 72.0752 277.247 72.0752C276.816 72.0752 276.467 72.4372 276.467 72.8838C276.467 73.3303 276.816 73.6923 277.247 73.6923Z" fill="#1F2937"/>
<path d="M279.591 71.8838C280.022 71.8838 280.371 71.5217 280.371 71.0752C280.371 70.6286 280.022 70.2666 279.591 70.2666C279.16 70.2666 278.811 70.6286 278.811 71.0752C278.811 71.5217 279.16 71.8838 279.591 71.8838Z" fill="#1F2937"/>
<path d="M279.591 74.7392C280.022 74.7392 280.371 74.3772 280.371 73.9306C280.371 73.4841 280.022 73.1221 279.591 73.1221C279.16 73.1221 278.811 73.4841 278.811 73.9306C278.811 74.3772 279.16 74.7392 279.591 74.7392Z" fill="#1F2937"/>
<path d="M270.003 74.929C269.674 74.929 269.406 74.6522 269.406 74.3107C269.406 73.9692 269.674 73.6924 270.003 73.6924C270.333 73.6924 270.6 73.9692 270.6 74.3107C270.6 74.6522 270.333 74.929 270.003 74.929Z" fill="#1F2937"/>
<path d="M270.003 66.8859C269.674 66.8859 269.406 66.6091 269.406 66.2677C269.406 65.9262 269.674 65.6494 270.003 65.6494C270.333 65.6494 270.6 65.9262 270.6 66.2677C270.6 66.6091 270.333 66.8859 270.003 66.8859Z" fill="#1F2937"/>
<path d="M267.595 76.1789C267.265 76.1789 266.998 75.9021 266.998 75.5606C266.998 75.2192 267.265 74.9424 267.595 74.9424C267.924 74.9424 268.191 75.2192 268.191 75.5606C268.191 75.9021 267.924 76.1789 267.595 76.1789Z" fill="#1F2937"/>
<path d="M267.595 67.9739C267.265 67.9739 266.998 67.6971 266.998 67.3556C266.998 67.0141 267.265 66.7373 267.595 66.7373C267.924 66.7373 268.191 67.0141 268.191 67.3556C268.191 67.6971 267.924 67.9739 267.595 67.9739Z" fill="#1F2937"/>
<path d="M270.046 69.792C269.615 69.792 269.266 69.4299 269.266 68.9834C269.266 68.5368 269.615 68.1748 270.046 68.1748C270.477 68.1748 270.826 68.5368 270.826 68.9834C270.826 69.4299 270.477 69.792 270.046 69.792Z" fill="#1F2937"/>
<path d="M270.046 72.5517C269.615 72.5517 269.266 72.1897 269.266 71.7431C269.266 71.2966 269.615 70.9346 270.046 70.9346C270.477 70.9346 270.826 71.2966 270.826 71.7431C270.826 72.1897 270.477 72.5517 270.046 72.5517Z" fill="#1F2937"/>
<path d="M267.636 70.8388C267.205 70.8388 266.856 70.4768 266.856 70.0303C266.856 69.5837 267.205 69.2217 267.636 69.2217C268.067 69.2217 268.416 69.5837 268.416 70.0303C268.416 70.4768 268.067 70.8388 267.636 70.8388Z" fill="#1F2937"/>
<path d="M267.636 73.6923C267.205 73.6923 266.856 73.3303 266.856 72.8838C266.856 72.4372 267.205 72.0752 267.636 72.0752C268.067 72.0752 268.416 72.4372 268.416 72.8838C268.416 73.3303 268.067 73.6923 267.636 73.6923Z" fill="#1F2937"/>
<path d="M265.28 71.8838C264.85 71.8838 264.5 71.5217 264.5 71.0752C264.5 70.6286 264.85 70.2666 265.28 70.2666C265.711 70.2666 266.061 70.6286 266.061 71.0752C266.061 71.5217 265.711 71.8838 265.28 71.8838Z" fill="#1F2937"/>
<path d="M265.28 74.7392C264.85 74.7392 264.5 74.3772 264.5 73.9306C264.5 73.4841 264.85 73.1221 265.28 73.1221C265.711 73.1221 266.061 73.4841 266.061 73.9306C266.061 74.3772 265.711 74.7392 265.28 74.7392Z" fill="#1F2937"/>
<path d="M353.099 71.4689V70.0283H353.489L353.792 71.1264H353.796L354.104 70.0283H354.499V71.4689H354.245V70.3658H354.235C354.196 70.5169 354.159 70.6529 354.123 70.7738L353.923 71.4689H353.665L353.465 70.7738L353.358 70.3658H353.348V71.4689H353.099ZM351.719 70.2651V70.0283H352.87V70.2651H352.431V71.4689H352.158V70.2651H351.719Z" fill="#1F2937"/>
</g>
</g>
<g filter="url(#filter2_d_2404_80402)">
<rect x="459.5" y="13" width="120" height="120" rx="60" fill="white" shape-rendering="crispEdges"/>
<path fill-rule="evenodd" clip-rule="evenodd" d="M528.026 40.059C527.817 40.2525 527.28 40.4029 526.416 40.5101C525.936 40.5696 525.094 40.6731 524.545 40.7401C523.201 40.904 522.268 41.1498 521.442 41.5576C520.411 42.067 519.593 42.8836 519.139 43.8578C518.629 44.9541 518.629 46.427 519.14 47.6339C519.419 48.2907 519.715 48.7194 519.929 48.7762C520.494 48.926 520.829 48.5758 520.832 47.8321C520.833 47.3963 521.12 46.3432 521.389 45.7826C521.752 45.0276 522.258 44.388 522.895 43.8814C523.451 43.439 524.235 42.9842 524.128 43.1656C524.097 43.2195 523.947 43.4474 523.797 43.6721C523.108 44.6997 522.595 45.9711 522.179 47.6835C521.478 50.5657 521.228 52.6018 521.048 56.8849C520.964 58.8891 520.966 58.958 521.11 59.2853C521.324 59.7688 521.705 60.0358 522.236 60.0743C522.564 60.0981 522.73 60.0698 522.965 59.9502C523.307 59.7753 523.421 59.6286 523.865 58.7947C524.205 58.1561 524.805 57.3575 525.113 57.1328L525.306 56.9919L525.759 57.3348C526.665 58.0213 527.639 58.2665 528.644 58.0613C529.962 57.7922 530.654 57.1839 532.007 55.1033C532.363 54.5565 532.75 53.9857 532.867 53.8347L533.081 53.5603L532.669 53.2966C532.443 53.1516 531.847 52.7206 531.346 52.3389C529.955 51.28 529.398 50.9996 528.441 50.8782C527.696 50.7836 527.075 50.888 526.399 51.2211C525.473 51.6782 524.616 52.7133 524.616 53.3756C524.616 53.6686 524.791 53.8626 525.011 53.812C525.1 53.7916 525.456 53.7082 525.803 53.6269C526.612 53.4373 527.602 53.3679 528.442 53.442L529.105 53.5005L528.45 53.5984C526.594 53.8755 525.124 54.585 523.776 55.8534L523.186 56.4092L523.236 55.5934C523.362 53.5184 523.568 51.3233 523.694 50.7171C523.73 50.54 523.791 50.5067 524.268 50.3998C525.935 50.0267 527.485 48.3897 528.172 46.2753C528.469 45.3614 528.568 44.5036 528.531 43.1639C528.5 42.0135 528.292 40.1404 528.182 40.0141C528.156 39.9838 528.086 40.004 528.026 40.059ZM515.378 51.0196C514.617 51.244 514.089 51.5476 512.82 52.4898C512.145 52.9906 511.535 53.4428 511.463 53.4947C511.342 53.5826 511.349 53.6097 511.561 53.8863C511.686 54.0497 512.126 54.7005 512.538 55.3325C513.735 57.1709 514.587 57.8845 515.823 58.0844C517.243 58.314 518.8 57.6026 519.321 56.4863C519.535 56.0278 519.54 55.7702 519.343 55.3625C518.989 54.6312 517.093 53.7794 515.378 53.5813L514.858 53.5214L515.229 53.469C516.303 53.317 517.685 53.4472 518.791 53.8042C519.508 54.0357 519.502 54.0354 519.705 53.8462C519.922 53.6433 519.909 53.3812 519.655 52.8463C519.249 51.9914 518.453 51.2968 517.56 51.0185C516.98 50.8377 515.993 50.8382 515.378 51.0196ZM512.224 60.3614C511.679 60.4472 510.924 60.6623 510.326 60.9021C509.01 61.4302 508.679 61.7104 504.416 65.9076C502.262 68.0279 500.5 69.7842 500.5 69.8105C500.5 69.8366 502.33 71.69 504.567 73.929L508.634 78L509.994 75.9555L511.353 73.9111L518.263 73.8881C525.07 73.8654 525.18 73.8627 525.666 73.7072C526.357 73.4862 527.032 73.1476 527.51 72.7817C527.734 72.61 530.261 70.3847 533.124 67.8367C536.919 64.4599 538.353 63.1412 538.411 62.9725C538.746 62.0124 538.12 61.2685 536.784 61.0393C536.333 60.9617 536.168 60.9668 535.649 61.0739C535.315 61.1429 534.824 61.3088 534.559 61.4428C534.294 61.5766 532.015 63.1989 529.496 65.0476L524.915 68.409H522.185H519.456L518.834 67.7839L518.213 67.1588L520.988 67.1311C523.646 67.1045 523.783 67.0962 524.237 66.9348C525.806 66.3767 526.593 65.0933 526.217 63.7042C525.993 62.8725 525.375 62.243 524.411 61.8624C524.006 61.7026 523.851 61.6919 521.24 61.6428C518.192 61.5855 518.065 61.5685 516.92 61.0641C515.624 60.4933 514.738 60.3078 513.374 60.322C512.844 60.3276 512.326 60.3453 512.224 60.3614Z" fill="#9DE2A0"/>
<path d="M504.888 101H503.548L498.099 92.6055H498.045C498.058 92.8288 498.074 93.084 498.093 93.3711C498.111 93.6536 498.124 93.9567 498.134 94.2803C498.147 94.5993 498.154 94.9251 498.154 95.2578V101H497.074V91.0059H498.407L503.835 99.373H503.883C503.874 99.2135 503.862 98.988 503.848 98.6963C503.835 98.4001 503.821 98.0833 503.807 97.7461C503.798 97.4043 503.794 97.0876 503.794 96.7959V91.0059H504.888V101ZM510.667 93.3848C511.56 93.3848 512.223 93.5853 512.656 93.9863C513.089 94.3874 513.306 95.0277 513.306 95.9072V101H512.478L512.26 99.8926H512.205C511.995 100.166 511.777 100.396 511.549 100.583C511.321 100.765 511.057 100.904 510.756 101C510.46 101.091 510.095 101.137 509.662 101.137C509.206 101.137 508.801 101.057 508.445 100.897C508.094 100.738 507.816 100.496 507.611 100.173C507.411 99.8493 507.31 99.4391 507.31 98.9424C507.31 98.195 507.607 97.6208 508.199 97.2197C508.792 96.8187 509.694 96.5999 510.906 96.5635L512.198 96.5088V96.0508C512.198 95.4036 512.059 94.9502 511.781 94.6904C511.503 94.4307 511.111 94.3008 510.605 94.3008C510.213 94.3008 509.84 94.3577 509.484 94.4717C509.129 94.5856 508.792 94.7201 508.473 94.875L508.124 94.0137C508.461 93.8405 508.849 93.6924 509.286 93.5693C509.724 93.4463 510.184 93.3848 510.667 93.3848ZM512.184 97.3086L511.043 97.3564C510.109 97.3929 509.45 97.5456 509.067 97.8145C508.684 98.0833 508.493 98.4639 508.493 98.9561C508.493 99.3844 508.623 99.7012 508.883 99.9062C509.142 100.111 509.487 100.214 509.915 100.214C510.58 100.214 511.125 100.029 511.549 99.6602C511.973 99.291 512.184 98.7373 512.184 97.999V97.3086ZM518.483 100.207C518.67 100.207 518.862 100.191 519.058 100.159C519.254 100.127 519.413 100.089 519.536 100.043V100.925C519.404 100.984 519.219 101.034 518.982 101.075C518.75 101.116 518.522 101.137 518.299 101.137C517.902 101.137 517.542 101.068 517.219 100.932C516.895 100.79 516.635 100.553 516.439 100.221C516.248 99.888 516.152 99.4277 516.152 98.8398V94.3965H515.086V93.8428L516.159 93.3984L516.61 91.7715H517.294V93.5078H519.488V94.3965H517.294V98.8057C517.294 99.2751 517.401 99.626 517.615 99.8584C517.834 100.091 518.123 100.207 518.483 100.207ZM527.66 93.5078V101H526.731L526.566 99.9473H526.505C526.35 100.207 526.149 100.426 525.903 100.604C525.657 100.781 525.379 100.913 525.069 101C524.764 101.091 524.438 101.137 524.092 101.137C523.499 101.137 523.003 101.041 522.602 100.85C522.201 100.658 521.898 100.362 521.692 99.9609C521.492 99.5599 521.392 99.0449 521.392 98.416V93.5078H522.54V98.334C522.54 98.9583 522.681 99.4255 522.964 99.7354C523.246 100.041 523.677 100.193 524.256 100.193C524.812 100.193 525.254 100.089 525.582 99.8789C525.915 99.6693 526.154 99.3617 526.3 98.9561C526.446 98.5459 526.519 98.0446 526.519 97.4521V93.5078H527.66ZM533.884 93.3711C534.034 93.3711 534.192 93.3802 534.356 93.3984C534.52 93.4121 534.665 93.4326 534.793 93.46L534.65 94.5127C534.526 94.4808 534.39 94.4557 534.239 94.4375C534.089 94.4193 533.948 94.4102 533.816 94.4102C533.515 94.4102 533.23 94.4717 532.961 94.5947C532.697 94.7132 532.464 94.8864 532.264 95.1143C532.063 95.3376 531.906 95.6087 531.792 95.9277C531.678 96.2422 531.621 96.5931 531.621 96.9805V101H530.48V93.5078H531.423L531.546 94.8887H531.594C531.749 94.6107 531.936 94.3577 532.154 94.1299C532.373 93.8975 532.626 93.7129 532.913 93.5762C533.205 93.4395 533.528 93.3711 533.884 93.3711ZM539.513 93.3711C540.151 93.3711 540.698 93.5124 541.154 93.7949C541.609 94.0775 541.958 94.474 542.199 94.9844C542.441 95.4902 542.562 96.0827 542.562 96.7617V97.4658H537.387C537.401 98.3454 537.619 99.0153 538.043 99.4756C538.467 99.9359 539.064 100.166 539.834 100.166C540.308 100.166 540.727 100.123 541.092 100.036C541.457 99.9495 541.835 99.8219 542.227 99.6533V100.651C541.849 100.82 541.473 100.943 541.099 101.021C540.73 101.098 540.292 101.137 539.786 101.137C539.066 101.137 538.437 100.991 537.9 100.699C537.366 100.403 536.952 99.9701 536.655 99.4004C536.359 98.8307 536.211 98.1335 536.211 97.3086C536.211 96.502 536.346 95.8047 536.614 95.2168C536.888 94.6243 537.271 94.1686 537.763 93.8496C538.26 93.5306 538.843 93.3711 539.513 93.3711ZM539.499 94.3008C538.893 94.3008 538.41 94.499 538.05 94.8955C537.69 95.292 537.476 95.8457 537.407 96.5566H541.372C541.368 96.11 541.297 95.7181 541.16 95.3809C541.028 95.0391 540.825 94.7747 540.552 94.5879C540.279 94.3965 539.928 94.3008 539.499 94.3008Z" fill="#374151"/>
</g>
<path d="M219.368 284.907C220.873 283.851 224.997 282.395 225.832 280.824C225.055 280.571 223.541 281.035 222.72 281.127C221.414 281.264 220.111 281.369 218.81 281.487C216.512 281.69 214.212 281.856 211.905 281.917C208.34 282.013 204.759 281.861 201.219 281.847C197.227 281.828 193.25 281.563 189.27 281.444C186.872 281.372 184.479 281.34 182.082 281.268C180.742 281.225 177.071 281.636 176.109 280.417C175.121 279.168 176.505 279.017 177.51 278.957C179.58 278.828 181.654 278.846 183.731 278.787C188.066 278.664 192.401 278.557 196.734 278.369C201.001 278.183 205.308 278.025 209.576 277.981C213.683 277.941 218.644 278.184 222.624 277.105C222.214 276.368 220.271 275.782 219.469 275.341C218.217 274.653 216.942 273.955 215.738 273.182C214.888 272.632 213.524 271.733 213.973 270.482C214.296 269.594 215.634 269.362 216.442 269.528C218.643 269.977 221.111 272.192 223.124 273.22C225.518 274.441 227.927 275.627 230.354 276.746C231.867 277.443 233.602 278.708 232.258 280.473C231.177 281.887 228.141 282.993 226.595 283.799C224.487 284.903 222.3 285.775 220.153 286.807C217.43 288.113 217.834 286.616 219.363 284.91C219.646 284.715 218.888 285.435 219.363 284.91L219.368 284.907Z" fill="#D1D5DB"/>
<g filter="url(#filter3_d_2404_80402)">
<rect x="249.5" y="223" width="120" height="120" rx="60" fill="white" shape-rendering="crispEdges"/>
<path d="M326.05 259.484L309.444 250L292.875 259.469M326.05 259.484L309.444 269.231M326.05 259.484L326.124 278.502L309.463 288M309.444 269.231L292.875 259.469M309.444 269.231L309.463 288M292.875 259.469V278.538L309.463 288" stroke="url(#paint1_linear_2404_80402)" stroke-width="2" stroke-miterlimit="10" stroke-linejoin="round"/>
<path d="M282.272 301.888C281.721 301.888 281.224 301.983 280.782 302.175C280.344 302.362 279.971 302.635 279.661 302.995C279.356 303.351 279.121 303.781 278.957 304.287C278.793 304.793 278.711 305.363 278.711 305.996C278.711 306.835 278.841 307.564 279.1 308.184C279.365 308.799 279.757 309.275 280.276 309.612C280.8 309.95 281.454 310.118 282.238 310.118C282.685 310.118 283.104 310.082 283.496 310.009C283.892 309.931 284.277 309.836 284.651 309.722V310.733C284.287 310.87 283.904 310.97 283.503 311.034C283.102 311.103 282.625 311.137 282.074 311.137C281.058 311.137 280.208 310.927 279.524 310.508C278.845 310.084 278.335 309.487 277.993 308.717C277.656 307.947 277.487 307.037 277.487 305.989C277.487 305.233 277.592 304.542 277.801 303.918C278.016 303.289 278.326 302.747 278.731 302.291C279.141 301.835 279.643 301.484 280.235 301.238C280.832 300.988 281.516 300.862 282.286 300.862C282.792 300.862 283.279 300.912 283.749 301.013C284.218 301.113 284.642 301.257 285.02 301.443L284.555 302.428C284.236 302.282 283.885 302.157 283.503 302.052C283.124 301.942 282.714 301.888 282.272 301.888ZM285.885 303.508H287.101L288.756 307.855C288.851 308.111 288.94 308.357 289.022 308.594C289.104 308.826 289.177 309.049 289.241 309.264C289.305 309.478 289.355 309.685 289.391 309.886H289.439C289.503 309.658 289.594 309.359 289.713 308.99C289.831 308.617 289.959 308.236 290.096 307.849L291.661 303.508H292.885L289.624 312.101C289.451 312.561 289.248 312.962 289.015 313.304C288.788 313.646 288.51 313.908 288.181 314.09C287.853 314.277 287.457 314.37 286.992 314.37C286.778 314.37 286.589 314.356 286.425 314.329C286.261 314.306 286.119 314.279 286.001 314.247V313.338C286.101 313.361 286.222 313.381 286.363 313.399C286.509 313.418 286.659 313.427 286.814 313.427C287.097 313.427 287.341 313.372 287.546 313.263C287.755 313.158 287.935 313.003 288.086 312.798C288.236 312.593 288.366 312.349 288.475 312.066L288.886 311.014L285.885 303.508ZM295.636 300.363V303.022C295.636 303.328 295.627 303.624 295.608 303.911C295.595 304.198 295.583 304.422 295.574 304.581H295.636C295.841 304.244 296.137 303.959 296.524 303.727C296.912 303.494 297.406 303.378 298.008 303.378C298.946 303.378 299.694 303.704 300.25 304.355C300.81 305.003 301.091 305.966 301.091 307.247C301.091 308.09 300.963 308.801 300.708 309.38C300.453 309.959 300.093 310.396 299.628 310.692C299.163 310.989 298.614 311.137 297.98 311.137C297.388 311.137 296.9 311.027 296.517 310.809C296.139 310.585 295.848 310.314 295.642 309.995H295.554L295.321 311H294.501V300.363H295.636ZM297.823 304.328C297.281 304.328 296.85 304.435 296.531 304.649C296.212 304.859 295.982 305.178 295.841 305.606C295.704 306.03 295.636 306.568 295.636 307.22V307.281C295.636 308.225 295.793 308.947 296.107 309.448C296.422 309.945 296.994 310.193 297.823 310.193C298.52 310.193 299.042 309.938 299.389 309.428C299.739 308.917 299.915 308.188 299.915 307.24C299.915 306.274 299.742 305.547 299.395 305.06C299.054 304.572 298.53 304.328 297.823 304.328ZM306.378 303.371C307.016 303.371 307.563 303.512 308.019 303.795C308.474 304.077 308.823 304.474 309.064 304.984C309.306 305.49 309.427 306.083 309.427 306.762V307.466H304.252C304.266 308.345 304.484 309.015 304.908 309.476C305.332 309.936 305.929 310.166 306.699 310.166C307.173 310.166 307.592 310.123 307.957 310.036C308.322 309.95 308.7 309.822 309.092 309.653V310.651C308.714 310.82 308.338 310.943 307.964 311.021C307.595 311.098 307.157 311.137 306.651 311.137C305.931 311.137 305.302 310.991 304.765 310.699C304.231 310.403 303.817 309.97 303.52 309.4C303.224 308.831 303.076 308.133 303.076 307.309C303.076 306.502 303.211 305.805 303.479 305.217C303.753 304.624 304.136 304.169 304.628 303.85C305.125 303.531 305.708 303.371 306.378 303.371ZM306.364 304.301C305.758 304.301 305.275 304.499 304.915 304.896C304.555 305.292 304.341 305.846 304.272 306.557H308.237C308.233 306.11 308.162 305.718 308.025 305.381C307.893 305.039 307.69 304.775 307.417 304.588C307.144 304.396 306.793 304.301 306.364 304.301ZM315.179 303.371C315.329 303.371 315.486 303.38 315.65 303.398C315.814 303.412 315.96 303.433 316.088 303.46L315.944 304.513C315.821 304.481 315.685 304.456 315.534 304.438C315.384 304.419 315.243 304.41 315.11 304.41C314.81 304.41 314.525 304.472 314.256 304.595C313.992 304.713 313.759 304.886 313.559 305.114C313.358 305.338 313.201 305.609 313.087 305.928C312.973 306.242 312.916 306.593 312.916 306.98V311H311.774V303.508H312.718L312.841 304.889H312.889C313.044 304.611 313.231 304.358 313.449 304.13C313.668 303.897 313.921 303.713 314.208 303.576C314.5 303.439 314.823 303.371 315.179 303.371ZM318.094 301.006H320.924C322.173 301.006 323.111 301.193 323.74 301.566C324.369 301.94 324.684 302.576 324.684 303.474C324.684 303.861 324.609 304.21 324.458 304.52C324.312 304.825 324.098 305.078 323.816 305.278C323.533 305.479 323.184 305.618 322.77 305.695V305.764C323.207 305.832 323.595 305.957 323.932 306.14C324.269 306.322 324.533 306.577 324.725 306.905C324.916 307.233 325.012 307.65 325.012 308.156C325.012 308.771 324.868 309.291 324.581 309.715C324.299 310.139 323.898 310.46 323.378 310.679C322.859 310.893 322.243 311 321.532 311H318.094V301.006ZM319.256 305.292H321.17C322.04 305.292 322.642 305.148 322.975 304.861C323.312 304.574 323.481 304.155 323.481 303.604C323.481 303.034 323.28 302.624 322.879 302.373C322.483 302.122 321.849 301.997 320.979 301.997H319.256V305.292ZM319.256 306.27V310.009H321.334C322.223 310.009 322.852 309.836 323.221 309.489C323.59 309.138 323.775 308.667 323.775 308.074C323.775 307.696 323.69 307.372 323.522 307.104C323.358 306.835 323.089 306.63 322.715 306.488C322.346 306.342 321.851 306.27 321.232 306.27H319.256ZM333.854 307.24C333.854 307.855 333.774 308.405 333.614 308.888C333.455 309.371 333.225 309.779 332.924 310.111C332.623 310.444 332.259 310.699 331.83 310.877C331.406 311.05 330.926 311.137 330.388 311.137C329.887 311.137 329.426 311.05 329.007 310.877C328.592 310.699 328.232 310.444 327.927 310.111C327.626 309.779 327.391 309.371 327.223 308.888C327.059 308.405 326.977 307.855 326.977 307.24C326.977 306.42 327.116 305.723 327.394 305.148C327.672 304.57 328.068 304.13 328.583 303.829C329.103 303.524 329.72 303.371 330.436 303.371C331.119 303.371 331.716 303.524 332.227 303.829C332.742 304.134 333.14 304.576 333.423 305.155C333.71 305.729 333.854 306.424 333.854 307.24ZM328.153 307.24C328.153 307.842 328.232 308.364 328.392 308.806C328.551 309.248 328.797 309.59 329.13 309.831C329.463 310.073 329.891 310.193 330.415 310.193C330.935 310.193 331.361 310.073 331.694 309.831C332.031 309.59 332.279 309.248 332.439 308.806C332.598 308.364 332.678 307.842 332.678 307.24C332.678 306.643 332.598 306.128 332.439 305.695C332.279 305.258 332.033 304.921 331.7 304.684C331.368 304.447 330.937 304.328 330.408 304.328C329.629 304.328 329.057 304.586 328.693 305.101C328.333 305.616 328.153 306.329 328.153 307.24ZM338.02 307.165L335.429 303.508H336.728L338.703 306.393L340.672 303.508H341.957L339.366 307.165L342.101 311H340.802L338.703 307.944L336.591 311H335.306L338.02 307.165Z" fill="#374151"/>
</g>
<g filter="url(#filter4_d_2404_80402)">
<rect x="39.5" y="224" width="120" height="120" rx="60" fill="white" shape-rendering="crispEdges"/>
<path fill-rule="evenodd" clip-rule="evenodd" d="M98.3047 251.054C95.5665 251.334 93.0891 252.491 91.0846 254.424C87.6942 257.694 86.5134 262.494 88.003 266.949C88.3769 268.067 89.1396 269.511 89.7959 270.344C89.9238 270.506 90.0286 270.675 90.0286 270.719C90.0286 270.764 89.7809 270.947 89.4783 271.126C88.7061 271.584 87.6475 272.376 86.7188 273.189C82.9391 276.5 80.5282 281.708 80.5017 286.619C80.4949 287.861 80.4981 287.885 80.7162 288.215C81.4508 289.327 83.1016 289.236 83.7105 288.05C83.8319 287.814 83.885 287.463 83.9432 286.511C84.0873 284.16 84.5782 282.269 85.5454 280.341C86.9767 277.487 89.5201 274.934 92.3523 273.506L92.8453 273.258L94.0131 273.845C97.8384 275.77 102 275.629 105.73 273.446L106.081 273.24L106.716 273.56C109.438 274.93 111.803 277.281 113.268 280.073C114.352 282.137 114.864 284.021 115.018 286.511C115.077 287.462 115.131 287.814 115.252 288.05C115.855 289.225 117.458 289.332 118.22 288.248C118.448 287.925 118.47 287.835 118.495 287.105C118.55 285.526 118.153 283.117 117.526 281.228C117.145 280.08 116.119 277.962 115.446 276.934C114.721 275.828 113.764 274.686 112.696 273.654C111.642 272.634 110.9 272.05 109.671 271.272L108.867 270.763L109.355 270.082C110.334 268.716 111.105 266.867 111.427 265.107C111.611 264.106 111.606 262.045 111.418 261.017C111.241 260.047 110.748 258.559 110.327 257.722C109.136 255.359 106.978 253.252 104.627 252.157C102.679 251.25 100.354 250.844 98.3047 251.054ZM100.87 254.579C102.712 254.895 104.272 255.696 105.577 256.997C106.691 258.109 107.441 259.431 107.901 261.095C108.041 261.602 108.07 261.939 108.07 263.082C108.07 264.309 108.047 264.544 107.86 265.239C107.443 266.787 106.643 268.152 105.513 269.245C103.799 270.902 101.824 271.709 99.4812 271.709C97.0793 271.709 94.9779 270.821 93.3018 269.096C92.1997 267.962 91.5133 266.761 91.1024 265.246C90.9108 264.539 90.8894 264.319 90.8912 263.082C90.8929 261.859 90.9167 261.618 91.1039 260.921C92.2617 256.612 96.537 253.835 100.87 254.579Z" fill="url(#paint2_linear_2404_80402)"/>
<path d="M92.5604 302.006V308.473C92.5604 309.179 92.4169 309.808 92.1298 310.359C91.8472 310.911 91.4188 311.346 90.8446 311.665C90.2704 311.979 89.5503 312.137 88.6845 312.137C87.4494 312.137 86.5083 311.802 85.8612 311.132C85.2186 310.462 84.8973 309.566 84.8973 308.445V302.006H86.0663V308.479C86.0663 309.327 86.2896 309.981 86.7362 310.441C87.1874 310.902 87.8596 311.132 88.7528 311.132C89.3635 311.132 89.8625 311.022 90.2499 310.804C90.6418 310.58 90.9312 310.271 91.118 309.874C91.3095 309.473 91.4052 309.01 91.4052 308.486V302.006H92.5604ZM100.309 309.949C100.309 310.428 100.188 310.831 99.9462 311.159C99.7093 311.483 99.3675 311.727 98.9209 311.891C98.4788 312.055 97.9502 312.137 97.3349 312.137C96.8108 312.137 96.3574 312.096 95.9746 312.014C95.5918 311.932 95.2568 311.815 94.9697 311.665V310.619C95.275 310.77 95.6396 310.906 96.0634 311.029C96.4873 311.152 96.9202 311.214 97.3623 311.214C98.0094 311.214 98.4788 311.109 98.7705 310.899C99.0621 310.69 99.208 310.405 99.208 310.045C99.208 309.84 99.1487 309.66 99.0302 309.505C98.9163 309.345 98.7226 309.193 98.4492 309.047C98.1757 308.896 97.7975 308.732 97.3144 308.555C96.8359 308.372 96.4212 308.192 96.0703 308.015C95.7239 307.832 95.455 307.611 95.2636 307.352C95.0768 307.092 94.9834 306.755 94.9834 306.34C94.9834 305.706 95.2386 305.221 95.749 304.884C96.264 304.542 96.9384 304.371 97.7724 304.371C98.2236 304.371 98.6451 304.417 99.0371 304.508C99.4336 304.594 99.8027 304.713 100.144 304.863L99.7617 305.772C99.4518 305.64 99.1214 305.529 98.7705 305.438C98.4196 305.346 98.0618 305.301 97.6972 305.301C97.1731 305.301 96.7698 305.387 96.4873 305.561C96.2093 305.734 96.0703 305.971 96.0703 306.271C96.0703 306.504 96.1341 306.695 96.2617 306.846C96.3938 306.996 96.6035 307.137 96.8906 307.27C97.1777 307.402 97.556 307.557 98.0254 307.734C98.4948 307.908 98.9004 308.088 99.2421 308.274C99.5839 308.457 99.846 308.68 100.028 308.944C100.215 309.204 100.309 309.539 100.309 309.949ZM105.439 304.371C106.077 304.371 106.623 304.512 107.079 304.795C107.535 305.077 107.884 305.474 108.125 305.984C108.367 306.49 108.487 307.083 108.487 307.762V308.466H103.313C103.326 309.345 103.545 310.015 103.969 310.476C104.393 310.936 104.99 311.166 105.76 311.166C106.234 311.166 106.653 311.123 107.018 311.036C107.382 310.95 107.76 310.822 108.152 310.653V311.651C107.774 311.82 107.398 311.943 107.024 312.021C106.655 312.098 106.218 312.137 105.712 312.137C104.992 312.137 104.363 311.991 103.825 311.699C103.292 311.403 102.877 310.97 102.581 310.4C102.285 309.831 102.137 309.133 102.137 308.309C102.137 307.502 102.271 306.805 102.54 306.217C102.814 305.624 103.196 305.169 103.689 304.85C104.185 304.531 104.769 304.371 105.439 304.371ZM105.425 305.301C104.819 305.301 104.336 305.499 103.976 305.896C103.616 306.292 103.401 306.846 103.333 307.557H107.298C107.293 307.11 107.223 306.718 107.086 306.381C106.954 306.039 106.751 305.775 106.478 305.588C106.204 305.396 105.853 305.301 105.425 305.301ZM114.239 304.371C114.39 304.371 114.547 304.38 114.711 304.398C114.875 304.412 115.021 304.433 115.149 304.46L115.005 305.513C114.882 305.481 114.745 305.456 114.595 305.438C114.444 305.419 114.303 305.41 114.171 305.41C113.87 305.41 113.585 305.472 113.317 305.595C113.052 305.713 112.82 305.886 112.619 306.114C112.419 306.338 112.262 306.609 112.148 306.928C112.034 307.242 111.977 307.593 111.977 307.98V312H110.835V304.508H111.778L111.901 305.889H111.949C112.104 305.611 112.291 305.358 112.51 305.13C112.729 304.897 112.982 304.713 113.269 304.576C113.56 304.439 113.884 304.371 114.239 304.371Z" fill="#374151"/>
</g>
<path d="M204 280C204 280.276 204.224 280.5 204.5 280.5C204.776 280.5 205 280.276 205 280L204 280ZM201.833 257C201.833 258.473 203.027 259.667 204.5 259.667C205.973 259.667 207.167 258.473 207.167 257C207.167 255.527 205.973 254.333 204.5 254.333C203.027 254.333 201.833 255.527 201.833 257ZM205 280L205 268.658L204 268.658L204 280L205 280ZM205 268.658L205 257L204 257L204 268.658L205 268.658Z" fill="#D1D5DB"/>
<path d="M181.672 236.434H184.098C185.168 236.434 185.973 236.594 186.512 236.914C187.051 237.234 187.32 237.779 187.32 238.549C187.32 238.881 187.256 239.18 187.127 239.445C187.002 239.707 186.818 239.924 186.576 240.096C186.334 240.268 186.035 240.387 185.68 240.453V240.512C186.055 240.57 186.387 240.678 186.676 240.834C186.965 240.99 187.191 241.209 187.355 241.49C187.52 241.771 187.602 242.129 187.602 242.562C187.602 243.09 187.479 243.535 187.232 243.898C186.99 244.262 186.646 244.537 186.201 244.725C185.756 244.908 185.229 245 184.619 245H181.672V236.434ZM182.668 240.107H184.309C185.055 240.107 185.57 239.984 185.855 239.738C186.145 239.492 186.289 239.133 186.289 238.66C186.289 238.172 186.117 237.82 185.773 237.605C185.434 237.391 184.891 237.283 184.145 237.283H182.668V240.107ZM182.668 240.945V244.15H184.449C185.211 244.15 185.75 244.002 186.066 243.705C186.383 243.404 186.541 243 186.541 242.492C186.541 242.168 186.469 241.891 186.324 241.66C186.184 241.43 185.953 241.254 185.633 241.133C185.316 241.008 184.893 240.945 184.361 240.945H182.668ZM194.946 238.578V245H194.149L194.008 244.098H193.956C193.823 244.32 193.651 244.508 193.44 244.66C193.229 244.812 192.991 244.926 192.725 245C192.464 245.078 192.184 245.117 191.887 245.117C191.38 245.117 190.954 245.035 190.61 244.871C190.266 244.707 190.006 244.453 189.831 244.109C189.659 243.766 189.573 243.324 189.573 242.785V238.578H190.557V242.715C190.557 243.25 190.678 243.65 190.921 243.916C191.163 244.178 191.532 244.309 192.028 244.309C192.505 244.309 192.883 244.219 193.165 244.039C193.45 243.859 193.655 243.596 193.78 243.248C193.905 242.896 193.967 242.467 193.967 241.959V238.578H194.946ZM196.349 238.578H197.392L198.81 242.305C198.892 242.523 198.968 242.734 199.038 242.937C199.109 243.137 199.171 243.328 199.226 243.512C199.281 243.695 199.324 243.873 199.355 244.045H199.396C199.45 243.85 199.529 243.594 199.63 243.277C199.732 242.957 199.841 242.631 199.958 242.299L201.3 238.578H202.349L199.554 245.943C199.406 246.338 199.232 246.682 199.032 246.975C198.837 247.268 198.599 247.492 198.318 247.648C198.036 247.809 197.697 247.889 197.298 247.889C197.115 247.889 196.952 247.877 196.812 247.854C196.671 247.834 196.55 247.811 196.449 247.783V247.004C196.534 247.023 196.638 247.041 196.759 247.057C196.884 247.072 197.013 247.08 197.146 247.08C197.388 247.08 197.597 247.033 197.773 246.939C197.952 246.85 198.107 246.717 198.236 246.541C198.365 246.365 198.476 246.156 198.57 245.914L198.921 245.012L196.349 238.578ZM214.055 245H212.907L208.237 237.805H208.19C208.202 237.996 208.215 238.215 208.231 238.461C208.247 238.703 208.258 238.963 208.266 239.24C208.278 239.514 208.284 239.793 208.284 240.078V245H207.358V236.434H208.501L213.153 243.605H213.194C213.186 243.469 213.176 243.275 213.165 243.025C213.153 242.771 213.141 242.5 213.129 242.211C213.122 241.918 213.118 241.646 213.118 241.396V236.434H214.055V245ZM217.749 245H216.753V236.434H221.523V237.312H217.749V240.453H221.294V241.326H217.749V245ZM225.943 245H224.941V237.312H222.246V236.434H228.627V237.312H225.943V245Z" fill="#9CA3AF"/>
<path d="M225.102 152.705C225.102 153.365 225.018 153.967 224.85 154.51C224.682 155.049 224.432 155.514 224.1 155.904C223.771 156.291 223.363 156.59 222.875 156.801C222.387 157.012 221.82 157.117 221.176 157.117C220.512 157.117 219.932 157.012 219.436 156.801C218.943 156.59 218.533 156.289 218.205 155.898C217.881 155.508 217.637 155.041 217.473 154.498C217.312 153.955 217.232 153.354 217.232 152.693C217.232 151.818 217.377 151.051 217.666 150.391C217.955 149.73 218.393 149.217 218.979 148.85C219.568 148.482 220.307 148.299 221.193 148.299C222.041 148.299 222.754 148.48 223.332 148.844C223.914 149.207 224.354 149.719 224.65 150.379C224.951 151.035 225.102 151.811 225.102 152.705ZM218.281 152.705C218.281 153.432 218.385 154.061 218.592 154.592C218.799 155.123 219.115 155.533 219.541 155.822C219.971 156.111 220.516 156.256 221.176 156.256C221.84 156.256 222.383 156.111 222.805 155.822C223.23 155.533 223.545 155.123 223.748 154.592C223.951 154.061 224.053 153.432 224.053 152.705C224.053 151.6 223.82 150.736 223.355 150.115C222.895 149.49 222.174 149.178 221.193 149.178C220.529 149.178 219.982 149.32 219.553 149.605C219.123 149.891 218.803 150.297 218.592 150.824C218.385 151.348 218.281 151.975 218.281 152.705ZM230.085 151.34H228.485V157H227.512V151.34H226.376V150.871L227.512 150.549V150.121C227.512 149.582 227.592 149.145 227.753 148.809C227.913 148.469 228.145 148.219 228.45 148.059C228.755 147.898 229.126 147.818 229.563 147.818C229.809 147.818 230.034 147.84 230.237 147.883C230.444 147.926 230.626 147.975 230.782 148.029L230.53 148.797C230.397 148.754 230.247 148.715 230.079 148.68C229.915 148.641 229.747 148.621 229.575 148.621C229.204 148.621 228.928 148.742 228.749 148.984C228.573 149.223 228.485 149.598 228.485 150.109V150.578H230.085V151.34ZM234.122 151.34H232.522V157H231.549V151.34H230.413V150.871L231.549 150.549V150.121C231.549 149.582 231.63 149.145 231.79 148.809C231.95 148.469 232.182 148.219 232.487 148.059C232.792 147.898 233.163 147.818 233.6 147.818C233.846 147.818 234.071 147.84 234.274 147.883C234.481 147.926 234.663 147.975 234.819 148.029L234.567 148.797C234.434 148.754 234.284 148.715 234.116 148.68C233.952 148.641 233.784 148.621 233.612 148.621C233.241 148.621 232.965 148.742 232.786 148.984C232.61 149.223 232.522 149.598 232.522 150.109V150.578H234.122V151.34ZM239.814 155.242C239.814 155.652 239.71 155.998 239.503 156.279C239.3 156.557 239.007 156.766 238.624 156.906C238.245 157.047 237.792 157.117 237.265 157.117C236.816 157.117 236.427 157.082 236.099 157.012C235.771 156.941 235.484 156.842 235.238 156.713V155.816C235.499 155.945 235.812 156.062 236.175 156.168C236.538 156.273 236.909 156.326 237.288 156.326C237.843 156.326 238.245 156.236 238.495 156.057C238.745 155.877 238.87 155.633 238.87 155.324C238.87 155.148 238.82 154.994 238.718 154.861C238.62 154.725 238.454 154.594 238.22 154.469C237.986 154.34 237.661 154.199 237.247 154.047C236.837 153.891 236.482 153.736 236.181 153.584C235.884 153.428 235.654 153.238 235.49 153.016C235.329 152.793 235.249 152.504 235.249 152.148C235.249 151.605 235.468 151.189 235.906 150.9C236.347 150.607 236.925 150.461 237.64 150.461C238.027 150.461 238.388 150.5 238.724 150.578C239.064 150.652 239.38 150.754 239.673 150.883L239.345 151.662C239.079 151.549 238.796 151.453 238.495 151.375C238.195 151.297 237.888 151.258 237.575 151.258C237.126 151.258 236.781 151.332 236.538 151.48C236.3 151.629 236.181 151.832 236.181 152.09C236.181 152.289 236.236 152.453 236.345 152.582C236.458 152.711 236.638 152.832 236.884 152.945C237.13 153.059 237.454 153.191 237.857 153.344C238.259 153.492 238.607 153.646 238.9 153.807C239.193 153.963 239.417 154.154 239.574 154.381C239.734 154.604 239.814 154.891 239.814 155.242ZM244.211 150.461C244.758 150.461 245.226 150.582 245.617 150.824C246.008 151.066 246.307 151.406 246.514 151.844C246.721 152.277 246.824 152.785 246.824 153.367V153.971H242.389C242.4 154.725 242.588 155.299 242.951 155.693C243.314 156.088 243.826 156.285 244.486 156.285C244.892 156.285 245.252 156.248 245.564 156.174C245.877 156.1 246.201 155.99 246.537 155.846V156.701C246.213 156.846 245.891 156.951 245.57 157.018C245.254 157.084 244.879 157.117 244.445 157.117C243.828 157.117 243.289 156.992 242.828 156.742C242.371 156.488 242.016 156.117 241.762 155.629C241.508 155.141 241.381 154.543 241.381 153.836C241.381 153.145 241.496 152.547 241.726 152.043C241.961 151.535 242.289 151.145 242.711 150.871C243.137 150.598 243.637 150.461 244.211 150.461ZM244.199 151.258C243.68 151.258 243.266 151.428 242.957 151.768C242.648 152.107 242.465 152.582 242.406 153.191H245.805C245.801 152.809 245.74 152.473 245.623 152.184C245.51 151.891 245.336 151.664 245.101 151.504C244.867 151.34 244.566 151.258 244.199 151.258ZM250.911 156.32C251.071 156.32 251.235 156.307 251.403 156.279C251.571 156.252 251.708 156.219 251.813 156.18V156.936C251.7 156.986 251.542 157.029 251.338 157.064C251.139 157.1 250.944 157.117 250.752 157.117C250.413 157.117 250.104 157.059 249.827 156.941C249.549 156.82 249.327 156.617 249.159 156.332C248.995 156.047 248.913 155.652 248.913 155.148V151.34H247.999V150.865L248.919 150.484L249.305 149.09H249.891V150.578H251.772V151.34H249.891V155.119C249.891 155.521 249.983 155.822 250.167 156.021C250.354 156.221 250.602 156.32 250.911 156.32ZM260.76 149.189C260.287 149.189 259.861 149.271 259.482 149.436C259.107 149.596 258.787 149.83 258.521 150.139C258.26 150.443 258.058 150.812 257.918 151.246C257.777 151.68 257.707 152.168 257.707 152.711C257.707 153.43 257.818 154.055 258.041 154.586C258.267 155.113 258.603 155.521 259.049 155.811C259.498 156.1 260.058 156.244 260.73 156.244C261.113 156.244 261.472 156.213 261.808 156.15C262.148 156.084 262.478 156.002 262.799 155.904V156.771C262.486 156.889 262.158 156.975 261.814 157.029C261.471 157.088 261.062 157.117 260.59 157.117C259.719 157.117 258.99 156.937 258.404 156.578C257.822 156.215 257.385 155.703 257.092 155.043C256.803 154.383 256.658 153.604 256.658 152.705C256.658 152.057 256.748 151.465 256.928 150.93C257.111 150.391 257.377 149.926 257.724 149.535C258.076 149.145 258.506 148.844 259.014 148.633C259.525 148.418 260.111 148.311 260.771 148.311C261.205 148.311 261.623 148.354 262.025 148.439C262.428 148.525 262.791 148.648 263.115 148.809L262.717 149.652C262.443 149.527 262.142 149.42 261.814 149.33C261.49 149.236 261.139 149.189 260.76 149.189ZM272.446 152.705C272.446 153.365 272.362 153.967 272.194 154.51C272.026 155.049 271.776 155.514 271.444 155.904C271.116 156.291 270.707 156.59 270.219 156.801C269.731 157.012 269.165 157.117 268.52 157.117C267.856 157.117 267.276 157.012 266.78 156.801C266.288 156.59 265.877 156.289 265.549 155.898C265.225 155.508 264.981 155.041 264.817 154.498C264.657 153.955 264.577 153.354 264.577 152.693C264.577 151.818 264.721 151.051 265.01 150.391C265.299 149.73 265.737 149.217 266.323 148.85C266.913 148.482 267.651 148.299 268.538 148.299C269.385 148.299 270.098 148.48 270.676 148.844C271.258 149.207 271.698 149.719 271.995 150.379C272.295 151.035 272.446 151.811 272.446 152.705ZM265.625 152.705C265.625 153.432 265.729 154.061 265.936 154.592C266.143 155.123 266.459 155.533 266.885 155.822C267.315 156.111 267.86 156.256 268.52 156.256C269.184 156.256 269.727 156.111 270.149 155.822C270.575 155.533 270.889 155.123 271.092 154.592C271.295 154.061 271.397 153.432 271.397 152.705C271.397 151.6 271.165 150.736 270.7 150.115C270.239 149.49 269.518 149.178 268.538 149.178C267.874 149.178 267.327 149.32 266.897 149.605C266.467 149.891 266.147 150.297 265.936 150.824C265.729 151.348 265.625 151.975 265.625 152.705ZM279.749 157H274.136V156.186L276.427 153.859C276.853 153.43 277.21 153.047 277.499 152.711C277.792 152.375 278.015 152.045 278.167 151.721C278.319 151.393 278.396 151.033 278.396 150.643C278.396 150.158 278.251 149.789 277.962 149.535C277.677 149.277 277.3 149.148 276.831 149.148C276.421 149.148 276.058 149.219 275.741 149.359C275.425 149.5 275.101 149.699 274.769 149.957L274.247 149.301C274.474 149.109 274.72 148.939 274.985 148.791C275.255 148.643 275.542 148.525 275.847 148.439C276.155 148.354 276.484 148.311 276.831 148.311C277.359 148.311 277.814 148.402 278.196 148.586C278.579 148.77 278.874 149.031 279.081 149.371C279.292 149.711 279.398 150.115 279.398 150.584C279.398 151.037 279.308 151.459 279.128 151.85C278.948 152.236 278.696 152.621 278.372 153.004C278.048 153.383 277.669 153.785 277.235 154.211L275.372 156.068V156.109H279.749V157Z" fill="#9CA3AF"/>
<path d="M379.164 131H378.168V126.963H373.668V131H372.672V122.434H373.668V126.084H378.168V122.434H379.164V131ZM384.206 124.461C384.753 124.461 385.221 124.582 385.612 124.824C386.003 125.066 386.301 125.406 386.508 125.844C386.715 126.277 386.819 126.785 386.819 127.367V127.971H382.383C382.395 128.725 382.583 129.299 382.946 129.693C383.309 130.088 383.821 130.285 384.481 130.285C384.887 130.285 385.247 130.248 385.559 130.174C385.872 130.1 386.196 129.99 386.532 129.846V130.701C386.208 130.846 385.885 130.951 385.565 131.018C385.249 131.084 384.874 131.117 384.44 131.117C383.823 131.117 383.284 130.992 382.823 130.742C382.366 130.488 382.01 130.117 381.756 129.629C381.503 129.141 381.376 128.543 381.376 127.836C381.376 127.145 381.491 126.547 381.721 126.043C381.956 125.535 382.284 125.145 382.706 124.871C383.131 124.598 383.631 124.461 384.206 124.461ZM384.194 125.258C383.674 125.258 383.26 125.428 382.952 125.768C382.643 126.107 382.46 126.582 382.401 127.191H385.799C385.796 126.809 385.735 126.473 385.618 126.184C385.505 125.891 385.331 125.664 385.096 125.504C384.862 125.34 384.561 125.258 384.194 125.258ZM389.81 131H388.831V121.883H389.81V131ZM395.244 124.461C396.045 124.461 396.684 124.736 397.16 125.287C397.637 125.838 397.875 126.666 397.875 127.771C397.875 128.502 397.766 129.115 397.547 129.611C397.328 130.107 397.019 130.482 396.621 130.736C396.226 130.99 395.76 131.117 395.221 131.117C394.881 131.117 394.582 131.072 394.324 130.982C394.066 130.893 393.846 130.771 393.662 130.619C393.478 130.467 393.326 130.301 393.205 130.121H393.135C393.146 130.273 393.16 130.457 393.176 130.672C393.195 130.887 393.205 131.074 393.205 131.234V133.871H392.226V124.578H393.029L393.158 125.527H393.205C393.33 125.332 393.482 125.154 393.662 124.994C393.842 124.83 394.06 124.701 394.318 124.607C394.58 124.51 394.889 124.461 395.244 124.461ZM395.074 125.281C394.629 125.281 394.269 125.367 393.996 125.539C393.726 125.711 393.529 125.969 393.404 126.312C393.279 126.652 393.213 127.08 393.205 127.596V127.783C393.205 128.326 393.264 128.785 393.381 129.16C393.502 129.535 393.699 129.82 393.973 130.016C394.25 130.211 394.621 130.309 395.086 130.309C395.484 130.309 395.816 130.201 396.082 129.986C396.348 129.771 396.545 129.473 396.674 129.09C396.807 128.703 396.873 128.26 396.873 127.76C396.873 127.002 396.725 126.4 396.428 125.955C396.135 125.506 395.684 125.281 395.074 125.281ZM400.907 124.578V131H399.934V124.578H400.907ZM400.432 122.176C400.592 122.176 400.729 122.229 400.842 122.334C400.96 122.436 401.018 122.596 401.018 122.814C401.018 123.029 400.96 123.189 400.842 123.295C400.729 123.4 400.592 123.453 400.432 123.453C400.264 123.453 400.124 123.4 400.01 123.295C399.901 123.189 399.846 123.029 399.846 122.814C399.846 122.596 399.901 122.436 400.01 122.334C400.124 122.229 400.264 122.176 400.432 122.176ZM406.37 124.461C407.132 124.461 407.708 124.648 408.099 125.023C408.489 125.395 408.685 125.992 408.685 126.816V131H407.724V126.881C407.724 126.346 407.601 125.945 407.355 125.68C407.112 125.414 406.739 125.281 406.236 125.281C405.525 125.281 405.025 125.482 404.736 125.885C404.446 126.287 404.302 126.871 404.302 127.637V131H403.329V124.578H404.114L404.261 125.504H404.314C404.45 125.277 404.624 125.088 404.835 124.936C405.046 124.779 405.282 124.662 405.544 124.584C405.806 124.502 406.081 124.461 406.37 124.461ZM412.842 133.883C411.998 133.883 411.347 133.725 410.89 133.408C410.433 133.096 410.205 132.656 410.205 132.09C410.205 131.687 410.332 131.344 410.586 131.059C410.844 130.773 411.199 130.584 411.652 130.49C411.484 130.412 411.34 130.295 411.219 130.139C411.101 129.982 411.043 129.803 411.043 129.6C411.043 129.365 411.107 129.16 411.236 128.984C411.369 128.805 411.57 128.633 411.84 128.469C411.504 128.332 411.23 128.102 411.019 127.777C410.812 127.449 410.709 127.068 410.709 126.635C410.709 126.174 410.805 125.781 410.996 125.457C411.187 125.129 411.465 124.879 411.828 124.707C412.191 124.535 412.631 124.449 413.146 124.449C413.26 124.449 413.373 124.455 413.486 124.467C413.603 124.475 413.715 124.488 413.82 124.508C413.926 124.523 414.017 124.543 414.096 124.566H416.299V125.193L415.115 125.34C415.232 125.492 415.33 125.676 415.408 125.891C415.486 126.105 415.525 126.344 415.525 126.605C415.525 127.246 415.308 127.756 414.875 128.135C414.441 128.51 413.846 128.697 413.088 128.697C412.908 128.697 412.724 128.682 412.537 128.65C412.346 128.756 412.199 128.873 412.097 129.002C412 129.131 411.951 129.279 411.951 129.447C411.951 129.572 411.988 129.672 412.062 129.746C412.14 129.82 412.252 129.875 412.396 129.91C412.541 129.941 412.715 129.957 412.918 129.957H414.049C414.748 129.957 415.283 130.104 415.654 130.396C416.029 130.689 416.217 131.117 416.217 131.68C416.217 132.391 415.928 132.936 415.349 133.314C414.771 133.693 413.935 133.883 412.842 133.883ZM412.871 133.121C413.402 133.121 413.842 133.066 414.189 132.957C414.541 132.852 414.803 132.697 414.974 132.494C415.15 132.295 415.238 132.057 415.238 131.779C415.238 131.521 415.18 131.326 415.062 131.193C414.945 131.064 414.773 130.979 414.547 130.936C414.32 130.889 414.043 130.865 413.715 130.865H412.601C412.312 130.865 412.06 130.91 411.846 131C411.631 131.09 411.465 131.223 411.347 131.398C411.234 131.574 411.178 131.793 411.178 132.055C411.178 132.402 411.324 132.666 411.617 132.846C411.91 133.029 412.328 133.121 412.871 133.121ZM413.123 127.988C413.588 127.988 413.937 127.871 414.172 127.637C414.406 127.402 414.523 127.061 414.523 126.611C414.523 126.131 414.404 125.771 414.166 125.533C413.928 125.291 413.576 125.17 413.111 125.17C412.666 125.17 412.322 125.295 412.08 125.545C411.842 125.791 411.722 126.152 411.722 126.629C411.722 127.066 411.844 127.402 412.086 127.637C412.328 127.871 412.674 127.988 413.123 127.988ZM424.442 124.461C425.204 124.461 425.78 124.648 426.171 125.023C426.562 125.395 426.757 125.992 426.757 126.816V131H425.796V126.881C425.796 126.346 425.673 125.945 425.427 125.68C425.185 125.414 424.812 125.281 424.308 125.281C423.597 125.281 423.097 125.482 422.808 125.885C422.519 126.287 422.374 126.871 422.374 127.637V131H421.401V124.578H422.187L422.333 125.504H422.386C422.523 125.277 422.696 125.088 422.907 124.936C423.118 124.779 423.355 124.662 423.616 124.584C423.878 124.502 424.153 124.461 424.442 124.461ZM431.523 124.473C432.289 124.473 432.857 124.645 433.228 124.988C433.599 125.332 433.785 125.881 433.785 126.635V131H433.076L432.888 130.051H432.842C432.662 130.285 432.474 130.482 432.279 130.643C432.084 130.799 431.857 130.918 431.599 131C431.345 131.078 431.033 131.117 430.662 131.117C430.271 131.117 429.924 131.049 429.619 130.912C429.318 130.775 429.08 130.568 428.904 130.291C428.732 130.014 428.646 129.662 428.646 129.236C428.646 128.596 428.9 128.104 429.408 127.76C429.916 127.416 430.689 127.229 431.728 127.197L432.836 127.15V126.758C432.836 126.203 432.717 125.814 432.478 125.592C432.24 125.369 431.904 125.258 431.47 125.258C431.135 125.258 430.814 125.307 430.51 125.404C430.205 125.502 429.916 125.617 429.642 125.75L429.344 125.012C429.633 124.863 429.965 124.736 430.34 124.631C430.715 124.525 431.109 124.473 431.523 124.473ZM432.824 127.836L431.845 127.877C431.045 127.908 430.48 128.039 430.152 128.27C429.824 128.5 429.66 128.826 429.66 129.248C429.66 129.615 429.771 129.887 429.994 130.062C430.217 130.238 430.511 130.326 430.879 130.326C431.449 130.326 431.916 130.168 432.279 129.852C432.642 129.535 432.824 129.061 432.824 128.428V127.836ZM438.223 130.32C438.383 130.32 438.547 130.307 438.715 130.279C438.883 130.252 439.02 130.219 439.125 130.18V130.936C439.012 130.986 438.854 131.029 438.651 131.064C438.452 131.1 438.256 131.117 438.065 131.117C437.725 131.117 437.416 131.059 437.139 130.941C436.862 130.82 436.639 130.617 436.471 130.332C436.307 130.047 436.225 129.652 436.225 129.148V125.34H435.311V124.865L436.231 124.484L436.618 123.09H437.204V124.578H439.084V125.34H437.204V129.119C437.204 129.521 437.295 129.822 437.479 130.021C437.666 130.221 437.914 130.32 438.223 130.32ZM446.089 124.578V131H445.292L445.151 130.098H445.099C444.966 130.32 444.794 130.508 444.583 130.66C444.372 130.812 444.134 130.926 443.868 131C443.606 131.078 443.327 131.117 443.03 131.117C442.522 131.117 442.097 131.035 441.753 130.871C441.409 130.707 441.149 130.453 440.974 130.109C440.802 129.766 440.716 129.324 440.716 128.785V124.578H441.7V128.715C441.7 129.25 441.821 129.65 442.064 129.916C442.306 130.178 442.675 130.309 443.171 130.309C443.647 130.309 444.026 130.219 444.308 130.039C444.593 129.859 444.798 129.596 444.923 129.248C445.048 128.896 445.11 128.467 445.11 127.959V124.578H446.089ZM451.424 124.461C451.552 124.461 451.687 124.469 451.828 124.484C451.968 124.496 452.093 124.514 452.203 124.537L452.08 125.439C451.974 125.412 451.857 125.391 451.728 125.375C451.599 125.359 451.478 125.352 451.365 125.352C451.107 125.352 450.863 125.404 450.632 125.51C450.406 125.611 450.207 125.76 450.035 125.955C449.863 126.146 449.728 126.379 449.631 126.652C449.533 126.922 449.484 127.223 449.484 127.555V131H448.506V124.578H449.314L449.42 125.762H449.461C449.593 125.523 449.754 125.307 449.941 125.111C450.129 124.912 450.345 124.754 450.591 124.637C450.841 124.52 451.119 124.461 451.424 124.461ZM456.248 124.461C456.795 124.461 457.264 124.582 457.655 124.824C458.045 125.066 458.344 125.406 458.551 125.844C458.758 126.277 458.862 126.785 458.862 127.367V127.971H454.426C454.438 128.725 454.625 129.299 454.989 129.693C455.352 130.088 455.864 130.285 456.524 130.285C456.93 130.285 457.289 130.248 457.602 130.174C457.914 130.1 458.239 129.99 458.575 129.846V130.701C458.25 130.846 457.928 130.951 457.608 131.018C457.291 131.084 456.916 131.117 456.483 131.117C455.866 131.117 455.326 130.992 454.866 130.742C454.409 130.488 454.053 130.117 453.799 129.629C453.545 129.141 453.418 128.543 453.418 127.836C453.418 127.145 453.534 126.547 453.764 126.043C453.998 125.535 454.326 125.145 454.748 124.871C455.174 124.598 455.674 124.461 456.248 124.461ZM456.237 125.258C455.717 125.258 455.303 125.428 454.994 125.768C454.686 126.107 454.502 126.582 454.444 127.191H457.842C457.838 126.809 457.778 126.473 457.66 126.184C457.547 125.891 457.373 125.664 457.139 125.504C456.905 125.34 456.604 125.258 456.237 125.258Z" fill="#9CA3AF"/>
<path d="M340.439 368L337.562 360.418H337.516C337.531 360.578 337.545 360.773 337.557 361.004C337.568 361.234 337.578 361.486 337.586 361.76C337.594 362.029 337.598 362.305 337.598 362.586V368H336.672V359.434H338.148L340.861 366.559H340.902L343.656 359.434H345.121V368H344.137V362.516C344.137 362.262 344.141 362.008 344.148 361.754C344.156 361.496 344.166 361.254 344.178 361.027C344.189 360.797 344.201 360.598 344.213 360.43H344.166L341.254 368H340.439ZM348.651 361.578V368H347.678V361.578H348.651ZM348.176 359.176C348.337 359.176 348.473 359.229 348.587 359.334C348.704 359.436 348.762 359.596 348.762 359.814C348.762 360.029 348.704 360.189 348.587 360.295C348.473 360.4 348.337 360.453 348.176 360.453C348.008 360.453 347.868 360.4 347.755 360.295C347.645 360.189 347.59 360.029 347.59 359.814C347.59 359.596 347.645 359.436 347.755 359.334C347.868 359.229 348.008 359.176 348.176 359.176ZM354.115 361.461C354.876 361.461 355.452 361.648 355.843 362.023C356.234 362.395 356.429 362.992 356.429 363.816V368H355.468V363.881C355.468 363.346 355.345 362.945 355.099 362.68C354.857 362.414 354.484 362.281 353.98 362.281C353.269 362.281 352.769 362.482 352.48 362.885C352.191 363.287 352.046 363.871 352.046 364.637V368H351.074V361.578H351.859L352.005 362.504H352.058C352.195 362.277 352.368 362.088 352.579 361.936C352.79 361.779 353.027 361.662 353.288 361.584C353.55 361.502 353.825 361.461 354.115 361.461ZM360.867 367.32C361.027 367.32 361.191 367.307 361.359 367.279C361.527 367.252 361.664 367.219 361.769 367.18V367.936C361.656 367.986 361.498 368.029 361.295 368.064C361.096 368.1 360.9 368.117 360.709 368.117C360.369 368.117 360.06 368.059 359.783 367.941C359.506 367.82 359.283 367.617 359.115 367.332C358.951 367.047 358.869 366.652 358.869 366.148V362.34H357.955V361.865L358.875 361.484L359.262 360.09H359.848V361.578H361.728V362.34H359.848V366.119C359.848 366.521 359.939 366.822 360.123 367.021C360.31 367.221 360.559 367.32 360.867 367.32ZM373.751 368H372.603L367.933 360.805H367.886C367.898 360.996 367.911 361.215 367.927 361.461C367.943 361.703 367.954 361.963 367.962 362.24C367.974 362.514 367.98 362.793 367.98 363.078V368H367.054V359.434H368.196L372.849 366.605H372.89C372.882 366.469 372.872 366.275 372.861 366.025C372.849 365.771 372.837 365.5 372.825 365.211C372.818 364.918 372.814 364.646 372.814 364.396V359.434H373.751V368ZM377.445 368H376.449V359.434H381.219V360.312H377.445V363.453H380.99V364.326H377.445V368ZM385.639 368H384.637V360.312H381.942V359.434H388.323V360.312H385.639V368Z" fill="#9CA3AF"/>
<path d="M87.0059 448.721C87.0059 449.229 86.8789 449.662 86.625 450.021C86.375 450.377 86.0234 450.648 85.5703 450.836C85.1172 451.023 84.584 451.117 83.9707 451.117C83.6465 451.117 83.3398 451.102 83.0508 451.07C82.7617 451.039 82.4961 450.994 82.2539 450.936C82.0117 450.877 81.7988 450.805 81.6152 450.719V449.764C81.9082 449.885 82.2656 449.998 82.6875 450.104C83.1094 450.205 83.5508 450.256 84.0117 450.256C84.4414 450.256 84.8047 450.199 85.1016 450.086C85.3984 449.969 85.623 449.803 85.7754 449.588C85.9316 449.369 86.0098 449.107 86.0098 448.803C86.0098 448.51 85.9453 448.266 85.8164 448.07C85.6875 447.871 85.4727 447.691 85.1719 447.531C84.875 447.367 84.4687 447.193 83.9531 447.01C83.5898 446.881 83.2695 446.74 82.9922 446.588C82.7148 446.432 82.4824 446.256 82.2949 446.061C82.1074 445.865 81.9648 445.639 81.8672 445.381C81.7734 445.123 81.7266 444.828 81.7266 444.496C81.7266 444.039 81.8418 443.648 82.0723 443.324C82.3066 442.996 82.6289 442.746 83.0391 442.574C83.4531 442.398 83.9277 442.311 84.4629 442.311C84.9199 442.311 85.3418 442.354 85.7285 442.439C86.1191 442.525 86.4766 442.641 86.8008 442.785L86.4902 443.641C86.1816 443.512 85.8535 443.404 85.5059 443.318C85.1621 443.232 84.8066 443.189 84.4395 443.189C84.0723 443.189 83.7617 443.244 83.5078 443.354C83.2578 443.459 83.0664 443.609 82.9336 443.805C82.8008 444 82.7344 444.232 82.7344 444.502C82.7344 444.803 82.7969 445.053 82.9219 445.252C83.0508 445.451 83.2539 445.629 83.5312 445.785C83.8125 445.937 84.1836 446.098 84.6445 446.266C85.1484 446.449 85.5762 446.645 85.9277 446.852C86.2793 447.055 86.5469 447.305 86.7305 447.602C86.9141 447.895 87.0059 448.268 87.0059 448.721ZM91.444 444.461C91.9909 444.461 92.4596 444.582 92.8502 444.824C93.2409 445.066 93.5397 445.406 93.7467 445.844C93.9537 446.277 94.0573 446.785 94.0573 447.367V447.971H89.6217C89.6334 448.725 89.8209 449.299 90.1842 449.693C90.5475 450.088 91.0592 450.285 91.7194 450.285C92.1256 450.285 92.485 450.248 92.7975 450.174C93.11 450.1 93.4342 449.99 93.7702 449.846V450.701C93.4459 450.846 93.1237 450.951 92.8034 451.018C92.487 451.084 92.112 451.117 91.6784 451.117C91.0612 451.117 90.5221 450.992 90.0612 450.742C89.6041 450.488 89.2487 450.117 88.9948 449.629C88.7409 449.141 88.6139 448.543 88.6139 447.836C88.6139 447.145 88.7291 446.547 88.9596 446.043C89.194 445.535 89.5221 445.145 89.944 444.871C90.3698 444.598 90.8698 444.461 91.444 444.461ZM91.4323 445.258C90.9127 445.258 90.4987 445.428 90.1901 445.768C89.8815 446.107 89.6979 446.582 89.6393 447.191H93.0377C93.0338 446.809 92.9733 446.473 92.8561 446.184C92.7428 445.891 92.569 445.664 92.3346 445.504C92.1002 445.34 91.7995 445.258 91.4323 445.258ZM99.1106 444.461C99.8723 444.461 100.449 444.648 100.839 445.023C101.23 445.395 101.425 445.992 101.425 446.816V451H100.464V446.881C100.464 446.346 100.341 445.945 100.095 445.68C99.8528 445.414 99.4798 445.281 98.9759 445.281C98.2649 445.281 97.7649 445.482 97.4759 445.885C97.1868 446.287 97.0423 446.871 97.0423 447.637V451H96.0696V444.578H96.8548L97.0012 445.504H97.054C97.1907 445.277 97.3645 445.088 97.5755 444.936C97.7864 444.779 98.0227 444.662 98.2845 444.584C98.5462 444.502 98.8216 444.461 99.1106 444.461ZM106.074 451.117C105.262 451.117 104.617 450.84 104.141 450.285C103.668 449.73 103.432 448.906 103.432 447.812C103.432 446.707 103.674 445.873 104.158 445.311C104.642 444.744 105.287 444.461 106.092 444.461C106.432 444.461 106.728 444.506 106.982 444.596C107.236 444.686 107.455 444.807 107.639 444.959C107.822 445.107 107.976 445.277 108.101 445.469H108.172C108.156 445.348 108.141 445.182 108.125 444.971C108.109 444.76 108.101 444.588 108.101 444.455V441.883H109.074V451H108.289L108.142 450.086H108.101C107.98 450.277 107.826 450.451 107.639 450.607C107.455 450.764 107.234 450.889 106.976 450.982C106.723 451.072 106.422 451.117 106.074 451.117ZM106.226 450.309C106.914 450.309 107.4 450.113 107.685 449.723C107.971 449.332 108.113 448.752 108.113 447.982V447.807C108.113 446.99 107.976 446.363 107.703 445.926C107.434 445.488 106.941 445.27 106.226 445.27C105.629 445.27 105.182 445.5 104.885 445.961C104.588 446.418 104.439 447.043 104.439 447.836C104.439 448.625 104.586 449.234 104.879 449.664C105.176 450.094 105.625 450.309 106.226 450.309ZM121.818 451H120.669L115.999 443.805H115.952C115.964 443.996 115.978 444.215 115.993 444.461C116.009 444.703 116.021 444.963 116.029 445.24C116.04 445.514 116.046 445.793 116.046 446.078V451H115.12V442.434H116.263L120.915 449.605H120.956C120.948 449.469 120.939 449.275 120.927 449.025C120.915 448.771 120.904 448.5 120.892 448.211C120.884 447.918 120.88 447.646 120.88 447.396V442.434H121.818V451ZM125.512 451H124.515V442.434H129.285V443.312H125.512V446.453H129.056V447.326H125.512V451ZM133.706 451H132.704V443.312H130.008V442.434H136.389V443.312H133.706V451Z" fill="#9CA3AF"/>
<path d="M309.204 397.597C308.981 397.761 308.934 398.073 309.097 398.296C309.261 398.519 309.574 398.566 309.796 398.403L309.204 397.597ZM334 380V379.5H333.836L333.704 379.597L334 380ZM386.333 380C386.333 381.473 387.527 382.667 389 382.667C390.473 382.667 391.667 381.473 391.667 380C391.667 378.527 390.473 377.333 389 377.333C387.527 377.333 386.333 378.527 386.333 380ZM309.796 398.403L334.296 380.403L333.704 379.597L309.204 397.597L309.796 398.403ZM334 380.5H389V379.5H334V380.5Z" fill="#D1D5DB"/>
<path d="M310.296 186.597C310.519 186.761 310.566 187.073 310.403 187.296C310.239 187.519 309.926 187.566 309.704 187.403L310.296 186.597ZM285.5 169V168.5H285.664L285.796 168.597L285.5 169ZM221.167 169C221.167 170.473 219.973 171.667 218.5 171.667C217.027 171.667 215.833 170.473 215.833 169C215.833 167.527 217.027 166.333 218.5 166.333C219.973 166.333 221.167 167.527 221.167 169ZM309.704 187.403L285.204 169.403L285.796 168.597L310.296 186.597L309.704 187.403ZM285.5 169.5H218.5V168.5H285.5V169.5Z" fill="#D1D5DB"/>
<path d="M162.796 445.69C163.019 445.527 163.066 445.214 162.903 444.991C162.739 444.769 162.426 444.721 162.204 444.884L162.796 445.69ZM138 463.287V463.787H138.164L138.296 463.69L138 463.287ZM84.1667 463.287C84.1667 461.814 82.9728 460.62 81.5 460.62C80.0272 460.62 78.8333 461.814 78.8333 463.287C78.8333 464.76 80.0272 465.954 81.5 465.954C82.9728 465.954 84.1667 464.76 84.1667 463.287ZM162.204 444.884L137.704 462.884L138.296 463.69L162.796 445.69L162.204 444.884ZM138 462.787H81.5V463.787H138V462.787Z" fill="#D1D5DB"/>
<defs>
<filter id="filter0_d_2404_80402" x="237.5" y="426" width="144" height="144" filterUnits="userSpaceOnUse" color-interpolation-filters="sRGB">
<feFlood flood-opacity="0" result="BackgroundImageFix"/>
<feColorMatrix in="SourceAlpha" type="matrix" values="0 0 0 0 0 0 0 0 0 0 0 0 0 0 0 0 0 0 127 0" result="hardAlpha"/>
<feOffset dy="4"/>
<feGaussianBlur stdDeviation="6"/>
<feComposite in2="hardAlpha" operator="out"/>
<feColorMatrix type="matrix" values="0 0 0 0 0 0 0 0 0 0 0 0 0 0 0 0 0 0 0.05 0"/>
<feBlend mode="normal" in2="BackgroundImageFix" result="effect1_dropShadow_2404_80402"/>
<feBlend mode="normal" in="SourceGraphic" in2="effect1_dropShadow_2404_80402" result="shape"/>
</filter>
<filter id="filter1_d_2404_80402" x="237.5" y="5" width="144" height="144" filterUnits="userSpaceOnUse" color-interpolation-filters="sRGB">
<feFlood flood-opacity="0" result="BackgroundImageFix"/>
<feColorMatrix in="SourceAlpha" type="matrix" values="0 0 0 0 0 0 0 0 0 0 0 0 0 0 0 0 0 0 127 0" result="hardAlpha"/>
<feOffset dy="4"/>
<feGaussianBlur stdDeviation="6"/>
<feComposite in2="hardAlpha" operator="out"/>
<feColorMatrix type="matrix" values="0 0 0 0 0 0 0 0 0 0 0 0 0 0 0 0 0 0 0.05 0"/>
<feBlend mode="normal" in2="BackgroundImageFix" result="effect1_dropShadow_2404_80402"/>
<feBlend mode="normal" in="SourceGraphic" in2="effect1_dropShadow_2404_80402" result="shape"/>
</filter>
<filter id="filter2_d_2404_80402" x="447.5" y="5" width="144" height="144" filterUnits="userSpaceOnUse" color-interpolation-filters="sRGB">
<feFlood flood-opacity="0" result="BackgroundImageFix"/>
<feColorMatrix in="SourceAlpha" type="matrix" values="0 0 0 0 0 0 0 0 0 0 0 0 0 0 0 0 0 0 127 0" result="hardAlpha"/>
<feOffset dy="4"/>
<feGaussianBlur stdDeviation="6"/>
<feComposite in2="hardAlpha" operator="out"/>
<feColorMatrix type="matrix" values="0 0 0 0 0 0 0 0 0 0 0 0 0 0 0 0 0 0 0.05 0"/>
<feBlend mode="normal" in2="BackgroundImageFix" result="effect1_dropShadow_2404_80402"/>
<feBlend mode="normal" in="SourceGraphic" in2="effect1_dropShadow_2404_80402" result="shape"/>
</filter>
<filter id="filter3_d_2404_80402" x="237.5" y="215" width="144" height="144" filterUnits="userSpaceOnUse" color-interpolation-filters="sRGB">
<feFlood flood-opacity="0" result="BackgroundImageFix"/>
<feColorMatrix in="SourceAlpha" type="matrix" values="0 0 0 0 0 0 0 0 0 0 0 0 0 0 0 0 0 0 127 0" result="hardAlpha"/>
<feOffset dy="4"/>
<feGaussianBlur stdDeviation="6"/>
<feComposite in2="hardAlpha" operator="out"/>
<feColorMatrix type="matrix" values="0 0 0 0 0 0 0 0 0 0 0 0 0 0 0 0 0 0 0.05 0"/>
<feBlend mode="normal" in2="BackgroundImageFix" result="effect1_dropShadow_2404_80402"/>
<feBlend mode="normal" in="SourceGraphic" in2="effect1_dropShadow_2404_80402" result="shape"/>
</filter>
<filter id="filter4_d_2404_80402" x="27.5" y="216" width="144" height="144" filterUnits="userSpaceOnUse" color-interpolation-filters="sRGB">
<feFlood flood-opacity="0" result="BackgroundImageFix"/>
<feColorMatrix in="SourceAlpha" type="matrix" values="0 0 0 0 0 0 0 0 0 0 0 0 0 0 0 0 0 0 127 0" result="hardAlpha"/>
<feOffset dy="4"/>
<feGaussianBlur stdDeviation="6"/>
<feComposite in2="hardAlpha" operator="out"/>
<feColorMatrix type="matrix" values="0 0 0 0 0 0 0 0 0 0 0 0 0 0 0 0 0 0 0.05 0"/>
<feBlend mode="normal" in2="BackgroundImageFix" result="effect1_dropShadow_2404_80402"/>
<feBlend mode="normal" in="SourceGraphic" in2="effect1_dropShadow_2404_80402" result="shape"/>
</filter>
<linearGradient id="paint0_linear_2404_80402" x1="309.499" y1="465.75" x2="309.499" y2="494.458" gradientUnits="userSpaceOnUse">
<stop stop-color="#F5CB98"/>
<stop offset="0.513542" stop-color="#F89CB9"/>
<stop offset="1" stop-color="#D476D0"/>
</linearGradient>
<linearGradient id="paint1_linear_2404_80402" x1="288.137" y1="269" x2="329.283" y2="269" gradientUnits="userSpaceOnUse">
<stop stop-color="#365BE0"/>
<stop offset="0.508265" stop-color="#D676CF"/>
<stop offset="1" stop-color="#FFE884"/>
</linearGradient>
<linearGradient id="paint2_linear_2404_80402" x1="99.5" y1="251" x2="99.5" y2="289" gradientUnits="userSpaceOnUse">
<stop stop-color="#1CC7B6"/>
<stop offset="0.482292" stop-color="#3185D5"/>
<stop offset="1" stop-color="#6062DC"/>
</linearGradient>
<clipPath id="clip0_2404_80402">
<rect width="90" height="17.1074" fill="white" transform="translate(264.5 64.4463)"/>
</clipPath>
</defs>
</svg>
