<svg width="97" height="87" viewBox="0 0 97 87" fill="none" xmlns="http://www.w3.org/2000/svg">
<path fill-rule="evenodd" clip-rule="evenodd" d="M0.169157 1.48413C0.447952 2.19184 1.45949 8.24025 2.41812 14.9242C4.59987 30.1385 5.63709 34.2275 8.88469 40.4081C15.3277 52.6687 27.9678 62.5337 41.751 66.0594C44.777 66.8329 47.5564 67.4662 47.926 67.4662C48.994 67.4662 47.7658 57.7677 45.8629 51.1696C41.6359 36.515 33.0998 24.5047 19.4024 13.9384C17.6238 12.5666 17.869 12.6102 21.2896 14.2751C27.0964 17.1016 31.0396 19.9596 36.9157 25.6006C46.5206 34.8208 52.5568 45.2563 54.8565 56.6154L56.0718 62.6209L57.4314 58.4311C59.4259 52.2841 59.2993 42.1595 57.1505 35.8767C52.955 23.6111 41.8997 12.7996 27.3674 6.74977C21.8222 4.44149 10.0306 1.42836 3.50611 0.65345C-0.000264864 0.236688 -0.292641 0.308902 0.169157 1.48413ZM87.1373 15.6712C76.7362 17.9273 68.14 21.8583 62.5577 26.9102L59.2143 29.9362L60.6962 34.314L62.1774 38.6911L66.8275 34.1088C71.2282 29.7732 81.2269 23.145 83.3672 23.145C83.9105 23.145 82.4693 24.5397 80.1653 26.2447C70.1895 33.6256 63.3026 43.8909 62.5312 52.5286C62.4491 53.4492 62.2933 54.5183 62.092 55.6052C62.2134 55.4827 62.3389 55.3589 62.4691 55.2331C64.4207 53.3492 66.5725 52.0678 69.2147 51.2157C70.0612 50.9428 71.6443 50.6083 72.5533 50.5103C73.4302 50.4157 75.9654 50.4709 76.8125 50.603C79.2168 50.9781 81.4249 51.7953 83.3989 53.036C83.9068 52.5333 84.4043 52.0158 84.8913 51.4834C90.49 45.3621 92.8969 39.6046 94.8907 27.5614C95.6513 22.9699 96.4912 18.1682 96.7579 16.89C97.2411 14.5789 97.229 14.5667 94.4732 14.6232C92.9499 14.6547 89.6486 15.1265 87.1373 15.6712Z" fill="url(#paint0_linear_2028_74038)"/>
<path fill-rule="evenodd" clip-rule="evenodd" d="M72.5542 51.938C71.6452 52.036 70.0622 52.3705 69.2157 52.6435C66.5734 53.4955 64.4217 54.777 62.4701 56.6609C61.4723 57.6241 60.749 58.4766 60.0808 59.4769C58.6211 61.6622 57.734 63.9563 57.3171 66.6242C57.1471 67.7123 57.1469 70.3647 57.3168 71.4549C57.784 74.4533 58.8554 77.0025 60.6726 79.439C61.2846 80.2596 63.1146 82.09 63.9374 82.7047C66.6016 84.6948 69.5959 85.8581 72.8178 86.1549C73.8707 86.2518 75.8205 86.199 76.8134 86.0466C82.0836 85.2378 86.6196 82.1242 89.274 77.4933C90.7098 74.9884 91.5026 71.981 91.5026 69.0396C91.5026 64.4246 89.6764 60.0826 86.3611 56.8152C83.7318 54.2239 80.5038 52.6064 76.8134 52.0308C75.9664 51.8987 73.4312 51.8435 72.5542 51.938ZM82.5538 63.0758C82.7907 63.1475 83.15 63.4759 83.292 63.7508C83.4599 64.0755 83.4843 64.511 83.3543 64.863C83.2523 65.1392 82.5957 65.8244 78.432 70.0003C75.568 72.8727 73.5216 74.8739 73.3654 74.9551C73.0343 75.1274 72.4309 75.1378 72.1111 74.9769C71.8085 74.8246 67.0587 70.0923 66.8415 69.7268C66.7107 69.5065 66.6718 69.349 66.6718 69.0396C66.6718 68.2897 67.1961 67.7052 67.9226 67.6449C68.5979 67.5889 68.6274 67.6106 70.7607 69.7343L72.7233 71.688L76.965 67.4522C79.298 65.1225 81.2822 63.1775 81.3745 63.1299C81.73 62.9465 82.0743 62.9307 82.5538 63.0758Z" fill="url(#paint1_linear_2028_74038)"/>
<defs>
<linearGradient id="paint0_linear_2028_74038" x1="48.4993" y1="0.421875" x2="48.4993" y2="67.4662" gradientUnits="userSpaceOnUse">
<stop stop-color="#20DDCE"/>
<stop offset="0.482292" stop-color="#40AFD2"/>
<stop offset="1" stop-color="#5361E0"/>
</linearGradient>
<linearGradient id="paint1_linear_2028_74038" x1="74.346" y1="51.8906" x2="74.346" y2="86.2038" gradientUnits="userSpaceOnUse">
<stop stop-color="#20DDCE"/>
<stop offset="0.482292" stop-color="#40AFD2"/>
<stop offset="1" stop-color="#5361E0"/>
</linearGradient>
</defs>
</svg>
