<svg width="292" height="292" viewBox="0 0 292 292" fill="none" xmlns="http://www.w3.org/2000/svg">
<path d="M66.7506 223.598C69.5641 227.516 73.9694 230.992 78.3297 233.018C80.8023 234.167 83.4778 234.842 86.1547 235.308C87.54 235.551 88.9242 235.725 90.3253 235.829C90.7327 235.859 92.4372 235.648 92.6235 236.027C93.2495 237.304 87.108 236.846 86.4485 236.748C83.6654 236.34 80.8601 235.786 78.2542 234.7C73.8791 232.887 69.3988 230.003 66.3297 226.359C64.5436 224.238 62.7282 222.132 61.428 219.638C60.881 218.589 60.429 217.488 60.0896 216.357C59.8477 215.555 59.6196 214.731 59.4812 213.904C59.3795 213.293 59.5617 212.455 59.365 211.896C58.5712 212.584 58.3767 214.015 57.6061 214.791C56.6897 215.712 56.4499 214.653 56.6791 213.818C57.0467 212.493 57.6303 211.242 58.1515 209.975C58.5956 208.894 58.9009 207.404 60.3106 207.659C61.5484 207.881 62.7352 208.598 63.8858 209.068C64.6537 209.384 66.4886 209.673 66.7211 210.638C67.4523 213.647 61.8033 209.9 61.3073 209.816C61.299 210.304 61.5366 210.833 61.6112 211.325C61.7202 212.035 61.7282 212.754 61.8417 213.464C62.0566 214.804 62.4235 216.163 62.8995 217.435C63.7227 219.641 65.1256 221.894 66.7484 223.6C66.5127 223.357 67.7665 225.018 66.7484 223.6L66.7506 223.598Z" fill="#D1D5DB"/>
<path d="M209.649 38.2393C210.432 37.6899 212.578 36.9326 213.012 36.1149C212.608 35.9833 211.82 36.225 211.393 36.2726C210.714 36.344 210.036 36.3988 209.359 36.4599C208.163 36.5654 206.966 36.652 205.766 36.6834C203.911 36.7337 202.048 36.6548 200.206 36.6471C198.129 36.6372 196.059 36.4996 193.988 36.4376C192.741 36.4 191.496 36.3836 190.248 36.346C189.551 36.3234 187.641 36.5376 187.14 35.9034C186.626 35.2534 187.346 35.1748 187.869 35.1433C188.946 35.0766 190.026 35.0858 191.106 35.0552C193.362 34.991 195.617 34.9353 197.872 34.8373C200.092 34.7409 202.333 34.6586 204.554 34.6359C206.691 34.6148 209.272 34.7412 211.343 34.1799C211.13 33.7963 210.119 33.4915 209.701 33.2619C209.05 32.904 208.387 32.541 207.76 32.1387C207.318 31.8525 206.608 31.3846 206.842 30.7339C207.01 30.2716 207.706 30.151 208.127 30.2376C209.272 30.4711 210.556 31.6234 211.603 32.1586C212.849 32.794 214.103 33.4111 215.365 33.9931C216.153 34.3557 217.056 35.0139 216.356 35.9323C215.793 36.668 214.214 37.2437 213.41 37.663C212.313 38.2376 211.175 38.691 210.058 39.2282C208.64 39.9076 208.851 39.1287 209.647 38.2413C209.794 38.1394 209.399 38.5139 209.647 38.2413L209.649 38.2393Z" fill="#D1D5DB"/>
<path d="M199.052 35.6878C199.052 35.5441 199.169 35.4277 199.312 35.4277C199.456 35.4277 199.573 35.5441 199.573 35.6878H199.052ZM197.925 54.6797C197.925 53.9134 198.546 53.2922 199.312 53.2922C200.079 53.2922 200.7 53.9134 200.7 54.6797C200.7 55.446 200.079 56.0672 199.312 56.0672C198.546 56.0672 197.925 55.446 197.925 54.6797ZM199.573 35.6878V45.0537H199.052V35.6878H199.573ZM199.573 45.0537V54.6797H199.052V45.0537H199.573Z" fill="#D1D5DB"/>
<path d="M150.091 82.5854C149.541 81.802 148.784 79.6564 147.966 79.2219C147.835 79.626 148.077 80.4141 148.124 80.8411C148.196 81.5207 148.25 82.1988 148.311 82.8754C148.417 84.0715 148.504 85.2681 148.535 86.4686C148.585 88.3234 148.506 90.1868 148.499 92.0285C148.489 94.1058 148.351 96.1749 148.289 98.2459C148.252 99.4936 148.235 100.739 148.198 101.986C148.175 102.684 148.389 104.594 147.755 105.094C147.105 105.608 147.026 104.888 146.995 104.365C146.928 103.288 146.937 102.209 146.907 101.128C146.843 98.8724 146.787 96.6171 146.689 94.3626C146.592 92.1419 146.51 89.9013 146.487 87.6803C146.466 85.5436 146.593 82.9619 146.031 80.8911C145.648 81.1043 145.343 82.1156 145.113 82.5329C144.756 83.1841 144.393 83.8475 143.99 84.474C143.704 84.9162 143.236 85.6259 142.585 85.3923C142.123 85.2244 142.003 84.5282 142.089 84.1078C142.323 82.9623 143.475 81.6784 144.01 80.631C144.646 79.3853 145.263 78.1318 145.845 76.8692C146.207 76.0816 146.865 75.1788 147.784 75.8783C148.52 76.441 149.095 78.0203 149.515 78.8247C150.089 79.9218 150.543 81.0596 151.08 82.1768C151.759 83.5939 150.98 83.3836 150.093 82.5877C149.991 82.4405 150.366 82.835 150.093 82.5877L150.091 82.5854Z" fill="#D1D5DB"/>
<path d="M150.091 207.84C149.541 208.624 148.784 210.769 147.966 211.204C147.835 210.8 148.077 210.012 148.124 209.585C148.196 208.905 148.25 208.227 148.311 207.55C148.417 206.354 148.504 205.158 148.535 203.957C148.585 202.102 148.506 200.239 148.499 198.397C148.489 196.32 148.351 194.251 148.289 192.18C148.252 190.932 148.235 189.687 148.198 188.439C148.175 187.742 148.389 185.832 147.755 185.332C147.105 184.818 147.026 185.538 146.995 186.06C146.928 187.138 146.937 188.217 146.907 189.297C146.843 191.553 146.787 193.809 146.689 196.063C146.592 198.284 146.51 200.524 146.487 202.746C146.466 204.882 146.593 207.464 146.031 209.535C145.648 209.321 145.343 208.31 145.113 207.893C144.756 207.242 144.393 206.578 143.99 205.952C143.704 205.51 143.236 204.8 142.585 205.034C142.123 205.201 142.003 205.898 142.089 206.318C142.323 207.463 143.475 208.747 144.01 209.795C144.646 211.04 145.263 212.294 145.845 213.557C146.207 214.344 146.865 215.247 147.784 214.547C148.52 213.985 149.095 212.406 149.515 211.601C150.089 210.504 150.543 209.366 151.08 208.249C151.759 206.832 150.98 207.042 150.093 207.838C149.991 207.985 150.366 207.591 150.093 207.838L150.091 207.84Z" fill="#D1D5DB"/>
<g filter="url(#filter0_d_2404_81091)">
<rect x="116.061" y="223.523" width="59.6164" height="59.6164" rx="29.8082" fill="white" shape-rendering="crispEdges"/>
<path fill-rule="evenodd" clip-rule="evenodd" d="M137.781 238.396C137.63 238.517 137.614 238.632 137.638 239.429C137.692 241.243 137.903 242.481 138.336 243.532C138.98 245.096 140.018 245.8 141.681 245.802C142.323 245.803 142.934 245.677 143.467 245.434C143.606 245.371 143.724 245.324 143.729 245.329C143.807 245.407 144.201 246.433 144.369 246.994C144.806 248.458 145.091 250.543 145.093 252.289C145.093 252.607 145.108 252.921 145.127 252.987C145.203 253.262 145.538 253.367 145.73 253.176C145.846 253.059 145.866 252.969 145.866 252.534C145.867 252.132 145.939 251.211 146.009 250.717C146.224 249.197 146.694 247.779 147.338 246.706C147.419 246.572 147.489 246.458 147.493 246.452C147.498 246.446 147.586 246.51 147.69 246.594C147.793 246.679 148.022 246.817 148.199 246.901C148.763 247.169 149.309 247.283 150.038 247.283C151.25 247.284 152.12 246.916 152.743 246.141C153.596 245.079 154.02 243.431 154.093 240.894C154.126 239.743 154.186 239.799 152.953 239.826C151.639 239.855 150.768 239.957 149.868 240.187C148.293 240.589 147.315 241.295 146.89 242.334C146.626 242.982 146.524 244.134 146.708 244.394C146.793 244.514 146.987 244.571 147.121 244.515C147.177 244.492 147.34 244.344 147.485 244.185C148.154 243.452 149.017 242.799 149.952 242.317C150.279 242.148 150.336 242.128 150.463 242.143C150.662 242.165 150.799 242.304 150.799 242.483C150.799 242.685 150.726 242.76 150.347 242.951C149.393 243.43 148.686 243.939 147.974 244.658C146.944 245.699 146.158 247.054 145.712 248.559C145.575 249.02 145.594 249.037 145.462 248.329C145.13 246.536 144.489 244.878 143.685 243.729C143.007 242.761 142.347 242.091 141.468 241.479C141.128 241.243 141.005 241.104 141.005 240.956C141.005 240.758 141.096 240.642 141.301 240.577C141.404 240.545 141.537 240.612 141.955 240.908C142.959 241.618 143.542 242.204 144.135 243.099C144.259 243.285 144.398 243.47 144.445 243.509C144.566 243.612 144.768 243.608 144.897 243.499C145.02 243.396 145.051 243.282 145.096 242.771C145.182 241.801 144.94 240.801 144.468 240.179C143.982 239.537 143.043 239.007 141.863 238.707C140.958 238.477 140.066 238.373 138.768 238.346C137.882 238.328 137.866 238.329 137.781 238.396Z" fill="url(#paint0_linear_2404_81091)"/>
<path d="M131.083 263.234C130.807 263.234 130.558 263.282 130.337 263.378C130.117 263.471 129.93 263.608 129.775 263.789C129.622 263.967 129.504 264.182 129.422 264.436C129.34 264.689 129.299 264.975 129.299 265.292C129.299 265.712 129.364 266.077 129.494 266.388C129.627 266.696 129.823 266.935 130.083 267.104C130.346 267.273 130.673 267.357 131.066 267.357C131.29 267.357 131.5 267.339 131.696 267.302C131.895 267.263 132.088 267.215 132.275 267.158V267.665C132.092 267.734 131.901 267.784 131.7 267.816C131.499 267.85 131.26 267.867 130.984 267.867C130.475 267.867 130.049 267.762 129.707 267.552C129.366 267.34 129.111 267.041 128.939 266.655C128.77 266.269 128.686 265.814 128.686 265.289C128.686 264.91 128.739 264.564 128.844 264.251C128.951 263.936 129.106 263.664 129.309 263.436C129.515 263.208 129.766 263.032 130.063 262.908C130.362 262.783 130.704 262.72 131.09 262.72C131.344 262.72 131.588 262.745 131.823 262.795C132.058 262.846 132.27 262.918 132.46 263.011L132.227 263.504C132.067 263.431 131.891 263.368 131.7 263.316C131.51 263.261 131.305 263.234 131.083 263.234ZM134.931 263.977C135.25 263.977 135.524 264.048 135.753 264.189C135.981 264.331 136.156 264.529 136.277 264.785C136.398 265.039 136.458 265.335 136.458 265.676V266.028H133.866C133.872 266.469 133.982 266.805 134.194 267.035C134.407 267.266 134.706 267.381 135.092 267.381C135.329 267.381 135.539 267.359 135.722 267.316C135.904 267.273 136.094 267.209 136.29 267.124V267.624C136.101 267.709 135.912 267.77 135.725 267.809C135.54 267.848 135.321 267.867 135.068 267.867C134.707 267.867 134.392 267.794 134.122 267.648C133.855 267.5 133.648 267.283 133.499 266.997C133.351 266.712 133.277 266.363 133.277 265.95C133.277 265.545 133.344 265.196 133.479 264.902C133.616 264.605 133.807 264.376 134.054 264.217C134.303 264.057 134.595 263.977 134.931 263.977ZM134.924 264.443C134.62 264.443 134.378 264.542 134.198 264.741C134.017 264.939 133.91 265.217 133.876 265.573H135.862C135.86 265.349 135.824 265.153 135.756 264.984C135.69 264.813 135.588 264.68 135.451 264.586C135.314 264.491 135.138 264.443 134.924 264.443ZM139.34 263.977C139.415 263.977 139.494 263.981 139.576 263.991C139.658 263.997 139.731 264.008 139.795 264.021L139.723 264.549C139.662 264.533 139.593 264.52 139.518 264.511C139.442 264.502 139.372 264.497 139.305 264.497C139.155 264.497 139.012 264.528 138.877 264.59C138.745 264.649 138.629 264.736 138.528 264.85C138.428 264.962 138.349 265.098 138.292 265.258C138.235 265.415 138.206 265.591 138.206 265.785V267.799H137.634V264.045H138.107L138.168 264.737H138.192C138.27 264.598 138.364 264.471 138.473 264.357C138.583 264.241 138.71 264.148 138.853 264.08C139 264.011 139.162 263.977 139.34 263.977ZM141.927 267.402C142.02 267.402 142.116 267.394 142.214 267.378C142.313 267.362 142.393 267.342 142.454 267.319V267.761C142.388 267.791 142.296 267.816 142.177 267.836C142.06 267.857 141.946 267.867 141.834 267.867C141.636 267.867 141.455 267.833 141.293 267.765C141.131 267.694 141.001 267.575 140.903 267.408C140.807 267.242 140.759 267.011 140.759 266.717V264.491H140.225V264.213L140.762 263.991L140.988 263.176H141.331V264.045H142.43V264.491H141.331V266.7C141.331 266.935 141.385 267.11 141.492 267.227C141.601 267.343 141.746 267.402 141.927 267.402ZM143.993 264.045V267.799H143.425V264.045H143.993ZM143.716 262.641C143.81 262.641 143.89 262.672 143.956 262.734C144.024 262.793 144.058 262.887 144.058 263.015C144.058 263.14 144.024 263.234 143.956 263.295C143.89 263.357 143.81 263.388 143.716 263.388C143.618 263.388 143.536 263.357 143.469 263.295C143.405 263.234 143.374 263.14 143.374 263.015C143.374 262.887 143.405 262.793 143.469 262.734C143.536 262.672 143.618 262.641 143.716 262.641ZM147.081 264.491H146.146V267.799H145.577V264.491H144.913V264.217L145.577 264.028V263.778C145.577 263.463 145.624 263.208 145.717 263.011C145.811 262.813 145.947 262.666 146.125 262.573C146.303 262.479 146.52 262.432 146.776 262.432C146.92 262.432 147.051 262.445 147.17 262.47C147.291 262.495 147.397 262.524 147.488 262.556L147.341 263.004C147.263 262.979 147.175 262.956 147.077 262.936C146.981 262.913 146.883 262.902 146.783 262.902C146.566 262.902 146.405 262.972 146.3 263.114C146.197 263.253 146.146 263.472 146.146 263.771V264.045H147.081V264.491ZM148.337 264.045V267.799H147.769V264.045H148.337ZM148.06 262.641C148.154 262.641 148.233 262.672 148.3 262.734C148.368 262.793 148.402 262.887 148.402 263.015C148.402 263.14 148.368 263.234 148.3 263.295C148.233 263.357 148.154 263.388 148.06 263.388C147.962 263.388 147.88 263.357 147.813 263.295C147.749 263.234 147.717 263.14 147.717 263.015C147.717 262.887 147.749 262.793 147.813 262.734C147.88 262.672 147.962 262.641 148.06 262.641ZM151.253 267.867C150.915 267.867 150.617 267.798 150.359 267.658C150.101 267.519 149.901 267.307 149.757 267.021C149.613 266.736 149.541 266.376 149.541 265.943C149.541 265.488 149.616 265.117 149.767 264.83C149.92 264.54 150.13 264.325 150.397 264.186C150.664 264.047 150.968 263.977 151.308 263.977C151.495 263.977 151.676 263.996 151.849 264.035C152.025 264.072 152.169 264.118 152.281 264.176L152.109 264.652C151.995 264.606 151.863 264.565 151.712 264.528C151.564 264.492 151.424 264.473 151.294 264.473C151.034 264.473 150.817 264.529 150.644 264.641C150.472 264.753 150.343 264.918 150.257 265.134C150.172 265.351 150.13 265.618 150.13 265.936C150.13 266.239 150.171 266.499 150.253 266.713C150.338 266.928 150.462 267.092 150.627 267.206C150.793 267.318 151.001 267.374 151.25 267.374C151.448 267.374 151.628 267.354 151.787 267.313C151.947 267.269 152.092 267.219 152.222 267.162V267.669C152.097 267.733 151.956 267.782 151.801 267.816C151.648 267.85 151.466 267.867 151.253 267.867ZM154.727 263.984C155.175 263.984 155.507 264.084 155.724 264.285C155.941 264.486 156.049 264.807 156.049 265.247V267.799H155.635L155.525 267.244H155.498C155.393 267.381 155.283 267.496 155.169 267.59C155.055 267.681 154.923 267.751 154.772 267.799C154.623 267.844 154.441 267.867 154.224 267.867C153.996 267.867 153.792 267.827 153.614 267.747C153.439 267.668 153.299 267.547 153.197 267.384C153.096 267.222 153.046 267.017 153.046 266.768C153.046 266.394 153.194 266.106 153.491 265.905C153.788 265.704 154.24 265.594 154.847 265.576L155.494 265.549V265.319C155.494 264.995 155.425 264.768 155.286 264.638C155.146 264.508 154.95 264.443 154.697 264.443C154.5 264.443 154.313 264.471 154.135 264.528C153.957 264.585 153.788 264.653 153.628 264.73L153.453 264.299C153.622 264.212 153.816 264.138 154.036 264.076C154.255 264.015 154.485 263.984 154.727 263.984ZM155.488 265.95L154.916 265.973C154.448 265.992 154.118 266.068 153.926 266.203C153.734 266.338 153.638 266.528 153.638 266.775C153.638 266.989 153.703 267.148 153.834 267.251C153.964 267.354 154.136 267.405 154.351 267.405C154.684 267.405 154.957 267.313 155.169 267.128C155.381 266.943 155.488 266.665 155.488 266.295V265.95ZM158.643 267.402C158.737 267.402 158.833 267.394 158.931 267.378C159.029 267.362 159.109 267.342 159.171 267.319V267.761C159.104 267.791 159.012 267.816 158.893 267.836C158.777 267.857 158.663 267.867 158.551 267.867C158.352 267.867 158.172 267.833 158.01 267.765C157.848 267.694 157.717 267.575 157.619 267.408C157.523 267.242 157.475 267.011 157.475 266.717V264.491H156.941V264.213L157.479 263.991L157.705 263.176H158.047V264.045H159.147V264.491H158.047V266.7C158.047 266.935 158.101 267.11 158.208 267.227C158.318 267.343 158.463 267.402 158.643 267.402ZM161.587 263.977C161.906 263.977 162.18 264.048 162.408 264.189C162.637 264.331 162.811 264.529 162.932 264.785C163.053 265.039 163.114 265.335 163.114 265.676V266.028H160.521C160.528 266.469 160.638 266.805 160.85 267.035C161.063 267.266 161.362 267.381 161.747 267.381C161.985 267.381 162.195 267.359 162.378 267.316C162.56 267.273 162.75 267.209 162.946 267.124V267.624C162.757 267.709 162.568 267.77 162.381 267.809C162.196 267.848 161.977 267.867 161.724 267.867C161.363 267.867 161.048 267.794 160.778 267.648C160.511 267.5 160.303 267.283 160.155 266.997C160.007 266.712 159.932 266.363 159.932 265.95C159.932 265.545 160 265.196 160.134 264.902C160.271 264.605 160.463 264.376 160.71 264.217C160.959 264.057 161.251 263.977 161.587 263.977ZM161.58 264.443C161.276 264.443 161.034 264.542 160.854 264.741C160.673 264.939 160.566 265.217 160.532 265.573H162.518C162.516 265.349 162.48 265.153 162.412 264.984C162.346 264.813 162.244 264.68 162.107 264.586C161.97 264.491 161.794 264.443 161.58 264.443Z" fill="#374151"/>
</g>
<g filter="url(#filter1_d_2404_81091)">
<rect x="116.061" y="4.4668" width="59.6164" height="59.6164" rx="29.8082" fill="white" shape-rendering="crispEdges"/>
<g clip-path="url(#clip0_2404_81091)">
<path fill-rule="evenodd" clip-rule="evenodd" d="M160.157 33.5583C159.876 33.2254 159.499 33.0521 159.039 33.0521C158.566 33.0521 158.196 33.2529 157.934 33.6476V31.7773H157.424V36.7107H157.909V36.1564C158.171 36.5856 158.548 36.7935 159.04 36.7935C159.499 36.7935 159.876 36.6274 160.157 36.281C160.438 35.9345 160.573 35.4912 160.573 34.9228C160.573 34.3544 160.432 33.9047 160.157 33.5583ZM159.741 35.9204C159.547 36.1694 159.295 36.2951 158.976 36.2951H158.975C158.649 36.2951 158.394 36.1771 158.202 35.9275C158.011 35.6921 157.915 35.3526 157.915 34.9228C157.915 34.493 158.011 34.1537 158.202 33.9112C158.394 33.6687 158.651 33.5513 158.975 33.5513C159.299 33.5513 159.556 33.6757 159.748 33.9112C159.939 34.1466 160.035 34.4795 160.035 34.8953C160.035 35.3251 159.935 35.6714 159.741 35.9204Z" fill="#1F2937"/>
<path fill-rule="evenodd" clip-rule="evenodd" d="M133.656 31.832H136.664V32.3598H134.193V33.8754H136.408V34.4021H134.193V36.7096H133.656V31.832Z" fill="#1F2937"/>
<path fill-rule="evenodd" clip-rule="evenodd" d="M138.524 36.0873V36.7109H138.065C138.019 36.7111 137.973 36.7014 137.93 36.6823C137.887 36.6633 137.848 36.6353 137.816 36.5999L137.317 36.0586C137.284 36.0221 137.258 35.9788 137.241 35.9311C137.224 35.8835 137.215 35.8326 137.217 35.7815V31.8301H137.746V35.9331C137.747 35.9536 137.751 35.9738 137.758 35.9926C137.766 36.0114 137.777 36.0283 137.791 36.0425C137.804 36.0567 137.82 36.0678 137.838 36.0752C137.855 36.0827 137.874 36.0862 137.893 36.0857L138.524 36.0873Z" fill="#1F2937"/>
<path fill-rule="evenodd" clip-rule="evenodd" d="M141.621 33.5658C141.473 33.399 141.294 33.2673 141.097 33.1791C140.899 33.0909 140.687 33.048 140.473 33.0531C140.008 33.0531 139.625 33.2265 139.326 33.5658C139.027 33.9052 138.877 34.356 138.877 34.9239C138.877 35.4917 139.024 35.9496 139.326 36.282C139.625 36.6284 140.009 36.7946 140.473 36.7946C140.938 36.7946 141.315 36.6284 141.621 36.282C141.915 35.9496 142.07 35.4923 142.07 34.9239C142.07 34.3554 141.917 33.9057 141.621 33.5658ZM141.244 35.9285C141.053 36.1781 140.791 36.2961 140.471 36.2961C140.152 36.2961 139.891 36.1781 139.699 35.9285C139.507 35.6931 139.411 35.3537 139.411 34.9239C139.411 34.4941 139.507 34.1547 139.699 33.9123C139.89 33.6697 140.148 33.5523 140.471 33.5523C140.617 33.5471 140.761 33.5765 140.895 33.6387C141.028 33.701 141.148 33.7944 141.244 33.9123C141.436 34.1547 141.532 34.4947 141.532 34.9239C141.532 35.3531 141.436 35.6931 141.244 35.9285Z" fill="#1F2937"/>
<path fill-rule="evenodd" clip-rule="evenodd" d="M150.478 36.4407C150.222 36.6767 149.903 36.7941 149.532 36.7941C149.073 36.7941 148.708 36.628 148.427 36.2815C148.147 35.9351 148.006 35.4918 148.006 34.9234C148.006 34.3551 148.147 33.8982 148.427 33.5588C148.695 33.2259 149.066 33.0527 149.532 33.0527C149.922 33.0527 150.241 33.1707 150.496 33.3992C150.752 33.6276 150.899 33.9464 150.95 34.3486H150.42C150.392 34.1165 150.282 33.9053 150.113 33.7597C149.947 33.6205 149.743 33.5468 149.533 33.5507C149.395 33.5457 149.258 33.5756 149.133 33.6381C149.008 33.7005 148.898 33.7939 148.812 33.9107C148.632 34.1467 148.543 34.4861 148.543 34.9224C148.543 35.3586 148.632 35.6986 148.812 35.934C148.991 36.1695 149.233 36.2945 149.533 36.2945C149.746 36.2995 149.954 36.2228 150.121 36.078C150.291 35.9307 150.401 35.7169 150.427 35.4826H150.951C150.893 35.8864 150.733 36.2031 150.478 36.4407Z" fill="#1F2937"/>
<path fill-rule="evenodd" clip-rule="evenodd" d="M154.239 36.1817C154.216 36.1818 154.195 36.172 154.178 36.1547C154.162 36.1373 154.153 36.1139 154.153 36.0892L154.184 34.0939C154.184 33.4012 153.769 33.0547 152.945 33.0547C152.09 33.0547 151.643 33.4497 151.604 34.2396H152.115C152.128 33.9765 152.198 33.7963 152.326 33.6924C152.453 33.5884 152.658 33.5326 152.945 33.5326C153.214 33.5326 153.399 33.5814 153.514 33.6647C153.628 33.7481 153.686 33.9002 153.686 34.0939C153.686 34.3852 153.514 34.5443 153.169 34.5861L152.696 34.6402C151.879 34.7376 151.477 35.1045 151.477 35.7487C151.477 36.0816 151.579 36.3441 151.783 36.525C151.987 36.7058 152.275 36.7955 152.639 36.7955C153.123 36.7955 153.48 36.6093 153.71 36.2234C153.718 36.2646 153.738 36.3023 153.766 36.3317L154.065 36.6494C154.105 36.6912 154.159 36.7147 154.215 36.7149H154.524V36.1817H154.239ZM153.686 35.2967C153.686 35.6296 153.584 35.8792 153.379 36.0545C153.177 36.2319 152.924 36.3267 152.664 36.3224C152.447 36.3224 152.281 36.2738 152.172 36.1699C152.064 36.0659 152.006 35.9203 152.006 35.7335C152.002 35.6513 152.016 35.569 152.046 35.4934C152.076 35.4177 152.121 35.3503 152.179 35.2967C152.294 35.2 152.492 35.1308 152.773 35.0888L153.252 35.0266C153.443 35.0061 153.59 34.9573 153.686 34.8745V35.2967Z" fill="#1F2937"/>
<path fill-rule="evenodd" clip-rule="evenodd" d="M155.655 33.7664C155.872 33.309 156.23 33.0801 156.716 33.0801H156.89V33.6187H156.762C156.417 33.6187 156.155 33.7156 155.964 33.8958C155.772 34.0761 155.683 34.3391 155.683 34.6715V36.7089H155.17V33.1353H155.655V33.7664Z" fill="#1F2937"/>
<path fill-rule="evenodd" clip-rule="evenodd" d="M165.175 33.6693C165.424 33.2606 165.769 33.0527 166.21 33.0527C166.573 33.0527 166.858 33.1637 167.065 33.3775C167.272 33.5913 167.372 33.9042 167.372 34.2918V36.7102H166.861V34.3481C166.861 33.8214 166.605 33.5513 166.107 33.5513C165.989 33.5504 165.872 33.5757 165.764 33.6257C165.655 33.6757 165.557 33.7493 165.475 33.8419C165.29 34.0363 165.2 34.3204 165.2 34.6874V36.7108H164.689V33.1355H165.175V33.6693Z" fill="#1F2937"/>
<path fill-rule="evenodd" clip-rule="evenodd" d="M163.711 33.558C163.563 33.3911 163.384 33.2595 163.186 33.1713C162.989 33.083 162.777 33.0402 162.563 33.0453C162.099 33.0453 161.715 33.2185 161.416 33.558C161.116 33.8973 160.967 34.3482 160.967 34.916C160.967 35.4839 161.116 35.9412 161.416 36.2736C161.715 36.62 162.105 36.7868 162.563 36.7868C163.021 36.7868 163.404 36.62 163.711 36.2736C164.007 35.9412 164.16 35.4839 164.16 34.916C164.16 34.345 164.007 33.8946 163.711 33.558ZM163.336 35.9207C163.145 36.1697 162.887 36.2877 162.563 36.2877C162.24 36.2877 161.983 36.1697 161.791 35.9207C161.599 35.6847 161.504 35.3453 161.504 34.916C161.504 34.483 161.599 34.1398 161.791 33.9043C161.983 33.6689 162.238 33.5438 162.563 33.5438C162.709 33.5387 162.853 33.5684 162.987 33.6307C163.12 33.6929 163.24 33.7864 163.336 33.9043C163.528 34.1469 163.623 34.4867 163.623 34.916C163.623 35.3454 163.528 35.6847 163.336 35.9207Z" fill="#1F2937"/>
<path d="M147.457 33.1348V35.7104C147.457 36.3296 146.972 36.7941 146.373 36.7941C145.774 36.7941 145.288 36.3328 145.288 35.7104L145.287 33.7604C145.285 33.7025 145.261 33.6477 145.221 33.6074C145.18 33.5672 145.127 33.5447 145.071 33.5447C145.018 33.5447 144.968 33.5645 144.929 33.6C144.926 33.6024 144.924 33.6049 144.921 33.6074C144.919 33.6099 144.916 33.6125 144.914 33.6152C144.909 33.6202 144.905 33.6254 144.901 33.6308C144.899 33.6334 144.897 33.6361 144.895 33.639C144.871 33.6744 144.857 33.7165 144.855 33.7604L144.857 35.8538C144.858 35.9026 144.85 35.9512 144.833 35.9966C144.815 36.0421 144.789 36.0835 144.756 36.1184L144.267 36.634C144.2 36.7022 144.111 36.7402 144.017 36.74H143.508C143.414 36.7401 143.325 36.702 143.258 36.634L142.761 36.1184C142.728 36.0835 142.702 36.0421 142.684 35.9966C142.667 35.9512 142.659 35.9026 142.66 35.8538V33.1406H143.191V36.1442C143.191 36.1638 143.195 36.1833 143.203 36.2013C143.21 36.2192 143.221 36.2353 143.235 36.2489C143.249 36.2625 143.265 36.2732 143.282 36.2803C143.3 36.2873 143.319 36.2906 143.337 36.2902H144.178C144.197 36.2906 144.216 36.2873 144.233 36.2803C144.251 36.273 144.267 36.2624 144.281 36.2489C144.294 36.2353 144.305 36.2192 144.313 36.2013C144.321 36.1833 144.324 36.1638 144.325 36.1442V33.8242C144.325 33.4024 144.655 33.0859 145.064 33.0859C145.472 33.0859 145.829 33.4002 145.829 33.8242V33.9038L145.829 35.7382C145.834 35.8897 145.873 36.0332 145.979 36.1384C146.084 36.2437 146.225 36.3024 146.371 36.3024C146.517 36.3024 146.658 36.2437 146.763 36.1384C146.868 36.0332 146.919 35.8897 146.924 35.7382V33.1348H147.457Z" fill="#1F2937"/>
<path d="M126.623 31.9625C126.847 31.9625 127.029 31.7742 127.029 31.5418C127.029 31.3095 126.847 31.1211 126.623 31.1211C126.399 31.1211 126.217 31.3095 126.217 31.5418C126.217 31.7742 126.399 31.9625 126.623 31.9625Z" fill="#1F2937"/>
<path d="M126.623 33.3981C126.847 33.3981 127.029 33.2097 127.029 32.9774C127.029 32.745 126.847 32.5566 126.623 32.5566C126.399 32.5566 126.217 32.745 126.217 32.9774C126.217 33.2097 126.399 33.3981 126.623 33.3981Z" fill="#1F2937"/>
<path d="M126.623 36.0211C126.847 36.0211 127.029 35.8328 127.029 35.6004C127.029 35.3681 126.847 35.1797 126.623 35.1797C126.399 35.1797 126.217 35.3681 126.217 35.6004C126.217 35.8328 126.399 36.0211 126.623 36.0211Z" fill="#1F2937"/>
<path d="M126.623 38.693C126.847 38.693 127.029 38.5046 127.029 38.2723C127.029 38.0399 126.847 37.8516 126.623 37.8516C126.399 37.8516 126.217 38.0399 126.217 38.2723C126.217 38.5046 126.399 38.693 126.623 38.693Z" fill="#1F2937"/>
<path d="M126.605 34.6356C126.777 34.6356 126.916 34.4915 126.916 34.3139C126.916 34.1362 126.777 33.9922 126.605 33.9922C126.434 33.9922 126.295 34.1362 126.295 34.3139C126.295 34.4915 126.434 34.6356 126.605 34.6356Z" fill="#1F2937"/>
<path d="M126.605 30.5263C126.777 30.5263 126.916 30.3822 126.916 30.2045C126.916 30.0269 126.777 29.8828 126.605 29.8828C126.434 29.8828 126.295 30.0269 126.295 30.2045C126.295 30.3822 126.434 30.5263 126.605 30.5263Z" fill="#1F2937"/>
<path d="M127.846 35.2782C128.017 35.2782 128.156 35.1342 128.156 34.9565C128.156 34.7788 128.017 34.6348 127.846 34.6348C127.674 34.6348 127.535 34.7788 127.535 34.9565C127.535 35.1342 127.674 35.2782 127.846 35.2782Z" fill="#1F2937"/>
<path d="M126.605 37.2567C126.777 37.2567 126.916 37.1127 126.916 36.935C126.916 36.7573 126.777 36.6133 126.605 36.6133C126.434 36.6133 126.295 36.7573 126.295 36.935C126.295 37.1127 126.434 37.2567 126.605 37.2567Z" fill="#1F2937"/>
<path d="M127.846 31.0926C128.017 31.0926 128.156 30.9486 128.156 30.7709C128.156 30.5932 128.017 30.4492 127.846 30.4492C127.674 30.4492 127.535 30.5932 127.535 30.7709C127.535 30.9486 127.674 31.0926 127.846 31.0926Z" fill="#1F2937"/>
<path d="M129.098 35.9285C129.269 35.9285 129.408 35.7845 129.408 35.6068C129.408 35.4292 129.269 35.2852 129.098 35.2852C128.926 35.2852 128.787 35.4292 128.787 35.6068C128.787 35.7845 128.926 35.9285 129.098 35.9285Z" fill="#1F2937"/>
<path d="M129.098 31.6591C129.269 31.6591 129.408 31.515 129.408 31.3374C129.408 31.1597 129.269 31.0156 129.098 31.0156C128.926 31.0156 128.787 31.1597 128.787 31.3374C128.787 31.515 128.926 31.6591 129.098 31.6591Z" fill="#1F2937"/>
<path d="M127.834 32.6051C128.058 32.6051 128.24 32.4168 128.24 32.1844C128.24 31.952 128.058 31.7637 127.834 31.7637C127.609 31.7637 127.428 31.952 127.428 32.1844C127.428 32.4168 127.609 32.6051 127.834 32.6051Z" fill="#1F2937"/>
<path d="M127.834 34.0407C128.058 34.0407 128.24 33.8523 128.24 33.6199C128.24 33.3876 128.058 33.1992 127.834 33.1992C127.609 33.1992 127.428 33.3876 127.428 33.6199C127.428 33.8523 127.609 34.0407 127.834 34.0407Z" fill="#1F2937"/>
<path d="M129.088 33.15C129.312 33.15 129.493 32.9617 129.493 32.7293C129.493 32.497 129.312 32.3086 129.088 32.3086C128.863 32.3086 128.682 32.497 128.682 32.7293C128.682 32.9617 128.863 33.15 129.088 33.15Z" fill="#1F2937"/>
<path d="M129.088 34.6344C129.312 34.6344 129.493 34.446 129.493 34.2137C129.493 33.9813 129.312 33.793 129.088 33.793C128.863 33.793 128.682 33.9813 128.682 34.2137C128.682 34.446 128.863 34.6344 129.088 34.6344Z" fill="#1F2937"/>
<path d="M130.306 33.693C130.531 33.693 130.712 33.5046 130.712 33.2723C130.712 33.0399 130.531 32.8516 130.306 32.8516C130.082 32.8516 129.9 33.0399 129.9 33.2723C129.9 33.5046 130.082 33.693 130.306 33.693Z" fill="#1F2937"/>
<path d="M130.306 35.1793C130.531 35.1793 130.712 34.991 130.712 34.7586C130.712 34.5263 130.531 34.3379 130.306 34.3379C130.082 34.3379 129.9 34.5263 129.9 34.7586C129.9 34.991 130.082 35.1793 130.306 35.1793Z" fill="#1F2937"/>
<path d="M125.32 35.2782C125.149 35.2782 125.01 35.1342 125.01 34.9565C125.01 34.7788 125.149 34.6348 125.32 34.6348C125.492 34.6348 125.631 34.7788 125.631 34.9565C125.631 35.1342 125.492 35.2782 125.32 35.2782Z" fill="#1F2937"/>
<path d="M125.32 31.0926C125.149 31.0926 125.01 30.9486 125.01 30.7709C125.01 30.5932 125.149 30.4492 125.32 30.4492C125.492 30.4492 125.631 30.5932 125.631 30.7709C125.631 30.9486 125.492 31.0926 125.32 31.0926Z" fill="#1F2937"/>
<path d="M124.067 35.9285C123.895 35.9285 123.756 35.7845 123.756 35.6068C123.756 35.4292 123.895 35.2852 124.067 35.2852C124.238 35.2852 124.377 35.4292 124.377 35.6068C124.377 35.7845 124.238 35.9285 124.067 35.9285Z" fill="#1F2937"/>
<path d="M124.067 31.6591C123.895 31.6591 123.756 31.515 123.756 31.3374C123.756 31.1597 123.895 31.0156 124.067 31.0156C124.238 31.0156 124.377 31.1597 124.377 31.3374C124.377 31.515 124.238 31.6591 124.067 31.6591Z" fill="#1F2937"/>
<path d="M125.34 32.6051C125.116 32.6051 124.934 32.4168 124.934 32.1844C124.934 31.952 125.116 31.7637 125.34 31.7637C125.564 31.7637 125.746 31.952 125.746 32.1844C125.746 32.4168 125.564 32.6051 125.34 32.6051Z" fill="#1F2937"/>
<path d="M125.34 34.0407C125.116 34.0407 124.934 33.8523 124.934 33.6199C124.934 33.3876 125.116 33.1992 125.34 33.1992C125.564 33.1992 125.746 33.3876 125.746 33.6199C125.746 33.8523 125.564 34.0407 125.34 34.0407Z" fill="#1F2937"/>
<path d="M124.088 33.15C123.864 33.15 123.682 32.9617 123.682 32.7293C123.682 32.497 123.864 32.3086 124.088 32.3086C124.312 32.3086 124.494 32.497 124.494 32.7293C124.494 32.9617 124.312 33.15 124.088 33.15Z" fill="#1F2937"/>
<path d="M124.088 34.6344C123.864 34.6344 123.682 34.446 123.682 34.2137C123.682 33.9813 123.864 33.793 124.088 33.793C124.312 33.793 124.494 33.9813 124.494 34.2137C124.494 34.446 124.312 34.6344 124.088 34.6344Z" fill="#1F2937"/>
<path d="M122.862 33.693C122.637 33.693 122.456 33.5046 122.456 33.2723C122.456 33.0399 122.637 32.8516 122.862 32.8516C123.086 32.8516 123.268 33.0399 123.268 33.2723C123.268 33.5046 123.086 33.693 122.862 33.693Z" fill="#1F2937"/>
<path d="M122.862 35.1793C122.637 35.1793 122.456 34.991 122.456 34.7586C122.456 34.5263 122.637 34.3379 122.862 34.3379C123.086 34.3379 123.268 34.5263 123.268 34.7586C123.268 34.991 123.086 35.1793 122.862 35.1793Z" fill="#1F2937"/>
<path d="M168.554 33.4781V32.7285H168.757L168.914 33.2999H168.917L169.077 32.7285H169.282V33.4781H169.15V32.9041H169.145C169.125 32.9827 169.106 33.0535 169.087 33.1164L168.983 33.4781H168.848L168.744 33.1164L168.689 32.9041H168.683V33.4781H168.554ZM167.836 32.8517V32.7285H168.435V32.8517H168.206V33.4781H168.064V32.8517H167.836Z" fill="#1F2937"/>
</g>
</g>
<g filter="url(#filter2_d_2404_81091)">
<rect x="225.326" y="4.4668" width="59.6164" height="59.6164" rx="29.8082" fill="white" shape-rendering="crispEdges"/>
<path fill-rule="evenodd" clip-rule="evenodd" d="M259.571 16.8383C259.462 16.939 259.182 17.0173 258.733 17.073C258.483 17.104 258.045 17.1578 257.759 17.1927C257.06 17.278 256.574 17.4059 256.145 17.6181C255.608 17.8831 255.183 18.308 254.946 18.8149C254.681 19.3854 254.681 20.1517 254.947 20.7797C255.092 21.1215 255.246 21.3445 255.358 21.3741C255.652 21.452 255.826 21.2698 255.827 20.8828C255.828 20.6561 255.977 20.1081 256.117 19.8165C256.306 19.4236 256.569 19.0908 256.901 18.8272C257.19 18.597 257.598 18.3603 257.542 18.4548C257.526 18.4828 257.448 18.6014 257.37 18.7183C257.012 19.253 256.745 19.9145 256.528 20.8055C256.164 22.3052 256.033 23.3647 255.94 25.5932C255.896 26.6361 255.897 26.672 255.972 26.8423C256.083 27.0938 256.282 27.2328 256.558 27.2528C256.729 27.2651 256.815 27.2504 256.937 27.1882C257.115 27.0972 257.175 27.0209 257.406 26.587C257.582 26.2547 257.894 25.8391 258.055 25.7222L258.155 25.6489L258.391 25.8274C258.862 26.1845 259.369 26.3121 259.892 26.2054C260.578 26.0653 260.938 25.7488 261.642 24.6662C261.827 24.3817 262.029 24.0847 262.09 24.0062L262.201 23.8634L261.986 23.7262C261.869 23.6507 261.559 23.4265 261.298 23.2279C260.574 22.6769 260.284 22.531 259.786 22.4678C259.399 22.4186 259.075 22.4729 258.724 22.6462C258.242 22.8841 257.796 23.4227 257.796 23.7673C257.796 23.9198 257.888 24.0207 258.002 23.9944C258.048 23.9837 258.233 23.9404 258.414 23.898C258.835 23.7994 259.35 23.7633 259.787 23.8018L260.132 23.8322L259.791 23.8832C258.825 24.0274 258.06 24.3966 257.359 25.0566L257.052 25.3457L257.078 24.9213C257.144 23.8416 257.251 22.6994 257.316 22.384C257.335 22.2919 257.367 22.2745 257.615 22.2189C258.483 22.0247 259.289 21.173 259.647 20.0728C259.801 19.5973 259.853 19.1509 259.833 18.4539C259.817 17.8553 259.709 16.8807 259.652 16.815C259.638 16.7992 259.602 16.8097 259.571 16.8383ZM252.989 22.5414C252.594 22.6581 252.319 22.8161 251.658 23.3064C251.307 23.5669 250.99 23.8022 250.953 23.8293C250.89 23.875 250.893 23.8891 251.003 24.033C251.069 24.118 251.297 24.4567 251.511 24.7855C252.135 25.7421 252.578 26.1133 253.221 26.2174C253.96 26.3368 254.77 25.9667 255.041 25.3858C255.153 25.1473 255.155 25.0133 255.053 24.8011C254.869 24.4206 253.882 23.9774 252.989 23.8743L252.719 23.8431L252.912 23.8159C253.471 23.7368 254.19 23.8045 254.765 23.9903C255.138 24.1107 255.135 24.1106 255.241 24.0122C255.354 23.9066 255.347 23.7702 255.215 23.4919C255.004 23.0471 254.589 22.6856 254.125 22.5408C253.823 22.4468 253.309 22.447 252.989 22.5414ZM251.348 27.4022C251.065 27.4468 250.672 27.5588 250.361 27.6835C249.676 27.9583 249.504 28.1041 247.286 30.288C246.165 31.3912 245.248 32.3051 245.248 32.3187C245.248 32.3324 246.2 33.2967 247.364 34.4618L249.48 36.58L250.188 35.5162L250.895 34.4524L254.491 34.4405C258.033 34.4286 258.09 34.4272 258.342 34.3463C258.702 34.2313 259.053 34.0551 259.302 33.8648C259.419 33.7754 260.733 32.6176 262.223 31.2918C264.198 29.5347 264.944 28.8485 264.974 28.7608C265.148 28.2612 264.822 27.8742 264.128 27.7549C263.893 27.7145 263.807 27.7171 263.537 27.7729C263.363 27.8088 263.108 27.8951 262.97 27.9648C262.832 28.0345 261.646 28.8786 260.335 29.8405L257.952 31.5895H256.531H255.111L254.788 31.2643L254.465 30.939L255.908 30.9246C257.291 30.9108 257.363 30.9065 257.599 30.8225C258.415 30.5321 258.825 29.8643 258.629 29.1415C258.512 28.7087 258.191 28.3812 257.69 28.1832C257.479 28.1 257.398 28.0944 256.039 28.0689C254.453 28.0391 254.388 28.0303 253.792 27.7678C253.118 27.4708 252.656 27.3743 251.947 27.3817C251.671 27.3846 251.401 27.3938 251.348 27.4022Z" fill="#9DE2A0"/>
<path d="M247.814 48.7422H247.143L244.414 44.5367H244.386C244.393 44.6486 244.401 44.7764 244.41 44.9203C244.419 45.0618 244.426 45.2136 244.431 45.3757C244.438 45.5356 244.441 45.6988 244.441 45.8655V48.7422H243.9V43.7353H244.568L247.287 47.9271H247.311C247.306 47.8472 247.301 47.7342 247.294 47.5881C247.287 47.4397 247.28 47.281 247.273 47.1121C247.269 46.9408 247.266 46.7821 247.266 46.636V43.7353H247.814V48.7422ZM250.71 44.9271C251.157 44.9271 251.489 45.0276 251.706 45.2285C251.923 45.4294 252.031 45.7502 252.031 46.1908V48.7422H251.617L251.508 48.1874H251.48C251.375 48.3244 251.265 48.4397 251.151 48.5333C251.037 48.6246 250.905 48.6942 250.754 48.7422C250.606 48.7878 250.423 48.8107 250.206 48.8107C249.978 48.8107 249.775 48.7707 249.597 48.6908C249.421 48.6109 249.281 48.4899 249.179 48.3278C249.078 48.1657 249.028 47.9602 249.028 47.7114C249.028 47.3369 249.176 47.0493 249.473 46.8484C249.77 46.6474 250.222 46.5378 250.829 46.5196L251.477 46.4922V46.2627C251.477 45.9385 251.407 45.7114 251.268 45.5812C251.129 45.4511 250.932 45.386 250.679 45.386C250.482 45.386 250.295 45.4146 250.117 45.4716C249.939 45.5287 249.77 45.5961 249.61 45.6737L249.436 45.2422C249.605 45.1554 249.799 45.0812 250.018 45.0196C250.237 44.9579 250.468 44.9271 250.71 44.9271ZM251.47 46.8929L250.898 46.9168C250.43 46.9351 250.1 47.0116 249.908 47.1463C249.716 47.281 249.621 47.4716 249.621 47.7182C249.621 47.9328 249.686 48.0915 249.816 48.1942C249.946 48.297 250.118 48.3484 250.333 48.3484C250.666 48.3484 250.939 48.2559 251.151 48.071C251.364 47.886 251.47 47.6086 251.47 47.2388V46.8929ZM254.625 48.3449C254.719 48.3449 254.815 48.3369 254.913 48.321C255.011 48.305 255.091 48.2856 255.153 48.2627V48.7045C255.087 48.7342 254.994 48.7593 254.875 48.7799C254.759 48.8004 254.645 48.8107 254.533 48.8107C254.334 48.8107 254.154 48.7764 253.992 48.7079C253.83 48.6372 253.7 48.5184 253.601 48.3518C253.506 48.1851 253.458 47.9545 253.458 47.66V45.434H252.923V45.1566L253.461 44.934L253.687 44.1189H254.03V44.9888H255.129V45.434H254.03V47.6429C254.03 47.878 254.083 48.0538 254.191 48.1703C254.3 48.2867 254.445 48.3449 254.625 48.3449ZM259.223 44.9888V48.7422H258.757L258.675 48.2148H258.644C258.566 48.3449 258.466 48.4545 258.343 48.5436C258.219 48.6326 258.08 48.6988 257.925 48.7422C257.772 48.7878 257.609 48.8107 257.435 48.8107C257.138 48.8107 256.89 48.7627 256.689 48.6668C256.488 48.571 256.336 48.4226 256.233 48.2216C256.133 48.0207 256.082 47.7627 256.082 47.4477V44.9888H256.658V47.4066C256.658 47.7194 256.729 47.9534 256.87 48.1086C257.012 48.2616 257.227 48.3381 257.517 48.3381C257.796 48.3381 258.017 48.2856 258.182 48.1805C258.348 48.0755 258.468 47.9214 258.541 47.7182C258.614 47.5127 258.651 47.2616 258.651 46.9648V44.9888H259.223ZM262.341 44.9203C262.416 44.9203 262.495 44.9248 262.577 44.934C262.659 44.9408 262.732 44.9511 262.796 44.9648L262.724 45.4922C262.663 45.4762 262.594 45.4636 262.519 45.4545C262.444 45.4454 262.373 45.4408 262.307 45.4408C262.156 45.4408 262.013 45.4716 261.878 45.5333C261.746 45.5926 261.63 45.6794 261.529 45.7936C261.429 45.9054 261.35 46.0413 261.293 46.2011C261.236 46.3586 261.207 46.5344 261.207 46.7285V48.7422H260.635V44.9888H261.108L261.17 45.6805H261.194C261.271 45.5413 261.365 45.4146 261.474 45.3004C261.584 45.184 261.711 45.0915 261.854 45.023C262.001 44.9545 262.163 44.9203 262.341 44.9203ZM265.161 44.9203C265.48 44.9203 265.754 44.991 265.983 45.1326C266.211 45.2742 266.386 45.4728 266.507 45.7285C266.628 45.9819 266.688 46.2787 266.688 46.6189V46.9716H264.096C264.103 47.4123 264.212 47.7479 264.424 47.9785C264.637 48.2091 264.936 48.3244 265.322 48.3244C265.559 48.3244 265.769 48.3027 265.952 48.2593C266.135 48.2159 266.324 48.152 266.52 48.0675V48.5675C266.331 48.652 266.143 48.7136 265.955 48.7525C265.77 48.7913 265.551 48.8107 265.298 48.8107C264.937 48.8107 264.622 48.7376 264.353 48.5915C264.085 48.4431 263.878 48.2262 263.729 47.9408C263.581 47.6554 263.507 47.3061 263.507 46.8929C263.507 46.4888 263.574 46.1394 263.709 45.8449C263.846 45.5481 264.038 45.3198 264.284 45.16C264.533 45.0002 264.825 44.9203 265.161 44.9203ZM265.154 45.386C264.85 45.386 264.608 45.4853 264.428 45.684C264.248 45.8826 264.14 46.16 264.106 46.5162H266.092C266.09 46.2924 266.055 46.0961 265.986 45.9271C265.92 45.7559 265.818 45.6235 265.681 45.5299C265.544 45.434 265.369 45.386 265.154 45.386Z" fill="#374151"/>
</g>
<path d="M100.379 145.946C101.163 145.397 103.308 144.64 103.743 143.822C103.339 143.69 102.551 143.932 102.124 143.98C101.444 144.051 100.766 144.106 100.089 144.167C98.8934 144.272 97.6968 144.359 96.4962 144.39C94.6414 144.441 92.7781 144.362 90.9364 144.354C88.859 144.344 86.7899 144.207 84.7189 144.145C83.4713 144.107 82.2261 144.091 80.9785 144.053C80.2813 144.03 78.3711 144.245 77.8707 143.61C77.3568 142.96 78.077 142.882 78.5996 142.85C79.6766 142.784 80.756 142.793 81.8365 142.762C84.0925 142.698 86.3478 142.642 88.6023 142.544C90.8229 142.448 93.0635 142.366 95.2846 142.343C97.4213 142.322 100.003 142.448 102.074 141.887C101.861 141.503 100.849 141.198 100.432 140.969C99.7807 140.611 99.1174 140.248 98.4908 139.846C98.0486 139.559 97.339 139.092 97.5726 138.441C97.7405 137.979 98.4366 137.858 98.857 137.945C100.003 138.178 101.286 139.33 102.334 139.866C103.58 140.501 104.833 141.118 106.096 141.7C106.883 142.063 107.786 142.721 107.087 143.639C106.524 144.375 104.945 144.951 104.14 145.37C103.043 145.945 101.905 146.398 100.788 146.935C99.3709 147.615 99.5812 146.836 100.377 145.948C100.524 145.846 100.13 146.221 100.377 145.948L100.379 145.946Z" fill="#D1D5DB"/>
<g filter="url(#filter3_d_2404_81091)">
<rect x="116.061" y="113.736" width="59.6164" height="59.6164" rx="29.8082" fill="white" shape-rendering="crispEdges"/>
<path d="M154.481 131.012L145.84 126.077L137.219 131.004M154.481 131.012L145.84 136.083M154.481 131.012L154.519 140.907L145.85 145.85M145.84 136.083L137.219 131.004M145.84 136.083L145.85 145.85M137.219 131.004V140.926L145.85 145.85" stroke="url(#paint1_linear_2404_81091)" stroke-width="1.04065" stroke-miterlimit="10" stroke-linejoin="round"/>
<path d="M132.229 153.447C131.952 153.447 131.703 153.495 131.482 153.59C131.263 153.684 131.076 153.821 130.92 154.001C130.767 154.18 130.65 154.395 130.568 154.649C130.485 154.902 130.444 155.188 130.444 155.505C130.444 155.925 130.509 156.29 130.64 156.601C130.772 156.909 130.968 157.148 131.229 157.317C131.491 157.485 131.819 157.57 132.211 157.57C132.435 157.57 132.645 157.552 132.842 157.515C133.04 157.476 133.233 157.428 133.42 157.371V157.878C133.238 157.947 133.046 157.997 132.845 158.029C132.644 158.063 132.406 158.08 132.129 158.08C131.62 158.08 131.194 157.975 130.852 157.765C130.512 157.553 130.256 157.254 130.085 156.868C129.916 156.482 129.831 156.027 129.831 155.501C129.831 155.122 129.884 154.777 129.989 154.464C130.096 154.149 130.251 153.877 130.455 153.649C130.66 153.42 130.911 153.245 131.208 153.121C131.507 152.996 131.85 152.933 132.235 152.933C132.489 152.933 132.733 152.958 132.968 153.008C133.203 153.059 133.416 153.13 133.605 153.224L133.372 153.717C133.213 153.644 133.037 153.581 132.845 153.529C132.656 153.474 132.45 153.447 132.229 153.447ZM134.038 154.258H134.648L135.477 156.436C135.525 156.564 135.569 156.688 135.61 156.806C135.651 156.923 135.688 157.035 135.72 157.142C135.752 157.249 135.777 157.353 135.795 157.453H135.819C135.851 157.339 135.897 157.19 135.956 157.005C136.015 156.818 136.079 156.627 136.148 156.433L136.932 154.258H137.545L135.912 158.563C135.825 158.794 135.723 158.995 135.607 159.166C135.493 159.337 135.353 159.468 135.189 159.56C135.025 159.653 134.826 159.7 134.593 159.7C134.486 159.7 134.391 159.693 134.309 159.68C134.227 159.668 134.156 159.654 134.097 159.638V159.183C134.147 159.194 134.207 159.205 134.278 159.214C134.351 159.223 134.426 159.227 134.504 159.227C134.646 159.227 134.768 159.2 134.871 159.145C134.976 159.093 135.066 159.015 135.141 158.912C135.216 158.81 135.281 158.688 135.336 158.546L135.542 158.019L134.038 154.258ZM138.923 152.683V154.015C138.923 154.168 138.919 154.317 138.91 154.46C138.903 154.604 138.897 154.716 138.893 154.796H138.923C139.026 154.627 139.175 154.484 139.369 154.368C139.563 154.251 139.81 154.193 140.112 154.193C140.582 154.193 140.956 154.356 141.235 154.683C141.516 155.007 141.656 155.49 141.656 156.132C141.656 156.554 141.592 156.91 141.464 157.2C141.337 157.49 141.156 157.709 140.923 157.858C140.691 158.006 140.415 158.08 140.098 158.08C139.801 158.08 139.557 158.025 139.365 157.916C139.176 157.804 139.03 157.668 138.927 157.508H138.882L138.766 158.012H138.355V152.683H138.923ZM140.019 154.669C139.748 154.669 139.532 154.723 139.372 154.83C139.212 154.935 139.097 155.095 139.026 155.31C138.958 155.522 138.923 155.791 138.923 156.118V156.149C138.923 156.621 139.002 156.983 139.16 157.234C139.317 157.483 139.604 157.608 140.019 157.608C140.369 157.608 140.63 157.48 140.804 157.224C140.979 156.968 141.067 156.603 141.067 156.128C141.067 155.644 140.98 155.28 140.807 155.036C140.636 154.791 140.373 154.669 140.019 154.669ZM144.305 154.19C144.625 154.19 144.899 154.261 145.127 154.402C145.355 154.544 145.53 154.742 145.651 154.998C145.772 155.251 145.832 155.548 145.832 155.888V156.241H143.24C143.247 156.682 143.356 157.017 143.569 157.248C143.781 157.479 144.08 157.594 144.466 157.594C144.703 157.594 144.913 157.572 145.096 157.529C145.279 157.485 145.468 157.422 145.665 157.337V157.837C145.475 157.922 145.287 157.983 145.1 158.022C144.915 158.061 144.695 158.08 144.442 158.08C144.081 158.08 143.766 158.007 143.497 157.861C143.23 157.713 143.022 157.496 142.874 157.21C142.725 156.925 142.651 156.576 142.651 156.162C142.651 155.758 142.718 155.409 142.853 155.114C142.99 154.818 143.182 154.589 143.428 154.43C143.677 154.27 143.969 154.19 144.305 154.19ZM144.298 154.656C143.995 154.656 143.753 154.755 143.572 154.953C143.392 155.152 143.284 155.43 143.25 155.786H145.237C145.234 155.562 145.199 155.366 145.13 155.197C145.064 155.025 144.963 154.893 144.826 154.799C144.689 154.703 144.513 154.656 144.298 154.656ZM148.714 154.19C148.789 154.19 148.868 154.194 148.95 154.203C149.033 154.21 149.106 154.221 149.17 154.234L149.098 154.762C149.036 154.746 148.967 154.733 148.892 154.724C148.817 154.715 148.746 154.71 148.68 154.71C148.529 154.71 148.386 154.741 148.252 154.803C148.119 154.862 148.003 154.949 147.902 155.063C147.802 155.175 147.723 155.311 147.666 155.471C147.609 155.628 147.581 155.804 147.581 155.998V158.012H147.009V154.258H147.481L147.543 154.95H147.567C147.644 154.811 147.738 154.684 147.848 154.57C147.957 154.453 148.084 154.361 148.228 154.293C148.374 154.224 148.536 154.19 148.714 154.19ZM150.174 153.005H151.592C152.218 153.005 152.688 153.098 153.003 153.286C153.318 153.473 153.476 153.791 153.476 154.241C153.476 154.435 153.438 154.61 153.363 154.765C153.29 154.918 153.182 155.045 153.041 155.145C152.899 155.246 152.725 155.315 152.517 155.354V155.388C152.736 155.423 152.93 155.485 153.099 155.577C153.268 155.668 153.401 155.796 153.496 155.96C153.592 156.125 153.64 156.334 153.64 156.587C153.64 156.895 153.568 157.156 153.424 157.368C153.283 157.58 153.082 157.741 152.822 157.851C152.561 157.958 152.253 158.012 151.897 158.012H150.174V153.005ZM150.757 155.152H151.716C152.152 155.152 152.453 155.08 152.62 154.936C152.789 154.793 152.873 154.582 152.873 154.306C152.873 154.021 152.773 153.815 152.572 153.69C152.373 153.564 152.056 153.501 151.62 153.501H150.757V155.152ZM150.757 155.642V157.515H151.798C152.243 157.515 152.558 157.428 152.743 157.255C152.928 157.079 153.02 156.843 153.02 156.546C153.02 156.356 152.978 156.194 152.894 156.06C152.811 155.925 152.677 155.822 152.49 155.751C152.305 155.678 152.057 155.642 151.746 155.642H150.757ZM158.07 156.128C158.07 156.436 158.03 156.711 157.95 156.953C157.87 157.196 157.755 157.4 157.604 157.567C157.453 157.733 157.271 157.861 157.056 157.95C156.844 158.037 156.603 158.08 156.334 158.08C156.082 158.08 155.852 158.037 155.642 157.95C155.434 157.861 155.254 157.733 155.101 157.567C154.95 157.4 154.832 157.196 154.748 156.953C154.666 156.711 154.625 156.436 154.625 156.128C154.625 155.717 154.694 155.368 154.834 155.08C154.973 154.79 155.171 154.57 155.429 154.419C155.69 154.266 155.999 154.19 156.357 154.19C156.7 154.19 156.999 154.266 157.255 154.419C157.513 154.572 157.713 154.794 157.854 155.084C157.998 155.371 158.07 155.719 158.07 156.128ZM155.214 156.128C155.214 156.43 155.254 156.691 155.334 156.912C155.413 157.134 155.537 157.305 155.703 157.426C155.87 157.547 156.085 157.608 156.347 157.608C156.607 157.608 156.821 157.547 156.988 157.426C157.157 157.305 157.281 157.134 157.361 156.912C157.441 156.691 157.481 156.43 157.481 156.128C157.481 155.829 157.441 155.571 157.361 155.354C157.281 155.135 157.158 154.966 156.991 154.847C156.824 154.729 156.609 154.669 156.344 154.669C155.953 154.669 155.667 154.798 155.484 155.056C155.304 155.314 155.214 155.672 155.214 156.128ZM160.157 156.09L158.859 154.258H159.51L160.499 155.703L161.486 154.258H162.13L160.832 156.09L162.201 158.012H161.551L160.499 156.481L159.441 158.012H158.797L160.157 156.09Z" fill="#374151"/>
</g>
<g filter="url(#filter4_d_2404_81091)">
<rect x="6.79102" y="114.258" width="59.6164" height="59.6164" rx="29.8082" fill="white" shape-rendering="crispEdges"/>
<path fill-rule="evenodd" clip-rule="evenodd" d="M35.9771 126.627C34.5524 126.773 33.2633 127.374 32.2203 128.38C30.4562 130.082 29.8418 132.579 30.6169 134.897C30.8115 135.479 31.2083 136.231 31.5498 136.664C31.6163 136.748 31.6709 136.836 31.6709 136.859C31.6709 136.882 31.542 136.977 31.3845 137.071C30.9827 137.309 30.4319 137.721 29.9487 138.144C27.982 139.867 26.7276 142.577 26.7138 145.132C26.7103 145.779 26.7119 145.791 26.8254 145.962C27.2076 146.541 28.0666 146.494 28.3834 145.877C28.4466 145.754 28.4742 145.571 28.5045 145.076C28.5794 143.852 28.8349 142.869 29.3381 141.865C30.0829 140.381 31.4063 139.052 32.8799 138.309L33.1365 138.18L33.7441 138.486C35.7345 139.487 37.8998 139.413 39.8408 138.278L40.0235 138.171L40.354 138.337C41.7703 139.05 43.0008 140.273 43.7631 141.726C44.3269 142.8 44.5932 143.78 44.6735 145.076C44.7042 145.57 44.732 145.754 44.7951 145.877C45.1091 146.488 45.9429 146.544 46.3398 145.98C46.4582 145.812 46.4694 145.765 46.4826 145.385C46.5112 144.563 46.3045 143.31 45.9783 142.327C45.7802 141.73 45.2462 140.628 44.8961 140.093C44.5191 139.517 44.021 138.923 43.4654 138.386C42.9166 137.855 42.5307 137.552 41.8914 137.147L41.4728 136.882L41.7269 136.527C42.2364 135.817 42.6373 134.854 42.805 133.939C42.9005 133.418 42.8982 132.345 42.8004 131.81C42.7082 131.306 42.4517 130.532 42.2325 130.096C41.6131 128.867 40.4903 127.77 39.267 127.201C38.2534 126.729 37.0432 126.518 35.9771 126.627ZM37.312 128.461C38.2706 128.625 39.0822 129.042 39.761 129.719C40.3409 130.297 40.731 130.985 40.9703 131.851C41.0431 132.115 41.058 132.29 41.0581 132.885C41.0583 133.524 41.0464 133.646 40.9491 134.007C40.732 134.813 40.3159 135.523 39.7278 136.092C38.8359 136.954 37.8081 137.374 36.5893 137.374C35.3395 137.374 34.2461 136.912 33.374 136.015C32.8005 135.425 32.4434 134.799 32.2296 134.011C32.1299 133.643 32.1187 133.529 32.1197 132.885C32.1206 132.249 32.133 132.123 32.2304 131.761C32.8328 129.518 35.0573 128.074 37.312 128.461Z" fill="url(#paint2_linear_2404_81091)"/>
<path d="M33.123 153.526V156.766C33.123 157.12 33.0511 157.435 32.9073 157.711C32.7657 157.988 32.5511 158.206 32.2634 158.365C31.9758 158.523 31.615 158.602 31.1813 158.602C30.5625 158.602 30.0911 158.434 29.7669 158.098C29.445 157.763 29.284 157.314 29.284 156.752V153.526H29.8696V156.77C29.8696 157.194 29.9815 157.522 30.2052 157.752C30.4313 157.983 30.768 158.098 31.2155 158.098C31.5214 158.098 31.7714 158.043 31.9655 157.934C32.1618 157.822 32.3068 157.667 32.4004 157.468C32.4963 157.267 32.5443 157.035 32.5443 156.773V153.526H33.123ZM37.0047 157.506C37.0047 157.746 36.9442 157.948 36.8232 158.112C36.7044 158.274 36.5332 158.396 36.3095 158.478C36.088 158.561 35.8232 158.602 35.515 158.602C35.2524 158.602 35.0252 158.581 34.8334 158.54C34.6417 158.499 34.4739 158.441 34.33 158.365V157.841C34.483 157.917 34.6656 157.985 34.878 158.047C35.0903 158.109 35.3072 158.139 35.5287 158.139C35.8529 158.139 36.088 158.087 36.2341 157.982C36.3802 157.877 36.4533 157.734 36.4533 157.554C36.4533 157.451 36.4236 157.361 36.3643 157.283C36.3072 157.203 36.2102 157.127 36.0732 157.054C35.9362 156.978 35.7467 156.896 35.5047 156.807C35.265 156.716 35.0572 156.626 34.8814 156.537C34.7079 156.445 34.5732 156.335 34.4773 156.204C34.3837 156.074 34.3369 155.905 34.3369 155.698C34.3369 155.38 34.4647 155.137 34.7204 154.968C34.9784 154.797 35.3163 154.711 35.7341 154.711C35.9602 154.711 36.1713 154.734 36.3677 154.78C36.5663 154.823 36.7513 154.883 36.9225 154.958L36.7307 155.413C36.5755 155.347 36.4099 155.291 36.2341 155.246C36.0583 155.2 35.8791 155.177 35.6965 155.177C35.4339 155.177 35.2318 155.22 35.0903 155.307C34.951 155.394 34.8814 155.513 34.8814 155.663C34.8814 155.78 34.9134 155.876 34.9773 155.951C35.0435 156.026 35.1485 156.097 35.2923 156.163C35.4362 156.23 35.6257 156.307 35.8608 156.396C36.096 156.483 36.2992 156.573 36.4704 156.667C36.6417 156.758 36.7729 156.87 36.8643 157.002C36.9579 157.133 37.0047 157.3 37.0047 157.506ZM39.5747 154.711C39.8943 154.711 40.1683 154.782 40.3966 154.924C40.6249 155.065 40.7996 155.264 40.9206 155.52C41.0416 155.773 41.1021 156.07 41.1021 156.41V156.763H38.5096C38.5165 157.203 38.626 157.539 38.8384 157.77C39.0507 158 39.3498 158.115 39.7356 158.115C39.9731 158.115 40.1831 158.094 40.3658 158.05C40.5484 158.007 40.7379 157.943 40.9343 157.859V158.359C40.7448 158.443 40.5564 158.505 40.3692 158.543C40.1843 158.582 39.9651 158.602 39.7117 158.602C39.3509 158.602 39.0359 158.529 38.7665 158.383C38.4993 158.234 38.2916 158.017 38.1432 157.732C37.9948 157.446 37.9206 157.097 37.9206 156.684C37.9206 156.28 37.9879 155.93 38.1226 155.636C38.2596 155.339 38.4514 155.111 38.698 154.951C38.9468 154.791 39.2391 154.711 39.5747 154.711ZM39.5678 155.177C39.2642 155.177 39.0222 155.276 38.8418 155.475C38.6614 155.674 38.5541 155.951 38.5199 156.307H40.5062C40.5039 156.083 40.4685 155.887 40.4 155.718C40.3338 155.547 40.2322 155.414 40.0952 155.321C39.9582 155.225 39.7824 155.177 39.5678 155.177ZM43.9837 154.711C44.0591 154.711 44.1378 154.716 44.22 154.725C44.3022 154.732 44.3753 154.742 44.4392 154.756L44.3673 155.283C44.3056 155.267 44.2371 155.255 44.1618 155.246C44.0865 155.236 44.0157 155.232 43.9495 155.232C43.7988 155.232 43.6561 155.263 43.5214 155.324C43.389 155.384 43.2725 155.47 43.1721 155.585C43.0716 155.696 42.9929 155.832 42.9358 155.992C42.8787 156.15 42.8502 156.325 42.8502 156.52V158.533H42.2782V154.78H42.7508L42.8125 155.472H42.8365C42.9141 155.332 43.0077 155.206 43.1173 155.091C43.2269 154.975 43.3536 154.883 43.4974 154.814C43.6435 154.746 43.8056 154.711 43.9837 154.711Z" fill="#374151"/>
</g>
<defs>
<filter id="filter0_d_2404_81091" x="109.817" y="219.361" width="72.105" height="72.104" filterUnits="userSpaceOnUse" color-interpolation-filters="sRGB">
<feFlood flood-opacity="0" result="BackgroundImageFix"/>
<feColorMatrix in="SourceAlpha" type="matrix" values="0 0 0 0 0 0 0 0 0 0 0 0 0 0 0 0 0 0 127 0" result="hardAlpha"/>
<feOffset dy="2.0813"/>
<feGaussianBlur stdDeviation="3.12195"/>
<feComposite in2="hardAlpha" operator="out"/>
<feColorMatrix type="matrix" values="0 0 0 0 0 0 0 0 0 0 0 0 0 0 0 0 0 0 0.05 0"/>
<feBlend mode="normal" in2="BackgroundImageFix" result="effect1_dropShadow_2404_81091"/>
<feBlend mode="normal" in="SourceGraphic" in2="effect1_dropShadow_2404_81091" result="shape"/>
</filter>
<filter id="filter1_d_2404_81091" x="109.817" y="0.304195" width="72.105" height="72.104" filterUnits="userSpaceOnUse" color-interpolation-filters="sRGB">
<feFlood flood-opacity="0" result="BackgroundImageFix"/>
<feColorMatrix in="SourceAlpha" type="matrix" values="0 0 0 0 0 0 0 0 0 0 0 0 0 0 0 0 0 0 127 0" result="hardAlpha"/>
<feOffset dy="2.0813"/>
<feGaussianBlur stdDeviation="3.12195"/>
<feComposite in2="hardAlpha" operator="out"/>
<feColorMatrix type="matrix" values="0 0 0 0 0 0 0 0 0 0 0 0 0 0 0 0 0 0 0.05 0"/>
<feBlend mode="normal" in2="BackgroundImageFix" result="effect1_dropShadow_2404_81091"/>
<feBlend mode="normal" in="SourceGraphic" in2="effect1_dropShadow_2404_81091" result="shape"/>
</filter>
<filter id="filter2_d_2404_81091" x="219.082" y="0.304195" width="72.105" height="72.104" filterUnits="userSpaceOnUse" color-interpolation-filters="sRGB">
<feFlood flood-opacity="0" result="BackgroundImageFix"/>
<feColorMatrix in="SourceAlpha" type="matrix" values="0 0 0 0 0 0 0 0 0 0 0 0 0 0 0 0 0 0 127 0" result="hardAlpha"/>
<feOffset dy="2.0813"/>
<feGaussianBlur stdDeviation="3.12195"/>
<feComposite in2="hardAlpha" operator="out"/>
<feColorMatrix type="matrix" values="0 0 0 0 0 0 0 0 0 0 0 0 0 0 0 0 0 0 0.05 0"/>
<feBlend mode="normal" in2="BackgroundImageFix" result="effect1_dropShadow_2404_81091"/>
<feBlend mode="normal" in="SourceGraphic" in2="effect1_dropShadow_2404_81091" result="shape"/>
</filter>
<filter id="filter3_d_2404_81091" x="109.817" y="109.574" width="72.105" height="72.104" filterUnits="userSpaceOnUse" color-interpolation-filters="sRGB">
<feFlood flood-opacity="0" result="BackgroundImageFix"/>
<feColorMatrix in="SourceAlpha" type="matrix" values="0 0 0 0 0 0 0 0 0 0 0 0 0 0 0 0 0 0 127 0" result="hardAlpha"/>
<feOffset dy="2.0813"/>
<feGaussianBlur stdDeviation="3.12195"/>
<feComposite in2="hardAlpha" operator="out"/>
<feColorMatrix type="matrix" values="0 0 0 0 0 0 0 0 0 0 0 0 0 0 0 0 0 0 0.05 0"/>
<feBlend mode="normal" in2="BackgroundImageFix" result="effect1_dropShadow_2404_81091"/>
<feBlend mode="normal" in="SourceGraphic" in2="effect1_dropShadow_2404_81091" result="shape"/>
</filter>
<filter id="filter4_d_2404_81091" x="0.547113" y="110.095" width="72.105" height="72.104" filterUnits="userSpaceOnUse" color-interpolation-filters="sRGB">
<feFlood flood-opacity="0" result="BackgroundImageFix"/>
<feColorMatrix in="SourceAlpha" type="matrix" values="0 0 0 0 0 0 0 0 0 0 0 0 0 0 0 0 0 0 127 0" result="hardAlpha"/>
<feOffset dy="2.0813"/>
<feGaussianBlur stdDeviation="3.12195"/>
<feComposite in2="hardAlpha" operator="out"/>
<feColorMatrix type="matrix" values="0 0 0 0 0 0 0 0 0 0 0 0 0 0 0 0 0 0 0.05 0"/>
<feBlend mode="normal" in2="BackgroundImageFix" result="effect1_dropShadow_2404_81091"/>
<feBlend mode="normal" in="SourceGraphic" in2="effect1_dropShadow_2404_81091" result="shape"/>
</filter>
<linearGradient id="paint0_linear_2404_81091" x1="145.867" y1="238.336" x2="145.867" y2="253.273" gradientUnits="userSpaceOnUse">
<stop stop-color="#F5CB98"/>
<stop offset="0.513542" stop-color="#F89CB9"/>
<stop offset="1" stop-color="#D476D0"/>
</linearGradient>
<linearGradient id="paint1_linear_2404_81091" x1="134.753" y1="135.963" x2="156.163" y2="135.963" gradientUnits="userSpaceOnUse">
<stop stop-color="#365BE0"/>
<stop offset="0.508265" stop-color="#D676CF"/>
<stop offset="1" stop-color="#FFE884"/>
</linearGradient>
<linearGradient id="paint2_linear_2404_81091" x1="36.5991" y1="126.599" x2="36.5991" y2="146.371" gradientUnits="userSpaceOnUse">
<stop stop-color="#1CC7B6"/>
<stop offset="0.482292" stop-color="#3185D5"/>
<stop offset="1" stop-color="#6062DC"/>
</linearGradient>
<clipPath id="clip0_2404_81091">
<rect width="46.8293" height="8.90143" fill="white" transform="translate(122.455 29.8242)"/>
</clipPath>
</defs>
</svg>
