<svg width="191" height="179" viewBox="0 0 191 179" fill="none" xmlns="http://www.w3.org/2000/svg">
<g filter="url(#filter0_d_2404_80991)">
<rect x="8.5" y="5.70117" width="68" height="68" rx="34" fill="white" shape-rendering="crispEdges"/>
<path fill-rule="evenodd" clip-rule="evenodd" d="M41.9367 19.1868C40.7033 19.4578 39.8287 20.5592 39.8305 21.8392C39.8317 22.622 40.0707 23.2149 40.6045 23.7591C41.8339 25.0124 43.8218 24.7966 44.7727 23.3065C45.0501 22.8718 45.1742 22.4279 45.1727 21.8763C45.1712 21.3246 45.1134 21.0568 44.9014 20.6173C44.5625 19.9147 43.8343 19.3535 43.0415 19.1838C42.6043 19.0903 42.3729 19.0909 41.9367 19.1868ZM39.8498 26.3515C38.7094 26.5286 37.7744 27.4379 37.5729 28.566C37.5372 28.7658 37.5176 30.0556 37.5176 32.2049C37.5176 35.7989 37.5134 35.7405 37.7898 36.0455C37.9418 36.2133 38.2729 36.3627 38.4959 36.3641C38.7442 36.3657 39.098 36.1718 39.2874 35.9303L39.4445 35.73L39.458 33.1665C39.4655 31.7567 39.4829 30.5519 39.4967 30.4893C39.5275 30.3497 39.6872 30.291 39.828 30.3675C39.9324 30.4242 39.9327 30.439 39.9327 36.6816C39.9327 42.2207 39.9418 42.9612 40.0125 43.1328C40.3332 43.912 41.367 44.0948 41.9468 43.4749C42.2518 43.1489 42.245 43.233 42.245 39.7341C42.245 36.8901 42.2541 36.5199 42.3257 36.4472C42.4238 36.3477 42.5724 36.3411 42.6476 36.4331C42.6855 36.4795 42.7077 37.5109 42.7181 39.7052C42.733 42.8742 42.7344 42.9118 42.8441 43.1181C42.9721 43.3589 43.1805 43.5685 43.4012 43.6783C43.9532 43.9531 44.6587 43.7122 44.9517 43.149L45.0712 42.9192V36.7041C45.0712 30.7492 45.0752 30.4854 45.1652 30.4027C45.2761 30.3008 45.3866 30.2922 45.472 30.3789C45.5183 30.4259 45.5337 31.0624 45.534 32.921C45.5341 34.4212 45.5546 35.4751 45.5859 35.5892C45.6672 35.8865 45.8491 36.1206 46.0974 36.2479C46.5911 36.5011 47.1495 36.2925 47.3892 35.7656C47.4783 35.5696 47.4841 35.3523 47.4844 32.1675C47.4848 28.462 47.4823 28.425 47.1832 27.8238C46.8749 27.2041 46.2612 26.6738 45.5888 26.4459C45.261 26.3348 45.1758 26.3312 42.6818 26.3211C41.2687 26.3154 39.9943 26.3291 39.8498 26.3515Z" fill="#9498FF"/>
<path d="M37.2756 55.7363L38.6311 53.1309H39.6428L37.7444 56.623V58.8418H36.8108V56.6582L34.9084 53.1309H35.928L37.2756 55.7363ZM44.3672 56.6699C44.3672 57.0293 44.3203 57.3483 44.2266 57.627C44.1328 57.9056 43.9961 58.1413 43.8164 58.334C43.6367 58.5241 43.4206 58.6699 43.168 58.7715C42.9154 58.8704 42.6302 58.9199 42.3125 58.9199C42.0156 58.9199 41.7435 58.8704 41.4961 58.7715C41.2487 58.6699 41.0339 58.5241 40.8516 58.334C40.6719 58.1413 40.5326 57.9056 40.4336 57.627C40.3346 57.3483 40.2852 57.0293 40.2852 56.6699C40.2852 56.1934 40.3672 55.7897 40.5312 55.459C40.6979 55.1257 40.9349 54.8717 41.2422 54.6973C41.5495 54.5228 41.9154 54.4355 42.3398 54.4355C42.7383 54.4355 43.0898 54.5228 43.3945 54.6973C43.6992 54.8717 43.9375 55.1257 44.1094 55.459C44.2812 55.7923 44.3672 56.196 44.3672 56.6699ZM41.2305 56.6699C41.2305 56.985 41.2682 57.2546 41.3438 57.4785C41.4219 57.7025 41.5417 57.8743 41.7031 57.9941C41.8646 58.1113 42.0729 58.1699 42.3281 58.1699C42.5833 58.1699 42.7917 58.1113 42.9531 57.9941C43.1146 57.8743 43.2331 57.7025 43.3086 57.4785C43.3841 57.2546 43.4219 56.985 43.4219 56.6699C43.4219 56.3548 43.3841 56.0879 43.3086 55.8691C43.2331 55.6478 43.1146 55.4798 42.9531 55.3652C42.7917 55.248 42.582 55.1895 42.3242 55.1895C41.944 55.1895 41.6667 55.3171 41.4922 55.5723C41.3177 55.8275 41.2305 56.1934 41.2305 56.6699ZM49.4314 54.5176V58.8418H48.7087L48.5837 58.2598H48.533C48.4418 58.4082 48.3259 58.5319 48.1853 58.6309C48.0447 58.7272 47.8884 58.7988 47.7166 58.8457C47.5447 58.8952 47.3637 58.9199 47.1736 58.9199C46.8481 58.9199 46.5694 58.8652 46.3377 58.7559C46.1085 58.6439 45.9327 58.472 45.8103 58.2402C45.6879 58.0085 45.6267 57.709 45.6267 57.3418V54.5176H46.5486V57.1699C46.5486 57.5059 46.6163 57.7572 46.7517 57.9238C46.8897 58.0905 47.1033 58.1738 47.3923 58.1738C47.671 58.1738 47.8923 58.1165 48.0564 58.002C48.2205 57.8874 48.3364 57.7181 48.4041 57.4941C48.4744 57.2702 48.5095 56.9954 48.5095 56.6699V54.5176H49.4314Z" fill="#374151"/>
</g>
<path d="M102.165 42.1082C102.84 41.6284 104.689 40.967 105.063 40.253C104.715 40.1381 104.036 40.3491 103.668 40.3907C103.083 40.4531 102.499 40.5009 101.916 40.5543C100.885 40.6464 99.8543 40.722 98.82 40.7495C97.222 40.7933 95.6167 40.7244 94.03 40.7177C92.2403 40.7091 90.4577 40.5889 88.6735 40.5348C87.5986 40.502 86.5259 40.4877 85.451 40.4548C84.8503 40.4351 83.2047 40.6221 82.7735 40.0683C82.3308 39.5007 82.9512 39.432 83.4015 39.4045C84.3294 39.3462 85.2593 39.3543 86.1902 39.3275C88.1338 39.2715 90.0768 39.2228 92.0191 39.1373C93.9323 39.053 95.8626 38.9812 97.7761 38.9614C99.6169 38.9429 101.841 39.0533 103.625 38.5631C103.441 38.2282 102.57 37.9619 102.211 37.7615C101.65 37.449 101.078 37.1319 100.538 36.7806C100.157 36.5306 99.546 36.122 99.7473 35.5538C99.8919 35.15 100.492 35.0447 100.854 35.1203C101.841 35.3243 102.947 36.3306 103.849 36.7979C104.922 37.3528 106.002 37.8917 107.09 38.4C107.769 38.7167 108.546 39.2915 107.944 40.0935C107.459 40.736 106.098 41.2387 105.405 41.6049C104.46 42.1067 103.48 42.5027 102.518 42.9718C101.297 43.5651 101.478 42.8849 102.164 42.1099C102.29 42.021 101.95 42.3481 102.164 42.1099L102.165 42.1082Z" fill="#D1D5DB"/>
<g filter="url(#filter1_d_2404_80991)">
<rect x="114.5" y="5.70117" width="68" height="68" rx="34" fill="white" shape-rendering="crispEdges"/>
<path d="M139.66 44.4014H144.154V28.6727H139.66V44.4014Z" fill="#EC88E0"/>
<path d="M146.401 44.4014H150.895V24.1788H146.401V44.4014Z" fill="#EC88E0"/>
<path d="M153.142 44.4014H157.636V18.5614H153.142V44.4014Z" fill="#EC88E0"/>
<path d="M127.695 55.6738H129.257V56.3691H127.695V57.9473H126.999V56.3691H125.441V55.6738H126.999V54.0801H127.695V55.6738ZM135.26 58.8418H134.339V55.166C134.339 55.0436 134.34 54.9212 134.342 54.7988C134.345 54.6764 134.348 54.5566 134.35 54.4395C134.356 54.3223 134.362 54.2103 134.37 54.1035C134.315 54.1634 134.247 54.2285 134.167 54.2988C134.089 54.3691 134.005 54.4421 133.917 54.5176L133.26 55.041L132.8 54.459L134.495 53.1309H135.26V58.8418ZM141.604 58.1777C141.724 58.1777 141.842 58.1673 141.959 58.1465C142.076 58.123 142.183 58.0957 142.28 58.0645V58.7598C142.178 58.804 142.046 58.8418 141.885 58.873C141.724 58.9043 141.556 58.9199 141.381 58.9199C141.136 58.9199 140.916 58.8796 140.721 58.7988C140.526 58.7155 140.371 58.5736 140.256 58.373C140.142 58.1725 140.084 57.8952 140.084 57.541V55.2168H139.494V54.8066L140.127 54.4824L140.428 53.5566H141.006V54.5176H142.244V55.2168H141.006V57.5293C141.006 57.748 141.061 57.9108 141.17 58.0176C141.28 58.1243 141.424 58.1777 141.604 58.1777ZM147.227 56.6699C147.227 57.0293 147.18 57.3483 147.086 57.627C146.992 57.9056 146.855 58.1413 146.676 58.334C146.496 58.5241 146.28 58.6699 146.027 58.7715C145.775 58.8704 145.49 58.9199 145.172 58.9199C144.875 58.9199 144.603 58.8704 144.355 58.7715C144.108 58.6699 143.893 58.5241 143.711 58.334C143.531 58.1413 143.392 57.9056 143.293 57.627C143.194 57.3483 143.145 57.0293 143.145 56.6699C143.145 56.1934 143.227 55.7897 143.391 55.459C143.557 55.1257 143.794 54.8717 144.102 54.6973C144.409 54.5228 144.775 54.4355 145.199 54.4355C145.598 54.4355 145.949 54.5228 146.254 54.6973C146.559 54.8717 146.797 55.1257 146.969 55.459C147.141 55.7923 147.227 56.196 147.227 56.6699ZM144.09 56.6699C144.09 56.985 144.128 57.2546 144.203 57.4785C144.281 57.7025 144.401 57.8743 144.562 57.9941C144.724 58.1113 144.932 58.1699 145.188 58.1699C145.443 58.1699 145.651 58.1113 145.812 57.9941C145.974 57.8743 146.092 57.7025 146.168 57.4785C146.243 57.2546 146.281 56.985 146.281 56.6699C146.281 56.3548 146.243 56.0879 146.168 55.8691C146.092 55.6478 145.974 55.4798 145.812 55.3652C145.651 55.248 145.441 55.1895 145.184 55.1895C144.803 55.1895 144.526 55.3171 144.352 55.5723C144.177 55.8275 144.09 56.1934 144.09 56.6699ZM150.775 54.4355C151.262 54.4355 151.641 54.5618 151.912 54.8145C152.185 55.0645 152.322 55.4668 152.322 56.0215V58.8418H151.404V56.1934C151.404 55.8574 151.335 55.6061 151.197 55.4395C151.059 55.2702 150.845 55.1855 150.556 55.1855C150.137 55.1855 149.845 55.3145 149.681 55.5723C149.52 55.8301 149.439 56.2038 149.439 56.6934V58.8418H148.521V54.5176H149.236L149.365 55.1035H149.416C149.51 54.9525 149.625 54.8288 149.763 54.7324C149.904 54.6335 150.06 54.5592 150.232 54.5098C150.407 54.4603 150.588 54.4355 150.775 54.4355ZM158.693 53.8457C158.419 53.8457 158.174 53.8952 157.958 53.9941C157.745 54.0931 157.564 54.2363 157.415 54.4238C157.267 54.6087 157.154 54.834 157.075 55.0996C156.997 55.3626 156.958 55.6595 156.958 55.9902C156.958 56.4329 157.021 56.8145 157.146 57.1348C157.271 57.4525 157.461 57.6973 157.716 57.8691C157.971 58.0384 158.294 58.123 158.685 58.123C158.927 58.123 159.163 58.0996 159.392 58.0527C159.621 58.0059 159.858 57.9421 160.103 57.8613V58.6582C159.871 58.7493 159.637 58.8158 159.4 58.8574C159.163 58.8991 158.889 58.9199 158.579 58.9199C157.996 58.9199 157.512 58.7988 157.126 58.5566C156.743 58.3145 156.457 57.9733 156.267 57.5332C156.079 57.0931 155.986 56.5775 155.986 55.9863C155.986 55.554 156.046 55.1582 156.165 54.7988C156.285 54.4395 156.46 54.1296 156.689 53.8691C156.918 53.6061 157.2 53.4043 157.536 53.2637C157.875 53.1204 158.262 53.0488 158.697 53.0488C158.983 53.0488 159.264 53.0814 159.54 53.1465C159.819 53.209 160.077 53.2988 160.314 53.416L159.986 54.1895C159.788 54.0957 159.581 54.015 159.365 53.9473C159.148 53.8796 158.924 53.8457 158.693 53.8457ZM166.64 55.9785C166.64 56.4186 166.584 56.8197 166.472 57.1816C166.362 57.541 166.197 57.8509 165.976 58.1113C165.754 58.3691 165.477 58.5684 165.144 58.709C164.81 58.8496 164.42 58.9199 163.972 58.9199C163.516 58.9199 163.12 58.8496 162.784 58.709C162.451 58.5684 162.174 58.3678 161.952 58.1074C161.733 57.847 161.569 57.5358 161.46 57.1738C161.351 56.8118 161.296 56.4108 161.296 55.9707C161.296 55.3822 161.392 54.8691 161.585 54.4316C161.78 53.9915 162.076 53.6504 162.472 53.4082C162.87 53.1634 163.373 53.041 163.98 53.041C164.573 53.041 165.067 53.1621 165.46 53.4043C165.853 53.6465 166.147 53.9876 166.343 54.4277C166.541 54.8652 166.64 55.3822 166.64 55.9785ZM162.28 55.9785C162.28 56.4186 162.34 56.8001 162.46 57.123C162.58 57.4434 162.763 57.6908 163.011 57.8652C163.261 58.0371 163.581 58.123 163.972 58.123C164.365 58.123 164.685 58.0371 164.933 57.8652C165.18 57.6908 165.362 57.4434 165.48 57.123C165.597 56.8001 165.655 56.4186 165.655 55.9785C165.655 55.3092 165.521 54.7858 165.253 54.4082C164.987 54.028 164.563 53.8379 163.98 53.8379C163.589 53.8379 163.267 53.9238 163.015 54.0957C162.765 54.2676 162.58 54.5137 162.46 54.834C162.34 55.1517 162.28 55.5332 162.28 55.9785ZM171.583 58.8418H167.716V58.1504L169.196 56.6504C169.483 56.3587 169.718 56.1074 169.903 55.8965C170.088 55.6829 170.225 55.4811 170.313 55.291C170.404 55.1009 170.45 54.8939 170.45 54.6699C170.45 54.3939 170.371 54.1855 170.212 54.0449C170.053 53.9017 169.843 53.8301 169.583 53.8301C169.335 53.8301 169.106 53.8796 168.895 53.9785C168.687 54.0749 168.471 54.2129 168.247 54.3926L167.743 53.7871C167.902 53.6517 168.071 53.528 168.251 53.416C168.433 53.304 168.636 53.2155 168.86 53.1504C169.084 53.0827 169.339 53.0488 169.626 53.0488C169.988 53.0488 170.3 53.1139 170.563 53.2441C170.826 53.3717 171.028 53.5501 171.169 53.7793C171.312 54.0085 171.384 54.2754 171.384 54.5801C171.384 54.8874 171.322 55.1712 171.2 55.4316C171.078 55.6921 170.903 55.9499 170.677 56.2051C170.45 56.4577 170.18 56.7324 169.868 57.0293L168.88 57.9941V58.0371H171.583V58.8418Z" fill="#EB46B3"/>
</g>
<path d="M83.8451 91.6638C83.569 92.3297 82.5082 93.6731 82.5642 94.372C82.8758 94.2951 83.2803 93.8251 83.5335 93.624C83.9381 93.3067 84.3487 93.0007 84.7557 92.6912C85.4761 92.1458 86.2047 91.6123 86.9582 91.1126C88.1217 90.3396 89.3433 89.6462 90.5221 88.9156C91.8521 88.0923 93.6204 86.8949 94.9677 86.1076C94.9677 86.1076 102.918 80.794 103.729 80.3199C104.184 80.056 109.626 76.5023 110.204 76.7099C110.797 76.9223 110.369 77.2605 110.048 77.4894C109.388 77.9624 104.385 81.0407 103.708 81.4919C102.294 82.4341 94.149 88.1829 92.7498 89.1462C91.3716 90.095 89.9749 91.0426 88.5664 91.9443C87.2111 92.8111 85.5116 93.761 84.4186 94.9486C84.7111 95.1099 85.4809 94.9018 85.8409 94.8827C86.4024 94.8525 86.9739 94.8209 87.5379 94.8291C87.9368 94.8364 88.5806 94.8536 88.6967 95.365C88.778 95.729 88.3829 96.0845 88.0792 96.1968C87.2528 96.5042 85.9634 96.2767 85.0766 96.3511C84.0224 96.4404 82.9707 96.5445 81.9274 96.6748C81.2768 96.7564 80.4322 96.694 80.5043 95.8246C80.5635 95.1272 81.3369 94.1266 81.6795 93.536C82.1455 92.7287 82.687 91.9829 83.1811 91.1916C83.8088 90.1892 83.9921 90.7736 83.8458 91.6617C83.8925 91.3877 83.7933 91.7859 83.8458 91.6617L83.8451 91.6638Z" fill="#D1D5DB"/>
<g filter="url(#filter2_d_2404_80991)">
<rect x="8.5" y="99.7012" width="68" height="68" rx="34" fill="white" shape-rendering="crispEdges"/>
<path d="M34.0002 133.3H37.7402V138.06H34.0002V133.3ZM40.6302 133.3H44.3702V138.06H40.6302V133.3ZM47.2602 133.3H51.0002V138.06H47.2602V133.3Z" fill="#9CA3AF" stroke="#9CA3AF" stroke-width="0.68"/>
<path d="M26.8603 149.982C26.8603 150.443 26.8239 150.856 26.7509 151.221C26.6806 151.583 26.5686 151.89 26.415 152.143C26.2614 152.395 26.0608 152.588 25.8134 152.721C25.566 152.854 25.2666 152.92 24.915 152.92C24.4749 152.92 24.1116 152.804 23.8252 152.572C23.5387 152.338 23.3265 152.002 23.1884 151.564C23.0504 151.124 22.9814 150.597 22.9814 149.982C22.9814 149.368 23.0439 148.842 23.1689 148.404C23.2965 147.964 23.5022 147.627 23.7861 147.393C24.0699 147.158 24.4463 147.041 24.915 147.041C25.3577 147.041 25.7223 147.158 26.0088 147.393C26.2978 147.624 26.5114 147.96 26.6494 148.4C26.79 148.838 26.8603 149.365 26.8603 149.982ZM23.9072 149.982C23.9072 150.464 23.9384 150.867 24.0009 151.189C24.066 151.512 24.1728 151.755 24.3213 151.916C24.4697 152.075 24.6676 152.154 24.915 152.154C25.1624 152.154 25.3603 152.075 25.5088 151.916C25.6572 151.757 25.764 151.516 25.8291 151.193C25.8968 150.87 25.9306 150.467 25.9306 149.982C25.9306 149.503 25.8981 149.102 25.833 148.779C25.7679 148.456 25.6611 148.214 25.5127 148.053C25.3642 147.889 25.165 147.807 24.915 147.807C24.665 147.807 24.4658 147.889 24.3173 148.053C24.1715 148.214 24.066 148.456 24.0009 148.779C23.9384 149.102 23.9072 149.503 23.9072 149.982ZM32.0356 152.178C32.1554 152.178 32.2739 152.167 32.3911 152.146C32.5083 152.123 32.6151 152.096 32.7114 152.064V152.76C32.6098 152.804 32.4783 152.842 32.3169 152.873C32.1554 152.904 31.9874 152.92 31.813 152.92C31.5682 152.92 31.3481 152.88 31.1528 152.799C30.9575 152.715 30.8026 152.574 30.688 152.373C30.5734 152.173 30.5161 151.895 30.5161 151.541V149.217H29.9263V148.807L30.5591 148.482L30.8598 147.557H31.438V148.518H32.6763V149.217H31.438V151.529C31.438 151.748 31.4927 151.911 31.602 152.018C31.7114 152.124 31.8559 152.178 32.0356 152.178ZM37.6584 150.67C37.6584 151.029 37.6116 151.348 37.5178 151.627C37.4241 151.906 37.2873 152.141 37.1077 152.334C36.928 152.524 36.7118 152.67 36.4592 152.771C36.2066 152.87 35.9215 152.92 35.6038 152.92C35.3069 152.92 35.0347 152.87 34.7873 152.771C34.5399 152.67 34.3251 152.524 34.1428 152.334C33.9631 152.141 33.8238 151.906 33.7248 151.627C33.6259 151.348 33.5764 151.029 33.5764 150.67C33.5764 150.193 33.6584 149.79 33.8225 149.459C33.9892 149.126 34.2261 148.872 34.5334 148.697C34.8407 148.523 35.2066 148.436 35.6311 148.436C36.0295 148.436 36.3811 148.523 36.6858 148.697C36.9905 148.872 37.2288 149.126 37.4006 149.459C37.5725 149.792 37.6584 150.196 37.6584 150.67ZM34.5217 150.67C34.5217 150.985 34.5595 151.255 34.635 151.479C34.7131 151.702 34.8329 151.874 34.9944 151.994C35.1558 152.111 35.3642 152.17 35.6194 152.17C35.8746 152.17 36.0829 152.111 36.2444 151.994C36.4058 151.874 36.5243 151.702 36.5998 151.479C36.6754 151.255 36.7131 150.985 36.7131 150.67C36.7131 150.355 36.6754 150.088 36.5998 149.869C36.5243 149.648 36.4058 149.48 36.2444 149.365C36.0829 149.248 35.8733 149.189 35.6155 149.189C35.2353 149.189 34.9579 149.317 34.7834 149.572C34.609 149.827 34.5217 150.193 34.5217 150.67ZM41.207 148.436C41.694 148.436 42.0729 148.562 42.3438 148.814C42.6172 149.064 42.7539 149.467 42.7539 150.021V152.842H41.8359V150.193C41.8359 149.857 41.7669 149.606 41.6289 149.439C41.4909 149.27 41.2773 149.186 40.9883 149.186C40.569 149.186 40.2773 149.314 40.1133 149.572C39.9518 149.83 39.8711 150.204 39.8711 150.693V152.842H38.9531V148.518H39.668L39.7969 149.104H39.8477C39.9414 148.952 40.0573 148.829 40.1953 148.732C40.3359 148.633 40.4922 148.559 40.6641 148.51C40.8385 148.46 41.0195 148.436 41.207 148.436ZM49.1245 147.846C48.8511 147.846 48.6063 147.895 48.3902 147.994C48.1766 148.093 47.9956 148.236 47.8472 148.424C47.6988 148.609 47.5855 148.834 47.5073 149.1C47.4292 149.363 47.3902 149.66 47.3902 149.99C47.3902 150.433 47.4527 150.814 47.5777 151.135C47.7027 151.452 47.8928 151.697 48.148 151.869C48.4032 152.038 48.7261 152.123 49.1167 152.123C49.3589 152.123 49.5946 152.1 49.8238 152.053C50.0529 152.006 50.2899 151.942 50.5347 151.861V152.658C50.3029 152.749 50.0685 152.816 49.8316 152.857C49.5946 152.899 49.3211 152.92 49.0113 152.92C48.4279 152.92 47.9435 152.799 47.5581 152.557C47.1753 152.314 46.8889 151.973 46.6988 151.533C46.5113 151.093 46.4175 150.577 46.4175 149.986C46.4175 149.554 46.4774 149.158 46.5972 148.799C46.717 148.439 46.8915 148.13 47.1206 147.869C47.3498 147.606 47.6323 147.404 47.9683 147.264C48.3068 147.12 48.6935 147.049 49.1284 147.049C49.4149 147.049 49.6961 147.081 49.9722 147.146C50.2508 147.209 50.5086 147.299 50.7456 147.416L50.4175 148.189C50.2196 148.096 50.0126 148.015 49.7964 147.947C49.5803 147.88 49.3563 147.846 49.1245 147.846ZM57.0716 149.979C57.0716 150.419 57.0156 150.82 56.9036 151.182C56.7942 151.541 56.6289 151.851 56.4075 152.111C56.1861 152.369 55.9088 152.568 55.5755 152.709C55.2421 152.85 54.8515 152.92 54.4036 152.92C53.9479 152.92 53.552 152.85 53.2161 152.709C52.8828 152.568 52.6054 152.368 52.3841 152.107C52.1653 151.847 52.0013 151.536 51.8919 151.174C51.7825 150.812 51.7278 150.411 51.7278 149.971C51.7278 149.382 51.8242 148.869 52.0169 148.432C52.2122 147.992 52.5078 147.65 52.9036 147.408C53.302 147.163 53.8046 147.041 54.4114 147.041C55.0052 147.041 55.4986 147.162 55.8919 147.404C56.2851 147.646 56.5794 147.988 56.7747 148.428C56.9726 148.865 57.0716 149.382 57.0716 149.979ZM52.7122 149.979C52.7122 150.419 52.7721 150.8 52.8919 151.123C53.0117 151.443 53.1953 151.691 53.4427 151.865C53.6927 152.037 54.013 152.123 54.4036 152.123C54.7968 152.123 55.1171 152.037 55.3645 151.865C55.6119 151.691 55.7942 151.443 55.9114 151.123C56.0286 150.8 56.0872 150.419 56.0872 149.979C56.0872 149.309 55.9531 148.786 55.6848 148.408C55.4192 148.028 54.9947 147.838 54.4114 147.838C54.0208 147.838 53.6992 147.924 53.4466 148.096C53.1966 148.268 53.0117 148.514 52.8919 148.834C52.7721 149.152 52.7122 149.533 52.7122 149.979ZM62.0147 152.842H58.1475V152.15L59.628 150.65C59.9144 150.359 60.1501 150.107 60.335 149.896C60.5199 149.683 60.6566 149.481 60.7452 149.291C60.8363 149.101 60.8819 148.894 60.8819 148.67C60.8819 148.394 60.8024 148.186 60.6436 148.045C60.4847 147.902 60.2751 147.83 60.0147 147.83C59.7673 147.83 59.5381 147.88 59.3272 147.979C59.1189 148.075 58.9027 148.213 58.6787 148.393L58.1748 147.787C58.3337 147.652 58.503 147.528 58.6827 147.416C58.8649 147.304 59.0681 147.215 59.292 147.15C59.516 147.083 59.7712 147.049 60.0577 147.049C60.4196 147.049 60.7321 147.114 60.9952 147.244C61.2582 147.372 61.46 147.55 61.6006 147.779C61.7439 148.008 61.8155 148.275 61.8155 148.58C61.8155 148.887 61.7543 149.171 61.6319 149.432C61.5095 149.692 61.335 149.95 61.1084 150.205C60.8819 150.458 60.6123 150.732 60.2998 151.029L59.3116 151.994V152.037H62.0147V152.842Z" fill="#6B7280"/>
</g>
<path d="M102.165 136.108C102.84 135.628 104.689 134.967 105.063 134.253C104.715 134.138 104.036 134.349 103.668 134.391C103.083 134.453 102.499 134.501 101.916 134.554C100.885 134.646 99.8543 134.722 98.82 134.749C97.222 134.793 95.6167 134.724 94.03 134.718C92.2403 134.709 90.4577 134.589 88.6735 134.535C87.5986 134.502 86.5259 134.488 85.451 134.455C84.8503 134.435 83.2047 134.622 82.7735 134.068C82.3308 133.501 82.9512 133.432 83.4015 133.404C84.3294 133.346 85.2593 133.354 86.1902 133.328C88.1338 133.272 90.0768 133.223 92.0191 133.137C93.9323 133.053 95.8626 132.981 97.7761 132.961C99.6169 132.943 101.841 133.053 103.625 132.563C103.441 132.228 102.57 131.962 102.211 131.761C101.65 131.449 101.078 131.132 100.538 130.781C100.157 130.531 99.546 130.122 99.7473 129.554C99.8919 129.15 100.492 129.045 100.854 129.12C101.841 129.324 102.947 130.331 103.849 130.798C104.922 131.353 106.002 131.892 107.09 132.4C107.769 132.717 108.546 133.292 107.944 134.093C107.459 134.736 106.098 135.239 105.405 135.605C104.46 136.107 103.48 136.503 102.518 136.972C101.297 137.565 101.478 136.885 102.164 136.11C102.29 136.021 101.95 136.348 102.164 136.11L102.165 136.108Z" fill="#D1D5DB"/>
<g filter="url(#filter3_d_2404_80991)">
<rect x="114.5" y="99.7012" width="68" height="68" rx="34" fill="white" shape-rendering="crispEdges"/>
<path fill-rule="evenodd" clip-rule="evenodd" d="M145.344 112.615C144.864 112.762 144.47 113.062 144.154 113.52C143.849 113.962 143.717 114.002 143.268 113.791C143.004 113.666 142.792 113.617 142.434 113.596C141.757 113.557 141.362 113.711 140.864 114.21C140.545 114.528 140.475 114.639 140.364 115.005C140.293 115.239 140.19 115.471 140.134 115.52C140.079 115.569 139.858 115.654 139.643 115.708C138.883 115.9 138.288 116.391 137.951 117.104C137.342 118.394 137.894 119.927 139.188 120.539C139.604 120.736 139.725 120.869 139.795 121.207C139.973 122.069 140.684 122.686 141.656 122.824C142.268 122.91 142.284 122.94 142.284 124.006V124.87H148.456L148.475 123.994C148.495 123.118 148.495 123.117 148.663 122.973C148.777 122.875 148.905 122.828 149.059 122.828C149.183 122.828 149.417 122.788 149.578 122.74C149.739 122.692 149.929 122.667 150.001 122.685C150.073 122.703 150.284 122.889 150.469 123.099C150.911 123.6 151.309 123.8 151.937 123.835C152.302 123.856 152.462 123.836 152.725 123.735C153.224 123.544 153.287 123.561 153.705 123.99C154.12 124.418 154.461 124.634 154.941 124.775C155.873 125.047 156.995 124.701 157.608 123.952C158.054 123.408 158.277 122.634 158.177 121.975C158.039 121.063 158.039 121.056 158.205 120.925C158.316 120.839 158.487 120.794 158.806 120.77C159.38 120.727 159.821 120.521 160.193 120.123C160.619 119.667 160.736 119.364 160.735 118.714C160.734 118.028 160.591 117.678 160.13 117.243C159.628 116.767 159.368 116.673 158.563 116.673C157.669 116.673 157.676 116.679 157.676 115.785C157.676 115.171 157.661 115.081 157.511 114.774C157.287 114.318 156.807 113.874 156.354 113.704C155.596 113.419 154.73 113.622 154.135 114.223C153.712 114.652 153.651 114.659 153.052 114.355C152.586 114.119 152.511 114.099 152.081 114.099C151.745 114.1 151.523 114.136 151.285 114.23C151.103 114.302 150.899 114.36 150.83 114.36C150.762 114.361 150.551 114.24 150.362 114.093C150.173 113.946 149.865 113.768 149.677 113.698C149.329 113.567 149.014 113.563 148.152 113.675L147.869 113.712L147.432 113.264C147.088 112.912 146.92 112.788 146.647 112.688C146.291 112.556 145.655 112.52 145.344 112.615ZM143.278 116.25C143.441 116.299 143.673 116.421 143.794 116.521C144.257 116.904 144.479 117.715 144.202 118.012C143.912 118.323 143.364 118.091 143.364 117.657C143.364 117.395 143.129 117.183 142.842 117.185C142.341 117.189 142.284 117.347 142.284 118.736C142.284 119.875 142.284 119.876 142.439 120.061C142.564 120.21 142.64 120.246 142.832 120.246C143.123 120.246 143.364 120.036 143.364 119.781C143.364 119.421 143.692 119.178 144.023 119.294C144.249 119.372 144.324 119.504 144.324 119.823C144.324 120.322 144.026 120.788 143.536 121.055C142.784 121.466 141.853 121.159 141.461 120.372C141.37 120.188 141.351 119.96 141.335 118.834C141.322 117.961 141.339 117.432 141.384 117.273C141.526 116.78 141.867 116.435 142.397 116.245C142.685 116.142 142.92 116.144 143.278 116.25ZM147.361 116.251C147.741 116.364 148.115 116.683 148.294 117.048C148.424 117.311 148.436 117.422 148.455 118.477C148.467 119.14 148.448 119.771 148.41 119.978C148.293 120.614 147.835 121.085 147.204 121.216C146.574 121.347 145.889 121.007 145.565 120.4C145.441 120.168 145.434 120.08 145.434 118.714C145.434 117.123 145.442 117.082 145.846 116.652C146.257 116.216 146.778 116.078 147.361 116.251ZM151.695 116.338C152.37 116.687 152.665 117.404 152.46 118.204C152.324 118.735 152.086 119.078 151.424 119.7L150.857 120.232L151.557 120.255C152.236 120.276 152.261 120.282 152.401 120.445C152.595 120.671 152.584 120.876 152.366 121.095L152.187 121.274L150.988 121.255C149.852 121.238 149.781 121.23 149.659 121.107C149.498 120.947 149.491 120.53 149.643 120.199C149.7 120.076 150.1 119.627 150.539 119.195C151.39 118.357 151.529 118.158 151.545 117.748C151.553 117.538 151.524 117.455 151.4 117.331C151.122 117.052 150.61 117.169 150.531 117.529C150.446 117.914 150.398 117.999 150.211 118.094C150.056 118.173 149.976 118.181 149.833 118.131C149.32 117.952 149.486 116.968 150.111 116.491C150.553 116.154 151.213 116.09 151.695 116.338ZM146.807 117.169C146.737 117.18 146.615 117.258 146.537 117.341C146.397 117.491 146.394 117.511 146.394 118.714C146.394 119.924 146.396 119.937 146.54 120.091C146.738 120.302 147.09 120.306 147.297 120.098C147.444 119.951 147.444 119.946 147.444 118.73C147.444 117.749 147.427 117.485 147.355 117.383C147.255 117.239 146.997 117.138 146.807 117.169Z" fill="#EC88E0"/>
<path d="M139.936 130.774C139.329 133.234 138.288 135.704 137.005 137.747C136.829 138.028 137.027 138.402 137.359 138.402L153.43 138.394C153.76 138.394 153.958 138.024 153.783 137.744C152.024 134.932 150.869 131.74 150.349 128.252C150.318 128.048 150.144 127.896 149.938 127.896H140.956C140.75 127.896 140.576 128.049 140.542 128.252C140.406 129.06 140.214 129.646 139.936 130.774Z" fill="#EC88E0"/>
<path d="M141.273 126.333C141.273 126.219 141.365 126.126 141.479 126.126H149.127C149.24 126.126 149.333 126.219 149.333 126.333V126.707C149.333 126.82 149.24 126.913 149.127 126.913H141.479C141.365 126.913 141.273 126.82 141.273 126.707V126.333Z" fill="#EC88E0"/>
<path d="M127.695 149.673H129.257V150.368H127.695V151.946H126.999V150.368H125.441V149.673H126.999V148.079H127.695V149.673ZM135.26 152.841H134.339V149.165C134.339 149.043 134.34 148.92 134.342 148.798C134.345 148.675 134.348 148.556 134.35 148.438C134.356 148.321 134.362 148.209 134.37 148.103C134.315 148.162 134.247 148.228 134.167 148.298C134.089 148.368 134.005 148.441 133.917 148.517L133.26 149.04L132.8 148.458L134.495 147.13H135.26V152.841ZM141.604 152.177C141.724 152.177 141.842 152.166 141.959 152.146C142.076 152.122 142.183 152.095 142.28 152.063V152.759C142.178 152.803 142.046 152.841 141.885 152.872C141.724 152.903 141.556 152.919 141.381 152.919C141.136 152.919 140.916 152.879 140.721 152.798C140.526 152.715 140.371 152.573 140.256 152.372C140.142 152.172 140.084 151.894 140.084 151.54V149.216H139.494V148.806L140.127 148.481L140.428 147.556H141.006V148.517H142.244V149.216H141.006V151.528C141.006 151.747 141.061 151.91 141.17 152.017C141.28 152.123 141.424 152.177 141.604 152.177ZM147.227 150.669C147.227 151.028 147.18 151.347 147.086 151.626C146.992 151.905 146.855 152.14 146.676 152.333C146.496 152.523 146.28 152.669 146.027 152.771C145.775 152.869 145.49 152.919 145.172 152.919C144.875 152.919 144.603 152.869 144.355 152.771C144.108 152.669 143.893 152.523 143.711 152.333C143.531 152.14 143.392 151.905 143.293 151.626C143.194 151.347 143.145 151.028 143.145 150.669C143.145 150.192 143.227 149.789 143.391 149.458C143.557 149.125 143.794 148.871 144.102 148.696C144.409 148.522 144.775 148.435 145.199 148.435C145.598 148.435 145.949 148.522 146.254 148.696C146.559 148.871 146.797 149.125 146.969 149.458C147.141 149.791 147.227 150.195 147.227 150.669ZM144.09 150.669C144.09 150.984 144.128 151.254 144.203 151.478C144.281 151.701 144.401 151.873 144.562 151.993C144.724 152.11 144.932 152.169 145.188 152.169C145.443 152.169 145.651 152.11 145.812 151.993C145.974 151.873 146.092 151.701 146.168 151.478C146.243 151.254 146.281 150.984 146.281 150.669C146.281 150.354 146.243 150.087 146.168 149.868C146.092 149.647 145.974 149.479 145.812 149.364C145.651 149.247 145.441 149.188 145.184 149.188C144.803 149.188 144.526 149.316 144.352 149.571C144.177 149.826 144.09 150.192 144.09 150.669ZM150.775 148.435C151.262 148.435 151.641 148.561 151.912 148.813C152.185 149.063 152.322 149.466 152.322 150.021V152.841H151.404V150.192C151.404 149.856 151.335 149.605 151.197 149.438C151.059 149.269 150.845 149.185 150.556 149.185C150.137 149.185 149.845 149.313 149.681 149.571C149.52 149.829 149.439 150.203 149.439 150.692V152.841H148.521V148.517H149.236L149.365 149.103H149.416C149.51 148.951 149.625 148.828 149.763 148.731C149.904 148.632 150.06 148.558 150.232 148.509C150.407 148.459 150.588 148.435 150.775 148.435ZM158.693 147.845C158.419 147.845 158.174 147.894 157.958 147.993C157.745 148.092 157.564 148.235 157.415 148.423C157.267 148.608 157.154 148.833 157.075 149.099C156.997 149.362 156.958 149.659 156.958 149.989C156.958 150.432 157.021 150.813 157.146 151.134C157.271 151.451 157.461 151.696 157.716 151.868C157.971 152.037 158.294 152.122 158.685 152.122C158.927 152.122 159.163 152.099 159.392 152.052C159.621 152.005 159.858 151.941 160.103 151.86V152.657C159.871 152.748 159.637 152.815 159.4 152.856C159.163 152.898 158.889 152.919 158.579 152.919C157.996 152.919 157.512 152.798 157.126 152.556C156.743 152.313 156.457 151.972 156.267 151.532C156.079 151.092 155.986 150.576 155.986 149.985C155.986 149.553 156.046 149.157 156.165 148.798C156.285 148.438 156.46 148.129 156.689 147.868C156.918 147.605 157.2 147.403 157.536 147.263C157.875 147.119 158.262 147.048 158.697 147.048C158.983 147.048 159.264 147.08 159.54 147.146C159.819 147.208 160.077 147.298 160.314 147.415L159.986 148.188C159.788 148.095 159.581 148.014 159.365 147.946C159.148 147.879 158.924 147.845 158.693 147.845ZM166.64 149.978C166.64 150.418 166.584 150.819 166.472 151.181C166.362 151.54 166.197 151.85 165.976 152.11C165.754 152.368 165.477 152.567 165.144 152.708C164.81 152.849 164.42 152.919 163.972 152.919C163.516 152.919 163.12 152.849 162.784 152.708C162.451 152.567 162.174 152.367 161.952 152.106C161.733 151.846 161.569 151.535 161.46 151.173C161.351 150.811 161.296 150.41 161.296 149.97C161.296 149.381 161.392 148.868 161.585 148.431C161.78 147.991 162.076 147.649 162.472 147.407C162.87 147.162 163.373 147.04 163.98 147.04C164.573 147.04 165.067 147.161 165.46 147.403C165.853 147.646 166.147 147.987 166.343 148.427C166.541 148.864 166.64 149.381 166.64 149.978ZM162.28 149.978C162.28 150.418 162.34 150.799 162.46 151.122C162.58 151.442 162.763 151.69 163.011 151.864C163.261 152.036 163.581 152.122 163.972 152.122C164.365 152.122 164.685 152.036 164.933 151.864C165.18 151.69 165.362 151.442 165.48 151.122C165.597 150.799 165.655 150.418 165.655 149.978C165.655 149.308 165.521 148.785 165.253 148.407C164.987 148.027 164.563 147.837 163.98 147.837C163.589 147.837 163.267 147.923 163.015 148.095C162.765 148.267 162.58 148.513 162.46 148.833C162.34 149.151 162.28 149.532 162.28 149.978ZM171.583 152.841H167.716V152.149L169.196 150.649C169.483 150.358 169.718 150.106 169.903 149.896C170.088 149.682 170.225 149.48 170.313 149.29C170.404 149.1 170.45 148.893 170.45 148.669C170.45 148.393 170.371 148.185 170.212 148.044C170.053 147.901 169.843 147.829 169.583 147.829C169.335 147.829 169.106 147.879 168.895 147.978C168.687 148.074 168.471 148.212 168.247 148.392L167.743 147.786C167.902 147.651 168.071 147.527 168.251 147.415C168.433 147.303 168.636 147.215 168.86 147.149C169.084 147.082 169.339 147.048 169.626 147.048C169.988 147.048 170.3 147.113 170.563 147.243C170.826 147.371 171.028 147.549 171.169 147.778C171.312 148.007 171.384 148.274 171.384 148.579C171.384 148.886 171.322 149.17 171.2 149.431C171.078 149.691 170.903 149.949 170.677 150.204C170.45 150.457 170.18 150.731 169.868 151.028L168.88 151.993V152.036H171.583V152.841Z" fill="#EB46B3"/>
</g>
<defs>
<filter id="filter0_d_2404_80991" x="0.34" y="0.261172" width="84.32" height="84.32" filterUnits="userSpaceOnUse" color-interpolation-filters="sRGB">
<feFlood flood-opacity="0" result="BackgroundImageFix"/>
<feColorMatrix in="SourceAlpha" type="matrix" values="0 0 0 0 0 0 0 0 0 0 0 0 0 0 0 0 0 0 127 0" result="hardAlpha"/>
<feOffset dy="2.72"/>
<feGaussianBlur stdDeviation="4.08"/>
<feComposite in2="hardAlpha" operator="out"/>
<feColorMatrix type="matrix" values="0 0 0 0 0 0 0 0 0 0 0 0 0 0 0 0 0 0 0.05 0"/>
<feBlend mode="normal" in2="BackgroundImageFix" result="effect1_dropShadow_2404_80991"/>
<feBlend mode="normal" in="SourceGraphic" in2="effect1_dropShadow_2404_80991" result="shape"/>
</filter>
<filter id="filter1_d_2404_80991" x="106.34" y="0.261172" width="84.32" height="84.32" filterUnits="userSpaceOnUse" color-interpolation-filters="sRGB">
<feFlood flood-opacity="0" result="BackgroundImageFix"/>
<feColorMatrix in="SourceAlpha" type="matrix" values="0 0 0 0 0 0 0 0 0 0 0 0 0 0 0 0 0 0 127 0" result="hardAlpha"/>
<feOffset dy="2.72"/>
<feGaussianBlur stdDeviation="4.08"/>
<feComposite in2="hardAlpha" operator="out"/>
<feColorMatrix type="matrix" values="0 0 0 0 0 0 0 0 0 0 0 0 0 0 0 0 0 0 0.05 0"/>
<feBlend mode="normal" in2="BackgroundImageFix" result="effect1_dropShadow_2404_80991"/>
<feBlend mode="normal" in="SourceGraphic" in2="effect1_dropShadow_2404_80991" result="shape"/>
</filter>
<filter id="filter2_d_2404_80991" x="0.34" y="94.2612" width="84.32" height="84.32" filterUnits="userSpaceOnUse" color-interpolation-filters="sRGB">
<feFlood flood-opacity="0" result="BackgroundImageFix"/>
<feColorMatrix in="SourceAlpha" type="matrix" values="0 0 0 0 0 0 0 0 0 0 0 0 0 0 0 0 0 0 127 0" result="hardAlpha"/>
<feOffset dy="2.72"/>
<feGaussianBlur stdDeviation="4.08"/>
<feComposite in2="hardAlpha" operator="out"/>
<feColorMatrix type="matrix" values="0 0 0 0 0 0 0 0 0 0 0 0 0 0 0 0 0 0 0.05 0"/>
<feBlend mode="normal" in2="BackgroundImageFix" result="effect1_dropShadow_2404_80991"/>
<feBlend mode="normal" in="SourceGraphic" in2="effect1_dropShadow_2404_80991" result="shape"/>
</filter>
<filter id="filter3_d_2404_80991" x="106.34" y="94.2612" width="84.32" height="84.32" filterUnits="userSpaceOnUse" color-interpolation-filters="sRGB">
<feFlood flood-opacity="0" result="BackgroundImageFix"/>
<feColorMatrix in="SourceAlpha" type="matrix" values="0 0 0 0 0 0 0 0 0 0 0 0 0 0 0 0 0 0 127 0" result="hardAlpha"/>
<feOffset dy="2.72"/>
<feGaussianBlur stdDeviation="4.08"/>
<feComposite in2="hardAlpha" operator="out"/>
<feColorMatrix type="matrix" values="0 0 0 0 0 0 0 0 0 0 0 0 0 0 0 0 0 0 0.05 0"/>
<feBlend mode="normal" in2="BackgroundImageFix" result="effect1_dropShadow_2404_80991"/>
<feBlend mode="normal" in="SourceGraphic" in2="effect1_dropShadow_2404_80991" result="shape"/>
</filter>
</defs>
</svg>
