<svg width="304" height="304" viewBox="0 0 304 304" fill="none" xmlns="http://www.w3.org/2000/svg">
<path d="M69.3042 233.074C72.2402 237.163 76.8373 240.79 81.3875 242.904C83.9678 244.103 86.7599 244.808 89.5533 245.294C90.9989 245.548 92.4434 245.729 93.9056 245.838C94.3307 245.869 96.1094 245.648 96.3038 246.045C96.9571 247.377 90.5481 246.899 89.8599 246.796C86.9556 246.371 84.0281 245.793 81.3088 244.659C76.7431 242.767 72.0677 239.758 68.865 235.955C67.0011 233.742 65.1066 231.544 63.7498 228.942C63.179 227.847 62.7073 226.698 62.3531 225.518C62.1006 224.681 61.8626 223.821 61.7182 222.958C61.612 222.32 61.8022 221.446 61.5969 220.863C60.7686 221.581 60.5656 223.074 59.7615 223.884C58.8051 224.845 58.5549 223.739 58.7941 222.869C59.1776 221.486 59.7867 220.18 60.3306 218.858C60.794 217.729 61.1126 216.175 62.5838 216.441C63.8754 216.673 65.1139 217.421 66.3147 217.912C67.1159 218.241 69.0308 218.542 69.2734 219.55C70.0364 222.689 64.1415 218.78 63.6238 218.692C63.6152 219.201 63.8631 219.753 63.9409 220.266C64.0547 221.007 64.063 221.758 64.1815 222.499C64.4057 223.897 64.7886 225.316 65.2854 226.643C66.1445 228.945 67.6084 231.296 69.3018 233.077C69.0559 232.822 70.3643 234.556 69.3018 233.077L69.3042 233.074Z" fill="#D1D5DB"/>
<path d="M218.427 39.6418C219.245 39.0684 221.484 38.2781 221.937 37.4248C221.516 37.2875 220.693 37.5397 220.248 37.5894C219.539 37.6639 218.831 37.721 218.125 37.7848C216.877 37.895 215.628 37.9853 214.375 38.0181C212.439 38.0705 210.495 37.9882 208.573 37.9802C206.405 37.9699 204.246 37.8262 202.085 37.7615C200.783 37.7223 199.484 37.7053 198.182 37.666C197.454 37.6424 195.461 37.8659 194.938 37.2041C194.402 36.5258 195.154 36.4437 195.699 36.4109C196.823 36.3412 197.949 36.3509 199.077 36.3189C201.431 36.252 203.785 36.1938 206.137 36.0916C208.455 35.9909 210.793 35.9051 213.111 35.8814C215.34 35.8593 218.035 35.9912 220.196 35.4055C219.973 35.0052 218.918 34.6871 218.482 34.4476C217.803 34.0741 217.11 33.6952 216.457 33.2755C215.995 32.9767 215.255 32.4885 215.498 31.8095C215.673 31.327 216.4 31.2011 216.839 31.2915C218.034 31.5353 219.374 32.7377 220.467 33.2962C221.767 33.9592 223.075 34.6032 224.393 35.2106C225.214 35.589 226.157 36.2759 225.427 37.2342C224.839 38.002 223.191 38.6027 222.352 39.0403C221.207 39.6399 220.02 40.1131 218.854 40.6737C217.375 41.3826 217.594 40.5698 218.425 39.6438C218.579 39.5375 218.167 39.9283 218.425 39.6438L218.427 39.6418Z" fill="#D1D5DB"/>
<path d="M207.369 36.9799C207.369 36.8299 207.491 36.7084 207.641 36.7084C207.791 36.7084 207.912 36.8299 207.912 36.9799H207.369ZM206.193 63.5C206.193 62.7003 206.841 62.052 207.641 62.052C208.44 62.052 209.089 62.7003 209.089 63.5C209.089 64.2997 208.44 64.948 207.641 64.948C206.841 64.948 206.193 64.2997 206.193 63.5ZM207.912 36.9799V46.7536H207.369V36.9799H207.912ZM207.912 46.7536V63.5H207.369V46.7536H207.912Z" fill="#D1D5DB"/>
<path d="M156.276 85.9193C155.702 85.1018 154.912 82.8627 154.059 82.4093C153.921 82.831 154.173 83.6534 154.223 84.099C154.298 84.8082 154.355 85.5159 154.419 86.2219C154.529 87.4701 154.619 88.7188 154.652 89.9716C154.704 91.9072 154.622 93.8517 154.614 95.7736C154.604 97.9414 154.46 100.101 154.395 102.262C154.356 103.564 154.339 104.863 154.3 106.165C154.276 106.893 154.5 108.886 153.838 109.408C153.16 109.945 153.078 109.193 153.045 108.648C152.975 107.524 152.985 106.397 152.953 105.27C152.886 102.916 152.828 100.562 152.725 98.2093C152.625 95.8919 152.539 93.5538 152.515 91.236C152.493 89.0063 152.625 86.3122 152.039 84.1512C151.639 84.3737 151.321 85.429 151.081 85.8645C150.708 86.544 150.329 87.2363 149.909 87.8901C149.611 88.3516 149.122 89.0922 148.443 88.8484C147.961 88.6732 147.835 87.9467 147.925 87.508C148.169 86.3126 149.371 84.9728 149.93 83.8797C150.593 82.5798 151.237 81.2717 151.844 79.9541C152.223 79.1322 152.91 78.1901 153.868 78.9201C154.636 79.5072 155.237 81.1553 155.674 81.9948C156.274 83.1397 156.747 84.327 157.308 85.4929C158.016 86.9717 157.204 86.7523 156.278 85.9216C156.171 85.7681 156.562 86.1797 156.278 85.9216L156.276 85.9193Z" fill="#D1D5DB"/>
<path d="M156.276 216.631C155.702 217.448 154.912 219.687 154.059 220.141C153.921 219.719 154.173 218.896 154.223 218.451C154.298 217.742 154.355 217.034 154.419 216.328C154.529 215.08 154.619 213.831 154.652 212.578C154.704 210.643 154.622 208.698 154.614 206.776C154.604 204.608 154.46 202.449 154.395 200.288C154.356 198.986 154.339 197.687 154.3 196.385C154.276 195.657 154.5 193.664 153.838 193.142C153.16 192.605 153.078 193.357 153.045 193.902C152.975 195.026 152.985 196.153 152.953 197.28C152.886 199.634 152.828 201.988 152.725 204.34C152.625 206.658 152.539 208.996 152.515 211.314C152.493 213.544 152.625 216.238 152.039 218.399C151.639 218.176 151.321 217.121 151.081 216.685C150.708 216.006 150.329 215.313 149.909 214.66C149.611 214.198 149.122 213.458 148.443 213.701C147.961 213.877 147.835 214.603 147.925 215.042C148.169 216.237 149.371 217.577 149.93 218.67C150.593 219.97 151.237 221.278 151.844 222.596C152.223 223.418 152.91 224.36 153.868 223.63C154.636 223.043 155.237 221.394 155.674 220.555C156.274 219.41 156.747 218.223 157.308 217.057C158.016 215.578 157.204 215.798 156.278 216.628C156.171 216.782 156.562 216.37 156.278 216.628L156.276 216.631Z" fill="#D1D5DB"/>
<g filter="url(#filter0_d_0_1)">
<rect x="120.762" y="232.996" width="62.2127" height="62.2127" rx="31.1063" fill="white" shape-rendering="crispEdges"/>
<path fill-rule="evenodd" clip-rule="evenodd" d="M143.428 248.756C143.271 248.882 143.254 249.002 143.279 249.834C143.336 251.728 143.556 253.019 144.008 254.116C144.68 255.747 145.763 256.482 147.498 256.485C148.168 256.485 148.806 256.354 149.362 256.101C149.507 256.035 149.63 255.985 149.635 255.991C149.717 256.073 150.128 257.143 150.303 257.728C150.759 259.256 151.057 261.432 151.059 263.254C151.059 263.586 151.075 263.914 151.094 263.982C151.174 264.27 151.523 264.379 151.724 264.179C151.845 264.058 151.865 263.964 151.865 263.51C151.866 263.09 151.941 262.129 152.014 261.613C152.238 260.027 152.729 258.547 153.402 257.428C153.486 257.288 153.559 257.169 153.563 257.163C153.568 257.157 153.661 257.224 153.768 257.312C153.876 257.399 154.116 257.543 154.3 257.631C154.888 257.912 155.459 258.03 156.219 258.03C157.484 258.031 158.392 257.647 159.042 256.838C159.932 255.73 160.375 254.01 160.451 251.363C160.485 250.161 160.548 250.22 159.261 250.249C157.89 250.279 156.98 250.385 156.042 250.625C154.398 251.045 153.377 251.781 152.934 252.865C152.658 253.542 152.552 254.743 152.744 255.015C152.833 255.14 153.036 255.2 153.175 255.142C153.233 255.118 153.404 254.963 153.555 254.797C154.253 254.033 155.153 253.351 156.129 252.847C156.471 252.671 156.53 252.651 156.662 252.666C156.871 252.689 157.013 252.834 157.013 253.021C157.013 253.232 156.937 253.31 156.541 253.509C155.546 254.009 154.808 254.54 154.065 255.291C152.99 256.377 152.17 257.791 151.704 259.362C151.562 259.843 151.581 259.861 151.444 259.122C151.097 257.251 150.428 255.52 149.589 254.321C148.882 253.312 148.193 252.612 147.276 251.974C146.921 251.727 146.793 251.582 146.793 251.427C146.793 251.221 146.887 251.1 147.102 251.032C147.209 250.998 147.347 251.068 147.784 251.377C148.832 252.118 149.441 252.73 150.059 253.664C150.188 253.858 150.333 254.051 150.382 254.092C150.509 254.2 150.719 254.195 150.854 254.082C150.982 253.973 151.015 253.855 151.062 253.322C151.151 252.31 150.899 251.265 150.407 250.617C149.899 249.947 148.92 249.394 147.688 249.081C146.743 248.841 145.813 248.732 144.459 248.704C143.534 248.685 143.517 248.686 143.428 248.756Z" fill="url(#paint0_linear_0_1)"/>
<path d="M136.437 274.328C136.149 274.328 135.889 274.378 135.658 274.478C135.43 274.576 135.234 274.719 135.072 274.907C134.913 275.093 134.79 275.318 134.704 275.582C134.618 275.847 134.575 276.145 134.575 276.476C134.575 276.914 134.643 277.295 134.779 277.619C134.917 277.941 135.122 278.19 135.394 278.366C135.668 278.543 136.01 278.631 136.42 278.631C136.653 278.631 136.872 278.612 137.077 278.574C137.284 278.533 137.486 278.483 137.681 278.423V278.952C137.49 279.024 137.29 279.076 137.081 279.11C136.871 279.145 136.622 279.163 136.334 279.163C135.802 279.163 135.358 279.054 135.001 278.834C134.646 278.613 134.379 278.301 134.2 277.898C134.024 277.496 133.936 277.02 133.936 276.472C133.936 276.077 133.991 275.716 134.1 275.389C134.212 275.061 134.374 274.777 134.586 274.539C134.801 274.301 135.063 274.117 135.372 273.988C135.685 273.857 136.042 273.792 136.445 273.792C136.709 273.792 136.964 273.818 137.209 273.87C137.455 273.923 137.676 273.998 137.874 274.096L137.631 274.61C137.464 274.534 137.281 274.468 137.081 274.414C136.883 274.357 136.668 274.328 136.437 274.328ZM140.452 275.103C140.786 275.103 141.072 275.177 141.31 275.325C141.548 275.473 141.731 275.68 141.857 275.947C141.983 276.211 142.046 276.521 142.046 276.876V277.244H139.341C139.348 277.704 139.462 278.054 139.684 278.295C139.906 278.535 140.218 278.656 140.62 278.656C140.868 278.656 141.087 278.633 141.278 278.588C141.468 278.543 141.666 278.476 141.871 278.388V278.91C141.673 278.998 141.477 279.062 141.281 279.103C141.088 279.143 140.86 279.163 140.595 279.163C140.219 279.163 139.89 279.087 139.609 278.935C139.33 278.78 139.113 278.553 138.958 278.256C138.804 277.958 138.726 277.593 138.726 277.162C138.726 276.74 138.796 276.376 138.937 276.068C139.08 275.759 139.28 275.52 139.537 275.354C139.797 275.187 140.102 275.103 140.452 275.103ZM140.445 275.589C140.128 275.589 139.876 275.693 139.688 275.9C139.499 276.108 139.387 276.397 139.352 276.769H141.424C141.422 276.535 141.385 276.33 141.314 276.154C141.245 275.975 141.139 275.837 140.996 275.74C140.853 275.64 140.669 275.589 140.445 275.589ZM145.053 275.103C145.132 275.103 145.214 275.108 145.3 275.118C145.386 275.125 145.462 275.136 145.529 275.15L145.454 275.7C145.389 275.684 145.318 275.67 145.239 275.661C145.161 275.651 145.087 275.647 145.018 275.647C144.86 275.647 144.711 275.679 144.571 275.743C144.433 275.805 144.311 275.896 144.206 276.015C144.102 276.132 144.019 276.273 143.96 276.44C143.9 276.604 143.87 276.788 143.87 276.99V279.092H143.274V275.175H143.767L143.831 275.897H143.856C143.937 275.751 144.035 275.619 144.149 275.5C144.264 275.379 144.396 275.282 144.546 275.211C144.698 275.139 144.868 275.103 145.053 275.103ZM147.753 278.677C147.851 278.677 147.951 278.669 148.053 278.652C148.156 278.636 148.239 278.615 148.304 278.591V279.052C148.234 279.083 148.138 279.11 148.014 279.131C147.893 279.153 147.773 279.163 147.657 279.163C147.449 279.163 147.261 279.128 147.092 279.056C146.923 278.982 146.787 278.858 146.685 278.684C146.585 278.51 146.535 278.27 146.535 277.962V275.64H145.977V275.35L146.538 275.118L146.774 274.267H147.131V275.175H148.279V275.64H147.131V277.945C147.131 278.19 147.187 278.373 147.299 278.495C147.414 278.616 147.565 278.677 147.753 278.677ZM149.91 275.175V279.092H149.316V275.175H149.91ZM149.62 273.71C149.718 273.71 149.801 273.742 149.87 273.806C149.942 273.868 149.978 273.966 149.978 274.099C149.978 274.23 149.942 274.328 149.87 274.392C149.801 274.457 149.718 274.489 149.62 274.489C149.518 274.489 149.432 274.457 149.363 274.392C149.296 274.328 149.263 274.23 149.263 274.099C149.263 273.966 149.296 273.868 149.363 273.806C149.432 273.742 149.518 273.71 149.62 273.71ZM153.131 275.64H152.156V279.092H151.562V275.64H150.869V275.354L151.562 275.157V274.896C151.562 274.567 151.611 274.301 151.709 274.096C151.807 273.888 151.948 273.736 152.134 273.638C152.32 273.54 152.546 273.492 152.813 273.492C152.963 273.492 153.1 273.505 153.224 273.531C153.351 273.557 153.461 273.587 153.557 273.62L153.403 274.088C153.322 274.062 153.23 274.038 153.128 274.017C153.028 273.993 152.925 273.981 152.82 273.981C152.594 273.981 152.426 274.055 152.316 274.203C152.209 274.348 152.156 274.577 152.156 274.889V275.175H153.131V275.64ZM154.443 275.175V279.092H153.85V275.175H154.443ZM154.153 273.71C154.251 273.71 154.334 273.742 154.404 273.806C154.475 273.868 154.511 273.966 154.511 274.099C154.511 274.23 154.475 274.328 154.404 274.392C154.334 274.457 154.251 274.489 154.153 274.489C154.051 274.489 153.965 274.457 153.896 274.392C153.829 274.328 153.796 274.23 153.796 274.099C153.796 273.966 153.829 273.868 153.896 273.806C153.965 273.742 154.051 273.71 154.153 273.71ZM157.486 279.163C157.133 279.163 156.822 279.091 156.553 278.945C156.284 278.8 156.074 278.578 155.924 278.281C155.774 277.983 155.699 277.607 155.699 277.155C155.699 276.681 155.777 276.294 155.935 275.993C156.094 275.691 156.314 275.467 156.592 275.321C156.871 275.176 157.188 275.103 157.543 275.103C157.738 275.103 157.927 275.124 158.108 275.164C158.291 275.202 158.441 275.251 158.558 275.311L158.379 275.807C158.26 275.76 158.122 275.717 157.965 275.679C157.81 275.641 157.664 275.622 157.529 275.622C157.257 275.622 157.031 275.68 156.85 275.797C156.671 275.913 156.536 276.085 156.446 276.311C156.358 276.538 156.314 276.816 156.314 277.148C156.314 277.465 156.356 277.735 156.442 277.959C156.53 278.183 156.66 278.354 156.832 278.474C157.006 278.59 157.223 278.649 157.482 278.649C157.689 278.649 157.877 278.627 158.043 278.584C158.21 278.539 158.361 278.487 158.497 278.427V278.956C158.366 279.023 158.22 279.074 158.058 279.11C157.898 279.145 157.707 279.163 157.486 279.163ZM161.111 275.111C161.578 275.111 161.925 275.215 162.151 275.425C162.377 275.635 162.491 275.969 162.491 276.429V279.092H162.058L161.944 278.513H161.915C161.806 278.656 161.691 278.776 161.572 278.874C161.453 278.969 161.315 279.042 161.158 279.092C161.003 279.139 160.812 279.163 160.586 279.163C160.348 279.163 160.136 279.122 159.95 279.038C159.766 278.955 159.621 278.829 159.514 278.659C159.409 278.49 159.356 278.276 159.356 278.016C159.356 277.625 159.511 277.325 159.821 277.115C160.131 276.906 160.603 276.791 161.236 276.772L161.912 276.744V276.504C161.912 276.166 161.839 275.929 161.694 275.793C161.548 275.657 161.343 275.589 161.079 275.589C160.874 275.589 160.679 275.619 160.493 275.679C160.307 275.738 160.131 275.809 159.964 275.89L159.782 275.439C159.958 275.349 160.161 275.271 160.389 275.207C160.618 275.143 160.859 275.111 161.111 275.111ZM161.905 277.162L161.308 277.187C160.819 277.206 160.475 277.286 160.275 277.426C160.075 277.567 159.975 277.766 159.975 278.023C159.975 278.247 160.043 278.413 160.178 278.52C160.314 278.627 160.494 278.681 160.718 278.681C161.066 278.681 161.351 278.584 161.572 278.391C161.794 278.198 161.905 277.909 161.905 277.523V277.162ZM165.198 278.677C165.295 278.677 165.395 278.669 165.498 278.652C165.6 278.636 165.684 278.615 165.748 278.591V279.052C165.679 279.083 165.582 279.11 165.458 279.131C165.337 279.153 165.218 279.163 165.101 279.163C164.894 279.163 164.706 279.128 164.536 279.056C164.367 278.982 164.231 278.858 164.129 278.684C164.029 278.51 163.979 278.27 163.979 277.962V275.64H163.421V275.35L163.983 275.118L164.218 274.267H164.576V275.175H165.723V275.64H164.576V277.945C164.576 278.19 164.632 278.373 164.744 278.495C164.858 278.616 165.009 278.677 165.198 278.677ZM168.269 275.103C168.603 275.103 168.889 275.177 169.127 275.325C169.365 275.473 169.547 275.68 169.674 275.947C169.8 276.211 169.863 276.521 169.863 276.876V277.244H167.158C167.165 277.704 167.279 278.054 167.501 278.295C167.722 278.535 168.034 278.656 168.437 278.656C168.685 278.656 168.904 278.633 169.095 278.588C169.285 278.543 169.483 278.476 169.688 278.388V278.91C169.49 278.998 169.294 279.062 169.098 279.103C168.905 279.143 168.676 279.163 168.412 279.163C168.036 279.163 167.707 279.087 167.426 278.935C167.147 278.78 166.93 278.553 166.775 278.256C166.62 277.958 166.543 277.593 166.543 277.162C166.543 276.74 166.613 276.376 166.754 276.068C166.897 275.759 167.097 275.52 167.354 275.354C167.614 275.187 167.919 275.103 168.269 275.103ZM168.262 275.589C167.945 275.589 167.692 275.693 167.504 275.9C167.316 276.108 167.204 276.397 167.168 276.769H169.241C169.239 276.535 169.202 276.33 169.13 276.154C169.061 275.975 168.955 275.837 168.812 275.74C168.669 275.64 168.486 275.589 168.262 275.589Z" fill="#374151"/>
</g>
<g filter="url(#filter1_d_0_1)">
<rect x="120.762" y="4.39941" width="62.2127" height="62.2127" rx="31.1063" fill="white" shape-rendering="crispEdges"/>
<g clip-path="url(#clip0_0_1)">
<path fill-rule="evenodd" clip-rule="evenodd" d="M166.778 34.757C166.485 34.4096 166.092 34.2287 165.611 34.2287C165.118 34.2287 164.731 34.4383 164.458 34.8501V32.8984H163.926V38.0466H164.432V37.4682C164.706 37.9161 165.099 38.1331 165.612 38.1331C166.092 38.1331 166.485 37.9597 166.778 37.5982C167.071 37.2366 167.212 36.7741 167.212 36.1809C167.212 35.5877 167.065 35.1184 166.778 34.757ZM166.344 37.222C166.142 37.4818 165.879 37.6129 165.546 37.6129H165.544C165.204 37.6129 164.938 37.4898 164.738 37.2293C164.538 36.9836 164.438 36.6294 164.438 36.1809C164.438 35.7324 164.538 35.3782 164.738 35.1253C164.938 34.8721 165.207 34.7496 165.544 34.7496C165.882 34.7496 166.151 34.8795 166.351 35.1253C166.551 35.3709 166.651 35.7183 166.651 36.1521C166.651 36.6007 166.547 36.9621 166.344 37.222Z" fill="#1F2937"/>
<path fill-rule="evenodd" clip-rule="evenodd" d="M139.123 32.9561H142.261V33.5068H139.683V35.0884H141.995V35.638H139.683V38.046H139.123V32.9561Z" fill="#1F2937"/>
<path fill-rule="evenodd" clip-rule="evenodd" d="M144.202 37.3968V38.0475H143.723C143.675 38.0477 143.627 38.0375 143.582 38.0177C143.538 37.9978 143.497 37.9686 143.463 37.9317L142.942 37.3668C142.908 37.3287 142.881 37.2835 142.863 37.2338C142.845 37.1841 142.836 37.1309 142.838 37.0776V32.9541H143.391V37.2358C143.391 37.2572 143.395 37.2783 143.403 37.2979C143.411 37.3175 143.422 37.3352 143.437 37.35C143.451 37.3648 143.468 37.3764 143.486 37.3841C143.504 37.3919 143.524 37.3956 143.544 37.3951L144.202 37.3968Z" fill="#1F2937"/>
<path fill-rule="evenodd" clip-rule="evenodd" d="M147.434 34.7649C147.279 34.5909 147.093 34.4534 146.887 34.3614C146.681 34.2694 146.459 34.2246 146.236 34.2299C145.75 34.2299 145.351 34.4108 145.039 34.7649C144.727 35.1191 144.57 35.5895 144.57 36.1821C144.57 36.7747 144.723 37.2525 145.039 37.5994C145.351 37.9609 145.752 38.1343 146.236 38.1343C146.721 38.1343 147.114 37.9609 147.434 37.5994C147.74 37.2525 147.902 36.7753 147.902 36.1821C147.902 35.5889 147.743 35.1196 147.434 34.7649ZM147.041 37.2305C146.841 37.491 146.568 37.6141 146.234 37.6141C145.901 37.6141 145.628 37.491 145.428 37.2305C145.228 36.9849 145.128 36.6306 145.128 36.1821C145.128 35.7336 145.228 35.3795 145.428 35.1265C145.628 34.8734 145.896 34.7508 146.234 34.7508C146.386 34.7454 146.537 34.7761 146.676 34.841C146.816 34.9059 146.94 35.0035 147.041 35.1265C147.241 35.3795 147.341 35.7342 147.341 36.1821C147.341 36.63 147.241 36.9849 147.041 37.2305Z" fill="#1F2937"/>
<path fill-rule="evenodd" clip-rule="evenodd" d="M156.677 37.765C156.41 38.0113 156.077 38.1338 155.69 38.1338C155.211 38.1338 154.831 37.9604 154.538 37.5989C154.245 37.2374 154.098 36.7748 154.098 36.1817C154.098 35.5885 154.245 35.1118 154.538 34.7576C154.817 34.4102 155.204 34.2295 155.69 34.2295C156.097 34.2295 156.43 34.3526 156.697 34.591C156.963 34.8294 157.116 35.1621 157.17 35.5818H156.616C156.588 35.3396 156.473 35.1192 156.297 34.9672C156.124 34.822 155.91 34.7451 155.691 34.7492C155.548 34.7439 155.405 34.7751 155.274 34.8403C155.143 34.9055 155.028 35.0029 154.939 35.1248C154.752 35.3711 154.658 35.7252 154.658 36.1805C154.658 36.6358 154.752 36.9906 154.939 37.2363C155.125 37.482 155.378 37.6125 155.691 37.6125C155.914 37.6176 156.131 37.5376 156.305 37.3865C156.482 37.2328 156.597 37.0097 156.624 36.7652H157.171C157.11 37.1866 156.943 37.517 156.677 37.765Z" fill="#1F2937"/>
<path fill-rule="evenodd" clip-rule="evenodd" d="M160.602 37.4946C160.578 37.4947 160.555 37.4845 160.538 37.4665C160.521 37.4483 160.512 37.4238 160.511 37.3981L160.544 35.3159C160.544 34.593 160.111 34.2314 159.252 34.2314C158.359 34.2314 157.892 34.6436 157.852 35.4679H158.385C158.399 35.1934 158.472 35.0054 158.605 34.8969C158.738 34.7884 158.952 34.7302 159.252 34.7302C159.532 34.7302 159.725 34.7811 159.845 34.868C159.964 34.9551 160.025 35.1138 160.025 35.3159C160.025 35.6199 159.845 35.786 159.485 35.8295L158.992 35.886C158.138 35.9876 157.719 36.3706 157.719 37.0427C157.719 37.3901 157.826 37.6642 158.038 37.8528C158.251 38.0415 158.552 38.1352 158.932 38.1352C159.437 38.1352 159.81 37.9409 160.049 37.5382C160.058 37.5812 160.078 37.6205 160.107 37.6512L160.42 37.9827C160.462 38.0263 160.518 38.0509 160.576 38.0511H160.899V37.4946H160.602ZM160.025 36.5711C160.025 36.9185 159.918 37.1789 159.704 37.3619C159.494 37.547 159.23 37.646 158.958 37.6415C158.732 37.6415 158.558 37.5908 158.445 37.4823C158.332 37.3738 158.272 37.2218 158.272 37.0269C158.268 36.9411 158.282 36.8553 158.313 36.7763C158.344 36.6973 158.392 36.627 158.452 36.5711C158.572 36.4702 158.778 36.3979 159.071 36.3542L159.571 36.2892C159.771 36.2678 159.925 36.217 160.025 36.1305V36.5711Z" fill="#1F2937"/>
<path fill-rule="evenodd" clip-rule="evenodd" d="M162.079 34.9741C162.305 34.4967 162.679 34.2578 163.185 34.2578H163.367V34.8199H163.234C162.874 34.8199 162.6 34.921 162.401 35.1091C162.201 35.2972 162.108 35.5717 162.108 35.9185V38.0447H161.572V34.3154H162.079V34.9741Z" fill="#1F2937"/>
<path fill-rule="evenodd" clip-rule="evenodd" d="M172.015 34.8729C172.275 34.4464 172.635 34.2295 173.094 34.2295C173.474 34.2295 173.771 34.3453 173.987 34.5684C174.203 34.7915 174.307 35.118 174.307 35.5225V38.0463H173.774V35.5812C173.774 35.0316 173.507 34.7497 172.988 34.7497C172.864 34.7488 172.742 34.7752 172.629 34.8274C172.515 34.8795 172.413 34.9563 172.328 35.0531C172.135 35.2559 172.041 35.5524 172.041 35.9354V38.0469H171.508V34.3159H172.015V34.8729Z" fill="#1F2937"/>
<path fill-rule="evenodd" clip-rule="evenodd" d="M170.487 34.7571C170.332 34.5829 170.145 34.4456 169.939 34.3536C169.733 34.2614 169.512 34.2168 169.289 34.2221C168.805 34.2221 168.404 34.4028 168.092 34.7571C167.779 35.1112 167.623 35.5817 167.623 36.1743C167.623 36.7668 167.779 37.2441 168.092 37.591C168.404 37.9525 168.811 38.1265 169.289 38.1265C169.767 38.1265 170.167 37.9525 170.487 37.591C170.795 37.2441 170.955 36.7668 170.955 36.1743C170.955 35.5784 170.795 35.1083 170.487 34.7571ZM170.096 37.2227C169.896 37.4825 169.626 37.6057 169.289 37.6057C168.952 37.6057 168.683 37.4825 168.483 37.2227C168.283 36.9764 168.183 36.6222 168.183 36.1743C168.183 35.7224 168.283 35.3642 168.483 35.1185C168.683 34.8729 168.95 34.7423 169.289 34.7423C169.441 34.7369 169.592 34.7679 169.731 34.833C169.87 34.8979 169.995 34.9954 170.096 35.1185C170.296 35.3717 170.395 35.7263 170.395 36.1743C170.395 36.6223 170.296 36.9764 170.096 37.2227Z" fill="#1F2937"/>
<path d="M153.524 34.3156V37.0034C153.524 37.6496 153.017 38.1343 152.392 38.1343C151.767 38.1343 151.26 37.6529 151.26 37.0034L151.259 34.9685C151.256 34.9081 151.232 34.8509 151.19 34.8088C151.148 34.7669 151.092 34.7434 151.033 34.7434C150.978 34.7434 150.926 34.764 150.885 34.8011C150.882 34.8036 150.88 34.8062 150.877 34.8088C150.874 34.8114 150.872 34.8142 150.869 34.8169C150.864 34.8221 150.86 34.8276 150.856 34.8332C150.854 34.8359 150.852 34.8388 150.85 34.8418C150.824 34.8787 150.81 34.9226 150.808 34.9685L150.81 37.1531C150.811 37.2039 150.803 37.2547 150.785 37.3021C150.767 37.3496 150.739 37.3927 150.705 37.4292L150.194 37.9673C150.125 38.0384 150.031 38.0781 149.934 38.0778H149.402C149.305 38.078 149.211 38.0382 149.142 37.9673L148.622 37.4292C148.588 37.3927 148.561 37.3496 148.543 37.3021C148.525 37.2547 148.516 37.2039 148.518 37.1531V34.3217H149.071V37.456C149.072 37.4766 149.076 37.4968 149.084 37.5156C149.092 37.5344 149.103 37.5512 149.117 37.5654C149.132 37.5796 149.148 37.5908 149.167 37.5981C149.185 37.6054 149.205 37.6089 149.224 37.6084H150.102C150.121 37.6089 150.141 37.6054 150.159 37.5981C150.178 37.5905 150.195 37.5794 150.209 37.5654C150.223 37.5512 150.234 37.5344 150.242 37.5156C150.25 37.4968 150.254 37.4766 150.255 37.456V35.0351C150.255 34.5949 150.6 34.2646 151.026 34.2646C151.451 34.2646 151.824 34.5926 151.824 35.0351V35.1182L151.824 37.0324C151.83 37.1905 151.871 37.3402 151.981 37.4501C152.09 37.5599 152.237 37.6212 152.39 37.6212C152.543 37.6212 152.689 37.5599 152.799 37.4501C152.909 37.3402 152.962 37.1905 152.967 37.0324V34.3156H153.524Z" fill="#1F2937"/>
<path d="M131.783 33.092C132.017 33.092 132.207 32.8954 132.207 32.6529C132.207 32.4104 132.017 32.2139 131.783 32.2139C131.549 32.2139 131.359 32.4104 131.359 32.6529C131.359 32.8954 131.549 33.092 131.783 33.092Z" fill="#1F2937"/>
<path d="M131.783 34.59C132.017 34.59 132.207 34.3934 132.207 34.151C132.207 33.9085 132.017 33.7119 131.783 33.7119C131.549 33.7119 131.359 33.9085 131.359 34.151C131.359 34.3934 131.549 34.59 131.783 34.59Z" fill="#1F2937"/>
<path d="M131.783 37.3273C132.017 37.3273 132.207 37.1307 132.207 36.8883C132.207 36.6458 132.017 36.4492 131.783 36.4492C131.549 36.4492 131.359 36.6458 131.359 36.8883C131.359 37.1307 131.549 37.3273 131.783 37.3273Z" fill="#1F2937"/>
<path d="M131.783 40.1154C132.017 40.1154 132.207 39.9188 132.207 39.6763C132.207 39.4339 132.017 39.2373 131.783 39.2373C131.549 39.2373 131.359 39.4339 131.359 39.6763C131.359 39.9188 131.549 40.1154 131.783 40.1154Z" fill="#1F2937"/>
<path d="M131.765 35.8814C131.944 35.8814 132.089 35.7311 132.089 35.5457C132.089 35.3603 131.944 35.21 131.765 35.21C131.586 35.21 131.441 35.3603 131.441 35.5457C131.441 35.7311 131.586 35.8814 131.765 35.8814Z" fill="#1F2937"/>
<path d="M131.765 31.5934C131.944 31.5934 132.089 31.443 132.089 31.2576C132.089 31.0722 131.944 30.9219 131.765 30.9219C131.586 30.9219 131.441 31.0722 131.441 31.2576C131.441 31.443 131.586 31.5934 131.765 31.5934Z" fill="#1F2937"/>
<path d="M133.058 36.5523C133.237 36.5523 133.382 36.402 133.382 36.2166C133.382 36.0312 133.237 35.8809 133.058 35.8809C132.879 35.8809 132.734 36.0312 132.734 36.2166C132.734 36.402 132.879 36.5523 133.058 36.5523Z" fill="#1F2937"/>
<path d="M131.765 38.6168C131.944 38.6168 132.089 38.4665 132.089 38.2811C132.089 38.0956 131.944 37.9453 131.765 37.9453C131.586 37.9453 131.441 38.0956 131.441 38.2811C131.441 38.4665 131.586 38.6168 131.765 38.6168Z" fill="#1F2937"/>
<path d="M133.058 32.1841C133.237 32.1841 133.382 32.0338 133.382 31.8484C133.382 31.663 133.237 31.5127 133.058 31.5127C132.879 31.5127 132.734 31.663 132.734 31.8484C132.734 32.0338 132.879 32.1841 133.058 32.1841Z" fill="#1F2937"/>
<path d="M134.365 37.231C134.544 37.231 134.689 37.0807 134.689 36.8953C134.689 36.7099 134.544 36.5596 134.365 36.5596C134.186 36.5596 134.041 36.7099 134.041 36.8953C134.041 37.0807 134.186 37.231 134.365 37.231Z" fill="#1F2937"/>
<path d="M134.365 32.775C134.544 32.775 134.689 32.6247 134.689 32.4393C134.689 32.2538 134.544 32.1035 134.365 32.1035C134.186 32.1035 134.041 32.2538 134.041 32.4393C134.041 32.6247 134.186 32.775 134.365 32.775Z" fill="#1F2937"/>
<path d="M133.047 33.7629C133.281 33.7629 133.47 33.5663 133.47 33.3238C133.47 33.0813 133.281 32.8848 133.047 32.8848C132.813 32.8848 132.623 33.0813 132.623 33.3238C132.623 33.5663 132.813 33.7629 133.047 33.7629Z" fill="#1F2937"/>
<path d="M133.047 35.2609C133.281 35.2609 133.47 35.0643 133.47 34.8219C133.47 34.5794 133.281 34.3828 133.047 34.3828C132.813 34.3828 132.623 34.5794 132.623 34.8219C132.623 35.0643 132.813 35.2609 133.047 35.2609Z" fill="#1F2937"/>
<path d="M134.355 34.3312C134.589 34.3312 134.779 34.1346 134.779 33.8922C134.779 33.6497 134.589 33.4531 134.355 33.4531C134.121 33.4531 133.932 33.6497 133.932 33.8922C133.932 34.1346 134.121 34.3312 134.355 34.3312Z" fill="#1F2937"/>
<path d="M134.355 35.88C134.589 35.88 134.779 35.6835 134.779 35.441C134.779 35.1985 134.589 35.002 134.355 35.002C134.121 35.002 133.932 35.1985 133.932 35.441C133.932 35.6835 134.121 35.88 134.355 35.88Z" fill="#1F2937"/>
<path d="M135.627 34.8976C135.861 34.8976 136.05 34.7011 136.05 34.4586C136.05 34.2161 135.861 34.0195 135.627 34.0195C135.393 34.0195 135.203 34.2161 135.203 34.4586C135.203 34.7011 135.393 34.8976 135.627 34.8976Z" fill="#1F2937"/>
<path d="M135.627 36.4484C135.861 36.4484 136.05 36.2518 136.05 36.0094C136.05 35.7669 135.861 35.5703 135.627 35.5703C135.393 35.5703 135.203 35.7669 135.203 36.0094C135.203 36.2518 135.393 36.4484 135.627 36.4484Z" fill="#1F2937"/>
<path d="M130.424 36.5523C130.245 36.5523 130.1 36.402 130.1 36.2166C130.1 36.0312 130.245 35.8809 130.424 35.8809C130.603 35.8809 130.748 36.0312 130.748 36.2166C130.748 36.402 130.603 36.5523 130.424 36.5523Z" fill="#1F2937"/>
<path d="M130.424 32.1841C130.245 32.1841 130.1 32.0338 130.1 31.8484C130.1 31.663 130.245 31.5127 130.424 31.5127C130.603 31.5127 130.748 31.663 130.748 31.8484C130.748 32.0338 130.603 32.1841 130.424 32.1841Z" fill="#1F2937"/>
<path d="M129.116 37.231C128.937 37.231 128.792 37.0807 128.792 36.8953C128.792 36.7099 128.937 36.5596 129.116 36.5596C129.294 36.5596 129.439 36.7099 129.439 36.8953C129.439 37.0807 129.294 37.231 129.116 37.231Z" fill="#1F2937"/>
<path d="M129.116 32.775C128.937 32.775 128.792 32.6247 128.792 32.4393C128.792 32.2538 128.937 32.1035 129.116 32.1035C129.294 32.1035 129.439 32.2538 129.439 32.4393C129.439 32.6247 129.294 32.775 129.116 32.775Z" fill="#1F2937"/>
<path d="M130.444 33.7629C130.21 33.7629 130.02 33.5663 130.02 33.3238C130.02 33.0813 130.21 32.8848 130.444 32.8848C130.678 32.8848 130.867 33.0813 130.867 33.3238C130.867 33.5663 130.678 33.7629 130.444 33.7629Z" fill="#1F2937"/>
<path d="M130.444 35.2609C130.21 35.2609 130.02 35.0643 130.02 34.8219C130.02 34.5794 130.21 34.3828 130.444 34.3828C130.678 34.3828 130.867 34.5794 130.867 34.8219C130.867 35.0643 130.678 35.2609 130.444 35.2609Z" fill="#1F2937"/>
<path d="M129.137 34.3312C128.903 34.3312 128.713 34.1346 128.713 33.8922C128.713 33.6497 128.903 33.4531 129.137 33.4531C129.371 33.4531 129.561 33.6497 129.561 33.8922C129.561 34.1346 129.371 34.3312 129.137 34.3312Z" fill="#1F2937"/>
<path d="M129.137 35.88C128.903 35.88 128.713 35.6835 128.713 35.441C128.713 35.1985 128.903 35.002 129.137 35.002C129.371 35.002 129.561 35.1985 129.561 35.441C129.561 35.6835 129.371 35.88 129.137 35.88Z" fill="#1F2937"/>
<path d="M127.858 34.8976C127.624 34.8976 127.434 34.7011 127.434 34.4586C127.434 34.2161 127.624 34.0195 127.858 34.0195C128.092 34.0195 128.281 34.2161 128.281 34.4586C128.281 34.7011 128.092 34.8976 127.858 34.8976Z" fill="#1F2937"/>
<path d="M127.858 36.4484C127.624 36.4484 127.434 36.2518 127.434 36.0094C127.434 35.7669 127.624 35.5703 127.858 35.5703C128.092 35.5703 128.281 35.7669 128.281 36.0094C128.281 36.2518 128.092 36.4484 127.858 36.4484Z" fill="#1F2937"/>
<path d="M175.54 34.6738V33.8916H175.752L175.917 34.4879H175.919L176.086 33.8916H176.3V34.6738H176.163V34.0749H176.157C176.136 34.1569 176.116 34.2308 176.097 34.2964L175.988 34.6738H175.848L175.739 34.2964L175.681 34.0749H175.675V34.6738H175.54ZM174.791 34.0202V33.8916H175.416V34.0202H175.178V34.6738H175.029V34.0202H174.791Z" fill="#1F2937"/>
</g>
</g>
<g filter="url(#filter2_d_0_1)">
<rect x="234.787" y="4.39941" width="62.2127" height="62.2127" rx="31.1063" fill="white" shape-rendering="crispEdges"/>
<path fill-rule="evenodd" clip-rule="evenodd" d="M270.522 17.5496C270.409 17.6547 270.117 17.7363 269.648 17.7946C269.388 17.8269 268.93 17.883 268.632 17.9194C267.902 18.0085 267.396 18.1419 266.947 18.3633C266.387 18.6399 265.943 19.0833 265.697 19.6123C265.42 20.2076 265.42 21.0073 265.698 21.6627C265.849 22.0193 266.009 22.2521 266.126 22.2829C266.433 22.3643 266.615 22.1741 266.616 21.7703C266.617 21.5337 266.772 20.9618 266.919 20.6575C267.115 20.2475 267.391 19.9002 267.736 19.6251C268.038 19.3849 268.464 19.1379 268.406 19.2365C268.389 19.2657 268.308 19.3895 268.226 19.5115C267.852 20.0694 267.574 20.7598 267.348 21.6896C266.967 23.2546 266.831 24.3602 266.733 26.6858C266.688 27.7741 266.689 27.8115 266.767 27.9892C266.883 28.2517 267.09 28.3967 267.378 28.4176C267.557 28.4305 267.647 28.4152 267.774 28.3502C267.96 28.2553 268.022 28.1756 268.263 27.7228C268.448 27.3761 268.773 26.9424 268.941 26.8204L269.045 26.7439L269.291 26.9301C269.783 27.3029 270.312 27.436 270.858 27.3246C271.574 27.1785 271.949 26.8482 272.684 25.7184C272.877 25.4215 273.087 25.1116 273.151 25.0296L273.267 24.8806L273.044 24.7374C272.921 24.6587 272.597 24.4247 272.325 24.2174C271.57 23.6424 271.267 23.4902 270.748 23.4243C270.343 23.3729 270.006 23.4296 269.639 23.6105C269.136 23.8586 268.671 24.4207 268.671 24.7803C268.671 24.9394 268.766 25.0448 268.885 25.0173C268.933 25.0062 269.127 24.9609 269.315 24.9168C269.754 24.8138 270.292 24.7762 270.748 24.8164L271.108 24.8481L270.753 24.9013C269.745 25.0518 268.947 25.437 268.215 26.1258L267.894 26.4275L267.921 25.9846C267.99 24.8579 268.102 23.666 268.17 23.3368C268.19 23.2407 268.223 23.2226 268.482 23.1645C269.387 22.9619 270.228 22.0731 270.602 20.925C270.763 20.4287 270.817 19.963 270.797 19.2355C270.78 18.6109 270.667 17.5938 270.607 17.5252C270.593 17.5088 270.555 17.5197 270.522 17.5496ZM263.655 23.5011C263.242 23.6229 262.955 23.7877 262.266 24.2994C261.899 24.5713 261.568 24.8168 261.529 24.845C261.463 24.8927 261.467 24.9075 261.582 25.0576C261.65 25.1464 261.889 25.4997 262.112 25.8429C262.763 26.8411 263.225 27.2286 263.896 27.3371C264.667 27.4618 265.513 27.0755 265.796 26.4694C265.912 26.2205 265.915 26.0806 265.808 25.8592C265.616 25.4621 264.586 24.9996 263.655 24.892L263.372 24.8595L263.574 24.831C264.157 24.7485 264.907 24.8192 265.508 25.0131C265.897 25.1387 265.894 25.1386 266.004 25.0359C266.122 24.9257 266.115 24.7834 265.977 24.4929C265.757 24.0287 265.324 23.6516 264.839 23.5005C264.524 23.4023 263.989 23.4026 263.655 23.5011ZM261.942 28.5735C261.646 28.6201 261.236 28.7369 260.912 28.8671C260.197 29.1539 260.017 29.306 257.702 31.585C256.533 32.7363 255.576 33.69 255.576 33.7042C255.576 33.7184 256.57 34.7248 257.784 35.9405L259.993 38.151L260.731 37.0409L261.469 35.9308L265.221 35.9183C268.917 35.906 268.977 35.9045 269.241 35.8201C269.616 35.7001 269.982 35.5162 270.242 35.3175C270.364 35.2243 271.736 34.016 273.291 32.6325C275.351 30.7989 276.13 30.0829 276.161 29.9913C276.343 29.47 276.003 29.0661 275.278 28.9416C275.033 28.8995 274.944 28.9022 274.661 28.9604C274.48 28.9978 274.214 29.088 274.07 29.1607C273.926 29.2334 272.689 30.1142 271.32 31.118L268.833 32.9432H267.351H265.869L265.531 32.6038L265.194 32.2644L266.701 32.2493C268.144 32.2349 268.218 32.2304 268.465 32.1428C269.317 31.8397 269.744 31.1429 269.54 30.3886C269.418 29.937 269.083 29.5952 268.559 29.3885C268.34 29.3018 268.255 29.2959 266.838 29.2693C265.182 29.2382 265.114 29.229 264.492 28.9551C263.788 28.6452 263.307 28.5444 262.567 28.5521C262.279 28.5552 261.998 28.5648 261.942 28.5735Z" fill="#9DE2A0"/>
<path d="M258.253 50.4941H257.553L254.704 46.1055H254.676C254.683 46.2223 254.691 46.3557 254.701 46.5058C254.71 46.6535 254.718 46.8119 254.722 46.9811C254.729 47.1479 254.733 47.3182 254.733 47.4922V50.4941H254.168V45.2692H254.865L257.703 49.6436H257.728C257.723 49.5602 257.717 49.4423 257.71 49.2898C257.703 49.1349 257.696 48.9693 257.689 48.793C257.684 48.6143 257.681 48.4487 257.681 48.2963V45.2692H258.253V50.4941ZM261.275 46.5129C261.742 46.5129 262.088 46.6178 262.315 46.8274C262.541 47.0371 262.654 47.3718 262.654 47.8317V50.4941H262.222L262.107 49.9152H262.079C261.969 50.0581 261.855 50.1785 261.736 50.2761C261.617 50.3714 261.478 50.4441 261.321 50.4941C261.166 50.5418 260.976 50.5656 260.749 50.5656C260.511 50.5656 260.299 50.5239 260.113 50.4405C259.93 50.3571 259.784 50.2309 259.677 50.0617C259.572 49.8926 259.52 49.6781 259.52 49.4184C259.52 49.0277 259.675 48.7275 259.985 48.5178C260.294 48.3082 260.766 48.1938 261.4 48.1747L262.075 48.1462V47.9067C262.075 47.5684 262.003 47.3313 261.857 47.1955C261.712 47.0597 261.507 46.9918 261.242 46.9918C261.038 46.9918 260.842 47.0216 260.656 47.0812C260.471 47.1407 260.294 47.211 260.127 47.292L259.945 46.8417C260.122 46.7512 260.324 46.6738 260.553 46.6094C260.781 46.5451 261.022 46.5129 261.275 46.5129ZM262.068 48.5643L261.471 48.5893C260.983 48.6084 260.639 48.6882 260.438 48.8288C260.238 48.9693 260.138 49.1683 260.138 49.4256C260.138 49.6495 260.206 49.8151 260.342 49.9223C260.478 50.0295 260.658 50.0832 260.882 50.0832C261.229 50.0832 261.514 49.9867 261.736 49.7937C261.957 49.6007 262.068 49.3112 262.068 48.9252V48.5643ZM265.361 50.0796C265.459 50.0796 265.559 50.0712 265.661 50.0546C265.764 50.0379 265.847 50.0176 265.911 49.9938V50.4548C265.842 50.4858 265.746 50.512 265.622 50.5335C265.5 50.5549 265.381 50.5656 265.265 50.5656C265.057 50.5656 264.869 50.5299 264.7 50.4584C264.531 50.3845 264.395 50.2607 264.293 50.0867C264.192 49.9128 264.142 49.6722 264.142 49.3648V47.0419H263.585V46.7524L264.146 46.5201L264.382 45.6695H264.739V46.5773H265.886V47.0419H264.739V49.347C264.739 49.5924 264.795 49.7758 264.907 49.8973C265.022 50.0188 265.173 50.0796 265.361 50.0796ZM270.159 46.5773V50.4941H269.673L269.587 49.9438H269.555C269.474 50.0796 269.369 50.1939 269.24 50.2869C269.112 50.3798 268.966 50.4489 268.804 50.4941C268.645 50.5418 268.474 50.5656 268.293 50.5656C267.983 50.5656 267.724 50.5156 267.514 50.4155C267.304 50.3155 267.146 50.1606 267.039 49.9509C266.934 49.7413 266.882 49.472 266.882 49.1432V46.5773H267.482V49.1004C267.482 49.4268 267.556 49.671 267.703 49.833C267.851 49.9926 268.076 50.0724 268.379 50.0724C268.67 50.0724 268.901 50.0176 269.072 49.908C269.246 49.7984 269.371 49.6376 269.448 49.4256C269.524 49.2111 269.562 48.9491 269.562 48.6393V46.5773H270.159ZM273.412 46.5058C273.491 46.5058 273.573 46.5105 273.659 46.5201C273.745 46.5272 273.821 46.5379 273.888 46.5522L273.813 47.1026C273.748 47.0859 273.677 47.0728 273.598 47.0633C273.52 47.0538 273.446 47.049 273.377 47.049C273.219 47.049 273.071 47.0812 272.93 47.1455C272.792 47.2074 272.67 47.298 272.565 47.4171C272.461 47.5338 272.378 47.6756 272.319 47.8424C272.259 48.0068 272.229 48.1902 272.229 48.3927V50.4941H271.633V46.5773H272.126L272.19 47.2992H272.215C272.296 47.1538 272.394 47.0216 272.508 46.9025C272.623 46.781 272.755 46.6845 272.905 46.613C273.057 46.5415 273.227 46.5058 273.412 46.5058ZM276.355 46.5058C276.689 46.5058 276.975 46.5796 277.213 46.7274C277.451 46.8751 277.633 47.0824 277.76 47.3492C277.886 47.6137 277.949 47.9234 277.949 48.2784V48.6465H275.244C275.251 49.1063 275.365 49.4565 275.587 49.6972C275.808 49.9378 276.121 50.0581 276.523 50.0581C276.771 50.0581 276.99 50.0355 277.181 49.9902C277.371 49.945 277.569 49.8783 277.774 49.7901V50.3119C277.576 50.4 277.38 50.4644 277.184 50.5049C276.991 50.5454 276.763 50.5656 276.498 50.5656C276.122 50.5656 275.793 50.4894 275.512 50.3369C275.233 50.182 275.016 49.9557 274.861 49.6579C274.707 49.3601 274.629 48.9955 274.629 48.5643C274.629 48.1426 274.699 47.7781 274.84 47.4707C274.983 47.161 275.183 46.9227 275.44 46.7559C275.7 46.5892 276.005 46.5058 276.355 46.5058ZM276.348 46.9918C276.031 46.9918 275.779 47.0955 275.59 47.3027C275.402 47.51 275.29 47.7995 275.254 48.1712H277.327C277.325 47.9377 277.288 47.7328 277.217 47.5565C277.147 47.3778 277.041 47.2396 276.898 47.1419C276.755 47.0419 276.572 46.9918 276.348 46.9918Z" fill="#374151"/>
</g>
<path d="M104.398 152.04C105.216 151.467 107.455 150.677 107.908 149.823C107.486 149.686 106.664 149.938 106.218 149.988C105.509 150.062 104.802 150.119 104.095 150.183C102.847 150.293 101.599 150.384 100.346 150.417C98.4102 150.469 96.4657 150.387 94.5438 150.379C92.376 150.368 90.2168 150.225 88.0556 150.16C86.7536 150.121 85.4542 150.104 84.1523 150.064C83.4247 150.041 81.4314 150.264 80.9091 149.603C80.3729 148.924 81.1244 148.842 81.6697 148.809C82.7937 148.74 83.9201 148.749 85.0477 148.717C87.4019 148.65 89.7554 148.592 92.108 148.49C94.4254 148.389 96.7636 148.304 99.0814 148.28C101.311 148.258 104.005 148.39 106.166 147.804C105.944 147.404 104.888 147.086 104.453 146.846C103.773 146.473 103.081 146.094 102.427 145.674C101.966 145.375 101.225 144.887 101.469 144.208C101.644 143.725 102.371 143.6 102.809 143.69C104.005 143.934 105.345 145.136 106.438 145.695C107.738 146.358 109.046 147.002 110.363 147.609C111.185 147.987 112.127 148.674 111.397 149.633C110.81 150.4 109.162 151.001 108.323 151.439C107.178 152.038 105.99 152.512 104.824 153.072C103.346 153.781 103.565 152.968 104.396 152.042C104.549 151.936 104.138 152.327 104.396 152.042L104.398 152.04Z" fill="#D1D5DB"/>
<g filter="url(#filter3_d_0_1)">
<rect x="120.762" y="118.427" width="62.2127" height="62.2127" rx="31.1063" fill="white" shape-rendering="crispEdges"/>
<path d="M160.854 136.694L151.837 131.545L142.84 136.686M160.854 136.694L151.837 141.987M160.854 136.694L160.894 147.021L151.847 152.178M151.837 141.987L142.84 136.686M151.837 141.987L151.847 152.178M142.84 136.686V147.041L151.847 152.178" stroke="url(#paint1_linear_0_1)" stroke-width="1.08597" stroke-miterlimit="10" stroke-linejoin="round"/>
<path d="M137.633 159.759C137.344 159.759 137.085 159.809 136.854 159.909C136.625 160.006 136.429 160.149 136.267 160.338C136.108 160.523 135.985 160.749 135.899 161.013C135.814 161.277 135.771 161.575 135.771 161.906C135.771 162.345 135.839 162.726 135.974 163.05C136.113 163.372 136.317 163.621 136.589 163.797C136.863 163.973 137.205 164.061 137.615 164.061C137.848 164.061 138.067 164.042 138.272 164.004C138.48 163.964 138.681 163.914 138.876 163.854V164.383C138.686 164.455 138.486 164.507 138.276 164.54C138.066 164.576 137.817 164.594 137.529 164.594C136.998 164.594 136.553 164.484 136.196 164.265C135.841 164.044 135.574 163.731 135.395 163.329C135.219 162.926 135.131 162.451 135.131 161.903C135.131 161.507 135.186 161.146 135.295 160.82C135.407 160.491 135.569 160.208 135.781 159.969C135.996 159.731 136.258 159.548 136.568 159.419C136.88 159.288 137.237 159.223 137.64 159.223C137.904 159.223 138.159 159.249 138.405 159.301C138.65 159.354 138.872 159.429 139.069 159.526L138.826 160.041C138.659 159.965 138.476 159.899 138.276 159.844C138.078 159.787 137.864 159.759 137.633 159.759ZM139.521 160.606H140.157L141.022 162.879C141.072 163.012 141.119 163.141 141.162 163.264C141.204 163.386 141.243 163.503 141.276 163.615C141.309 163.727 141.335 163.835 141.355 163.94H141.38C141.413 163.821 141.461 163.665 141.522 163.472C141.584 163.276 141.651 163.077 141.723 162.875L142.541 160.606H143.181L141.476 165.098C141.385 165.338 141.279 165.548 141.158 165.727C141.039 165.906 140.893 166.043 140.722 166.138C140.55 166.236 140.343 166.284 140.1 166.284C139.988 166.284 139.889 166.277 139.803 166.263C139.718 166.251 139.644 166.237 139.582 166.22V165.745C139.634 165.757 139.697 165.767 139.771 165.777C139.848 165.786 139.926 165.791 140.007 165.791C140.155 165.791 140.282 165.763 140.39 165.705C140.499 165.651 140.593 165.57 140.672 165.462C140.751 165.355 140.818 165.228 140.876 165.08L141.09 164.53L139.521 160.606ZM144.619 158.962V160.352C144.619 160.511 144.614 160.666 144.605 160.816C144.598 160.967 144.592 161.083 144.587 161.167H144.619C144.726 160.99 144.881 160.841 145.084 160.72C145.286 160.598 145.545 160.538 145.859 160.538C146.35 160.538 146.741 160.708 147.031 161.049C147.324 161.387 147.471 161.891 147.471 162.56C147.471 163.001 147.404 163.373 147.271 163.675C147.137 163.978 146.949 164.207 146.706 164.362C146.463 164.517 146.176 164.594 145.845 164.594C145.535 164.594 145.28 164.537 145.08 164.422C144.882 164.306 144.73 164.164 144.623 163.997H144.576L144.455 164.522H144.026V158.962H144.619ZM145.763 161.034C145.479 161.034 145.254 161.09 145.087 161.202C144.92 161.312 144.8 161.479 144.726 161.703C144.655 161.924 144.619 162.205 144.619 162.546V162.578C144.619 163.071 144.701 163.449 144.866 163.711C145.03 163.971 145.329 164.101 145.763 164.101C146.127 164.101 146.4 163.967 146.581 163.7C146.764 163.434 146.856 163.052 146.856 162.557C146.856 162.052 146.766 161.672 146.585 161.417C146.406 161.162 146.132 161.034 145.763 161.034ZM150.235 160.534C150.569 160.534 150.854 160.608 151.093 160.756C151.331 160.903 151.513 161.111 151.639 161.378C151.766 161.642 151.829 161.952 151.829 162.307V162.675H149.124C149.131 163.135 149.245 163.485 149.467 163.726C149.688 163.966 150 164.086 150.403 164.086C150.651 164.086 150.87 164.064 151.061 164.019C151.251 163.973 151.449 163.907 151.654 163.818V164.34C151.456 164.428 151.259 164.493 151.064 164.533C150.871 164.574 150.642 164.594 150.378 164.594C150.001 164.594 149.673 164.518 149.392 164.365C149.113 164.21 148.896 163.984 148.741 163.686C148.586 163.388 148.509 163.024 148.509 162.593C148.509 162.171 148.579 161.806 148.72 161.499C148.863 161.189 149.063 160.951 149.32 160.784C149.58 160.617 149.885 160.534 150.235 160.534ZM150.228 161.02C149.911 161.02 149.658 161.124 149.47 161.331C149.282 161.538 149.17 161.828 149.134 162.199H151.207C151.205 161.966 151.168 161.761 151.096 161.585C151.027 161.406 150.921 161.268 150.778 161.17C150.635 161.07 150.452 161.02 150.228 161.02ZM154.836 160.534C154.915 160.534 154.997 160.539 155.083 160.548C155.168 160.556 155.245 160.566 155.311 160.581L155.236 161.131C155.172 161.114 155.1 161.101 155.022 161.092C154.943 161.082 154.869 161.077 154.8 161.077C154.643 161.077 154.494 161.109 154.354 161.174C154.215 161.236 154.094 161.326 153.989 161.445C153.884 161.562 153.802 161.704 153.742 161.871C153.683 162.035 153.653 162.219 153.653 162.421V164.522H153.056V160.606H153.549L153.614 161.327H153.639C153.72 161.182 153.817 161.05 153.932 160.931C154.046 160.809 154.178 160.713 154.329 160.641C154.481 160.57 154.65 160.534 154.836 160.534ZM156.36 159.298H157.84C158.492 159.298 158.983 159.395 159.312 159.591C159.641 159.786 159.805 160.118 159.805 160.588C159.805 160.79 159.766 160.972 159.687 161.135C159.611 161.294 159.499 161.426 159.351 161.531C159.204 161.636 159.021 161.709 158.805 161.749V161.785C159.033 161.821 159.236 161.886 159.412 161.981C159.588 162.077 159.727 162.21 159.827 162.382C159.927 162.553 159.977 162.771 159.977 163.036C159.977 163.357 159.902 163.629 159.752 163.851C159.604 164.072 159.394 164.24 159.123 164.354C158.851 164.466 158.529 164.522 158.158 164.522H156.36V159.298ZM156.968 161.538H157.968C158.423 161.538 158.738 161.463 158.912 161.313C159.088 161.163 159.176 160.944 159.176 160.656C159.176 160.358 159.071 160.143 158.862 160.012C158.654 159.881 158.323 159.816 157.868 159.816H156.968V161.538ZM156.968 162.049V164.004H158.054C158.519 164.004 158.847 163.914 159.04 163.733C159.233 163.549 159.33 163.303 159.33 162.993C159.33 162.795 159.286 162.626 159.198 162.485C159.112 162.345 158.971 162.238 158.776 162.164C158.583 162.088 158.324 162.049 158 162.049H156.968ZM164.599 162.557C164.599 162.879 164.558 163.166 164.474 163.418C164.391 163.671 164.27 163.884 164.113 164.058C163.956 164.232 163.765 164.365 163.541 164.458C163.32 164.549 163.068 164.594 162.787 164.594C162.525 164.594 162.285 164.549 162.065 164.458C161.849 164.365 161.66 164.232 161.501 164.058C161.343 163.884 161.221 163.671 161.133 163.418C161.047 163.166 161.004 162.879 161.004 162.557C161.004 162.128 161.077 161.763 161.222 161.463C161.367 161.161 161.575 160.931 161.844 160.774C162.115 160.614 162.438 160.534 162.812 160.534C163.17 160.534 163.482 160.614 163.749 160.774C164.018 160.933 164.226 161.164 164.374 161.467C164.524 161.767 164.599 162.13 164.599 162.557ZM161.619 162.557C161.619 162.871 161.66 163.144 161.744 163.375C161.827 163.606 161.956 163.785 162.13 163.911C162.304 164.038 162.528 164.101 162.802 164.101C163.073 164.101 163.296 164.038 163.47 163.911C163.646 163.785 163.776 163.606 163.859 163.375C163.943 163.144 163.985 162.871 163.985 162.557C163.985 162.245 163.943 161.976 163.859 161.749C163.776 161.52 163.647 161.344 163.473 161.22C163.3 161.096 163.074 161.034 162.798 161.034C162.391 161.034 162.092 161.169 161.901 161.438C161.713 161.707 161.619 162.08 161.619 162.557ZM166.777 162.518L165.423 160.606H166.102L167.135 162.114L168.164 160.606H168.836L167.481 162.518L168.911 164.522H168.232L167.135 162.925L166.03 164.522H165.358L166.777 162.518Z" fill="#374151"/>
</g>
<g filter="url(#filter4_d_0_1)">
<rect x="6.73438" y="118.971" width="62.2127" height="62.2127" rx="31.1063" fill="white" shape-rendering="crispEdges"/>
<path fill-rule="evenodd" clip-rule="evenodd" d="M37.1911 132.118C35.7043 132.27 34.3591 132.898 33.2707 133.948C31.4298 135.724 30.7886 138.33 31.5974 140.749C31.8005 141.356 32.2146 142.14 32.571 142.592C32.6404 142.68 32.6973 142.772 32.6973 142.796C32.6973 142.82 32.5629 142.92 32.3985 143.017C31.9792 143.266 31.4044 143.696 30.9002 144.137C28.8478 145.935 27.5388 148.763 27.5244 151.43C27.5207 152.104 27.5224 152.117 27.6408 152.296C28.0397 152.9 28.9361 152.85 29.2667 152.207C29.3326 152.078 29.3614 151.888 29.3931 151.371C29.4713 150.094 29.7378 149.067 30.263 148.02C31.0402 146.471 32.4212 145.085 33.9591 144.309L34.2267 144.175L34.8608 144.494C36.9379 145.539 39.1975 145.462 41.223 144.277L41.4138 144.165L41.7586 144.339C43.2366 145.083 44.5207 146.359 45.3162 147.875C45.9045 148.996 46.1824 150.019 46.2662 151.371C46.2982 151.887 46.3273 152.078 46.3931 152.207C46.7208 152.844 47.5909 152.903 48.0051 152.314C48.1286 152.139 48.1404 152.09 48.1541 151.693C48.1839 150.836 47.9682 149.528 47.6278 148.502C47.4211 147.879 46.8639 146.729 46.4985 146.171C46.1051 145.57 45.5854 144.95 45.0055 144.389C44.4328 143.836 44.0301 143.519 43.363 143.096L42.9261 142.82L43.1913 142.45C43.723 141.708 44.1413 140.704 44.3164 139.749C44.416 139.205 44.4136 138.086 44.3116 137.528C44.2153 137.001 43.9476 136.193 43.7189 135.739C43.0726 134.456 41.9008 133.311 40.6243 132.717C39.5665 132.225 38.3037 132.004 37.1911 132.118ZM38.5841 134.032C39.5844 134.204 40.4314 134.639 41.1398 135.345C41.745 135.949 42.1521 136.667 42.4017 137.57C42.4777 137.845 42.4933 138.028 42.4934 138.649C42.4935 139.316 42.4812 139.443 42.3796 139.82C42.1531 140.661 41.7188 141.402 41.1051 141.996C40.1744 142.896 39.1019 143.334 37.8299 143.334C36.5258 143.334 35.3847 142.851 34.4746 141.915C33.8762 141.299 33.5035 140.647 33.2804 139.824C33.1763 139.44 33.1647 139.321 33.1657 138.649C33.1666 137.985 33.1796 137.854 33.2812 137.476C33.9099 135.136 36.2313 133.628 38.5841 134.032Z" fill="url(#paint2_linear_0_1)"/>
<path d="M34.2119 159.842V163.222C34.2119 163.592 34.1368 163.92 33.9867 164.209C33.839 164.497 33.615 164.725 33.3148 164.891C33.0146 165.056 32.6382 165.138 32.1855 165.138C31.5399 165.138 31.0479 164.963 30.7095 164.613C30.3736 164.262 30.2056 163.794 30.2056 163.208V159.842H30.8168V163.226C30.8168 163.669 30.9335 164.011 31.167 164.252C31.4029 164.492 31.7543 164.613 32.2213 164.613C32.5405 164.613 32.8014 164.555 33.0039 164.441C33.2088 164.324 33.3601 164.162 33.4578 163.955C33.5579 163.745 33.6079 163.503 33.6079 163.229V159.842H34.2119ZM38.2626 163.994C38.2626 164.244 38.1994 164.455 38.0731 164.627C37.9492 164.796 37.7706 164.923 37.5371 165.009C37.306 165.095 37.0296 165.138 36.7079 165.138C36.434 165.138 36.1969 165.116 35.9968 165.074C35.7966 165.031 35.6215 164.97 35.4714 164.891V164.344C35.631 164.423 35.8216 164.495 36.0432 164.559C36.2648 164.623 36.4911 164.655 36.7222 164.655C37.0606 164.655 37.306 164.601 37.4584 164.491C37.6109 164.381 37.6872 164.233 37.6872 164.044C37.6872 163.937 37.6562 163.843 37.5943 163.762C37.5347 163.679 37.4334 163.599 37.2905 163.523C37.1475 163.444 36.9498 163.358 36.6972 163.265C36.4471 163.17 36.2303 163.076 36.0468 162.983C35.8657 162.888 35.7252 162.772 35.6251 162.636C35.5274 162.5 35.4786 162.324 35.4786 162.107C35.4786 161.776 35.612 161.522 35.8788 161.346C36.1481 161.167 36.5007 161.078 36.9367 161.078C37.1725 161.078 37.3929 161.102 37.5978 161.15C37.8051 161.195 37.9981 161.257 38.1768 161.335L37.9766 161.811C37.8146 161.742 37.6419 161.683 37.4584 161.636C37.275 161.588 37.088 161.564 36.8974 161.564C36.6234 161.564 36.4125 161.609 36.2648 161.7C36.1195 161.79 36.0468 161.914 36.0468 162.072C36.0468 162.193 36.0802 162.293 36.1469 162.372C36.216 162.45 36.3256 162.524 36.4757 162.593C36.6258 162.662 36.8235 162.743 37.0689 162.836C37.3143 162.927 37.5263 163.021 37.705 163.119C37.8837 163.214 38.0207 163.331 38.116 163.469C38.2137 163.605 38.2626 163.78 38.2626 163.994ZM40.9445 161.078C41.278 161.078 41.5639 161.152 41.8022 161.3C42.0404 161.447 42.2227 161.655 42.349 161.921C42.4753 162.186 42.5384 162.496 42.5384 162.851V163.219H39.833C39.8402 163.679 39.9545 164.029 40.1761 164.269C40.3977 164.51 40.7098 164.63 41.1124 164.63C41.3602 164.63 41.5794 164.608 41.77 164.563C41.9606 164.517 42.1584 164.451 42.3633 164.362V164.884C42.1655 164.972 41.969 165.037 41.7736 165.077C41.5806 165.118 41.3519 165.138 41.0874 165.138C40.711 165.138 40.3822 165.062 40.1011 164.909C39.8223 164.754 39.6055 164.528 39.4506 164.23C39.2958 163.932 39.2183 163.568 39.2183 163.137C39.2183 162.715 39.2886 162.35 39.4292 162.043C39.5721 161.733 39.7723 161.495 40.0296 161.328C40.2893 161.161 40.5942 161.078 40.9445 161.078ZM40.9373 161.564C40.6204 161.564 40.3679 161.668 40.1797 161.875C39.9915 162.082 39.8795 162.372 39.8437 162.743H41.9165C41.9142 162.51 41.8772 162.305 41.8058 162.129C41.7367 161.95 41.6306 161.812 41.4877 161.714C41.3447 161.614 41.1613 161.564 40.9373 161.564ZM45.5455 161.078C45.6241 161.078 45.7063 161.083 45.7921 161.092C45.8779 161.099 45.9541 161.11 46.0208 161.125L45.9458 161.675C45.8815 161.658 45.81 161.645 45.7314 161.636C45.6527 161.626 45.5789 161.621 45.5098 161.621C45.3525 161.621 45.2036 161.653 45.0631 161.718C44.9249 161.78 44.8034 161.87 44.6985 161.989C44.5937 162.106 44.5115 162.248 44.4519 162.415C44.3924 162.579 44.3626 162.762 44.3626 162.965V165.066H43.7658V161.15H44.259L44.3233 161.871H44.3483C44.4293 161.726 44.527 161.594 44.6414 161.475C44.7557 161.353 44.8879 161.257 45.038 161.185C45.1905 161.114 45.3597 161.078 45.5455 161.078Z" fill="#374151"/>
</g>
<path d="M96.0566 149.375C96.0566 149.525 96.1782 149.647 96.3281 149.647C96.4781 149.647 96.5996 149.525 96.5996 149.375L96.0566 149.375ZM96.3281 143.217L96.0566 143.217L96.3281 143.217ZM94.8802 134C94.8802 134.8 95.5284 135.448 96.3281 135.448C97.1278 135.448 97.7761 134.8 97.7761 134C97.7761 133.2 97.1278 132.552 96.3281 132.552C95.5284 132.552 94.8802 133.2 94.8802 134ZM96.5996 149.375L96.5996 143.217L96.0566 143.217L96.0566 149.375L96.5996 149.375ZM96.5996 143.217L96.5996 134L96.0566 134L96.0566 143.217L96.5996 143.217Z" fill="#D1D5DB"/>
<path d="M78.8789 122.575H80.6982C81.501 122.575 82.1045 122.695 82.5088 122.936C82.9131 123.176 83.1152 123.584 83.1152 124.162C83.1152 124.411 83.0669 124.635 82.9702 124.834C82.8765 125.03 82.7388 125.193 82.5571 125.322C82.3755 125.451 82.1514 125.54 81.8848 125.59V125.634C82.166 125.678 82.415 125.758 82.6318 125.875C82.8486 125.993 83.0186 126.157 83.1416 126.368C83.2646 126.579 83.3262 126.847 83.3262 127.172C83.3262 127.567 83.2339 127.901 83.0493 128.174C82.8677 128.446 82.6099 128.653 82.2759 128.793C81.9419 128.931 81.5464 129 81.0894 129H78.8789V122.575ZM79.626 125.331H80.8564C81.416 125.331 81.8027 125.238 82.0166 125.054C82.2334 124.869 82.3418 124.6 82.3418 124.245C82.3418 123.879 82.2129 123.615 81.9551 123.454C81.7002 123.293 81.293 123.212 80.7334 123.212H79.626V125.331ZM79.626 125.959V128.363H80.9619C81.5332 128.363 81.9375 128.251 82.1748 128.029C82.4121 127.803 82.5308 127.5 82.5308 127.119C82.5308 126.876 82.4766 126.668 82.3682 126.495C82.2627 126.322 82.0898 126.19 81.8496 126.1C81.6123 126.006 81.2944 125.959 80.896 125.959H79.626ZM88.8345 124.184V129H88.2368L88.1313 128.323H88.0918C87.9922 128.49 87.8633 128.631 87.7051 128.745C87.5469 128.859 87.3681 128.944 87.1689 129C86.9726 129.059 86.7632 129.088 86.5405 129.088C86.1596 129.088 85.8403 129.026 85.5825 128.903C85.3247 128.78 85.1299 128.59 84.998 128.332C84.8691 128.074 84.8047 127.743 84.8047 127.339V124.184H85.5429V127.286C85.5429 127.687 85.6338 127.988 85.8154 128.187C85.9971 128.383 86.2739 128.481 86.646 128.481C87.0034 128.481 87.2876 128.414 87.4985 128.279C87.7124 128.145 87.8662 127.947 87.9599 127.686C88.0537 127.422 88.1006 127.1 88.1006 126.719V124.184H88.8345ZM89.8867 124.184H90.6689L91.7324 126.979C91.7939 127.143 91.851 127.301 91.9038 127.453C91.9565 127.603 92.0034 127.746 92.0444 127.884C92.0854 128.021 92.1176 128.155 92.1411 128.284H92.1718C92.2129 128.137 92.2714 127.945 92.3476 127.708C92.4238 127.468 92.5058 127.223 92.5937 126.974L93.6001 124.184H94.3867L92.2905 129.708C92.1792 130.003 92.0488 130.261 91.8994 130.481C91.7529 130.701 91.5742 130.869 91.3632 130.986C91.1523 131.106 90.8974 131.167 90.5986 131.167C90.4609 131.167 90.3393 131.158 90.2338 131.14C90.1284 131.125 90.0376 131.108 89.9614 131.087V130.503C90.0258 130.518 90.1035 130.531 90.1943 130.542C90.288 130.554 90.3847 130.56 90.4843 130.56C90.666 130.56 90.8227 130.525 90.9545 130.455C91.0893 130.387 91.205 130.288 91.3017 130.156C91.3984 130.024 91.4819 129.867 91.5522 129.686L91.8159 129.009L89.8867 124.184ZM103.166 129H102.305L98.8027 123.604H98.7675C98.7763 123.747 98.7865 123.911 98.7983 124.096C98.81 124.277 98.8188 124.472 98.8246 124.68C98.8334 124.885 98.8378 125.095 98.8378 125.309V129H98.1435V122.575H99.0004L102.49 127.954H102.52C102.515 127.852 102.507 127.707 102.498 127.519C102.49 127.329 102.481 127.125 102.472 126.908C102.466 126.688 102.463 126.485 102.463 126.297V122.575H103.166V129ZM105.937 129H105.19V122.575H108.767V123.234H105.937V125.59H108.596V126.245H105.937V129ZM112.082 129H111.331V123.234H109.309V122.575H114.095V123.234H112.082V129Z" fill="#9CA3AF"/>
<path d="M97.4512 80.3081C97.4512 80.8032 97.3882 81.2544 97.2622 81.6616C97.1362 82.0659 96.9487 82.4146 96.6997 82.7075C96.4536 82.9976 96.1475 83.2217 95.7812 83.3799C95.415 83.5381 94.9902 83.6172 94.5068 83.6172C94.0088 83.6172 93.5737 83.5381 93.2017 83.3799C92.8325 83.2217 92.5249 82.9961 92.2788 82.7031C92.0356 82.4102 91.8525 82.0601 91.7295 81.6528C91.6094 81.2456 91.5493 80.7944 91.5493 80.2993C91.5493 79.6431 91.6577 79.0674 91.8745 78.5723C92.0913 78.0771 92.4194 77.6919 92.8589 77.4165C93.3013 77.1411 93.855 77.0034 94.52 77.0034C95.1558 77.0034 95.6904 77.1396 96.124 77.4121C96.5605 77.6846 96.8901 78.0684 97.1128 78.5635C97.3384 79.0557 97.4512 79.6372 97.4512 80.3081ZM92.3359 80.3081C92.3359 80.853 92.4136 81.3247 92.5688 81.7231C92.7241 82.1216 92.9614 82.4292 93.2808 82.646C93.603 82.8628 94.0117 82.9712 94.5068 82.9712C95.0049 82.9712 95.4121 82.8628 95.7285 82.646C96.0479 82.4292 96.2837 82.1216 96.436 81.7231C96.5884 81.3247 96.6646 80.853 96.6646 80.3081C96.6646 79.479 96.4902 78.8315 96.1416 78.3657C95.7959 77.897 95.2554 77.6626 94.52 77.6626C94.022 77.6626 93.6118 77.7695 93.2896 77.9834C92.9673 78.1973 92.7271 78.502 92.5688 78.8975C92.4136 79.29 92.3359 79.7603 92.3359 80.3081ZM101.188 79.2842H99.9887V83.5293H99.2593V79.2842H98.4067V78.9326L99.2593 78.6909V78.3701C99.2593 77.9658 99.3193 77.6377 99.4394 77.3857C99.5596 77.1309 99.7339 76.9434 99.9624 76.8232C100.191 76.7031 100.469 76.6431 100.797 76.6431C100.982 76.6431 101.15 76.6592 101.303 76.6914C101.458 76.7236 101.594 76.7603 101.711 76.8013L101.522 77.377C101.423 77.3447 101.31 77.3154 101.184 77.2891C101.061 77.2598 100.935 77.2451 100.806 77.2451C100.528 77.2451 100.321 77.3359 100.187 77.5176C100.055 77.6963 99.9887 77.9775 99.9887 78.3613V78.7129H101.188V79.2842ZM104.216 79.2842H103.017V83.5293H102.287V79.2842H101.435V78.9326L102.287 78.6909V78.3701C102.287 77.9658 102.347 77.6377 102.467 77.3857C102.587 77.1309 102.762 76.9434 102.99 76.8232C103.219 76.7031 103.497 76.6431 103.825 76.6431C104.01 76.6431 104.178 76.6592 104.331 76.6914C104.486 76.7236 104.622 76.7603 104.739 76.8013L104.55 77.377C104.451 77.3447 104.338 77.3154 104.212 77.2891C104.089 77.2598 103.963 77.2451 103.834 77.2451C103.556 77.2451 103.349 77.3359 103.214 77.5176C103.082 77.6963 103.017 77.9775 103.017 78.3613V78.7129H104.216V79.2842ZM108.485 82.2109C108.485 82.5186 108.408 82.7778 108.252 82.9888C108.1 83.1968 107.88 83.3535 107.593 83.459C107.309 83.5645 106.969 83.6172 106.574 83.6172C106.237 83.6172 105.945 83.5908 105.699 83.5381C105.453 83.4854 105.238 83.4106 105.053 83.314V82.6416C105.249 82.7383 105.484 82.8262 105.756 82.9053C106.029 82.9844 106.307 83.0239 106.591 83.0239C107.007 83.0239 107.309 82.9565 107.497 82.8218C107.684 82.687 107.778 82.5039 107.778 82.2725C107.778 82.1406 107.74 82.0249 107.664 81.9253C107.59 81.8228 107.466 81.7246 107.29 81.6309C107.114 81.5342 106.871 81.4287 106.561 81.3145C106.253 81.1973 105.986 81.0815 105.761 80.9673C105.538 80.8501 105.365 80.708 105.242 80.541C105.122 80.374 105.062 80.1572 105.062 79.8906C105.062 79.4834 105.226 79.1714 105.554 78.9546C105.885 78.7349 106.319 78.625 106.855 78.625C107.145 78.625 107.416 78.6543 107.668 78.7129C107.923 78.7686 108.16 78.8447 108.38 78.9414L108.134 79.5259C107.935 79.4409 107.722 79.3691 107.497 79.3105C107.271 79.252 107.041 79.2227 106.807 79.2227C106.47 79.2227 106.21 79.2783 106.029 79.3896C105.85 79.501 105.761 79.6533 105.761 79.8467C105.761 79.9961 105.802 80.1191 105.884 80.2158C105.969 80.3125 106.103 80.4033 106.288 80.4883C106.473 80.5732 106.716 80.6729 107.018 80.7871C107.319 80.8984 107.58 81.0142 107.8 81.1343C108.019 81.2515 108.188 81.395 108.305 81.5649C108.425 81.7319 108.485 81.9473 108.485 82.2109ZM111.783 78.625C112.193 78.625 112.545 78.7158 112.838 78.8975C113.131 79.0791 113.355 79.334 113.51 79.6621C113.665 79.9873 113.743 80.3682 113.743 80.8047V81.2573H110.416C110.425 81.8228 110.566 82.2534 110.838 82.5493C111.111 82.8452 111.495 82.9932 111.99 82.9932C112.294 82.9932 112.564 82.9653 112.798 82.9097C113.033 82.854 113.276 82.772 113.528 82.6636V83.3052C113.285 83.4136 113.043 83.4927 112.803 83.5425C112.565 83.5923 112.284 83.6172 111.959 83.6172C111.496 83.6172 111.092 83.5234 110.746 83.3359C110.403 83.1455 110.137 82.8672 109.946 82.501C109.756 82.1348 109.661 81.6865 109.661 81.1562C109.661 80.6377 109.747 80.1895 109.92 79.8115C110.096 79.4307 110.342 79.1377 110.658 78.9326C110.977 78.7275 111.352 78.625 111.783 78.625ZM111.774 79.2227C111.385 79.2227 111.074 79.3501 110.843 79.605C110.611 79.8599 110.474 80.2158 110.43 80.6729H112.978C112.976 80.3857 112.93 80.1338 112.842 79.917C112.757 79.6973 112.627 79.5273 112.451 79.4072C112.275 79.2842 112.05 79.2227 111.774 79.2227ZM116.808 83.0195C116.928 83.0195 117.051 83.0093 117.177 82.9888C117.303 82.9683 117.406 82.9434 117.485 82.9141V83.481C117.4 83.519 117.281 83.5513 117.129 83.5776C116.979 83.604 116.833 83.6172 116.689 83.6172C116.434 83.6172 116.203 83.5732 115.995 83.4854C115.787 83.3945 115.62 83.2422 115.494 83.0283C115.371 82.8145 115.309 82.5186 115.309 82.1406V79.2842H114.624V78.9282L115.314 78.6426L115.604 77.5967H116.043V78.7129H117.454V79.2842H116.043V82.1187C116.043 82.4204 116.112 82.646 116.25 82.7954C116.391 82.9448 116.577 83.0195 116.808 83.0195ZM124.195 77.6714C123.84 77.6714 123.521 77.7329 123.237 77.856C122.955 77.9761 122.715 78.1519 122.516 78.3833C122.32 78.6118 122.169 78.8887 122.063 79.2139C121.958 79.5391 121.905 79.9053 121.905 80.3125C121.905 80.8516 121.989 81.3203 122.156 81.7187C122.326 82.1143 122.578 82.4204 122.912 82.6372C123.248 82.854 123.669 82.9624 124.173 82.9624C124.46 82.9624 124.729 82.939 124.981 82.8921C125.236 82.8423 125.484 82.7808 125.724 82.7075V83.3579C125.49 83.4458 125.244 83.5103 124.986 83.5513C124.728 83.5952 124.422 83.6172 124.067 83.6172C123.414 83.6172 122.868 83.4824 122.428 83.2129C121.992 82.9404 121.663 82.5566 121.444 82.0615C121.227 81.5664 121.119 80.9819 121.119 80.3081C121.119 79.8218 121.186 79.3779 121.321 78.9766C121.458 78.5723 121.658 78.2236 121.918 77.9307C122.182 77.6377 122.504 77.4121 122.885 77.2539C123.269 77.0928 123.708 77.0122 124.203 77.0122C124.529 77.0122 124.842 77.0444 125.144 77.1089C125.446 77.1733 125.718 77.2656 125.961 77.3857L125.662 78.0186C125.457 77.9248 125.232 77.8442 124.986 77.7769C124.743 77.7065 124.479 77.6714 124.195 77.6714ZM132.959 80.3081C132.959 80.8032 132.896 81.2544 132.77 81.6616C132.644 82.0659 132.457 82.4146 132.208 82.7075C131.962 82.9976 131.656 83.2217 131.289 83.3799C130.923 83.5381 130.498 83.6172 130.015 83.6172C129.517 83.6172 129.082 83.5381 128.71 83.3799C128.341 83.2217 128.033 82.9961 127.787 82.7031C127.544 82.4102 127.361 82.0601 127.238 81.6528C127.118 81.2456 127.057 80.7944 127.057 80.2993C127.057 79.6431 127.166 79.0674 127.383 78.5723C127.599 78.0771 127.928 77.6919 128.367 77.4165C128.809 77.1411 129.363 77.0034 130.028 77.0034C130.664 77.0034 131.199 77.1396 131.632 77.4121C132.069 77.6846 132.398 78.0684 132.621 78.5635C132.847 79.0557 132.959 79.6372 132.959 80.3081ZM127.844 80.3081C127.844 80.853 127.922 81.3247 128.077 81.7231C128.232 82.1216 128.47 82.4292 128.789 82.646C129.111 82.8628 129.52 82.9712 130.015 82.9712C130.513 82.9712 130.92 82.8628 131.237 82.646C131.556 82.4292 131.792 82.1216 131.944 81.7231C132.097 81.3247 132.173 80.853 132.173 80.3081C132.173 79.479 131.998 78.8315 131.65 78.3657C131.304 77.897 130.764 77.6626 130.028 77.6626C129.53 77.6626 129.12 77.7695 128.798 77.9834C128.475 78.1973 128.235 78.502 128.077 78.8975C127.922 79.29 127.844 79.7603 127.844 80.3081ZM138.437 83.5293H134.227V82.9185L135.945 81.1738C136.264 80.8516 136.533 80.5645 136.749 80.3125C136.969 80.0605 137.136 79.813 137.25 79.5698C137.365 79.3237 137.422 79.0542 137.422 78.7612C137.422 78.3979 137.313 78.1211 137.097 77.9307C136.883 77.7373 136.6 77.6406 136.248 77.6406C135.941 77.6406 135.668 77.6934 135.431 77.7988C135.194 77.9043 134.951 78.0537 134.702 78.2471L134.31 77.7549C134.48 77.6113 134.665 77.4839 134.864 77.3726C135.066 77.2612 135.282 77.1733 135.51 77.1089C135.742 77.0444 135.988 77.0122 136.248 77.0122C136.644 77.0122 136.985 77.0811 137.272 77.2187C137.559 77.3564 137.781 77.5527 137.936 77.8076C138.094 78.0625 138.173 78.3657 138.173 78.7173C138.173 79.0571 138.106 79.3735 137.971 79.6665C137.836 79.9565 137.647 80.2451 137.404 80.5322C137.161 80.8164 136.877 81.1182 136.552 81.4375L135.154 82.8306V82.8613H138.437V83.5293Z" fill="#9CA3AF"/>
<path d="M183.32 75H182.573V71.9722H179.198V75H178.451V68.5752H179.198V71.313H182.573V68.5752H183.32V75ZM187.102 70.0957C187.512 70.0957 187.863 70.1865 188.156 70.3682C188.449 70.5498 188.673 70.8047 188.829 71.1328C188.984 71.458 189.062 71.8389 189.062 72.2754V72.728H185.735C185.744 73.2935 185.884 73.7241 186.157 74.02C186.429 74.3159 186.813 74.4639 187.308 74.4639C187.613 74.4639 187.882 74.436 188.117 74.3804C188.351 74.3247 188.594 74.2427 188.846 74.1343V74.7759C188.603 74.8843 188.361 74.9634 188.121 75.0132C187.884 75.063 187.603 75.0879 187.277 75.0879C186.814 75.0879 186.41 74.9941 186.064 74.8066C185.722 74.6162 185.455 74.3379 185.265 73.9717C185.074 73.6055 184.979 73.1572 184.979 72.627C184.979 72.1084 185.065 71.6602 185.238 71.2822C185.414 70.9014 185.66 70.6084 185.977 70.4033C186.296 70.1982 186.671 70.0957 187.102 70.0957ZM187.093 70.6934C186.703 70.6934 186.393 70.8208 186.161 71.0757C185.93 71.3306 185.792 71.6865 185.748 72.1436H188.297C188.294 71.8564 188.249 71.6045 188.161 71.3877C188.076 71.168 187.945 70.998 187.77 70.8779C187.594 70.7549 187.368 70.6934 187.093 70.6934ZM191.305 75H190.571V68.1621H191.305V75ZM195.38 70.0957C195.981 70.0957 196.46 70.3022 196.817 70.7153C197.175 71.1284 197.353 71.7495 197.353 72.5786C197.353 73.1265 197.271 73.5864 197.107 73.9585C196.943 74.3306 196.712 74.6118 196.413 74.8022C196.117 74.9927 195.767 75.0879 195.363 75.0879C195.108 75.0879 194.884 75.0542 194.69 74.9868C194.497 74.9194 194.331 74.8286 194.194 74.7144C194.056 74.6001 193.942 74.4756 193.851 74.3408H193.798C193.807 74.4551 193.817 74.5928 193.829 74.7539C193.844 74.915 193.851 75.0557 193.851 75.1758V77.1533H193.117V70.1836H193.719L193.816 70.8955H193.851C193.945 70.749 194.059 70.6157 194.194 70.4956C194.329 70.3726 194.493 70.2759 194.686 70.2056C194.882 70.1323 195.114 70.0957 195.38 70.0957ZM195.253 70.7109C194.919 70.7109 194.649 70.7754 194.444 70.9043C194.242 71.0332 194.094 71.2266 194 71.4844C193.907 71.7393 193.857 72.0601 193.851 72.4468V72.5874C193.851 72.9946 193.895 73.3389 193.983 73.6201C194.074 73.9014 194.222 74.1152 194.427 74.2617C194.635 74.4082 194.913 74.4814 195.262 74.4814C195.56 74.4814 195.81 74.4009 196.009 74.2397C196.208 74.0786 196.356 73.8545 196.453 73.5674C196.552 73.2773 196.602 72.9448 196.602 72.5698C196.602 72.0015 196.491 71.5503 196.268 71.2163C196.048 70.8794 195.71 70.7109 195.253 70.7109ZM199.627 70.1836V75H198.898V70.1836H199.627ZM199.271 68.3818C199.392 68.3818 199.494 68.4214 199.579 68.5005C199.667 68.5767 199.711 68.6968 199.711 68.8608C199.711 69.022 199.667 69.1421 199.579 69.2212C199.494 69.3003 199.392 69.3398 199.271 69.3398C199.145 69.3398 199.04 69.3003 198.955 69.2212C198.873 69.1421 198.832 69.022 198.832 68.8608C198.832 68.6968 198.873 68.5767 198.955 68.5005C199.04 68.4214 199.145 68.3818 199.271 68.3818ZM203.725 70.0957C204.296 70.0957 204.728 70.2363 205.021 70.5176C205.314 70.7959 205.461 71.2441 205.461 71.8623V75H204.74V71.9106C204.74 71.5093 204.648 71.209 204.463 71.0098C204.282 70.8105 204.002 70.7109 203.624 70.7109C203.091 70.7109 202.716 70.8618 202.499 71.1636C202.282 71.4653 202.174 71.9033 202.174 72.4775V75H201.444V70.1836H202.033L202.143 70.8779H202.183C202.285 70.708 202.415 70.5659 202.574 70.4517C202.732 70.3345 202.909 70.2466 203.105 70.188C203.302 70.1265 203.508 70.0957 203.725 70.0957ZM208.578 77.1621C207.946 77.1621 207.458 77.0435 207.115 76.8062C206.772 76.5718 206.601 76.2422 206.601 75.8174C206.601 75.5156 206.696 75.2578 206.887 75.0439C207.08 74.8301 207.347 74.688 207.686 74.6177C207.56 74.5591 207.452 74.4712 207.361 74.354C207.273 74.2368 207.229 74.1021 207.229 73.9497C207.229 73.7739 207.278 73.6201 207.374 73.4883C207.474 73.3535 207.625 73.2246 207.827 73.1016C207.575 72.999 207.37 72.8262 207.212 72.583C207.057 72.3369 206.979 72.0513 206.979 71.7261C206.979 71.3804 207.051 71.0859 207.194 70.8428C207.338 70.5967 207.546 70.4092 207.818 70.2803C208.091 70.1514 208.42 70.0869 208.807 70.0869C208.892 70.0869 208.977 70.0913 209.062 70.1001C209.15 70.106 209.233 70.1162 209.312 70.1309C209.391 70.1426 209.46 70.1572 209.519 70.1748H211.171V70.645L210.284 70.7549C210.371 70.8691 210.445 71.0068 210.503 71.168C210.562 71.3291 210.591 71.5078 210.591 71.7041C210.591 72.1846 210.429 72.5669 210.103 72.8511C209.778 73.1323 209.331 73.2729 208.763 73.2729C208.628 73.2729 208.491 73.2612 208.35 73.2378C208.206 73.3169 208.097 73.4048 208.02 73.5015C207.947 73.5981 207.911 73.7095 207.911 73.8354C207.911 73.9292 207.938 74.0039 207.994 74.0596C208.053 74.1152 208.136 74.1562 208.245 74.1826C208.353 74.2061 208.483 74.2178 208.636 74.2178H209.484C210.008 74.2178 210.41 74.3276 210.688 74.5474C210.969 74.7671 211.11 75.0879 211.11 75.5098C211.11 76.043 210.893 76.4517 210.459 76.7358C210.026 77.02 209.399 77.1621 208.578 77.1621ZM208.6 76.5908C208.999 76.5908 209.328 76.5498 209.589 76.4678C209.853 76.3887 210.049 76.2729 210.178 76.1206C210.31 75.9712 210.376 75.7925 210.376 75.5845C210.376 75.3911 210.332 75.2446 210.244 75.145C210.156 75.0483 210.027 74.9839 209.857 74.9517C209.687 74.9165 209.479 74.8989 209.233 74.8989H208.398C208.182 74.8989 207.993 74.9326 207.831 75C207.67 75.0674 207.546 75.167 207.458 75.2988C207.373 75.4307 207.33 75.5947 207.33 75.791C207.33 76.0518 207.44 76.2495 207.66 76.3843C207.88 76.522 208.193 76.5908 208.6 76.5908ZM208.789 72.7412C209.138 72.7412 209.4 72.6533 209.576 72.4775C209.752 72.3018 209.84 72.0454 209.84 71.7085C209.84 71.3481 209.75 71.0786 209.572 70.8999C209.393 70.7183 209.129 70.6274 208.781 70.6274C208.447 70.6274 208.189 70.7212 208.007 70.9087C207.828 71.0933 207.739 71.3643 207.739 71.7217C207.739 72.0498 207.83 72.3018 208.012 72.4775C208.193 72.6533 208.453 72.7412 208.789 72.7412ZM217.279 70.0957C217.85 70.0957 218.283 70.2363 218.576 70.5176C218.868 70.7959 219.015 71.2441 219.015 71.8623V75H218.294V71.9106C218.294 71.5093 218.202 71.209 218.017 71.0098C217.836 70.8105 217.556 70.7109 217.178 70.7109C216.645 70.7109 216.27 70.8618 216.053 71.1636C215.836 71.4653 215.728 71.9033 215.728 72.4775V75H214.998V70.1836H215.587L215.697 70.8779H215.737C215.839 70.708 215.97 70.5659 216.128 70.4517C216.286 70.3345 216.463 70.2466 216.66 70.188C216.856 70.1265 217.062 70.0957 217.279 70.0957ZM222.59 70.1045C223.164 70.1045 223.59 70.2334 223.868 70.4912C224.147 70.749 224.286 71.1606 224.286 71.7261V75H223.754L223.614 74.2881H223.578C223.444 74.4639 223.303 74.6118 223.157 74.7319C223.01 74.8491 222.84 74.9385 222.647 75C222.456 75.0586 222.222 75.0879 221.944 75.0879C221.651 75.0879 221.39 75.0366 221.161 74.9341C220.936 74.8315 220.757 74.6763 220.625 74.4683C220.496 74.2603 220.432 73.9966 220.432 73.6772C220.432 73.1968 220.622 72.8276 221.003 72.5698C221.384 72.312 221.964 72.1714 222.743 72.1479L223.574 72.1128V71.8184C223.574 71.4023 223.485 71.1108 223.306 70.9438C223.127 70.7769 222.875 70.6934 222.55 70.6934C222.298 70.6934 222.058 70.73 221.829 70.8032C221.601 70.8765 221.384 70.9629 221.179 71.0625L220.955 70.5088C221.172 70.3975 221.421 70.3022 221.702 70.2231C221.983 70.144 222.279 70.1045 222.59 70.1045ZM223.565 72.627L222.831 72.6577C222.231 72.6812 221.807 72.7793 221.561 72.9521C221.315 73.125 221.192 73.3696 221.192 73.686C221.192 73.9614 221.276 74.165 221.443 74.2969C221.61 74.4287 221.831 74.4946 222.106 74.4946C222.534 74.4946 222.884 74.376 223.157 74.1387C223.429 73.9014 223.565 73.5454 223.565 73.0708V72.627ZM227.615 74.4902C227.735 74.4902 227.858 74.48 227.984 74.4595C228.11 74.439 228.212 74.4141 228.291 74.3848V74.9517C228.206 74.9897 228.088 75.022 227.935 75.0483C227.786 75.0747 227.639 75.0879 227.496 75.0879C227.241 75.0879 227.01 75.0439 226.802 74.9561C226.594 74.8652 226.427 74.7129 226.301 74.499C226.178 74.2852 226.116 73.9893 226.116 73.6113V70.7549H225.43V70.3989L226.12 70.1133L226.41 69.0674H226.85V70.1836H228.261V70.7549H226.85V73.5894C226.85 73.8911 226.919 74.1167 227.056 74.2661C227.197 74.4155 227.383 74.4902 227.615 74.4902ZM233.514 70.1836V75H232.916L232.811 74.3232H232.771C232.672 74.4902 232.543 74.6309 232.385 74.7451C232.226 74.8594 232.048 74.9443 231.848 75C231.652 75.0586 231.443 75.0879 231.22 75.0879C230.839 75.0879 230.52 75.0264 230.262 74.9033C230.004 74.7803 229.809 74.5898 229.678 74.332C229.549 74.0742 229.484 73.7432 229.484 73.3389V70.1836H230.222V73.2861C230.222 73.6875 230.313 73.9878 230.495 74.187C230.677 74.3833 230.953 74.4814 231.325 74.4814C231.683 74.4814 231.967 74.4141 232.178 74.2793C232.392 74.1445 232.546 73.9468 232.639 73.686C232.733 73.4224 232.78 73.1001 232.78 72.7192V70.1836H233.514ZM237.515 70.0957C237.612 70.0957 237.713 70.1016 237.818 70.1133C237.924 70.1221 238.017 70.1353 238.099 70.1528L238.007 70.8296C237.928 70.8091 237.84 70.793 237.743 70.7812C237.647 70.7695 237.556 70.7637 237.471 70.7637C237.278 70.7637 237.094 70.8032 236.922 70.8823C236.752 70.9585 236.602 71.0698 236.473 71.2163C236.344 71.3599 236.243 71.5342 236.17 71.7393C236.097 71.9414 236.06 72.167 236.06 72.416V75H235.326V70.1836H235.933L236.012 71.0713H236.043C236.142 70.8926 236.262 70.73 236.403 70.5835C236.544 70.4341 236.706 70.3154 236.891 70.2275C237.078 70.1396 237.286 70.0957 237.515 70.0957ZM241.134 70.0957C241.544 70.0957 241.895 70.1865 242.188 70.3682C242.481 70.5498 242.705 70.8047 242.861 71.1328C243.016 71.458 243.093 71.8389 243.093 72.2754V72.728H239.767C239.776 73.2935 239.916 73.7241 240.189 74.02C240.461 74.3159 240.845 74.4639 241.34 74.4639C241.645 74.4639 241.914 74.436 242.149 74.3804C242.383 74.3247 242.626 74.2427 242.878 74.1343V74.7759C242.635 74.8843 242.393 74.9634 242.153 75.0132C241.916 75.063 241.635 75.0879 241.309 75.0879C240.846 75.0879 240.442 74.9941 240.096 74.8066C239.754 74.6162 239.487 74.3379 239.297 73.9717C239.106 73.6055 239.011 73.1572 239.011 72.627C239.011 72.1084 239.097 71.6602 239.27 71.2822C239.446 70.9014 239.692 70.6084 240.009 70.4033C240.328 70.1982 240.703 70.0957 241.134 70.0957ZM241.125 70.6934C240.735 70.6934 240.425 70.8208 240.193 71.0757C239.962 71.3306 239.824 71.6865 239.78 72.1436H242.329C242.326 71.8564 242.281 71.6045 242.193 71.3877C242.108 71.168 241.977 70.998 241.801 70.8779C241.626 70.7549 241.4 70.6934 241.125 70.6934Z" fill="#9CA3AF"/>
<path d="M171.164 198.1L169.006 192.413H168.971C168.982 192.533 168.993 192.68 169.001 192.853C169.01 193.025 169.018 193.214 169.023 193.419C169.029 193.622 169.032 193.828 169.032 194.039V198.1H168.338V191.675H169.445L171.48 197.019H171.511L173.576 191.675H174.675V198.1H173.937V193.986C173.937 193.796 173.939 193.605 173.945 193.415C173.951 193.222 173.958 193.04 173.967 192.87C173.976 192.697 173.985 192.548 173.994 192.422H173.958L171.774 198.1H171.164ZM177.322 193.283V198.1H176.593V193.283H177.322ZM176.966 191.481C177.086 191.481 177.189 191.521 177.274 191.6C177.362 191.676 177.406 191.796 177.406 191.96C177.406 192.122 177.362 192.242 177.274 192.321C177.189 192.4 177.086 192.439 176.966 192.439C176.84 192.439 176.735 192.4 176.65 192.321C176.568 192.242 176.527 192.122 176.527 191.96C176.527 191.796 176.568 191.676 176.65 191.6C176.735 191.521 176.84 191.481 176.966 191.481ZM181.42 193.195C181.991 193.195 182.423 193.336 182.716 193.617C183.009 193.896 183.156 194.344 183.156 194.962V198.1H182.435V195.01C182.435 194.609 182.343 194.309 182.158 194.109C181.977 193.91 181.697 193.811 181.319 193.811C180.786 193.811 180.411 193.961 180.194 194.263C179.977 194.565 179.869 195.003 179.869 195.577V198.1H179.139V193.283H179.728L179.838 193.978H179.877C179.98 193.808 180.11 193.666 180.269 193.551C180.427 193.434 180.604 193.346 180.8 193.288C180.997 193.226 181.203 193.195 181.42 193.195ZM186.484 197.59C186.604 197.59 186.727 197.58 186.853 197.559C186.979 197.539 187.082 197.514 187.161 197.484V198.051C187.076 198.089 186.957 198.122 186.805 198.148C186.656 198.174 186.509 198.187 186.366 198.187C186.111 198.187 185.879 198.144 185.671 198.056C185.463 197.965 185.296 197.812 185.17 197.599C185.047 197.385 184.986 197.089 184.986 196.711V193.854H184.3V193.499L184.99 193.213L185.28 192.167H185.72V193.283H187.13V193.854H185.72V196.689C185.72 196.991 185.789 197.216 185.926 197.366C186.067 197.515 186.253 197.59 186.484 197.59ZM196.147 198.1H195.286L191.784 192.703H191.748C191.757 192.847 191.767 193.011 191.779 193.195C191.791 193.377 191.8 193.572 191.806 193.78C191.814 193.985 191.819 194.194 191.819 194.408V198.1H191.124V191.675H191.981L195.471 197.054H195.501C195.496 196.951 195.488 196.806 195.479 196.619C195.471 196.428 195.462 196.225 195.453 196.008C195.447 195.788 195.444 195.584 195.444 195.397V191.675H196.147V198.1ZM198.918 198.1H198.171V191.675H201.748V192.334H198.918V194.689H201.577V195.344H198.918V198.1ZM205.063 198.1H204.312V192.334H202.29V191.675H207.076V192.334H205.063V198.1Z" fill="#9CA3AF"/>
<path d="M21.5044 241.457C21.5044 241.837 21.4092 242.163 21.2187 242.432C21.0312 242.699 20.7676 242.902 20.4277 243.043C20.0879 243.184 19.688 243.254 19.228 243.254C18.9849 243.254 18.7549 243.242 18.5381 243.219C18.3213 243.195 18.1221 243.162 17.9404 243.118C17.7588 243.074 17.5991 243.02 17.4614 242.955V242.239C17.6812 242.33 17.9492 242.415 18.2656 242.494C18.582 242.57 18.9131 242.608 19.2588 242.608C19.5811 242.608 19.8535 242.565 20.0762 242.48C20.2988 242.393 20.4673 242.268 20.5815 242.107C20.6987 241.943 20.7573 241.747 20.7573 241.518C20.7573 241.298 20.709 241.115 20.6123 240.969C20.5156 240.819 20.3545 240.685 20.1289 240.564C19.9062 240.441 19.6016 240.311 19.2148 240.173C18.9424 240.077 18.7021 239.971 18.4941 239.857C18.2861 239.74 18.1118 239.608 17.9712 239.461C17.8306 239.315 17.7236 239.145 17.6504 238.952C17.5801 238.758 17.5449 238.537 17.5449 238.288C17.5449 237.945 17.6313 237.652 17.8042 237.409C17.98 237.163 18.2217 236.976 18.5293 236.847C18.8398 236.715 19.1958 236.649 19.5972 236.649C19.9399 236.649 20.2563 236.681 20.5464 236.746C20.8394 236.81 21.1074 236.896 21.3506 237.005L21.1177 237.646C20.8862 237.55 20.6401 237.469 20.3794 237.405C20.1216 237.34 19.855 237.308 19.5796 237.308C19.3042 237.308 19.0713 237.349 18.8809 237.431C18.6934 237.51 18.5498 237.623 18.4502 237.77C18.3506 237.916 18.3008 238.09 18.3008 238.292C18.3008 238.518 18.3477 238.706 18.4414 238.855C18.5381 239.004 18.6904 239.138 18.8984 239.255C19.1094 239.369 19.3877 239.489 19.7334 239.615C20.1113 239.753 20.4321 239.899 20.6958 240.055C20.9595 240.207 21.1602 240.395 21.2979 240.617C21.4355 240.837 21.5044 241.117 21.5044 241.457ZM24.833 238.262C25.2431 238.262 25.5947 238.353 25.8877 238.534C26.1806 238.716 26.4048 238.971 26.56 239.299C26.7153 239.624 26.7929 240.005 26.7929 240.441V240.894H23.4663C23.4751 241.459 23.6157 241.89 23.8882 242.186C24.1606 242.482 24.5444 242.63 25.0395 242.63C25.3442 242.63 25.6137 242.602 25.8481 242.546C26.0825 242.491 26.3257 242.409 26.5776 242.3V242.942C26.3345 243.05 26.0928 243.129 25.8525 243.179C25.6152 243.229 25.334 243.254 25.0088 243.254C24.5459 243.254 24.1416 243.16 23.7959 242.973C23.4531 242.782 23.1865 242.504 22.9961 242.138C22.8056 241.771 22.7104 241.323 22.7104 240.793C22.7104 240.274 22.7969 239.826 22.9697 239.448C23.1455 239.067 23.3916 238.774 23.708 238.569C24.0273 238.364 24.4023 238.262 24.833 238.262ZM24.8242 238.859C24.4346 238.859 24.124 238.987 23.8926 239.242C23.6611 239.497 23.5234 239.853 23.4795 240.31H26.0283C26.0254 240.022 25.98 239.771 25.8921 239.554C25.8071 239.334 25.6767 239.164 25.501 239.044C25.3252 238.921 25.0996 238.859 24.8242 238.859ZM30.583 238.262C31.1543 238.262 31.5864 238.402 31.8794 238.684C32.1723 238.962 32.3188 239.41 32.3188 240.028V243.166H31.5981V240.077C31.5981 239.675 31.5058 239.375 31.3212 239.176C31.1396 238.977 30.8598 238.877 30.4819 238.877C29.9487 238.877 29.5737 239.028 29.3569 239.33C29.1401 239.631 29.0317 240.069 29.0317 240.644V243.166H28.3022V238.35H28.8911L29.0009 239.044H29.0405C29.143 238.874 29.2734 238.732 29.4316 238.618C29.5898 238.5 29.767 238.413 29.9633 238.354C30.1596 238.292 30.3662 238.262 30.583 238.262ZM35.8056 243.254C35.1962 243.254 34.7128 243.046 34.3554 242.63C34.0009 242.214 33.8237 241.596 33.8237 240.775C33.8237 239.946 34.0053 239.321 34.3686 238.899C34.7319 238.474 35.2153 238.262 35.8188 238.262C36.0737 238.262 36.2963 238.295 36.4868 238.363C36.6772 238.43 36.8412 238.521 36.9789 238.635C37.1166 238.747 37.2324 238.874 37.3261 239.018H37.3788C37.3671 238.927 37.3554 238.802 37.3437 238.644C37.332 238.486 37.3261 238.357 37.3261 238.257V236.328H38.0556V243.166H37.4667L37.3569 242.48H37.3261C37.2353 242.624 37.1196 242.754 36.9789 242.872C36.8412 242.989 36.6757 243.083 36.4824 243.153C36.2919 243.22 36.0663 243.254 35.8056 243.254ZM35.9199 242.647C36.4355 242.647 36.8002 242.501 37.0141 242.208C37.228 241.915 37.3349 241.48 37.3349 240.903V240.771C37.3349 240.159 37.2324 239.688 37.0273 239.36C36.8251 239.032 36.456 238.868 35.9199 238.868C35.4716 238.868 35.1362 239.041 34.9135 239.387C34.6909 239.729 34.5795 240.198 34.5795 240.793C34.5795 241.385 34.6894 241.842 34.9091 242.164C35.1318 242.486 35.4687 242.647 35.9199 242.647ZM47.6132 243.166H46.7519L43.2494 237.77H43.2143C43.223 237.913 43.2333 238.077 43.245 238.262C43.2567 238.443 43.2655 238.638 43.2714 238.846C43.2802 239.051 43.2846 239.261 43.2846 239.475V243.166H42.5902V236.741H43.4472L46.9364 242.12H46.9672C46.9613 242.018 46.954 241.873 46.9452 241.685C46.9364 241.495 46.9276 241.291 46.9188 241.074C46.913 240.854 46.9101 240.651 46.9101 240.463V236.741H47.6132V243.166ZM50.3837 243.166H49.6366V236.741H53.2137V237.4H50.3837V239.756H53.0424V240.411H50.3837V243.166ZM56.5292 243.166H55.7777V237.4H53.7562V236.741H58.5419V237.4H56.5292V243.166Z" fill="#9CA3AF"/>
<path d="M153.183 213.229C153.062 213.318 153.036 213.487 153.125 213.608C153.214 213.729 153.384 213.755 153.504 213.666L153.183 213.229ZM166.647 203.674V203.402H166.558L166.486 203.455L166.647 203.674ZM203.052 203.674C203.052 204.474 203.7 205.122 204.5 205.122C205.3 205.122 205.948 204.474 205.948 203.674C205.948 202.874 205.3 202.226 204.5 202.226C203.7 202.226 203.052 202.874 203.052 203.674ZM153.504 213.666L166.808 203.893L166.486 203.455L153.183 213.229L153.504 213.666ZM166.647 203.945H204.5V203.402H166.647V203.945Z" fill="#D1D5DB"/>
<path d="M153.772 98.6585C153.893 98.7472 153.919 98.9172 153.83 99.038C153.741 99.1588 153.571 99.1848 153.451 99.096L153.772 98.6585ZM140.308 89.1035V88.832H140.397L140.469 88.8847L140.308 89.1035ZM94.448 89.1035C94.448 89.9032 93.7997 90.5515 93 90.5515C92.2003 90.5515 91.552 89.9032 91.552 89.1035C91.552 88.3038 92.2003 87.6556 93 87.6556C93.7997 87.6556 94.448 88.3038 94.448 89.1035ZM153.451 99.096L140.147 89.3223L140.469 88.8847L153.772 98.6585L153.451 99.096ZM140.308 89.375H93V88.832H140.308V89.375Z" fill="#D1D5DB"/>
<path d="M73.6842 239.343C73.805 239.254 73.831 239.084 73.7422 238.963C73.6535 238.842 73.4835 238.816 73.3627 238.905L73.6842 239.343ZM60.2203 248.897V249.169H60.3093L60.3811 249.116L60.2203 248.897ZM19.8793 248.897C19.8793 248.098 19.2311 247.45 18.4314 247.45C17.6317 247.45 16.9834 248.098 16.9834 248.897C16.9834 249.697 17.6317 250.345 18.4314 250.345C19.2311 250.345 19.8793 249.697 19.8793 248.897ZM73.3627 238.905L60.0596 248.679L60.3811 249.116L73.6842 239.343L73.3627 238.905ZM60.2203 248.626H18.4314V249.169H60.2203V248.626Z" fill="#D1D5DB"/>
<defs>
<filter id="filter0_d_0_1" x="114.246" y="228.652" width="75.2445" height="75.2445" filterUnits="userSpaceOnUse" color-interpolation-filters="sRGB">
<feFlood flood-opacity="0" result="BackgroundImageFix"/>
<feColorMatrix in="SourceAlpha" type="matrix" values="0 0 0 0 0 0 0 0 0 0 0 0 0 0 0 0 0 0 127 0" result="hardAlpha"/>
<feOffset dy="2.17194"/>
<feGaussianBlur stdDeviation="3.25791"/>
<feComposite in2="hardAlpha" operator="out"/>
<feColorMatrix type="matrix" values="0 0 0 0 0 0 0 0 0 0 0 0 0 0 0 0 0 0 0.05 0"/>
<feBlend mode="normal" in2="BackgroundImageFix" result="effect1_dropShadow_0_1"/>
<feBlend mode="normal" in="SourceGraphic" in2="effect1_dropShadow_0_1" result="shape"/>
</filter>
<filter id="filter1_d_0_1" x="114.246" y="0.0555351" width="75.2445" height="75.2445" filterUnits="userSpaceOnUse" color-interpolation-filters="sRGB">
<feFlood flood-opacity="0" result="BackgroundImageFix"/>
<feColorMatrix in="SourceAlpha" type="matrix" values="0 0 0 0 0 0 0 0 0 0 0 0 0 0 0 0 0 0 127 0" result="hardAlpha"/>
<feOffset dy="2.17194"/>
<feGaussianBlur stdDeviation="3.25791"/>
<feComposite in2="hardAlpha" operator="out"/>
<feColorMatrix type="matrix" values="0 0 0 0 0 0 0 0 0 0 0 0 0 0 0 0 0 0 0.05 0"/>
<feBlend mode="normal" in2="BackgroundImageFix" result="effect1_dropShadow_0_1"/>
<feBlend mode="normal" in="SourceGraphic" in2="effect1_dropShadow_0_1" result="shape"/>
</filter>
<filter id="filter2_d_0_1" x="228.271" y="0.0555351" width="75.2445" height="75.2445" filterUnits="userSpaceOnUse" color-interpolation-filters="sRGB">
<feFlood flood-opacity="0" result="BackgroundImageFix"/>
<feColorMatrix in="SourceAlpha" type="matrix" values="0 0 0 0 0 0 0 0 0 0 0 0 0 0 0 0 0 0 127 0" result="hardAlpha"/>
<feOffset dy="2.17194"/>
<feGaussianBlur stdDeviation="3.25791"/>
<feComposite in2="hardAlpha" operator="out"/>
<feColorMatrix type="matrix" values="0 0 0 0 0 0 0 0 0 0 0 0 0 0 0 0 0 0 0.05 0"/>
<feBlend mode="normal" in2="BackgroundImageFix" result="effect1_dropShadow_0_1"/>
<feBlend mode="normal" in="SourceGraphic" in2="effect1_dropShadow_0_1" result="shape"/>
</filter>
<filter id="filter3_d_0_1" x="114.246" y="114.083" width="75.2445" height="75.2445" filterUnits="userSpaceOnUse" color-interpolation-filters="sRGB">
<feFlood flood-opacity="0" result="BackgroundImageFix"/>
<feColorMatrix in="SourceAlpha" type="matrix" values="0 0 0 0 0 0 0 0 0 0 0 0 0 0 0 0 0 0 127 0" result="hardAlpha"/>
<feOffset dy="2.17194"/>
<feGaussianBlur stdDeviation="3.25791"/>
<feComposite in2="hardAlpha" operator="out"/>
<feColorMatrix type="matrix" values="0 0 0 0 0 0 0 0 0 0 0 0 0 0 0 0 0 0 0.05 0"/>
<feBlend mode="normal" in2="BackgroundImageFix" result="effect1_dropShadow_0_1"/>
<feBlend mode="normal" in="SourceGraphic" in2="effect1_dropShadow_0_1" result="shape"/>
</filter>
<filter id="filter4_d_0_1" x="0.218556" y="114.627" width="75.2445" height="75.2445" filterUnits="userSpaceOnUse" color-interpolation-filters="sRGB">
<feFlood flood-opacity="0" result="BackgroundImageFix"/>
<feColorMatrix in="SourceAlpha" type="matrix" values="0 0 0 0 0 0 0 0 0 0 0 0 0 0 0 0 0 0 127 0" result="hardAlpha"/>
<feOffset dy="2.17194"/>
<feGaussianBlur stdDeviation="3.25791"/>
<feComposite in2="hardAlpha" operator="out"/>
<feColorMatrix type="matrix" values="0 0 0 0 0 0 0 0 0 0 0 0 0 0 0 0 0 0 0.05 0"/>
<feBlend mode="normal" in2="BackgroundImageFix" result="effect1_dropShadow_0_1"/>
<feBlend mode="normal" in="SourceGraphic" in2="effect1_dropShadow_0_1" result="shape"/>
</filter>
<linearGradient id="paint0_linear_0_1" x1="151.867" y1="248.693" x2="151.867" y2="264.281" gradientUnits="userSpaceOnUse">
<stop stop-color="#F5CB98"/>
<stop offset="0.513542" stop-color="#F89CB9"/>
<stop offset="1" stop-color="#D476D0"/>
</linearGradient>
<linearGradient id="paint1_linear_0_1" x1="140.267" y1="141.862" x2="162.609" y2="141.862" gradientUnits="userSpaceOnUse">
<stop stop-color="#365BE0"/>
<stop offset="0.508265" stop-color="#D676CF"/>
<stop offset="1" stop-color="#FFE884"/>
</linearGradient>
<linearGradient id="paint2_linear_0_1" x1="37.8402" y1="132.089" x2="37.8402" y2="152.722" gradientUnits="userSpaceOnUse">
<stop stop-color="#1CC7B6"/>
<stop offset="0.482292" stop-color="#3185D5"/>
<stop offset="1" stop-color="#6062DC"/>
</linearGradient>
<clipPath id="clip0_0_1">
<rect width="48.8686" height="9.28908" fill="white" transform="translate(127.434 30.8613)"/>
</clipPath>
</defs>
</svg>
