<svg width="20" height="18" viewBox="0 0 20 18" fill="none" xmlns="http://www.w3.org/2000/svg">
<path d="M3.54338 16.7395C2.28764 15.4687 1.43691 13.8541 1.0988 12.0999C0.760682 10.3456 0.950356 8.53051 1.64383 6.88405C2.33731 5.2376 3.50345 3.83375 4.99478 2.85005C6.48611 1.86635 8.23565 1.34696 10.0222 1.35758C11.8087 1.3682 13.5519 1.90834 15.0314 2.9097C16.511 3.91106 17.6603 5.32867 18.3342 6.98325C19.0081 8.63784 19.1761 10.4551 18.8172 12.2052C18.4582 13.9553 17.5884 15.5597 16.3176 16.8154" stroke="#9CA3AF" stroke-width="1.4" stroke-linecap="round"/>
<path d="M15.0312 2.91016C16.5108 3.91152 17.6601 5.32912 18.334 6.98371C19.0079 8.63829 19.1759 10.4555 18.817 12.2057C18.4581 13.9558 17.5882 15.5601 16.3174 16.8159" stroke="#F3F4F6" stroke-width="1.4" stroke-linecap="round"/>
<circle cx="14.8792" cy="2.78156" r="0.814039" fill="white" stroke="#4B5563" stroke-width="0.0561406"/>
<path d="M7.08789 10.6284C7.76668 10.4152 8.17898 9.99786 8.7009 10.0864C9.2037 10.1718 9.28315 10.6877 8.99152 10.92C8.95833 10.9029 8.92414 10.8858 8.89196 10.8697C8.85174 10.8506 8.81151 10.8325 8.77129 10.8154C8.71196 10.7631 8.66671 10.6998 8.63151 10.6415C8.58425 10.559 8.55408 10.4816 8.53396 10.4182C8.49374 10.2895 8.4867 10.2151 8.4857 10.2151C8.4867 10.2151 8.48368 10.2915 8.51385 10.4273C8.52894 10.4946 8.55307 10.5761 8.59631 10.6656C8.61341 10.6998 8.63553 10.736 8.65967 10.7722C8.55106 10.732 8.44748 10.7008 8.34893 10.6777C8.34893 10.6777 8.33083 10.6686 8.32178 10.6686C8.19708 10.6123 8.13071 10.5037 8.09451 10.4303C8.05228 10.3428 8.03417 10.2915 8.03317 10.2925C8.03417 10.2925 8.04322 10.3468 8.0754 10.4413C8.0925 10.4886 8.11664 10.5459 8.16088 10.6042C8.17194 10.6183 8.18401 10.6334 8.19809 10.6475C8.16692 10.6425 8.13675 10.6374 8.10758 10.6344C7.88534 10.6063 7.71137 10.6173 7.59673 10.6304C7.48109 10.6435 7.42276 10.6586 7.42276 10.6575C7.42276 10.6575 7.4841 10.6495 7.60176 10.6455C7.71841 10.6425 7.89238 10.6455 8.1096 10.6897C8.11663 10.6907 8.12468 10.6927 8.13172 10.6948C8.1106 10.7008 8.08948 10.7068 8.06937 10.7139C7.99194 10.741 7.92959 10.7752 7.88333 10.8084C7.7888 10.8768 7.7707 10.9431 7.7697 10.9411C7.7697 10.9421 7.79886 10.8798 7.89741 10.8255C7.94568 10.7983 8.00903 10.7722 8.08546 10.7531C8.13976 10.74 8.20312 10.7279 8.26748 10.7269C8.39217 10.7621 8.52793 10.8104 8.66872 10.8758C8.60536 10.8878 8.54704 10.9069 8.49877 10.9321C8.39117 10.9854 8.31172 11.0497 8.24938 11.103C8.12669 11.2116 8.06736 11.278 8.06635 11.277C8.06635 11.277 8.13574 11.2167 8.26647 11.1181C8.33284 11.0698 8.4153 11.0125 8.52089 10.9693C8.5933 10.9391 8.67877 10.921 8.76827 10.925C8.79744 10.9401 8.8266 10.9552 8.85576 10.9713C8.90403 10.9984 8.9523 11.0276 9.00158 11.0588C9.07096 11.3554 8.82861 11.7426 8.36703 11.6642C8.02512 11.6058 7.70132 10.8466 7.0889 10.6304L7.08789 10.6284Z" fill="#9CA3AF"/>
<path d="M9.97744 14.3484H10.5476C10.1675 13.9723 10.3193 12.0234 10.2399 11.1203C10.2198 10.8941 10.1947 10.6759 10.1605 10.4647C10.1233 10.2515 10.084 10.0604 10.0458 9.86936C9.96939 9.49024 9.88492 9.14331 9.78939 8.8376C9.60134 8.22317 9.36603 7.77668 9.17898 7.49712C8.99093 7.21655 8.86422 7.09185 8.86724 7.08984C8.86523 7.09085 8.97484 7.2246 9.13272 7.5112C9.2896 7.7978 9.48067 8.24429 9.61944 8.85067C9.68983 9.15336 9.74816 9.49527 9.79844 9.87338L9.87285 10.4657C9.89397 10.6678 9.90503 10.881 9.91207 11.1043C9.93822 11.9952 10.0056 13.201 9.97744 14.3464V14.3484Z" fill="#9CA3AF"/>
<path d="M13.0019 7.53516C12.1049 7.69907 11.3878 7.47281 10.8488 7.88511C10.3299 8.28233 10.5482 8.91586 11.0178 9.00436C11.0449 8.96413 11.0731 8.92592 11.1013 8.88771C11.1354 8.84145 11.1706 8.7972 11.2058 8.75497C11.242 8.65943 11.2561 8.56189 11.2601 8.4744C11.2652 8.35272 11.2521 8.24713 11.237 8.16165C11.2058 7.9917 11.1686 7.90321 11.1696 7.9022C11.1686 7.9022 11.2179 7.98869 11.2652 8.15964C11.2883 8.24512 11.3104 8.35171 11.3144 8.47842C11.3154 8.5277 11.3124 8.582 11.3054 8.63731C11.4039 8.52669 11.5035 8.42915 11.601 8.34467C11.601 8.34467 11.6161 8.32356 11.6272 8.31752C11.7348 8.17875 11.7448 8.01685 11.7418 7.91226C11.7368 7.78757 11.7267 7.71918 11.7288 7.71918C11.7277 7.71918 11.7499 7.78656 11.77 7.91327C11.779 7.97662 11.7861 8.05606 11.77 8.14858C11.766 8.17171 11.7609 8.19484 11.7529 8.21998C11.7851 8.19484 11.8162 8.17171 11.8474 8.15059C12.0827 7.98567 12.2859 7.89416 12.4246 7.84086C12.5634 7.78656 12.6388 7.76846 12.6378 7.76745C12.6378 7.76745 12.5624 7.7946 12.4277 7.86097C12.2929 7.92734 12.0978 8.03595 11.8786 8.21495C11.8716 8.22098 11.8645 8.22802 11.8565 8.23406C11.8846 8.22802 11.9118 8.223 11.9379 8.21897C12.0425 8.20389 12.134 8.20389 12.2064 8.21495C12.3542 8.23607 12.4146 8.30043 12.4146 8.29741C12.4146 8.29942 12.3452 8.24612 12.2004 8.24311C12.129 8.2411 12.0425 8.25015 11.945 8.27328C11.8766 8.29138 11.7971 8.31551 11.7237 8.35272C11.6031 8.46635 11.4784 8.60312 11.3577 8.761C11.4361 8.73686 11.5136 8.72379 11.5839 8.72279C11.7378 8.71876 11.8665 8.7439 11.9691 8.76703C12.1732 8.81731 12.2808 8.85653 12.2808 8.85452C12.2808 8.85653 12.1662 8.82737 11.959 8.79318C11.8555 8.77809 11.7267 8.76301 11.5819 8.77709C11.4824 8.78614 11.3738 8.81631 11.2742 8.87463C11.2501 8.90882 11.227 8.94302 11.2028 8.97922C11.1636 9.03855 11.1264 9.1009 11.0892 9.16526C11.1877 9.54337 11.6936 9.83701 12.1712 9.47197C12.5232 9.20146 12.4377 8.14657 13.0019 7.53516Z" fill="#9CA3AF"/>
<path d="M6.99609 5.60352C8.10126 5.89414 9.01838 5.67793 9.65192 6.2461C10.2623 6.79215 9.92947 7.56145 9.33515 7.62782C9.30498 7.57553 9.27381 7.52424 9.24264 7.47396C9.20442 7.41262 9.1652 7.35429 9.12498 7.29798C9.08878 7.17529 9.08073 7.0516 9.08375 6.94199C9.08878 6.78914 9.11593 6.65841 9.14207 6.55382C9.19638 6.34465 9.25169 6.23705 9.25068 6.23705C9.25269 6.23705 9.1823 6.33963 9.10788 6.54879C9.07168 6.65338 9.03347 6.78511 9.01637 6.94299C9.01034 7.00434 9.00933 7.07171 9.01235 7.14211C8.89972 6.99428 8.78407 6.86355 8.67145 6.74891C8.67145 6.74891 8.65536 6.72176 8.64228 6.71271C8.52161 6.52868 8.52362 6.32555 8.53669 6.19482C8.55379 6.03995 8.5729 5.95548 8.57189 5.95448C8.5739 5.95448 8.53971 6.03694 8.5015 6.19281C8.4844 6.27124 8.46731 6.36979 8.47837 6.48745C8.48138 6.51661 8.48541 6.54678 8.49245 6.57796C8.45524 6.54377 8.41803 6.51259 8.38082 6.48242C8.10227 6.25415 7.8569 6.12141 7.68997 6.03995C7.52203 5.9595 7.42951 5.92934 7.43052 5.92833C7.43052 5.92934 7.52203 5.96956 7.68494 6.06509C7.84684 6.16063 8.08015 6.31448 8.33658 6.55885C8.34462 6.56689 8.35367 6.57595 8.36272 6.585C8.32853 6.57494 8.29434 6.56589 8.26216 6.55784C8.13344 6.52868 8.0188 6.52064 7.92729 6.52768C7.74025 6.53974 7.65879 6.61416 7.6598 6.61114C7.6598 6.61315 7.75131 6.55282 7.93232 6.56287C8.02081 6.56689 8.12942 6.586 8.24909 6.62522C8.33356 6.65438 8.4301 6.69159 8.51859 6.74589C8.65938 6.89975 8.80117 7.08177 8.93693 7.29094C8.84139 7.25272 8.74486 7.2306 8.65737 7.22155C8.4653 7.20144 8.30239 7.22155 8.17266 7.24066C7.91321 7.2839 7.77544 7.32211 7.77444 7.3201C7.77444 7.32211 7.92126 7.29697 8.18272 7.27485C8.31345 7.2658 8.47535 7.25876 8.65536 7.29094C8.77905 7.31205 8.91078 7.36032 9.03045 7.44178C9.0566 7.48703 9.08375 7.53228 9.10989 7.57955C9.15314 7.65698 9.19336 7.73844 9.23459 7.82291C9.0757 8.28549 8.41602 8.60527 7.85489 8.10347C7.44057 7.7324 7.64874 6.42209 7.00112 5.60553L6.99609 5.60352Z" fill="#9CA3AF"/>
<path d="M9.97656 12.9401H10.2531C10.241 12.1869 10.3054 11.5001 10.3979 10.9038C10.4854 10.3114 10.6875 9.82473 10.8806 9.44461C11.2748 8.68235 11.6469 8.35452 11.6419 8.35352C11.6479 8.35452 11.2577 8.64012 10.8082 9.38025C10.589 9.7483 10.3476 10.233 10.2219 10.8464C10.0942 11.4498 9.99466 12.1517 9.97757 12.9391L9.97656 12.9401Z" fill="#9CA3AF"/>
<path d="M9.71647 14.3478H10.169C10.2092 13.7475 10.1127 12.9219 9.98999 12.4704C9.86429 12.0188 9.68429 11.6478 9.48216 11.3823C9.28204 11.1148 9.05879 10.966 8.8989 10.8996C8.738 10.8332 8.64549 10.8292 8.64649 10.8262C8.64549 10.8282 8.73398 10.8443 8.8798 10.9247C9.0246 11.0052 9.21768 11.1641 9.3826 11.4316C9.54954 11.697 9.68931 12.0611 9.77781 12.5025C9.86329 12.942 9.97793 14.0552 9.71647 14.3478Z" fill="#9CA3AF"/>
</svg>
