<svg width="192" height="183" viewBox="0 0 192 183" fill="none" xmlns="http://www.w3.org/2000/svg">
<path d="M36.4512 178.779C36.4512 179.274 36.3882 179.725 36.2622 180.132C36.1362 180.537 35.9487 180.885 35.6997 181.178C35.4536 181.468 35.1475 181.692 34.7812 181.851C34.415 182.009 33.9902 182.088 33.5068 182.088C33.0088 182.088 32.5737 182.009 32.2017 181.851C31.8325 181.692 31.5249 181.467 31.2788 181.174C31.0356 180.881 30.8525 180.531 30.7295 180.124C30.6094 179.716 30.5493 179.265 30.5493 178.77C30.5493 178.114 30.6577 177.538 30.8745 177.043C31.0913 176.548 31.4194 176.163 31.8589 175.887C32.3013 175.612 32.855 175.474 33.52 175.474C34.1558 175.474 34.6904 175.61 35.124 175.883C35.5605 176.155 35.8901 176.539 36.1128 177.034C36.3384 177.526 36.4512 178.108 36.4512 178.779ZM31.3359 178.779C31.3359 179.324 31.4136 179.795 31.5688 180.194C31.7241 180.592 31.9614 180.9 32.2808 181.117C32.603 181.333 33.0117 181.442 33.5068 181.442C34.0049 181.442 34.4121 181.333 34.7285 181.117C35.0479 180.9 35.2837 180.592 35.436 180.194C35.5884 179.795 35.6646 179.324 35.6646 178.779C35.6646 177.95 35.4902 177.302 35.1416 176.836C34.7959 176.368 34.2554 176.133 33.52 176.133C33.022 176.133 32.6118 176.24 32.2896 176.454C31.9673 176.668 31.7271 176.973 31.5688 177.368C31.4136 177.761 31.3359 178.231 31.3359 178.779ZM40.1885 177.755H38.9887V182H38.2593V177.755H37.4067V177.403L38.2593 177.162V176.841C38.2593 176.437 38.3193 176.108 38.4394 175.856C38.5596 175.602 38.7339 175.414 38.9624 175.294C39.1909 175.174 39.4692 175.114 39.7973 175.114C39.9819 175.114 40.1504 175.13 40.3027 175.162C40.458 175.194 40.5942 175.231 40.7114 175.272L40.5224 175.848C40.4228 175.815 40.31 175.786 40.1841 175.76C40.061 175.73 39.935 175.716 39.8061 175.716C39.5278 175.716 39.3213 175.807 39.1865 175.988C39.0547 176.167 38.9887 176.448 38.9887 176.832V177.184H40.1885V177.755ZM43.2163 177.755H42.0166V182H41.2871V177.755H40.4346V177.403L41.2871 177.162V176.841C41.2871 176.437 41.3471 176.108 41.4673 175.856C41.5874 175.602 41.7617 175.414 41.9902 175.294C42.2187 175.174 42.4971 175.114 42.8252 175.114C43.0097 175.114 43.1782 175.13 43.3305 175.162C43.4858 175.194 43.622 175.231 43.7392 175.272L43.5503 175.848C43.4507 175.815 43.3379 175.786 43.2119 175.76C43.0888 175.73 42.9629 175.716 42.834 175.716C42.5556 175.716 42.3491 175.807 42.2143 175.988C42.0825 176.167 42.0166 176.448 42.0166 176.832V177.184H43.2163V177.755ZM47.4853 180.682C47.4853 180.989 47.4077 181.249 47.2524 181.459C47.1001 181.667 46.8803 181.824 46.5932 181.93C46.309 182.035 45.9692 182.088 45.5737 182.088C45.2368 182.088 44.9453 182.062 44.6992 182.009C44.4531 181.956 44.2378 181.881 44.0532 181.785V181.112C44.2495 181.209 44.4838 181.297 44.7563 181.376C45.0288 181.455 45.3071 181.495 45.5913 181.495C46.0073 181.495 46.309 181.427 46.4965 181.292C46.684 181.158 46.7778 180.975 46.7778 180.743C46.7778 180.611 46.7397 180.496 46.6635 180.396C46.5903 180.293 46.4658 180.195 46.29 180.102C46.1142 180.005 45.8711 179.899 45.5605 179.785C45.2529 179.668 44.9863 179.552 44.7607 179.438C44.538 179.321 44.3652 179.179 44.2421 179.012C44.122 178.845 44.062 178.628 44.062 178.361C44.062 177.954 44.226 177.642 44.5542 177.425C44.8852 177.206 45.3188 177.096 45.8549 177.096C46.145 177.096 46.416 177.125 46.6679 177.184C46.9228 177.239 47.1601 177.315 47.3798 177.412L47.1337 177.997C46.9345 177.912 46.7221 177.84 46.4965 177.781C46.271 177.723 46.041 177.693 45.8066 177.693C45.4697 177.693 45.2104 177.749 45.0288 177.86C44.8501 177.972 44.7607 178.124 44.7607 178.317C44.7607 178.467 44.8017 178.59 44.8837 178.687C44.9687 178.783 45.1035 178.874 45.288 178.959C45.4726 179.044 45.7158 179.144 46.0175 179.258C46.3193 179.369 46.58 179.485 46.7998 179.605C47.0195 179.722 47.1879 179.866 47.3051 180.036C47.4253 180.203 47.4853 180.418 47.4853 180.682ZM50.7831 177.096C51.1933 177.096 51.5449 177.187 51.8378 177.368C52.1308 177.55 52.3549 177.805 52.5102 178.133C52.6655 178.458 52.7431 178.839 52.7431 179.275V179.728H49.4164C49.4252 180.293 49.5659 180.724 49.8383 181.02C50.1108 181.316 50.4946 181.464 50.9897 181.464C51.2944 181.464 51.5639 181.436 51.7983 181.38C52.0327 181.325 52.2758 181.243 52.5278 181.134V181.776C52.2846 181.884 52.0429 181.963 51.8027 182.013C51.5654 182.063 51.2841 182.088 50.9589 182.088C50.496 182.088 50.0917 181.994 49.746 181.807C49.4033 181.616 49.1367 181.338 48.9462 180.972C48.7558 180.605 48.6606 180.157 48.6606 179.627C48.6606 179.108 48.747 178.66 48.9199 178.282C49.0956 177.901 49.3417 177.608 49.6581 177.403C49.9775 177.198 50.3525 177.096 50.7831 177.096ZM50.7744 177.693C50.3847 177.693 50.0742 177.821 49.8427 178.076C49.6113 178.331 49.4736 178.687 49.4296 179.144H51.9785C51.9755 178.856 51.9301 178.604 51.8422 178.388C51.7573 178.168 51.6269 177.998 51.4511 177.878C51.2753 177.755 51.0497 177.693 50.7744 177.693ZM55.808 181.49C55.9281 181.49 56.0512 181.48 56.1772 181.459C56.3031 181.439 56.4057 181.414 56.4848 181.385V181.952C56.3998 181.99 56.2812 182.022 56.1288 182.048C55.9794 182.075 55.8329 182.088 55.6894 182.088C55.4345 182.088 55.203 182.044 54.995 181.956C54.787 181.865 54.62 181.713 54.4941 181.499C54.371 181.285 54.3095 180.989 54.3095 180.611V177.755H53.6239V177.399L54.3139 177.113L54.6039 176.067H55.0434V177.184H56.454V177.755H55.0434V180.589C55.0434 180.891 55.1122 181.117 55.2499 181.266C55.3905 181.416 55.5766 181.49 55.808 181.49Z" fill="#9CA3AF"/>
<path d="M133.456 88H129.879V81.5752H133.456V82.2344H130.626V84.313H133.293V84.9634H130.626V87.3408H133.456V88ZM140.27 83.0957C140.8 83.0957 141.2 83.2349 141.469 83.5132C141.739 83.7886 141.874 84.2324 141.874 84.8447V88H141.153V84.8799C141.153 84.4902 141.068 84.1987 140.898 84.0054C140.731 83.8091 140.482 83.7109 140.151 83.7109C139.685 83.7109 139.347 83.8457 139.136 84.1152C138.925 84.3848 138.819 84.7817 138.819 85.3062V88H138.094V84.8799C138.094 84.6191 138.056 84.4023 137.98 84.2295C137.907 84.0566 137.795 83.9277 137.646 83.8428C137.499 83.7549 137.313 83.7109 137.088 83.7109C136.769 83.7109 136.512 83.7769 136.319 83.9087C136.125 84.0405 135.985 84.2368 135.897 84.4976C135.812 84.7554 135.77 85.0732 135.77 85.4512V88H135.04V83.1836H135.629L135.739 83.8647H135.778C135.875 83.6978 135.997 83.5571 136.143 83.4429C136.29 83.3286 136.454 83.2422 136.635 83.1836C136.817 83.125 137.01 83.0957 137.215 83.0957C137.582 83.0957 137.888 83.1646 138.134 83.3022C138.383 83.437 138.563 83.6436 138.674 83.9219H138.714C138.872 83.6436 139.089 83.437 139.364 83.3022C139.64 83.1646 139.941 83.0957 140.27 83.0957ZM144.372 83.1836V88H143.642V83.1836H144.372ZM144.016 81.3818C144.136 81.3818 144.238 81.4214 144.323 81.5005C144.411 81.5767 144.455 81.6968 144.455 81.8608C144.455 82.022 144.411 82.1421 144.323 82.2212C144.238 82.3003 144.136 82.3398 144.016 82.3398C143.89 82.3398 143.784 82.3003 143.699 82.2212C143.617 82.1421 143.576 82.022 143.576 81.8608C143.576 81.6968 143.617 81.5767 143.699 81.5005C143.784 81.4214 143.89 81.3818 144.016 81.3818ZM149.304 86.6816C149.304 86.9893 149.227 87.2485 149.071 87.4595C148.919 87.6675 148.699 87.8242 148.412 87.9297C148.128 88.0352 147.788 88.0879 147.393 88.0879C147.056 88.0879 146.764 88.0615 146.518 88.0088C146.272 87.9561 146.057 87.8813 145.872 87.7847V87.1123C146.068 87.209 146.303 87.2969 146.575 87.376C146.848 87.4551 147.126 87.4946 147.41 87.4946C147.826 87.4946 148.128 87.4272 148.315 87.2925C148.503 87.1577 148.597 86.9746 148.597 86.7432C148.597 86.6113 148.559 86.4956 148.482 86.396C148.409 86.2935 148.285 86.1953 148.109 86.1016C147.933 86.0049 147.69 85.8994 147.379 85.7852C147.072 85.668 146.805 85.5522 146.58 85.438C146.357 85.3208 146.184 85.1787 146.061 85.0117C145.941 84.8447 145.881 84.6279 145.881 84.3613C145.881 83.9541 146.045 83.6421 146.373 83.4253C146.704 83.2056 147.138 83.0957 147.674 83.0957C147.964 83.0957 148.235 83.125 148.487 83.1836C148.742 83.2393 148.979 83.3154 149.199 83.4121L148.953 83.9966C148.753 83.9116 148.541 83.8398 148.315 83.7812C148.09 83.7227 147.86 83.6934 147.625 83.6934C147.289 83.6934 147.029 83.749 146.848 83.8604C146.669 83.9717 146.58 84.124 146.58 84.3174C146.58 84.4668 146.621 84.5898 146.703 84.6865C146.788 84.7832 146.922 84.874 147.107 84.959C147.291 85.0439 147.535 85.1436 147.836 85.2578C148.138 85.3691 148.399 85.4849 148.619 85.605C148.838 85.7222 149.007 85.8657 149.124 86.0356C149.244 86.2026 149.304 86.418 149.304 86.6816ZM153.863 86.6816C153.863 86.9893 153.786 87.2485 153.63 87.4595C153.478 87.6675 153.258 87.8242 152.971 87.9297C152.687 88.0352 152.347 88.0879 151.952 88.0879C151.615 88.0879 151.323 88.0615 151.077 88.0088C150.831 87.9561 150.616 87.8813 150.431 87.7847V87.1123C150.627 87.209 150.862 87.2969 151.134 87.376C151.407 87.4551 151.685 87.4946 151.969 87.4946C152.385 87.4946 152.687 87.4272 152.874 87.2925C153.062 87.1577 153.156 86.9746 153.156 86.7432C153.156 86.6113 153.118 86.4956 153.041 86.396C152.968 86.2935 152.844 86.1953 152.668 86.1016C152.492 86.0049 152.249 85.8994 151.938 85.7852C151.631 85.668 151.364 85.5522 151.139 85.438C150.916 85.3208 150.743 85.1787 150.62 85.0117C150.5 84.8447 150.44 84.6279 150.44 84.3613C150.44 83.9541 150.604 83.6421 150.932 83.4253C151.263 83.2056 151.697 83.0957 152.233 83.0957C152.523 83.0957 152.794 83.125 153.046 83.1836C153.301 83.2393 153.538 83.3154 153.758 83.4121L153.512 83.9966C153.312 83.9116 153.1 83.8398 152.874 83.7812C152.649 83.7227 152.419 83.6934 152.184 83.6934C151.848 83.6934 151.588 83.749 151.407 83.8604C151.228 83.9717 151.139 84.124 151.139 84.3174C151.139 84.4668 151.18 84.5898 151.262 84.6865C151.347 84.7832 151.481 84.874 151.666 84.959C151.851 85.0439 152.094 85.1436 152.395 85.2578C152.697 85.3691 152.958 85.4849 153.178 85.605C153.397 85.7222 153.566 85.8657 153.683 86.0356C153.803 86.2026 153.863 86.418 153.863 86.6816ZM156.036 83.1836V88H155.307V83.1836H156.036ZM155.68 81.3818C155.8 81.3818 155.903 81.4214 155.988 81.5005C156.076 81.5767 156.12 81.6968 156.12 81.8608C156.12 82.022 156.076 82.1421 155.988 82.2212C155.903 82.3003 155.8 82.3398 155.68 82.3398C155.554 82.3398 155.449 82.3003 155.364 82.2212C155.282 82.1421 155.241 82.022 155.241 81.8608C155.241 81.6968 155.282 81.5767 155.364 81.5005C155.449 81.4214 155.554 81.3818 155.68 81.3818ZM162.006 85.583C162.006 85.9785 161.954 86.3315 161.852 86.6421C161.749 86.9526 161.601 87.2148 161.408 87.4287C161.215 87.6426 160.98 87.8066 160.705 87.9209C160.432 88.0322 160.123 88.0879 159.778 88.0879C159.455 88.0879 159.16 88.0322 158.89 87.9209C158.623 87.8066 158.392 87.6426 158.196 87.4287C158.002 87.2148 157.851 86.9526 157.743 86.6421C157.638 86.3315 157.585 85.9785 157.585 85.583C157.585 85.0557 157.674 84.6074 157.853 84.2383C158.032 83.8662 158.287 83.5835 158.618 83.3901C158.952 83.1938 159.349 83.0957 159.808 83.0957C160.248 83.0957 160.632 83.1938 160.96 83.3901C161.291 83.5864 161.547 83.8706 161.729 84.2427C161.913 84.6118 162.006 85.0586 162.006 85.583ZM158.341 85.583C158.341 85.9697 158.392 86.3052 158.495 86.5894C158.597 86.8735 158.755 87.0933 158.969 87.2485C159.183 87.4038 159.458 87.4814 159.795 87.4814C160.129 87.4814 160.403 87.4038 160.617 87.2485C160.834 87.0933 160.994 86.8735 161.096 86.5894C161.199 86.3052 161.25 85.9697 161.25 85.583C161.25 85.1992 161.199 84.8682 161.096 84.5898C160.994 84.3086 160.835 84.0918 160.621 83.9395C160.408 83.7871 160.131 83.7109 159.791 83.7109C159.29 83.7109 158.922 83.8765 158.688 84.2075C158.456 84.5386 158.341 84.9971 158.341 85.583ZM165.818 83.0957C166.389 83.0957 166.821 83.2363 167.114 83.5176C167.407 83.7959 167.554 84.2441 167.554 84.8623V88H166.833V84.9106C166.833 84.5093 166.741 84.209 166.556 84.0098C166.374 83.8105 166.095 83.7109 165.717 83.7109C165.183 83.7109 164.808 83.8618 164.592 84.1636C164.375 84.4653 164.266 84.9033 164.266 85.4775V88H163.537V83.1836H164.126L164.236 83.8779H164.275C164.378 83.708 164.508 83.5659 164.666 83.4517C164.825 83.3345 165.002 83.2466 165.198 83.188C165.394 83.1265 165.601 83.0957 165.818 83.0957Z" fill="#9CA3AF"/>
<path d="M119.625 176.142C119.271 176.142 118.952 176.204 118.667 176.327C118.386 176.447 118.146 176.623 117.947 176.854C117.75 177.083 117.6 177.359 117.494 177.685C117.389 178.01 117.336 178.376 117.336 178.783C117.336 179.322 117.419 179.791 117.586 180.189C117.756 180.585 118.008 180.891 118.342 181.108C118.679 181.325 119.1 181.433 119.604 181.433C119.891 181.433 120.16 181.41 120.412 181.363C120.667 181.313 120.915 181.251 121.155 181.178V181.829C120.92 181.917 120.674 181.981 120.417 182.022C120.159 182.066 119.853 182.088 119.498 182.088C118.845 182.088 118.298 181.953 117.859 181.684C117.422 181.411 117.094 181.027 116.875 180.532C116.658 180.037 116.549 179.453 116.549 178.779C116.549 178.292 116.617 177.849 116.751 177.447C116.889 177.043 117.088 176.694 117.349 176.401C117.613 176.108 117.935 175.883 118.316 175.725C118.7 175.563 119.139 175.483 119.634 175.483C119.959 175.483 120.273 175.515 120.575 175.58C120.876 175.644 121.149 175.736 121.392 175.856L121.093 176.489C120.888 176.396 120.663 176.315 120.417 176.248C120.173 176.177 119.91 176.142 119.625 176.142ZM124.51 177.104C125.084 177.104 125.51 177.233 125.789 177.491C126.067 177.749 126.206 178.161 126.206 178.726V182H125.674L125.534 181.288H125.499C125.364 181.464 125.223 181.612 125.077 181.732C124.93 181.849 124.76 181.938 124.567 182C124.376 182.059 124.142 182.088 123.864 182.088C123.571 182.088 123.31 182.037 123.082 181.934C122.856 181.832 122.677 181.676 122.545 181.468C122.416 181.26 122.352 180.997 122.352 180.677C122.352 180.197 122.542 179.828 122.923 179.57C123.304 179.312 123.884 179.171 124.664 179.148L125.494 179.113V178.818C125.494 178.402 125.405 178.111 125.226 177.944C125.047 177.777 124.795 177.693 124.47 177.693C124.218 177.693 123.978 177.73 123.749 177.803C123.521 177.876 123.304 177.963 123.099 178.062L122.875 177.509C123.092 177.397 123.341 177.302 123.622 177.223C123.903 177.144 124.199 177.104 124.51 177.104ZM125.485 179.627L124.751 179.658C124.151 179.681 123.728 179.779 123.481 179.952C123.235 180.125 123.112 180.37 123.112 180.686C123.112 180.961 123.196 181.165 123.363 181.297C123.53 181.429 123.751 181.495 124.026 181.495C124.454 181.495 124.804 181.376 125.077 181.139C125.349 180.901 125.485 180.545 125.485 180.071V179.627ZM130.167 177.096C130.264 177.096 130.365 177.102 130.471 177.113C130.576 177.122 130.67 177.135 130.752 177.153L130.66 177.83C130.581 177.809 130.493 177.793 130.396 177.781C130.299 177.77 130.208 177.764 130.123 177.764C129.93 177.764 129.747 177.803 129.574 177.882C129.404 177.958 129.255 178.07 129.126 178.216C128.997 178.36 128.896 178.534 128.823 178.739C128.749 178.941 128.713 179.167 128.713 179.416V182H127.979V177.184H128.585L128.665 178.071H128.695C128.795 177.893 128.915 177.73 129.056 177.583C129.196 177.434 129.359 177.315 129.543 177.228C129.731 177.14 129.939 177.096 130.167 177.096ZM132.661 175.162V176.872C132.661 177.068 132.655 177.258 132.643 177.443C132.635 177.627 132.627 177.771 132.622 177.874H132.661C132.793 177.657 132.983 177.474 133.232 177.324C133.481 177.175 133.799 177.1 134.186 177.1C134.789 177.1 135.27 177.31 135.627 177.729C135.988 178.145 136.168 178.764 136.168 179.587C136.168 180.129 136.086 180.586 135.922 180.958C135.758 181.331 135.526 181.612 135.227 181.802C134.929 181.993 134.576 182.088 134.168 182.088C133.788 182.088 133.474 182.018 133.228 181.877C132.985 181.733 132.797 181.559 132.665 181.354H132.608L132.459 182H131.932V175.162H132.661ZM134.067 177.711C133.719 177.711 133.442 177.78 133.237 177.917C133.032 178.052 132.884 178.257 132.793 178.533C132.705 178.805 132.661 179.151 132.661 179.57V179.609C132.661 180.216 132.762 180.68 132.964 181.002C133.166 181.322 133.534 181.481 134.067 181.481C134.516 181.481 134.851 181.317 135.074 180.989C135.299 180.661 135.412 180.192 135.412 179.583C135.412 178.962 135.301 178.495 135.078 178.181C134.858 177.868 134.521 177.711 134.067 177.711ZM141.865 179.583C141.865 179.979 141.814 180.332 141.711 180.642C141.609 180.953 141.461 181.215 141.267 181.429C141.074 181.643 140.84 181.807 140.564 181.921C140.292 182.032 139.983 182.088 139.637 182.088C139.315 182.088 139.019 182.032 138.749 181.921C138.483 181.807 138.251 181.643 138.055 181.429C137.862 181.215 137.711 180.953 137.602 180.642C137.497 180.332 137.444 179.979 137.444 179.583C137.444 179.056 137.534 178.607 137.712 178.238C137.891 177.866 138.146 177.583 138.477 177.39C138.811 177.194 139.208 177.096 139.668 177.096C140.107 177.096 140.491 177.194 140.819 177.39C141.15 177.586 141.407 177.871 141.588 178.243C141.773 178.612 141.865 179.059 141.865 179.583ZM138.2 179.583C138.2 179.97 138.251 180.305 138.354 180.589C138.456 180.874 138.615 181.093 138.829 181.249C139.042 181.404 139.318 181.481 139.655 181.481C139.989 181.481 140.263 181.404 140.476 181.249C140.693 181.093 140.853 180.874 140.955 180.589C141.058 180.305 141.109 179.97 141.109 179.583C141.109 179.199 141.058 178.868 140.955 178.59C140.853 178.309 140.695 178.092 140.481 177.939C140.267 177.787 139.99 177.711 139.65 177.711C139.149 177.711 138.782 177.876 138.547 178.208C138.316 178.539 138.2 178.997 138.2 179.583ZM145.677 177.096C146.248 177.096 146.681 177.236 146.974 177.518C147.267 177.796 147.413 178.244 147.413 178.862V182H146.692V178.911C146.692 178.509 146.6 178.209 146.415 178.01C146.234 177.811 145.954 177.711 145.576 177.711C145.043 177.711 144.668 177.862 144.451 178.164C144.234 178.465 144.126 178.903 144.126 179.478V182H143.396V177.184H143.985L144.095 177.878H144.135C144.237 177.708 144.368 177.566 144.526 177.452C144.684 177.334 144.861 177.247 145.058 177.188C145.254 177.126 145.46 177.096 145.677 177.096ZM154.075 177.096C154.646 177.096 155.078 177.236 155.371 177.518C155.664 177.796 155.81 178.244 155.81 178.862V182H155.09V178.911C155.09 178.509 154.997 178.209 154.813 178.01C154.631 177.811 154.351 177.711 153.973 177.711C153.44 177.711 153.065 177.862 152.848 178.164C152.632 178.465 152.523 178.903 152.523 179.478V182H151.794V177.184H152.383L152.493 177.878H152.532C152.635 177.708 152.765 177.566 152.923 177.452C153.081 177.334 153.259 177.247 153.455 177.188C153.651 177.126 153.858 177.096 154.075 177.096ZM159.438 177.096C159.848 177.096 160.2 177.187 160.493 177.368C160.785 177.55 161.01 177.805 161.165 178.133C161.32 178.458 161.398 178.839 161.398 179.275V179.728H158.071C158.08 180.293 158.221 180.724 158.493 181.02C158.765 181.316 159.149 181.464 159.644 181.464C159.949 181.464 160.219 181.436 160.453 181.38C160.687 181.325 160.931 181.243 161.182 181.134V181.776C160.939 181.884 160.698 181.963 160.457 182.013C160.22 182.063 159.939 182.088 159.614 182.088C159.151 182.088 158.746 181.994 158.401 181.807C158.058 181.616 157.791 181.338 157.601 180.972C157.41 180.605 157.315 180.157 157.315 179.627C157.315 179.108 157.402 178.66 157.575 178.282C157.75 177.901 157.996 177.608 158.313 177.403C158.632 177.198 159.007 177.096 159.438 177.096ZM159.429 177.693C159.039 177.693 158.729 177.821 158.497 178.076C158.266 178.331 158.128 178.687 158.084 179.144H160.633C160.63 178.856 160.585 178.604 160.497 178.388C160.412 178.168 160.282 177.998 160.106 177.878C159.93 177.755 159.704 177.693 159.429 177.693ZM166.884 177.184V182H166.286L166.181 181.323H166.141C166.042 181.49 165.913 181.631 165.755 181.745C165.597 181.859 165.418 181.944 165.219 182C165.022 182.059 164.813 182.088 164.59 182.088C164.209 182.088 163.89 182.026 163.632 181.903C163.374 181.78 163.18 181.59 163.048 181.332C162.919 181.074 162.854 180.743 162.854 180.339V177.184H163.593V180.286C163.593 180.687 163.683 180.988 163.865 181.187C164.047 181.383 164.324 181.481 164.696 181.481C165.053 181.481 165.337 181.414 165.548 181.279C165.762 181.145 165.916 180.947 166.01 180.686C166.103 180.422 166.15 180.1 166.15 179.719V177.184H166.884ZM170.252 181.49C170.372 181.49 170.495 181.48 170.621 181.459C170.747 181.439 170.85 181.414 170.929 181.385V181.952C170.844 181.99 170.725 182.022 170.573 182.048C170.424 182.075 170.277 182.088 170.134 182.088C169.879 182.088 169.647 182.044 169.439 181.956C169.231 181.865 169.064 181.713 168.938 181.499C168.815 181.285 168.754 180.989 168.754 180.611V177.755H168.068V177.399L168.758 177.113L169.048 176.067H169.488V177.184H170.898V177.755H169.488V180.589C169.488 180.891 169.556 181.117 169.694 181.266C169.835 181.416 170.021 181.49 170.252 181.49ZM174.363 177.096C174.46 177.096 174.561 177.102 174.666 177.113C174.772 177.122 174.866 177.135 174.948 177.153L174.855 177.83C174.776 177.809 174.688 177.793 174.592 177.781C174.495 177.77 174.404 177.764 174.319 177.764C174.126 177.764 173.943 177.803 173.77 177.882C173.6 177.958 173.45 178.07 173.322 178.216C173.193 178.36 173.092 178.534 173.018 178.739C172.945 178.941 172.908 179.167 172.908 179.416V182H172.175V177.184H172.781L172.86 178.071H172.891C172.991 177.893 173.111 177.73 173.251 177.583C173.392 177.434 173.554 177.315 173.739 177.228C173.927 177.14 174.135 177.096 174.363 177.096ZM177.929 177.104C178.503 177.104 178.929 177.233 179.208 177.491C179.486 177.749 179.625 178.161 179.625 178.726V182H179.094L178.953 181.288H178.918C178.783 181.464 178.642 181.612 178.496 181.732C178.349 181.849 178.179 181.938 177.986 182C177.796 182.059 177.561 182.088 177.283 182.088C176.99 182.088 176.729 182.037 176.501 181.934C176.275 181.832 176.096 181.676 175.965 181.468C175.836 181.26 175.771 180.997 175.771 180.677C175.771 180.197 175.962 179.828 176.343 179.57C176.723 179.312 177.303 179.171 178.083 179.148L178.913 179.113V178.818C178.913 178.402 178.824 178.111 178.645 177.944C178.467 177.777 178.215 177.693 177.889 177.693C177.637 177.693 177.397 177.73 177.169 177.803C176.94 177.876 176.723 177.963 176.518 178.062L176.294 177.509C176.511 177.397 176.76 177.302 177.041 177.223C177.323 177.144 177.618 177.104 177.929 177.104ZM178.905 179.627L178.171 179.658C177.57 179.681 177.147 179.779 176.901 179.952C176.655 180.125 176.532 180.37 176.532 180.686C176.532 180.961 176.615 181.165 176.782 181.297C176.949 181.429 177.17 181.495 177.446 181.495C177.873 181.495 178.223 181.376 178.496 181.139C178.768 180.901 178.905 180.545 178.905 180.071V179.627ZM182.132 182H181.398V175.162H182.132V182Z" fill="#9CA3AF"/>
<g filter="url(#filter0_d_2566_82514)">
<rect x="9" y="5.50586" width="68" height="68" rx="34" fill="white" shape-rendering="crispEdges"/>
<path fill-rule="evenodd" clip-rule="evenodd" d="M42.4367 18.9915C41.2033 19.2625 40.3287 20.3639 40.3305 21.6438C40.3317 22.4267 40.5707 23.0196 41.1045 23.5637C42.3339 24.8171 44.3218 24.6013 45.2727 23.1112C45.5501 22.6765 45.6742 22.2326 45.6727 21.681C45.6712 21.1293 45.6134 20.8614 45.4014 20.422C45.0625 19.7194 44.3343 19.1582 43.5415 18.9885C43.1043 18.895 42.8729 18.8956 42.4367 18.9915ZM40.3498 26.1562C39.2094 26.3332 38.2744 27.2426 38.0729 28.3707C38.0372 28.5705 38.0176 29.8603 38.0176 32.0096C38.0176 35.6035 38.0134 35.5451 38.2898 35.8502C38.4418 36.0179 38.7729 36.1674 38.9959 36.1688C39.2442 36.1704 39.598 35.9765 39.7874 35.735L39.9445 35.5347L39.958 32.9712C39.9655 31.5614 39.9829 30.3566 39.9967 30.294C40.0275 30.1544 40.1872 30.0957 40.328 30.1722C40.4324 30.2289 40.4327 30.2437 40.4327 36.4863C40.4327 42.0254 40.4418 42.7659 40.5125 42.9375C40.8332 43.7167 41.867 43.8995 42.4468 43.2796C42.7518 42.9536 42.745 43.0377 42.745 39.5388C42.745 36.6947 42.7541 36.3246 42.8257 36.2519C42.9238 36.1524 43.0724 36.1458 43.1476 36.2377C43.1855 36.2841 43.2077 37.3156 43.2181 39.5099C43.233 42.6789 43.2344 42.7165 43.3441 42.9228C43.4721 43.1636 43.6805 43.3732 43.9012 43.483C44.4532 43.7578 45.1587 43.5169 45.4517 42.9537L45.5712 42.7239V36.5088C45.5712 30.5539 45.5752 30.2901 45.6652 30.2074C45.7761 30.1055 45.8866 30.0969 45.972 30.1836C46.0183 30.2306 46.0337 30.8671 46.034 32.7257C46.0341 34.2259 46.0546 35.2798 46.0859 35.3939C46.1672 35.6911 46.3491 35.9253 46.5974 36.0526C47.0911 36.3057 47.6495 36.0972 47.8892 35.5703C47.9784 35.3743 47.9841 35.157 47.9844 31.9722C47.9848 28.2667 47.9823 28.2297 47.6832 27.6285C47.3749 27.0088 46.7612 26.4785 46.0888 26.2506C45.761 26.1395 45.6758 26.1359 43.1818 26.1258C41.7687 26.1201 40.4943 26.1338 40.3498 26.1562Z" fill="#9498FF"/>
<path d="M37.7756 55.541L39.1311 52.9355H40.1428L38.2444 56.4277V58.6465H37.3108V56.4629L35.4084 52.9355H36.428L37.7756 55.541ZM44.8672 56.4746C44.8672 56.834 44.8203 57.153 44.7266 57.4316C44.6328 57.7103 44.4961 57.946 44.3164 58.1387C44.1367 58.3288 43.9206 58.4746 43.668 58.5762C43.4154 58.6751 43.1302 58.7246 42.8125 58.7246C42.5156 58.7246 42.2435 58.6751 41.9961 58.5762C41.7487 58.4746 41.5339 58.3288 41.3516 58.1387C41.1719 57.946 41.0326 57.7103 40.9336 57.4316C40.8346 57.153 40.7852 56.834 40.7852 56.4746C40.7852 55.998 40.8672 55.5944 41.0312 55.2637C41.1979 54.9303 41.4349 54.6764 41.7422 54.502C42.0495 54.3275 42.4154 54.2402 42.8398 54.2402C43.2383 54.2402 43.5898 54.3275 43.8945 54.502C44.1992 54.6764 44.4375 54.9303 44.6094 55.2637C44.7812 55.597 44.8672 56.0007 44.8672 56.4746ZM41.7305 56.4746C41.7305 56.7897 41.7682 57.0592 41.8438 57.2832C41.9219 57.5072 42.0417 57.679 42.2031 57.7988C42.3646 57.916 42.5729 57.9746 42.8281 57.9746C43.0833 57.9746 43.2917 57.916 43.4531 57.7988C43.6146 57.679 43.7331 57.5072 43.8086 57.2832C43.8841 57.0592 43.9219 56.7897 43.9219 56.4746C43.9219 56.1595 43.8841 55.8926 43.8086 55.6738C43.7331 55.4525 43.6146 55.2845 43.4531 55.1699C43.2917 55.0527 43.082 54.9941 42.8242 54.9941C42.444 54.9941 42.1667 55.1217 41.9922 55.377C41.8177 55.6322 41.7305 55.998 41.7305 56.4746ZM49.9314 54.3223V58.6465H49.2087L49.0837 58.0645H49.033C48.9418 58.2129 48.8259 58.3366 48.6853 58.4355C48.5447 58.5319 48.3884 58.6035 48.2166 58.6504C48.0447 58.6999 47.8637 58.7246 47.6736 58.7246C47.3481 58.7246 47.0694 58.6699 46.8377 58.5605C46.6085 58.4486 46.4327 58.2767 46.3103 58.0449C46.1879 57.8132 46.1267 57.5137 46.1267 57.1465V54.3223H47.0486V56.9746C47.0486 57.3105 47.1163 57.5618 47.2517 57.7285C47.3897 57.8952 47.6033 57.9785 47.8923 57.9785C48.171 57.9785 48.3923 57.9212 48.5564 57.8066C48.7205 57.6921 48.8364 57.5228 48.9041 57.2988C48.9744 57.0749 49.0095 56.8001 49.0095 56.4746V54.3223H49.9314Z" fill="#374151"/>
</g>
<path d="M102.665 41.9129C103.34 41.4331 105.189 40.7717 105.563 40.0577C105.215 39.9428 104.536 40.1538 104.168 40.1954C103.583 40.2578 102.999 40.3056 102.416 40.359C101.385 40.4511 100.354 40.5267 99.32 40.5542C97.722 40.598 96.1167 40.5291 94.53 40.5224C92.7403 40.5138 90.9577 40.3936 89.1735 40.3395C88.0986 40.3066 87.0259 40.2924 85.951 40.2595C85.3503 40.2398 83.7047 40.4268 83.2735 39.873C82.8308 39.3054 83.4512 39.2366 83.9015 39.2091C84.8294 39.1509 85.7593 39.159 86.6902 39.1322C88.6338 39.0762 90.5768 39.0275 92.5191 38.942C94.4323 38.8577 96.3626 38.7859 98.2761 38.7661C100.117 38.7476 102.341 38.858 104.125 38.3678C103.941 38.0329 103.07 37.7666 102.711 37.5662C102.15 37.2536 101.578 36.9366 101.038 36.5853C100.657 36.3353 100.046 35.9267 100.247 35.3584C100.392 34.9547 100.992 34.8494 101.354 34.925C102.341 35.129 103.447 36.1352 104.349 36.6026C105.422 37.1575 106.502 37.6964 107.59 38.2047C108.269 38.5213 109.046 39.0962 108.444 39.8982C107.959 40.5407 106.598 41.0434 105.905 41.4096C104.96 41.9114 103.98 42.3074 103.018 42.7765C101.797 43.3698 101.978 42.6896 102.664 41.9146C102.79 41.8257 102.45 42.1527 102.664 41.9146L102.665 41.9129Z" fill="#D1D5DB"/>
<g filter="url(#filter1_d_2566_82514)">
<rect x="115" y="5.50586" width="68" height="68" rx="34" fill="white" shape-rendering="crispEdges"/>
<path d="M140.16 44.2061H144.654V28.4774H140.16V44.2061Z" fill="#EC88E0"/>
<path d="M146.901 44.2061H151.395V23.9834H146.901V44.2061Z" fill="#EC88E0"/>
<path d="M153.642 44.2061H158.136V18.3661H153.642V44.2061Z" fill="#EC88E0"/>
<path d="M128.195 55.4785H129.757V56.1738H128.195V57.752H127.499V56.1738H125.941V55.4785H127.499V53.8848H128.195V55.4785ZM135.76 58.6465H134.839V54.9707C134.839 54.8483 134.84 54.7259 134.842 54.6035C134.845 54.4811 134.848 54.3613 134.85 54.2441C134.856 54.127 134.862 54.015 134.87 53.9082C134.815 53.9681 134.747 54.0332 134.667 54.1035C134.589 54.1738 134.505 54.2467 134.417 54.3223L133.76 54.8457L133.3 54.2637L134.995 52.9355H135.76V58.6465ZM142.104 57.9824C142.224 57.9824 142.342 57.972 142.459 57.9512C142.576 57.9277 142.683 57.9004 142.78 57.8691V58.5645C142.678 58.6087 142.546 58.6465 142.385 58.6777C142.224 58.709 142.056 58.7246 141.881 58.7246C141.636 58.7246 141.416 58.6842 141.221 58.6035C141.026 58.5202 140.871 58.3783 140.756 58.1777C140.642 57.9772 140.584 57.6999 140.584 57.3457V55.0215H139.994V54.6113L140.627 54.2871L140.928 53.3613H141.506V54.3223H142.744V55.0215H141.506V57.334C141.506 57.5527 141.561 57.7155 141.67 57.8223C141.78 57.929 141.924 57.9824 142.104 57.9824ZM147.727 56.4746C147.727 56.834 147.68 57.153 147.586 57.4316C147.492 57.7103 147.355 57.946 147.176 58.1387C146.996 58.3288 146.78 58.4746 146.527 58.5762C146.275 58.6751 145.99 58.7246 145.672 58.7246C145.375 58.7246 145.103 58.6751 144.855 58.5762C144.608 58.4746 144.393 58.3288 144.211 58.1387C144.031 57.946 143.892 57.7103 143.793 57.4316C143.694 57.153 143.645 56.834 143.645 56.4746C143.645 55.998 143.727 55.5944 143.891 55.2637C144.057 54.9303 144.294 54.6764 144.602 54.502C144.909 54.3275 145.275 54.2402 145.699 54.2402C146.098 54.2402 146.449 54.3275 146.754 54.502C147.059 54.6764 147.297 54.9303 147.469 55.2637C147.641 55.597 147.727 56.0007 147.727 56.4746ZM144.59 56.4746C144.59 56.7897 144.628 57.0592 144.703 57.2832C144.781 57.5072 144.901 57.679 145.062 57.7988C145.224 57.916 145.432 57.9746 145.688 57.9746C145.943 57.9746 146.151 57.916 146.312 57.7988C146.474 57.679 146.592 57.5072 146.668 57.2832C146.743 57.0592 146.781 56.7897 146.781 56.4746C146.781 56.1595 146.743 55.8926 146.668 55.6738C146.592 55.4525 146.474 55.2845 146.312 55.1699C146.151 55.0527 145.941 54.9941 145.684 54.9941C145.303 54.9941 145.026 55.1217 144.852 55.377C144.677 55.6322 144.59 55.998 144.59 56.4746ZM151.275 54.2402C151.762 54.2402 152.141 54.3665 152.412 54.6191C152.685 54.8691 152.822 55.2715 152.822 55.8262V58.6465H151.904V55.998C151.904 55.6621 151.835 55.4108 151.697 55.2441C151.559 55.0749 151.345 54.9902 151.056 54.9902C150.637 54.9902 150.345 55.1191 150.181 55.377C150.02 55.6348 149.939 56.0085 149.939 56.498V58.6465H149.021V54.3223H149.736L149.865 54.9082H149.916C150.01 54.7572 150.125 54.6335 150.263 54.5371C150.404 54.4382 150.56 54.3639 150.732 54.3145C150.907 54.265 151.088 54.2402 151.275 54.2402ZM159.193 53.6504C158.919 53.6504 158.674 53.6999 158.458 53.7988C158.245 53.8978 158.064 54.041 157.915 54.2285C157.767 54.4134 157.654 54.6387 157.575 54.9043C157.497 55.1673 157.458 55.4642 157.458 55.7949C157.458 56.2376 157.521 56.6191 157.646 56.9395C157.771 57.2572 157.961 57.502 158.216 57.6738C158.471 57.8431 158.794 57.9277 159.185 57.9277C159.427 57.9277 159.663 57.9043 159.892 57.8574C160.121 57.8105 160.358 57.7467 160.603 57.666V58.4629C160.371 58.554 160.137 58.6204 159.9 58.6621C159.663 58.7038 159.389 58.7246 159.079 58.7246C158.496 58.7246 158.012 58.6035 157.626 58.3613C157.243 58.1191 156.957 57.778 156.767 57.3379C156.579 56.8978 156.486 56.3822 156.486 55.791C156.486 55.3587 156.546 54.9629 156.665 54.6035C156.785 54.2441 156.96 53.9342 157.189 53.6738C157.418 53.4108 157.7 53.209 158.036 53.0684C158.375 52.9251 158.762 52.8535 159.197 52.8535C159.483 52.8535 159.764 52.8861 160.04 52.9512C160.319 53.0137 160.577 53.1035 160.814 53.2207L160.486 53.9941C160.288 53.9004 160.081 53.8197 159.865 53.752C159.648 53.6842 159.424 53.6504 159.193 53.6504ZM167.14 55.7832C167.14 56.2233 167.084 56.6243 166.972 56.9863C166.862 57.3457 166.697 57.6556 166.476 57.916C166.254 58.1738 165.977 58.373 165.644 58.5137C165.31 58.6543 164.92 58.7246 164.472 58.7246C164.016 58.7246 163.62 58.6543 163.284 58.5137C162.951 58.373 162.674 58.1725 162.452 57.9121C162.233 57.6517 162.069 57.3405 161.96 56.9785C161.851 56.6165 161.796 56.2155 161.796 55.7754C161.796 55.1868 161.892 54.6738 162.085 54.2363C162.28 53.7962 162.576 53.4551 162.972 53.2129C163.37 52.9681 163.873 52.8457 164.48 52.8457C165.073 52.8457 165.567 52.9668 165.96 53.209C166.353 53.4512 166.647 53.7923 166.843 54.2324C167.041 54.6699 167.14 55.1868 167.14 55.7832ZM162.78 55.7832C162.78 56.2233 162.84 56.6048 162.96 56.9277C163.08 57.248 163.263 57.4954 163.511 57.6699C163.761 57.8418 164.081 57.9277 164.472 57.9277C164.865 57.9277 165.185 57.8418 165.433 57.6699C165.68 57.4954 165.862 57.248 165.98 56.9277C166.097 56.6048 166.155 56.2233 166.155 55.7832C166.155 55.1139 166.021 54.5905 165.753 54.2129C165.487 53.8327 165.063 53.6426 164.48 53.6426C164.089 53.6426 163.767 53.7285 163.515 53.9004C163.265 54.0723 163.08 54.3184 162.96 54.6387C162.84 54.9564 162.78 55.3379 162.78 55.7832ZM172.083 58.6465H168.216V57.9551L169.696 56.4551C169.983 56.1634 170.218 55.9121 170.403 55.7012C170.588 55.4876 170.725 55.2858 170.813 55.0957C170.904 54.9056 170.95 54.6986 170.95 54.4746C170.95 54.1986 170.871 53.9902 170.712 53.8496C170.553 53.7064 170.343 53.6348 170.083 53.6348C169.835 53.6348 169.606 53.6842 169.395 53.7832C169.187 53.8796 168.971 54.0176 168.747 54.1973L168.243 53.5918C168.402 53.4564 168.571 53.3327 168.751 53.2207C168.933 53.1087 169.136 53.0202 169.36 52.9551C169.584 52.8874 169.839 52.8535 170.126 52.8535C170.488 52.8535 170.8 52.9186 171.063 53.0488C171.326 53.1764 171.528 53.3548 171.669 53.584C171.812 53.8132 171.884 54.0801 171.884 54.3848C171.884 54.6921 171.822 54.9759 171.7 55.2363C171.578 55.4967 171.403 55.7546 171.177 56.0098C170.95 56.2624 170.68 56.5371 170.368 56.834L169.38 57.7988V57.8418H172.083V58.6465Z" fill="#EB46B3"/>
</g>
<path d="M84.3451 91.4685C84.069 92.1344 83.0082 93.4778 83.0642 94.1767C83.3758 94.0998 83.7803 93.6298 84.0335 93.4287C84.4381 93.1114 84.8487 92.8054 85.2557 92.4959C85.9761 91.9505 86.7047 91.417 87.4582 90.9173C88.6217 90.1443 89.8433 89.4509 91.0221 88.7203C92.3521 87.897 94.1204 86.6996 95.4677 85.9123C95.4677 85.9123 103.418 80.5987 104.229 80.1246C104.684 79.8607 110.126 76.307 110.704 76.5146C111.297 76.727 110.869 77.0651 110.548 77.2941C109.888 77.7671 104.885 80.8454 104.208 81.2966C102.794 82.2388 94.649 87.9876 93.2498 88.9509C91.8716 89.8997 90.4749 90.8473 89.0664 91.7489C87.7111 92.6158 86.0116 93.5657 84.9186 94.7533C85.2111 94.9145 85.9809 94.7065 86.3409 94.6873C86.9024 94.6572 87.4739 94.6256 88.0379 94.6338C88.4368 94.6411 89.0806 94.6583 89.1967 95.1697C89.278 95.5337 88.8829 95.8892 88.5792 96.0015C87.7528 96.3089 86.4634 96.0814 85.5766 96.1558C84.5224 96.245 83.4707 96.3492 82.4274 96.4795C81.7768 96.5611 80.9322 96.4987 81.0043 95.6293C81.0635 94.9319 81.8369 93.9313 82.1795 93.3407C82.6455 92.5333 83.187 91.7876 83.6811 90.9963C84.3088 89.9939 84.4921 90.5783 84.3458 91.4663C84.3925 91.1924 84.2933 91.5905 84.3458 91.4663L84.3451 91.4685Z" fill="#D1D5DB"/>
<g filter="url(#filter2_d_2566_82514)">
<rect x="9" y="99.5059" width="68" height="68" rx="34" fill="white" shape-rendering="crispEdges"/>
<path d="M35.6328 114.473H39.3777V127.58H35.6328V114.473Z" fill="#9DE2A0"/>
<path d="M41.2502 114.473H44.9951V131.325H41.2502V114.473Z" fill="#9DE2A0"/>
<path d="M46.8676 114.473H50.6125V136.006H46.8676V114.473Z" fill="#9DE2A0"/>
<path d="M20.8469 147.781V147.004H22.8625V147.781H20.8469ZM28.7605 149.539H27.8386V145.863C27.8386 145.741 27.8399 145.618 27.8425 145.496C27.8451 145.374 27.8477 145.254 27.8503 145.137C27.8555 145.02 27.862 144.908 27.8698 144.801C27.8152 144.861 27.7474 144.926 27.6667 144.996C27.5886 145.066 27.5053 145.139 27.4167 145.215L26.7605 145.738L26.2995 145.156L27.9948 143.828H28.7605V149.539ZM35.1037 148.875C35.2235 148.875 35.342 148.865 35.4592 148.844C35.5764 148.82 35.6832 148.793 35.7795 148.762V149.457C35.678 149.501 35.5465 149.539 35.385 149.57C35.2235 149.602 35.0556 149.617 34.8811 149.617C34.6363 149.617 34.4162 149.577 34.2209 149.496C34.0256 149.413 33.8707 149.271 33.7561 149.07C33.6415 148.87 33.5842 148.592 33.5842 148.238V145.914H32.9944V145.504L33.6272 145.18L33.928 144.254H34.5061V145.215H35.7444V145.914H34.5061V148.227C34.5061 148.445 34.5608 148.608 34.6702 148.715C34.7795 148.822 34.9241 148.875 35.1037 148.875ZM40.7266 147.367C40.7266 147.727 40.6797 148.046 40.5859 148.324C40.4922 148.603 40.3555 148.839 40.1758 149.031C39.9961 149.221 39.7799 149.367 39.5273 149.469C39.2747 149.568 38.9896 149.617 38.6719 149.617C38.375 149.617 38.1029 149.568 37.8555 149.469C37.6081 149.367 37.3932 149.221 37.2109 149.031C37.0312 148.839 36.8919 148.603 36.793 148.324C36.694 148.046 36.6445 147.727 36.6445 147.367C36.6445 146.891 36.7266 146.487 36.8906 146.156C37.0573 145.823 37.2943 145.569 37.6016 145.395C37.9089 145.22 38.2747 145.133 38.6992 145.133C39.0977 145.133 39.4492 145.22 39.7539 145.395C40.0586 145.569 40.2969 145.823 40.4687 146.156C40.6406 146.49 40.7266 146.893 40.7266 147.367ZM37.5898 147.367C37.5898 147.682 37.6276 147.952 37.7031 148.176C37.7812 148.4 37.901 148.572 38.0625 148.691C38.224 148.809 38.4323 148.867 38.6875 148.867C38.9427 148.867 39.151 148.809 39.3125 148.691C39.474 148.572 39.5924 148.4 39.668 148.176C39.7435 147.952 39.7812 147.682 39.7812 147.367C39.7812 147.052 39.7435 146.785 39.668 146.566C39.5924 146.345 39.474 146.177 39.3125 146.062C39.151 145.945 38.9414 145.887 38.6836 145.887C38.3034 145.887 38.026 146.014 37.8516 146.27C37.6771 146.525 37.5898 146.891 37.5898 147.367ZM44.2752 145.133C44.7621 145.133 45.141 145.259 45.4119 145.512C45.6853 145.762 45.822 146.164 45.822 146.719V149.539H44.9041V146.891C44.9041 146.555 44.8351 146.303 44.697 146.137C44.559 145.967 44.3455 145.883 44.0564 145.883C43.6371 145.883 43.3455 146.012 43.1814 146.27C43.0199 146.527 42.9392 146.901 42.9392 147.391V149.539H42.0212V145.215H42.7361L42.865 145.801H42.9158C43.0095 145.65 43.1254 145.526 43.2634 145.43C43.4041 145.331 43.5603 145.257 43.7322 145.207C43.9067 145.158 44.0877 145.133 44.2752 145.133ZM52.1927 144.543C51.9192 144.543 51.6744 144.592 51.4583 144.691C51.2447 144.79 51.0637 144.934 50.9153 145.121C50.7669 145.306 50.6536 145.531 50.5755 145.797C50.4973 146.06 50.4583 146.357 50.4583 146.688C50.4583 147.13 50.5208 147.512 50.6458 147.832C50.7708 148.15 50.9609 148.395 51.2161 148.566C51.4713 148.736 51.7942 148.82 52.1848 148.82C52.427 148.82 52.6627 148.797 52.8919 148.75C53.121 148.703 53.358 148.639 53.6028 148.559V149.355C53.371 149.447 53.1367 149.513 52.8997 149.555C52.6627 149.596 52.3893 149.617 52.0794 149.617C51.496 149.617 51.0117 149.496 50.6262 149.254C50.2434 149.012 49.957 148.671 49.7669 148.23C49.5794 147.79 49.4856 147.275 49.4856 146.684C49.4856 146.251 49.5455 145.855 49.6653 145.496C49.7851 145.137 49.9596 144.827 50.1887 144.566C50.4179 144.303 50.7005 144.102 51.0364 143.961C51.3749 143.818 51.7617 143.746 52.1966 143.746C52.483 143.746 52.7643 143.779 53.0403 143.844C53.319 143.906 53.5768 143.996 53.8137 144.113L53.4856 144.887C53.2877 144.793 53.0807 144.712 52.8645 144.645C52.6484 144.577 52.4244 144.543 52.1927 144.543ZM60.1397 146.676C60.1397 147.116 60.0837 147.517 59.9717 147.879C59.8623 148.238 59.697 148.548 59.4756 148.809C59.2543 149.066 58.9769 149.266 58.6436 149.406C58.3103 149.547 57.9196 149.617 57.4717 149.617C57.016 149.617 56.6202 149.547 56.2842 149.406C55.9509 149.266 55.6735 149.065 55.4522 148.805C55.2334 148.544 55.0694 148.233 54.96 147.871C54.8506 147.509 54.7959 147.108 54.7959 146.668C54.7959 146.079 54.8923 145.566 55.085 145.129C55.2803 144.689 55.5759 144.348 55.9717 144.105C56.3702 143.861 56.8728 143.738 57.4795 143.738C58.0733 143.738 58.5668 143.859 58.96 144.102C59.3532 144.344 59.6475 144.685 59.8428 145.125C60.0407 145.562 60.1397 146.079 60.1397 146.676ZM55.7803 146.676C55.7803 147.116 55.8402 147.497 55.96 147.82C56.0798 148.141 56.2634 148.388 56.5108 148.562C56.7608 148.734 57.0811 148.82 57.4717 148.82C57.8649 148.82 58.1853 148.734 58.4327 148.562C58.6801 148.388 58.8623 148.141 58.9795 147.82C59.0967 147.497 59.1553 147.116 59.1553 146.676C59.1553 146.007 59.0212 145.483 58.753 145.105C58.4873 144.725 58.0629 144.535 57.4795 144.535C57.0889 144.535 56.7673 144.621 56.5147 144.793C56.2647 144.965 56.0798 145.211 55.96 145.531C55.8402 145.849 55.7803 146.23 55.7803 146.676ZM65.0828 149.539H61.2156V148.848L62.6961 147.348C62.9826 147.056 63.2182 146.805 63.4031 146.594C63.588 146.38 63.7247 146.178 63.8133 145.988C63.9044 145.798 63.95 145.591 63.95 145.367C63.95 145.091 63.8706 144.883 63.7117 144.742C63.5529 144.599 63.3432 144.527 63.0828 144.527C62.8354 144.527 62.6063 144.577 62.3953 144.676C62.187 144.772 61.9708 144.91 61.7469 145.09L61.243 144.484C61.4018 144.349 61.5711 144.225 61.7508 144.113C61.9331 144.001 62.1362 143.913 62.3602 143.848C62.5841 143.78 62.8393 143.746 63.1258 143.746C63.4878 143.746 63.8003 143.811 64.0633 143.941C64.3263 144.069 64.5281 144.247 64.6688 144.477C64.812 144.706 64.8836 144.973 64.8836 145.277C64.8836 145.585 64.8224 145.868 64.7 146.129C64.5776 146.389 64.4031 146.647 64.1766 146.902C63.95 147.155 63.6805 147.43 63.368 147.727L62.3797 148.691V148.734H65.0828V149.539Z" fill="#11D645"/>
</g>
<path d="M102.665 135.913C103.34 135.433 105.189 134.772 105.563 134.058C105.215 133.943 104.536 134.154 104.168 134.195C103.583 134.258 102.999 134.306 102.416 134.359C101.385 134.451 100.354 134.527 99.32 134.554C97.722 134.598 96.1167 134.529 94.53 134.522C92.7403 134.514 90.9577 134.394 89.1735 134.339C88.0986 134.307 87.0259 134.292 85.951 134.26C85.3503 134.24 83.7047 134.427 83.2735 133.873C82.8308 133.305 83.4512 133.237 83.9015 133.209C84.8294 133.151 85.7593 133.159 86.6902 133.132C88.6338 133.076 90.5768 133.028 92.5191 132.942C94.4323 132.858 96.3626 132.786 98.2761 132.766C100.117 132.748 102.341 132.858 104.125 132.368C103.941 132.033 103.07 131.767 102.711 131.566C102.15 131.254 101.578 130.937 101.038 130.585C100.657 130.335 100.046 129.927 100.247 129.358C100.392 128.955 100.992 128.849 101.354 128.925C102.341 129.129 103.447 130.135 104.349 130.603C105.422 131.158 106.502 131.696 107.59 132.205C108.269 132.521 109.046 133.096 108.444 133.898C107.959 134.541 106.598 135.043 105.905 135.41C104.96 135.911 103.98 136.307 103.018 136.777C101.797 137.37 101.978 136.69 102.664 135.915C102.79 135.826 102.45 136.153 102.664 135.915L102.665 135.913Z" fill="#D1D5DB"/>
<g filter="url(#filter3_d_2566_82514)">
<rect x="115" y="99.5059" width="68" height="68" rx="34" fill="white" shape-rendering="crispEdges"/>
<path fill-rule="evenodd" clip-rule="evenodd" d="M153.831 114.506C153.712 114.616 153.408 114.701 152.918 114.762C152.646 114.795 152.169 114.854 151.858 114.892C151.096 114.985 150.568 115.124 150.1 115.355C149.515 115.644 149.052 116.107 148.795 116.659C148.505 117.28 148.506 118.115 148.795 118.799C148.953 119.171 149.121 119.414 149.242 119.446C149.563 119.531 149.752 119.332 149.754 118.911C149.755 118.664 149.917 118.067 150.069 117.749C150.275 117.322 150.562 116.959 150.923 116.672C151.238 116.421 151.682 116.164 151.622 116.267C151.604 116.297 151.519 116.426 151.434 116.554C151.044 117.136 150.753 117.856 150.517 118.827C150.12 120.46 149.978 121.614 149.876 124.041C149.829 125.176 149.83 125.216 149.912 125.401C150.033 125.675 150.249 125.826 150.549 125.848C150.735 125.862 150.83 125.846 150.962 125.778C151.156 125.679 151.221 125.596 151.473 125.123C151.665 124.761 152.005 124.309 152.18 124.181L152.289 124.101L152.546 124.296C153.059 124.685 153.611 124.824 154.181 124.707C154.928 124.555 155.32 124.21 156.087 123.031C156.288 122.721 156.507 122.398 156.574 122.312L156.695 122.157L156.462 122.007C156.333 121.925 155.996 121.681 155.712 121.465C154.924 120.865 154.608 120.706 154.066 120.637C153.643 120.583 153.291 120.643 152.909 120.831C152.384 121.09 151.898 121.677 151.898 122.052C151.898 122.218 151.998 122.328 152.122 122.299C152.172 122.288 152.374 122.241 152.571 122.195C153.029 122.087 153.59 122.048 154.066 122.09L154.442 122.123L154.071 122.178C153.019 122.335 152.186 122.737 151.422 123.456L151.088 123.771L151.116 123.309C151.188 122.133 151.304 120.889 151.375 120.546C151.396 120.445 151.43 120.426 151.701 120.366C152.646 120.154 153.524 119.227 153.913 118.029C154.082 117.511 154.138 117.025 154.117 116.266C154.099 115.614 153.981 114.552 153.919 114.481C153.904 114.463 153.864 114.475 153.831 114.506ZM146.663 120.717C146.232 120.844 145.933 121.016 145.214 121.55C144.831 121.834 144.485 122.09 144.445 122.12C144.376 122.169 144.38 122.185 144.5 122.342C144.571 122.434 144.82 122.803 145.054 123.161C145.732 124.203 146.215 124.607 146.916 124.72C147.72 124.851 148.602 124.447 148.898 123.815C149.019 123.555 149.022 123.409 148.91 123.178C148.71 122.764 147.635 122.281 146.663 122.169L146.369 122.135L146.579 122.105C147.187 122.019 147.971 122.093 148.597 122.295C149.004 122.426 149 122.426 149.115 122.319C149.238 122.204 149.231 122.055 149.087 121.752C148.857 121.268 148.406 120.874 147.9 120.716C147.571 120.614 147.012 120.614 146.663 120.717ZM144.876 126.011C144.567 126.059 144.139 126.181 143.801 126.317C143.055 126.616 142.867 126.775 140.451 129.154C139.231 130.355 138.232 131.35 138.232 131.365C138.232 131.38 139.27 132.43 140.537 133.699L142.842 136.006L143.612 134.847L144.383 133.689L148.298 133.676C152.156 133.663 152.218 133.662 152.493 133.573C152.885 133.448 153.267 133.256 153.538 133.049C153.665 132.952 155.097 131.691 156.72 130.247C158.87 128.333 159.682 127.586 159.716 127.49C159.905 126.946 159.55 126.525 158.793 126.395C158.538 126.351 158.445 126.354 158.15 126.415C157.961 126.454 157.683 126.548 157.533 126.624C157.382 126.699 156.091 127.619 154.663 128.666L152.067 130.571H150.521H148.974L148.622 130.217L148.27 129.863L149.842 129.847C151.348 129.832 151.426 129.827 151.683 129.736C152.573 129.419 153.018 128.692 152.806 127.905C152.678 127.434 152.328 127.077 151.782 126.861C151.552 126.771 151.465 126.765 149.985 126.737C148.258 126.704 148.186 126.695 147.537 126.409C146.803 126.086 146.3 125.98 145.528 125.988C145.227 125.992 144.934 126.002 144.876 126.011Z" fill="#9DE2A0"/>
<path d="M133.36 146.68C133.36 147.141 133.324 147.553 133.251 147.918C133.181 148.28 133.069 148.587 132.915 148.84C132.761 149.092 132.561 149.285 132.313 149.418C132.066 149.551 131.767 149.617 131.415 149.617C130.975 149.617 130.612 149.501 130.325 149.27C130.039 149.035 129.826 148.699 129.688 148.262C129.55 147.822 129.481 147.294 129.481 146.68C129.481 146.065 129.544 145.539 129.669 145.102C129.797 144.661 130.002 144.324 130.286 144.09C130.57 143.855 130.946 143.738 131.415 143.738C131.858 143.738 132.222 143.855 132.509 144.09C132.798 144.322 133.011 144.658 133.149 145.098C133.29 145.535 133.36 146.062 133.36 146.68ZM130.407 146.68C130.407 147.161 130.438 147.564 130.501 147.887C130.566 148.21 130.673 148.452 130.821 148.613C130.97 148.772 131.168 148.852 131.415 148.852C131.662 148.852 131.86 148.772 132.009 148.613C132.157 148.454 132.264 148.214 132.329 147.891C132.397 147.568 132.431 147.164 132.431 146.68C132.431 146.201 132.398 145.799 132.333 145.477C132.268 145.154 132.161 144.911 132.013 144.75C131.864 144.586 131.665 144.504 131.415 144.504C131.165 144.504 130.966 144.586 130.817 144.75C130.672 144.911 130.566 145.154 130.501 145.477C130.438 145.799 130.407 146.201 130.407 146.68ZM138.536 148.875C138.655 148.875 138.774 148.865 138.891 148.844C139.008 148.82 139.115 148.793 139.211 148.762V149.457C139.11 149.501 138.978 149.539 138.817 149.57C138.655 149.602 138.487 149.617 138.313 149.617C138.068 149.617 137.848 149.577 137.653 149.496C137.458 149.413 137.303 149.271 137.188 149.07C137.073 148.87 137.016 148.592 137.016 148.238V145.914H136.426V145.504L137.059 145.18L137.36 144.254H137.938V145.215H139.176V145.914H137.938V148.227C137.938 148.445 137.993 148.608 138.102 148.715C138.211 148.822 138.356 148.875 138.536 148.875ZM144.158 147.367C144.158 147.727 144.112 148.046 144.018 148.324C143.924 148.603 143.787 148.839 143.608 149.031C143.428 149.221 143.212 149.367 142.959 149.469C142.707 149.568 142.421 149.617 142.104 149.617C141.807 149.617 141.535 149.568 141.287 149.469C141.04 149.367 140.825 149.221 140.643 149.031C140.463 148.839 140.324 148.603 140.225 148.324C140.126 148.046 140.076 147.727 140.076 147.367C140.076 146.891 140.158 146.487 140.323 146.156C140.489 145.823 140.726 145.569 141.033 145.395C141.341 145.22 141.707 145.133 142.131 145.133C142.53 145.133 142.881 145.22 143.186 145.395C143.49 145.569 143.729 145.823 143.901 146.156C144.073 146.49 144.158 146.893 144.158 147.367ZM141.022 147.367C141.022 147.682 141.059 147.952 141.135 148.176C141.213 148.4 141.333 148.572 141.494 148.691C141.656 148.809 141.864 148.867 142.119 148.867C142.375 148.867 142.583 148.809 142.744 148.691C142.906 148.572 143.024 148.4 143.1 148.176C143.175 147.952 143.213 147.682 143.213 147.367C143.213 147.052 143.175 146.785 143.1 146.566C143.024 146.345 142.906 146.177 142.744 146.062C142.583 145.945 142.373 145.887 142.115 145.887C141.735 145.887 141.458 146.014 141.283 146.27C141.109 146.525 141.022 146.891 141.022 147.367ZM147.707 145.133C148.194 145.133 148.573 145.259 148.844 145.512C149.117 145.762 149.254 146.164 149.254 146.719V149.539H148.336V146.891C148.336 146.555 148.267 146.303 148.129 146.137C147.991 145.967 147.777 145.883 147.488 145.883C147.069 145.883 146.777 146.012 146.613 146.27C146.452 146.527 146.371 146.901 146.371 147.391V149.539H145.453V145.215H146.168L146.297 145.801H146.348C146.441 145.65 146.557 145.526 146.695 145.43C146.836 145.331 146.992 145.257 147.164 145.207C147.339 145.158 147.52 145.133 147.707 145.133ZM155.625 144.543C155.351 144.543 155.106 144.592 154.89 144.691C154.677 144.79 154.496 144.934 154.347 145.121C154.199 145.306 154.085 145.531 154.007 145.797C153.929 146.06 153.89 146.357 153.89 146.688C153.89 147.13 153.953 147.512 154.078 147.832C154.203 148.15 154.393 148.395 154.648 148.566C154.903 148.736 155.226 148.82 155.617 148.82C155.859 148.82 156.095 148.797 156.324 148.75C156.553 148.703 156.79 148.639 157.035 148.559V149.355C156.803 149.447 156.569 149.513 156.332 149.555C156.095 149.596 155.821 149.617 155.511 149.617C154.928 149.617 154.444 149.496 154.058 149.254C153.675 149.012 153.389 148.671 153.199 148.23C153.011 147.79 152.918 147.275 152.918 146.684C152.918 146.251 152.977 145.855 153.097 145.496C153.217 145.137 153.391 144.827 153.621 144.566C153.85 144.303 154.132 144.102 154.468 143.961C154.807 143.818 155.194 143.746 155.628 143.746C155.915 143.746 156.196 143.779 156.472 143.844C156.751 143.906 157.009 143.996 157.246 144.113L156.918 144.887C156.72 144.793 156.513 144.712 156.296 144.645C156.08 144.577 155.856 144.543 155.625 144.543ZM163.572 146.676C163.572 147.116 163.516 147.517 163.404 147.879C163.294 148.238 163.129 148.548 162.908 148.809C162.686 149.066 162.409 149.266 162.075 149.406C161.742 149.547 161.352 149.617 160.904 149.617C160.448 149.617 160.052 149.547 159.716 149.406C159.383 149.266 159.105 149.065 158.884 148.805C158.665 148.544 158.501 148.233 158.392 147.871C158.283 147.509 158.228 147.108 158.228 146.668C158.228 146.079 158.324 145.566 158.517 145.129C158.712 144.689 159.008 144.348 159.404 144.105C159.802 143.861 160.305 143.738 160.911 143.738C161.505 143.738 161.999 143.859 162.392 144.102C162.785 144.344 163.079 144.685 163.275 145.125C163.473 145.562 163.572 146.079 163.572 146.676ZM159.212 146.676C159.212 147.116 159.272 147.497 159.392 147.82C159.512 148.141 159.695 148.388 159.943 148.562C160.193 148.734 160.513 148.82 160.904 148.82C161.297 148.82 161.617 148.734 161.865 148.562C162.112 148.388 162.294 148.141 162.411 147.82C162.529 147.497 162.587 147.116 162.587 146.676C162.587 146.007 162.453 145.483 162.185 145.105C161.919 144.725 161.495 144.535 160.911 144.535C160.521 144.535 160.199 144.621 159.947 144.793C159.697 144.965 159.512 145.211 159.392 145.531C159.272 145.849 159.212 146.23 159.212 146.676ZM168.515 149.539H164.647V148.848L166.128 147.348C166.414 147.056 166.65 146.805 166.835 146.594C167.02 146.38 167.157 146.178 167.245 145.988C167.336 145.798 167.382 145.591 167.382 145.367C167.382 145.091 167.302 144.883 167.144 144.742C166.985 144.599 166.775 144.527 166.515 144.527C166.267 144.527 166.038 144.577 165.827 144.676C165.619 144.772 165.403 144.91 165.179 145.09L164.675 144.484C164.834 144.349 165.003 144.225 165.183 144.113C165.365 144.001 165.568 143.913 165.792 143.848C166.016 143.78 166.271 143.746 166.558 143.746C166.92 143.746 167.232 143.811 167.495 143.941C167.758 144.069 167.96 144.247 168.101 144.477C168.244 144.706 168.315 144.973 168.315 145.277C168.315 145.585 168.254 145.868 168.132 146.129C168.009 146.389 167.835 146.647 167.608 146.902C167.382 147.155 167.112 147.43 166.8 147.727L165.812 148.691V148.734H168.515V149.539Z" fill="#11D645"/>
</g>
<defs>
<filter id="filter0_d_2566_82514" x="0.84" y="0.0658596" width="84.32" height="84.32" filterUnits="userSpaceOnUse" color-interpolation-filters="sRGB">
<feFlood flood-opacity="0" result="BackgroundImageFix"/>
<feColorMatrix in="SourceAlpha" type="matrix" values="0 0 0 0 0 0 0 0 0 0 0 0 0 0 0 0 0 0 127 0" result="hardAlpha"/>
<feOffset dy="2.72"/>
<feGaussianBlur stdDeviation="4.08"/>
<feComposite in2="hardAlpha" operator="out"/>
<feColorMatrix type="matrix" values="0 0 0 0 0 0 0 0 0 0 0 0 0 0 0 0 0 0 0.05 0"/>
<feBlend mode="normal" in2="BackgroundImageFix" result="effect1_dropShadow_2566_82514"/>
<feBlend mode="normal" in="SourceGraphic" in2="effect1_dropShadow_2566_82514" result="shape"/>
</filter>
<filter id="filter1_d_2566_82514" x="106.84" y="0.0658596" width="84.32" height="84.32" filterUnits="userSpaceOnUse" color-interpolation-filters="sRGB">
<feFlood flood-opacity="0" result="BackgroundImageFix"/>
<feColorMatrix in="SourceAlpha" type="matrix" values="0 0 0 0 0 0 0 0 0 0 0 0 0 0 0 0 0 0 127 0" result="hardAlpha"/>
<feOffset dy="2.72"/>
<feGaussianBlur stdDeviation="4.08"/>
<feComposite in2="hardAlpha" operator="out"/>
<feColorMatrix type="matrix" values="0 0 0 0 0 0 0 0 0 0 0 0 0 0 0 0 0 0 0.05 0"/>
<feBlend mode="normal" in2="BackgroundImageFix" result="effect1_dropShadow_2566_82514"/>
<feBlend mode="normal" in="SourceGraphic" in2="effect1_dropShadow_2566_82514" result="shape"/>
</filter>
<filter id="filter2_d_2566_82514" x="2.2" y="94.9725" width="81.6" height="81.6" filterUnits="userSpaceOnUse" color-interpolation-filters="sRGB">
<feFlood flood-opacity="0" result="BackgroundImageFix"/>
<feColorMatrix in="SourceAlpha" type="matrix" values="0 0 0 0 0 0 0 0 0 0 0 0 0 0 0 0 0 0 127 0" result="hardAlpha"/>
<feOffset dy="2.26667"/>
<feGaussianBlur stdDeviation="3.4"/>
<feComposite in2="hardAlpha" operator="out"/>
<feColorMatrix type="matrix" values="0 0 0 0 0 0 0 0 0 0 0 0 0 0 0 0 0 0 0.05 0"/>
<feBlend mode="normal" in2="BackgroundImageFix" result="effect1_dropShadow_2566_82514"/>
<feBlend mode="normal" in="SourceGraphic" in2="effect1_dropShadow_2566_82514" result="shape"/>
</filter>
<filter id="filter3_d_2566_82514" x="108.2" y="94.9725" width="81.6" height="81.6" filterUnits="userSpaceOnUse" color-interpolation-filters="sRGB">
<feFlood flood-opacity="0" result="BackgroundImageFix"/>
<feColorMatrix in="SourceAlpha" type="matrix" values="0 0 0 0 0 0 0 0 0 0 0 0 0 0 0 0 0 0 127 0" result="hardAlpha"/>
<feOffset dy="2.26667"/>
<feGaussianBlur stdDeviation="3.4"/>
<feComposite in2="hardAlpha" operator="out"/>
<feColorMatrix type="matrix" values="0 0 0 0 0 0 0 0 0 0 0 0 0 0 0 0 0 0 0.05 0"/>
<feBlend mode="normal" in2="BackgroundImageFix" result="effect1_dropShadow_2566_82514"/>
<feBlend mode="normal" in="SourceGraphic" in2="effect1_dropShadow_2566_82514" result="shape"/>
</filter>
</defs>
</svg>
