<svg width="26" height="24" viewBox="0 0 26 24" fill="none" xmlns="http://www.w3.org/2000/svg">
<path d="M4.38745 22.32C2.71313 20.6256 1.57883 18.4728 1.12801 16.1338C0.677186 13.7948 0.930085 11.3747 1.85472 9.17939C2.77936 6.98411 4.33421 5.11232 6.32265 3.80072C8.31108 2.48911 10.6438 1.7966 13.0258 1.81076C15.4078 1.82492 17.7322 2.54511 19.7049 3.88025C21.6776 5.2154 23.2101 7.10554 24.1085 9.31166C25.007 11.5178 25.2311 13.9408 24.7525 16.2743C24.2739 18.6077 23.1141 20.7469 21.4198 22.4212" stroke="url(#paint0_linear_2770_10923)" stroke-width="1.63636" stroke-linecap="round"/>
<path d="M19.7051 3.88086C21.6778 5.21601 23.2103 7.10615 24.1088 9.31226C25.0072 11.5184 25.2313 13.9414 24.7527 16.2749C24.2742 18.6083 23.1144 20.7475 21.42 22.4218" stroke="#D1D5DB" stroke-width="1.63636" stroke-linecap="round"/>
<circle cx="19.5015" cy="3.70875" r="1.09554" fill="white" stroke="#9CA3AF" stroke-width="0.0545455"/>
<path d="M9.11401 14.1705C10.0191 13.8863 10.5688 13.3298 11.2647 13.4478C11.9351 13.5618 12.041 14.2496 11.6522 14.5594C11.6079 14.5366 11.5623 14.5138 11.5194 14.4923C11.4658 14.4668 11.4122 14.4427 11.3585 14.4199C11.2794 14.3502 11.2191 14.2657 11.1722 14.188C11.1092 14.078 11.0689 13.9748 11.0421 13.8903C10.9885 13.7187 10.9791 13.6194 10.9778 13.6194C10.9791 13.6194 10.9751 13.7214 11.0153 13.9024C11.0354 13.9922 11.0676 14.1008 11.1252 14.2201C11.148 14.2657 11.1775 14.314 11.2097 14.3623C11.0649 14.3086 10.9268 14.2671 10.7954 14.2362C10.7954 14.2362 10.7713 14.2242 10.7592 14.2242C10.5929 14.1491 10.5044 14.0043 10.4562 13.9064C10.3999 13.7897 10.3757 13.7214 10.3744 13.7227C10.3757 13.7227 10.3878 13.7951 10.4307 13.9211C10.4535 13.9842 10.4857 14.0606 10.5447 14.1383C10.5594 14.1571 10.5755 14.1772 10.5943 14.196C10.5527 14.1893 10.5125 14.1826 10.4736 14.1786C10.1773 14.141 9.94532 14.1558 9.79247 14.1732C9.63828 14.1906 9.56051 14.2108 9.56051 14.2094C9.56051 14.2094 9.6423 14.1987 9.79917 14.1933C9.95471 14.1893 10.1867 14.1933 10.4763 14.2523C10.4857 14.2537 10.4964 14.2563 10.5058 14.259C10.4776 14.2671 10.4495 14.2751 10.4227 14.2845C10.3194 14.3207 10.2363 14.3663 10.1746 14.4105C10.0486 14.5017 10.0244 14.5902 10.0231 14.5875C10.0231 14.5889 10.062 14.5057 10.1934 14.4333C10.2577 14.3971 10.3422 14.3623 10.4441 14.3368C10.5165 14.3194 10.601 14.3033 10.6868 14.3019C10.8531 14.3489 11.0341 14.4132 11.2218 14.5004C11.1373 14.5165 11.0595 14.5419 10.9952 14.5755C10.8517 14.6465 10.7458 14.7323 10.6627 14.8034C10.4991 14.9482 10.42 15.0367 10.4186 15.0354C10.4186 15.0354 10.5111 14.9549 10.6855 14.8235C10.7739 14.7591 10.8839 14.6827 11.0247 14.6251C11.1212 14.5848 11.2352 14.5607 11.3545 14.5661C11.3934 14.5862 11.4323 14.6063 11.4712 14.6277C11.5355 14.6639 11.5999 14.7028 11.6656 14.7444C11.7581 15.1399 11.435 15.6562 10.8195 15.5516C10.3637 15.4738 9.93191 14.4615 9.11536 14.1732L9.11401 14.1705Z" fill="#27AE60"/>
<path d="M12.9668 19.1312H13.7271C13.2203 18.6297 13.4227 16.0312 13.3168 14.8271C13.29 14.5254 13.2565 14.2345 13.2109 13.9529C13.1613 13.6687 13.109 13.4139 13.058 13.1591C12.9561 12.6537 12.8435 12.1911 12.7161 11.7835C12.4654 10.9642 12.1516 10.3689 11.9022 9.99616C11.6515 9.62207 11.4826 9.45581 11.4866 9.45312C11.4839 9.45447 11.63 9.6328 11.8406 10.0149C12.0497 10.3971 12.3045 10.9924 12.4895 11.8009C12.5834 12.2045 12.6611 12.6604 12.7282 13.1645L12.8274 13.9543C12.8556 14.2238 12.8703 14.508 12.8797 14.8057C12.9146 15.9936 13.0044 17.6013 12.9668 19.1285V19.1312Z" fill="#27AE60"/>
<path d="M16.9987 10.0449C15.8027 10.2635 14.8467 9.96179 14.128 10.5115C13.4362 11.0411 13.7271 11.8859 14.3533 12.0039C14.3895 11.9502 14.427 11.8993 14.4646 11.8483C14.5101 11.7866 14.5571 11.7276 14.604 11.6713C14.6523 11.544 14.671 11.4139 14.6764 11.2972C14.6831 11.135 14.6657 10.9942 14.6456 10.8803C14.604 10.6537 14.5544 10.5357 14.5557 10.5343C14.5544 10.5343 14.6201 10.6496 14.6831 10.8776C14.714 10.9915 14.7435 11.1337 14.7488 11.3026C14.7502 11.3683 14.7461 11.4407 14.7367 11.5145C14.8681 11.367 15.0009 11.2369 15.1309 11.1243C15.1309 11.1243 15.1511 11.0961 15.1658 11.0881C15.3093 10.903 15.3227 10.6872 15.3187 10.5477C15.312 10.3815 15.2985 10.2903 15.3012 10.2903C15.2999 10.2903 15.3294 10.3801 15.3562 10.5491C15.3683 10.6335 15.3777 10.7395 15.3562 10.8628C15.3508 10.8937 15.3441 10.9245 15.3334 10.958C15.3763 10.9245 15.4179 10.8937 15.4594 10.8655C15.7732 10.6456 16.044 10.5236 16.2291 10.4525C16.4141 10.3801 16.5147 10.356 16.5133 10.3547C16.5133 10.3547 16.4128 10.3909 16.2331 10.4793C16.0534 10.5678 15.7933 10.7126 15.501 10.9513C15.4916 10.9594 15.4822 10.9687 15.4715 10.9768C15.5091 10.9687 15.5453 10.962 15.5801 10.9567C15.7196 10.9366 15.8416 10.9366 15.9381 10.9513C16.1352 10.9795 16.2157 11.0653 16.2157 11.0613C16.2157 11.0639 16.1232 10.9929 15.9301 10.9889C15.8349 10.9862 15.7196 10.9982 15.5895 11.0291C15.4983 11.0532 15.3924 11.0854 15.2945 11.135C15.1336 11.2865 14.9674 11.4689 14.8065 11.6794C14.9111 11.6472 15.0143 11.6298 15.1082 11.6284C15.3133 11.6231 15.4849 11.6566 15.6217 11.6874C15.8939 11.7545 16.0373 11.8068 16.0373 11.8041C16.0373 11.8068 15.8845 11.7679 15.6083 11.7223C15.4702 11.7022 15.2985 11.6821 15.1055 11.7008C14.9727 11.7129 14.8279 11.7531 14.6952 11.8309C14.663 11.8765 14.6322 11.9221 14.6 11.9703C14.5477 12.0494 14.4981 12.1326 14.4485 12.2184C14.5799 12.7225 15.2543 13.1141 15.8912 12.6273C16.3605 12.2667 16.2465 10.8601 16.9987 10.0449Z" fill="#27AE60"/>
<path d="M8.99255 7.4707C10.4661 7.8582 11.6889 7.56992 12.5337 8.32749C13.3475 9.05555 12.9037 10.0813 12.1113 10.1698C12.0711 10.1 12.0295 10.0317 11.9879 9.96463C11.937 9.88284 11.8847 9.80507 11.8311 9.72998C11.7828 9.5664 11.7721 9.40148 11.7761 9.25533C11.7828 9.05153 11.819 8.87722 11.8539 8.73778C11.9263 8.45889 12 8.31542 11.9987 8.31542C12.0014 8.31542 11.9075 8.45218 11.8083 8.73107C11.76 8.87052 11.7091 9.04617 11.6863 9.25667C11.6782 9.33846 11.6769 9.4283 11.6809 9.52216C11.5307 9.32506 11.3765 9.15075 11.2264 8.9979C11.2264 8.9979 11.2049 8.96169 11.1875 8.94963C11.0266 8.70426 11.0293 8.43341 11.0467 8.25911C11.0695 8.05262 11.095 7.93999 11.0936 7.93865C11.0963 7.93865 11.0507 8.0486 10.9998 8.25642C10.977 8.36101 10.9542 8.49241 10.9689 8.64928C10.9729 8.68817 10.9783 8.72839 10.9877 8.76996C10.9381 8.72437 10.8885 8.6828 10.8389 8.64258C10.4675 8.33821 10.1403 8.16123 9.91772 8.05262C9.6938 7.94535 9.57045 7.90513 9.57179 7.90379C9.57179 7.90513 9.6938 7.95876 9.91101 8.08614C10.1269 8.21352 10.438 8.41866 10.7799 8.74448C10.7906 8.75521 10.8027 8.76728 10.8147 8.77934C10.7691 8.76594 10.7236 8.75387 10.6806 8.74314C10.509 8.70426 10.3562 8.69353 10.2342 8.70292C9.98476 8.71901 9.87615 8.81823 9.87749 8.8142C9.87749 8.81689 9.99951 8.73644 10.2409 8.74985C10.3588 8.75521 10.5037 8.78068 10.6632 8.83298C10.7758 8.87186 10.9046 8.92147 11.0226 8.99387C11.2103 9.19902 11.3993 9.44171 11.5803 9.7206C11.453 9.66965 11.3242 9.64015 11.2076 9.62808C10.9515 9.60127 10.7343 9.62808 10.5613 9.65356C10.2154 9.71121 10.0317 9.76216 10.0303 9.75948C10.0303 9.76216 10.2261 9.72864 10.5747 9.69915C10.749 9.68708 10.9649 9.67769 11.2049 9.7206C11.3698 9.74875 11.5455 9.81311 11.705 9.92172C11.7399 9.98206 11.7761 10.0424 11.811 10.1054C11.8686 10.2087 11.9222 10.3173 11.9772 10.4299C11.7654 11.0467 10.8858 11.473 10.1376 10.804C9.58519 10.3092 9.86274 8.56213 8.99926 7.47339L8.99255 7.4707Z" fill="#27AE60"/>
<path d="M12.9673 17.2541H13.3361C13.32 16.2499 13.4058 15.3341 13.5291 14.539C13.6458 13.7492 13.9153 13.1003 14.1727 12.5935C14.6983 11.5771 15.1944 11.14 15.1877 11.1387C15.1958 11.14 14.6755 11.5208 14.0762 12.5076C13.7839 12.9984 13.4621 13.6447 13.2945 14.4626C13.1242 15.2671 12.9915 16.2029 12.9687 17.2528L12.9673 17.2541Z" fill="#27AE60"/>
<path d="M12.618 19.1311H13.2214C13.2751 18.3306 13.1463 17.2298 12.9828 16.6278C12.8151 16.0258 12.5751 15.531 12.3056 15.177C12.0388 14.8204 11.7412 14.6219 11.528 14.5334C11.3134 14.4449 11.1901 14.4396 11.1914 14.4355C11.1901 14.4382 11.3081 14.4597 11.5025 14.5669C11.6956 14.6742 11.953 14.8861 12.1729 15.2427C12.3955 15.5967 12.5818 16.0821 12.6998 16.6707C12.8138 17.2566 12.9667 18.7409 12.618 19.1311Z" fill="#27AE60"/>
<defs>
<linearGradient id="paint0_linear_2770_10923" x1="-2.52217" y1="12.1159" x2="27.2865" y2="12.1159" gradientUnits="userSpaceOnUse">
<stop stop-color="#365BE0"/>
<stop offset="0.508265" stop-color="#D676CF"/>
<stop offset="1" stop-color="#FFE884"/>
</linearGradient>
</defs>
</svg>
