<svg width="102" height="69" viewBox="0 0 102 69" fill="none" xmlns="http://www.w3.org/2000/svg">
<path d="M99.3452 6.1177C79.6705 9.62175 64.1788 20.1477 56.8583 37.4756C50.974 51.3819 56.9559 63.4193 59.5495 67.6379C60.1212 64.9721 60.8463 62.3887 61.655 59.8603L61.5156 60.2588C61.8781 59.558 60.2048 43.6729 62.5056 37.6954C62.5056 37.6954 62.896 49.5268 63.1191 55.6829L63.0215 55.9577C65.9497 48.2213 69.84 41.227 73.9395 35.167C73.9395 35.167 76.0032 21.5081 79.043 17.688C79.043 17.688 75.32 30.1651 76.0869 31.924C76.1148 31.979 76.0869 32.0202 76.1148 32.0752C85.987 18.4163 96.2079 10.2676 96.2079 10.2676C90.1702 16.6574 85.1086 23.2944 80.8696 29.7117C89.6961 26.3725 98.8154 20.5736 98.8154 20.5736C96.166 25.4931 79.6426 31.8416 79.4334 31.9103C75.1945 38.6024 71.8619 44.9921 69.3241 50.5436C74.0232 49.1283 89.2917 41.8178 89.2917 41.8178C83.9652 47.177 68.4178 52.6323 68.3899 52.6461C64.7087 61.0008 62.896 67.0745 62.4359 68.7647C116.747 53.7591 99.3452 6.13144 99.3452 6.13144V6.1177Z" fill="url(#paint0_linear_2028_74059)"/>
<path d="M3.47383 21.3195C15.4481 25.0153 24.2872 32.8254 27.5139 44.2841C30.1014 53.4811 25.454 60.6045 23.5174 63.0728C23.367 61.3597 23.1161 59.667 22.7949 58.0145L22.844 58.2812C22.6734 57.8041 24.9409 47.9457 23.9683 43.9974C23.9683 43.9974 22.8163 51.4176 22.1984 55.2692L22.2413 55.4537C21.0154 50.3665 19.1225 45.654 17.0422 41.5378C17.0422 41.5378 16.8032 32.7907 15.2127 30.1521C15.2127 30.1521 16.573 38.2866 15.9544 39.3354C15.9504 39.3675 15.9465 39.3996 15.9265 39.4297C10.8244 30.0721 5.08713 24.1728 5.08713 24.1728C8.34811 28.6614 10.9954 33.2216 13.1268 37.5884C7.89053 34.8139 2.64934 30.4744 2.64934 30.4744C3.91381 33.7739 13.7191 39.0296 13.8421 39.0935C15.968 43.639 17.5556 47.9067 18.7065 51.5997C15.8987 50.3604 6.95729 44.591 6.95729 44.591C9.86377 48.3681 19.1095 52.9852 19.1417 52.9891C20.7856 58.5348 21.4463 62.4938 21.6068 63.5889C-11.0148 49.9719 3.47383 21.3195 3.47383 21.3195Z" fill="url(#paint1_linear_2028_74059)"/>
<path d="M68.9995 10.7188L63.0509 1.53125C52.3438 7.65625 42.7261 21.4375 39.2557 27.5625C38.0659 17.7625 24.8797 5.10417 18.4354 0L10.9995 10.7188C26.4661 21.7437 33.307 40.8333 34.7942 49H46.6921C46.6921 33.6875 61.068 17.3542 68.9995 10.7188Z" fill="url(#paint2_linear_2028_74059)"/>
<defs>
<linearGradient id="paint0_linear_2028_74059" x1="8" y1="63" x2="113.133" y2="18.1315" gradientUnits="userSpaceOnUse">
<stop stop-color="#FFE86E"/>
<stop offset="0.508333" stop-color="#3FDEC4"/>
<stop offset="0.919792" stop-color="#1BDC73"/>
</linearGradient>
<linearGradient id="paint1_linear_2028_74059" x1="8" y1="63" x2="113.133" y2="18.1315" gradientUnits="userSpaceOnUse">
<stop stop-color="#FFE86E"/>
<stop offset="0.508333" stop-color="#3FDEC4"/>
<stop offset="0.919792" stop-color="#1BDC73"/>
</linearGradient>
<linearGradient id="paint2_linear_2028_74059" x1="8" y1="63" x2="113.133" y2="18.1315" gradientUnits="userSpaceOnUse">
<stop stop-color="#FFE86E"/>
<stop offset="0.508333" stop-color="#3FDEC4"/>
<stop offset="0.919792" stop-color="#1BDC73"/>
</linearGradient>
</defs>
</svg>
