<svg width="295" height="231" viewBox="0 0 295 231" fill="none" xmlns="http://www.w3.org/2000/svg">
<g filter="url(#filter0_d_2030_81025)">
<rect x="28.5" y="103.166" width="60.4167" height="60.4167" rx="30.2083" fill="white"/>
<path fill-rule="evenodd" clip-rule="evenodd" d="M58.0799 117.237C56.6387 117.384 55.3348 117.993 54.2798 119.01C52.4954 120.731 51.8739 123.257 52.6579 125.602C52.8547 126.191 53.2561 126.951 53.6016 127.389C53.6689 127.474 53.724 127.563 53.724 127.587C53.724 127.61 53.5937 127.706 53.4344 127.801C53.028 128.042 52.4708 128.458 51.982 128.887C49.9927 130.629 48.7238 133.37 48.7099 135.955C48.7063 136.609 48.708 136.621 48.8228 136.795C49.2094 137.38 50.0782 137.332 50.3987 136.708C50.4626 136.584 50.4906 136.399 50.5212 135.898C50.597 134.66 50.8554 133.665 51.3644 132.65C52.1178 131.149 53.4564 129.805 54.947 129.053L55.2065 128.923L55.8211 129.232C57.8345 130.245 60.0246 130.17 61.988 129.022L62.1729 128.913L62.5071 129.082C63.9398 129.803 65.1844 131.04 65.9555 132.509C66.5258 133.596 66.7951 134.587 66.8764 135.898C66.9074 136.398 66.9356 136.584 66.9994 136.708C67.317 137.326 68.1604 137.383 68.5619 136.812C68.6816 136.642 68.693 136.595 68.7063 136.211C68.7352 135.379 68.5262 134.112 68.1962 133.117C67.9958 132.513 67.4557 131.399 67.1015 130.858C66.7202 130.275 66.2164 129.674 65.6544 129.131C65.0993 128.594 64.709 128.287 64.0622 127.878L63.6388 127.61L63.8958 127.251C64.4112 126.532 64.8167 125.559 64.9864 124.633C65.083 124.106 65.0807 123.021 64.9818 122.48C64.8884 121.969 64.629 121.186 64.4073 120.746C63.7808 119.502 62.645 118.393 61.4076 117.817C60.3824 117.34 59.1583 117.126 58.0799 117.237ZM59.4301 119.091C60.3997 119.258 61.2207 119.68 61.9073 120.364C62.4939 120.949 62.8885 121.645 63.1305 122.521C63.2042 122.788 63.2193 122.965 63.2194 123.567C63.2195 124.213 63.2075 124.337 63.1091 124.702C62.8895 125.517 62.4686 126.235 61.8737 126.811C60.9716 127.683 59.932 128.108 58.6991 128.108C57.4349 128.108 56.3289 127.64 55.4468 126.732C54.8667 126.136 54.5055 125.503 54.2892 124.706C54.1883 124.334 54.1771 124.218 54.178 123.567C54.179 122.923 54.1915 122.796 54.29 122.429C54.8994 120.161 57.1495 118.7 59.4301 119.091Z" fill="url(#paint0_linear_2030_81025)"/>
<path d="M54.7435 141.83V145.525C54.7435 145.929 54.6615 146.288 54.4974 146.604C54.336 146.919 54.0912 147.167 53.763 147.35C53.4349 147.529 53.0235 147.619 52.5287 147.619C51.8229 147.619 51.2852 147.428 50.9154 147.045C50.5482 146.662 50.3646 146.15 50.3646 145.51V141.83H51.0326V145.529C51.0326 146.014 51.1602 146.387 51.4154 146.65C51.6732 146.913 52.0573 147.045 52.5677 147.045C52.9167 147.045 53.2018 146.982 53.4232 146.857C53.6472 146.73 53.8125 146.553 53.9193 146.326C54.0287 146.097 54.0834 145.833 54.0834 145.533V141.83H54.7435ZM59.171 146.369C59.171 146.643 59.102 146.873 58.964 147.061C58.8286 147.245 58.6333 147.385 58.378 147.479C58.1254 147.572 57.8234 147.619 57.4718 147.619C57.1723 147.619 56.9132 147.596 56.6945 147.549C56.4757 147.502 56.2843 147.436 56.1202 147.35V146.752C56.2947 146.838 56.503 146.916 56.7452 146.986C56.9874 147.057 57.2348 147.092 57.4874 147.092C57.8572 147.092 58.1254 147.032 58.2921 146.912C58.4588 146.792 58.5421 146.63 58.5421 146.424C58.5421 146.307 58.5083 146.204 58.4405 146.115C58.3754 146.024 58.2648 145.937 58.1085 145.854C57.9523 145.768 57.7361 145.674 57.4601 145.572C57.1866 145.468 56.9497 145.365 56.7491 145.264C56.5512 145.16 56.3976 145.033 56.2882 144.885C56.1814 144.736 56.128 144.544 56.128 144.307C56.128 143.945 56.2739 143.667 56.5655 143.475C56.8598 143.279 57.2452 143.182 57.7218 143.182C57.9796 143.182 58.2205 143.208 58.4445 143.26C58.671 143.309 58.882 143.377 59.0773 143.463L58.8585 143.982C58.6814 143.907 58.4926 143.843 58.2921 143.791C58.0916 143.739 57.8872 143.713 57.6788 143.713C57.3793 143.713 57.1489 143.762 56.9874 143.861C56.8286 143.96 56.7491 144.096 56.7491 144.268C56.7491 144.4 56.7856 144.51 56.8585 144.596C56.934 144.682 57.0538 144.762 57.2179 144.838C57.382 144.913 57.5981 145.002 57.8663 145.104C58.1346 145.202 58.3663 145.305 58.5616 145.412C58.757 145.516 58.9067 145.644 59.0109 145.795C59.1176 145.943 59.171 146.135 59.171 146.369ZM62.1024 143.182C62.467 143.182 62.7795 143.262 63.0399 143.424C63.3003 143.585 63.4996 143.812 63.6376 144.104C63.7756 144.393 63.8446 144.731 63.8446 145.119V145.521H60.8876C60.8954 146.024 61.0204 146.407 61.2626 146.67C61.5048 146.933 61.8459 147.064 62.286 147.064C62.5568 147.064 62.7964 147.04 63.0048 146.99C63.2131 146.941 63.4292 146.868 63.6532 146.771V147.342C63.4371 147.438 63.2222 147.508 63.0087 147.553C62.7977 147.597 62.5477 147.619 62.2587 147.619C61.8472 147.619 61.4878 147.536 61.1805 147.369C60.8759 147.2 60.6389 146.952 60.4696 146.627C60.3003 146.301 60.2157 145.903 60.2157 145.432C60.2157 144.971 60.2925 144.572 60.4462 144.236C60.6024 143.898 60.8212 143.637 61.1024 143.455C61.3863 143.273 61.7196 143.182 62.1024 143.182ZM62.0946 143.713C61.7483 143.713 61.4722 143.826 61.2665 144.053C61.0608 144.279 60.9384 144.596 60.8993 145.002H63.1649C63.1623 144.747 63.122 144.523 63.0438 144.33C62.9683 144.135 62.8524 143.984 62.6962 143.877C62.5399 143.768 62.3394 143.713 62.0946 143.713ZM67.1315 143.182C67.2174 143.182 67.3073 143.187 67.401 143.197C67.4948 143.205 67.5781 143.217 67.651 143.232L67.569 143.834C67.4987 143.816 67.4205 143.801 67.3346 143.791C67.2487 143.781 67.1679 143.775 67.0924 143.775C66.9205 143.775 66.7578 143.811 66.6041 143.881C66.4531 143.949 66.3203 144.048 66.2057 144.178C66.0911 144.305 66.0013 144.46 65.9362 144.643C65.8711 144.822 65.8385 145.023 65.8385 145.244V147.541H65.1862V143.26H65.7252L65.7955 144.049H65.8229C65.9114 143.89 66.0182 143.745 66.1432 143.615C66.2682 143.482 66.4127 143.377 66.5768 143.299C66.7435 143.221 66.9284 143.182 67.1315 143.182Z" fill="#374151"/>
</g>
<g filter="url(#filter1_d_2030_81025)">
<rect x="107.25" y="42.75" width="60.4167" height="60.4167" rx="30.2083" fill="white"/>
<path d="M146.17 61.7833L137.43 56.792L128.709 61.7756M146.17 61.7833L137.43 66.9133M146.17 61.7833L146.209 71.793L137.439 76.792M137.43 66.9133L128.709 61.7756M137.43 66.9133L137.439 76.792M128.709 61.7756V71.8122L137.439 76.792" stroke="url(#paint1_linear_2030_81025)" stroke-width="0.833333" stroke-miterlimit="10" stroke-linejoin="round"/>
<path d="M121.9 81.918C121.585 81.918 121.301 81.9727 121.049 82.082C120.799 82.1888 120.585 82.3451 120.408 82.5508C120.234 82.7539 120.099 83 120.006 83.2891C119.912 83.5781 119.865 83.9036 119.865 84.2656C119.865 84.7448 119.939 85.1615 120.088 85.5156C120.239 85.8672 120.463 86.1393 120.76 86.332C121.059 86.5247 121.433 86.6211 121.881 86.6211C122.136 86.6211 122.375 86.6003 122.599 86.5586C122.826 86.5143 123.046 86.4596 123.26 86.3945V86.9727C123.051 87.0508 122.833 87.1081 122.603 87.1445C122.374 87.1836 122.102 87.2031 121.787 87.2031C121.206 87.2031 120.721 87.0833 120.33 86.8438C119.942 86.6016 119.65 86.2604 119.455 85.8203C119.262 85.3802 119.166 84.8607 119.166 84.2617C119.166 83.8294 119.226 83.4349 119.346 83.0781C119.468 82.7188 119.645 82.4089 119.877 82.1484C120.111 81.888 120.398 81.6875 120.736 81.5469C121.077 81.4036 121.468 81.332 121.908 81.332C122.197 81.332 122.476 81.3607 122.744 81.418C123.012 81.4753 123.254 81.5573 123.471 81.6641L123.205 82.2266C123.023 82.1432 122.822 82.0716 122.603 82.0117C122.387 81.9492 122.153 81.918 121.9 81.918ZM123.964 82.8438H124.66L125.605 85.3281C125.66 85.474 125.711 85.6146 125.757 85.75C125.804 85.8828 125.846 86.0104 125.882 86.1328C125.919 86.2552 125.948 86.3737 125.968 86.4883H125.996C126.032 86.3581 126.084 86.1875 126.152 85.9766C126.22 85.763 126.293 85.5456 126.371 85.3242L127.265 82.8438H127.964L126.101 87.7539C126.002 88.0169 125.886 88.2461 125.754 88.4414C125.623 88.6367 125.464 88.7865 125.277 88.8906C125.089 88.9974 124.863 89.0508 124.597 89.0508C124.475 89.0508 124.367 89.043 124.273 89.0273C124.179 89.0143 124.099 88.9987 124.031 88.9805V88.4609C124.088 88.474 124.157 88.4857 124.238 88.4961C124.321 88.5065 124.407 88.5117 124.496 88.5117C124.657 88.5117 124.796 88.4805 124.914 88.418C125.033 88.3581 125.136 88.2695 125.222 88.1523C125.308 88.0352 125.382 87.8958 125.445 87.7344L125.679 87.1328L123.964 82.8438ZM129.536 81.0469V82.5664C129.536 82.7409 129.531 82.9102 129.521 83.0742C129.513 83.2383 129.507 83.3659 129.501 83.457H129.536C129.654 83.2643 129.823 83.1016 130.044 82.9688C130.266 82.8359 130.548 82.7695 130.892 82.7695C131.428 82.7695 131.855 82.9557 132.173 83.3281C132.494 83.6979 132.654 84.2487 132.654 84.9805C132.654 85.4622 132.581 85.8685 132.435 86.1992C132.289 86.5299 132.083 86.7799 131.818 86.9492C131.552 87.1185 131.238 87.2031 130.876 87.2031C130.538 87.2031 130.259 87.1406 130.04 87.0156C129.824 86.888 129.658 86.7331 129.54 86.5508H129.49L129.357 87.125H128.888V81.0469H129.536ZM130.786 83.3125C130.477 83.3125 130.23 83.3737 130.048 83.4961C129.866 83.6159 129.734 83.7982 129.654 84.043C129.576 84.2852 129.536 84.5924 129.536 84.9648V85C129.536 85.5391 129.626 85.9518 129.806 86.2383C129.986 86.5221 130.313 86.6641 130.786 86.6641C131.185 86.6641 131.483 86.5182 131.681 86.2266C131.882 85.9349 131.982 85.5182 131.982 84.9766C131.982 84.4245 131.883 84.0091 131.685 83.7305C131.49 83.4518 131.19 83.3125 130.786 83.3125ZM135.675 82.7656C136.04 82.7656 136.352 82.8464 136.612 83.0078C136.873 83.1693 137.072 83.3958 137.21 83.6875C137.348 83.9766 137.417 84.3151 137.417 84.7031V85.1055H134.46C134.468 85.6081 134.593 85.9909 134.835 86.2539C135.077 86.5169 135.418 86.6484 135.859 86.6484C136.129 86.6484 136.369 86.6237 136.577 86.5742C136.786 86.5247 137.002 86.4518 137.226 86.3555V86.9258C137.01 87.0221 136.795 87.0924 136.581 87.1367C136.37 87.181 136.12 87.2031 135.831 87.2031C135.42 87.2031 135.06 87.1198 134.753 86.9531C134.448 86.7839 134.211 86.5365 134.042 86.2109C133.873 85.8854 133.788 85.487 133.788 85.0156C133.788 84.5547 133.865 84.1562 134.019 83.8203C134.175 83.4818 134.394 83.2214 134.675 83.0391C134.959 82.8568 135.292 82.7656 135.675 82.7656ZM135.667 83.2969C135.321 83.2969 135.045 83.4102 134.839 83.6367C134.633 83.8633 134.511 84.1797 134.472 84.5859H136.737C136.735 84.3307 136.694 84.1068 136.616 83.9141C136.541 83.7188 136.425 83.5677 136.269 83.4609C136.112 83.3516 135.912 83.2969 135.667 83.2969ZM140.704 82.7656C140.79 82.7656 140.88 82.7708 140.974 82.7812C141.067 82.7891 141.151 82.8008 141.224 82.8164L141.141 83.418C141.071 83.3997 140.993 83.3854 140.907 83.375C140.821 83.3646 140.74 83.3594 140.665 83.3594C140.493 83.3594 140.33 83.3945 140.177 83.4648C140.026 83.5326 139.893 83.6315 139.778 83.7617C139.664 83.8893 139.574 84.0443 139.509 84.2266C139.444 84.4062 139.411 84.6068 139.411 84.8281V87.125H138.759V82.8438H139.298L139.368 83.6328H139.395C139.484 83.474 139.591 83.3294 139.716 83.1992C139.841 83.0664 139.985 82.9609 140.149 82.8828C140.316 82.8047 140.501 82.7656 140.704 82.7656ZM142.37 81.4141H143.987C144.7 81.4141 145.237 81.5208 145.596 81.7344C145.956 81.9479 146.135 82.3112 146.135 82.8242C146.135 83.0456 146.092 83.2448 146.006 83.4219C145.923 83.5964 145.801 83.7409 145.639 83.8555C145.478 83.9701 145.279 84.0495 145.042 84.0938V84.1328C145.292 84.1719 145.513 84.2435 145.706 84.3477C145.898 84.4518 146.049 84.5977 146.159 84.7852C146.268 84.9727 146.323 85.2109 146.323 85.5C146.323 85.8516 146.241 86.1484 146.077 86.3906C145.915 86.6328 145.686 86.8164 145.389 86.9414C145.092 87.0638 144.741 87.125 144.335 87.125H142.37V81.4141ZM143.034 83.8633H144.128C144.625 83.8633 144.969 83.7812 145.159 83.6172C145.352 83.4531 145.448 83.2135 145.448 82.8984C145.448 82.5729 145.333 82.3385 145.104 82.1953C144.878 82.0521 144.516 81.9805 144.018 81.9805H143.034V83.8633ZM143.034 84.4219V86.5586H144.221C144.729 86.5586 145.089 86.4596 145.299 86.2617C145.51 86.0612 145.616 85.7917 145.616 85.4531C145.616 85.237 145.568 85.0521 145.471 84.8984C145.378 84.7448 145.224 84.6276 145.01 84.5469C144.799 84.4635 144.517 84.4219 144.163 84.4219H143.034ZM151.375 84.9766C151.375 85.3281 151.33 85.6419 151.239 85.918C151.148 86.194 151.016 86.4271 150.844 86.6172C150.672 86.8073 150.464 86.9531 150.219 87.0547C149.977 87.1536 149.702 87.2031 149.395 87.2031C149.108 87.2031 148.845 87.1536 148.606 87.0547C148.369 86.9531 148.163 86.8073 147.989 86.6172C147.817 86.4271 147.683 86.194 147.586 85.918C147.493 85.6419 147.446 85.3281 147.446 84.9766C147.446 84.5078 147.525 84.1094 147.684 83.7812C147.843 83.4505 148.069 83.1992 148.364 83.0273C148.661 82.8529 149.013 82.7656 149.422 82.7656C149.813 82.7656 150.154 82.8529 150.446 83.0273C150.74 83.2018 150.968 83.4544 151.129 83.7852C151.293 84.1133 151.375 84.5104 151.375 84.9766ZM148.118 84.9766C148.118 85.3203 148.163 85.6185 148.254 85.8711C148.345 86.1237 148.486 86.319 148.676 86.457C148.866 86.5951 149.111 86.6641 149.411 86.6641C149.707 86.6641 149.951 86.5951 150.141 86.457C150.334 86.319 150.476 86.1237 150.567 85.8711C150.658 85.6185 150.704 85.3203 150.704 84.9766C150.704 84.6354 150.658 84.3411 150.567 84.0938C150.476 83.8438 150.335 83.651 150.145 83.5156C149.955 83.3802 149.709 83.3125 149.407 83.3125C148.961 83.3125 148.635 83.4596 148.426 83.7539C148.22 84.0482 148.118 84.4557 148.118 84.9766ZM153.756 84.9336L152.276 82.8438H153.018L154.147 84.4922L155.272 82.8438H156.006L154.526 84.9336L156.088 87.125H155.346L154.147 85.3789L152.94 87.125H152.205L153.756 84.9336Z" fill="#374151"/>
</g>
<g filter="url(#filter2_d_2030_81025)">
<rect x="107.25" y="163.582" width="60.4167" height="60.4167" rx="30.2083" fill="white"/>
<path fill-rule="evenodd" clip-rule="evenodd" d="M129.279 180.185C129.126 180.307 129.11 180.423 129.134 181.229C129.189 183.065 129.402 184.316 129.841 185.38C130.492 186.962 131.542 187.674 133.224 187.676C133.873 187.677 134.491 187.55 135.03 187.304C135.171 187.24 135.29 187.192 135.295 187.198C135.374 187.277 135.773 188.315 135.942 188.881C136.385 190.363 136.673 192.471 136.675 194.237C136.675 194.56 136.691 194.877 136.709 194.943C136.786 195.222 137.125 195.328 137.319 195.135C137.437 195.017 137.457 194.925 137.457 194.485C137.458 194.079 137.531 193.147 137.601 192.647C137.819 191.11 138.294 189.676 138.946 188.591C139.028 188.455 139.098 188.339 139.103 188.334C139.108 188.328 139.197 188.392 139.302 188.478C139.406 188.563 139.638 188.702 139.817 188.788C140.387 189.059 140.94 189.174 141.677 189.174C142.903 189.175 143.783 188.803 144.413 188.019C145.276 186.945 145.705 185.277 145.779 182.712C145.812 181.547 145.873 181.604 144.626 181.632C143.297 181.661 142.415 181.764 141.505 181.996C139.912 182.404 138.922 183.117 138.493 184.168C138.225 184.824 138.122 185.988 138.309 186.252C138.395 186.373 138.591 186.431 138.727 186.374C138.783 186.351 138.948 186.201 139.095 186.04C139.771 185.299 140.644 184.639 141.59 184.151C141.921 183.98 141.979 183.96 142.107 183.974C142.308 183.997 142.447 184.137 142.447 184.319C142.447 184.523 142.373 184.599 141.989 184.792C141.025 185.277 140.309 185.791 139.589 186.519C138.547 187.572 137.752 188.942 137.301 190.465C137.163 190.931 137.181 190.949 137.049 190.233C136.712 188.419 136.064 186.741 135.25 185.579C134.566 184.6 133.898 183.923 133.008 183.304C132.664 183.065 132.54 182.924 132.54 182.774C132.54 182.574 132.632 182.457 132.84 182.391C132.943 182.358 133.078 182.426 133.501 182.725C134.517 183.444 135.107 184.036 135.706 184.942C135.831 185.13 135.972 185.317 136.019 185.357C136.142 185.461 136.346 185.457 136.476 185.347C136.601 185.242 136.633 185.127 136.678 184.61C136.765 183.629 136.52 182.617 136.043 181.988C135.551 181.339 134.602 180.803 133.408 180.499C132.492 180.267 131.591 180.162 130.278 180.134C129.381 180.116 129.365 180.117 129.279 180.185Z" fill="url(#paint2_linear_2030_81025)"/>
<path d="M120.594 202.75C120.279 202.75 119.995 202.805 119.742 202.914C119.492 203.021 119.279 203.177 119.102 203.383C118.927 203.586 118.793 203.832 118.699 204.121C118.606 204.41 118.559 204.736 118.559 205.098C118.559 205.577 118.633 205.993 118.781 206.348C118.932 206.699 119.156 206.971 119.453 207.164C119.753 207.357 120.126 207.453 120.574 207.453C120.83 207.453 121.069 207.432 121.293 207.391C121.52 207.346 121.74 207.292 121.953 207.227V207.805C121.745 207.883 121.526 207.94 121.297 207.977C121.068 208.016 120.796 208.035 120.481 208.035C119.9 208.035 119.414 207.915 119.024 207.676C118.635 207.434 118.344 207.092 118.149 206.652C117.956 206.212 117.859 205.693 117.859 205.094C117.859 204.661 117.919 204.267 118.039 203.91C118.162 203.551 118.339 203.241 118.57 202.98C118.805 202.72 119.091 202.52 119.43 202.379C119.771 202.236 120.162 202.164 120.602 202.164C120.891 202.164 121.169 202.193 121.438 202.25C121.706 202.307 121.948 202.389 122.164 202.496L121.899 203.059C121.716 202.975 121.516 202.904 121.297 202.844C121.081 202.781 120.846 202.75 120.594 202.75ZM124.982 203.598C125.347 203.598 125.659 203.678 125.92 203.84C126.18 204.001 126.379 204.228 126.517 204.52C126.655 204.809 126.724 205.147 126.724 205.535V205.938H123.767C123.775 206.44 123.9 206.823 124.142 207.086C124.385 207.349 124.726 207.48 125.166 207.48C125.437 207.48 125.676 207.456 125.885 207.406C126.093 207.357 126.309 207.284 126.533 207.188V207.758C126.317 207.854 126.102 207.924 125.889 207.969C125.678 208.013 125.428 208.035 125.139 208.035C124.727 208.035 124.368 207.952 124.06 207.785C123.756 207.616 123.519 207.368 123.349 207.043C123.18 206.717 123.096 206.319 123.096 205.848C123.096 205.387 123.172 204.988 123.326 204.652C123.482 204.314 123.701 204.053 123.982 203.871C124.266 203.689 124.599 203.598 124.982 203.598ZM124.974 204.129C124.628 204.129 124.352 204.242 124.146 204.469C123.941 204.695 123.818 205.012 123.779 205.418H126.045C126.042 205.163 126.002 204.939 125.924 204.746C125.848 204.551 125.732 204.4 125.576 204.293C125.42 204.184 125.219 204.129 124.974 204.129ZM130.011 203.598C130.097 203.598 130.187 203.603 130.281 203.613C130.375 203.621 130.458 203.633 130.531 203.648L130.449 204.25C130.379 204.232 130.3 204.217 130.214 204.207C130.129 204.197 130.048 204.191 129.972 204.191C129.8 204.191 129.638 204.227 129.484 204.297C129.333 204.365 129.2 204.464 129.086 204.594C128.971 204.721 128.881 204.876 128.816 205.059C128.751 205.238 128.718 205.439 128.718 205.66V207.957H128.066V203.676H128.605L128.675 204.465H128.703C128.791 204.306 128.898 204.161 129.023 204.031C129.148 203.898 129.293 203.793 129.457 203.715C129.623 203.637 129.808 203.598 130.011 203.598ZM132.962 207.504C133.069 207.504 133.178 207.495 133.29 207.477C133.402 207.458 133.494 207.436 133.564 207.41V207.914C133.488 207.948 133.383 207.977 133.247 208C133.115 208.023 132.984 208.035 132.857 208.035C132.63 208.035 132.425 207.996 132.24 207.918C132.055 207.837 131.906 207.702 131.794 207.512C131.685 207.322 131.63 207.059 131.63 206.723V204.184H131.021V203.867L131.634 203.613L131.892 202.684H132.283V203.676H133.536V204.184H132.283V206.703C132.283 206.971 132.344 207.172 132.466 207.305C132.591 207.438 132.757 207.504 132.962 207.504ZM135.319 203.676V207.957H134.671V203.676H135.319ZM135.003 202.074C135.11 202.074 135.201 202.109 135.276 202.18C135.355 202.247 135.394 202.354 135.394 202.5C135.394 202.643 135.355 202.75 135.276 202.82C135.201 202.891 135.11 202.926 135.003 202.926C134.891 202.926 134.797 202.891 134.722 202.82C134.649 202.75 134.612 202.643 134.612 202.5C134.612 202.354 134.649 202.247 134.722 202.18C134.797 202.109 134.891 202.074 135.003 202.074ZM138.841 204.184H137.774V207.957H137.126V204.184H136.368V203.871L137.126 203.656V203.371C137.126 203.012 137.179 202.72 137.286 202.496C137.393 202.27 137.548 202.103 137.751 201.996C137.954 201.889 138.201 201.836 138.493 201.836C138.657 201.836 138.807 201.85 138.942 201.879C139.08 201.908 139.201 201.94 139.306 201.977L139.138 202.488C139.049 202.46 138.949 202.434 138.837 202.41C138.727 202.384 138.615 202.371 138.501 202.371C138.253 202.371 138.07 202.452 137.95 202.613C137.833 202.772 137.774 203.022 137.774 203.363V203.676H138.841V204.184ZM140.274 203.676V207.957H139.626V203.676H140.274ZM139.958 202.074C140.065 202.074 140.156 202.109 140.231 202.18C140.309 202.247 140.349 202.354 140.349 202.5C140.349 202.643 140.309 202.75 140.231 202.82C140.156 202.891 140.065 202.926 139.958 202.926C139.846 202.926 139.752 202.891 139.677 202.82C139.604 202.75 139.567 202.643 139.567 202.5C139.567 202.354 139.604 202.247 139.677 202.18C139.752 202.109 139.846 202.074 139.958 202.074ZM143.6 208.035C143.215 208.035 142.875 207.956 142.581 207.797C142.286 207.638 142.057 207.396 141.893 207.07C141.729 206.745 141.647 206.335 141.647 205.84C141.647 205.322 141.733 204.898 141.905 204.57C142.079 204.24 142.319 203.995 142.624 203.836C142.928 203.677 143.275 203.598 143.663 203.598C143.876 203.598 144.082 203.62 144.28 203.664C144.48 203.706 144.645 203.759 144.772 203.824L144.577 204.367C144.447 204.315 144.296 204.268 144.124 204.227C143.954 204.185 143.796 204.164 143.647 204.164C143.35 204.164 143.103 204.228 142.905 204.355C142.71 204.483 142.562 204.671 142.464 204.918C142.367 205.165 142.319 205.47 142.319 205.832C142.319 206.178 142.366 206.474 142.46 206.719C142.556 206.964 142.698 207.151 142.885 207.281C143.075 207.409 143.312 207.473 143.596 207.473C143.823 207.473 144.027 207.449 144.21 207.402C144.392 207.353 144.557 207.296 144.706 207.23V207.809C144.562 207.882 144.402 207.938 144.225 207.977C144.051 208.016 143.842 208.035 143.6 208.035ZM147.563 203.605C148.073 203.605 148.452 203.72 148.7 203.949C148.947 204.178 149.071 204.544 149.071 205.047V207.957H148.598L148.473 207.324H148.442C148.322 207.48 148.197 207.612 148.067 207.719C147.937 207.823 147.786 207.902 147.614 207.957C147.444 208.009 147.236 208.035 146.989 208.035C146.728 208.035 146.496 207.99 146.293 207.898C146.093 207.807 145.934 207.669 145.817 207.484C145.702 207.299 145.645 207.065 145.645 206.781C145.645 206.354 145.814 206.026 146.153 205.797C146.491 205.568 147.007 205.443 147.7 205.422L148.438 205.391V205.129C148.438 204.759 148.358 204.5 148.2 204.352C148.041 204.203 147.817 204.129 147.528 204.129C147.304 204.129 147.09 204.161 146.887 204.227C146.684 204.292 146.491 204.368 146.309 204.457L146.11 203.965C146.302 203.866 146.524 203.781 146.774 203.711C147.024 203.641 147.287 203.605 147.563 203.605ZM148.43 205.848L147.778 205.875C147.244 205.896 146.868 205.983 146.649 206.137C146.43 206.29 146.321 206.508 146.321 206.789C146.321 207.034 146.395 207.215 146.543 207.332C146.692 207.449 146.888 207.508 147.133 207.508C147.513 207.508 147.825 207.402 148.067 207.191C148.309 206.98 148.43 206.664 148.43 206.242V205.848ZM152.029 207.504C152.136 207.504 152.246 207.495 152.358 207.477C152.47 207.458 152.561 207.436 152.631 207.41V207.914C152.555 207.948 152.45 207.977 152.315 208C152.182 208.023 152.052 208.035 151.924 208.035C151.697 208.035 151.492 207.996 151.307 207.918C151.122 207.837 150.973 207.702 150.861 207.512C150.752 207.322 150.697 207.059 150.697 206.723V204.184H150.088V203.867L150.701 203.613L150.959 202.684H151.35V203.676H152.604V204.184H151.35V206.703C151.35 206.971 151.411 207.172 151.533 207.305C151.658 207.438 151.824 207.504 152.029 207.504ZM155.387 203.598C155.751 203.598 156.064 203.678 156.324 203.84C156.585 204.001 156.784 204.228 156.922 204.52C157.06 204.809 157.129 205.147 157.129 205.535V205.938H154.172C154.18 206.44 154.305 206.823 154.547 207.086C154.789 207.349 155.13 207.48 155.57 207.48C155.841 207.48 156.081 207.456 156.289 207.406C156.497 207.357 156.713 207.284 156.937 207.188V207.758C156.721 207.854 156.506 207.924 156.293 207.969C156.082 208.013 155.832 208.035 155.543 208.035C155.131 208.035 154.772 207.952 154.465 207.785C154.16 207.616 153.923 207.368 153.754 207.043C153.585 206.717 153.5 206.319 153.5 205.848C153.5 205.387 153.577 204.988 153.73 204.652C153.887 204.314 154.105 204.053 154.387 203.871C154.67 203.689 155.004 203.598 155.387 203.598ZM155.379 204.129C155.032 204.129 154.756 204.242 154.551 204.469C154.345 204.695 154.223 205.012 154.184 205.418H156.449C156.447 205.163 156.406 204.939 156.328 204.746C156.253 204.551 156.137 204.4 155.98 204.293C155.824 204.184 155.624 204.129 155.379 204.129Z" fill="#374151"/>
</g>
<g filter="url(#filter3_d_2030_81025)">
<rect x="186" y="103.166" width="60.4167" height="60.4167" rx="30.2083" fill="white"/>
<path d="M211.911 122.881C211.19 122.881 210.624 123.238 210.624 123.912C210.624 124.592 211.19 124.943 211.911 124.943H214.303C215 124.943 215.596 124.582 215.596 123.912C215.596 123.243 214.995 122.881 214.31 122.881H211.911ZM214.172 121.375C215.769 121.375 217.175 122.212 217.175 123.907C217.175 125.591 215.781 126.455 214.178 126.455H212.036C210.433 126.455 209.039 125.596 209.039 123.907C209.039 122.244 210.439 121.375 212.036 121.375H214.172Z" fill="#374151"/>
<path d="M218.061 127.117C218.061 127.573 217.664 127.942 217.175 127.942C216.686 127.942 216.29 127.573 216.29 127.117C216.29 126.662 216.686 126.292 217.175 126.292C217.664 126.292 218.061 126.662 218.061 127.117Z" fill="#374151"/>
<path d="M207.61 121.382V127.808H205.647V123.985L203.904 127.808H202.207L200.452 123.975V127.808H198.5V121.382H200.888L203.078 126.222L205.222 121.382H207.61Z" fill="#374151"/>
<path d="M222.655 127.954C220.1 127.954 219.208 127.113 219.208 125.563H221.148C221.185 126.221 221.486 126.657 222.606 126.657C223.607 126.657 223.848 126.312 223.848 125.988C223.848 124.732 219.341 125.634 219.341 123.364C219.341 122.229 220.052 121.287 222.474 121.287C224.932 121.287 225.619 122.26 225.655 123.577H223.727C223.691 123.03 223.498 122.584 222.414 122.584C221.51 122.584 221.281 122.868 221.281 123.202C221.281 124.286 225.739 123.405 225.739 125.897C225.739 126.849 225.077 127.954 222.655 127.954Z" fill="#374151"/>
<path d="M230.832 127.954C228.277 127.954 227.386 127.113 227.386 125.563H229.326C229.362 126.221 229.663 126.657 230.784 126.657C231.784 126.657 232.025 126.312 232.025 125.988C232.025 124.732 227.518 125.634 227.518 123.364C227.518 122.229 228.229 121.287 230.651 121.287C233.109 121.287 233.796 122.26 233.832 123.577H231.904C231.868 123.03 231.675 122.584 230.591 122.584C229.687 122.584 229.458 122.868 229.458 123.202C229.458 124.286 233.917 123.405 233.917 125.897C233.917 126.849 233.254 127.954 230.832 127.954Z" fill="#374151"/>
<path fill-rule="evenodd" clip-rule="evenodd" d="M208.459 139.6C208.379 139.68 208.27 139.726 208.156 139.726H205.644C207.412 140.731 208.394 142.825 208.533 144.997C208.548 145.229 208.375 145.43 208.144 145.451L208.105 145.024C208.096 144.881 208.083 144.739 208.066 144.597C207.8 142.331 206.579 140.334 204.554 139.726C204.355 139.666 204.148 139.62 203.934 139.588C203.813 139.57 203.69 139.556 203.564 139.548C203.545 139.546 203.525 139.545 203.505 139.544C203.523 139.46 203.543 139.377 203.564 139.297L208.156 139.297C208.156 139.176 208.153 139.056 208.141 138.938C208.138 138.915 208.136 138.891 208.133 138.868C207.922 137.185 206.482 135.883 204.742 135.883H203.087L203.087 135.883C203.081 135.883 203.075 135.883 203.069 135.883C200.826 135.883 199.007 137.702 199.007 139.945C199.007 141.476 199.853 142.809 201.103 143.501C201.234 143.574 201.369 143.639 201.509 143.697L201.729 142.139C201.729 142.139 201.756 142.87 201.973 143.48C202.028 143.636 202.096 143.784 202.179 143.91C202.466 143.974 202.764 144.008 203.069 144.008C203.31 144.008 203.546 143.987 203.776 143.947C203.903 143.924 204.028 143.896 204.15 143.863C204.181 143.854 204.212 143.845 204.242 143.836C204.139 143.722 204.047 143.599 203.963 143.468C203.536 142.798 203.357 141.928 203.348 141.066C203.549 142.21 203.977 143.025 204.496 143.606C204.553 143.669 204.61 143.729 204.668 143.787C205.696 144.802 207.009 144.998 207.675 145.028C207.845 145.035 207.973 145.032 208.043 145.028C208.083 145.026 208.105 145.024 208.105 145.024C208.144 145.451 208.144 145.451 208.144 145.451L208.143 145.451L208.142 145.452C208.141 145.452 208.139 145.452 208.138 145.452C208.134 145.452 208.13 145.453 208.125 145.453C208.115 145.454 208.101 145.455 208.084 145.456C208.049 145.458 207.999 145.46 207.938 145.46C207.815 145.462 207.641 145.459 207.432 145.441C207.015 145.406 206.446 145.309 205.849 145.064C205.385 144.874 204.909 144.595 204.476 144.196C204.442 144.218 204.405 144.235 204.366 144.247C203.955 144.37 203.52 144.437 203.069 144.437C202.732 144.437 202.403 144.399 202.086 144.329C201.977 144.304 201.883 144.239 201.821 144.147C201.8 144.114 201.779 144.08 201.759 144.045C201.747 144.054 201.734 144.062 201.721 144.07C201.606 144.136 201.466 144.144 201.344 144.093C199.721 143.417 198.578 141.815 198.578 139.945C198.578 137.465 200.589 135.454 203.069 135.454C203.074 135.454 203.078 135.454 203.083 135.454C203.084 135.454 203.085 135.454 203.087 135.454H204.742C206.728 135.454 208.366 136.96 208.567 138.894C208.582 139.033 208.585 139.17 208.585 139.297C208.585 139.411 208.54 139.52 208.459 139.6ZM203.348 141.064L203.347 141.064C203.348 141.065 203.348 141.065 203.348 141.066C203.348 141.065 203.348 141.065 203.348 141.064C203.348 141.064 203.348 141.064 203.348 141.064C203.348 141.064 203.348 141.064 203.348 141.064Z" fill="white"/>
<path d="M202.797 139.194H204.784H208.003C208.003 137.422 206.562 135.985 204.784 135.985H203.272L202.797 139.194Z" fill="#FFBA7B"/>
<path d="M202.918 137.847C202.918 137.847 204.241 137.847 205.384 137.847C207.219 137.847 207.749 138.973 207.749 138.973H202.918V137.847Z" fill="#F87AA3"/>
<path d="M199.938 138.922C199.938 137.627 200.96 136.267 202.252 136.182C202.446 136.169 202.623 136.196 202.762 136.276C202.983 136.403 203.07 137.369 202.969 138.12L202.93 138.332C202.665 139.763 202.023 141.788 200.684 141.215C200.006 140.925 199.937 139.741 199.938 138.922Z" fill="white"/>
<path d="M201.953 137.812C202.184 137.812 202.372 137.625 202.372 137.394C202.372 137.315 202.35 137.241 202.312 137.178C202.292 137.229 202.242 137.266 202.184 137.266C202.109 137.266 202.048 137.205 202.048 137.129C202.048 137.078 202.076 137.033 202.118 137.009C202.068 136.988 202.012 136.976 201.953 136.976C201.722 136.976 201.535 137.163 201.535 137.394C201.535 137.625 201.722 137.812 201.953 137.812Z" fill="#152239"/>
<path fill-rule="evenodd" clip-rule="evenodd" d="M202.806 139.161L203.231 135.887C203.178 135.885 203.124 135.884 203.07 135.884C200.827 135.884 199.008 137.703 199.008 139.946C199.008 141.637 200.04 143.086 201.509 143.698L201.73 142.14C201.73 142.14 201.772 143.294 202.18 143.911C202.467 143.975 202.764 144.009 203.07 144.009C203.478 144.009 203.872 143.949 204.243 143.837C203.2 142.683 203.188 140.584 203.603 139.161H202.806ZM202.283 136.324C202.67 136.235 202.963 136.585 202.906 136.978L202.484 139.878C202.345 140.832 201.426 141.652 200.722 140.994C200.281 140.582 199.981 139.846 200.243 138.534C200.551 136.992 201.571 136.487 202.283 136.324Z" fill="#152239"/>
<path fill-rule="evenodd" clip-rule="evenodd" d="M202.999 138.939H206.228H207.782C207.725 138.455 207.554 138.006 207.299 137.618C206.752 136.789 205.81 136.242 204.743 136.242H203.397L202.999 138.939ZM202.584 139.298L203.088 135.884H204.743C206.508 135.884 207.963 137.222 208.142 138.939C208.154 139.057 208.157 139.177 208.157 139.298H202.584Z" fill="#152239"/>
<path d="M207.86 139.195C207.57 139.154 206.153 139.33 206.23 138.939C206.346 138.343 206.755 137.851 207.3 137.617C207.847 137.382 208.019 139.217 207.86 139.195Z" fill="#152239"/>
<path d="M208.104 145.025C208.104 145.025 203.223 145.474 203.223 139.536C206.191 139.536 207.919 142.12 208.104 145.025Z" fill="#152239"/>
<path d="M215.768 139.453V138.548H211.711V139.453H213.259V143.448H214.22V139.453H215.768ZM217.035 142.715C216.586 142.715 216.171 142.383 216.171 141.748C216.171 141.105 216.586 140.78 217.035 140.78C217.484 140.78 217.899 141.105 217.899 141.748C217.899 142.39 217.484 142.715 217.035 142.715ZM217.035 139.944C216.019 139.944 215.252 140.697 215.252 141.748C215.252 142.791 216.019 143.551 217.035 143.551C218.051 143.551 218.818 142.791 218.818 141.748C218.818 140.697 218.051 139.944 217.035 139.944ZM221.548 143.448H222.426C222.412 143.33 222.391 143.095 222.391 142.833V140.047H221.472V142.024C221.472 142.418 221.237 142.694 220.829 142.694C220.401 142.694 220.207 142.39 220.207 142.01V140.047H219.288V142.197C219.288 142.936 219.758 143.537 220.581 143.537C220.94 143.537 221.334 143.399 221.52 143.081C221.52 143.22 221.534 143.378 221.548 143.448ZM224.679 140.794C225.135 140.794 225.349 141.084 225.432 141.367L226.254 141.091C226.109 140.517 225.584 139.944 224.658 139.944C223.67 139.944 222.896 140.697 222.896 141.748C222.896 142.791 223.683 143.551 224.685 143.551C225.591 143.551 226.123 142.971 226.275 142.404L225.466 142.135C225.39 142.397 225.155 142.708 224.685 142.708C224.216 142.708 223.815 142.363 223.815 141.748C223.815 141.132 224.209 140.794 224.679 140.794ZM227.38 141.734C227.38 141.112 227.739 140.745 228.23 140.745C228.714 140.745 229.066 141.112 229.066 141.734C229.066 142.356 228.707 142.75 228.23 142.75C227.733 142.75 227.38 142.349 227.38 141.734ZM229.073 143.026C229.073 143.192 229.094 143.372 229.108 143.448H229.986C229.979 143.372 229.958 143.137 229.958 142.833V140.047H229.066V140.469C228.983 140.276 228.7 139.951 228.092 139.951C227.104 139.951 226.454 140.739 226.454 141.734C226.454 142.763 227.118 143.544 228.12 143.544C228.576 143.544 228.928 143.309 229.073 142.985V143.026ZM231.653 141.492C231.653 141.098 231.888 140.787 232.289 140.787C232.731 140.787 232.918 141.084 232.918 141.464V143.448H233.837V141.305C233.837 140.559 233.45 139.958 232.607 139.958C232.241 139.958 231.833 140.117 231.625 140.469V140.047H230.734V143.448H231.653V141.492Z" fill="#374151"/>
</g>
<path d="M134.948 144.498C135.422 145.172 136.074 147.021 136.778 147.395C136.892 147.047 136.684 146.368 136.643 146C136.581 145.415 136.534 144.831 136.481 144.248C136.39 143.217 136.316 142.186 136.289 141.152C136.245 139.554 136.313 137.949 136.32 136.362C136.329 134.572 136.447 132.79 136.5 131.005C136.533 129.931 136.547 128.858 136.579 127.783C136.599 127.182 136.414 125.537 136.961 125.106C137.521 124.663 137.588 125.283 137.616 125.733C137.673 126.661 137.665 127.591 137.691 128.522C137.747 130.466 137.795 132.409 137.879 134.351C137.962 136.264 138.033 138.195 138.053 140.108C138.071 141.949 137.962 144.173 138.446 145.957C138.776 145.774 139.039 144.902 139.236 144.543C139.545 143.982 139.858 143.41 140.204 142.87C140.451 142.489 140.854 141.878 141.414 142.079C141.813 142.224 141.917 142.824 141.842 143.186C141.641 144.173 140.648 145.279 140.187 146.181C139.64 147.255 139.108 148.334 138.607 149.422C138.294 150.101 137.727 150.879 136.936 150.276C136.302 149.791 135.806 148.431 135.445 147.737C134.95 146.792 134.559 145.812 134.096 144.85C133.511 143.629 134.182 143.81 134.947 144.496C135.034 144.622 134.712 144.282 134.947 144.496L134.948 144.498Z" fill="white"/>
<path d="M89.7779 90.1167C87.1901 91.3071 84.6756 93.478 83.0054 95.79C82.0581 97.1011 81.3618 98.5853 80.7858 100.094C80.4868 100.875 80.2282 101.663 80.0076 102.469C79.9441 102.704 79.8712 103.723 79.6303 103.788C78.8202 104.006 79.7873 100.473 79.9197 100.1C80.4739 98.522 81.1151 96.948 82.0413 95.5519C83.5902 93.2066 85.7705 90.9236 88.2293 89.5523C89.6604 88.7543 91.0861 87.9374 92.6772 87.4661C93.3466 87.2678 94.0352 87.131 94.7281 87.0633C95.2196 87.0146 95.7223 86.9765 96.2165 86.9912C96.5817 87.0024 97.0452 87.2054 97.3911 87.1551C97.0839 86.6122 96.2784 86.3335 95.9178 85.794C95.4897 85.1526 96.13 85.1349 96.5864 85.3651C97.3107 85.7326 97.968 86.2178 98.6409 86.6683C99.2158 87.0524 100.042 87.4026 99.734 88.1963C99.4637 88.8933 98.9132 89.5034 98.5099 90.121C98.2396 90.5329 97.8627 91.5709 97.2778 91.5952C95.454 91.6749 98.2667 88.8091 98.3724 88.5292C98.0908 88.468 97.758 88.5457 97.4649 88.5325C97.0417 88.5142 96.6246 88.4358 96.2009 88.4201C95.4017 88.391 94.5732 88.4483 93.783 88.5794C92.4131 88.8055 90.9492 89.3645 89.7769 90.1151C88.8404 90.5459 89.9449 90.0056 89.7769 90.1151L89.7779 90.1167Z" fill="white"/>
<path d="M85.8189 176.001C87.5166 178.304 90.1483 180.328 92.739 181.489C94.2081 182.148 95.7922 182.523 97.3749 182.774C98.194 182.904 99.0118 182.994 99.8388 183.042C100.079 183.055 101.082 182.912 101.196 183.136C101.577 183.89 97.9523 183.679 97.5625 183.627C95.9177 183.412 94.2583 183.111 92.7113 182.491C90.1139 181.456 87.4439 179.785 85.5983 177.647C84.5242 176.403 83.4329 175.168 82.6416 173.697C82.3086 173.079 82.0312 172.428 81.8198 171.758C81.6692 171.284 81.5265 170.796 81.4367 170.305C81.3706 169.942 81.4697 169.442 81.3482 169.111C80.8871 169.529 80.7867 170.382 80.3401 170.852C79.809 171.409 79.6571 170.781 79.7839 170.282C79.9874 169.49 80.319 168.739 80.6136 167.98C80.8646 167.332 81.0298 166.443 81.8634 166.58C82.5953 166.7 83.3021 167.115 83.9852 167.383C84.441 167.563 85.5256 167.716 85.6723 168.288C86.1333 170.071 82.7657 167.899 82.4725 167.854C82.4725 168.144 82.6178 168.457 82.6667 168.749C82.738 169.17 82.7499 169.598 82.8239 170.019C82.9639 170.814 83.1938 171.62 83.4871 172.372C83.9944 173.676 84.8439 175.003 85.8176 176.002C86.4319 176.835 85.6762 175.859 85.8176 176.002L85.8189 176.001Z" fill="white"/>
<path d="M4.5127 70.8613C5.43392 70.8613 6.10612 71.0501 6.5293 71.4277C6.95247 71.8053 7.16406 72.3343 7.16406 73.0146C7.16406 73.3239 7.11523 73.6185 7.01758 73.8984C6.92318 74.1751 6.76693 74.4209 6.54883 74.6357C6.33073 74.8473 6.04264 75.015 5.68457 75.1387C5.32975 75.2624 4.89193 75.3242 4.37109 75.3242H3.60937V78H2.4375L2.4375 70.8613H4.5127ZM4.43457 71.833H3.60937V74.3477H4.24902C4.61686 74.3477 4.92936 74.3053 5.18652 74.2207C5.44368 74.1328 5.639 73.9945 5.77246 73.8057C5.90592 73.6169 5.97266 73.3678 5.97266 73.0586C5.97266 72.6452 5.84733 72.3376 5.59668 72.1357C5.34928 71.9339 4.96191 71.833 4.43457 71.833ZM10.8918 72.4922C11.5754 72.4922 12.0913 72.6436 12.4396 72.9463C12.7912 73.249 12.967 73.721 12.967 74.3623V78H12.1516L11.9318 77.2334H11.8928C11.7398 77.4287 11.5819 77.5898 11.4191 77.7168C11.2564 77.8437 11.0676 77.9382 10.8527 78C10.6411 78.0651 10.3824 78.0977 10.0764 78.0977C9.7541 78.0977 9.46602 78.0391 9.21211 77.9219C8.9582 77.8014 8.75801 77.6191 8.61152 77.375C8.46504 77.1309 8.3918 76.8216 8.3918 76.4473C8.3918 75.8906 8.5985 75.4723 9.01191 75.1924C9.42858 74.9124 10.0568 74.7578 10.8967 74.7285L11.8342 74.6943V74.4111C11.8342 74.0368 11.7463 73.7699 11.5705 73.6104C11.398 73.4508 11.1538 73.3711 10.8381 73.3711C10.5679 73.3711 10.3059 73.4102 10.052 73.4883C9.79805 73.5664 9.55065 73.6624 9.30977 73.7764L8.93867 72.9658C9.20234 72.8258 9.50182 72.7119 9.83711 72.624C10.1757 72.5361 10.5272 72.4922 10.8918 72.4922ZM11.8293 75.417L11.1311 75.4414C10.5581 75.4609 10.1561 75.5586 9.925 75.7344C9.69388 75.9102 9.57832 76.151 9.57832 76.457C9.57832 76.724 9.65807 76.9193 9.81758 77.043C9.97708 77.1634 10.187 77.2236 10.4475 77.2236C10.8446 77.2236 11.1734 77.1113 11.4338 76.8867C11.6975 76.6589 11.8293 76.3252 11.8293 75.8857V75.417ZM14.058 72.5947H15.308L16.4164 75.6807C16.4652 75.8206 16.5092 75.959 16.5482 76.0957C16.5906 76.2292 16.6264 76.361 16.6557 76.4912C16.6882 76.6214 16.7143 76.7516 16.7338 76.8818H16.7631C16.7956 76.7126 16.8412 76.5238 16.8998 76.3154C16.9617 76.1038 17.03 75.8923 17.1049 75.6807L18.1693 72.5947H19.4047L17.0854 78.7422C16.9519 79.0937 16.7875 79.3932 16.5922 79.6406C16.4001 79.8913 16.1723 80.0801 15.9086 80.207C15.6449 80.3372 15.3438 80.4023 15.0053 80.4023C14.8425 80.4023 14.7009 80.3926 14.5805 80.373C14.46 80.3568 14.3575 80.3389 14.2729 80.3193V79.4014C14.3412 79.4176 14.4275 79.4323 14.5316 79.4453C14.6358 79.4583 14.7432 79.4648 14.8539 79.4648C15.059 79.4648 15.2364 79.4242 15.3861 79.3428C15.5359 79.2614 15.6628 79.1458 15.767 78.9961C15.8712 78.8496 15.9574 78.682 16.0258 78.4932L16.2162 77.9854L14.058 72.5947ZM26.4256 78H25.2732V73.4053C25.2732 73.2523 25.2749 73.0993 25.2781 72.9463C25.2814 72.7933 25.2846 72.6436 25.2879 72.4971C25.2944 72.3506 25.3025 72.2106 25.3123 72.0771C25.2439 72.152 25.1593 72.2334 25.0584 72.3213C24.9607 72.4092 24.8566 72.5003 24.7459 72.5947L23.9256 73.249L23.3494 72.5215L25.4686 70.8613H26.4256V78ZM31.501 73.5371C31.96 73.5371 32.3636 73.6201 32.7119 73.7861C33.0635 73.9489 33.3369 74.1898 33.5322 74.5088C33.7275 74.8245 33.8252 75.2119 33.8252 75.6709C33.8252 76.1722 33.7194 76.6051 33.5078 76.9697C33.2962 77.3311 32.9853 77.6094 32.5752 77.8047C32.165 78 31.6654 78.0977 31.0762 78.0977C30.7018 78.0977 30.3519 78.0651 30.0264 78C29.7041 77.9349 29.4258 77.8372 29.1914 77.707V76.6719C29.4355 76.8086 29.7285 76.9209 30.0703 77.0088C30.4121 77.0934 30.7393 77.1357 31.0518 77.1357C31.3838 77.1357 31.6686 77.0869 31.9062 76.9893C32.1439 76.8916 32.3262 76.7419 32.4531 76.54C32.5833 76.3382 32.6484 76.0827 32.6484 75.7734C32.6484 75.3633 32.5166 75.0475 32.2529 74.8262C31.9925 74.6016 31.584 74.4893 31.0273 74.4893C30.832 74.4893 30.6237 74.5072 30.4023 74.543C30.1842 74.5755 30.002 74.6113 29.8555 74.6504L29.3525 74.3525L29.6211 70.8613H33.332V71.8721H30.6318L30.4756 73.6494C30.5928 73.6234 30.7327 73.599 30.8955 73.5762C31.0583 73.5501 31.2601 73.5371 31.501 73.5371ZM40.5434 78.0977C40.0323 78.0977 39.5896 77.9984 39.2152 77.7998C38.8409 77.6012 38.5528 77.2969 38.351 76.8867C38.1491 76.4766 38.0482 75.9557 38.0482 75.3242C38.0482 74.6667 38.1589 74.1296 38.3803 73.7129C38.6016 73.2962 38.9076 72.9886 39.2982 72.79C39.6921 72.5915 40.143 72.4922 40.6508 72.4922C40.973 72.4922 41.2644 72.5247 41.5248 72.5898C41.7885 72.6517 42.0115 72.7282 42.1937 72.8193L41.8519 73.7373C41.6534 73.6559 41.4499 73.5876 41.2416 73.5322C41.0333 73.4769 40.8331 73.4492 40.641 73.4492C40.3253 73.4492 40.0616 73.5192 39.85 73.6592C39.6417 73.7992 39.4854 74.0075 39.3812 74.2842C39.2803 74.5609 39.2299 74.9043 39.2299 75.3145C39.2299 75.7116 39.282 76.0469 39.3861 76.3203C39.4903 76.5905 39.6449 76.7956 39.85 76.9355C40.0551 77.0723 40.3074 77.1406 40.6068 77.1406C40.9031 77.1406 41.1684 77.1048 41.4027 77.0332C41.6371 76.9616 41.8585 76.8688 42.0668 76.7549V77.751C41.8617 77.8682 41.642 77.9544 41.4076 78.0098C41.1732 78.0684 40.8852 78.0977 40.5434 78.0977ZM49.359 70.8613V75.4805C49.359 75.9785 49.2532 76.4245 49.0416 76.8184C48.8333 77.2122 48.5175 77.5247 48.0943 77.7559C47.6712 77.9837 47.1389 78.0977 46.4977 78.0977C45.5829 78.0977 44.8863 77.8584 44.4078 77.3799C43.9326 76.8981 43.6949 76.2585 43.6949 75.4609V70.8613H44.8668V75.3584C44.8668 75.9541 45.0068 76.3936 45.2867 76.6768C45.5667 76.96 45.985 77.1016 46.5416 77.1016C46.9257 77.1016 47.2382 77.0348 47.4791 76.9014C47.7232 76.7646 47.9023 76.5661 48.0162 76.3057C48.1334 76.042 48.192 75.7246 48.192 75.3535V70.8613H49.359ZM55.6062 76.0566C55.6062 76.4798 55.5021 76.8444 55.2937 77.1504C55.0887 77.4564 54.7924 77.6908 54.4051 77.8535C54.021 78.0163 53.562 78.0977 53.0281 78.0977C52.7677 78.0977 52.5187 78.083 52.2811 78.0537C52.0434 78.0244 51.8188 77.9821 51.6072 77.9268C51.3989 77.8682 51.2085 77.7982 51.0359 77.7168V76.6133C51.3256 76.7402 51.6495 76.8558 52.0076 76.96C52.3657 77.0609 52.7303 77.1113 53.1014 77.1113C53.4041 77.1113 53.6548 77.0723 53.8533 76.9941C54.0551 76.9128 54.2049 76.7988 54.3025 76.6523C54.4002 76.5026 54.449 76.3284 54.449 76.1299C54.449 75.9183 54.3921 75.7393 54.2781 75.5928C54.1642 75.4463 53.9917 75.3128 53.7605 75.1924C53.5327 75.0687 53.2462 74.9368 52.9012 74.7969C52.6668 74.7025 52.4422 74.5951 52.2273 74.4746C52.0158 74.3542 51.827 74.2126 51.6609 74.0498C51.4949 73.887 51.3631 73.695 51.2654 73.4736C51.171 73.249 51.1238 72.9854 51.1238 72.6826C51.1238 72.279 51.2199 71.9339 51.4119 71.6475C51.6072 71.361 51.8807 71.1413 52.2322 70.9883C52.587 70.8353 53.0005 70.7588 53.4725 70.7588C53.8468 70.7588 54.1984 70.7979 54.5271 70.876C54.8592 70.9541 55.1847 71.0648 55.5037 71.208L55.1326 72.1504C54.8396 72.0299 54.5548 71.9339 54.2781 71.8623C54.0047 71.7907 53.7247 71.7549 53.4383 71.7549C53.1909 71.7549 52.9809 71.7923 52.8084 71.8672C52.6359 71.9421 52.504 72.0479 52.4129 72.1846C52.325 72.318 52.2811 72.4775 52.2811 72.6631C52.2811 72.8714 52.3315 73.0472 52.4324 73.1904C52.5366 73.3304 52.6961 73.459 52.9109 73.5762C53.129 73.6934 53.409 73.8236 53.7508 73.9668C54.1447 74.1296 54.4783 74.3005 54.7518 74.4795C55.0284 74.6585 55.24 74.8734 55.3865 75.124C55.533 75.3714 55.6062 75.6823 55.6062 76.0566ZM63.0791 74.3623C63.0791 75.1663 62.9294 75.8385 62.6299 76.3789C62.3304 76.916 61.8958 77.3213 61.3262 77.5947C60.7565 77.8649 60.0697 78 59.2656 78H57.2832V70.8613H59.4805C60.2194 70.8613 60.8574 70.9948 61.3945 71.2617C61.9316 71.5254 62.3467 71.9176 62.6396 72.4385C62.9326 72.9561 63.0791 73.5973 63.0791 74.3623ZM61.8584 74.3965C61.8584 73.8105 61.7656 73.3288 61.5801 72.9512C61.3978 72.5736 61.1276 72.2936 60.7695 72.1113C60.4147 71.9258 59.9769 71.833 59.4561 71.833H58.4551V77.0186H59.2852C60.1478 77.0186 60.7923 76.7988 61.2187 76.3594C61.6452 75.9199 61.8584 75.2656 61.8584 74.3965Z" fill="#4B5563"/>
<path d="M85.88 91.9291C86.1026 92.0926 86.1504 92.4055 85.9869 92.6281C85.8234 92.8506 85.5105 92.8985 85.2879 92.735L85.88 91.9291ZM75.3757 84.832V84.332H75.5396L75.6717 84.4291L75.3757 84.832ZM6.16666 84.832C6.16666 86.3048 4.97276 87.4987 3.5 87.4987C2.02724 87.4987 0.833336 86.3048 0.833336 84.832C0.833336 83.3593 2.02724 82.1654 3.5 82.1654C4.97276 82.1654 6.16666 83.3593 6.16666 84.832ZM85.2879 92.735L75.0796 85.235L75.6717 84.4291L85.88 91.9291L85.2879 92.735ZM75.3757 85.332H3.5V84.332H75.3757V85.332Z" fill="white"/>
<path d="M187.996 94.3125C185.984 92.2838 183.088 90.6684 180.357 89.9005C178.809 89.465 177.188 89.3274 175.586 89.3123C174.756 89.3035 173.934 89.3355 173.109 89.4097C172.87 89.4319 171.898 89.7206 171.753 89.5157C171.267 88.8265 174.884 88.5014 175.277 88.4955C176.935 88.4659 178.62 88.5198 180.24 88.9056C182.959 89.5472 185.842 90.8074 187.977 92.6506C189.219 93.7235 190.477 94.7846 191.473 96.1233C191.891 96.6865 192.26 97.2895 192.566 97.9207C192.783 98.3682 192.995 98.8301 193.155 99.3024C193.272 99.6515 193.246 100.161 193.414 100.47C193.81 99.9893 193.786 99.1302 194.16 98.6001C194.605 97.9704 194.846 98.5695 194.793 99.0816C194.706 99.8952 194.486 100.687 194.305 101.481C194.15 102.159 194.115 103.063 193.27 103.05C192.529 103.039 191.77 102.733 191.055 102.568C190.578 102.457 189.483 102.465 189.255 101.92C188.542 100.224 192.187 101.878 192.484 101.88C192.442 101.592 192.253 101.305 192.162 101.023C192.031 100.617 191.957 100.195 191.823 99.7888C191.57 99.0231 191.226 98.2601 190.827 97.5592C190.137 96.3435 189.105 95.1558 187.998 94.3109C187.269 93.5768 188.158 94.4313 187.998 94.3109L187.996 94.3125Z" fill="white"/>
<path d="M157.775 7.4209C157.775 7.97103 157.705 8.47233 157.565 8.9248C157.429 9.37402 157.222 9.76139 156.945 10.0869C156.669 10.4092 156.322 10.6582 155.905 10.834C155.489 11.0098 155 11.0977 154.44 11.0977C153.871 11.0977 153.376 11.0098 152.956 10.834C152.539 10.6582 152.193 10.4076 151.916 10.082C151.643 9.75651 151.437 9.36751 151.301 8.91504C151.164 8.46256 151.096 7.96126 151.096 7.41113C151.096 6.67546 151.216 6.03418 151.457 5.4873C151.701 4.93717 152.071 4.51074 152.565 4.20801C153.063 3.90202 153.692 3.74902 154.45 3.74902C155.192 3.74902 155.809 3.90039 156.301 4.20312C156.792 4.50586 157.16 4.93229 157.404 5.48242C157.652 6.0293 157.775 6.67546 157.775 7.4209ZM152.326 7.4209C152.326 7.97103 152.401 8.44792 152.551 8.85156C152.701 9.25195 152.93 9.5612 153.239 9.7793C153.552 9.99414 153.952 10.1016 154.44 10.1016C154.932 10.1016 155.332 9.99414 155.642 9.7793C155.951 9.5612 156.179 9.25195 156.325 8.85156C156.472 8.44792 156.545 7.97103 156.545 7.4209C156.545 6.58431 156.377 5.93001 156.042 5.45801C155.71 4.98275 155.179 4.74512 154.45 4.74512C153.962 4.74512 153.56 4.85254 153.244 5.06738C152.932 5.28223 152.701 5.58984 152.551 5.99023C152.401 6.38737 152.326 6.86426 152.326 7.4209ZM162.192 6.46875H160.878V11H159.731V6.46875H158.847V5.91699L159.731 5.58008V5.2041C159.731 4.74512 159.802 4.38053 159.946 4.11035C160.092 3.84017 160.3 3.64648 160.571 3.5293C160.844 3.40885 161.169 3.34863 161.547 3.34863C161.794 3.34863 162.021 3.36979 162.226 3.41211C162.431 3.45117 162.603 3.49674 162.743 3.54883L162.446 4.41797C162.335 4.38216 162.211 4.34961 162.074 4.32031C161.938 4.28776 161.791 4.27148 161.635 4.27148C161.375 4.27148 161.182 4.35286 161.059 4.51562C160.938 4.67839 160.878 4.91602 160.878 5.22852V5.59473H162.192V6.46875ZM165.81 6.46875H164.496V11H163.349V6.46875H162.465V5.91699L163.349 5.58008V5.2041C163.349 4.74512 163.42 4.38053 163.564 4.11035C163.71 3.84017 163.918 3.64648 164.189 3.5293C164.462 3.40885 164.788 3.34863 165.165 3.34863C165.413 3.34863 165.639 3.36979 165.844 3.41211C166.049 3.45117 166.222 3.49674 166.362 3.54883L166.064 4.41797C165.953 4.38216 165.829 4.34961 165.693 4.32031C165.556 4.28776 165.409 4.27148 165.253 4.27148C164.993 4.27148 164.801 4.35286 164.677 4.51562C164.557 4.67839 164.496 4.91602 164.496 5.22852V5.59473H165.81V6.46875ZM170.661 9.45703C170.661 9.81185 170.574 10.1113 170.402 10.3555C170.229 10.5996 169.977 10.7852 169.645 10.9121C169.316 11.0358 168.912 11.0977 168.434 11.0977C168.056 11.0977 167.731 11.07 167.457 11.0146C167.187 10.9626 166.932 10.8812 166.691 10.7705V9.7793C166.948 9.89974 167.236 10.0039 167.555 10.0918C167.877 10.1797 168.182 10.2236 168.468 10.2236C168.846 10.2236 169.118 10.165 169.284 10.0479C169.45 9.92741 169.533 9.7679 169.533 9.56934C169.533 9.45215 169.498 9.34798 169.43 9.25684C169.365 9.16243 169.241 9.06641 169.059 8.96875C168.88 8.86784 168.616 8.7474 168.268 8.60742C167.926 8.4707 167.638 8.33398 167.404 8.19727C167.169 8.06055 166.992 7.89616 166.871 7.7041C166.751 7.50879 166.691 7.25977 166.691 6.95703C166.691 6.47852 166.88 6.11556 167.257 5.86816C167.638 5.61751 168.141 5.49219 168.766 5.49219C169.098 5.49219 169.411 5.52637 169.704 5.59473C170 5.65983 170.289 5.75586 170.573 5.88281L170.211 6.74707C169.967 6.63965 169.721 6.55176 169.474 6.4834C169.23 6.41178 168.981 6.37598 168.727 6.37598C168.431 6.37598 168.204 6.42155 168.048 6.51269C167.895 6.60384 167.819 6.73405 167.819 6.90332C167.819 7.03027 167.856 7.13769 167.931 7.22559C168.006 7.31348 168.135 7.40137 168.317 7.48926C168.502 7.57715 168.76 7.6862 169.088 7.81641C169.411 7.9401 169.689 8.07031 169.923 8.20703C170.161 8.34049 170.343 8.50488 170.47 8.70019C170.597 8.89551 170.661 9.14779 170.661 9.45703ZM174.354 5.49219C174.836 5.49219 175.249 5.59147 175.594 5.79004C175.939 5.98861 176.205 6.27018 176.39 6.63477C176.576 6.99935 176.669 7.43555 176.669 7.94336V8.55859H173.06C173.073 9.08268 173.213 9.48633 173.48 9.76953C173.75 10.0527 174.128 10.1943 174.613 10.1943C174.958 10.1943 175.267 10.1618 175.541 10.0967C175.817 10.0283 176.102 9.92904 176.395 9.79883V10.7314C176.125 10.8584 175.85 10.9512 175.57 11.0098C175.29 11.0684 174.955 11.0977 174.564 11.0977C174.033 11.0977 173.566 10.9951 173.163 10.79C172.762 10.5817 172.448 10.2725 172.22 9.8623C171.996 9.45215 171.883 8.94271 171.883 8.33398C171.883 7.72852 171.986 7.21419 172.191 6.79102C172.396 6.36784 172.684 6.04557 173.055 5.82422C173.426 5.60286 173.859 5.49219 174.354 5.49219ZM174.354 6.35644C173.993 6.35644 173.7 6.47363 173.475 6.70801C173.254 6.94238 173.124 7.28581 173.085 7.73828H175.546C175.542 7.4681 175.497 7.22884 175.409 7.02051C175.324 6.81217 175.194 6.64941 175.018 6.53223C174.846 6.41504 174.624 6.35644 174.354 6.35644ZM180.274 10.1699C180.424 10.1699 180.572 10.1569 180.719 10.1309C180.865 10.1016 180.999 10.0674 181.119 10.0283V10.8975C180.992 10.9528 180.828 11 180.626 11.0391C180.424 11.0781 180.214 11.0977 179.996 11.0977C179.69 11.0977 179.415 11.0472 179.171 10.9463C178.927 10.8421 178.733 10.6647 178.59 10.4141C178.446 10.1634 178.375 9.81673 178.375 9.37402V6.46875H177.637V5.95605L178.429 5.55078L178.804 4.39355H179.527V5.59473H181.075V6.46875H179.527V9.35937C179.527 9.63281 179.596 9.83626 179.732 9.96973C179.869 10.1032 180.05 10.1699 180.274 10.1699ZM188.418 11H187.266V6.40527C187.266 6.25228 187.267 6.09928 187.271 5.94629C187.274 5.79329 187.277 5.64355 187.28 5.49707C187.287 5.35059 187.295 5.21061 187.305 5.07715C187.237 5.15202 187.152 5.2334 187.051 5.32129C186.953 5.40918 186.849 5.50033 186.738 5.59473L185.918 6.24902L185.342 5.52148L187.461 3.86133H188.418V11ZM196.513 11.0977C196.002 11.0977 195.56 10.9984 195.185 10.7998C194.811 10.6012 194.523 10.2969 194.321 9.88672C194.119 9.47656 194.018 8.95573 194.018 8.32422C194.018 7.66667 194.129 7.12956 194.35 6.71289C194.572 6.29622 194.878 5.98861 195.268 5.79004C195.662 5.59147 196.113 5.49219 196.621 5.49219C196.943 5.49219 197.234 5.52474 197.495 5.58984C197.758 5.65169 197.981 5.72819 198.164 5.81934L197.822 6.7373C197.623 6.65592 197.42 6.58756 197.212 6.53223C197.003 6.47689 196.803 6.44922 196.611 6.44922C196.295 6.44922 196.032 6.51921 195.82 6.65918C195.612 6.79915 195.455 7.00749 195.351 7.28418C195.25 7.56087 195.2 7.9043 195.2 8.31445C195.2 8.71159 195.252 9.04687 195.356 9.32031C195.46 9.59049 195.615 9.79557 195.82 9.93555C196.025 10.0723 196.277 10.1406 196.577 10.1406C196.873 10.1406 197.138 10.1048 197.373 10.0332C197.607 9.96159 197.828 9.86881 198.037 9.75488V10.751C197.832 10.8682 197.612 10.9544 197.378 11.0098C197.143 11.0684 196.855 11.0977 196.513 11.0977ZM201.725 5.49219C202.409 5.49219 202.925 5.64355 203.273 5.94629C203.625 6.24902 203.801 6.72103 203.801 7.3623V11H202.985L202.765 10.2334H202.726C202.573 10.4287 202.415 10.5898 202.253 10.7168C202.09 10.8437 201.901 10.9382 201.686 11C201.475 11.0651 201.216 11.0977 200.91 11.0977C200.588 11.0977 200.3 11.0391 200.046 10.9219C199.792 10.8014 199.592 10.6191 199.445 10.375C199.299 10.1309 199.225 9.82161 199.225 9.44727C199.225 8.89062 199.432 8.47233 199.846 8.19238C200.262 7.91243 200.89 7.75781 201.73 7.72852L202.668 7.69434V7.41113C202.668 7.03678 202.58 6.76986 202.404 6.61035C202.232 6.45085 201.987 6.37109 201.672 6.37109C201.401 6.37109 201.139 6.41016 200.886 6.48828C200.632 6.56641 200.384 6.66243 200.143 6.77637L199.772 5.96582C200.036 5.82585 200.335 5.71191 200.671 5.62402C201.009 5.53613 201.361 5.49219 201.725 5.49219ZM202.663 8.41699L201.965 8.44141C201.392 8.46094 200.99 8.55859 200.759 8.73437C200.527 8.91016 200.412 9.15104 200.412 9.45703C200.412 9.72396 200.492 9.91927 200.651 10.043C200.811 10.1634 201.021 10.2236 201.281 10.2236C201.678 10.2236 202.007 10.1113 202.267 9.88672C202.531 9.65885 202.663 9.32519 202.663 8.88574V8.41699ZM208.446 5.49219C208.537 5.49219 208.637 5.49707 208.744 5.50684C208.852 5.5166 208.944 5.52962 209.022 5.5459L208.915 6.62012C208.847 6.60059 208.762 6.58594 208.661 6.57617C208.563 6.56641 208.476 6.56152 208.397 6.56152C208.192 6.56152 207.997 6.5957 207.812 6.66406C207.626 6.72917 207.462 6.83008 207.318 6.9668C207.175 7.10026 207.063 7.2679 206.981 7.46973C206.9 7.67155 206.859 7.90592 206.859 8.17285V11H205.707V5.59473H206.605L206.762 6.54687H206.815C206.923 6.35482 207.056 6.17904 207.216 6.01953C207.375 5.86003 207.558 5.73307 207.763 5.63867C207.971 5.54102 208.199 5.49219 208.446 5.49219ZM211.471 3.40234V5.2334C211.471 5.44499 211.464 5.65332 211.451 5.8584C211.442 6.06022 211.432 6.2181 211.422 6.33203H211.471C211.617 6.09766 211.821 5.90072 212.081 5.74121C212.345 5.57845 212.682 5.49707 213.092 5.49707C213.733 5.49707 214.249 5.73307 214.64 6.20508C215.03 6.67383 215.226 7.36881 215.226 8.29004C215.226 8.90202 215.136 9.41634 214.957 9.83301C214.778 10.2497 214.526 10.5654 214.2 10.7803C213.878 10.9919 213.499 11.0977 213.063 11.0977C212.653 11.0977 212.321 11.0228 212.067 10.873C211.816 10.7201 211.619 10.5426 211.476 10.3408H211.393L211.183 11H210.323V3.40234H211.471ZM212.789 6.42969C212.464 6.42969 212.205 6.49479 212.013 6.625C211.824 6.75521 211.687 6.95052 211.603 7.21094C211.518 7.4681 211.474 7.79525 211.471 8.19238V8.29492C211.471 8.89713 211.565 9.35775 211.754 9.67676C211.946 9.99577 212.294 10.1553 212.799 10.1553C213.199 10.1553 213.507 9.99414 213.722 9.67187C213.937 9.34635 214.044 8.88086 214.044 8.27539C214.044 7.66341 213.937 7.2028 213.722 6.89355C213.51 6.58431 213.199 6.42969 212.789 6.42969ZM221.639 8.28516C221.639 8.73437 221.58 9.13314 221.463 9.48144C221.346 9.82975 221.175 10.1243 220.951 10.3652C220.726 10.6029 220.456 10.7852 220.14 10.9121C219.824 11.0358 219.468 11.0977 219.071 11.0977C218.7 11.0977 218.359 11.0358 218.05 10.9121C217.741 10.7852 217.472 10.6029 217.245 10.3652C217.02 10.1243 216.846 9.82975 216.722 9.48144C216.598 9.13314 216.537 8.73437 216.537 8.28516C216.537 7.68945 216.639 7.1849 216.844 6.77148C217.052 6.35482 217.349 6.03743 217.733 5.81934C218.117 5.60124 218.574 5.49219 219.105 5.49219C219.603 5.49219 220.042 5.60124 220.423 5.81934C220.804 6.03743 221.102 6.35482 221.317 6.77148C221.532 7.18815 221.639 7.69271 221.639 8.28516ZM217.718 8.28516C217.718 8.67904 217.765 9.01595 217.86 9.2959C217.957 9.57585 218.107 9.79069 218.309 9.94043C218.511 10.0869 218.771 10.1602 219.09 10.1602C219.409 10.1602 219.67 10.0869 219.871 9.94043C220.073 9.79069 220.221 9.57585 220.316 9.2959C220.41 9.01595 220.457 8.67904 220.457 8.28516C220.457 7.89128 220.41 7.55762 220.316 7.28418C220.221 7.00749 220.073 6.79753 219.871 6.6543C219.67 6.50781 219.408 6.43457 219.085 6.43457C218.61 6.43457 218.263 6.59408 218.045 6.91309C217.827 7.2321 217.718 7.68945 217.718 8.28516ZM226.075 5.49219C226.684 5.49219 227.157 5.65006 227.496 5.96582C227.837 6.27832 228.008 6.78125 228.008 7.47461V11H226.861V7.68945C226.861 7.26953 226.775 6.9554 226.602 6.74707C226.43 6.53548 226.163 6.42969 225.801 6.42969C225.277 6.42969 224.913 6.59082 224.708 6.91309C224.506 7.23535 224.405 7.70247 224.405 8.31445V11H223.257V5.59473H224.151L224.312 6.32715H224.376C224.493 6.13835 224.638 5.98372 224.81 5.86328C224.986 5.73958 225.181 5.64681 225.396 5.58496C225.614 5.52311 225.84 5.49219 226.075 5.49219ZM234.824 10.1699C234.974 10.1699 235.122 10.1569 235.269 10.1309C235.415 10.1016 235.548 10.0674 235.669 10.0283V10.8975C235.542 10.9528 235.378 11 235.176 11.0391C234.974 11.0781 234.764 11.0977 234.546 11.0977C234.24 11.0977 233.965 11.0472 233.721 10.9463C233.477 10.8421 233.283 10.6647 233.14 10.4141C232.996 10.1634 232.925 9.81673 232.925 9.37402V6.46875H232.187V5.95605L232.979 5.55078L233.354 4.39355H234.077V5.59473H235.625V6.46875H234.077V9.35937C234.077 9.63281 234.146 9.83626 234.282 9.96973C234.419 10.1032 234.6 10.1699 234.824 10.1699ZM241.853 8.28516C241.853 8.73437 241.794 9.13314 241.677 9.48144C241.56 9.82975 241.389 10.1243 241.164 10.3652C240.94 10.6029 240.669 10.7852 240.354 10.9121C240.038 11.0358 239.682 11.0977 239.284 11.0977C238.913 11.0977 238.573 11.0358 238.264 10.9121C237.955 10.7852 237.686 10.6029 237.458 10.3652C237.234 10.1243 237.059 9.82975 236.936 9.48144C236.812 9.13314 236.75 8.73437 236.75 8.28516C236.75 7.68945 236.853 7.1849 237.058 6.77148C237.266 6.35482 237.562 6.03743 237.946 5.81934C238.331 5.60124 238.788 5.49219 239.319 5.49219C239.817 5.49219 240.256 5.60124 240.637 5.81934C241.018 6.03743 241.316 6.35482 241.53 6.77148C241.745 7.18815 241.853 7.69271 241.853 8.28516ZM237.932 8.28516C237.932 8.67904 237.979 9.01595 238.073 9.2959C238.171 9.57585 238.321 9.79069 238.523 9.94043C238.724 10.0869 238.985 10.1602 239.304 10.1602C239.623 10.1602 239.883 10.0869 240.085 9.94043C240.287 9.79069 240.435 9.57585 240.529 9.2959C240.624 9.01595 240.671 8.67904 240.671 8.28516C240.671 7.89128 240.624 7.55762 240.529 7.28418C240.435 7.00749 240.287 6.79753 240.085 6.6543C239.883 6.50781 239.621 6.43457 239.299 6.43457C238.824 6.43457 238.477 6.59408 238.259 6.91309C238.041 7.2321 237.932 7.68945 237.932 8.28516ZM244.619 3.40234V7.07422C244.619 7.24023 244.612 7.42253 244.599 7.62109C244.586 7.81641 244.573 8.00033 244.56 8.17285H244.584C244.669 8.05892 244.77 7.92546 244.887 7.77246C245.008 7.61947 245.121 7.486 245.229 7.37207L246.879 5.59473H248.198L246.035 7.91894L248.339 11H246.992L245.263 8.62695L244.619 9.17871V11H243.471V3.40234H244.619ZM251.657 5.49219C252.139 5.49219 252.552 5.59147 252.897 5.79004C253.242 5.98861 253.507 6.27018 253.693 6.63477C253.879 6.99935 253.971 7.43555 253.971 7.94336V8.55859H250.363C250.376 9.08268 250.516 9.48633 250.783 9.76953C251.053 10.0527 251.431 10.1943 251.916 10.1943C252.261 10.1943 252.57 10.1618 252.843 10.0967C253.12 10.0283 253.405 9.92904 253.698 9.79883V10.7314C253.428 10.8584 253.153 10.9512 252.873 11.0098C252.593 11.0684 252.257 11.0977 251.867 11.0977C251.336 11.0977 250.869 10.9951 250.465 10.79C250.065 10.5817 249.751 10.2725 249.523 9.8623C249.298 9.45215 249.186 8.94271 249.186 8.33398C249.186 7.72852 249.289 7.21419 249.494 6.79102C249.699 6.36784 249.987 6.04557 250.358 5.82422C250.729 5.60286 251.162 5.49219 251.657 5.49219ZM251.657 6.35644C251.296 6.35644 251.003 6.47363 250.778 6.70801C250.557 6.94238 250.426 7.28581 250.387 7.73828H252.848C252.845 7.4681 252.799 7.22884 252.712 7.02051C252.627 6.81217 252.497 6.64941 252.321 6.53223C252.148 6.41504 251.927 6.35644 251.657 6.35644ZM258.383 5.49219C258.991 5.49219 259.465 5.65006 259.804 5.96582C260.145 6.27832 260.316 6.78125 260.316 7.47461V11H259.169V7.68945C259.169 7.26953 259.082 6.9554 258.91 6.74707C258.737 6.53548 258.47 6.42969 258.109 6.42969C257.585 6.42969 257.22 6.59082 257.015 6.91309C256.814 7.23535 256.713 7.70247 256.713 8.31445V11H255.565V5.59473H256.459L256.62 6.32715H256.683C256.801 6.13835 256.945 5.98372 257.118 5.86328C257.294 5.73958 257.489 5.64681 257.704 5.58496C257.922 5.52311 258.148 5.49219 258.383 5.49219ZM154.323 25H153.171V20.4053C153.171 20.2523 153.173 20.0993 153.176 19.9463C153.179 19.7933 153.182 19.6436 153.186 19.4971C153.192 19.3506 153.2 19.2106 153.21 19.0771C153.142 19.152 153.057 19.2334 152.956 19.3213C152.858 19.4092 152.754 19.5003 152.644 19.5947L151.823 20.249L151.247 19.5215L153.366 17.8613H154.323V25ZM162.418 25.0977C161.907 25.0977 161.465 24.9984 161.09 24.7998C160.716 24.6012 160.428 24.2969 160.226 23.8867C160.024 23.4766 159.923 22.9557 159.923 22.3242C159.923 21.6667 160.034 21.1296 160.255 20.7129C160.477 20.2962 160.783 19.9886 161.173 19.79C161.567 19.5915 162.018 19.4922 162.526 19.4922C162.848 19.4922 163.139 19.5247 163.4 19.5898C163.663 19.6517 163.886 19.7282 164.069 19.8193L163.727 20.7373C163.528 20.6559 163.325 20.5876 163.117 20.5322C162.908 20.4769 162.708 20.4492 162.516 20.4492C162.2 20.4492 161.937 20.5192 161.725 20.6592C161.517 20.7992 161.36 21.0075 161.256 21.2842C161.155 21.5609 161.105 21.9043 161.105 22.3145C161.105 22.7116 161.157 23.0469 161.261 23.3203C161.365 23.5905 161.52 23.7956 161.725 23.9355C161.93 24.0723 162.182 24.1406 162.482 24.1406C162.778 24.1406 163.043 24.1048 163.278 24.0332C163.512 23.9616 163.733 23.8688 163.942 23.7549V24.751C163.737 24.8682 163.517 24.9544 163.283 25.0098C163.048 25.0684 162.76 25.0977 162.418 25.0977ZM167.63 19.4922C168.314 19.4922 168.83 19.6436 169.178 19.9463C169.53 20.249 169.706 20.721 169.706 21.3623V25H168.89L168.671 24.2334H168.631C168.478 24.4287 168.321 24.5898 168.158 24.7168C167.995 24.8437 167.806 24.9381 167.591 25C167.38 25.0651 167.121 25.0977 166.815 25.0977C166.493 25.0977 166.205 25.0391 165.951 24.9219C165.697 24.8014 165.497 24.6191 165.35 24.375C165.204 24.1309 165.13 23.8216 165.13 23.4473C165.13 22.8906 165.337 22.4723 165.751 22.1924C166.167 21.9124 166.796 21.7578 167.635 21.7285L168.573 21.6943V21.4111C168.573 21.0368 168.485 20.7699 168.309 20.6104C168.137 20.4508 167.893 20.3711 167.577 20.3711C167.307 20.3711 167.045 20.4102 166.791 20.4883C166.537 20.5664 166.289 20.6624 166.048 20.7764L165.677 19.9658C165.941 19.8258 166.24 19.7119 166.576 19.624C166.914 19.5361 167.266 19.4922 167.63 19.4922ZM168.568 22.417L167.87 22.4414C167.297 22.4609 166.895 22.5586 166.664 22.7344C166.433 22.9102 166.317 23.151 166.317 23.457C166.317 23.724 166.397 23.9193 166.556 24.043C166.716 24.1634 166.926 24.2236 167.186 24.2236C167.583 24.2236 167.912 24.1113 168.172 23.8867C168.436 23.6589 168.568 23.3252 168.568 22.8857V22.417ZM174.351 19.4922C174.443 19.4922 174.542 19.4971 174.649 19.5068C174.757 19.5166 174.849 19.5296 174.928 19.5459L174.82 20.6201C174.752 20.6006 174.667 20.5859 174.566 20.5762C174.469 20.5664 174.381 20.5615 174.303 20.5615C174.097 20.5615 173.902 20.5957 173.717 20.6641C173.531 20.7292 173.367 20.8301 173.223 20.9668C173.08 21.1003 172.968 21.2679 172.887 21.4697C172.805 21.6715 172.764 21.9059 172.764 22.1729V25H171.612V19.5947H172.511L172.667 20.5469H172.721C172.828 20.3548 172.961 20.179 173.121 20.0195C173.28 19.86 173.463 19.7331 173.668 19.6387C173.876 19.541 174.104 19.4922 174.351 19.4922ZM177.376 17.4023V19.2334C177.376 19.445 177.369 19.6533 177.356 19.8584C177.347 20.0602 177.337 20.2181 177.327 20.332H177.376C177.522 20.0977 177.726 19.9007 177.986 19.7412C178.25 19.5784 178.587 19.4971 178.997 19.4971C179.638 19.4971 180.154 19.7331 180.545 20.2051C180.936 20.6738 181.131 21.3688 181.131 22.29C181.131 22.902 181.041 23.4163 180.862 23.833C180.683 24.2497 180.431 24.5654 180.105 24.7803C179.783 24.9919 179.404 25.0977 178.968 25.0977C178.558 25.0977 178.226 25.0228 177.972 24.873C177.721 24.7201 177.524 24.5426 177.381 24.3408H177.298L177.088 25H176.229V17.4023H177.376ZM178.694 20.4297C178.369 20.4297 178.11 20.4948 177.918 20.625C177.729 20.7552 177.592 20.9505 177.508 21.2109C177.423 21.4681 177.379 21.7952 177.376 22.1924V22.2949C177.376 22.8971 177.47 23.3577 177.659 23.6768C177.851 23.9958 178.2 24.1553 178.704 24.1553C179.104 24.1553 179.412 23.9941 179.627 23.6719C179.842 23.3464 179.949 22.8809 179.949 22.2754C179.949 21.6634 179.842 21.2028 179.627 20.8936C179.415 20.5843 179.104 20.4297 178.694 20.4297ZM187.544 22.2852C187.544 22.7344 187.486 23.1331 187.368 23.4814C187.251 23.8298 187.08 24.1243 186.856 24.3652C186.631 24.6029 186.361 24.7852 186.045 24.9121C185.729 25.0358 185.373 25.0977 184.976 25.0977C184.605 25.0977 184.265 25.0358 183.955 24.9121C183.646 24.7852 183.377 24.6029 183.15 24.3652C182.925 24.1243 182.751 23.8298 182.627 23.4814C182.503 23.1331 182.442 22.7344 182.442 22.2852C182.442 21.6895 182.544 21.1849 182.749 20.7715C182.958 20.3548 183.254 20.0374 183.638 19.8193C184.022 19.6012 184.479 19.4922 185.01 19.4922C185.508 19.4922 185.947 19.6012 186.328 19.8193C186.709 20.0374 187.007 20.3548 187.222 20.7715C187.437 21.1881 187.544 21.6927 187.544 22.2852ZM183.623 22.2852C183.623 22.679 183.67 23.0159 183.765 23.2959C183.862 23.5758 184.012 23.7907 184.214 23.9404C184.416 24.0869 184.676 24.1602 184.995 24.1602C185.314 24.1602 185.575 24.0869 185.777 23.9404C185.978 23.7907 186.126 23.5758 186.221 23.2959C186.315 23.0159 186.362 22.679 186.362 22.2852C186.362 21.8913 186.315 21.5576 186.221 21.2842C186.126 21.0075 185.978 20.7975 185.777 20.6543C185.575 20.5078 185.313 20.4346 184.99 20.4346C184.515 20.4346 184.168 20.5941 183.95 20.9131C183.732 21.2321 183.623 21.6895 183.623 22.2852ZM191.98 19.4922C192.589 19.4922 193.062 19.6501 193.401 19.9658C193.743 20.2783 193.913 20.7812 193.913 21.4746V25H192.766V21.6895C192.766 21.2695 192.68 20.9554 192.507 20.7471C192.335 20.5355 192.068 20.4297 191.706 20.4297C191.182 20.4297 190.818 20.5908 190.613 20.9131C190.411 21.2354 190.31 21.7025 190.31 22.3145V25H189.162V19.5947H190.056L190.217 20.3271H190.281C190.398 20.1383 190.543 19.9837 190.715 19.8633C190.891 19.7396 191.086 19.6468 191.301 19.585C191.519 19.5231 191.746 19.4922 191.98 19.4922ZM200.729 24.1699C200.879 24.1699 201.027 24.1569 201.174 24.1309C201.32 24.1016 201.454 24.0674 201.574 24.0283V24.8975C201.447 24.9528 201.283 25 201.081 25.0391C200.879 25.0781 200.669 25.0977 200.451 25.0977C200.145 25.0977 199.87 25.0472 199.626 24.9463C199.382 24.8421 199.188 24.6647 199.045 24.4141C198.901 24.1634 198.83 23.8167 198.83 23.374V20.4687H198.093V19.9561L198.884 19.5508L199.26 18.3936H199.982V19.5947H201.53V20.4687H199.982V23.3594C199.982 23.6328 200.051 23.8363 200.187 23.9697C200.324 24.1032 200.505 24.1699 200.729 24.1699ZM207.758 22.2852C207.758 22.7344 207.699 23.1331 207.582 23.4814C207.465 23.8298 207.294 24.1243 207.069 24.3652C206.845 24.6029 206.575 24.7852 206.259 24.9121C205.943 25.0358 205.587 25.0977 205.189 25.0977C204.818 25.0977 204.478 25.0358 204.169 24.9121C203.86 24.7852 203.591 24.6029 203.363 24.3652C203.139 24.1243 202.965 23.8298 202.841 23.4814C202.717 23.1331 202.655 22.7344 202.655 22.2852C202.655 21.6895 202.758 21.1849 202.963 20.7715C203.171 20.3548 203.467 20.0374 203.852 19.8193C204.236 19.6012 204.693 19.4922 205.224 19.4922C205.722 19.4922 206.161 19.6012 206.542 19.8193C206.923 20.0374 207.221 20.3548 207.436 20.7715C207.65 21.1881 207.758 21.6927 207.758 22.2852ZM203.837 22.2852C203.837 22.679 203.884 23.0159 203.979 23.2959C204.076 23.5758 204.226 23.7907 204.428 23.9404C204.63 24.0869 204.89 24.1602 205.209 24.1602C205.528 24.1602 205.788 24.0869 205.99 23.9404C206.192 23.7907 206.34 23.5758 206.435 23.2959C206.529 23.0159 206.576 22.679 206.576 22.2852C206.576 21.8913 206.529 21.5576 206.435 21.2842C206.34 21.0075 206.192 20.7975 205.99 20.6543C205.788 20.5078 205.526 20.4346 205.204 20.4346C204.729 20.4346 204.382 20.5941 204.164 20.9131C203.946 21.2321 203.837 21.6895 203.837 22.2852ZM210.524 17.4023V21.0742C210.524 21.2402 210.517 21.4225 210.504 21.6211C210.491 21.8164 210.478 22.0003 210.465 22.1729H210.489C210.574 22.0589 210.675 21.9255 210.792 21.7725C210.913 21.6195 211.027 21.486 211.134 21.3721L212.784 19.5947H214.103L211.94 21.9189L214.244 25H212.897L211.168 22.627L210.524 23.1787V25H209.376V17.4023H210.524ZM217.562 19.4922C218.044 19.4922 218.457 19.5915 218.802 19.79C219.147 19.9886 219.412 20.2702 219.598 20.6348C219.784 20.9993 219.876 21.4355 219.876 21.9434V22.5586H216.268C216.281 23.0827 216.421 23.4863 216.688 23.7695C216.958 24.0527 217.336 24.1943 217.821 24.1943C218.166 24.1943 218.475 24.1618 218.748 24.0967C219.025 24.0283 219.31 23.929 219.603 23.7988V24.7314C219.333 24.8584 219.058 24.9512 218.778 25.0098C218.498 25.0684 218.162 25.0977 217.772 25.0977C217.241 25.0977 216.774 24.9951 216.371 24.79C215.97 24.5817 215.656 24.2725 215.428 23.8623C215.204 23.4521 215.091 22.9427 215.091 22.334C215.091 21.7285 215.194 21.2142 215.399 20.791C215.604 20.3678 215.892 20.0456 216.263 19.8242C216.634 19.6029 217.067 19.4922 217.562 19.4922ZM217.562 20.3564C217.201 20.3564 216.908 20.4736 216.683 20.708C216.462 20.9424 216.331 21.2858 216.292 21.7383H218.753C218.75 21.4681 218.704 21.2288 218.617 21.0205C218.532 20.8122 218.402 20.6494 218.226 20.5322C218.053 20.415 217.832 20.3564 217.562 20.3564ZM224.288 19.4922C224.896 19.4922 225.37 19.6501 225.709 19.9658C226.05 20.2783 226.221 20.7812 226.221 21.4746V25H225.074V21.6895C225.074 21.2695 224.988 20.9554 224.815 20.7471C224.643 20.5355 224.376 20.4297 224.014 20.4297C223.49 20.4297 223.126 20.5908 222.921 20.9131C222.719 21.2354 222.618 21.7025 222.618 22.3145V25H221.47V19.5947H222.364L222.525 20.3271H222.588C222.706 20.1383 222.851 19.9837 223.023 19.8633C223.199 19.7396 223.394 19.6468 223.609 19.585C223.827 19.5231 224.053 19.4922 224.288 19.4922ZM230.703 20.9326V20.0732H235.415V20.9326H230.703ZM230.703 22.8809V22.0166H235.415V22.8809H230.703ZM242.949 25H241.796V20.4053C241.796 20.2523 241.798 20.0993 241.801 19.9463C241.804 19.7933 241.808 19.6436 241.811 19.4971C241.817 19.3506 241.826 19.2106 241.835 19.0771C241.767 19.152 241.682 19.2334 241.581 19.3213C241.484 19.4092 241.38 19.5003 241.269 19.5947L240.449 20.249L239.872 19.5215L241.992 17.8613H242.949V25ZM250.878 24.1699C251.027 24.1699 251.176 24.1569 251.322 24.1309C251.469 24.1016 251.602 24.0674 251.722 24.0283V24.8975C251.595 24.9528 251.431 25 251.229 25.0391C251.027 25.0781 250.818 25.0977 250.599 25.0977C250.293 25.0977 250.018 25.0472 249.774 24.9463C249.53 24.8421 249.336 24.6647 249.193 24.4141C249.05 24.1634 248.978 23.8167 248.978 23.374V20.4687H248.241V19.9561L249.032 19.5508L249.408 18.3936H250.131V19.5947H251.679V20.4687H250.131V23.3594C250.131 23.6328 250.199 23.8363 250.336 23.9697C250.472 24.1032 250.653 24.1699 250.878 24.1699ZM257.906 22.2852C257.906 22.7344 257.848 23.1331 257.73 23.4814C257.613 23.8298 257.442 24.1243 257.218 24.3652C256.993 24.6029 256.723 24.7852 256.407 24.9121C256.091 25.0358 255.735 25.0977 255.338 25.0977C254.967 25.0977 254.627 25.0358 254.317 24.9121C254.008 24.7852 253.74 24.6029 253.512 24.3652C253.287 24.1243 253.113 23.8298 252.989 23.4814C252.866 23.1331 252.804 22.7344 252.804 22.2852C252.804 21.6895 252.906 21.1849 253.111 20.7715C253.32 20.3548 253.616 20.0374 254 19.8193C254.384 19.6012 254.841 19.4922 255.372 19.4922C255.87 19.4922 256.31 19.6012 256.69 19.8193C257.071 20.0374 257.369 20.3548 257.584 20.7715C257.799 21.1881 257.906 21.6927 257.906 22.2852ZM253.985 22.2852C253.985 22.679 254.033 23.0159 254.127 23.2959C254.225 23.5758 254.374 23.7907 254.576 23.9404C254.778 24.0869 255.038 24.1602 255.357 24.1602C255.676 24.1602 255.937 24.0869 256.139 23.9404C256.34 23.7907 256.489 23.5758 256.583 23.2959C256.677 23.0159 256.725 22.679 256.725 22.2852C256.725 21.8913 256.677 21.5576 256.583 21.2842C256.489 21.0075 256.34 20.7975 256.139 20.6543C255.937 20.5078 255.675 20.4346 255.353 20.4346C254.877 20.4346 254.531 20.5941 254.312 20.9131C254.094 21.2321 253.985 21.6895 253.985 22.2852ZM262.342 19.4922C262.951 19.4922 263.424 19.6501 263.763 19.9658C264.105 20.2783 264.276 20.7812 264.276 21.4746V25H263.128V21.6895C263.128 21.2695 263.042 20.9554 262.869 20.7471C262.697 20.5355 262.43 20.4297 262.069 20.4297C261.544 20.4297 261.18 20.5908 260.975 20.9131C260.773 21.2354 260.672 21.7025 260.672 22.3145V25H259.525V19.5947H260.418L260.579 20.3271H260.643C260.76 20.1383 260.905 19.9837 261.077 19.8633C261.253 19.7396 261.448 19.6468 261.663 19.585C261.881 19.5231 262.108 19.4922 262.342 19.4922ZM272.239 18.7549C271.897 18.7549 271.591 18.8167 271.321 18.9404C271.054 19.0641 270.828 19.2432 270.642 19.4775C270.457 19.7087 270.315 19.9902 270.217 20.3223C270.12 20.651 270.071 21.0221 270.071 21.4355C270.071 21.9889 270.149 22.4658 270.305 22.8662C270.462 23.2633 270.699 23.5693 271.018 23.7842C271.337 23.9958 271.741 24.1016 272.229 24.1016C272.532 24.1016 272.826 24.0723 273.113 24.0137C273.399 23.9551 273.696 23.8753 274.002 23.7744V24.7705C273.712 24.8844 273.419 24.9674 273.123 25.0195C272.826 25.0716 272.485 25.0977 272.097 25.0977C271.368 25.0977 270.763 24.9463 270.281 24.6436C269.802 24.3408 269.444 23.9144 269.207 23.3643C268.972 22.8141 268.855 22.1696 268.855 21.4307C268.855 20.8903 268.93 20.3955 269.08 19.9463C269.229 19.4971 269.448 19.1097 269.734 18.7842C270.02 18.4554 270.374 18.2031 270.794 18.0273C271.217 17.8483 271.7 17.7588 272.244 17.7588C272.602 17.7588 272.953 17.7995 273.298 17.8809C273.647 17.959 273.969 18.0713 274.265 18.2178L273.855 19.1846C273.608 19.0674 273.349 18.9665 273.079 18.8818C272.809 18.7972 272.529 18.7549 272.239 18.7549ZM282.173 21.4209C282.173 21.971 282.103 22.4723 281.963 22.9248C281.826 23.374 281.619 23.7614 281.343 24.0869C281.066 24.4092 280.719 24.6582 280.303 24.834C279.886 25.0098 279.398 25.0977 278.838 25.0977C278.268 25.0977 277.773 25.0098 277.353 24.834C276.937 24.6582 276.59 24.4076 276.313 24.082C276.04 23.7565 275.835 23.3675 275.698 22.915C275.561 22.4626 275.493 21.9613 275.493 21.4111C275.493 20.6755 275.613 20.0342 275.854 19.4873C276.098 18.9372 276.468 18.5107 276.963 18.208C277.461 17.902 278.089 17.749 278.847 17.749C279.59 17.749 280.206 17.9004 280.698 18.2031C281.19 18.5059 281.557 18.9323 281.802 19.4824C282.049 20.0293 282.173 20.6755 282.173 21.4209ZM276.723 21.4209C276.723 21.971 276.798 22.4479 276.948 22.8516C277.098 23.252 277.327 23.5612 277.637 23.7793C277.949 23.9941 278.349 24.1016 278.838 24.1016C279.329 24.1016 279.73 23.9941 280.039 23.7793C280.348 23.5612 280.576 23.252 280.722 22.8516C280.869 22.4479 280.942 21.971 280.942 21.4209C280.942 20.5843 280.775 19.93 280.439 19.458C280.107 18.9827 279.577 18.7451 278.847 18.7451C278.359 18.7451 277.957 18.8525 277.641 19.0674C277.329 19.2822 277.098 19.5898 276.948 19.9902C276.798 20.3874 276.723 20.8643 276.723 21.4209ZM288.352 25H283.518V24.1357L285.368 22.2607C285.726 21.8962 286.021 21.582 286.252 21.3184C286.483 21.0514 286.654 20.7992 286.765 20.5615C286.879 20.3239 286.936 20.0651 286.936 19.7852C286.936 19.4401 286.836 19.1797 286.638 19.0039C286.439 18.8249 286.177 18.7354 285.852 18.7354C285.542 18.7354 285.256 18.7972 284.992 18.9209C284.732 19.0413 284.462 19.2139 284.182 19.4385L283.552 18.6816C283.75 18.5124 283.962 18.3577 284.187 18.2178C284.414 18.0778 284.668 17.9671 284.948 17.8857C285.228 17.8011 285.547 17.7588 285.905 17.7588C286.358 17.7588 286.748 17.8402 287.077 18.0029C287.406 18.1624 287.658 18.3854 287.834 18.6719C288.013 18.9583 288.103 19.292 288.103 19.6729C288.103 20.057 288.026 20.4118 287.873 20.7373C287.72 21.0628 287.502 21.3851 287.219 21.7041C286.936 22.0199 286.599 22.3633 286.208 22.7344L284.973 23.9404V23.9941H288.352V25Z" fill="#4B5563"/>
<path d="M188.434 92.2076C188.365 92.4751 188.526 92.7476 188.794 92.8163C189.061 92.885 189.334 92.7239 189.402 92.4564L188.434 92.2076ZM203.001 37.5V37H202.613L202.517 37.3756L203.001 37.5ZM286.334 37.5C286.334 38.9728 287.528 40.1667 289.001 40.1667C290.474 40.1667 291.668 38.9728 291.668 37.5C291.668 36.0272 290.474 34.8333 289.001 34.8333C287.528 34.8333 286.334 36.0272 286.334 37.5ZM189.402 92.4564L203.485 37.6244L202.517 37.3756L188.434 92.2076L189.402 92.4564ZM203.001 38H289.001V37H203.001V38Z" fill="white"/>
<defs>
<filter id="filter0_d_2030_81025" x="23.5" y="99.8327" width="70.416" height="70.417" filterUnits="userSpaceOnUse" color-interpolation-filters="sRGB">
<feFlood flood-opacity="0" result="BackgroundImageFix"/>
<feColorMatrix in="SourceAlpha" type="matrix" values="0 0 0 0 0 0 0 0 0 0 0 0 0 0 0 0 0 0 127 0" result="hardAlpha"/>
<feOffset dy="1.66667"/>
<feGaussianBlur stdDeviation="2.5"/>
<feComposite in2="hardAlpha" operator="out"/>
<feColorMatrix type="matrix" values="0 0 0 0 0 0 0 0 0 0 0 0 0 0 0 0 0 0 0.05 0"/>
<feBlend mode="normal" in2="BackgroundImageFix" result="effect1_dropShadow_2030_81025"/>
<feBlend mode="normal" in="SourceGraphic" in2="effect1_dropShadow_2030_81025" result="shape"/>
</filter>
<filter id="filter1_d_2030_81025" x="102.25" y="39.4167" width="70.416" height="70.417" filterUnits="userSpaceOnUse" color-interpolation-filters="sRGB">
<feFlood flood-opacity="0" result="BackgroundImageFix"/>
<feColorMatrix in="SourceAlpha" type="matrix" values="0 0 0 0 0 0 0 0 0 0 0 0 0 0 0 0 0 0 127 0" result="hardAlpha"/>
<feOffset dy="1.66667"/>
<feGaussianBlur stdDeviation="2.5"/>
<feComposite in2="hardAlpha" operator="out"/>
<feColorMatrix type="matrix" values="0 0 0 0 0 0 0 0 0 0 0 0 0 0 0 0 0 0 0.05 0"/>
<feBlend mode="normal" in2="BackgroundImageFix" result="effect1_dropShadow_2030_81025"/>
<feBlend mode="normal" in="SourceGraphic" in2="effect1_dropShadow_2030_81025" result="shape"/>
</filter>
<filter id="filter2_d_2030_81025" x="102.25" y="160.249" width="70.416" height="70.417" filterUnits="userSpaceOnUse" color-interpolation-filters="sRGB">
<feFlood flood-opacity="0" result="BackgroundImageFix"/>
<feColorMatrix in="SourceAlpha" type="matrix" values="0 0 0 0 0 0 0 0 0 0 0 0 0 0 0 0 0 0 127 0" result="hardAlpha"/>
<feOffset dy="1.66667"/>
<feGaussianBlur stdDeviation="2.5"/>
<feComposite in2="hardAlpha" operator="out"/>
<feColorMatrix type="matrix" values="0 0 0 0 0 0 0 0 0 0 0 0 0 0 0 0 0 0 0.05 0"/>
<feBlend mode="normal" in2="BackgroundImageFix" result="effect1_dropShadow_2030_81025"/>
<feBlend mode="normal" in="SourceGraphic" in2="effect1_dropShadow_2030_81025" result="shape"/>
</filter>
<filter id="filter3_d_2030_81025" x="181" y="99.8327" width="70.416" height="70.417" filterUnits="userSpaceOnUse" color-interpolation-filters="sRGB">
<feFlood flood-opacity="0" result="BackgroundImageFix"/>
<feColorMatrix in="SourceAlpha" type="matrix" values="0 0 0 0 0 0 0 0 0 0 0 0 0 0 0 0 0 0 127 0" result="hardAlpha"/>
<feOffset dy="1.66667"/>
<feGaussianBlur stdDeviation="2.5"/>
<feComposite in2="hardAlpha" operator="out"/>
<feColorMatrix type="matrix" values="0 0 0 0 0 0 0 0 0 0 0 0 0 0 0 0 0 0 0.05 0"/>
<feBlend mode="normal" in2="BackgroundImageFix" result="effect1_dropShadow_2030_81025"/>
<feBlend mode="normal" in="SourceGraphic" in2="effect1_dropShadow_2030_81025" result="shape"/>
</filter>
<linearGradient id="paint0_linear_2030_81025" x1="58.709" y1="117.208" x2="58.709" y2="137.208" gradientUnits="userSpaceOnUse">
<stop stop-color="#1CC7B6"/>
<stop offset="0.482292" stop-color="#3185D5"/>
<stop offset="1" stop-color="#6062DC"/>
</linearGradient>
<linearGradient id="paint1_linear_2030_81025" x1="126.215" y1="66.792" x2="147.871" y2="66.792" gradientUnits="userSpaceOnUse">
<stop stop-color="#365BE0"/>
<stop offset="0.508265" stop-color="#D676CF"/>
<stop offset="1" stop-color="#FFE884"/>
</linearGradient>
<linearGradient id="paint2_linear_2030_81025" x1="137.458" y1="180.124" x2="137.458" y2="195.233" gradientUnits="userSpaceOnUse">
<stop stop-color="#F5CB98"/>
<stop offset="0.513542" stop-color="#F89CB9"/>
<stop offset="1" stop-color="#D476D0"/>
</linearGradient>
</defs>
</svg>
