<svg width="113" height="91" viewBox="0 0 113 91" fill="none" xmlns="http://www.w3.org/2000/svg">
<path d="M103.416 33.1427H87.4613C82.1601 13.5689 64.6747 0 44.5301 0C19.9745 0 0 20.248 0 45.1356C0 70.0233 19.9745 90.2713 44.5301 90.2713C66.2622 90.2713 84.9184 74.148 88.4478 52.5573H103.419C108.7 52.5573 112.995 48.2022 112.995 42.8486C112.995 37.495 108.697 33.1399 103.419 33.1399L103.416 33.1427ZM103.416 49.6159H85.9305L85.7604 50.8903C82.9652 71.6646 65.2416 87.33 44.5301 87.33C21.579 87.33 2.90574 68.4018 2.90574 45.1356C2.90574 21.8695 21.5762 2.94419 44.5301 2.94419C63.7335 2.94419 80.3486 16.129 84.9383 35.0116L85.2416 36.2547L86.4975 36.1239C86.7214 36.1011 86.951 36.0897 87.1778 36.0897H103.419C107.098 36.0897 110.092 39.125 110.092 42.8543C110.092 46.5836 107.098 49.6188 103.419 49.6188L103.416 49.6159Z" fill="url(#paint0_radial_2028_74052)"/>
<path d="M45.129 9.35938C25.6336 9.35938 9.83203 25.3774 9.83203 45.1391C9.83203 64.9007 25.6364 80.9187 45.129 80.9187C64.6215 80.9187 80.4259 64.9007 80.4259 45.1391C80.4259 25.3774 64.6215 9.35938 45.129 9.35938ZM41.9936 16.4084C43.068 16.7127 43.8476 18.0753 44.7491 18.9657H44.7576C44.7576 18.9657 44.7633 18.9657 44.7661 18.9657C45.6676 18.0753 46.4472 16.7127 47.5216 16.4084C48.7094 16.0727 50.2175 19.0823 49.4436 20.7293C48.2813 23.207 46.7675 25.5368 45.1346 28.2932C45.0297 28.5378 44.9249 28.7825 44.82 29.0385C44.7973 29.0015 44.7774 28.9674 44.7548 28.9304C44.7321 28.9674 44.7122 29.0015 44.6896 29.0385C44.5847 28.7825 44.4798 28.5378 44.3749 28.2932C42.742 25.5368 41.2282 23.2042 40.0659 20.7293C39.292 19.0823 40.8001 16.0698 41.9879 16.4084H41.9936ZM40.3324 25.0788C41.9936 27.6987 43.5925 30.2162 45.0808 32.563C46.4954 30.0768 48.046 27.3573 49.8348 24.2168C52.6215 30.9358 45.8802 33.7207 45.0751 38.659C40.5308 34.1759 38.365 28.2278 40.3324 25.0816V25.0788ZM37.472 31.391C40.0914 35.8883 42.6683 40.3089 44.8852 44.1093C46.9886 39.8793 49.3983 35.0264 51.8249 30.145C54.0304 33.4846 53.7016 39.8964 51.0907 42.5874C49.146 44.5929 47.0368 46.4362 45.1261 48.2369C42.9008 46.2655 40.5677 44.2743 38.3224 42.1892C35.4451 39.5152 35.0737 34.9724 37.472 31.3938V31.391ZM39.5811 47.0791C42.1183 48.9082 43.4025 51.5224 43.8731 54.6031C42.2544 51.0587 39.7399 48.5754 35.737 47.6736C38.0248 50.1399 40.3154 52.6062 42.6031 55.0725C35.6038 51.8581 30.6938 47.0677 30.7108 38.659C32.3154 43.0198 36.2672 44.6924 39.5811 47.0819V47.0791ZM25.8434 44.8034C26.7023 46.1062 27.3487 47.0478 27.9553 48.015C30.2176 51.6305 33.523 53.5335 37.5825 54.5007C41.815 55.5106 44.1283 58.2641 44.5195 62.7899C43.1701 59.3309 40.6442 58.4007 37.9766 57.6099C35.4706 56.8674 32.9986 56.0027 30.3423 55.1351C31.8363 58.0024 34.3536 59.2342 37.1176 60.1985C38.7704 60.776 40.5847 61.2453 41.9171 62.2978C43.2494 63.3475 44.0687 65.0656 44.7604 66.8236C42.4812 63.3219 38.9036 62.551 35.3487 61.6151C27.4281 59.53 23.3175 52.4384 25.8462 44.8062L25.8434 44.8034ZM43.9667 75.5282C41.6364 74.0262 39.4479 72.2284 36.9787 71.0308C34.056 69.6142 30.7987 68.9116 27.8561 67.5291C22.1325 64.8381 18.7704 57.8403 20.3862 51.6703C20.4458 51.4484 20.6896 50.5638 21.0921 50.0915C22.4954 57.7208 27.7285 60.7589 34.3338 62.3206C37.832 63.1484 41.0127 64.7214 43.275 67.6998C43.9411 68.5759 44.3579 69.6483 44.3862 71.0337C43.8504 70.4562 43.4054 69.728 42.7618 69.324C40.4741 67.8932 38.4075 65.6744 35.7682 65.2648C32.4741 64.7527 28.3636 63.0858 25.455 60.9011C26.5861 62.8611 26.6598 63.2195 29.0496 65.5521C30.9943 67.4494 33.2112 67.2532 35.8221 68.044C39.6435 69.2017 43.2183 70.5842 44.7718 74.8C44.8852 75.1043 45.2877 75.2978 45.3132 76.0829C44.8625 75.9008 44.3721 75.787 43.9695 75.5282H43.9667ZM49.1601 46.5244C52.2076 43.5176 56.0262 41.1509 56.9957 36.3833C58.3394 45.0708 54.0219 50.8141 47.2976 55.2716C49.2735 52.353 51.2494 49.4316 53.2253 46.513C49.231 48.0946 47.0283 51.0673 45.9142 54.9928C45.9142 51.7357 46.8299 48.8228 49.1601 46.5244ZM52.7718 55.7467C48.9107 56.8618 49.2112 57.3624 46.9773 60.537C46.9234 60.5086 46.8667 60.483 46.8072 60.463C47.5358 58.9867 48.2473 57.4961 49.2877 56.2985C50.8327 54.5206 53.0354 53.3486 54.8129 51.7557C57.591 49.2666 60.253 46.6467 62.8384 44.2003C64.2643 47.0848 63.3316 52.7683 59.927 55.8291C57.4011 58.0992 54.2913 59.7121 51.4082 61.5639C49.798 62.5994 48.1566 63.5608 46.5662 64.5166C46.6484 63.8225 46.8299 63.1626 47.2948 62.5738C48.973 60.8499 49.9369 58.9184 51.7399 58.1589C53.7243 57.3226 56.0205 55.1152 57.5145 53.5591C57.3189 53.3771 54.9376 54.9957 52.7718 55.741V55.7467ZM69.9426 57.5615C68.9333 61.9138 65.9454 64.6788 62.209 66.6046C59.944 67.7709 57.4861 68.5674 55.0822 69.4435C52.5535 70.3652 49.9879 71.1844 46.7732 72.2711C51.5528 67.0427 59.2381 67.9473 63.377 62.4315C57.6619 64.8381 52.1793 67.1479 46.759 69.4321C47.1814 67.6685 48.6896 66.195 50.674 65.1908C53.1998 63.9136 55.8136 62.8127 58.3508 61.5554C63.5017 59.0066 67.0992 55.2403 67.5159 48.3336C70.3423 51.4285 70.6739 54.4011 69.9397 57.5644L69.9426 57.5615Z" fill="url(#paint1_radial_2028_74052)"/>
<defs>
<radialGradient id="paint0_radial_2028_74052" cx="0" cy="0" r="1" gradientUnits="userSpaceOnUse" gradientTransform="translate(-12.5 92.5) rotate(-35.2759) scale(165.364 1664.45)">
<stop offset="0.118164" stop-color="#B78BF8"/>
<stop offset="0.461458" stop-color="#5CD6CE"/>
<stop offset="0.937939" stop-color="#FAFF77"/>
</radialGradient>
<radialGradient id="paint1_radial_2028_74052" cx="0" cy="0" r="1" gradientUnits="userSpaceOnUse" gradientTransform="translate(2.02262 82.6854) rotate(-41.9109) scale(113.334 1202.75)">
<stop offset="0.118164" stop-color="#B78BF8"/>
<stop offset="0.461458" stop-color="#5CD6CE"/>
<stop offset="0.937939" stop-color="#FAFF77"/>
</radialGradient>
</defs>
</svg>
