<svg width="192" height="183" viewBox="0 0 192 183" fill="none" xmlns="http://www.w3.org/2000/svg">
<path d="M133.456 88H129.879V81.5752H133.456V82.2344H130.626V84.313H133.293V84.9634H130.626V87.3408H133.456V88ZM140.27 83.0957C140.8 83.0957 141.2 83.2349 141.469 83.5132C141.739 83.7886 141.874 84.2324 141.874 84.8447V88H141.153V84.8799C141.153 84.4902 141.068 84.1987 140.898 84.0054C140.731 83.8091 140.482 83.7109 140.151 83.7109C139.685 83.7109 139.347 83.8457 139.136 84.1152C138.925 84.3848 138.819 84.7817 138.819 85.3062V88H138.094V84.8799C138.094 84.6191 138.056 84.4023 137.98 84.2295C137.907 84.0566 137.795 83.9277 137.646 83.8428C137.499 83.7549 137.313 83.7109 137.088 83.7109C136.769 83.7109 136.512 83.7769 136.319 83.9087C136.125 84.0405 135.985 84.2368 135.897 84.4976C135.812 84.7554 135.77 85.0732 135.77 85.4512V88H135.04V83.1836H135.629L135.739 83.8647H135.778C135.875 83.6978 135.997 83.5571 136.143 83.4429C136.29 83.3286 136.454 83.2422 136.635 83.1836C136.817 83.125 137.01 83.0957 137.215 83.0957C137.582 83.0957 137.888 83.1646 138.134 83.3022C138.383 83.437 138.563 83.6436 138.674 83.9219H138.714C138.872 83.6436 139.089 83.437 139.364 83.3022C139.64 83.1646 139.941 83.0957 140.27 83.0957ZM144.372 83.1836V88H143.642V83.1836H144.372ZM144.016 81.3818C144.136 81.3818 144.238 81.4214 144.323 81.5005C144.411 81.5767 144.455 81.6968 144.455 81.8608C144.455 82.022 144.411 82.1421 144.323 82.2212C144.238 82.3003 144.136 82.3398 144.016 82.3398C143.89 82.3398 143.784 82.3003 143.699 82.2212C143.617 82.1421 143.576 82.022 143.576 81.8608C143.576 81.6968 143.617 81.5767 143.699 81.5005C143.784 81.4214 143.89 81.3818 144.016 81.3818ZM149.304 86.6816C149.304 86.9893 149.227 87.2485 149.071 87.4595C148.919 87.6675 148.699 87.8242 148.412 87.9297C148.128 88.0352 147.788 88.0879 147.393 88.0879C147.056 88.0879 146.764 88.0615 146.518 88.0088C146.272 87.9561 146.057 87.8813 145.872 87.7847V87.1123C146.068 87.209 146.303 87.2969 146.575 87.376C146.848 87.4551 147.126 87.4946 147.41 87.4946C147.826 87.4946 148.128 87.4272 148.315 87.2925C148.503 87.1577 148.597 86.9746 148.597 86.7432C148.597 86.6113 148.559 86.4956 148.482 86.396C148.409 86.2935 148.285 86.1953 148.109 86.1016C147.933 86.0049 147.69 85.8994 147.379 85.7852C147.072 85.668 146.805 85.5522 146.58 85.438C146.357 85.3208 146.184 85.1787 146.061 85.0117C145.941 84.8447 145.881 84.6279 145.881 84.3613C145.881 83.9541 146.045 83.6421 146.373 83.4253C146.704 83.2056 147.138 83.0957 147.674 83.0957C147.964 83.0957 148.235 83.125 148.487 83.1836C148.742 83.2393 148.979 83.3154 149.199 83.4121L148.953 83.9966C148.753 83.9116 148.541 83.8398 148.315 83.7812C148.09 83.7227 147.86 83.6934 147.625 83.6934C147.289 83.6934 147.029 83.749 146.848 83.8604C146.669 83.9717 146.58 84.124 146.58 84.3174C146.58 84.4668 146.621 84.5898 146.703 84.6865C146.788 84.7832 146.922 84.874 147.107 84.959C147.291 85.0439 147.535 85.1436 147.836 85.2578C148.138 85.3691 148.399 85.4849 148.619 85.605C148.838 85.7222 149.007 85.8657 149.124 86.0356C149.244 86.2026 149.304 86.418 149.304 86.6816ZM153.863 86.6816C153.863 86.9893 153.786 87.2485 153.63 87.4595C153.478 87.6675 153.258 87.8242 152.971 87.9297C152.687 88.0352 152.347 88.0879 151.952 88.0879C151.615 88.0879 151.323 88.0615 151.077 88.0088C150.831 87.9561 150.616 87.8813 150.431 87.7847V87.1123C150.627 87.209 150.862 87.2969 151.134 87.376C151.407 87.4551 151.685 87.4946 151.969 87.4946C152.385 87.4946 152.687 87.4272 152.874 87.2925C153.062 87.1577 153.156 86.9746 153.156 86.7432C153.156 86.6113 153.118 86.4956 153.041 86.396C152.968 86.2935 152.844 86.1953 152.668 86.1016C152.492 86.0049 152.249 85.8994 151.938 85.7852C151.631 85.668 151.364 85.5522 151.139 85.438C150.916 85.3208 150.743 85.1787 150.62 85.0117C150.5 84.8447 150.44 84.6279 150.44 84.3613C150.44 83.9541 150.604 83.6421 150.932 83.4253C151.263 83.2056 151.697 83.0957 152.233 83.0957C152.523 83.0957 152.794 83.125 153.046 83.1836C153.301 83.2393 153.538 83.3154 153.758 83.4121L153.512 83.9966C153.312 83.9116 153.1 83.8398 152.874 83.7812C152.649 83.7227 152.419 83.6934 152.184 83.6934C151.848 83.6934 151.588 83.749 151.407 83.8604C151.228 83.9717 151.139 84.124 151.139 84.3174C151.139 84.4668 151.18 84.5898 151.262 84.6865C151.347 84.7832 151.481 84.874 151.666 84.959C151.851 85.0439 152.094 85.1436 152.395 85.2578C152.697 85.3691 152.958 85.4849 153.178 85.605C153.397 85.7222 153.566 85.8657 153.683 86.0356C153.803 86.2026 153.863 86.418 153.863 86.6816ZM156.036 83.1836V88H155.307V83.1836H156.036ZM155.68 81.3818C155.8 81.3818 155.903 81.4214 155.988 81.5005C156.076 81.5767 156.12 81.6968 156.12 81.8608C156.12 82.022 156.076 82.1421 155.988 82.2212C155.903 82.3003 155.8 82.3398 155.68 82.3398C155.554 82.3398 155.449 82.3003 155.364 82.2212C155.282 82.1421 155.241 82.022 155.241 81.8608C155.241 81.6968 155.282 81.5767 155.364 81.5005C155.449 81.4214 155.554 81.3818 155.68 81.3818ZM162.006 85.583C162.006 85.9785 161.954 86.3315 161.852 86.6421C161.749 86.9526 161.601 87.2148 161.408 87.4287C161.215 87.6426 160.98 87.8066 160.705 87.9209C160.432 88.0322 160.123 88.0879 159.778 88.0879C159.455 88.0879 159.16 88.0322 158.89 87.9209C158.623 87.8066 158.392 87.6426 158.196 87.4287C158.002 87.2148 157.851 86.9526 157.743 86.6421C157.638 86.3315 157.585 85.9785 157.585 85.583C157.585 85.0557 157.674 84.6074 157.853 84.2383C158.032 83.8662 158.287 83.5835 158.618 83.3901C158.952 83.1938 159.349 83.0957 159.808 83.0957C160.248 83.0957 160.632 83.1938 160.96 83.3901C161.291 83.5864 161.547 83.8706 161.729 84.2427C161.913 84.6118 162.006 85.0586 162.006 85.583ZM158.341 85.583C158.341 85.9697 158.392 86.3052 158.495 86.5894C158.597 86.8735 158.755 87.0933 158.969 87.2485C159.183 87.4038 159.458 87.4814 159.795 87.4814C160.129 87.4814 160.403 87.4038 160.617 87.2485C160.834 87.0933 160.994 86.8735 161.096 86.5894C161.199 86.3052 161.25 85.9697 161.25 85.583C161.25 85.1992 161.199 84.8682 161.096 84.5898C160.994 84.3086 160.835 84.0918 160.621 83.9395C160.408 83.7871 160.131 83.7109 159.791 83.7109C159.29 83.7109 158.922 83.8765 158.688 84.2075C158.456 84.5386 158.341 84.9971 158.341 85.583ZM165.818 83.0957C166.389 83.0957 166.821 83.2363 167.114 83.5176C167.407 83.7959 167.554 84.2441 167.554 84.8623V88H166.833V84.9106C166.833 84.5093 166.741 84.209 166.556 84.0098C166.374 83.8105 166.095 83.7109 165.717 83.7109C165.183 83.7109 164.808 83.8618 164.592 84.1636C164.375 84.4653 164.266 84.9033 164.266 85.4775V88H163.537V83.1836H164.126L164.236 83.8779H164.275C164.378 83.708 164.508 83.5659 164.666 83.4517C164.825 83.3345 165.002 83.2466 165.198 83.188C165.394 83.1265 165.601 83.0957 165.818 83.0957Z" fill="#9CA3AF"/>
<path d="M36.4512 178.779C36.4512 179.274 36.3882 179.725 36.2622 180.132C36.1362 180.537 35.9487 180.885 35.6997 181.178C35.4536 181.468 35.1475 181.692 34.7812 181.851C34.415 182.009 33.9902 182.088 33.5068 182.088C33.0088 182.088 32.5737 182.009 32.2017 181.851C31.8325 181.692 31.5249 181.467 31.2788 181.174C31.0356 180.881 30.8525 180.531 30.7295 180.124C30.6094 179.716 30.5493 179.265 30.5493 178.77C30.5493 178.114 30.6577 177.538 30.8745 177.043C31.0913 176.548 31.4194 176.163 31.8589 175.887C32.3013 175.612 32.855 175.474 33.52 175.474C34.1558 175.474 34.6904 175.61 35.124 175.883C35.5605 176.155 35.8901 176.539 36.1128 177.034C36.3384 177.526 36.4512 178.108 36.4512 178.779ZM31.3359 178.779C31.3359 179.324 31.4136 179.795 31.5688 180.194C31.7241 180.592 31.9614 180.9 32.2808 181.117C32.603 181.333 33.0117 181.442 33.5068 181.442C34.0049 181.442 34.4121 181.333 34.7285 181.117C35.0479 180.9 35.2837 180.592 35.436 180.194C35.5884 179.795 35.6646 179.324 35.6646 178.779C35.6646 177.95 35.4902 177.302 35.1416 176.836C34.7959 176.368 34.2554 176.133 33.52 176.133C33.022 176.133 32.6118 176.24 32.2896 176.454C31.9673 176.668 31.7271 176.973 31.5688 177.368C31.4136 177.761 31.3359 178.231 31.3359 178.779ZM40.1885 177.755H38.9887V182H38.2593V177.755H37.4067V177.403L38.2593 177.162V176.841C38.2593 176.437 38.3193 176.108 38.4394 175.856C38.5596 175.602 38.7339 175.414 38.9624 175.294C39.1909 175.174 39.4692 175.114 39.7973 175.114C39.9819 175.114 40.1504 175.13 40.3027 175.162C40.458 175.194 40.5942 175.231 40.7114 175.272L40.5224 175.848C40.4228 175.815 40.31 175.786 40.1841 175.76C40.061 175.73 39.935 175.716 39.8061 175.716C39.5278 175.716 39.3213 175.807 39.1865 175.988C39.0547 176.167 38.9887 176.448 38.9887 176.832V177.184H40.1885V177.755ZM43.2163 177.755H42.0166V182H41.2871V177.755H40.4346V177.403L41.2871 177.162V176.841C41.2871 176.437 41.3471 176.108 41.4673 175.856C41.5874 175.602 41.7617 175.414 41.9902 175.294C42.2187 175.174 42.4971 175.114 42.8252 175.114C43.0097 175.114 43.1782 175.13 43.3305 175.162C43.4858 175.194 43.622 175.231 43.7392 175.272L43.5503 175.848C43.4507 175.815 43.3379 175.786 43.2119 175.76C43.0888 175.73 42.9629 175.716 42.834 175.716C42.5556 175.716 42.3491 175.807 42.2143 175.988C42.0825 176.167 42.0166 176.448 42.0166 176.832V177.184H43.2163V177.755ZM47.4853 180.682C47.4853 180.989 47.4077 181.249 47.2524 181.459C47.1001 181.667 46.8803 181.824 46.5932 181.93C46.309 182.035 45.9692 182.088 45.5737 182.088C45.2368 182.088 44.9453 182.062 44.6992 182.009C44.4531 181.956 44.2378 181.881 44.0532 181.785V181.112C44.2495 181.209 44.4838 181.297 44.7563 181.376C45.0288 181.455 45.3071 181.495 45.5913 181.495C46.0073 181.495 46.309 181.427 46.4965 181.292C46.684 181.158 46.7778 180.975 46.7778 180.743C46.7778 180.611 46.7397 180.496 46.6635 180.396C46.5903 180.293 46.4658 180.195 46.29 180.102C46.1142 180.005 45.8711 179.899 45.5605 179.785C45.2529 179.668 44.9863 179.552 44.7607 179.438C44.538 179.321 44.3652 179.179 44.2421 179.012C44.122 178.845 44.062 178.628 44.062 178.361C44.062 177.954 44.226 177.642 44.5542 177.425C44.8852 177.206 45.3188 177.096 45.8549 177.096C46.145 177.096 46.416 177.125 46.6679 177.184C46.9228 177.239 47.1601 177.315 47.3798 177.412L47.1337 177.997C46.9345 177.912 46.7221 177.84 46.4965 177.781C46.271 177.723 46.041 177.693 45.8066 177.693C45.4697 177.693 45.2104 177.749 45.0288 177.86C44.8501 177.972 44.7607 178.124 44.7607 178.317C44.7607 178.467 44.8017 178.59 44.8837 178.687C44.9687 178.783 45.1035 178.874 45.288 178.959C45.4726 179.044 45.7158 179.144 46.0175 179.258C46.3193 179.369 46.58 179.485 46.7998 179.605C47.0195 179.722 47.1879 179.866 47.3051 180.036C47.4253 180.203 47.4853 180.418 47.4853 180.682ZM50.7831 177.096C51.1933 177.096 51.5449 177.187 51.8378 177.368C52.1308 177.55 52.3549 177.805 52.5102 178.133C52.6655 178.458 52.7431 178.839 52.7431 179.275V179.728H49.4164C49.4252 180.293 49.5659 180.724 49.8383 181.02C50.1108 181.316 50.4946 181.464 50.9897 181.464C51.2944 181.464 51.5639 181.436 51.7983 181.38C52.0327 181.325 52.2758 181.243 52.5278 181.134V181.776C52.2846 181.884 52.0429 181.963 51.8027 182.013C51.5654 182.063 51.2841 182.088 50.9589 182.088C50.496 182.088 50.0917 181.994 49.746 181.807C49.4033 181.616 49.1367 181.338 48.9462 180.972C48.7558 180.605 48.6606 180.157 48.6606 179.627C48.6606 179.108 48.747 178.66 48.9199 178.282C49.0956 177.901 49.3417 177.608 49.6581 177.403C49.9775 177.198 50.3525 177.096 50.7831 177.096ZM50.7744 177.693C50.3847 177.693 50.0742 177.821 49.8427 178.076C49.6113 178.331 49.4736 178.687 49.4296 179.144H51.9785C51.9755 178.856 51.9301 178.604 51.8422 178.388C51.7573 178.168 51.6269 177.998 51.4511 177.878C51.2753 177.755 51.0497 177.693 50.7744 177.693ZM55.808 181.49C55.9281 181.49 56.0512 181.48 56.1772 181.459C56.3031 181.439 56.4057 181.414 56.4848 181.385V181.952C56.3998 181.99 56.2812 182.022 56.1288 182.048C55.9794 182.075 55.8329 182.088 55.6894 182.088C55.4345 182.088 55.203 182.044 54.995 181.956C54.787 181.865 54.62 181.713 54.4941 181.499C54.371 181.285 54.3095 180.989 54.3095 180.611V177.755H53.6239V177.399L54.3139 177.113L54.6039 176.067H55.0434V177.184H56.454V177.755H55.0434V180.589C55.0434 180.891 55.1122 181.117 55.2499 181.266C55.3905 181.416 55.5766 181.49 55.808 181.49Z" fill="#9CA3AF"/>
<path d="M107.558 175.575C108.387 175.575 108.992 175.738 109.373 176.063C109.756 176.385 109.948 176.848 109.948 177.452C109.948 177.724 109.903 177.983 109.812 178.229C109.724 178.473 109.581 178.688 109.381 178.875C109.182 179.06 108.92 179.207 108.595 179.315C108.272 179.42 107.877 179.473 107.408 179.473H106.626V182H105.879V175.575H107.558ZM107.487 176.212H106.626V178.832H107.325C107.735 178.832 108.076 178.788 108.349 178.7C108.624 178.612 108.831 178.47 108.968 178.273C109.106 178.074 109.175 177.811 109.175 177.482C109.175 177.055 109.039 176.737 108.766 176.529C108.494 176.318 108.067 176.212 107.487 176.212ZM113.642 177.096C113.738 177.096 113.839 177.102 113.945 177.113C114.05 177.122 114.144 177.135 114.226 177.153L114.134 177.83C114.055 177.809 113.967 177.793 113.87 177.781C113.773 177.77 113.683 177.764 113.598 177.764C113.404 177.764 113.221 177.803 113.048 177.882C112.878 177.958 112.729 178.07 112.6 178.216C112.471 178.36 112.37 178.534 112.297 178.739C112.224 178.941 112.187 179.167 112.187 179.416V182H111.453V177.184H112.06L112.139 178.071H112.169C112.269 177.893 112.389 177.73 112.53 177.583C112.67 177.434 112.833 177.315 113.018 177.228C113.205 177.14 113.413 177.096 113.642 177.096ZM117.26 177.096C117.67 177.096 118.022 177.187 118.315 177.368C118.608 177.55 118.832 177.805 118.987 178.133C119.143 178.458 119.22 178.839 119.22 179.275V179.728H115.894C115.902 180.293 116.043 180.724 116.315 181.02C116.588 181.316 116.972 181.464 117.467 181.464C117.771 181.464 118.041 181.436 118.275 181.38C118.51 181.325 118.753 181.243 119.005 181.134V181.776C118.762 181.884 118.52 181.963 118.28 182.013C118.042 182.063 117.761 182.088 117.436 182.088C116.973 182.088 116.569 181.994 116.223 181.807C115.88 181.616 115.614 181.338 115.423 180.972C115.233 180.605 115.138 180.157 115.138 179.627C115.138 179.108 115.224 178.66 115.397 178.282C115.573 177.901 115.819 177.608 116.135 177.403C116.455 177.198 116.83 177.096 117.26 177.096ZM117.251 177.693C116.862 177.693 116.551 177.821 116.32 178.076C116.088 178.331 115.951 178.687 115.907 179.144H118.456C118.453 178.856 118.407 178.604 118.319 178.388C118.234 178.168 118.104 177.998 117.928 177.878C117.752 177.755 117.527 177.693 117.251 177.693ZM123.845 180.682C123.845 180.989 123.768 181.249 123.612 181.459C123.46 181.667 123.24 181.824 122.953 181.93C122.669 182.035 122.329 182.088 121.934 182.088C121.597 182.088 121.305 182.062 121.059 182.009C120.813 181.956 120.598 181.881 120.413 181.785V181.112C120.609 181.209 120.844 181.297 121.116 181.376C121.389 181.455 121.667 181.495 121.951 181.495C122.367 181.495 122.669 181.427 122.856 181.292C123.044 181.158 123.138 180.975 123.138 180.743C123.138 180.611 123.1 180.496 123.023 180.396C122.95 180.293 122.826 180.195 122.65 180.102C122.474 180.005 122.231 179.899 121.92 179.785C121.613 179.668 121.346 179.552 121.121 179.438C120.898 179.321 120.725 179.179 120.602 179.012C120.482 178.845 120.422 178.628 120.422 178.361C120.422 177.954 120.586 177.642 120.914 177.425C121.245 177.206 121.679 177.096 122.215 177.096C122.505 177.096 122.776 177.125 123.028 177.184C123.283 177.239 123.52 177.315 123.74 177.412L123.494 177.997C123.294 177.912 123.082 177.84 122.856 177.781C122.631 177.723 122.401 177.693 122.166 177.693C121.83 177.693 121.57 177.749 121.389 177.86C121.21 177.972 121.121 178.124 121.121 178.317C121.121 178.467 121.162 178.59 121.244 178.687C121.329 178.783 121.463 178.874 121.648 178.959C121.832 179.044 122.076 179.144 122.377 179.258C122.679 179.369 122.94 179.485 123.16 179.605C123.379 179.722 123.548 179.866 123.665 180.036C123.785 180.203 123.845 180.418 123.845 180.682ZM128.404 180.682C128.404 180.989 128.327 181.249 128.171 181.459C128.019 181.667 127.799 181.824 127.512 181.93C127.228 182.035 126.888 182.088 126.493 182.088C126.156 182.088 125.864 182.062 125.618 182.009C125.372 181.956 125.157 181.881 124.972 181.785V181.112C125.168 181.209 125.403 181.297 125.675 181.376C125.948 181.455 126.226 181.495 126.51 181.495C126.926 181.495 127.228 181.427 127.415 181.292C127.603 181.158 127.697 180.975 127.697 180.743C127.697 180.611 127.659 180.496 127.582 180.396C127.509 180.293 127.385 180.195 127.209 180.102C127.033 180.005 126.79 179.899 126.479 179.785C126.172 179.668 125.905 179.552 125.68 179.438C125.457 179.321 125.284 179.179 125.161 179.012C125.041 178.845 124.981 178.628 124.981 178.361C124.981 177.954 125.145 177.642 125.473 177.425C125.804 177.206 126.238 177.096 126.774 177.096C127.064 177.096 127.335 177.125 127.587 177.184C127.842 177.239 128.079 177.315 128.299 177.412L128.053 177.997C127.853 177.912 127.641 177.84 127.415 177.781C127.19 177.723 126.96 177.693 126.726 177.693C126.389 177.693 126.129 177.749 125.948 177.86C125.769 177.972 125.68 178.124 125.68 178.317C125.68 178.467 125.721 178.59 125.803 178.687C125.888 178.783 126.022 178.874 126.207 178.959C126.392 179.044 126.635 179.144 126.936 179.258C127.238 179.369 127.499 179.485 127.719 179.605C127.938 179.722 128.107 179.866 128.224 180.036C128.344 180.203 128.404 180.418 128.404 180.682ZM133.825 177.184V182H133.227L133.121 181.323H133.082C132.982 181.49 132.853 181.631 132.695 181.745C132.537 181.859 132.358 181.944 132.159 182C131.963 182.059 131.753 182.088 131.531 182.088C131.15 182.088 130.83 182.026 130.573 181.903C130.315 181.78 130.12 181.59 129.988 181.332C129.859 181.074 129.795 180.743 129.795 180.339V177.184H130.533V180.286C130.533 180.687 130.624 180.988 130.806 181.187C130.987 181.383 131.264 181.481 131.636 181.481C131.994 181.481 132.278 181.414 132.489 181.279C132.703 181.145 132.856 180.947 132.95 180.686C133.044 180.422 133.091 180.1 133.091 179.719V177.184H133.825ZM137.826 177.096C137.922 177.096 138.023 177.102 138.129 177.113C138.234 177.122 138.328 177.135 138.41 177.153L138.318 177.83C138.239 177.809 138.151 177.793 138.054 177.781C137.957 177.77 137.867 177.764 137.782 177.764C137.588 177.764 137.405 177.803 137.232 177.882C137.062 177.958 136.913 178.07 136.784 178.216C136.655 178.36 136.554 178.534 136.481 178.739C136.408 178.941 136.371 179.167 136.371 179.416V182H135.637V177.184H136.244L136.323 178.071H136.353C136.453 177.893 136.573 177.73 136.714 177.583C136.854 177.434 137.017 177.315 137.202 177.228C137.389 177.14 137.597 177.096 137.826 177.096ZM141.444 177.096C141.854 177.096 142.206 177.187 142.499 177.368C142.792 177.55 143.016 177.805 143.171 178.133C143.327 178.458 143.404 178.839 143.404 179.275V179.728H140.077C140.086 180.293 140.227 180.724 140.499 181.02C140.772 181.316 141.156 181.464 141.651 181.464C141.955 181.464 142.225 181.436 142.459 181.38C142.694 181.325 142.937 181.243 143.189 181.134V181.776C142.946 181.884 142.704 181.963 142.464 182.013C142.226 182.063 141.945 182.088 141.62 182.088C141.157 182.088 140.753 181.994 140.407 181.807C140.064 181.616 139.798 181.338 139.607 180.972C139.417 180.605 139.322 180.157 139.322 179.627C139.322 179.108 139.408 178.66 139.581 178.282C139.757 177.901 140.003 177.608 140.319 177.403C140.639 177.198 141.014 177.096 141.444 177.096ZM141.435 177.693C141.046 177.693 140.735 177.821 140.504 178.076C140.272 178.331 140.135 178.687 140.091 179.144H142.64C142.637 178.856 142.591 178.604 142.503 178.388C142.418 178.168 142.288 177.998 142.112 177.878C141.936 177.755 141.711 177.693 141.435 177.693ZM151.674 179.583C151.674 179.979 151.623 180.332 151.52 180.642C151.418 180.953 151.27 181.215 151.076 181.429C150.883 181.643 150.649 181.807 150.373 181.921C150.101 182.032 149.792 182.088 149.446 182.088C149.124 182.088 148.828 182.032 148.558 181.921C148.292 181.807 148.06 181.643 147.864 181.429C147.671 181.215 147.52 180.953 147.411 180.642C147.306 180.332 147.253 179.979 147.253 179.583C147.253 179.056 147.343 178.607 147.521 178.238C147.7 177.866 147.955 177.583 148.286 177.39C148.62 177.194 149.017 177.096 149.477 177.096C149.916 177.096 150.3 177.194 150.628 177.39C150.959 177.586 151.216 177.871 151.397 178.243C151.582 178.612 151.674 179.059 151.674 179.583ZM148.009 179.583C148.009 179.97 148.06 180.305 148.163 180.589C148.265 180.874 148.424 181.093 148.638 181.249C148.851 181.404 149.127 181.481 149.464 181.481C149.798 181.481 150.072 181.404 150.285 181.249C150.502 181.093 150.662 180.874 150.764 180.589C150.867 180.305 150.918 179.97 150.918 179.583C150.918 179.199 150.867 178.868 150.764 178.59C150.662 178.309 150.504 178.092 150.29 177.939C150.076 177.787 149.799 177.711 149.459 177.711C148.958 177.711 148.591 177.876 148.356 178.208C148.125 178.539 148.009 178.997 148.009 179.583ZM155.486 177.096C156.057 177.096 156.49 177.236 156.783 177.518C157.075 177.796 157.222 178.244 157.222 178.862V182H156.501V178.911C156.501 178.509 156.409 178.209 156.224 178.01C156.043 177.811 155.763 177.711 155.385 177.711C154.852 177.711 154.477 177.862 154.26 178.164C154.043 178.465 153.935 178.903 153.935 179.478V182H153.205V177.184H153.794L153.904 177.878H153.944C154.046 177.708 154.177 177.566 154.335 177.452C154.493 177.334 154.67 177.247 154.867 177.188C155.063 177.126 155.269 177.096 155.486 177.096ZM163.884 177.096C164.455 177.096 164.887 177.236 165.18 177.518C165.473 177.796 165.619 178.244 165.619 178.862V182H164.899V178.911C164.899 178.509 164.806 178.209 164.622 178.01C164.44 177.811 164.16 177.711 163.782 177.711C163.249 177.711 162.874 177.862 162.657 178.164C162.441 178.465 162.332 178.903 162.332 179.478V182H161.603V177.184H162.192L162.302 177.878H162.341C162.444 177.708 162.574 177.566 162.732 177.452C162.89 177.334 163.068 177.247 163.264 177.188C163.46 177.126 163.667 177.096 163.884 177.096ZM169.194 177.104C169.768 177.104 170.195 177.233 170.473 177.491C170.751 177.749 170.89 178.161 170.89 178.726V182H170.359L170.218 181.288H170.183C170.048 181.464 169.907 181.612 169.761 181.732C169.614 181.849 169.445 181.938 169.251 182C169.061 182.059 168.826 182.088 168.548 182.088C168.255 182.088 167.994 182.037 167.766 181.934C167.54 181.832 167.362 181.676 167.23 181.468C167.101 181.26 167.036 180.997 167.036 180.677C167.036 180.197 167.227 179.828 167.608 179.57C167.989 179.312 168.569 179.171 169.348 179.148L170.178 179.113V178.818C170.178 178.402 170.089 178.111 169.91 177.944C169.732 177.777 169.48 177.693 169.155 177.693C168.903 177.693 168.662 177.73 168.434 177.803C168.205 177.876 167.989 177.963 167.783 178.062L167.559 177.509C167.776 177.397 168.025 177.302 168.306 177.223C168.588 177.144 168.884 177.104 169.194 177.104ZM170.17 179.627L169.436 179.658C168.835 179.681 168.412 179.779 168.166 179.952C167.92 180.125 167.797 180.37 167.797 180.686C167.797 180.961 167.88 181.165 168.047 181.297C168.214 181.429 168.435 181.495 168.711 181.495C169.138 181.495 169.489 181.376 169.761 181.139C170.033 180.901 170.17 180.545 170.17 180.071V179.627ZM174.219 181.49C174.339 181.49 174.462 181.48 174.588 181.459C174.714 181.439 174.817 181.414 174.896 181.385V181.952C174.811 181.99 174.692 182.022 174.54 182.048C174.39 182.075 174.244 182.088 174.1 182.088C173.845 182.088 173.614 182.044 173.406 181.956C173.198 181.865 173.031 181.713 172.905 181.499C172.782 181.285 172.72 180.989 172.72 180.611V177.755H172.035V177.399L172.725 177.113L173.015 176.067H173.454V177.184H174.865V177.755H173.454V180.589C173.454 180.891 173.523 181.117 173.661 181.266C173.801 181.416 173.988 181.49 174.219 181.49ZM180.118 177.184V182H179.521L179.415 181.323H179.376C179.276 181.49 179.147 181.631 178.989 181.745C178.831 181.859 178.652 181.944 178.453 182C178.257 182.059 178.047 182.088 177.824 182.088C177.444 182.088 177.124 182.026 176.866 181.903C176.609 181.78 176.414 181.59 176.282 181.332C176.153 181.074 176.089 180.743 176.089 180.339V177.184H176.827V180.286C176.827 180.687 176.918 180.988 177.099 181.187C177.281 181.383 177.558 181.481 177.93 181.481C178.287 181.481 178.571 181.414 178.782 181.279C178.996 181.145 179.15 180.947 179.244 180.686C179.338 180.422 179.384 180.1 179.384 179.719V177.184H180.118ZM184.119 177.096C184.216 177.096 184.317 177.102 184.423 177.113C184.528 177.122 184.622 177.135 184.704 177.153L184.611 177.83C184.532 177.809 184.445 177.793 184.348 177.781C184.251 177.77 184.16 177.764 184.075 177.764C183.882 177.764 183.699 177.803 183.526 177.882C183.356 177.958 183.207 178.07 183.078 178.216C182.949 178.36 182.848 178.534 182.775 178.739C182.701 178.941 182.665 179.167 182.665 179.416V182H181.931V177.184H182.537L182.616 178.071H182.647C182.747 177.893 182.867 177.73 183.007 177.583C183.148 177.434 183.311 177.315 183.495 177.228C183.683 177.14 183.891 177.096 184.119 177.096ZM187.738 177.096C188.148 177.096 188.5 177.187 188.793 177.368C189.086 177.55 189.31 177.805 189.465 178.133C189.62 178.458 189.698 178.839 189.698 179.275V179.728H186.371C186.38 180.293 186.521 180.724 186.793 181.02C187.066 181.316 187.449 181.464 187.944 181.464C188.249 181.464 188.519 181.436 188.753 181.38C188.987 181.325 189.231 181.243 189.483 181.134V181.776C189.239 181.884 188.998 181.963 188.757 182.013C188.52 182.063 188.239 182.088 187.914 182.088C187.451 182.088 187.047 181.994 186.701 181.807C186.358 181.616 186.091 181.338 185.901 180.972C185.711 180.605 185.615 180.157 185.615 179.627C185.615 179.108 185.702 178.66 185.875 178.282C186.05 177.901 186.297 177.608 186.613 177.403C186.932 177.198 187.307 177.096 187.738 177.096ZM187.729 177.693C187.34 177.693 187.029 177.821 186.798 178.076C186.566 178.331 186.428 178.687 186.384 179.144H188.933C188.93 178.856 188.885 178.604 188.797 178.388C188.712 178.168 188.582 177.998 188.406 177.878C188.23 177.755 188.005 177.693 187.729 177.693Z" fill="#9CA3AF"/>
<g filter="url(#filter0_d_2566_82474)">
<rect x="9" y="5.50586" width="68" height="68" rx="34" fill="white" shape-rendering="crispEdges"/>
<path fill-rule="evenodd" clip-rule="evenodd" d="M42.4367 18.9915C41.2033 19.2625 40.3287 20.3639 40.3305 21.6438C40.3317 22.4267 40.5707 23.0196 41.1045 23.5637C42.3339 24.8171 44.3218 24.6013 45.2727 23.1112C45.5501 22.6765 45.6742 22.2326 45.6727 21.681C45.6712 21.1293 45.6134 20.8614 45.4014 20.422C45.0625 19.7194 44.3343 19.1582 43.5415 18.9885C43.1043 18.895 42.8729 18.8956 42.4367 18.9915ZM40.3498 26.1562C39.2094 26.3332 38.2744 27.2426 38.0729 28.3707C38.0372 28.5705 38.0176 29.8603 38.0176 32.0096C38.0176 35.6035 38.0134 35.5451 38.2898 35.8502C38.4418 36.0179 38.7729 36.1674 38.9959 36.1688C39.2442 36.1704 39.598 35.9765 39.7874 35.735L39.9445 35.5347L39.958 32.9712C39.9655 31.5614 39.9829 30.3566 39.9967 30.294C40.0275 30.1544 40.1872 30.0957 40.328 30.1722C40.4324 30.2289 40.4327 30.2437 40.4327 36.4863C40.4327 42.0254 40.4418 42.7659 40.5125 42.9375C40.8332 43.7167 41.867 43.8995 42.4468 43.2796C42.7518 42.9536 42.745 43.0377 42.745 39.5388C42.745 36.6947 42.7541 36.3246 42.8257 36.2519C42.9238 36.1524 43.0724 36.1458 43.1476 36.2377C43.1855 36.2841 43.2077 37.3156 43.2181 39.5099C43.233 42.6789 43.2344 42.7165 43.3441 42.9228C43.4721 43.1636 43.6805 43.3732 43.9012 43.483C44.4532 43.7578 45.1587 43.5169 45.4517 42.9537L45.5712 42.7239V36.5088C45.5712 30.5539 45.5752 30.2901 45.6652 30.2074C45.7761 30.1055 45.8866 30.0969 45.972 30.1836C46.0183 30.2306 46.0337 30.8671 46.034 32.7257C46.0341 34.2259 46.0546 35.2798 46.0859 35.3939C46.1672 35.6912 46.3491 35.9253 46.5974 36.0526C47.0911 36.3057 47.6495 36.0972 47.8892 35.5703C47.9783 35.3743 47.9841 35.157 47.9844 31.9722C47.9848 28.2667 47.9823 28.2297 47.6832 27.6285C47.3749 27.0088 46.7612 26.4785 46.0888 26.2506C45.761 26.1395 45.6758 26.1359 43.1818 26.1258C41.7687 26.1201 40.4943 26.1338 40.3498 26.1562Z" fill="#9498FF"/>
<path d="M37.7756 55.541L39.1311 52.9355H40.1428L38.2444 56.4277V58.6465H37.3108V56.4629L35.4084 52.9355H36.428L37.7756 55.541ZM44.8672 56.4746C44.8672 56.834 44.8203 57.153 44.7266 57.4316C44.6328 57.7103 44.4961 57.946 44.3164 58.1387C44.1367 58.3288 43.9206 58.4746 43.668 58.5762C43.4154 58.6751 43.1302 58.7246 42.8125 58.7246C42.5156 58.7246 42.2435 58.6751 41.9961 58.5762C41.7487 58.4746 41.5339 58.3288 41.3516 58.1387C41.1719 57.946 41.0326 57.7103 40.9336 57.4316C40.8346 57.153 40.7852 56.834 40.7852 56.4746C40.7852 55.998 40.8672 55.5944 41.0312 55.2637C41.1979 54.9303 41.4349 54.6764 41.7422 54.502C42.0495 54.3275 42.4154 54.2402 42.8398 54.2402C43.2383 54.2402 43.5898 54.3275 43.8945 54.502C44.1992 54.6764 44.4375 54.9303 44.6094 55.2637C44.7812 55.597 44.8672 56.0007 44.8672 56.4746ZM41.7305 56.4746C41.7305 56.7897 41.7682 57.0592 41.8438 57.2832C41.9219 57.5072 42.0417 57.679 42.2031 57.7988C42.3646 57.916 42.5729 57.9746 42.8281 57.9746C43.0833 57.9746 43.2917 57.916 43.4531 57.7988C43.6146 57.679 43.7331 57.5072 43.8086 57.2832C43.8841 57.0592 43.9219 56.7897 43.9219 56.4746C43.9219 56.1595 43.8841 55.8926 43.8086 55.6738C43.7331 55.4525 43.6146 55.2845 43.4531 55.1699C43.2917 55.0527 43.082 54.9941 42.8242 54.9941C42.444 54.9941 42.1667 55.1217 41.9922 55.377C41.8177 55.6322 41.7305 55.998 41.7305 56.4746ZM49.9314 54.3223V58.6465H49.2087L49.0837 58.0645H49.033C48.9418 58.2129 48.8259 58.3366 48.6853 58.4355C48.5447 58.5319 48.3884 58.6035 48.2166 58.6504C48.0447 58.6999 47.8637 58.7246 47.6736 58.7246C47.3481 58.7246 47.0694 58.6699 46.8377 58.5605C46.6085 58.4486 46.4327 58.2767 46.3103 58.0449C46.1879 57.8132 46.1267 57.5137 46.1267 57.1465V54.3223H47.0486V56.9746C47.0486 57.3105 47.1163 57.5618 47.2517 57.7285C47.3897 57.8952 47.6033 57.9785 47.8923 57.9785C48.171 57.9785 48.3923 57.9212 48.5564 57.8066C48.7205 57.6921 48.8364 57.5228 48.9041 57.2988C48.9744 57.0749 49.0095 56.8001 49.0095 56.4746V54.3223H49.9314Z" fill="#374151"/>
</g>
<path d="M102.665 41.9129C103.34 41.4331 105.189 40.7717 105.563 40.0577C105.215 39.9428 104.536 40.1538 104.168 40.1954C103.583 40.2578 102.999 40.3056 102.416 40.359C101.385 40.4511 100.354 40.5267 99.32 40.5542C97.722 40.598 96.1167 40.5291 94.53 40.5224C92.7403 40.5138 90.9577 40.3936 89.1735 40.3395C88.0986 40.3066 87.0259 40.2924 85.951 40.2595C85.3503 40.2398 83.7047 40.4268 83.2735 39.873C82.8308 39.3054 83.4512 39.2366 83.9015 39.2091C84.8294 39.1509 85.7593 39.159 86.6902 39.1322C88.6338 39.0762 90.5768 39.0275 92.5191 38.942C94.4323 38.8577 96.3626 38.7859 98.2761 38.7661C100.117 38.7476 102.341 38.858 104.125 38.3678C103.941 38.0329 103.07 37.7666 102.711 37.5662C102.15 37.2536 101.578 36.9366 101.038 36.5853C100.657 36.3353 100.046 35.9267 100.247 35.3584C100.392 34.9547 100.992 34.8494 101.354 34.925C102.341 35.129 103.447 36.1352 104.349 36.6026C105.422 37.1575 106.502 37.6964 107.59 38.2047C108.269 38.5213 109.046 39.0962 108.444 39.8982C107.959 40.5407 106.598 41.0434 105.905 41.4096C104.96 41.9114 103.98 42.3074 103.018 42.7765C101.797 43.3698 101.978 42.6896 102.664 41.9146C102.79 41.8257 102.45 42.1527 102.664 41.9146L102.665 41.9129Z" fill="#D1D5DB"/>
<g filter="url(#filter1_d_2566_82474)">
<rect x="115" y="5.50586" width="68" height="68" rx="34" fill="white" shape-rendering="crispEdges"/>
<path d="M140.16 44.2061H144.654V28.4774H140.16V44.2061Z" fill="#EC88E0"/>
<path d="M146.901 44.2061H151.395V23.9834H146.901V44.2061Z" fill="#EC88E0"/>
<path d="M153.642 44.2061H158.136V18.3661H153.642V44.2061Z" fill="#EC88E0"/>
<path d="M128.195 55.4785H129.757V56.1738H128.195V57.752H127.499V56.1738H125.941V55.4785H127.499V53.8848H128.195V55.4785ZM135.76 58.6465H134.839V54.9707C134.839 54.8483 134.84 54.7259 134.842 54.6035C134.845 54.4811 134.848 54.3613 134.85 54.2441C134.856 54.127 134.862 54.015 134.87 53.9082C134.815 53.9681 134.747 54.0332 134.667 54.1035C134.589 54.1738 134.505 54.2467 134.417 54.3223L133.76 54.8457L133.3 54.2637L134.995 52.9355H135.76V58.6465ZM142.104 57.9824C142.224 57.9824 142.342 57.972 142.459 57.9512C142.576 57.9277 142.683 57.9004 142.78 57.8691V58.5645C142.678 58.6087 142.546 58.6465 142.385 58.6777C142.224 58.709 142.056 58.7246 141.881 58.7246C141.636 58.7246 141.416 58.6842 141.221 58.6035C141.026 58.5202 140.871 58.3783 140.756 58.1777C140.642 57.9772 140.584 57.6999 140.584 57.3457V55.0215H139.994V54.6113L140.627 54.2871L140.928 53.3613H141.506V54.3223H142.744V55.0215H141.506V57.334C141.506 57.5527 141.561 57.7155 141.67 57.8223C141.78 57.929 141.924 57.9824 142.104 57.9824ZM147.727 56.4746C147.727 56.834 147.68 57.153 147.586 57.4316C147.492 57.7103 147.355 57.946 147.176 58.1387C146.996 58.3288 146.78 58.4746 146.527 58.5762C146.275 58.6751 145.99 58.7246 145.672 58.7246C145.375 58.7246 145.103 58.6751 144.855 58.5762C144.608 58.4746 144.393 58.3288 144.211 58.1387C144.031 57.946 143.892 57.7103 143.793 57.4316C143.694 57.153 143.645 56.834 143.645 56.4746C143.645 55.998 143.727 55.5944 143.891 55.2637C144.057 54.9303 144.294 54.6764 144.602 54.502C144.909 54.3275 145.275 54.2402 145.699 54.2402C146.098 54.2402 146.449 54.3275 146.754 54.502C147.059 54.6764 147.297 54.9303 147.469 55.2637C147.641 55.597 147.727 56.0007 147.727 56.4746ZM144.59 56.4746C144.59 56.7897 144.628 57.0592 144.703 57.2832C144.781 57.5072 144.901 57.679 145.062 57.7988C145.224 57.916 145.432 57.9746 145.688 57.9746C145.943 57.9746 146.151 57.916 146.312 57.7988C146.474 57.679 146.592 57.5072 146.668 57.2832C146.743 57.0592 146.781 56.7897 146.781 56.4746C146.781 56.1595 146.743 55.8926 146.668 55.6738C146.592 55.4525 146.474 55.2845 146.312 55.1699C146.151 55.0527 145.941 54.9941 145.684 54.9941C145.303 54.9941 145.026 55.1217 144.852 55.377C144.677 55.6322 144.59 55.998 144.59 56.4746ZM151.275 54.2402C151.762 54.2402 152.141 54.3665 152.412 54.6191C152.685 54.8691 152.822 55.2715 152.822 55.8262V58.6465H151.904V55.998C151.904 55.6621 151.835 55.4108 151.697 55.2441C151.559 55.0749 151.345 54.9902 151.056 54.9902C150.637 54.9902 150.345 55.1191 150.181 55.377C150.02 55.6348 149.939 56.0085 149.939 56.498V58.6465H149.021V54.3223H149.736L149.865 54.9082H149.916C150.01 54.7572 150.125 54.6335 150.263 54.5371C150.404 54.4382 150.56 54.3639 150.732 54.3145C150.907 54.265 151.088 54.2402 151.275 54.2402ZM159.193 53.6504C158.919 53.6504 158.674 53.6999 158.458 53.7988C158.245 53.8978 158.064 54.041 157.915 54.2285C157.767 54.4134 157.654 54.6387 157.575 54.9043C157.497 55.1673 157.458 55.4642 157.458 55.7949C157.458 56.2376 157.521 56.6191 157.646 56.9395C157.771 57.2572 157.961 57.502 158.216 57.6738C158.471 57.8431 158.794 57.9277 159.185 57.9277C159.427 57.9277 159.663 57.9043 159.892 57.8574C160.121 57.8105 160.358 57.7467 160.603 57.666V58.4629C160.371 58.554 160.137 58.6204 159.9 58.6621C159.663 58.7038 159.389 58.7246 159.079 58.7246C158.496 58.7246 158.012 58.6035 157.626 58.3613C157.243 58.1191 156.957 57.778 156.767 57.3379C156.579 56.8978 156.486 56.3822 156.486 55.791C156.486 55.3587 156.546 54.9629 156.665 54.6035C156.785 54.2441 156.96 53.9342 157.189 53.6738C157.418 53.4108 157.7 53.209 158.036 53.0684C158.375 52.9251 158.762 52.8535 159.197 52.8535C159.483 52.8535 159.764 52.8861 160.04 52.9512C160.319 53.0137 160.577 53.1035 160.814 53.2207L160.486 53.9941C160.288 53.9004 160.081 53.8197 159.865 53.752C159.648 53.6842 159.424 53.6504 159.193 53.6504ZM167.14 55.7832C167.14 56.2233 167.084 56.6243 166.972 56.9863C166.862 57.3457 166.697 57.6556 166.476 57.916C166.254 58.1738 165.977 58.373 165.644 58.5137C165.31 58.6543 164.92 58.7246 164.472 58.7246C164.016 58.7246 163.62 58.6543 163.284 58.5137C162.951 58.373 162.674 58.1725 162.452 57.9121C162.233 57.6517 162.069 57.3405 161.96 56.9785C161.851 56.6165 161.796 56.2155 161.796 55.7754C161.796 55.1868 161.892 54.6738 162.085 54.2363C162.28 53.7962 162.576 53.4551 162.972 53.2129C163.37 52.9681 163.873 52.8457 164.48 52.8457C165.073 52.8457 165.567 52.9668 165.96 53.209C166.353 53.4512 166.647 53.7923 166.843 54.2324C167.041 54.6699 167.14 55.1868 167.14 55.7832ZM162.78 55.7832C162.78 56.2233 162.84 56.6048 162.96 56.9277C163.08 57.248 163.263 57.4954 163.511 57.6699C163.761 57.8418 164.081 57.9277 164.472 57.9277C164.865 57.9277 165.185 57.8418 165.433 57.6699C165.68 57.4954 165.862 57.248 165.98 56.9277C166.097 56.6048 166.155 56.2233 166.155 55.7832C166.155 55.1139 166.021 54.5905 165.753 54.2129C165.487 53.8327 165.063 53.6426 164.48 53.6426C164.089 53.6426 163.767 53.7285 163.515 53.9004C163.265 54.0723 163.08 54.3184 162.96 54.6387C162.84 54.9564 162.78 55.3379 162.78 55.7832ZM172.083 58.6465H168.216V57.9551L169.696 56.4551C169.983 56.1634 170.218 55.9121 170.403 55.7012C170.588 55.4876 170.725 55.2858 170.813 55.0957C170.904 54.9056 170.95 54.6986 170.95 54.4746C170.95 54.1986 170.871 53.9902 170.712 53.8496C170.553 53.7064 170.343 53.6348 170.083 53.6348C169.835 53.6348 169.606 53.6842 169.395 53.7832C169.187 53.8796 168.971 54.0176 168.747 54.1973L168.243 53.5918C168.402 53.4564 168.571 53.3327 168.751 53.2207C168.933 53.1087 169.136 53.0202 169.36 52.9551C169.584 52.8874 169.839 52.8535 170.126 52.8535C170.488 52.8535 170.8 52.9186 171.063 53.0488C171.326 53.1764 171.528 53.3548 171.669 53.584C171.812 53.8132 171.884 54.0801 171.884 54.3848C171.884 54.6921 171.822 54.9759 171.7 55.2363C171.578 55.4967 171.403 55.7546 171.177 56.0098C170.95 56.2624 170.68 56.5371 170.368 56.834L169.38 57.7988V57.8418H172.083V58.6465Z" fill="#EB46B3"/>
</g>
<path d="M84.3451 91.4685C84.069 92.1344 83.0082 93.4778 83.0642 94.1767C83.3758 94.0998 83.7803 93.6298 84.0335 93.4287C84.4381 93.1114 84.8487 92.8054 85.2557 92.4959C85.9761 91.9505 86.7047 91.417 87.4582 90.9173C88.6217 90.1443 89.8433 89.4509 91.0221 88.7203C92.3521 87.897 94.1204 86.6996 95.4677 85.9123C95.4677 85.9123 103.418 80.5987 104.229 80.1246C104.684 79.8607 110.126 76.307 110.704 76.5146C111.297 76.727 110.869 77.0651 110.548 77.2941C109.888 77.7671 104.885 80.8454 104.208 81.2966C102.794 82.2388 94.649 87.9876 93.2498 88.9509C91.8716 89.8997 90.4749 90.8473 89.0664 91.7489C87.7111 92.6158 86.0116 93.5657 84.9186 94.7533C85.2111 94.9145 85.9809 94.7065 86.3409 94.6873C86.9024 94.6572 87.4739 94.6256 88.0379 94.6338C88.4368 94.6411 89.0806 94.6583 89.1967 95.1697C89.278 95.5337 88.8829 95.8892 88.5792 96.0015C87.7528 96.3089 86.4634 96.0814 85.5766 96.1558C84.5224 96.2451 83.4707 96.3492 82.4274 96.4795C81.7768 96.5611 80.9322 96.4987 81.0043 95.6293C81.0635 94.9319 81.8369 93.9313 82.1795 93.3407C82.6455 92.5333 83.187 91.7876 83.6811 90.9963C84.3088 89.9939 84.4921 90.5783 84.3458 91.4663C84.3925 91.1924 84.2933 91.5905 84.3458 91.4663L84.3451 91.4685Z" fill="#D1D5DB"/>
<g filter="url(#filter2_d_2566_82474)">
<rect x="9" y="99.5059" width="68" height="68" rx="34" fill="white" shape-rendering="crispEdges"/>
<path d="M34.5002 133.105H38.2402V137.865H34.5002V133.105ZM41.1302 133.105H44.8702V137.865H41.1302V133.105ZM47.7602 133.105H51.5002V137.865H47.7602V133.105Z" fill="#9CA3AF" stroke="#9CA3AF" stroke-width="0.68"/>
<path d="M27.3603 149.787C27.3603 150.248 27.3239 150.661 27.2509 151.025C27.1806 151.387 27.0686 151.695 26.915 151.947C26.7614 152.2 26.5608 152.393 26.3134 152.525C26.066 152.658 25.7666 152.725 25.415 152.725C24.9749 152.725 24.6116 152.609 24.3252 152.377C24.0387 152.143 23.8265 151.807 23.6884 151.369C23.5504 150.929 23.4814 150.402 23.4814 149.787C23.4814 149.173 23.5439 148.646 23.6689 148.209C23.7965 147.769 24.0022 147.432 24.2861 147.197C24.5699 146.963 24.9463 146.846 25.415 146.846C25.8577 146.846 26.2223 146.963 26.5088 147.197C26.7978 147.429 27.0114 147.765 27.1494 148.205C27.29 148.643 27.3603 149.17 27.3603 149.787ZM24.4072 149.787C24.4072 150.269 24.4384 150.671 24.5009 150.994C24.566 151.317 24.6728 151.559 24.8213 151.721C24.9697 151.88 25.1676 151.959 25.415 151.959C25.6624 151.959 25.8603 151.88 26.0088 151.721C26.1572 151.562 26.264 151.321 26.3291 150.998C26.3968 150.675 26.4306 150.271 26.4306 149.787C26.4306 149.308 26.3981 148.907 26.333 148.584C26.2679 148.261 26.1611 148.019 26.0127 147.857C25.8642 147.693 25.665 147.611 25.415 147.611C25.165 147.611 24.9658 147.693 24.8173 147.857C24.6715 148.019 24.566 148.261 24.5009 148.584C24.4384 148.907 24.4072 149.308 24.4072 149.787ZM32.5356 151.982C32.6554 151.982 32.7739 151.972 32.8911 151.951C33.0083 151.928 33.1151 151.9 33.2114 151.869V152.564C33.1098 152.609 32.9783 152.646 32.8169 152.678C32.6554 152.709 32.4874 152.725 32.313 152.725C32.0682 152.725 31.8481 152.684 31.6528 152.604C31.4575 152.52 31.3026 152.378 31.188 152.178C31.0734 151.977 31.0161 151.7 31.0161 151.346V149.021H30.4263V148.611L31.0591 148.287L31.3598 147.361H31.938V148.322H33.1763V149.021H31.938V151.334C31.938 151.553 31.9927 151.715 32.102 151.822C32.2114 151.929 32.3559 151.982 32.5356 151.982ZM38.1584 150.475C38.1584 150.834 38.1116 151.153 38.0178 151.432C37.9241 151.71 37.7873 151.946 37.6077 152.139C37.428 152.329 37.2118 152.475 36.9592 152.576C36.7066 152.675 36.4215 152.725 36.1038 152.725C35.8069 152.725 35.5347 152.675 35.2873 152.576C35.0399 152.475 34.8251 152.329 34.6428 152.139C34.4631 151.946 34.3238 151.71 34.2248 151.432C34.1259 151.153 34.0764 150.834 34.0764 150.475C34.0764 149.998 34.1584 149.594 34.3225 149.264C34.4892 148.93 34.7261 148.676 35.0334 148.502C35.3407 148.327 35.7066 148.24 36.1311 148.24C36.5295 148.24 36.8811 148.327 37.1858 148.502C37.4905 148.676 37.7288 148.93 37.9006 149.264C38.0725 149.597 38.1584 150.001 38.1584 150.475ZM35.0217 150.475C35.0217 150.79 35.0595 151.059 35.135 151.283C35.2131 151.507 35.3329 151.679 35.4944 151.799C35.6558 151.916 35.8642 151.975 36.1194 151.975C36.3746 151.975 36.5829 151.916 36.7444 151.799C36.9058 151.679 37.0243 151.507 37.0998 151.283C37.1754 151.059 37.2131 150.79 37.2131 150.475C37.2131 150.16 37.1754 149.893 37.0998 149.674C37.0243 149.452 36.9058 149.285 36.7444 149.17C36.5829 149.053 36.3733 148.994 36.1155 148.994C35.7353 148.994 35.4579 149.122 35.2834 149.377C35.109 149.632 35.0217 149.998 35.0217 150.475ZM41.707 148.24C42.194 148.24 42.5729 148.367 42.8438 148.619C43.1172 148.869 43.2539 149.271 43.2539 149.826V152.646H42.3359V149.998C42.3359 149.662 42.2669 149.411 42.1289 149.244C41.9909 149.075 41.7773 148.99 41.4883 148.99C41.069 148.99 40.7773 149.119 40.6133 149.377C40.4518 149.635 40.3711 150.008 40.3711 150.498V152.646H39.4531V148.322H40.168L40.2969 148.908H40.3477C40.4414 148.757 40.5573 148.633 40.6953 148.537C40.8359 148.438 40.9922 148.364 41.1641 148.314C41.3385 148.265 41.5195 148.24 41.707 148.24ZM49.6245 147.65C49.3511 147.65 49.1063 147.7 48.8902 147.799C48.6766 147.898 48.4956 148.041 48.3472 148.229C48.1988 148.413 48.0855 148.639 48.0073 148.904C47.9292 149.167 47.8902 149.464 47.8902 149.795C47.8902 150.238 47.9527 150.619 48.0777 150.939C48.2027 151.257 48.3928 151.502 48.648 151.674C48.9032 151.843 49.2261 151.928 49.6167 151.928C49.8589 151.928 50.0946 151.904 50.3238 151.857C50.5529 151.811 50.7899 151.747 51.0347 151.666V152.463C50.8029 152.554 50.5685 152.62 50.3316 152.662C50.0946 152.704 49.8211 152.725 49.5113 152.725C48.9279 152.725 48.4435 152.604 48.0581 152.361C47.6753 152.119 47.3889 151.778 47.1988 151.338C47.0113 150.898 46.9175 150.382 46.9175 149.791C46.9175 149.359 46.9774 148.963 47.0972 148.604C47.217 148.244 47.3915 147.934 47.6206 147.674C47.8498 147.411 48.1323 147.209 48.4683 147.068C48.8068 146.925 49.1935 146.854 49.6284 146.854C49.9149 146.854 50.1961 146.886 50.4722 146.951C50.7508 147.014 51.0086 147.104 51.2456 147.221L50.9175 147.994C50.7196 147.9 50.5126 147.82 50.2964 147.752C50.0803 147.684 49.8563 147.65 49.6245 147.65ZM57.5716 149.783C57.5716 150.223 57.5156 150.624 57.4036 150.986C57.2942 151.346 57.1289 151.656 56.9075 151.916C56.6861 152.174 56.4088 152.373 56.0755 152.514C55.7421 152.654 55.3515 152.725 54.9036 152.725C54.4479 152.725 54.052 152.654 53.7161 152.514C53.3828 152.373 53.1054 152.173 52.8841 151.912C52.6653 151.652 52.5013 151.34 52.3919 150.979C52.2825 150.617 52.2278 150.215 52.2278 149.775C52.2278 149.187 52.3242 148.674 52.5169 148.236C52.7122 147.796 53.0078 147.455 53.4036 147.213C53.802 146.968 54.3046 146.846 54.9114 146.846C55.5052 146.846 55.9986 146.967 56.3919 147.209C56.7851 147.451 57.0794 147.792 57.2747 148.232C57.4726 148.67 57.5716 149.187 57.5716 149.783ZM53.2122 149.783C53.2122 150.223 53.2721 150.605 53.3919 150.928C53.5117 151.248 53.6953 151.495 53.9427 151.67C54.1927 151.842 54.513 151.928 54.9036 151.928C55.2968 151.928 55.6171 151.842 55.8645 151.67C56.1119 151.495 56.2942 151.248 56.4114 150.928C56.5286 150.605 56.5872 150.223 56.5872 149.783C56.5872 149.114 56.4531 148.59 56.1848 148.213C55.9192 147.833 55.4947 147.643 54.9114 147.643C54.5208 147.643 54.1992 147.729 53.9466 147.9C53.6966 148.072 53.5117 148.318 53.3919 148.639C53.2721 148.956 53.2122 149.338 53.2122 149.783ZM62.5147 152.646H58.6475V151.955L60.128 150.455C60.4144 150.163 60.6501 149.912 60.835 149.701C61.0199 149.488 61.1566 149.286 61.2452 149.096C61.3363 148.906 61.3819 148.699 61.3819 148.475C61.3819 148.199 61.3024 147.99 61.1436 147.85C60.9847 147.706 60.7751 147.635 60.5147 147.635C60.2673 147.635 60.0381 147.684 59.8272 147.783C59.6189 147.88 59.4027 148.018 59.1787 148.197L58.6748 147.592C58.8337 147.456 59.003 147.333 59.1827 147.221C59.3649 147.109 59.5681 147.02 59.792 146.955C60.016 146.887 60.2712 146.854 60.5577 146.854C60.9196 146.854 61.2321 146.919 61.4952 147.049C61.7582 147.176 61.96 147.355 62.1006 147.584C62.2439 147.813 62.3155 148.08 62.3155 148.385C62.3155 148.692 62.2543 148.976 62.1319 149.236C62.0095 149.497 61.835 149.755 61.6084 150.01C61.3819 150.262 61.1123 150.537 60.7998 150.834L59.8116 151.799V151.842H62.5147V152.646Z" fill="#6B7280"/>
</g>
<path d="M102.665 135.913C103.34 135.433 105.189 134.772 105.563 134.058C105.215 133.943 104.536 134.154 104.168 134.195C103.583 134.258 102.999 134.306 102.416 134.359C101.385 134.451 100.354 134.527 99.32 134.554C97.722 134.598 96.1167 134.529 94.53 134.522C92.7403 134.514 90.9577 134.394 89.1735 134.339C88.0986 134.307 87.0259 134.292 85.951 134.26C85.3503 134.24 83.7047 134.427 83.2735 133.873C82.8308 133.305 83.4512 133.237 83.9015 133.209C84.8294 133.151 85.7593 133.159 86.6902 133.132C88.6338 133.076 90.5768 133.028 92.5191 132.942C94.4323 132.858 96.3626 132.786 98.2761 132.766C100.117 132.748 102.341 132.858 104.125 132.368C103.941 132.033 103.07 131.767 102.711 131.566C102.15 131.254 101.578 130.937 101.038 130.585C100.657 130.335 100.046 129.927 100.247 129.358C100.392 128.955 100.992 128.849 101.354 128.925C102.341 129.129 103.447 130.135 104.349 130.603C105.422 131.158 106.502 131.696 107.59 132.205C108.269 132.521 109.046 133.096 108.444 133.898C107.959 134.541 106.598 135.043 105.905 135.41C104.96 135.911 103.98 136.307 103.018 136.777C101.797 137.37 101.978 136.69 102.664 135.915C102.79 135.826 102.45 136.153 102.664 135.915L102.665 135.913Z" fill="#D1D5DB"/>
<g filter="url(#filter3_d_2566_82474)">
<rect x="115" y="99.5059" width="68" height="68" rx="34" fill="white" shape-rendering="crispEdges"/>
<path fill-rule="evenodd" clip-rule="evenodd" d="M145.844 112.42C145.364 112.567 144.97 112.866 144.654 113.324C144.349 113.767 144.217 113.807 143.768 113.595C143.504 113.471 143.292 113.422 142.934 113.401C142.257 113.361 141.862 113.516 141.364 114.014C141.045 114.333 140.975 114.444 140.864 114.81C140.793 115.044 140.69 115.275 140.634 115.325C140.579 115.374 140.358 115.458 140.143 115.512C139.383 115.705 138.788 116.195 138.451 116.909C137.842 118.199 138.394 119.732 139.688 120.344C140.104 120.54 140.225 120.674 140.295 121.011C140.473 121.873 141.184 122.491 142.156 122.628C142.768 122.715 142.784 122.745 142.784 123.81V124.674H148.956L148.975 123.798C148.995 122.923 148.995 122.922 149.163 122.777C149.277 122.68 149.405 122.633 149.559 122.633C149.683 122.633 149.917 122.593 150.078 122.545C150.239 122.496 150.429 122.471 150.501 122.489C150.573 122.508 150.784 122.694 150.969 122.903C151.411 123.405 151.809 123.605 152.437 123.64C152.802 123.661 152.962 123.64 153.225 123.54C153.724 123.349 153.787 123.366 154.205 123.795C154.62 124.223 154.961 124.439 155.441 124.579C156.373 124.851 157.495 124.505 158.108 123.757C158.554 123.212 158.777 122.439 158.677 121.78C158.539 120.867 158.539 120.861 158.705 120.73C158.816 120.643 158.987 120.599 159.306 120.575C159.88 120.531 160.321 120.326 160.693 119.927C161.119 119.471 161.236 119.169 161.235 118.519C161.234 117.833 161.091 117.483 160.63 117.047C160.128 116.572 159.868 116.477 159.063 116.477C158.169 116.477 158.176 116.484 158.176 115.589C158.176 114.976 158.161 114.886 158.011 114.579C157.787 114.123 157.307 113.679 156.854 113.509C156.096 113.224 155.23 113.427 154.635 114.028C154.212 114.457 154.151 114.464 153.552 114.16C153.086 113.924 153.011 113.904 152.581 113.904C152.245 113.904 152.023 113.941 151.785 114.035C151.603 114.107 151.399 114.165 151.33 114.165C151.262 114.165 151.051 114.045 150.862 113.898C150.673 113.751 150.365 113.573 150.177 113.502C149.829 113.372 149.514 113.367 148.652 113.48L148.369 113.516L147.932 113.069C147.588 112.717 147.42 112.593 147.147 112.492C146.791 112.36 146.155 112.325 145.844 112.42ZM143.778 116.055C143.941 116.104 144.173 116.225 144.294 116.325C144.757 116.709 144.979 117.52 144.702 117.817C144.412 118.128 143.864 117.895 143.864 117.462C143.864 117.2 143.629 116.987 143.342 116.99C142.841 116.994 142.784 117.152 142.784 118.541C142.784 119.68 142.784 119.681 142.939 119.866C143.064 120.015 143.14 120.05 143.332 120.05C143.623 120.05 143.864 119.841 143.864 119.586C143.864 119.226 144.192 118.983 144.523 119.098C144.749 119.177 144.824 119.309 144.824 119.628C144.824 120.127 144.526 120.592 144.036 120.86C143.284 121.27 142.353 120.964 141.961 120.177C141.87 119.992 141.851 119.764 141.835 118.639C141.822 117.766 141.839 117.237 141.884 117.078C142.026 116.585 142.367 116.239 142.897 116.05C143.185 115.947 143.42 115.948 143.778 116.055ZM147.861 116.056C148.241 116.168 148.615 116.488 148.794 116.853C148.924 117.116 148.936 117.227 148.955 118.281C148.967 118.945 148.948 119.575 148.91 119.783C148.793 120.419 148.335 120.889 147.704 121.021C147.074 121.152 146.389 120.811 146.065 120.205C145.941 119.973 145.934 119.885 145.934 118.519C145.934 116.928 145.942 116.886 146.346 116.457C146.757 116.021 147.278 115.882 147.861 116.056ZM152.195 116.143C152.87 116.491 153.165 117.209 152.96 118.009C152.824 118.54 152.586 118.883 151.924 119.505L151.357 120.037L152.057 120.059C152.736 120.081 152.761 120.086 152.901 120.25C153.095 120.476 153.084 120.681 152.866 120.899L152.687 121.078L151.488 121.06C150.352 121.042 150.281 121.034 150.159 120.912C149.998 120.751 149.991 120.335 150.143 120.004C150.2 119.88 150.6 119.431 151.039 118.999C151.89 118.162 152.029 117.962 152.045 117.553C152.053 117.343 152.024 117.26 151.9 117.135C151.622 116.857 151.11 116.974 151.031 117.334C150.946 117.719 150.898 117.803 150.711 117.899C150.556 117.978 150.476 117.985 150.333 117.936C149.82 117.756 149.986 116.773 150.611 116.296C151.053 115.958 151.713 115.894 152.195 116.143ZM147.307 116.974C147.237 116.985 147.115 117.062 147.037 117.146C146.897 117.295 146.894 117.316 146.894 118.519C146.894 119.729 146.896 119.742 147.04 119.895C147.238 120.107 147.59 120.11 147.797 119.903C147.944 119.756 147.944 119.751 147.944 118.535C147.944 117.553 147.927 117.29 147.855 117.187C147.755 117.043 147.497 116.943 147.307 116.974Z" fill="#EC88E0"/>
<path d="M140.436 130.578C139.829 133.038 138.788 135.508 137.505 137.552C137.329 137.833 137.527 138.206 137.859 138.206L153.93 138.199C154.26 138.199 154.458 137.829 154.283 137.549C152.524 134.737 151.369 131.545 150.849 128.057C150.818 127.853 150.644 127.7 150.438 127.7H141.456C141.25 127.7 141.076 127.853 141.042 128.057C140.906 128.864 140.714 129.45 140.436 130.578Z" fill="#EC88E0"/>
<path d="M141.773 126.137C141.773 126.024 141.865 125.931 141.979 125.931H149.627C149.74 125.931 149.833 126.024 149.833 126.137V126.511C149.833 126.625 149.74 126.718 149.627 126.718H141.979C141.865 126.718 141.773 126.625 141.773 126.511V126.137Z" fill="#EC88E0"/>
<path d="M128.195 149.478H129.757V150.173H128.195V151.751H127.499V150.173H125.941V149.478H127.499V147.884H128.195V149.478ZM135.76 152.646H134.839V148.97C134.839 148.847 134.84 148.725 134.842 148.603C134.845 148.48 134.848 148.36 134.85 148.243C134.856 148.126 134.862 148.014 134.87 147.907C134.815 147.967 134.747 148.032 134.667 148.103C134.589 148.173 134.505 148.246 134.417 148.321L133.76 148.845L133.3 148.263L134.995 146.935H135.76V152.646ZM142.104 151.981C142.224 151.981 142.342 151.971 142.459 151.95C142.576 151.927 142.683 151.899 142.78 151.868V152.563C142.678 152.608 142.546 152.646 142.385 152.677C142.224 152.708 142.056 152.724 141.881 152.724C141.636 152.724 141.416 152.683 141.221 152.603C141.026 152.519 140.871 152.377 140.756 152.177C140.642 151.976 140.584 151.699 140.584 151.345V149.021H139.994V148.61L140.627 148.286L140.928 147.36H141.506V148.321H142.744V149.021H141.506V151.333C141.506 151.552 141.561 151.715 141.67 151.821C141.78 151.928 141.924 151.981 142.104 151.981ZM147.727 150.474C147.727 150.833 147.68 151.152 147.586 151.431C147.492 151.709 147.355 151.945 147.176 152.138C146.996 152.328 146.78 152.474 146.527 152.575C146.275 152.674 145.99 152.724 145.672 152.724C145.375 152.724 145.103 152.674 144.855 152.575C144.608 152.474 144.393 152.328 144.211 152.138C144.031 151.945 143.892 151.709 143.793 151.431C143.694 151.152 143.645 150.833 143.645 150.474C143.645 149.997 143.727 149.593 143.891 149.263C144.057 148.929 144.294 148.675 144.602 148.501C144.909 148.326 145.275 148.239 145.699 148.239C146.098 148.239 146.449 148.326 146.754 148.501C147.059 148.675 147.297 148.929 147.469 149.263C147.641 149.596 147.727 150 147.727 150.474ZM144.59 150.474C144.59 150.789 144.628 151.058 144.703 151.282C144.781 151.506 144.901 151.678 145.062 151.798C145.224 151.915 145.432 151.974 145.688 151.974C145.943 151.974 146.151 151.915 146.312 151.798C146.474 151.678 146.592 151.506 146.668 151.282C146.743 151.058 146.781 150.789 146.781 150.474C146.781 150.159 146.743 149.892 146.668 149.673C146.592 149.451 146.474 149.284 146.312 149.169C146.151 149.052 145.941 148.993 145.684 148.993C145.303 148.993 145.026 149.121 144.852 149.376C144.677 149.631 144.59 149.997 144.59 150.474ZM151.275 148.239C151.762 148.239 152.141 148.366 152.412 148.618C152.685 148.868 152.822 149.271 152.822 149.825V152.646H151.904V149.997C151.904 149.661 151.835 149.41 151.697 149.243C151.559 149.074 151.345 148.989 151.056 148.989C150.637 148.989 150.345 149.118 150.181 149.376C150.02 149.634 149.939 150.007 149.939 150.497V152.646H149.021V148.321H149.736L149.865 148.907H149.916C150.01 148.756 150.125 148.632 150.263 148.536C150.404 148.437 150.56 148.363 150.732 148.313C150.907 148.264 151.088 148.239 151.275 148.239ZM159.193 147.649C158.919 147.649 158.674 147.699 158.458 147.798C158.245 147.897 158.064 148.04 157.915 148.228C157.767 148.412 157.654 148.638 157.575 148.903C157.497 149.166 157.458 149.463 157.458 149.794C157.458 150.237 157.521 150.618 157.646 150.938C157.771 151.256 157.961 151.501 158.216 151.673C158.471 151.842 158.794 151.927 159.185 151.927C159.427 151.927 159.663 151.903 159.892 151.856C160.121 151.81 160.358 151.746 160.603 151.665V152.462C160.371 152.553 160.137 152.619 159.9 152.661C159.663 152.703 159.389 152.724 159.079 152.724C158.496 152.724 158.012 152.603 157.626 152.36C157.243 152.118 156.957 151.777 156.767 151.337C156.579 150.897 156.486 150.381 156.486 149.79C156.486 149.358 156.546 148.962 156.665 148.603C156.785 148.243 156.96 147.933 157.189 147.673C157.418 147.41 157.7 147.208 158.036 147.067C158.375 146.924 158.762 146.853 159.197 146.853C159.483 146.853 159.764 146.885 160.04 146.95C160.319 147.013 160.577 147.103 160.814 147.22L160.486 147.993C160.288 147.899 160.081 147.819 159.865 147.751C159.648 147.683 159.424 147.649 159.193 147.649ZM167.14 149.782C167.14 150.222 167.084 150.623 166.972 150.985C166.862 151.345 166.697 151.655 166.476 151.915C166.254 152.173 165.977 152.372 165.644 152.513C165.31 152.653 164.92 152.724 164.472 152.724C164.016 152.724 163.62 152.653 163.284 152.513C162.951 152.372 162.674 152.172 162.452 151.911C162.233 151.651 162.069 151.34 161.96 150.978C161.851 150.616 161.796 150.215 161.796 149.774C161.796 149.186 161.892 148.673 162.085 148.235C162.28 147.795 162.576 147.454 162.972 147.212C163.37 146.967 163.873 146.845 164.48 146.845C165.073 146.845 165.567 146.966 165.96 147.208C166.353 147.45 166.647 147.791 166.843 148.231C167.041 148.669 167.14 149.186 167.14 149.782ZM162.78 149.782C162.78 150.222 162.84 150.604 162.96 150.927C163.08 151.247 163.263 151.494 163.511 151.669C163.761 151.841 164.081 151.927 164.472 151.927C164.865 151.927 165.185 151.841 165.433 151.669C165.68 151.494 165.862 151.247 165.98 150.927C166.097 150.604 166.155 150.222 166.155 149.782C166.155 149.113 166.021 148.59 165.753 148.212C165.487 147.832 165.063 147.642 164.48 147.642C164.089 147.642 163.767 147.728 163.515 147.899C163.265 148.071 163.08 148.317 162.96 148.638C162.84 148.955 162.78 149.337 162.78 149.782ZM172.083 152.646H168.216V151.954L169.696 150.454C169.983 150.162 170.218 149.911 170.403 149.7C170.588 149.487 170.725 149.285 170.813 149.095C170.904 148.905 170.95 148.698 170.95 148.474C170.95 148.198 170.871 147.989 170.712 147.849C170.553 147.705 170.343 147.634 170.083 147.634C169.835 147.634 169.606 147.683 169.395 147.782C169.187 147.879 168.971 148.017 168.747 148.196L168.243 147.591C168.402 147.455 168.571 147.332 168.751 147.22C168.933 147.108 169.136 147.019 169.36 146.954C169.584 146.886 169.839 146.853 170.126 146.853C170.488 146.853 170.8 146.918 171.063 147.048C171.326 147.175 171.528 147.354 171.669 147.583C171.812 147.812 171.884 148.079 171.884 148.384C171.884 148.691 171.822 148.975 171.7 149.235C171.578 149.496 171.403 149.754 171.177 150.009C170.95 150.261 170.68 150.536 170.368 150.833L169.38 151.798V151.841H172.083V152.646Z" fill="#EB46B3"/>
</g>
<defs>
<filter id="filter0_d_2566_82474" x="0.84" y="0.0658596" width="84.32" height="84.32" filterUnits="userSpaceOnUse" color-interpolation-filters="sRGB">
<feFlood flood-opacity="0" result="BackgroundImageFix"/>
<feColorMatrix in="SourceAlpha" type="matrix" values="0 0 0 0 0 0 0 0 0 0 0 0 0 0 0 0 0 0 127 0" result="hardAlpha"/>
<feOffset dy="2.72"/>
<feGaussianBlur stdDeviation="4.08"/>
<feComposite in2="hardAlpha" operator="out"/>
<feColorMatrix type="matrix" values="0 0 0 0 0 0 0 0 0 0 0 0 0 0 0 0 0 0 0.05 0"/>
<feBlend mode="normal" in2="BackgroundImageFix" result="effect1_dropShadow_2566_82474"/>
<feBlend mode="normal" in="SourceGraphic" in2="effect1_dropShadow_2566_82474" result="shape"/>
</filter>
<filter id="filter1_d_2566_82474" x="106.84" y="0.0658596" width="84.32" height="84.32" filterUnits="userSpaceOnUse" color-interpolation-filters="sRGB">
<feFlood flood-opacity="0" result="BackgroundImageFix"/>
<feColorMatrix in="SourceAlpha" type="matrix" values="0 0 0 0 0 0 0 0 0 0 0 0 0 0 0 0 0 0 127 0" result="hardAlpha"/>
<feOffset dy="2.72"/>
<feGaussianBlur stdDeviation="4.08"/>
<feComposite in2="hardAlpha" operator="out"/>
<feColorMatrix type="matrix" values="0 0 0 0 0 0 0 0 0 0 0 0 0 0 0 0 0 0 0.05 0"/>
<feBlend mode="normal" in2="BackgroundImageFix" result="effect1_dropShadow_2566_82474"/>
<feBlend mode="normal" in="SourceGraphic" in2="effect1_dropShadow_2566_82474" result="shape"/>
</filter>
<filter id="filter2_d_2566_82474" x="0.84" y="94.0659" width="84.32" height="84.32" filterUnits="userSpaceOnUse" color-interpolation-filters="sRGB">
<feFlood flood-opacity="0" result="BackgroundImageFix"/>
<feColorMatrix in="SourceAlpha" type="matrix" values="0 0 0 0 0 0 0 0 0 0 0 0 0 0 0 0 0 0 127 0" result="hardAlpha"/>
<feOffset dy="2.72"/>
<feGaussianBlur stdDeviation="4.08"/>
<feComposite in2="hardAlpha" operator="out"/>
<feColorMatrix type="matrix" values="0 0 0 0 0 0 0 0 0 0 0 0 0 0 0 0 0 0 0.05 0"/>
<feBlend mode="normal" in2="BackgroundImageFix" result="effect1_dropShadow_2566_82474"/>
<feBlend mode="normal" in="SourceGraphic" in2="effect1_dropShadow_2566_82474" result="shape"/>
</filter>
<filter id="filter3_d_2566_82474" x="106.84" y="94.0659" width="84.32" height="84.32" filterUnits="userSpaceOnUse" color-interpolation-filters="sRGB">
<feFlood flood-opacity="0" result="BackgroundImageFix"/>
<feColorMatrix in="SourceAlpha" type="matrix" values="0 0 0 0 0 0 0 0 0 0 0 0 0 0 0 0 0 0 127 0" result="hardAlpha"/>
<feOffset dy="2.72"/>
<feGaussianBlur stdDeviation="4.08"/>
<feComposite in2="hardAlpha" operator="out"/>
<feColorMatrix type="matrix" values="0 0 0 0 0 0 0 0 0 0 0 0 0 0 0 0 0 0 0.05 0"/>
<feBlend mode="normal" in2="BackgroundImageFix" result="effect1_dropShadow_2566_82474"/>
<feBlend mode="normal" in="SourceGraphic" in2="effect1_dropShadow_2566_82474" result="shape"/>
</filter>
</defs>
</svg>
