<svg width="589" height="459" viewBox="0 0 589 459" fill="none" xmlns="http://www.w3.org/2000/svg">
<g filter="url(#filter0_d_2028_73897)">
<rect x="12" y="153" width="145" height="145" rx="72.5" fill="white"/>
<path fill-rule="evenodd" clip-rule="evenodd" d="M82.9901 187.568C79.5314 187.922 76.402 189.383 73.87 191.825C69.5874 195.956 68.0958 202.018 69.9774 207.646C70.4498 209.059 71.4131 210.883 72.2422 211.934C72.4038 212.14 72.5361 212.353 72.5361 212.409C72.5361 212.465 72.2233 212.696 71.841 212.923C70.8656 213.501 69.5284 214.501 68.3553 215.528C63.5809 219.711 60.5356 226.289 60.5021 232.493C60.4936 234.062 60.4976 234.091 60.7731 234.508C61.7011 235.913 63.7862 235.798 64.5554 234.3C64.7087 234.002 64.7758 233.559 64.8493 232.356C65.0313 229.386 65.6514 226.997 66.8731 224.562C68.681 220.958 71.8938 217.732 75.4713 215.929L76.094 215.615L77.5692 216.357C82.4012 218.789 87.6576 218.61 92.3697 215.853L92.8134 215.593L93.6155 215.997C97.0539 217.727 100.041 220.697 101.892 224.223C103.26 226.831 103.907 229.21 104.102 232.356C104.176 233.557 104.244 234.002 104.397 234.3C105.159 235.784 107.183 235.919 108.147 234.55C108.434 234.142 108.462 234.028 108.494 233.106C108.563 231.111 108.061 228.069 107.269 225.682C106.788 224.233 105.492 221.557 104.642 220.259C103.727 218.862 102.518 217.419 101.169 216.115C99.8367 214.827 98.8999 214.09 97.3478 213.107L96.3315 212.464L96.9484 211.603C98.1854 209.878 99.1585 207.542 99.5658 205.32C99.7976 204.055 99.792 201.451 99.5546 200.152C99.3307 198.927 98.708 197.048 98.1758 195.991C96.6723 193.006 93.9465 190.344 90.9767 188.961C88.5161 187.816 85.5783 187.304 82.9901 187.568ZM86.2307 192.02C88.5578 192.42 90.528 193.432 92.176 195.075C93.5839 196.479 94.5309 198.149 95.1117 200.252C95.2885 200.892 95.3247 201.317 95.325 202.762C95.3253 204.312 95.2965 204.608 95.0602 205.485C94.5333 207.441 93.523 209.166 92.0954 210.546C89.9303 212.64 87.4352 213.659 84.4762 213.659C81.4423 213.659 78.7879 212.537 76.6708 210.359C75.2785 208.926 74.4116 207.408 73.8925 205.494C73.6505 204.602 73.6234 204.324 73.6257 202.762C73.6279 201.216 73.658 200.912 73.8944 200.031C75.3569 194.588 80.7572 191.081 86.2307 192.02Z" fill="url(#paint0_linear_2028_73897)"/>
<path d="M77.5604 248.506V254.973C77.5604 255.679 77.4169 256.308 77.1298 256.859C76.8472 257.411 76.4188 257.846 75.8446 258.165C75.2704 258.479 74.5503 258.637 73.6845 258.637C72.4494 258.637 71.5083 258.302 70.8612 257.632C70.2186 256.962 69.8973 256.066 69.8973 254.945V248.506H71.0663V254.979C71.0663 255.827 71.2896 256.481 71.7362 256.941C72.1874 257.402 72.8596 257.632 73.7528 257.632C74.3635 257.632 74.8625 257.522 75.2499 257.304C75.6418 257.08 75.9312 256.771 76.118 256.374C76.3095 255.973 76.4052 255.51 76.4052 254.986V248.506H77.5604ZM85.3086 256.449C85.3086 256.928 85.1878 257.331 84.9462 257.659C84.7093 257.983 84.3675 258.227 83.9209 258.391C83.4788 258.555 82.9502 258.637 82.3349 258.637C81.8108 258.637 81.3574 258.596 80.9746 258.514C80.5918 258.432 80.2568 258.315 79.9697 258.165V257.119C80.275 257.27 80.6396 257.406 81.0634 257.529C81.4873 257.652 81.9202 257.714 82.3623 257.714C83.0094 257.714 83.4788 257.609 83.7705 257.399C84.0621 257.19 84.208 256.905 84.208 256.545C84.208 256.34 84.1487 256.16 84.0302 256.005C83.9163 255.845 83.7226 255.693 83.4492 255.547C83.1757 255.396 82.7975 255.232 82.3144 255.055C81.8359 254.872 81.4212 254.692 81.0703 254.515C80.7239 254.332 80.455 254.111 80.2636 253.852C80.0768 253.592 79.9834 253.255 79.9834 252.84C79.9834 252.206 80.2386 251.721 80.749 251.384C81.264 251.042 81.9384 250.871 82.7724 250.871C83.2236 250.871 83.6451 250.917 84.0371 251.008C84.4336 251.094 84.8027 251.213 85.1445 251.363L84.7617 252.272C84.4518 252.14 84.1214 252.029 83.7705 251.938C83.4196 251.846 83.0618 251.801 82.6972 251.801C82.1731 251.801 81.7698 251.887 81.4873 252.061C81.2093 252.234 81.0703 252.471 81.0703 252.771C81.0703 253.004 81.1341 253.195 81.2617 253.346C81.3938 253.496 81.6035 253.637 81.8906 253.77C82.1777 253.902 82.556 254.057 83.0254 254.234C83.4948 254.408 83.9004 254.588 84.2421 254.774C84.5839 254.957 84.846 255.18 85.0283 255.444C85.2151 255.704 85.3086 256.039 85.3086 256.449ZM90.4385 250.871C91.0765 250.871 91.6234 251.012 92.0791 251.295C92.5349 251.577 92.8835 251.974 93.125 252.484C93.3666 252.99 93.4873 253.583 93.4873 254.262V254.966H88.3125C88.3262 255.845 88.545 256.515 88.9688 256.976C89.3926 257.436 89.9896 257.666 90.7598 257.666C91.2338 257.666 91.653 257.623 92.0176 257.536C92.3822 257.45 92.7605 257.322 93.1524 257.153V258.151C92.7741 258.32 92.3982 258.443 92.0245 258.521C91.6553 258.598 91.2178 258.637 90.712 258.637C89.9919 258.637 89.363 258.491 88.8252 258.199C88.292 257.903 87.8773 257.47 87.5811 256.9C87.2849 256.331 87.1368 255.633 87.1368 254.809C87.1368 254.002 87.2712 253.305 87.5401 252.717C87.8135 252.124 88.1963 251.669 88.6885 251.35C89.1853 251.031 89.7686 250.871 90.4385 250.871ZM90.4248 251.801C89.8187 251.801 89.3357 251.999 88.9756 252.396C88.6156 252.792 88.4014 253.346 88.333 254.057H92.2979C92.2933 253.61 92.2227 253.218 92.086 252.881C91.9538 252.539 91.751 252.275 91.4776 252.088C91.2041 251.896 90.8532 251.801 90.4248 251.801ZM99.2394 250.871C99.3898 250.871 99.547 250.88 99.7111 250.898C99.8751 250.912 100.021 250.933 100.149 250.96L100.005 252.013C99.882 251.981 99.7452 251.956 99.5948 251.938C99.4445 251.919 99.3032 251.91 99.171 251.91C98.8702 251.91 98.5854 251.972 98.3165 252.095C98.0522 252.213 97.8198 252.386 97.6193 252.614C97.4187 252.838 97.2615 253.109 97.1476 253.428C97.0336 253.742 96.9767 254.093 96.9767 254.48V258.5H95.8351V251.008H96.7784L96.9015 252.389H96.9493C97.1043 252.111 97.2911 251.858 97.5099 251.63C97.7286 251.397 97.9816 251.213 98.2687 251.076C98.5603 250.939 98.8839 250.871 99.2394 250.871Z" fill="#374151"/>
</g>
<g filter="url(#filter1_d_2028_73897)">
<rect x="201" y="8" width="145" height="145" rx="72.5" fill="white"/>
<path d="M294.406 54.4792L273.429 42.5L252.5 54.4607M294.406 54.4792L273.429 66.7912M294.406 54.4792L294.499 78.5023L273.453 90.5M273.429 66.7912L252.5 54.4607M273.429 66.7912L273.453 90.5M252.5 54.4607V78.5485L273.453 90.5" stroke="url(#paint1_linear_2028_73897)" stroke-width="2" stroke-miterlimit="10" stroke-linejoin="round"/>
<path d="M246.272 104.388C245.721 104.388 245.224 104.483 244.782 104.675C244.344 104.862 243.971 105.135 243.661 105.495C243.356 105.851 243.121 106.281 242.957 106.787C242.793 107.293 242.711 107.863 242.711 108.496C242.711 109.335 242.841 110.064 243.1 110.684C243.365 111.299 243.757 111.775 244.276 112.112C244.8 112.45 245.454 112.618 246.238 112.618C246.685 112.618 247.104 112.582 247.496 112.509C247.892 112.431 248.277 112.336 248.651 112.222V113.233C248.287 113.37 247.904 113.47 247.503 113.534C247.102 113.603 246.625 113.637 246.074 113.637C245.058 113.637 244.208 113.427 243.524 113.008C242.845 112.584 242.335 111.987 241.993 111.217C241.656 110.447 241.487 109.537 241.487 108.489C241.487 107.733 241.592 107.042 241.801 106.418C242.016 105.789 242.326 105.247 242.731 104.791C243.141 104.335 243.643 103.984 244.235 103.738C244.832 103.488 245.516 103.362 246.286 103.362C246.792 103.362 247.279 103.412 247.749 103.513C248.218 103.613 248.642 103.757 249.02 103.943L248.555 104.928C248.236 104.782 247.885 104.657 247.503 104.552C247.124 104.442 246.714 104.388 246.272 104.388ZM249.885 106.008H251.101L252.756 110.355C252.851 110.611 252.94 110.857 253.022 111.094C253.104 111.326 253.177 111.549 253.241 111.764C253.305 111.978 253.355 112.185 253.391 112.386H253.439C253.503 112.158 253.594 111.859 253.713 111.49C253.831 111.117 253.959 110.736 254.096 110.349L255.661 106.008H256.885L253.624 114.601C253.451 115.061 253.248 115.462 253.015 115.804C252.788 116.146 252.51 116.408 252.181 116.59C251.853 116.777 251.457 116.87 250.992 116.87C250.778 116.87 250.589 116.856 250.425 116.829C250.261 116.806 250.119 116.779 250.001 116.747V115.838C250.101 115.861 250.222 115.881 250.363 115.899C250.509 115.918 250.659 115.927 250.814 115.927C251.097 115.927 251.341 115.872 251.546 115.763C251.755 115.658 251.935 115.503 252.086 115.298C252.236 115.093 252.366 114.849 252.475 114.566L252.886 113.514L249.885 106.008ZM259.636 102.863V105.522C259.636 105.828 259.627 106.124 259.608 106.411C259.595 106.698 259.583 106.922 259.574 107.081H259.636C259.841 106.744 260.137 106.459 260.524 106.227C260.912 105.994 261.406 105.878 262.008 105.878C262.946 105.878 263.694 106.204 264.25 106.855C264.81 107.503 265.091 108.466 265.091 109.747C265.091 110.59 264.963 111.301 264.708 111.88C264.453 112.459 264.093 112.896 263.628 113.192C263.163 113.489 262.614 113.637 261.98 113.637C261.388 113.637 260.9 113.527 260.517 113.309C260.139 113.085 259.848 112.814 259.642 112.495H259.554L259.321 113.5H258.501V102.863H259.636ZM261.823 106.828C261.281 106.828 260.85 106.935 260.531 107.149C260.212 107.359 259.982 107.678 259.841 108.106C259.704 108.53 259.636 109.068 259.636 109.72V109.781C259.636 110.725 259.793 111.447 260.107 111.948C260.422 112.445 260.994 112.693 261.823 112.693C262.52 112.693 263.042 112.438 263.389 111.928C263.739 111.417 263.915 110.688 263.915 109.74C263.915 108.774 263.742 108.047 263.395 107.56C263.054 107.072 262.53 106.828 261.823 106.828ZM270.378 105.871C271.016 105.871 271.563 106.012 272.019 106.295C272.474 106.577 272.823 106.974 273.064 107.484C273.306 107.99 273.427 108.583 273.427 109.262V109.966H268.252C268.266 110.845 268.484 111.515 268.908 111.976C269.332 112.436 269.929 112.666 270.699 112.666C271.173 112.666 271.592 112.623 271.957 112.536C272.322 112.45 272.7 112.322 273.092 112.153V113.151C272.714 113.32 272.338 113.443 271.964 113.521C271.595 113.598 271.157 113.637 270.651 113.637C269.931 113.637 269.302 113.491 268.765 113.199C268.231 112.903 267.817 112.47 267.52 111.9C267.224 111.331 267.076 110.633 267.076 109.809C267.076 109.002 267.211 108.305 267.479 107.717C267.753 107.124 268.136 106.669 268.628 106.35C269.125 106.031 269.708 105.871 270.378 105.871ZM270.364 106.801C269.758 106.801 269.275 106.999 268.915 107.396C268.555 107.792 268.341 108.346 268.272 109.057H272.237C272.233 108.61 272.162 108.218 272.025 107.881C271.893 107.539 271.69 107.275 271.417 107.088C271.144 106.896 270.793 106.801 270.364 106.801ZM279.179 105.871C279.329 105.871 279.486 105.88 279.65 105.898C279.814 105.912 279.96 105.933 280.088 105.96L279.944 107.013C279.821 106.981 279.685 106.956 279.534 106.938C279.384 106.919 279.243 106.91 279.11 106.91C278.81 106.91 278.525 106.972 278.256 107.095C277.992 107.213 277.759 107.386 277.559 107.614C277.358 107.838 277.201 108.109 277.087 108.428C276.973 108.742 276.916 109.093 276.916 109.48V113.5H275.774V106.008H276.718L276.841 107.389H276.889C277.044 107.111 277.231 106.858 277.449 106.63C277.668 106.397 277.921 106.213 278.208 106.076C278.5 105.939 278.823 105.871 279.179 105.871ZM282.094 103.506H284.924C286.173 103.506 287.111 103.693 287.74 104.066C288.369 104.44 288.684 105.076 288.684 105.974C288.684 106.361 288.609 106.71 288.458 107.02C288.312 107.325 288.098 107.578 287.816 107.778C287.533 107.979 287.184 108.118 286.77 108.195V108.264C287.207 108.332 287.595 108.457 287.932 108.64C288.269 108.822 288.533 109.077 288.725 109.405C288.916 109.733 289.012 110.15 289.012 110.656C289.012 111.271 288.868 111.791 288.581 112.215C288.299 112.639 287.898 112.96 287.378 113.179C286.859 113.393 286.243 113.5 285.532 113.5H282.094V103.506ZM283.256 107.792H285.17C286.04 107.792 286.642 107.648 286.975 107.361C287.312 107.074 287.481 106.655 287.481 106.104C287.481 105.534 287.28 105.124 286.879 104.873C286.483 104.622 285.849 104.497 284.979 104.497H283.256V107.792ZM283.256 108.77V112.509H285.334C286.223 112.509 286.852 112.336 287.221 111.989C287.59 111.638 287.775 111.167 287.775 110.574C287.775 110.196 287.69 109.872 287.522 109.604C287.358 109.335 287.089 109.13 286.715 108.988C286.346 108.842 285.851 108.77 285.232 108.77H283.256ZM297.854 109.74C297.854 110.355 297.774 110.905 297.614 111.388C297.455 111.871 297.225 112.279 296.924 112.611C296.623 112.944 296.259 113.199 295.83 113.377C295.406 113.55 294.926 113.637 294.388 113.637C293.887 113.637 293.426 113.55 293.007 113.377C292.592 113.199 292.232 112.944 291.927 112.611C291.626 112.279 291.391 111.871 291.223 111.388C291.059 110.905 290.977 110.355 290.977 109.74C290.977 108.92 291.116 108.223 291.394 107.648C291.672 107.07 292.068 106.63 292.583 106.329C293.103 106.024 293.72 105.871 294.436 105.871C295.119 105.871 295.716 106.024 296.227 106.329C296.742 106.634 297.14 107.076 297.423 107.655C297.71 108.229 297.854 108.924 297.854 109.74ZM292.153 109.74C292.153 110.342 292.232 110.864 292.392 111.306C292.551 111.748 292.797 112.09 293.13 112.331C293.463 112.573 293.891 112.693 294.415 112.693C294.935 112.693 295.361 112.573 295.694 112.331C296.031 112.09 296.279 111.748 296.439 111.306C296.598 110.864 296.678 110.342 296.678 109.74C296.678 109.143 296.598 108.628 296.439 108.195C296.279 107.758 296.033 107.421 295.7 107.184C295.368 106.947 294.937 106.828 294.408 106.828C293.629 106.828 293.057 107.086 292.693 107.601C292.333 108.116 292.153 108.829 292.153 109.74ZM302.02 109.665L299.429 106.008H300.728L302.703 108.893L304.672 106.008H305.957L303.366 109.665L306.101 113.5H304.802L302.703 110.444L300.591 113.5H299.306L302.02 109.665Z" fill="#374151"/>
</g>
<g filter="url(#filter2_d_2028_73897)">
<rect x="201" y="298" width="145" height="145" rx="72.5" fill="white"/>
<path fill-rule="evenodd" clip-rule="evenodd" d="M253.869 338.646C253.502 338.939 253.464 339.218 253.522 341.153C253.654 345.558 254.165 348.562 255.217 351.115C256.78 354.91 259.3 356.62 263.338 356.625C264.895 356.627 266.379 356.321 267.673 355.732C268.009 355.578 268.296 355.464 268.309 355.477C268.499 355.667 269.456 358.158 269.862 359.518C270.923 363.073 271.615 368.134 271.62 372.372C271.621 373.145 271.657 373.908 271.701 374.066C271.887 374.736 272.701 374.991 273.167 374.525C273.449 374.243 273.496 374.024 273.497 372.968C273.498 371.991 273.674 369.756 273.843 368.556C274.365 364.866 275.506 361.424 277.071 358.82C277.266 358.495 277.436 358.217 277.447 358.203C277.458 358.189 277.673 358.344 277.924 358.549C278.174 358.753 278.731 359.088 279.161 359.293C280.529 359.944 281.856 360.22 283.624 360.221C286.567 360.222 288.679 359.33 290.192 357.447C292.263 354.871 293.293 350.868 293.469 344.711C293.549 341.915 293.695 342.052 290.702 342.118C287.512 342.189 285.396 342.436 283.213 342.994C279.388 343.971 277.013 345.683 275.983 348.205C275.341 349.779 275.093 352.575 275.541 353.206C275.747 353.497 276.219 353.636 276.544 353.501C276.678 353.445 277.076 353.085 277.427 352.699C279.051 350.921 281.145 349.335 283.416 348.164C284.21 347.754 284.349 347.707 284.656 347.741C285.14 347.796 285.473 348.132 285.473 348.569C285.473 349.058 285.296 349.241 284.375 349.703C282.059 350.867 280.342 352.102 278.614 353.848C276.113 356.375 274.206 359.663 273.122 363.319C272.79 364.437 272.835 364.479 272.517 362.761C271.709 358.408 270.153 354.382 268.201 351.592C266.557 349.243 264.954 347.617 262.819 346.131C261.995 345.558 261.697 345.22 261.697 344.86C261.697 344.38 261.916 344.099 262.415 343.94C262.664 343.862 262.986 344.025 264.002 344.743C266.44 346.467 267.856 347.89 269.295 350.062C269.594 350.514 269.932 350.962 270.046 351.059C270.342 351.309 270.83 351.299 271.143 351.035C271.443 350.783 271.518 350.508 271.628 349.267C271.836 346.913 271.248 344.484 270.104 342.974C268.923 341.417 266.644 340.129 263.779 339.401C261.581 338.842 259.418 338.59 256.266 338.525C254.115 338.48 254.075 338.482 253.869 338.646Z" fill="url(#paint2_linear_2028_73897)"/>
<path d="M243.986 394.388C243.435 394.388 242.938 394.483 242.496 394.675C242.058 394.862 241.685 395.135 241.375 395.495C241.069 395.851 240.835 396.281 240.671 396.787C240.506 397.293 240.424 397.863 240.424 398.496C240.424 399.335 240.554 400.064 240.814 400.684C241.078 401.299 241.47 401.775 241.99 402.112C242.514 402.45 243.168 402.618 243.952 402.618C244.398 402.618 244.818 402.582 245.21 402.509C245.606 402.431 245.991 402.336 246.365 402.222V403.233C246 403.37 245.617 403.47 245.216 403.534C244.815 403.603 244.339 403.637 243.788 403.637C242.771 403.637 241.922 403.427 241.238 403.008C240.559 402.584 240.048 401.987 239.707 401.217C239.369 400.447 239.201 399.537 239.201 398.489C239.201 397.733 239.306 397.042 239.515 396.418C239.729 395.789 240.039 395.247 240.445 394.791C240.855 394.335 241.356 393.984 241.949 393.738C242.546 393.488 243.229 393.362 244 393.362C244.506 393.362 244.993 393.412 245.463 393.513C245.932 393.613 246.356 393.757 246.734 393.943L246.269 394.928C245.95 394.782 245.599 394.657 245.216 394.552C244.838 394.442 244.428 394.388 243.986 394.388ZM251.666 395.871C252.304 395.871 252.851 396.012 253.306 396.295C253.762 396.577 254.111 396.974 254.352 397.484C254.594 397.99 254.715 398.583 254.715 399.262V399.966H249.54C249.553 400.845 249.772 401.515 250.196 401.976C250.62 402.436 251.217 402.666 251.987 402.666C252.461 402.666 252.88 402.623 253.245 402.536C253.609 402.45 253.988 402.322 254.38 402.153V403.151C254.001 403.32 253.625 403.443 253.252 403.521C252.883 403.598 252.445 403.637 251.939 403.637C251.219 403.637 250.59 403.491 250.052 403.199C249.519 402.903 249.105 402.47 248.808 401.9C248.512 401.331 248.364 400.633 248.364 399.809C248.364 399.002 248.498 398.305 248.767 397.717C249.041 397.124 249.424 396.669 249.916 396.35C250.412 396.031 250.996 395.871 251.666 395.871ZM251.652 396.801C251.046 396.801 250.563 396.999 250.203 397.396C249.843 397.792 249.629 398.346 249.56 399.057H253.525C253.521 398.61 253.45 398.218 253.313 397.881C253.181 397.539 252.978 397.275 252.705 397.088C252.431 396.896 252.08 396.801 251.652 396.801ZM260.467 395.871C260.617 395.871 260.774 395.88 260.938 395.898C261.102 395.912 261.248 395.933 261.376 395.96L261.232 397.013C261.109 396.981 260.972 396.956 260.822 396.938C260.672 396.919 260.53 396.91 260.398 396.91C260.097 396.91 259.813 396.972 259.544 397.095C259.279 397.213 259.047 397.386 258.846 397.614C258.646 397.838 258.489 398.109 258.375 398.428C258.261 398.742 258.204 399.093 258.204 399.48V403.5H257.062V396.008H258.006L258.129 397.389H258.177C258.332 397.111 258.518 396.858 258.737 396.63C258.956 396.397 259.209 396.213 259.496 396.076C259.788 395.939 260.111 395.871 260.467 395.871ZM265.631 402.707C265.818 402.707 266.009 402.691 266.205 402.659C266.401 402.627 266.56 402.589 266.683 402.543V403.425C266.551 403.484 266.367 403.534 266.13 403.575C265.897 403.616 265.669 403.637 265.446 403.637C265.05 403.637 264.69 403.568 264.366 403.432C264.043 403.29 263.783 403.053 263.587 402.721C263.395 402.388 263.3 401.928 263.3 401.34V396.896H262.233V396.343L263.307 395.898L263.758 394.271H264.441V396.008H266.636V396.896H264.441V401.306C264.441 401.775 264.548 402.126 264.763 402.358C264.981 402.591 265.271 402.707 265.631 402.707ZM269.756 396.008V403.5H268.621V396.008H269.756ZM269.202 393.205C269.389 393.205 269.548 393.267 269.681 393.39C269.817 393.508 269.886 393.695 269.886 393.95C269.886 394.201 269.817 394.388 269.681 394.511C269.548 394.634 269.389 394.695 269.202 394.695C269.006 394.695 268.842 394.634 268.71 394.511C268.582 394.388 268.519 394.201 268.519 393.95C268.519 393.695 268.582 393.508 268.71 393.39C268.842 393.267 269.006 393.205 269.202 393.205ZM275.918 396.896H274.052V403.5H272.917V396.896H271.591V396.35L272.917 395.974V395.475C272.917 394.846 273.01 394.335 273.197 393.943C273.384 393.547 273.655 393.255 274.011 393.068C274.366 392.882 274.799 392.788 275.31 392.788C275.597 392.788 275.859 392.813 276.096 392.863C276.337 392.913 276.549 392.97 276.731 393.034L276.438 393.93C276.283 393.88 276.107 393.834 275.911 393.793C275.72 393.747 275.524 393.725 275.323 393.725C274.89 393.725 274.569 393.866 274.359 394.148C274.154 394.426 274.052 394.864 274.052 395.461V396.008H275.918V396.896ZM278.427 396.008V403.5H277.292V396.008H278.427ZM277.873 393.205C278.06 393.205 278.219 393.267 278.352 393.39C278.488 393.508 278.557 393.695 278.557 393.95C278.557 394.201 278.488 394.388 278.352 394.511C278.219 394.634 278.06 394.695 277.873 394.695C277.677 394.695 277.513 394.634 277.381 394.511C277.253 394.388 277.189 394.201 277.189 393.95C277.189 393.695 277.253 393.508 277.381 393.39C277.513 393.267 277.677 393.205 277.873 393.205ZM284.247 403.637C283.573 403.637 282.978 403.498 282.463 403.22C281.948 402.942 281.547 402.518 281.26 401.948C280.973 401.379 280.829 400.661 280.829 399.795C280.829 398.888 280.98 398.147 281.28 397.573C281.586 396.994 282.005 396.566 282.538 396.288C283.071 396.01 283.678 395.871 284.357 395.871C284.73 395.871 285.09 395.91 285.437 395.987C285.788 396.06 286.075 396.154 286.298 396.268L285.956 397.218C285.728 397.127 285.464 397.045 285.163 396.972C284.867 396.899 284.589 396.862 284.329 396.862C283.81 396.862 283.377 396.974 283.03 397.197C282.689 397.421 282.431 397.749 282.258 398.182C282.089 398.615 282.005 399.148 282.005 399.781C282.005 400.387 282.087 400.905 282.251 401.333C282.42 401.761 282.668 402.09 282.996 402.317C283.329 402.541 283.744 402.652 284.24 402.652C284.637 402.652 284.995 402.611 285.314 402.529C285.633 402.443 285.922 402.342 286.182 402.229V403.24C285.931 403.368 285.651 403.466 285.341 403.534C285.036 403.603 284.671 403.637 284.247 403.637ZM291.182 395.885C292.075 395.885 292.738 396.085 293.171 396.486C293.604 396.887 293.821 397.528 293.821 398.407V403.5H292.993L292.775 402.393H292.72C292.51 402.666 292.292 402.896 292.064 403.083C291.836 403.265 291.571 403.404 291.271 403.5C290.974 403.591 290.61 403.637 290.177 403.637C289.721 403.637 289.316 403.557 288.96 403.397C288.609 403.238 288.331 402.996 288.126 402.673C287.926 402.349 287.825 401.939 287.825 401.442C287.825 400.695 288.122 400.121 288.714 399.72C289.307 399.319 290.209 399.1 291.421 399.063L292.713 399.009V398.551C292.713 397.904 292.574 397.45 292.296 397.19C292.018 396.931 291.626 396.801 291.12 396.801C290.728 396.801 290.355 396.858 289.999 396.972C289.644 397.086 289.307 397.22 288.987 397.375L288.639 396.514C288.976 396.34 289.363 396.192 289.801 396.069C290.238 395.946 290.699 395.885 291.182 395.885ZM292.699 399.809L291.558 399.856C290.624 399.893 289.965 400.046 289.582 400.314C289.199 400.583 289.008 400.964 289.008 401.456C289.008 401.884 289.138 402.201 289.398 402.406C289.657 402.611 290.001 402.714 290.43 402.714C291.095 402.714 291.64 402.529 292.064 402.16C292.487 401.791 292.699 401.237 292.699 400.499V399.809ZM298.998 402.707C299.185 402.707 299.377 402.691 299.573 402.659C299.769 402.627 299.928 402.589 300.051 402.543V403.425C299.919 403.484 299.734 403.534 299.497 403.575C299.265 403.616 299.037 403.637 298.814 403.637C298.417 403.637 298.057 403.568 297.734 403.432C297.41 403.29 297.15 403.053 296.954 402.721C296.763 402.388 296.667 401.928 296.667 401.34V396.896H295.601V396.343L296.674 395.898L297.125 394.271H297.809V396.008H300.003V396.896H297.809V401.306C297.809 401.775 297.916 402.126 298.13 402.358C298.349 402.591 298.638 402.707 298.998 402.707ZM304.873 395.871C305.511 395.871 306.058 396.012 306.514 396.295C306.97 396.577 307.318 396.974 307.56 397.484C307.801 397.99 307.922 398.583 307.922 399.262V399.966H302.747C302.761 400.845 302.98 401.515 303.404 401.976C303.827 402.436 304.425 402.666 305.195 402.666C305.669 402.666 306.088 402.623 306.452 402.536C306.817 402.45 307.195 402.322 307.587 402.153V403.151C307.209 403.32 306.833 403.443 306.459 403.521C306.09 403.598 305.653 403.637 305.147 403.637C304.427 403.637 303.798 403.491 303.26 403.199C302.727 402.903 302.312 402.47 302.016 401.9C301.72 401.331 301.572 400.633 301.572 399.809C301.572 399.002 301.706 398.305 301.975 397.717C302.248 397.124 302.631 396.669 303.123 396.35C303.62 396.031 304.203 395.871 304.873 395.871ZM304.86 396.801C304.254 396.801 303.771 396.999 303.411 397.396C303.05 397.792 302.836 398.346 302.768 399.057H306.733C306.728 398.61 306.658 398.218 306.521 397.881C306.389 397.539 306.186 397.275 305.912 397.088C305.639 396.896 305.288 396.801 304.86 396.801Z" fill="#374151"/>
</g>
<g filter="url(#filter3_d_2028_73897)">
<rect x="390" y="153" width="145" height="145" rx="72.5" fill="white"/>
<path d="M452.186 200.318C450.456 200.318 449.097 201.173 449.097 202.793C449.097 204.425 450.456 205.267 452.186 205.267H457.928C459.601 205.267 461.031 204.399 461.031 202.793C461.031 201.186 459.587 200.318 457.943 200.318H452.186ZM457.614 196.703C461.446 196.703 464.821 198.711 464.821 202.779C464.821 206.822 461.474 208.895 457.628 208.895H452.486C448.639 208.895 445.293 206.834 445.293 202.779C445.293 198.79 448.654 196.703 452.486 196.703H457.614Z" fill="#374151"/>
<path d="M466.946 210.484C466.946 211.578 465.994 212.465 464.821 212.465C463.647 212.465 462.695 211.578 462.695 210.484C462.695 209.391 463.647 208.504 464.821 208.504C465.994 208.504 466.946 209.391 466.946 210.484Z" fill="#374151"/>
<path d="M441.864 196.721V212.142H437.152V202.968L432.969 212.142H428.897L424.686 202.944V212.142H420V196.721H425.731L430.988 208.335L436.134 196.721H441.864Z" fill="#374151"/>
<path d="M477.971 212.492C471.84 212.492 469.7 210.474 469.7 206.754H474.356C474.443 208.334 475.166 209.38 477.855 209.38C480.256 209.38 480.834 208.553 480.834 207.775C480.834 204.76 470.018 206.924 470.018 201.477C470.018 198.753 471.725 196.492 477.537 196.492C483.437 196.492 485.085 198.826 485.172 201.988H480.545C480.458 200.675 479.995 199.605 477.393 199.605C475.223 199.605 474.674 200.285 474.674 201.088C474.674 203.69 485.375 201.574 485.375 207.556C485.375 209.842 483.784 212.492 477.971 212.492Z" fill="#374151"/>
<path d="M497.597 212.492C491.465 212.492 489.326 210.474 489.326 206.754H493.982C494.068 208.334 494.792 209.38 497.48 209.38C499.881 209.38 500.459 208.553 500.459 207.775C500.459 204.76 489.644 206.924 489.644 201.477C489.644 198.753 491.35 196.492 497.163 196.492C503.062 196.492 504.711 198.826 504.797 201.988H500.17C500.083 200.675 499.621 199.605 497.018 199.605C494.849 199.605 494.3 200.285 494.3 201.088C494.3 203.69 505 201.574 505 207.556C505 209.842 503.41 212.492 497.597 212.492Z" fill="#374151"/>
<path fill-rule="evenodd" clip-rule="evenodd" d="M443.902 240.442C443.709 240.636 443.448 240.744 443.175 240.744H437.146C441.389 243.156 443.746 248.181 444.079 253.395C444.114 253.951 443.701 254.435 443.146 254.486L443.052 253.461C443.03 253.117 442.999 252.775 442.959 252.436C442.32 246.996 439.391 242.205 434.529 240.744C434.052 240.601 433.556 240.489 433.042 240.413C432.752 240.369 432.456 240.337 432.155 240.316C432.107 240.313 432.059 240.31 432.011 240.307C432.056 240.106 432.103 239.908 432.155 239.715L443.175 239.715C443.175 239.424 443.167 239.137 443.138 238.854C443.132 238.798 443.125 238.742 443.118 238.685C442.612 234.646 439.158 231.521 434.981 231.521H431.008L431.008 231.522C430.994 231.521 430.98 231.521 430.967 231.521C425.582 231.521 421.217 235.887 421.217 241.271C421.217 244.944 423.248 248.143 426.248 249.805C426.562 249.979 426.887 250.137 427.221 250.276L427.75 246.536C427.75 246.536 427.814 248.291 428.334 249.754C428.467 250.129 428.63 250.485 428.83 250.786C429.518 250.94 430.233 251.021 430.967 251.021C431.545 251.021 432.111 250.971 432.662 250.874C432.967 250.821 433.267 250.753 433.561 250.672C433.635 250.652 433.708 250.631 433.781 250.609C433.534 250.336 433.312 250.04 433.112 249.727C432.086 248.118 431.656 246.028 431.635 243.96C432.118 246.705 433.144 248.663 434.392 250.058C434.526 250.209 434.664 250.353 434.804 250.491C437.271 252.927 440.422 253.398 442.021 253.469C442.428 253.487 442.735 253.478 442.904 253.47C443 253.465 443.052 253.461 443.052 253.461C443.146 254.486 443.145 254.486 443.145 254.486L443.143 254.486L443.14 254.486C443.137 254.486 443.134 254.487 443.13 254.487C443.123 254.488 443.113 254.488 443.1 254.489C443.076 254.491 443.043 254.493 443.001 254.496C442.917 254.5 442.799 254.505 442.651 254.508C442.355 254.512 441.939 254.505 441.437 254.462C440.435 254.376 439.072 254.145 437.637 253.556C436.524 253.099 435.382 252.431 434.342 251.472C434.261 251.525 434.173 251.566 434.078 251.595C433.092 251.891 432.047 252.051 430.967 252.051C430.157 252.051 429.366 251.961 428.605 251.791C428.345 251.733 428.118 251.576 427.971 251.354C427.919 251.275 427.869 251.194 427.822 251.111C427.792 251.132 427.762 251.152 427.73 251.17C427.453 251.328 427.119 251.348 426.825 251.226C422.929 249.603 420.188 245.759 420.188 241.271C420.188 235.318 425.014 230.492 430.967 230.492C430.977 230.492 430.988 230.492 430.998 230.492C431.001 230.492 431.004 230.492 431.008 230.492H434.981C439.747 230.492 443.677 234.107 444.161 238.748C444.196 239.082 444.204 239.409 444.204 239.715C444.204 239.988 444.095 240.249 443.902 240.442ZM431.634 243.955L431.634 243.957C431.634 243.958 431.634 243.959 431.635 243.96C431.635 243.959 431.635 243.958 431.634 243.957C431.634 243.957 431.634 243.957 431.634 243.956C431.634 243.956 431.634 243.956 431.634 243.955Z" fill="white"/>
<path d="M430.312 239.467H435.082H442.807C442.807 235.214 439.349 231.766 435.082 231.766H431.452L430.312 239.467Z" fill="#FFBA7B"/>
<path d="M430.602 236.232C430.602 236.232 433.777 236.232 436.521 236.232C440.925 236.232 442.195 238.936 442.195 238.936H430.602V236.232Z" fill="#F87AA3"/>
<path d="M423.449 238.814C423.449 235.706 425.903 232.442 429.005 232.238C429.469 232.207 429.895 232.273 430.229 232.465C430.758 232.768 430.967 235.087 430.725 236.889L430.631 237.397C429.996 240.833 428.453 245.692 425.242 244.318C423.613 243.621 423.449 240.781 423.449 238.814Z" fill="white"/>
<path d="M428.285 236.152C428.839 236.152 429.289 235.703 429.289 235.148C429.289 234.959 429.236 234.781 429.145 234.63C429.098 234.753 428.978 234.841 428.839 234.841C428.658 234.841 428.511 234.694 428.511 234.513C428.511 234.389 428.58 234.281 428.681 234.226C428.56 234.173 428.426 234.145 428.285 234.145C427.731 234.145 427.281 234.594 427.281 235.148C427.281 235.703 427.731 236.152 428.285 236.152Z" fill="#152239"/>
<path fill-rule="evenodd" clip-rule="evenodd" d="M430.334 239.387L431.354 231.529C431.226 231.524 431.098 231.521 430.969 231.521C425.584 231.521 421.219 235.887 421.219 241.271C421.219 245.329 423.697 248.807 427.223 250.276L427.752 246.536C427.752 246.536 427.853 249.306 428.832 250.787C429.52 250.94 430.235 251.021 430.969 251.021C431.947 251.021 432.892 250.877 433.783 250.609C431.281 247.839 431.252 242.801 432.248 239.387H430.334ZM429.079 232.577C430.008 232.365 430.712 233.204 430.575 234.147L429.562 241.109C429.229 243.397 427.022 245.364 425.333 243.785C424.274 242.796 423.554 241.03 424.183 237.882C424.922 234.182 427.37 232.969 429.079 232.577Z" fill="#152239"/>
<path fill-rule="evenodd" clip-rule="evenodd" d="M430.799 238.854H438.549H442.277C442.141 237.693 441.731 236.614 441.118 235.683C439.806 233.694 437.546 232.382 434.985 232.382H431.754L430.799 238.854ZM429.803 239.715L431.011 231.521H434.985C439.219 231.521 442.711 234.734 443.141 238.854C443.171 239.137 443.178 239.424 443.178 239.715H429.803Z" fill="#152239"/>
<path d="M442.46 239.468C441.766 239.372 438.365 239.792 438.548 238.854C438.827 237.424 439.81 236.243 441.117 235.683C442.431 235.119 442.844 239.522 442.46 239.468Z" fill="#152239"/>
<path d="M443.054 253.462C443.054 253.462 431.338 254.539 431.338 240.289C438.462 240.289 442.609 246.491 443.054 253.462Z" fill="#152239"/>
<path d="M461.445 240.091V237.918H451.709V240.091H455.424V249.677H457.73V240.091H461.445ZM464.487 247.919C463.409 247.919 462.414 247.123 462.414 245.597C462.414 244.055 463.409 243.275 464.487 243.275C465.565 243.275 466.56 244.055 466.56 245.597C466.56 247.14 465.565 247.919 464.487 247.919ZM464.487 241.268C462.049 241.268 460.208 243.076 460.208 245.597C460.208 248.102 462.049 249.926 464.487 249.926C466.925 249.926 468.766 248.102 468.766 245.597C468.766 243.076 466.925 241.268 464.487 241.268ZM475.318 249.677H477.425C477.391 249.395 477.342 248.831 477.342 248.201V241.517H475.136V246.261C475.136 247.206 474.572 247.87 473.593 247.87C472.565 247.87 472.1 247.14 472.1 246.227V241.517H469.895V246.675C469.895 248.45 471.022 249.893 472.996 249.893C473.859 249.893 474.804 249.561 475.252 248.798C475.252 249.13 475.285 249.512 475.318 249.677ZM482.831 243.308C483.926 243.308 484.44 244.005 484.639 244.685L486.613 244.022C486.265 242.645 485.004 241.268 482.782 241.268C480.41 241.268 478.552 243.076 478.552 245.597C478.552 248.102 480.443 249.926 482.848 249.926C485.021 249.926 486.298 248.533 486.663 247.173L484.722 246.526C484.54 247.156 483.976 247.903 482.848 247.903C481.72 247.903 480.758 247.073 480.758 245.597C480.758 244.121 481.703 243.308 482.831 243.308ZM489.315 245.564C489.315 244.071 490.177 243.192 491.355 243.192C492.516 243.192 493.362 244.071 493.362 245.564C493.362 247.057 492.5 248.002 491.355 248.002C490.161 248.002 489.315 247.04 489.315 245.564ZM493.379 248.666C493.379 249.064 493.428 249.495 493.462 249.677H495.568C495.552 249.495 495.501 248.931 495.501 248.201V241.517H493.362V242.529C493.163 242.064 492.483 241.285 491.023 241.285C488.652 241.285 487.092 243.176 487.092 245.564C487.092 248.035 488.685 249.91 491.09 249.91C492.184 249.91 493.03 249.346 493.379 248.566V248.666ZM499.57 244.984C499.57 244.038 500.134 243.292 501.096 243.292C502.158 243.292 502.605 244.005 502.605 244.917V249.677H504.812V244.536C504.812 242.744 503.882 241.301 501.859 241.301C500.98 241.301 500.001 241.683 499.504 242.529V241.517H497.364V249.677H499.57V244.984Z" fill="#374151"/>
</g>
<path d="M267.312 248.868C268.368 250.373 269.823 254.497 271.395 255.332C271.648 254.555 271.183 253.041 271.092 252.22C270.954 250.914 270.849 249.611 270.732 248.31C270.529 246.012 270.363 243.712 270.302 241.405C270.206 237.84 270.357 234.259 270.372 230.719C270.391 226.727 270.656 222.75 270.775 218.77C270.847 216.372 270.878 213.979 270.951 211.582C270.994 210.242 270.582 206.571 271.801 205.609C273.05 204.621 273.202 206.005 273.262 207.01C273.39 209.08 273.373 211.154 273.432 213.231C273.555 217.566 273.662 221.901 273.85 226.234C274.036 230.501 274.194 234.808 274.237 239.076C274.278 243.183 274.035 248.144 275.114 252.124C275.851 251.714 276.437 249.771 276.878 248.969C277.566 247.717 278.264 246.442 279.037 245.238C279.587 244.388 280.486 243.024 281.736 243.473C282.625 243.796 282.857 245.134 282.69 245.942C282.241 248.143 280.027 250.611 278.998 252.624C277.777 255.018 276.591 257.427 275.473 259.854C274.776 261.367 273.511 263.102 271.746 261.758C270.332 260.677 269.226 257.641 268.42 256.095C267.315 253.987 266.444 251.8 265.411 249.653C264.106 246.93 265.603 247.334 267.308 248.863C267.504 249.146 266.784 248.388 267.308 248.863L267.312 248.868Z" fill="white"/>
<path d="M160.593 122.134C154.479 124.92 148.538 130.001 144.592 135.413C142.354 138.481 140.709 141.955 139.349 145.487C138.642 147.315 138.031 149.159 137.51 151.046C137.36 151.595 137.188 153.981 136.619 154.133C134.705 154.644 136.99 146.374 137.302 145.5C138.612 141.807 140.126 138.123 142.315 134.855C145.974 129.366 151.125 124.023 156.934 120.813C160.315 118.945 163.683 117.033 167.443 115.93C169.024 115.466 170.651 115.146 172.288 114.987C173.449 114.873 174.637 114.784 175.804 114.819C176.667 114.845 177.762 115.32 178.579 115.202C177.854 113.932 175.951 113.279 175.099 112.017C174.087 110.515 175.6 110.474 176.678 111.013C178.39 111.873 179.943 113.008 181.532 114.063C182.89 114.962 184.843 115.781 184.115 117.639C183.476 119.27 182.176 120.699 181.223 122.144C180.584 123.108 179.694 125.538 178.312 125.595C174.003 125.781 180.648 119.073 180.898 118.418C180.233 118.275 179.446 118.457 178.754 118.426C177.754 118.383 176.769 118.2 175.768 118.163C173.879 118.095 171.922 118.229 170.055 118.536C166.819 119.065 163.36 120.373 160.591 122.13C158.378 123.138 160.987 121.874 160.591 122.13L160.593 122.134Z" fill="white"/>
<path d="M152.475 328.539C156.486 333.93 162.703 338.668 168.824 341.387C172.295 342.929 176.037 343.806 179.776 344.392C181.712 344.698 183.644 344.907 185.598 345.02C186.166 345.051 188.535 344.717 188.803 345.241C189.705 347.005 181.14 346.512 180.22 346.39C176.334 345.887 172.413 345.182 168.758 343.731C162.622 341.309 156.314 337.398 151.953 332.394C149.416 329.482 146.838 326.592 144.968 323.149C144.181 321.701 143.526 320.178 143.027 318.611C142.671 317.5 142.334 316.357 142.121 315.209C141.965 314.36 142.199 313.189 141.912 312.415C140.823 313.392 140.586 315.39 139.531 316.488C138.276 317.793 137.917 316.323 138.217 315.155C138.697 313.301 139.481 311.544 140.177 309.768C140.77 308.251 141.16 306.169 143.13 306.491C144.859 306.772 146.529 307.742 148.142 308.37C149.219 308.791 151.782 309.15 152.128 310.489C153.218 314.662 145.261 309.578 144.569 309.472C144.569 310.152 144.912 310.882 145.027 311.566C145.196 312.552 145.224 313.554 145.399 314.541C145.73 316.401 146.273 318.286 146.966 320.047C148.164 323.099 150.171 326.205 152.472 328.543C153.923 330.493 152.138 328.209 152.472 328.543L152.475 328.539Z" fill="white"/>
<path d="M44.8074 90.4336C45.9129 90.4336 46.7195 90.6602 47.2273 91.1133C47.7352 91.5664 47.9891 92.2012 47.9891 93.0176C47.9891 93.3887 47.9305 93.7422 47.8133 94.0781C47.7 94.4102 47.5125 94.7051 47.2508 94.9629C46.9891 95.2168 46.6434 95.418 46.2137 95.5664C45.7879 95.7148 45.2625 95.7891 44.6375 95.7891H43.7234V99H42.3172V90.4336H44.8074ZM44.7137 91.5996H43.7234V94.6172H44.491C44.9324 94.6172 45.3074 94.5664 45.616 94.4648C45.9246 94.3594 46.159 94.1934 46.3191 93.9668C46.4793 93.7402 46.5594 93.4414 46.5594 93.0703C46.5594 92.5742 46.409 92.2051 46.1082 91.9629C45.8113 91.7207 45.3465 91.5996 44.7137 91.5996ZM52.4623 92.3906C53.2827 92.3906 53.9018 92.5723 54.3198 92.9355C54.7416 93.2988 54.9526 93.8652 54.9526 94.6348V99H53.9741L53.7104 98.0801H53.6635C53.4799 98.3145 53.2905 98.5078 53.0952 98.6602C52.8998 98.8125 52.6733 98.9258 52.4155 99C52.1616 99.0781 51.851 99.1172 51.4838 99.1172C51.0971 99.1172 50.7514 99.0469 50.4467 98.9062C50.142 98.7617 49.9018 98.543 49.726 98.25C49.5502 97.957 49.4623 97.5859 49.4623 97.1367C49.4623 96.4687 49.7104 95.9668 50.2065 95.6309C50.7065 95.2949 51.4604 95.1094 52.4682 95.0742L53.5932 95.0332V94.6934C53.5932 94.2441 53.4877 93.9238 53.2768 93.7324C53.0698 93.541 52.7768 93.4453 52.3979 93.4453C52.0737 93.4453 51.7592 93.4922 51.4545 93.5859C51.1498 93.6797 50.853 93.7949 50.5639 93.9316L50.1186 92.959C50.435 92.791 50.7944 92.6543 51.1967 92.5488C51.603 92.4434 52.0248 92.3906 52.4623 92.3906ZM53.5873 95.9004L52.7495 95.9297C52.062 95.9531 51.5795 96.0703 51.3022 96.2812C51.0248 96.4922 50.8862 96.7812 50.8862 97.1484C50.8862 97.4687 50.9819 97.7031 51.1733 97.8516C51.3647 97.9961 51.6166 98.0684 51.9291 98.0684C52.4057 98.0684 52.8002 97.9336 53.1127 97.6641C53.4291 97.3906 53.5873 96.9902 53.5873 96.4629V95.9004ZM56.2618 92.5137H57.7618L59.0919 96.2168C59.1505 96.3848 59.2032 96.5508 59.2501 96.7148C59.3009 96.875 59.3438 97.0332 59.379 97.1895C59.418 97.3457 59.4493 97.502 59.4727 97.6582H59.5079C59.547 97.4551 59.6016 97.2285 59.672 96.9785C59.7462 96.7246 59.8282 96.4707 59.918 96.2168L61.1954 92.5137H62.6778L59.8946 99.8906C59.7345 100.312 59.5372 100.672 59.3028 100.969C59.0723 101.27 58.7989 101.496 58.4825 101.648C58.1661 101.805 57.8048 101.883 57.3985 101.883C57.2032 101.883 57.0333 101.871 56.8888 101.848C56.7442 101.828 56.6212 101.807 56.5196 101.783V100.682C56.6016 100.701 56.7052 100.719 56.8302 100.734C56.9552 100.75 57.0841 100.758 57.2169 100.758C57.463 100.758 57.6759 100.709 57.8555 100.611C58.0352 100.514 58.1876 100.375 58.3126 100.195C58.4376 100.02 58.5411 99.8184 58.6231 99.5918L58.8516 98.9824L56.2618 92.5137ZM71.1029 99H69.7201V93.4863C69.7201 93.3027 69.722 93.1191 69.7259 92.9355C69.7298 92.752 69.7337 92.5723 69.7377 92.3965C69.7455 92.2207 69.7552 92.0527 69.767 91.8926C69.6849 91.9824 69.5834 92.0801 69.4623 92.1855C69.3451 92.291 69.2201 92.4004 69.0873 92.5137L68.1029 93.2988L67.4115 92.4258L69.9545 90.4336H71.1029V99ZM77.1934 93.6445C77.7441 93.6445 78.2285 93.7441 78.6465 93.9434C79.0684 94.1387 79.3965 94.4277 79.6309 94.8105C79.8652 95.1895 79.9824 95.6543 79.9824 96.2051C79.9824 96.8066 79.8555 97.3262 79.6016 97.7637C79.3477 98.1973 78.9746 98.5312 78.4824 98.7656C77.9902 99 77.3906 99.1172 76.6836 99.1172C76.2344 99.1172 75.8145 99.0781 75.4238 99C75.0371 98.9219 74.7031 98.8047 74.4219 98.6484V97.4062C74.7148 97.5703 75.0664 97.7051 75.4766 97.8105C75.8867 97.9121 76.2793 97.9629 76.6543 97.9629C77.0527 97.9629 77.3945 97.9043 77.6797 97.7871C77.9648 97.6699 78.1836 97.4902 78.3359 97.248C78.4922 97.0059 78.5703 96.6992 78.5703 96.3281C78.5703 95.8359 78.4121 95.457 78.0957 95.1914C77.7832 94.9219 77.293 94.7871 76.625 94.7871C76.3906 94.7871 76.1406 94.8086 75.875 94.8516C75.6133 94.8906 75.3945 94.9336 75.2187 94.9805L74.6152 94.623L74.9375 90.4336H79.3906V91.6465H76.1504L75.9629 93.7793C76.1035 93.748 76.2715 93.7187 76.4668 93.6914C76.6621 93.6602 76.9043 93.6445 77.1934 93.6445ZM88.0442 99.1172C87.4309 99.1172 86.8997 98.998 86.4505 98.7598C86.0012 98.5215 85.6555 98.1562 85.4134 97.6641C85.1712 97.1719 85.0501 96.5469 85.0501 95.7891C85.0501 95 85.1829 94.3555 85.4485 93.8555C85.7141 93.3555 86.0813 92.9863 86.5501 92.748C87.0227 92.5098 87.5637 92.3906 88.1731 92.3906C88.5598 92.3906 88.9095 92.4297 89.222 92.5078C89.5384 92.582 89.8059 92.6738 90.0247 92.7832L89.6145 93.8848C89.3762 93.7871 89.1321 93.7051 88.8821 93.6387C88.6321 93.5723 88.3919 93.5391 88.1614 93.5391C87.7825 93.5391 87.4661 93.623 87.2122 93.791C86.9622 93.959 86.7747 94.209 86.6497 94.541C86.5286 94.873 86.468 95.2852 86.468 95.7773C86.468 96.2539 86.5305 96.6562 86.6555 96.9844C86.7805 97.3086 86.9661 97.5547 87.2122 97.7227C87.4583 97.8867 87.761 97.9687 88.1204 97.9687C88.4759 97.9687 88.7942 97.9258 89.0755 97.8398C89.3567 97.7539 89.6223 97.6426 89.8723 97.5059V98.7012C89.6262 98.8418 89.3626 98.9453 89.0813 99.0117C88.8001 99.082 88.4544 99.1172 88.0442 99.1172ZM98.623 90.4336V95.9766C98.623 96.5742 98.496 97.1094 98.2421 97.582C97.9921 98.0547 97.6132 98.4297 97.1054 98.707C96.5976 98.9805 95.9589 99.1172 95.1894 99.1172C94.0917 99.1172 93.2558 98.8301 92.6816 98.2559C92.1112 97.6777 91.8261 96.9102 91.8261 95.9531V90.4336H93.2323V95.8301C93.2323 96.5449 93.4003 97.0723 93.7362 97.4121C94.0722 97.752 94.5741 97.9219 95.2421 97.9219C95.703 97.9219 96.078 97.8418 96.3671 97.6816C96.6601 97.5176 96.8749 97.2793 97.0116 96.9668C97.1523 96.6504 97.2226 96.2695 97.2226 95.8242V90.4336H98.623ZM106.12 96.668C106.12 97.1758 105.995 97.6133 105.745 97.9805C105.499 98.3477 105.143 98.6289 104.678 98.8242C104.217 99.0195 103.667 99.1172 103.026 99.1172C102.713 99.1172 102.415 99.0996 102.129 99.0645C101.844 99.0293 101.575 98.9785 101.321 98.9121C101.071 98.8418 100.842 98.7578 100.635 98.6602V97.3359C100.983 97.4883 101.372 97.627 101.801 97.752C102.231 97.873 102.669 97.9336 103.114 97.9336C103.477 97.9336 103.778 97.8867 104.016 97.793C104.258 97.6953 104.438 97.5586 104.555 97.3828C104.672 97.2031 104.731 96.9941 104.731 96.7559C104.731 96.502 104.663 96.2871 104.526 96.1113C104.389 95.9355 104.182 95.7754 103.905 95.6309C103.631 95.4824 103.288 95.3242 102.874 95.1562C102.592 95.043 102.323 94.9141 102.065 94.7695C101.811 94.625 101.585 94.4551 101.385 94.2598C101.186 94.0645 101.028 93.834 100.911 93.5684C100.797 93.2988 100.741 92.9824 100.741 92.6191C100.741 92.1348 100.856 91.7207 101.086 91.377C101.321 91.0332 101.649 90.7695 102.071 90.5859C102.497 90.4023 102.993 90.3105 103.559 90.3105C104.008 90.3105 104.43 90.3574 104.825 90.4512C105.223 90.5449 105.614 90.6777 105.997 90.8496L105.551 91.9805C105.2 91.8359 104.858 91.7207 104.526 91.6348C104.198 91.5488 103.862 91.5059 103.518 91.5059C103.221 91.5059 102.969 91.5508 102.762 91.6406C102.555 91.7305 102.397 91.8574 102.288 92.0215C102.182 92.1816 102.129 92.373 102.129 92.5957C102.129 92.8457 102.19 93.0566 102.311 93.2285C102.436 93.3965 102.627 93.5508 102.885 93.6914C103.147 93.832 103.483 93.9883 103.893 94.1602C104.366 94.3555 104.766 94.5605 105.094 94.7754C105.426 94.9902 105.68 95.248 105.856 95.5488C106.032 95.8457 106.12 96.2187 106.12 96.668ZM115.087 94.6348C115.087 95.5996 114.907 96.4062 114.548 97.0547C114.189 97.6992 113.667 98.1855 112.984 98.5137C112.3 98.8379 111.476 99 110.511 99H108.132V90.4336H110.769C111.655 90.4336 112.421 90.5937 113.066 90.9141C113.71 91.2305 114.208 91.7012 114.56 92.3262C114.911 92.9473 115.087 93.7168 115.087 94.6348ZM113.622 94.6758C113.622 93.9727 113.511 93.3945 113.288 92.9414C113.07 92.4883 112.745 92.1523 112.316 91.9336C111.89 91.7109 111.364 91.5996 110.739 91.5996H109.538V97.8223H110.534C111.57 97.8223 112.343 97.5586 112.855 97.0312C113.366 96.5039 113.622 95.7187 113.622 94.6758Z" fill="#4B5563"/>
<path d="M149.296 126.597C149.519 126.761 149.566 127.073 149.403 127.296C149.239 127.519 148.926 127.566 148.704 127.403L149.296 126.597ZM124.5 109V108.5H124.664L124.796 108.597L124.5 109ZM45.6667 109C45.6667 110.473 44.4728 111.667 43 111.667C41.5272 111.667 40.3333 110.473 40.3333 109C40.3333 107.527 41.5272 106.333 43 106.333C44.4728 106.333 45.6667 107.527 45.6667 109ZM148.704 127.403L124.204 109.403L124.796 108.597L149.296 126.597L148.704 127.403ZM124.5 109.5H43V108.5H124.5V109.5Z" fill="white"/>
<path d="M398.661 131.115C393.907 126.367 387.065 122.586 380.614 120.789C376.955 119.769 373.125 119.447 369.34 119.412C367.381 119.391 365.439 119.466 363.49 119.64C362.923 119.692 360.628 120.368 360.286 119.888C359.136 118.275 367.682 117.514 368.61 117.5C372.528 117.431 376.509 117.557 380.337 118.46C386.761 119.962 393.572 122.911 398.615 127.225C401.55 129.737 404.522 132.22 406.873 135.353C407.863 136.672 408.733 138.083 409.456 139.56C409.97 140.608 410.47 141.689 410.847 142.794C411.125 143.611 411.065 144.803 411.461 145.527C412.397 144.402 412.34 142.391 413.224 141.15C414.275 139.677 414.844 141.079 414.718 142.277C414.513 144.182 413.994 146.034 413.564 147.893C413.199 149.48 413.116 151.597 411.121 151.566C409.369 151.54 407.576 150.823 405.888 150.438C404.761 150.178 402.173 150.196 401.635 148.922C399.949 144.952 408.562 148.822 409.263 148.826C409.164 148.153 408.717 147.481 408.503 146.821C408.193 145.87 408.019 144.883 407.702 143.933C407.104 142.141 406.292 140.355 405.35 138.714C403.719 135.869 401.28 133.089 398.664 131.111C396.943 129.393 399.043 131.393 398.664 131.111L398.661 131.115Z" fill="white"/>
<path d="M429.73 78.7051C429.73 79.3652 429.646 79.9668 429.479 80.5098C429.314 81.0488 429.066 81.5137 428.734 81.9043C428.402 82.291 427.986 82.5898 427.486 82.8008C426.986 83.0117 426.4 83.1172 425.729 83.1172C425.045 83.1172 424.451 83.0117 423.947 82.8008C423.447 82.5898 423.031 82.2891 422.699 81.8984C422.371 81.5078 422.125 81.041 421.961 80.498C421.797 79.9551 421.715 79.3535 421.715 78.6934C421.715 77.8105 421.859 77.041 422.148 76.3848C422.441 75.7246 422.885 75.2129 423.479 74.8496C424.076 74.4824 424.83 74.2988 425.74 74.2988C426.631 74.2988 427.371 74.4805 427.961 74.8437C428.551 75.207 428.992 75.7187 429.285 76.3789C429.582 77.0352 429.73 77.8105 429.73 78.7051ZM423.191 78.7051C423.191 79.3652 423.281 79.9375 423.461 80.4219C423.641 80.9023 423.916 81.2734 424.287 81.5352C424.662 81.793 425.143 81.9219 425.729 81.9219C426.318 81.9219 426.799 81.793 427.17 81.5352C427.541 81.2734 427.814 80.9023 427.99 80.4219C428.166 79.9375 428.254 79.3652 428.254 78.7051C428.254 77.7012 428.053 76.916 427.65 76.3496C427.252 75.7793 426.615 75.4941 425.74 75.4941C425.154 75.4941 424.672 75.623 424.293 75.8809C423.918 76.1387 423.641 76.5078 423.461 76.9883C423.281 77.4648 423.191 78.0371 423.191 78.7051ZM435.03 77.5625H433.454V83H432.077V77.5625H431.016V76.9004L432.077 76.4961V76.0449C432.077 75.4941 432.163 75.0566 432.335 74.7324C432.51 74.4082 432.76 74.1758 433.085 74.0352C433.413 73.8906 433.803 73.8184 434.256 73.8184C434.553 73.8184 434.825 73.8437 435.071 73.8945C435.317 73.9414 435.524 73.9961 435.692 74.0586L435.335 75.1016C435.202 75.0586 435.053 75.0195 434.889 74.9844C434.725 74.9453 434.549 74.9258 434.362 74.9258C434.049 74.9258 433.819 75.0234 433.671 75.2187C433.526 75.4141 433.454 75.6992 433.454 76.0742V76.5137H435.03V77.5625ZM439.372 77.5625H437.796V83H436.419V77.5625H435.358V76.9004L436.419 76.4961V76.0449C436.419 75.4941 436.505 75.0566 436.676 74.7324C436.852 74.4082 437.102 74.1758 437.426 74.0352C437.755 73.8906 438.145 73.8184 438.598 73.8184C438.895 73.8184 439.167 73.8437 439.413 73.8945C439.659 73.9414 439.866 73.9961 440.034 74.0586L439.676 75.1016C439.544 75.0586 439.395 75.0195 439.231 74.9844C439.067 74.9453 438.891 74.9258 438.704 74.9258C438.391 74.9258 438.161 75.0234 438.012 75.2187C437.868 75.4141 437.796 75.6992 437.796 76.0742V76.5137H439.372V77.5625ZM445.193 81.1484C445.193 81.5742 445.089 81.9336 444.882 82.2266C444.675 82.5195 444.372 82.7422 443.974 82.8945C443.579 83.043 443.095 83.1172 442.521 83.1172C442.068 83.1172 441.677 83.084 441.349 83.0176C441.025 82.9551 440.718 82.8574 440.429 82.7246V81.5352C440.738 81.6797 441.083 81.8047 441.466 81.9102C441.853 82.0156 442.218 82.0684 442.562 82.0684C443.015 82.0684 443.341 81.998 443.54 81.8574C443.74 81.7129 443.839 81.5215 443.839 81.2832C443.839 81.1426 443.798 81.0176 443.716 80.9082C443.638 80.7949 443.49 80.6797 443.271 80.5625C443.056 80.4414 442.74 80.2969 442.322 80.1289C441.911 79.9648 441.566 79.8008 441.284 79.6367C441.003 79.4727 440.79 79.2754 440.646 79.0449C440.501 78.8105 440.429 78.5117 440.429 78.1484C440.429 77.5742 440.656 77.1387 441.109 76.8418C441.566 76.541 442.169 76.3906 442.919 76.3906C443.318 76.3906 443.693 76.4316 444.044 76.5137C444.4 76.5918 444.747 76.707 445.087 76.8594L444.654 77.8965C444.361 77.7676 444.066 77.6621 443.769 77.5801C443.476 77.4941 443.177 77.4512 442.872 77.4512C442.517 77.4512 442.245 77.5059 442.058 77.6152C441.874 77.7246 441.782 77.8809 441.782 78.084C441.782 78.2363 441.827 78.3652 441.917 78.4707C442.007 78.5762 442.161 78.6816 442.38 78.7871C442.603 78.8926 442.911 79.0234 443.306 79.1797C443.693 79.3281 444.027 79.4844 444.308 79.6484C444.593 79.8086 444.812 80.0059 444.964 80.2402C445.116 80.4746 445.193 80.7773 445.193 81.1484ZM449.625 76.3906C450.203 76.3906 450.699 76.5098 451.113 76.748C451.527 76.9863 451.846 77.3242 452.068 77.7617C452.291 78.1992 452.402 78.7227 452.402 79.332V80.0703H448.072C448.088 80.6992 448.256 81.1836 448.576 81.5234C448.9 81.8633 449.353 82.0332 449.935 82.0332C450.35 82.0332 450.721 81.9941 451.049 81.916C451.381 81.834 451.723 81.7148 452.074 81.5586V82.6777C451.75 82.8301 451.42 82.9414 451.084 83.0117C450.748 83.082 450.346 83.1172 449.877 83.1172C449.24 83.1172 448.68 82.9941 448.195 82.748C447.715 82.498 447.338 82.127 447.064 81.6348C446.795 81.1426 446.66 80.5312 446.66 79.8008C446.66 79.0742 446.783 78.457 447.029 77.9492C447.275 77.4414 447.621 77.0547 448.066 76.7891C448.512 76.5234 449.031 76.3906 449.625 76.3906ZM449.625 77.4277C449.191 77.4277 448.84 77.5684 448.57 77.8496C448.305 78.1309 448.148 78.543 448.101 79.0859H451.055C451.051 78.7617 450.996 78.4746 450.891 78.2246C450.789 77.9746 450.633 77.7793 450.422 77.6387C450.215 77.498 449.949 77.4277 449.625 77.4277ZM456.729 82.0039C456.909 82.0039 457.086 81.9883 457.262 81.957C457.438 81.9219 457.598 81.8809 457.743 81.834V82.877C457.59 82.9434 457.393 83 457.151 83.0469C456.909 83.0937 456.657 83.1172 456.395 83.1172C456.028 83.1172 455.698 83.0566 455.405 82.9355C455.112 82.8105 454.879 82.5977 454.708 82.2969C454.536 81.9961 454.45 81.5801 454.45 81.0488V77.5625H453.565V76.9473L454.514 76.4609L454.965 75.0723H455.833V76.5137H457.69V77.5625H455.833V81.0312C455.833 81.3594 455.915 81.6035 456.079 81.7637C456.243 81.9238 456.46 82.0039 456.729 82.0039ZM466.502 83H465.119V77.4863C465.119 77.3027 465.121 77.1191 465.125 76.9355C465.129 76.752 465.133 76.5723 465.137 76.3965C465.144 76.2207 465.154 76.0527 465.166 75.8926C465.084 75.9824 464.982 76.0801 464.861 76.1855C464.744 76.291 464.619 76.4004 464.486 76.5137L463.502 77.2988L462.81 76.4258L465.353 74.4336H466.502V83ZM476.216 83.1172C475.603 83.1172 475.071 82.998 474.622 82.7598C474.173 82.5215 473.827 82.1562 473.585 81.6641C473.343 81.1719 473.222 80.5469 473.222 79.7891C473.222 79 473.355 78.3555 473.62 77.8555C473.886 77.3555 474.253 76.9863 474.722 76.748C475.194 76.5098 475.735 76.3906 476.345 76.3906C476.732 76.3906 477.081 76.4297 477.394 76.5078C477.71 76.582 477.978 76.6738 478.196 76.7832L477.786 77.8848C477.548 77.7871 477.304 77.7051 477.054 77.6387C476.804 77.5723 476.564 77.5391 476.333 77.5391C475.954 77.5391 475.638 77.623 475.384 77.791C475.134 77.959 474.946 78.209 474.821 78.541C474.7 78.873 474.64 79.2852 474.64 79.7773C474.64 80.2539 474.702 80.6562 474.827 80.9844C474.952 81.3086 475.138 81.5547 475.384 81.7227C475.63 81.8867 475.933 81.9687 476.292 81.9687C476.648 81.9687 476.966 81.9258 477.247 81.8398C477.528 81.7539 477.794 81.6426 478.044 81.5059V82.7012C477.798 82.8418 477.534 82.9453 477.253 83.0117C476.972 83.082 476.626 83.1172 476.216 83.1172ZM482.47 76.3906C483.291 76.3906 483.91 76.5723 484.328 76.9355C484.75 77.2988 484.961 77.8652 484.961 78.6348V83H483.982L483.719 82.0801H483.672C483.488 82.3145 483.299 82.5078 483.103 82.6602C482.908 82.8125 482.681 82.9258 482.424 83C482.17 83.0781 481.859 83.1172 481.492 83.1172C481.105 83.1172 480.76 83.0469 480.455 82.9062C480.15 82.7617 479.91 82.543 479.734 82.25C479.558 81.957 479.47 81.5859 479.47 81.1367C479.47 80.4687 479.719 79.9668 480.215 79.6309C480.715 79.2949 481.469 79.1094 482.476 79.0742L483.601 79.0332V78.6934C483.601 78.2441 483.496 77.9238 483.285 77.7324C483.078 77.541 482.785 77.4453 482.406 77.4453C482.082 77.4453 481.767 77.4922 481.463 77.5859C481.158 77.6797 480.861 77.7949 480.572 77.9316L480.127 76.959C480.443 76.791 480.802 76.6543 481.205 76.5488C481.611 76.4434 482.033 76.3906 482.47 76.3906ZM483.595 79.9004L482.758 79.9297C482.07 79.9531 481.588 80.0703 481.31 80.2812C481.033 80.4922 480.894 80.7812 480.894 81.1484C480.894 81.4687 480.99 81.7031 481.181 81.8516C481.373 81.9961 481.625 82.0684 481.937 82.0684C482.414 82.0684 482.808 81.9336 483.121 81.6641C483.437 81.3906 483.595 80.9902 483.595 80.4629V79.9004ZM490.536 76.3906C490.645 76.3906 490.764 76.3965 490.893 76.4082C491.022 76.4199 491.133 76.4355 491.227 76.4551L491.098 77.7441C491.016 77.7207 490.914 77.7031 490.793 77.6914C490.676 77.6797 490.571 77.6738 490.477 77.6738C490.231 77.6738 489.996 77.7148 489.774 77.7969C489.551 77.875 489.354 77.9961 489.182 78.1602C489.01 78.3203 488.875 78.5215 488.778 78.7637C488.68 79.0059 488.631 79.2871 488.631 79.6074V83H487.248V76.5137H488.327L488.514 77.6562H488.579C488.707 77.4258 488.868 77.2148 489.059 77.0234C489.25 76.832 489.469 76.6797 489.715 76.5664C489.965 76.4492 490.239 76.3906 490.536 76.3906ZM494.165 73.8828V76.0801C494.165 76.334 494.157 76.584 494.142 76.8301C494.13 77.0723 494.118 77.2617 494.106 77.3984H494.165C494.341 77.1172 494.585 76.8809 494.897 76.6895C495.214 76.4941 495.618 76.3965 496.11 76.3965C496.88 76.3965 497.499 76.6797 497.968 77.2461C498.437 77.8086 498.671 78.6426 498.671 79.748C498.671 80.4824 498.564 81.0996 498.349 81.5996C498.134 82.0996 497.831 82.4785 497.44 82.7363C497.054 82.9902 496.599 83.1172 496.075 83.1172C495.583 83.1172 495.185 83.0273 494.88 82.8477C494.579 82.6641 494.343 82.4512 494.171 82.209H494.071L493.819 83H492.788V73.8828H494.165ZM495.747 77.5156C495.356 77.5156 495.046 77.5937 494.815 77.75C494.589 77.9062 494.425 78.1406 494.323 78.4531C494.222 78.7617 494.169 79.1543 494.165 79.6309V79.7539C494.165 80.4766 494.278 81.0293 494.505 81.4121C494.735 81.7949 495.153 81.9863 495.759 81.9863C496.239 81.9863 496.608 81.793 496.866 81.4062C497.124 81.0156 497.253 80.457 497.253 79.7305C497.253 78.9961 497.124 78.4434 496.866 78.0723C496.612 77.7012 496.239 77.5156 495.747 77.5156ZM506.367 79.7422C506.367 80.2812 506.297 80.7598 506.156 81.1777C506.015 81.5957 505.81 81.9492 505.541 82.2383C505.271 82.5234 504.947 82.7422 504.568 82.8945C504.189 83.043 503.761 83.1172 503.285 83.1172C502.84 83.1172 502.431 83.043 502.06 82.8945C501.689 82.7422 501.367 82.5234 501.093 82.2383C500.824 81.9492 500.615 81.5957 500.466 81.1777C500.318 80.7598 500.244 80.2812 500.244 79.7422C500.244 79.0273 500.367 78.4219 500.613 77.9258C500.863 77.4258 501.218 77.0449 501.679 76.7832C502.14 76.5215 502.689 76.3906 503.326 76.3906C503.924 76.3906 504.451 76.5215 504.908 76.7832C505.365 77.0449 505.722 77.4258 505.98 77.9258C506.238 78.4258 506.367 79.0312 506.367 79.7422ZM501.662 79.7422C501.662 80.2148 501.718 80.6191 501.832 80.9551C501.949 81.291 502.129 81.5488 502.371 81.7285C502.613 81.9043 502.925 81.9922 503.308 81.9922C503.691 81.9922 504.004 81.9043 504.246 81.7285C504.488 81.5488 504.666 81.291 504.779 80.9551C504.892 80.6191 504.949 80.2148 504.949 79.7422C504.949 79.2695 504.892 78.8691 504.779 78.541C504.666 78.209 504.488 77.957 504.246 77.7852C504.004 77.6094 503.689 77.5215 503.302 77.5215C502.732 77.5215 502.316 77.7129 502.054 78.0957C501.793 78.4785 501.662 79.0273 501.662 79.7422ZM511.69 76.3906C512.42 76.3906 512.989 76.5801 513.395 76.959C513.805 77.334 514.01 77.9375 514.01 78.7695V83H512.633V79.0273C512.633 78.5234 512.53 78.1465 512.323 77.8965C512.116 77.6426 511.795 77.5156 511.362 77.5156C510.733 77.5156 510.295 77.709 510.049 78.0957C509.807 78.4824 509.686 79.043 509.686 79.7773V83H508.309V76.5137H509.381L509.575 77.3926H509.651C509.791 77.166 509.965 76.9805 510.172 76.8359C510.383 76.6875 510.617 76.5762 510.875 76.502C511.137 76.4277 511.409 76.3906 511.69 76.3906ZM522.189 82.0039C522.369 82.0039 522.546 81.9883 522.722 81.957C522.898 81.9219 523.058 81.8809 523.203 81.834V82.877C523.05 82.9434 522.853 83 522.611 83.0469C522.369 83.0937 522.117 83.1172 521.855 83.1172C521.488 83.1172 521.158 83.0566 520.865 82.9355C520.572 82.8105 520.339 82.5977 520.168 82.2969C519.996 81.9961 519.91 81.5801 519.91 81.0488V77.5625H519.025V76.9473L519.974 76.4609L520.425 75.0723H521.293V76.5137H523.15V77.5625H521.293V81.0312C521.293 81.3594 521.375 81.6035 521.539 81.7637C521.703 81.9238 521.92 82.0039 522.189 82.0039ZM530.623 79.7422C530.623 80.2812 530.553 80.7598 530.412 81.1777C530.272 81.5957 530.067 81.9492 529.797 82.2383C529.528 82.5234 529.203 82.7422 528.824 82.8945C528.446 83.043 528.018 83.1172 527.541 83.1172C527.096 83.1172 526.688 83.043 526.317 82.8945C525.946 82.7422 525.623 82.5234 525.35 82.2383C525.08 81.9492 524.871 81.5957 524.723 81.1777C524.574 80.7598 524.5 80.2812 524.5 79.7422C524.5 79.0273 524.623 78.4219 524.869 77.9258C525.119 77.4258 525.475 77.0449 525.936 76.7832C526.397 76.5215 526.946 76.3906 527.582 76.3906C528.18 76.3906 528.707 76.5215 529.164 76.7832C529.621 77.0449 529.979 77.4258 530.237 77.9258C530.494 78.4258 530.623 79.0312 530.623 79.7422ZM525.918 79.7422C525.918 80.2148 525.975 80.6191 526.088 80.9551C526.205 81.291 526.385 81.5488 526.627 81.7285C526.869 81.9043 527.182 81.9922 527.565 81.9922C527.947 81.9922 528.26 81.9043 528.502 81.7285C528.744 81.5488 528.922 81.291 529.035 80.9551C529.149 80.6191 529.205 80.2148 529.205 79.7422C529.205 79.2695 529.149 78.8691 529.035 78.541C528.922 78.209 528.744 77.957 528.502 77.7852C528.26 77.6094 527.946 77.5215 527.559 77.5215C526.989 77.5215 526.572 77.7129 526.311 78.0957C526.049 78.4785 525.918 79.0273 525.918 79.7422ZM533.942 73.8828V78.2891C533.942 78.4883 533.934 78.707 533.919 78.9453C533.903 79.1797 533.888 79.4004 533.872 79.6074H533.901C534.003 79.4707 534.124 79.3105 534.265 79.127C534.409 78.9434 534.546 78.7832 534.675 78.6465L536.655 76.5137H538.237L535.641 79.3027L538.407 83H536.79L534.716 80.1523L533.942 80.8145V83H532.565V73.8828H533.942ZM542.388 76.3906C542.966 76.3906 543.462 76.5098 543.876 76.748C544.291 76.9863 544.609 77.3242 544.832 77.7617C545.054 78.1992 545.166 78.7227 545.166 79.332V80.0703H540.835C540.851 80.6992 541.019 81.1836 541.339 81.5234C541.664 81.8633 542.117 82.0332 542.699 82.0332C543.113 82.0332 543.484 81.9941 543.812 81.916C544.144 81.834 544.486 81.7148 544.837 81.5586V82.6777C544.513 82.8301 544.183 82.9414 543.847 83.0117C543.511 83.082 543.109 83.1172 542.64 83.1172C542.003 83.1172 541.443 82.9941 540.959 82.748C540.478 82.498 540.101 82.127 539.828 81.6348C539.558 81.1426 539.423 80.5312 539.423 79.8008C539.423 79.0742 539.546 78.457 539.792 77.9492C540.039 77.4414 540.384 77.0547 540.83 76.7891C541.275 76.5234 541.794 76.3906 542.388 76.3906ZM542.388 77.4277C541.955 77.4277 541.603 77.5684 541.334 77.8496C541.068 78.1309 540.912 78.543 540.865 79.0859H543.818C543.814 78.7617 543.759 78.4746 543.654 78.2246C543.552 77.9746 543.396 77.7793 543.185 77.6387C542.978 77.498 542.712 77.4277 542.388 77.4277ZM550.459 76.3906C551.19 76.3906 551.758 76.5801 552.164 76.959C552.574 77.334 552.779 77.9375 552.779 78.7695V83H551.402V79.0273C551.402 78.5234 551.299 78.1465 551.092 77.8965C550.885 77.6426 550.565 77.5156 550.131 77.5156C549.502 77.5156 549.065 77.709 548.819 78.0957C548.576 78.4824 548.455 79.043 548.455 79.7773V83H547.078V76.5137H548.151L548.344 77.3926H548.42C548.561 77.166 548.735 76.9805 548.942 76.8359C549.152 76.6875 549.387 76.5762 549.645 76.502C549.906 76.4277 550.178 76.3906 550.459 76.3906ZM425.588 99H424.205V93.4863C424.205 93.3027 424.207 93.1191 424.211 92.9355C424.215 92.752 424.219 92.5723 424.223 92.3965C424.23 92.2207 424.24 92.0527 424.252 91.8926C424.17 91.9824 424.068 92.0801 423.947 92.1855C423.83 92.291 423.705 92.4004 423.572 92.5137L422.588 93.2988L421.896 92.4258L424.439 90.4336H425.588V99ZM435.302 99.1172C434.689 99.1172 434.157 98.998 433.708 98.7598C433.259 98.5215 432.913 98.1562 432.671 97.6641C432.429 97.1719 432.308 96.5469 432.308 95.7891C432.308 95 432.441 94.3555 432.706 93.8555C432.972 93.3555 433.339 92.9863 433.808 92.748C434.281 92.5098 434.822 92.3906 435.431 92.3906C435.818 92.3906 436.167 92.4297 436.48 92.5078C436.796 92.582 437.064 92.6738 437.282 92.7832L436.872 93.8848C436.634 93.7871 436.39 93.7051 436.14 93.6387C435.89 93.5723 435.65 93.5391 435.419 93.5391C435.04 93.5391 434.724 93.623 434.47 93.791C434.22 93.959 434.032 94.209 433.907 94.541C433.786 94.873 433.726 95.2852 433.726 95.7773C433.726 96.2539 433.788 96.6562 433.913 96.9844C434.038 97.3086 434.224 97.5547 434.47 97.7227C434.716 97.8867 435.019 97.9687 435.378 97.9687C435.734 97.9687 436.052 97.9258 436.333 97.8398C436.615 97.7539 436.88 97.6426 437.13 97.5059V98.7012C436.884 98.8418 436.62 98.9453 436.339 99.0117C436.058 99.082 435.712 99.1172 435.302 99.1172ZM441.557 92.3906C442.377 92.3906 442.996 92.5723 443.414 92.9355C443.836 93.2988 444.047 93.8652 444.047 94.6348V99H443.068L442.805 98.0801H442.758C442.574 98.3145 442.385 98.5078 442.189 98.6602C441.994 98.8125 441.767 98.9258 441.51 99C441.256 99.0781 440.945 99.1172 440.578 99.1172C440.191 99.1172 439.846 99.0469 439.541 98.9062C439.236 98.7617 438.996 98.543 438.82 98.25C438.644 97.957 438.557 97.5859 438.557 97.1367C438.557 96.4687 438.805 95.9668 439.301 95.6309C439.801 95.2949 440.555 95.1094 441.562 95.0742L442.687 95.0332V94.6934C442.687 94.2441 442.582 93.9238 442.371 93.7324C442.164 93.541 441.871 93.4453 441.492 93.4453C441.168 93.4453 440.853 93.4922 440.549 93.5859C440.244 93.6797 439.947 93.7949 439.658 93.9316L439.213 92.959C439.529 92.791 439.889 92.6543 440.291 92.5488C440.697 92.4434 441.119 92.3906 441.557 92.3906ZM442.682 95.9004L441.844 95.9297C441.156 95.9531 440.674 96.0703 440.396 96.2812C440.119 96.4922 439.98 96.7812 439.98 97.1484C439.98 97.4687 440.076 97.7031 440.267 97.8516C440.459 97.9961 440.711 98.0684 441.023 98.0684C441.5 98.0684 441.894 97.9336 442.207 97.6641C442.523 97.3906 442.682 96.9902 442.682 96.4629V95.9004ZM449.622 92.3906C449.731 92.3906 449.85 92.3965 449.979 92.4082C450.108 92.4199 450.219 92.4355 450.313 92.4551L450.184 93.7441C450.102 93.7207 450.001 93.7031 449.879 93.6914C449.762 93.6797 449.657 93.6738 449.563 93.6738C449.317 93.6738 449.083 93.7148 448.86 93.7969C448.637 93.875 448.44 93.9961 448.268 94.1602C448.096 94.3203 447.961 94.5215 447.864 94.7637C447.766 95.0059 447.717 95.2871 447.717 95.6074V99H446.335V92.5137H447.413L447.6 93.6562H447.665C447.794 93.4258 447.954 93.2148 448.145 93.0234C448.336 92.832 448.555 92.6797 448.801 92.5664C449.051 92.4492 449.325 92.3906 449.622 92.3906ZM453.251 89.8828V92.0801C453.251 92.334 453.243 92.584 453.228 92.8301C453.216 93.0723 453.204 93.2617 453.193 93.3984H453.251C453.427 93.1172 453.671 92.8809 453.984 92.6895C454.3 92.4941 454.704 92.3965 455.196 92.3965C455.966 92.3965 456.585 92.6797 457.054 93.2461C457.523 93.8086 457.757 94.6426 457.757 95.748C457.757 96.4824 457.65 97.0996 457.435 97.5996C457.22 98.0996 456.917 98.4785 456.527 98.7363C456.14 98.9902 455.685 99.1172 455.161 99.1172C454.669 99.1172 454.271 99.0273 453.966 98.8477C453.665 98.6641 453.429 98.4512 453.257 98.209H453.157L452.905 99H451.874V89.8828H453.251ZM454.833 93.5156C454.443 93.5156 454.132 93.5937 453.902 93.75C453.675 93.9062 453.511 94.1406 453.409 94.4531C453.308 94.7617 453.255 95.1543 453.251 95.6309V95.7539C453.251 96.4766 453.364 97.0293 453.591 97.4121C453.821 97.7949 454.239 97.9863 454.845 97.9863C455.325 97.9863 455.695 97.793 455.952 97.4062C456.21 97.0156 456.339 96.457 456.339 95.7305C456.339 94.9961 456.21 94.4434 455.952 94.0723C455.698 93.7012 455.325 93.5156 454.833 93.5156ZM465.453 95.7422C465.453 96.2812 465.383 96.7598 465.242 97.1777C465.101 97.5957 464.896 97.9492 464.627 98.2383C464.357 98.5234 464.033 98.7422 463.654 98.8945C463.275 99.043 462.847 99.1172 462.371 99.1172C461.926 99.1172 461.517 99.043 461.146 98.8945C460.775 98.7422 460.453 98.5234 460.18 98.2383C459.91 97.9492 459.701 97.5957 459.553 97.1777C459.404 96.7598 459.33 96.2812 459.33 95.7422C459.33 95.0273 459.453 94.4219 459.699 93.9258C459.949 93.4258 460.305 93.0449 460.765 92.7832C461.226 92.5215 461.775 92.3906 462.412 92.3906C463.01 92.3906 463.537 92.5215 463.994 92.7832C464.451 93.0449 464.808 93.4258 465.066 93.9258C465.324 94.4258 465.453 95.0312 465.453 95.7422ZM460.748 95.7422C460.748 96.2148 460.805 96.6191 460.918 96.9551C461.035 97.291 461.215 97.5488 461.457 97.7285C461.699 97.9043 462.012 97.9922 462.394 97.9922C462.777 97.9922 463.09 97.9043 463.332 97.7285C463.574 97.5488 463.752 97.291 463.865 96.9551C463.978 96.6191 464.035 96.2148 464.035 95.7422C464.035 95.2695 463.978 94.8691 463.865 94.541C463.752 94.209 463.574 93.957 463.332 93.7852C463.09 93.6094 462.775 93.5215 462.389 93.5215C461.818 93.5215 461.402 93.7129 461.14 94.0957C460.879 94.4785 460.748 95.0273 460.748 95.7422ZM470.776 92.3906C471.506 92.3906 472.075 92.5801 472.481 92.959C472.891 93.334 473.096 93.9375 473.096 94.7695V99H471.719V95.0273C471.719 94.5234 471.616 94.1465 471.409 93.8965C471.202 93.6426 470.881 93.5156 470.448 93.5156C469.819 93.5156 469.381 93.709 469.135 94.0957C468.893 94.4824 468.772 95.043 468.772 95.7773V99H467.395V92.5137H468.467L468.661 93.3926H468.737C468.877 93.166 469.051 92.9805 469.258 92.8359C469.469 92.6875 469.704 92.5762 469.961 92.502C470.223 92.4277 470.495 92.3906 470.776 92.3906ZM481.275 98.0039C481.455 98.0039 481.633 97.9883 481.808 97.957C481.984 97.9219 482.144 97.8809 482.289 97.834V98.877C482.136 98.9434 481.939 99 481.697 99.0469C481.455 99.0937 481.203 99.1172 480.941 99.1172C480.574 99.1172 480.244 99.0566 479.951 98.9355C479.658 98.8105 479.426 98.5977 479.254 98.2969C479.082 97.9961 478.996 97.5801 478.996 97.0488V93.5625H478.111V92.9473L479.06 92.4609L479.511 91.0723H480.379V92.5137H482.236V93.5625H480.379V97.0312C480.379 97.3594 480.461 97.6035 480.625 97.7637C480.789 97.9238 481.006 98.0039 481.275 98.0039ZM489.709 95.7422C489.709 96.2812 489.639 96.7598 489.498 97.1777C489.358 97.5957 489.153 97.9492 488.883 98.2383C488.614 98.5234 488.289 98.7422 487.911 98.8945C487.532 99.043 487.104 99.1172 486.627 99.1172C486.182 99.1172 485.774 99.043 485.403 98.8945C485.032 98.7422 484.709 98.5234 484.436 98.2383C484.166 97.9492 483.957 97.5957 483.809 97.1777C483.661 96.7598 483.586 96.2812 483.586 95.7422C483.586 95.0273 483.709 94.4219 483.955 93.9258C484.205 93.4258 484.561 93.0449 485.022 92.7832C485.483 92.5215 486.032 92.3906 486.668 92.3906C487.266 92.3906 487.793 92.5215 488.25 92.7832C488.707 93.0449 489.065 93.4258 489.323 93.9258C489.58 94.4258 489.709 95.0312 489.709 95.7422ZM485.004 95.7422C485.004 96.2148 485.061 96.6191 485.174 96.9551C485.291 97.291 485.471 97.5488 485.713 97.7285C485.955 97.9043 486.268 97.9922 486.651 97.9922C487.034 97.9922 487.346 97.9043 487.588 97.7285C487.83 97.5488 488.008 97.291 488.121 96.9551C488.235 96.6191 488.291 96.2148 488.291 95.7422C488.291 95.2695 488.235 94.8691 488.121 94.541C488.008 94.209 487.83 93.957 487.588 93.7852C487.346 93.6094 487.032 93.5215 486.645 93.5215C486.075 93.5215 485.659 93.7129 485.397 94.0957C485.135 94.4785 485.004 95.0273 485.004 95.7422ZM493.028 89.8828V94.2891C493.028 94.4883 493.021 94.707 493.005 94.9453C492.989 95.1797 492.974 95.4004 492.958 95.6074H492.987C493.089 95.4707 493.21 95.3105 493.351 95.127C493.495 94.9434 493.632 94.7832 493.761 94.6465L495.741 92.5137H497.323L494.728 95.3027L497.493 99H495.876L493.802 96.1523L493.028 96.8145V99H491.651V89.8828H493.028ZM501.474 92.3906C502.052 92.3906 502.549 92.5098 502.963 92.748C503.377 92.9863 503.695 93.3242 503.918 93.7617C504.14 94.1992 504.252 94.7227 504.252 95.332V96.0703H499.922C499.937 96.6992 500.105 97.1836 500.425 97.5234C500.75 97.8633 501.203 98.0332 501.785 98.0332C502.199 98.0332 502.57 97.9941 502.898 97.916C503.23 97.834 503.572 97.7148 503.924 97.5586V98.6777C503.599 98.8301 503.269 98.9414 502.933 99.0117C502.597 99.082 502.195 99.1172 501.726 99.1172C501.09 99.1172 500.529 98.9941 500.045 98.748C499.564 98.498 499.187 98.127 498.914 97.6348C498.644 97.1426 498.509 96.5312 498.509 95.8008C498.509 95.0742 498.632 94.457 498.879 93.9492C499.125 93.4414 499.47 93.0547 499.916 92.7891C500.361 92.5234 500.881 92.3906 501.474 92.3906ZM501.474 93.4277C501.041 93.4277 500.689 93.5684 500.42 93.8496C500.154 94.1309 499.998 94.543 499.951 95.0859H502.904C502.9 94.7617 502.845 94.4746 502.74 94.2246C502.638 93.9746 502.482 93.7793 502.271 93.6387C502.064 93.498 501.799 93.4277 501.474 93.4277ZM509.545 92.3906C510.276 92.3906 510.844 92.5801 511.25 92.959C511.66 93.334 511.866 93.9375 511.866 94.7695V99H510.489V95.0273C510.489 94.5234 510.385 94.1465 510.178 93.8965C509.971 93.6426 509.651 93.5156 509.217 93.5156C508.588 93.5156 508.151 93.709 507.905 94.0957C507.662 94.4824 507.541 95.043 507.541 95.7773V99H506.164V92.5137H507.237L507.43 93.3926H507.506C507.647 93.166 507.821 92.9805 508.028 92.8359C508.239 92.6875 508.473 92.5762 508.731 92.502C508.992 92.4277 509.264 92.3906 509.545 92.3906ZM517.244 94.1191V93.0879H522.898V94.1191H517.244ZM517.244 96.457V95.4199H522.898V96.457H517.244ZM531.938 99H530.556V93.4863C530.556 93.3027 530.557 93.1191 530.561 92.9355C530.565 92.752 530.569 92.5723 530.573 92.3965C530.581 92.2207 530.591 92.0527 530.602 91.8926C530.52 91.9824 530.419 92.0801 530.298 92.1855C530.181 92.291 530.056 92.4004 529.923 92.5137L528.938 93.2988L528.247 92.4258L530.79 90.4336H531.938V99ZM541.453 98.0039C541.633 98.0039 541.811 97.9883 541.986 97.957C542.162 97.9219 542.322 97.8809 542.467 97.834V98.877C542.315 98.9434 542.117 99 541.875 99.0469C541.633 99.0937 541.381 99.1172 541.119 99.1172C540.752 99.1172 540.422 99.0566 540.129 98.9355C539.836 98.8105 539.604 98.5977 539.432 98.2969C539.26 97.9961 539.174 97.5801 539.174 97.0488V93.5625H538.289V92.9473L539.238 92.4609L539.69 91.0723H540.557V92.5137H542.414V93.5625H540.557V97.0312C540.557 97.3594 540.639 97.6035 540.803 97.7637C540.967 97.9238 541.184 98.0039 541.453 98.0039ZM549.887 95.7422C549.887 96.2812 549.817 96.7598 549.677 97.1777C549.536 97.5957 549.331 97.9492 549.061 98.2383C548.792 98.5234 548.468 98.7422 548.089 98.8945C547.71 99.043 547.282 99.1172 546.805 99.1172C546.36 99.1172 545.952 99.043 545.581 98.8945C545.21 98.7422 544.887 98.5234 544.614 98.2383C544.345 97.9492 544.136 97.5957 543.987 97.1777C543.839 96.7598 543.764 96.2812 543.764 95.7422C543.764 95.0273 543.887 94.4219 544.134 93.9258C544.384 93.4258 544.739 93.0449 545.2 92.7832C545.661 92.5215 546.21 92.3906 546.846 92.3906C547.444 92.3906 547.971 92.5215 548.429 92.7832C548.886 93.0449 549.243 93.4258 549.501 93.9258C549.759 94.4258 549.887 95.0312 549.887 95.7422ZM545.182 95.7422C545.182 96.2148 545.239 96.6191 545.352 96.9551C545.47 97.291 545.649 97.5488 545.891 97.7285C546.134 97.9043 546.446 97.9922 546.829 97.9922C547.212 97.9922 547.524 97.9043 547.766 97.7285C548.009 97.5488 548.186 97.291 548.3 96.9551C548.413 96.6191 548.47 96.2148 548.47 95.7422C548.47 95.2695 548.413 94.8691 548.3 94.541C548.186 94.209 548.009 93.957 547.766 93.7852C547.524 93.6094 547.21 93.5215 546.823 93.5215C546.253 93.5215 545.837 93.7129 545.575 94.0957C545.313 94.4785 545.182 95.0273 545.182 95.7422ZM555.21 92.3906C555.941 92.3906 556.509 92.5801 556.915 92.959C557.326 93.334 557.531 93.9375 557.531 94.7695V99H556.154V95.0273C556.154 94.5234 556.05 94.1465 555.843 93.8965C555.636 93.6426 555.316 93.5156 554.882 93.5156C554.253 93.5156 553.816 93.709 553.57 94.0957C553.328 94.4824 553.206 95.043 553.206 95.7773V99H551.83V92.5137H552.902L553.095 93.3926H553.171C553.312 93.166 553.486 92.9805 553.693 92.8359C553.904 92.6875 554.138 92.5762 554.396 92.502C554.658 92.4277 554.929 92.3906 555.21 92.3906ZM567.087 91.5059C566.676 91.5059 566.309 91.5801 565.985 91.7285C565.665 91.877 565.393 92.0918 565.171 92.373C564.948 92.6504 564.778 92.9883 564.661 93.3867C564.544 93.7812 564.485 94.2266 564.485 94.7227C564.485 95.3867 564.579 95.959 564.766 96.4395C564.954 96.916 565.239 97.2832 565.622 97.541C566.005 97.7949 566.489 97.9219 567.075 97.9219C567.438 97.9219 567.792 97.8867 568.135 97.8164C568.479 97.7461 568.835 97.6504 569.202 97.5293V98.7246C568.854 98.8613 568.503 98.9609 568.147 99.0234C567.792 99.0859 567.382 99.1172 566.917 99.1172C566.042 99.1172 565.315 98.9355 564.737 98.5723C564.163 98.209 563.733 97.6973 563.448 97.0371C563.167 96.377 563.026 95.6035 563.026 94.7168C563.026 94.0684 563.116 93.4746 563.296 92.9355C563.475 92.3965 563.737 91.9316 564.081 91.541C564.425 91.1465 564.848 90.8437 565.352 90.6328C565.86 90.418 566.44 90.3105 567.092 90.3105C567.522 90.3105 567.944 90.3594 568.358 90.457C568.776 90.5508 569.163 90.6855 569.518 90.8613L569.026 92.0215C568.729 91.8809 568.419 91.7598 568.094 91.6582C567.77 91.5566 567.434 91.5059 567.087 91.5059ZM579.007 94.7051C579.007 95.3652 578.923 95.9668 578.755 96.5098C578.591 97.0488 578.343 97.5137 578.011 97.9043C577.679 98.291 577.263 98.5898 576.763 98.8008C576.263 99.0117 575.677 99.1172 575.005 99.1172C574.322 99.1172 573.728 99.0117 573.224 98.8008C572.724 98.5898 572.308 98.2891 571.976 97.8984C571.648 97.5078 571.402 97.041 571.238 96.498C571.074 95.9551 570.992 95.3535 570.992 94.6934C570.992 93.8105 571.136 93.041 571.425 92.3848C571.718 91.7246 572.161 91.2129 572.755 90.8496C573.353 90.4824 574.107 90.2988 575.017 90.2988C575.908 90.2988 576.648 90.4805 577.238 90.8437C577.827 91.207 578.269 91.7187 578.562 92.3789C578.859 93.0352 579.007 93.8105 579.007 94.7051ZM572.468 94.7051C572.468 95.3652 572.558 95.9375 572.738 96.4219C572.917 96.9023 573.193 97.2734 573.564 97.5352C573.939 97.793 574.419 97.9219 575.005 97.9219C575.595 97.9219 576.076 97.793 576.447 97.5352C576.818 97.2734 577.091 96.9023 577.267 96.4219C577.443 95.9375 577.531 95.3652 577.531 94.7051C577.531 93.7012 577.329 92.916 576.927 92.3496C576.529 91.7793 575.892 91.4941 575.017 91.4941C574.431 91.4941 573.949 91.623 573.57 91.8809C573.195 92.1387 572.917 92.5078 572.738 92.9883C572.558 93.4648 572.468 94.0371 572.468 94.7051ZM586.422 99H580.621V97.9629L582.842 95.7129C583.271 95.2754 583.625 94.8984 583.902 94.582C584.18 94.2617 584.385 93.959 584.518 93.6738C584.654 93.3887 584.723 93.0781 584.723 92.7422C584.723 92.3281 584.604 92.0156 584.365 91.8047C584.127 91.5898 583.812 91.4824 583.422 91.4824C583.051 91.4824 582.707 91.5566 582.391 91.7051C582.078 91.8496 581.754 92.0566 581.418 92.3262L580.662 91.418C580.9 91.2148 581.154 91.0293 581.424 90.8613C581.697 90.6934 582.002 90.5605 582.338 90.4629C582.674 90.3613 583.057 90.3105 583.486 90.3105C584.029 90.3105 584.498 90.4082 584.893 90.6035C585.287 90.7949 585.59 91.0625 585.801 91.4062C586.016 91.75 586.123 92.1504 586.123 92.6074C586.123 93.0684 586.031 93.4941 585.848 93.8848C585.664 94.2754 585.402 94.6621 585.062 95.0449C584.723 95.4238 584.318 95.8359 583.85 96.2812L582.367 97.7285V97.793H586.422V99Z" fill="#4B5563"/>
<path d="M396.704 126.597C396.481 126.761 396.434 127.073 396.597 127.296C396.761 127.519 397.074 127.566 397.296 127.403L396.704 126.597ZM421.5 109V108.5H421.336L421.204 108.597L421.5 109ZM583.333 109C583.333 110.473 584.527 111.667 586 111.667C587.473 111.667 588.667 110.473 588.667 109C588.667 107.527 587.473 106.333 586 106.333C584.527 106.333 583.333 107.527 583.333 109ZM397.296 127.403L421.796 109.403L421.204 108.597L396.704 126.597L397.296 127.403ZM421.5 109.5H586V108.5H421.5V109.5Z" fill="white"/>
<defs>
<filter id="filter0_d_2028_73897" x="0" y="145" width="169" height="169" filterUnits="userSpaceOnUse" color-interpolation-filters="sRGB">
<feFlood flood-opacity="0" result="BackgroundImageFix"/>
<feColorMatrix in="SourceAlpha" type="matrix" values="0 0 0 0 0 0 0 0 0 0 0 0 0 0 0 0 0 0 127 0" result="hardAlpha"/>
<feOffset dy="4"/>
<feGaussianBlur stdDeviation="6"/>
<feComposite in2="hardAlpha" operator="out"/>
<feColorMatrix type="matrix" values="0 0 0 0 0 0 0 0 0 0 0 0 0 0 0 0 0 0 0.05 0"/>
<feBlend mode="normal" in2="BackgroundImageFix" result="effect1_dropShadow_2028_73897"/>
<feBlend mode="normal" in="SourceGraphic" in2="effect1_dropShadow_2028_73897" result="shape"/>
</filter>
<filter id="filter1_d_2028_73897" x="189" y="0" width="169" height="169" filterUnits="userSpaceOnUse" color-interpolation-filters="sRGB">
<feFlood flood-opacity="0" result="BackgroundImageFix"/>
<feColorMatrix in="SourceAlpha" type="matrix" values="0 0 0 0 0 0 0 0 0 0 0 0 0 0 0 0 0 0 127 0" result="hardAlpha"/>
<feOffset dy="4"/>
<feGaussianBlur stdDeviation="6"/>
<feComposite in2="hardAlpha" operator="out"/>
<feColorMatrix type="matrix" values="0 0 0 0 0 0 0 0 0 0 0 0 0 0 0 0 0 0 0.05 0"/>
<feBlend mode="normal" in2="BackgroundImageFix" result="effect1_dropShadow_2028_73897"/>
<feBlend mode="normal" in="SourceGraphic" in2="effect1_dropShadow_2028_73897" result="shape"/>
</filter>
<filter id="filter2_d_2028_73897" x="189" y="290" width="169" height="169" filterUnits="userSpaceOnUse" color-interpolation-filters="sRGB">
<feFlood flood-opacity="0" result="BackgroundImageFix"/>
<feColorMatrix in="SourceAlpha" type="matrix" values="0 0 0 0 0 0 0 0 0 0 0 0 0 0 0 0 0 0 127 0" result="hardAlpha"/>
<feOffset dy="4"/>
<feGaussianBlur stdDeviation="6"/>
<feComposite in2="hardAlpha" operator="out"/>
<feColorMatrix type="matrix" values="0 0 0 0 0 0 0 0 0 0 0 0 0 0 0 0 0 0 0.05 0"/>
<feBlend mode="normal" in2="BackgroundImageFix" result="effect1_dropShadow_2028_73897"/>
<feBlend mode="normal" in="SourceGraphic" in2="effect1_dropShadow_2028_73897" result="shape"/>
</filter>
<filter id="filter3_d_2028_73897" x="378" y="145" width="169" height="169" filterUnits="userSpaceOnUse" color-interpolation-filters="sRGB">
<feFlood flood-opacity="0" result="BackgroundImageFix"/>
<feColorMatrix in="SourceAlpha" type="matrix" values="0 0 0 0 0 0 0 0 0 0 0 0 0 0 0 0 0 0 127 0" result="hardAlpha"/>
<feOffset dy="4"/>
<feGaussianBlur stdDeviation="6"/>
<feComposite in2="hardAlpha" operator="out"/>
<feColorMatrix type="matrix" values="0 0 0 0 0 0 0 0 0 0 0 0 0 0 0 0 0 0 0.05 0"/>
<feBlend mode="normal" in2="BackgroundImageFix" result="effect1_dropShadow_2028_73897"/>
<feBlend mode="normal" in="SourceGraphic" in2="effect1_dropShadow_2028_73897" result="shape"/>
</filter>
<linearGradient id="paint0_linear_2028_73897" x1="84.5" y1="187.5" x2="84.5" y2="235.5" gradientUnits="userSpaceOnUse">
<stop stop-color="#1CC7B6"/>
<stop offset="0.482292" stop-color="#3185D5"/>
<stop offset="1" stop-color="#6062DC"/>
</linearGradient>
<linearGradient id="paint1_linear_2028_73897" x1="246.515" y1="66.5" x2="298.489" y2="66.5" gradientUnits="userSpaceOnUse">
<stop stop-color="#365BE0"/>
<stop offset="0.508265" stop-color="#D676CF"/>
<stop offset="1" stop-color="#FFE884"/>
</linearGradient>
<linearGradient id="paint2_linear_2028_73897" x1="273.5" y1="338.5" x2="273.5" y2="374.762" gradientUnits="userSpaceOnUse">
<stop stop-color="#F5CB98"/>
<stop offset="0.513542" stop-color="#F89CB9"/>
<stop offset="1" stop-color="#D476D0"/>
</linearGradient>
</defs>
</svg>
