<svg width="189" height="176" viewBox="0 0 189 176" fill="none" xmlns="http://www.w3.org/2000/svg">
<g filter="url(#filter0_d_2404_81026)">
<rect x="7.5" y="4.70117" width="68" height="68" rx="34" fill="white" shape-rendering="crispEdges"/>
<path fill-rule="evenodd" clip-rule="evenodd" d="M41.0303 20.1874C40.0024 20.4133 39.2736 21.3311 39.2751 22.3977C39.2761 23.05 39.4752 23.5442 39.9201 23.9976C40.9446 25.042 42.6012 24.8622 43.3936 23.6205C43.6248 23.2583 43.7282 22.8883 43.727 22.4287C43.7257 21.9689 43.6775 21.7457 43.5009 21.3795C43.2184 20.794 42.6116 20.3263 41.9509 20.1849C41.5866 20.107 41.3938 20.1075 41.0303 20.1874ZM39.2912 26.158C38.3408 26.3055 37.5617 27.0633 37.3937 28.0034C37.364 28.1699 37.3477 29.2447 37.3477 31.0358C37.3477 34.0308 37.3442 33.9821 37.5745 34.2363C37.7011 34.3761 37.9771 34.5007 38.1629 34.5018C38.3698 34.5031 38.6647 34.3416 38.8225 34.1403L38.9534 33.9734L38.9647 31.8372C38.9709 30.6623 38.9854 29.6583 38.997 29.6062C39.0226 29.4899 39.1556 29.4409 39.273 29.5046C39.36 29.5519 39.3602 29.5642 39.3602 34.7664C39.3602 39.3823 39.3679 39.9994 39.4267 40.1424C39.694 40.7918 40.5555 40.9441 41.0387 40.4275C41.2928 40.1558 41.2872 40.2259 41.2872 37.3101C41.2872 34.9401 41.2948 34.6317 41.3545 34.5711C41.4362 34.4881 41.56 34.4827 41.6227 34.5593C41.6543 34.598 41.6728 35.4575 41.6814 37.2861C41.6939 39.9269 41.695 39.9583 41.7864 40.1302C41.8931 40.3308 42.0668 40.5055 42.2507 40.597C42.7107 40.826 43.2986 40.6253 43.5427 40.1559L43.6423 39.9644V34.7852C43.6423 29.8228 43.6456 29.6029 43.7207 29.534C43.8131 29.4491 43.9051 29.4419 43.9764 29.5142C44.0149 29.5533 44.0278 30.0837 44.028 31.6326C44.0281 32.8828 44.0452 33.761 44.0712 33.8561C44.139 34.1038 44.2906 34.2989 44.4975 34.405C44.9089 34.6159 45.3743 34.4422 45.574 34.0031C45.6483 33.8398 45.6531 33.6586 45.6534 31.0047C45.6537 27.9167 45.6516 27.8859 45.4023 27.3849C45.1455 26.8685 44.634 26.4266 44.0736 26.2367C43.8005 26.1441 43.7295 26.1411 41.6512 26.1327C40.4736 26.1279 39.4116 26.1393 39.2912 26.158Z" fill="#9498FF"/>
<path d="M36.2756 51.6289L37.6311 49.0234H38.6428L36.7444 52.5156V54.7344H35.8108V52.5508L33.9084 49.0234H34.928L36.2756 51.6289ZM43.3672 52.5625C43.3672 52.9219 43.3203 53.2409 43.2266 53.5195C43.1328 53.7982 42.9961 54.0339 42.8164 54.2266C42.6367 54.4167 42.4206 54.5625 42.168 54.6641C41.9154 54.763 41.6302 54.8125 41.3125 54.8125C41.0156 54.8125 40.7435 54.763 40.4961 54.6641C40.2487 54.5625 40.0339 54.4167 39.8516 54.2266C39.6719 54.0339 39.5326 53.7982 39.4336 53.5195C39.3346 53.2409 39.2852 52.9219 39.2852 52.5625C39.2852 52.0859 39.3672 51.6823 39.5312 51.3516C39.6979 51.0182 39.9349 50.7643 40.2422 50.5898C40.5495 50.4154 40.9154 50.3281 41.3398 50.3281C41.7383 50.3281 42.0898 50.4154 42.3945 50.5898C42.6992 50.7643 42.9375 51.0182 43.1094 51.3516C43.2812 51.6849 43.3672 52.0885 43.3672 52.5625ZM40.2305 52.5625C40.2305 52.8776 40.2682 53.1471 40.3438 53.3711C40.4219 53.5951 40.5417 53.7669 40.7031 53.8867C40.8646 54.0039 41.0729 54.0625 41.3281 54.0625C41.5833 54.0625 41.7917 54.0039 41.9531 53.8867C42.1146 53.7669 42.2331 53.5951 42.3086 53.3711C42.3841 53.1471 42.4219 52.8776 42.4219 52.5625C42.4219 52.2474 42.3841 51.9805 42.3086 51.7617C42.2331 51.5404 42.1146 51.3724 41.9531 51.2578C41.7917 51.1406 41.582 51.082 41.3242 51.082C40.944 51.082 40.6667 51.2096 40.4922 51.4648C40.3177 51.7201 40.2305 52.0859 40.2305 52.5625ZM48.4314 50.4102V54.7344H47.7087L47.5837 54.1523H47.533C47.4418 54.3008 47.3259 54.4245 47.1853 54.5234C47.0447 54.6198 46.8884 54.6914 46.7166 54.7383C46.5447 54.7878 46.3637 54.8125 46.1736 54.8125C45.8481 54.8125 45.5694 54.7578 45.3377 54.6484C45.1085 54.5365 44.9327 54.3646 44.8103 54.1328C44.6879 53.901 44.6267 53.6016 44.6267 53.2344V50.4102H45.5486V53.0625C45.5486 53.3984 45.6163 53.6497 45.7517 53.8164C45.8897 53.9831 46.1033 54.0664 46.3923 54.0664C46.671 54.0664 46.8923 54.0091 47.0564 53.8945C47.2205 53.7799 47.3364 53.6107 47.4041 53.3867C47.4744 53.1628 47.5095 52.888 47.5095 52.5625V50.4102H48.4314Z" fill="#374151"/>
</g>
<path d="M101.165 41.1082C101.84 40.6284 103.689 39.967 104.063 39.253C103.715 39.1381 103.036 39.3491 102.668 39.3907C102.083 39.4531 101.499 39.5009 100.916 39.5543C99.8852 39.6464 98.8543 39.722 97.82 39.7495C96.222 39.7933 94.6167 39.7244 93.03 39.7177C91.2403 39.7091 89.4577 39.5889 87.6735 39.5348C86.5986 39.502 85.5259 39.4877 84.451 39.4548C83.8503 39.4351 82.2047 39.6221 81.7735 39.0683C81.3308 38.5007 81.9512 38.432 82.4015 38.4045C83.3294 38.3462 84.2593 38.3543 85.1902 38.3275C87.1338 38.2715 89.0768 38.2228 91.0191 38.1373C92.9323 38.053 94.8626 37.9812 96.7761 37.9614C98.6169 37.9429 100.841 38.0533 102.625 37.5631C102.441 37.2282 101.57 36.9619 101.211 36.7615C100.65 36.449 100.078 36.1319 99.5384 35.7806C99.1574 35.5306 98.546 35.122 98.7473 34.5538C98.8919 34.15 99.4917 34.0447 99.8539 34.1203C100.841 34.3243 101.947 35.3306 102.849 35.7979C103.922 36.3528 105.002 36.8917 106.09 37.4C106.769 37.7167 107.546 38.2915 106.944 39.0935C106.459 39.736 105.098 40.2387 104.405 40.6049C103.46 41.1067 102.48 41.5027 101.518 41.9718C100.297 42.5651 100.478 41.8849 101.164 41.1099C101.29 41.021 100.95 41.3481 101.164 41.1099L101.165 41.1082Z" fill="#D1D5DB"/>
<g filter="url(#filter1_d_2404_81026)">
<rect x="113.5" y="4.70117" width="68" height="68" rx="34" fill="white" shape-rendering="crispEdges"/>
<path d="M140.133 41.2012H143.878V28.0939H140.133V41.2012Z" fill="#EC88E0"/>
<path d="M145.75 41.2012H149.495V24.349H145.75V41.2012Z" fill="#EC88E0"/>
<path d="M151.368 41.2012H155.113V19.6678H151.368V41.2012Z" fill="#EC88E0"/>
<path d="M126.695 51.5664H128.257V52.2617H126.695V53.8398H125.999V52.2617H124.441V51.5664H125.999V49.9727H126.695V51.5664ZM134.26 54.7344H133.339V51.0586C133.339 50.9362 133.34 50.8138 133.342 50.6914C133.345 50.569 133.348 50.4492 133.35 50.332C133.356 50.2148 133.362 50.1029 133.37 49.9961C133.315 50.056 133.247 50.1211 133.167 50.1914C133.089 50.2617 133.005 50.3346 132.917 50.4102L132.26 50.9336L131.8 50.3516L133.495 49.0234H134.26V54.7344ZM140.604 54.0703C140.724 54.0703 140.842 54.0599 140.959 54.0391C141.076 54.0156 141.183 53.9883 141.28 53.957V54.6523C141.178 54.6966 141.046 54.7344 140.885 54.7656C140.724 54.7969 140.556 54.8125 140.381 54.8125C140.136 54.8125 139.916 54.7721 139.721 54.6914C139.526 54.6081 139.371 54.4661 139.256 54.2656C139.142 54.0651 139.084 53.7878 139.084 53.4336V51.1094H138.494V50.6992L139.127 50.375L139.428 49.4492H140.006V50.4102H141.244V51.1094H140.006V53.4219C140.006 53.6406 140.061 53.8034 140.17 53.9102C140.28 54.0169 140.424 54.0703 140.604 54.0703ZM146.227 52.5625C146.227 52.9219 146.18 53.2409 146.086 53.5195C145.992 53.7982 145.855 54.0339 145.676 54.2266C145.496 54.4167 145.28 54.5625 145.027 54.6641C144.775 54.763 144.49 54.8125 144.172 54.8125C143.875 54.8125 143.603 54.763 143.355 54.6641C143.108 54.5625 142.893 54.4167 142.711 54.2266C142.531 54.0339 142.392 53.7982 142.293 53.5195C142.194 53.2409 142.145 52.9219 142.145 52.5625C142.145 52.0859 142.227 51.6823 142.391 51.3516C142.557 51.0182 142.794 50.7643 143.102 50.5898C143.409 50.4154 143.775 50.3281 144.199 50.3281C144.598 50.3281 144.949 50.4154 145.254 50.5898C145.559 50.7643 145.797 51.0182 145.969 51.3516C146.141 51.6849 146.227 52.0885 146.227 52.5625ZM143.09 52.5625C143.09 52.8776 143.128 53.1471 143.203 53.3711C143.281 53.5951 143.401 53.7669 143.562 53.8867C143.724 54.0039 143.932 54.0625 144.188 54.0625C144.443 54.0625 144.651 54.0039 144.812 53.8867C144.974 53.7669 145.092 53.5951 145.168 53.3711C145.243 53.1471 145.281 52.8776 145.281 52.5625C145.281 52.2474 145.243 51.9805 145.168 51.7617C145.092 51.5404 144.974 51.3724 144.812 51.2578C144.651 51.1406 144.441 51.082 144.184 51.082C143.803 51.082 143.526 51.2096 143.352 51.4648C143.177 51.7201 143.09 52.0859 143.09 52.5625ZM149.775 50.3281C150.262 50.3281 150.641 50.4544 150.912 50.707C151.185 50.957 151.322 51.3594 151.322 51.9141V54.7344H150.404V52.0859C150.404 51.75 150.335 51.4987 150.197 51.332C150.059 51.1628 149.845 51.0781 149.556 51.0781C149.137 51.0781 148.845 51.207 148.681 51.4648C148.52 51.7227 148.439 52.0964 148.439 52.5859V54.7344H147.521V50.4102H148.236L148.365 50.9961H148.416C148.51 50.8451 148.625 50.7214 148.763 50.625C148.904 50.526 149.06 50.4518 149.232 50.4023C149.407 50.3529 149.588 50.3281 149.775 50.3281ZM157.693 49.7383C157.419 49.7383 157.174 49.7878 156.958 49.8867C156.745 49.9857 156.564 50.1289 156.415 50.3164C156.267 50.5013 156.154 50.7266 156.075 50.9922C155.997 51.2552 155.958 51.5521 155.958 51.8828C155.958 52.3255 156.021 52.707 156.146 53.0273C156.271 53.3451 156.461 53.5898 156.716 53.7617C156.971 53.931 157.294 54.0156 157.685 54.0156C157.927 54.0156 158.163 53.9922 158.392 53.9453C158.621 53.8984 158.858 53.8346 159.103 53.7539V54.5508C158.871 54.6419 158.637 54.7083 158.4 54.75C158.163 54.7917 157.889 54.8125 157.579 54.8125C156.996 54.8125 156.512 54.6914 156.126 54.4492C155.743 54.207 155.457 53.8659 155.267 53.4258C155.079 52.9857 154.986 52.4701 154.986 51.8789C154.986 51.4466 155.046 51.0508 155.165 50.6914C155.285 50.332 155.46 50.0221 155.689 49.7617C155.918 49.4987 156.2 49.2969 156.536 49.1562C156.875 49.013 157.262 48.9414 157.697 48.9414C157.983 48.9414 158.264 48.974 158.54 49.0391C158.819 49.1016 159.077 49.1914 159.314 49.3086L158.986 50.082C158.788 49.9883 158.581 49.9076 158.365 49.8398C158.148 49.7721 157.924 49.7383 157.693 49.7383ZM165.64 51.8711C165.64 52.3112 165.584 52.7122 165.472 53.0742C165.362 53.4336 165.197 53.7435 164.976 54.0039C164.754 54.2617 164.477 54.4609 164.144 54.6016C163.81 54.7422 163.42 54.8125 162.972 54.8125C162.516 54.8125 162.12 54.7422 161.784 54.6016C161.451 54.4609 161.174 54.2604 160.952 54C160.733 53.7396 160.569 53.4284 160.46 53.0664C160.351 52.7044 160.296 52.3034 160.296 51.8633C160.296 51.2747 160.392 50.7617 160.585 50.3242C160.78 49.8841 161.076 49.543 161.472 49.3008C161.87 49.056 162.373 48.9336 162.98 48.9336C163.573 48.9336 164.067 49.0547 164.46 49.2969C164.853 49.5391 165.147 49.8802 165.343 50.3203C165.541 50.7578 165.64 51.2747 165.64 51.8711ZM161.28 51.8711C161.28 52.3112 161.34 52.6927 161.46 53.0156C161.58 53.3359 161.763 53.5833 162.011 53.7578C162.261 53.9297 162.581 54.0156 162.972 54.0156C163.365 54.0156 163.685 53.9297 163.933 53.7578C164.18 53.5833 164.362 53.3359 164.48 53.0156C164.597 52.6927 164.655 52.3112 164.655 51.8711C164.655 51.2018 164.521 50.6784 164.253 50.3008C163.987 49.9206 163.563 49.7305 162.98 49.7305C162.589 49.7305 162.267 49.8164 162.015 49.9883C161.765 50.1602 161.58 50.4062 161.46 50.7266C161.34 51.0443 161.28 51.4258 161.28 51.8711ZM170.583 54.7344H166.716V54.043L168.196 52.543C168.483 52.2513 168.718 52 168.903 51.7891C169.088 51.5755 169.225 51.3737 169.313 51.1836C169.404 50.9935 169.45 50.7865 169.45 50.5625C169.45 50.2865 169.371 50.0781 169.212 49.9375C169.053 49.7943 168.843 49.7227 168.583 49.7227C168.335 49.7227 168.106 49.7721 167.895 49.8711C167.687 49.9674 167.471 50.1055 167.247 50.2852L166.743 49.6797C166.902 49.5443 167.071 49.4206 167.251 49.3086C167.433 49.1966 167.636 49.1081 167.86 49.043C168.084 48.9753 168.339 48.9414 168.626 48.9414C168.988 48.9414 169.3 49.0065 169.563 49.1367C169.826 49.2643 170.028 49.4427 170.169 49.6719C170.312 49.901 170.384 50.168 170.384 50.4727C170.384 50.7799 170.322 51.0638 170.2 51.3242C170.078 51.5846 169.903 51.8424 169.677 52.0977C169.45 52.3503 169.18 52.625 168.868 52.9219L167.88 53.8867V53.9297H170.583V54.7344Z" fill="#EB46B3"/>
</g>
<path d="M82.8451 90.6638C82.569 91.3297 81.5082 92.6731 81.5642 93.372C81.8758 93.2951 82.2803 92.8251 82.5335 92.624C82.9381 92.3067 83.3487 92.0007 83.7557 91.6912C84.4761 91.1458 85.2047 90.6123 85.9582 90.1126C87.1217 89.3396 88.3433 88.6462 89.5221 87.9156C90.8521 87.0923 92.6204 85.8949 93.9677 85.1076C93.9677 85.1076 101.918 79.794 102.729 79.3199C103.184 79.056 108.626 75.5023 109.204 75.7099C109.797 75.9223 109.369 76.2605 109.048 76.4894C108.388 76.9624 103.385 80.0407 102.708 80.4919C101.294 81.4341 93.149 87.1829 91.7498 88.1462C90.3716 89.095 88.9749 90.0426 87.5664 90.9443C86.2111 91.8111 84.5116 92.761 83.4186 93.9486C83.7111 94.1099 84.4809 93.9018 84.8409 93.8827C85.4024 93.8525 85.9739 93.8209 86.5379 93.8291C86.9368 93.8364 87.5806 93.8536 87.6967 94.365C87.778 94.729 87.3829 95.0845 87.0792 95.1968C86.2528 95.5042 84.9634 95.2767 84.0766 95.3511C83.0224 95.4404 81.9707 95.5445 80.9274 95.6748C80.2768 95.7564 79.4322 95.694 79.5043 94.8246C79.5635 94.1272 80.3369 93.1266 80.6795 92.536C81.1455 91.7287 81.687 90.9829 82.1811 90.1916C82.8088 89.1892 82.9921 89.7736 82.8458 90.6617C82.8925 90.3877 82.7933 90.7859 82.8458 90.6617L82.8451 90.6638Z" fill="#D1D5DB"/>
<g filter="url(#filter2_d_2404_81026)">
<rect x="7.5" y="98.7012" width="68" height="68" rx="34" fill="white" shape-rendering="crispEdges"/>
<path d="M34.1328 113.668H37.8777V126.775H34.1328V113.668Z" fill="#9DE2A0"/>
<path d="M39.7502 113.668H43.4951V130.52H39.7502V113.668Z" fill="#9DE2A0"/>
<path d="M45.3676 113.668H49.1125V135.201H45.3676V113.668Z" fill="#9DE2A0"/>
<path d="M19.3469 146.977V146.199H21.3625V146.977H19.3469ZM27.2605 148.734H26.3386V145.059C26.3386 144.936 26.3399 144.814 26.3425 144.691C26.3451 144.569 26.3477 144.449 26.3503 144.332C26.3555 144.215 26.362 144.103 26.3698 143.996C26.3152 144.056 26.2474 144.121 26.1667 144.191C26.0886 144.262 26.0053 144.335 25.9167 144.41L25.2605 144.934L24.7995 144.352L26.4948 143.023H27.2605V148.734ZM33.6037 148.07C33.7235 148.07 33.842 148.06 33.9592 148.039C34.0764 148.016 34.1832 147.988 34.2795 147.957V148.652C34.178 148.697 34.0465 148.734 33.885 148.766C33.7235 148.797 33.5556 148.812 33.3811 148.812C33.1363 148.812 32.9162 148.772 32.7209 148.691C32.5256 148.608 32.3707 148.466 32.2561 148.266C32.1415 148.065 32.0842 147.788 32.0842 147.434V145.109H31.4944V144.699L32.1272 144.375L32.428 143.449H33.0061V144.41H34.2444V145.109H33.0061V147.422C33.0061 147.641 33.0608 147.803 33.1702 147.91C33.2795 148.017 33.4241 148.07 33.6037 148.07ZM39.2266 146.562C39.2266 146.922 39.1797 147.241 39.0859 147.52C38.9922 147.798 38.8555 148.034 38.6758 148.227C38.4961 148.417 38.2799 148.562 38.0273 148.664C37.7747 148.763 37.4896 148.812 37.1719 148.812C36.875 148.812 36.6029 148.763 36.3555 148.664C36.1081 148.562 35.8932 148.417 35.7109 148.227C35.5312 148.034 35.3919 147.798 35.293 147.52C35.194 147.241 35.1445 146.922 35.1445 146.562C35.1445 146.086 35.2266 145.682 35.3906 145.352C35.5573 145.018 35.7943 144.764 36.1016 144.59C36.4089 144.415 36.7747 144.328 37.1992 144.328C37.5977 144.328 37.9492 144.415 38.2539 144.59C38.5586 144.764 38.7969 145.018 38.9687 145.352C39.1406 145.685 39.2266 146.089 39.2266 146.562ZM36.0898 146.562C36.0898 146.878 36.1276 147.147 36.2031 147.371C36.2812 147.595 36.401 147.767 36.5625 147.887C36.724 148.004 36.9323 148.062 37.1875 148.062C37.4427 148.062 37.651 148.004 37.8125 147.887C37.974 147.767 38.0924 147.595 38.168 147.371C38.2435 147.147 38.2812 146.878 38.2812 146.562C38.2812 146.247 38.2435 145.98 38.168 145.762C38.0924 145.54 37.974 145.372 37.8125 145.258C37.651 145.141 37.4414 145.082 37.1836 145.082C36.8034 145.082 36.526 145.21 36.3516 145.465C36.1771 145.72 36.0898 146.086 36.0898 146.562ZM42.7752 144.328C43.2621 144.328 43.641 144.454 43.9119 144.707C44.1853 144.957 44.322 145.359 44.322 145.914V148.734H43.4041V146.086C43.4041 145.75 43.3351 145.499 43.197 145.332C43.059 145.163 42.8455 145.078 42.5564 145.078C42.1371 145.078 41.8455 145.207 41.6814 145.465C41.5199 145.723 41.4392 146.096 41.4392 146.586V148.734H40.5212V144.41H41.2361L41.365 144.996H41.4158C41.5095 144.845 41.6254 144.721 41.7634 144.625C41.9041 144.526 42.0603 144.452 42.2322 144.402C42.4067 144.353 42.5877 144.328 42.7752 144.328ZM50.6927 143.738C50.4192 143.738 50.1744 143.788 49.9583 143.887C49.7447 143.986 49.5637 144.129 49.4153 144.316C49.2669 144.501 49.1536 144.727 49.0755 144.992C48.9973 145.255 48.9583 145.552 48.9583 145.883C48.9583 146.326 49.0208 146.707 49.1458 147.027C49.2708 147.345 49.4609 147.59 49.7161 147.762C49.9713 147.931 50.2942 148.016 50.6848 148.016C50.927 148.016 51.1627 147.992 51.3919 147.945C51.621 147.898 51.858 147.835 52.1028 147.754V148.551C51.871 148.642 51.6367 148.708 51.3997 148.75C51.1627 148.792 50.8893 148.812 50.5794 148.812C49.996 148.812 49.5117 148.691 49.1262 148.449C48.7434 148.207 48.457 147.866 48.2669 147.426C48.0794 146.986 47.9856 146.47 47.9856 145.879C47.9856 145.447 48.0455 145.051 48.1653 144.691C48.2851 144.332 48.4596 144.022 48.6887 143.762C48.9179 143.499 49.2005 143.297 49.5364 143.156C49.8749 143.013 50.2617 142.941 50.6966 142.941C50.983 142.941 51.2643 142.974 51.5403 143.039C51.819 143.102 52.0768 143.191 52.3137 143.309L51.9856 144.082C51.7877 143.988 51.5807 143.908 51.3645 143.84C51.1484 143.772 50.9244 143.738 50.6927 143.738ZM58.6397 145.871C58.6397 146.311 58.5837 146.712 58.4717 147.074C58.3623 147.434 58.197 147.743 57.9756 148.004C57.7543 148.262 57.4769 148.461 57.1436 148.602C56.8103 148.742 56.4196 148.812 55.9717 148.812C55.516 148.812 55.1202 148.742 54.7842 148.602C54.4509 148.461 54.1735 148.26 53.9522 148C53.7334 147.74 53.5694 147.428 53.46 147.066C53.3506 146.704 53.2959 146.303 53.2959 145.863C53.2959 145.275 53.3923 144.762 53.585 144.324C53.7803 143.884 54.0759 143.543 54.4717 143.301C54.8702 143.056 55.3728 142.934 55.9795 142.934C56.5733 142.934 57.0668 143.055 57.46 143.297C57.8532 143.539 58.1475 143.88 58.3428 144.32C58.5407 144.758 58.6397 145.275 58.6397 145.871ZM54.2803 145.871C54.2803 146.311 54.3402 146.693 54.46 147.016C54.5798 147.336 54.7634 147.583 55.0108 147.758C55.2608 147.93 55.5811 148.016 55.9717 148.016C56.3649 148.016 56.6853 147.93 56.9327 147.758C57.1801 147.583 57.3623 147.336 57.4795 147.016C57.5967 146.693 57.6553 146.311 57.6553 145.871C57.6553 145.202 57.5212 144.678 57.253 144.301C56.9873 143.921 56.5629 143.73 55.9795 143.73C55.5889 143.73 55.2673 143.816 55.0147 143.988C54.7647 144.16 54.5798 144.406 54.46 144.727C54.3402 145.044 54.2803 145.426 54.2803 145.871ZM63.5828 148.734H59.7156V148.043L61.1961 146.543C61.4826 146.251 61.7182 146 61.9031 145.789C62.088 145.576 62.2247 145.374 62.3133 145.184C62.4044 144.993 62.45 144.786 62.45 144.562C62.45 144.286 62.3706 144.078 62.2117 143.938C62.0529 143.794 61.8432 143.723 61.5828 143.723C61.3354 143.723 61.1063 143.772 60.8953 143.871C60.687 143.967 60.4708 144.105 60.2469 144.285L59.743 143.68C59.9018 143.544 60.0711 143.421 60.2508 143.309C60.4331 143.197 60.6362 143.108 60.8602 143.043C61.0841 142.975 61.3393 142.941 61.6258 142.941C61.9878 142.941 62.3003 143.007 62.5633 143.137C62.8263 143.264 63.0281 143.443 63.1688 143.672C63.312 143.901 63.3836 144.168 63.3836 144.473C63.3836 144.78 63.3224 145.064 63.2 145.324C63.0776 145.585 62.9031 145.842 62.6766 146.098C62.45 146.35 62.1805 146.625 61.868 146.922L60.8797 147.887V147.93H63.5828V148.734Z" fill="#11D645"/>
</g>
<path d="M101.165 135.108C101.84 134.628 103.689 133.967 104.063 133.253C103.715 133.138 103.036 133.349 102.668 133.391C102.083 133.453 101.499 133.501 100.916 133.554C99.8852 133.646 98.8543 133.722 97.82 133.749C96.222 133.793 94.6167 133.724 93.03 133.718C91.2403 133.709 89.4577 133.589 87.6735 133.535C86.5986 133.502 85.5259 133.488 84.451 133.455C83.8503 133.435 82.2047 133.622 81.7735 133.068C81.3308 132.501 81.9512 132.432 82.4015 132.404C83.3294 132.346 84.2593 132.354 85.1902 132.328C87.1338 132.272 89.0768 132.223 91.0191 132.137C92.9323 132.053 94.8626 131.981 96.7761 131.961C98.6169 131.943 100.841 132.053 102.625 131.563C102.441 131.228 101.57 130.962 101.211 130.761C100.65 130.449 100.078 130.132 99.5384 129.781C99.1574 129.531 98.546 129.122 98.7473 128.554C98.8919 128.15 99.4917 128.045 99.8539 128.12C100.841 128.324 101.947 129.331 102.849 129.798C103.922 130.353 105.002 130.892 106.09 131.4C106.769 131.717 107.546 132.292 106.944 133.093C106.459 133.736 105.098 134.239 104.405 134.605C103.46 135.107 102.48 135.503 101.518 135.972C100.297 136.565 100.478 135.885 101.164 135.11C101.29 135.021 100.95 135.348 101.164 135.11L101.165 135.108Z" fill="#D1D5DB"/>
<g filter="url(#filter3_d_2404_81026)">
<rect x="113.5" y="98.7012" width="68" height="68" rx="34" fill="white" shape-rendering="crispEdges"/>
<path fill-rule="evenodd" clip-rule="evenodd" d="M152.331 113.701C152.212 113.811 151.908 113.896 151.418 113.957C151.146 113.991 150.669 114.049 150.358 114.087C149.596 114.18 149.068 114.32 148.6 114.551C148.015 114.839 147.552 115.302 147.295 115.854C147.005 116.475 147.006 117.31 147.295 117.994C147.453 118.366 147.621 118.609 147.742 118.641C148.063 118.726 148.252 118.528 148.254 118.106C148.255 117.859 148.417 117.262 148.569 116.945C148.775 116.517 149.062 116.154 149.423 115.867C149.738 115.617 150.182 115.359 150.122 115.462C150.104 115.492 150.019 115.621 149.934 115.749C149.544 116.331 149.253 117.052 149.017 118.022C148.62 119.655 148.478 120.809 148.376 123.236C148.329 124.372 148.33 124.411 148.412 124.596C148.533 124.87 148.749 125.022 149.049 125.043C149.235 125.057 149.33 125.041 149.462 124.973C149.656 124.874 149.721 124.791 149.973 124.318C150.165 123.956 150.505 123.504 150.68 123.377L150.789 123.297L151.046 123.491C151.559 123.88 152.111 124.019 152.681 123.903C153.428 123.75 153.82 123.405 154.587 122.227C154.788 121.917 155.007 121.593 155.074 121.508L155.195 121.352L154.962 121.203C154.833 121.121 154.496 120.876 154.212 120.66C153.424 120.06 153.108 119.901 152.566 119.832C152.143 119.779 151.791 119.838 151.409 120.027C150.884 120.286 150.398 120.872 150.398 121.247C150.398 121.414 150.498 121.523 150.622 121.495C150.672 121.483 150.874 121.436 151.071 121.39C151.529 121.282 152.09 121.243 152.566 121.285L152.942 121.318L152.571 121.374C151.519 121.531 150.686 121.933 149.922 122.652L149.588 122.966L149.616 122.504C149.688 121.328 149.804 120.085 149.875 119.741C149.896 119.641 149.93 119.622 150.201 119.561C151.146 119.35 152.024 118.422 152.413 117.224C152.582 116.706 152.638 116.22 152.617 115.461C152.599 114.809 152.481 113.748 152.419 113.676C152.404 113.659 152.364 113.67 152.331 113.701ZM145.163 119.912C144.732 120.04 144.433 120.212 143.714 120.746C143.331 121.029 142.985 121.286 142.945 121.315C142.876 121.365 142.88 121.38 143 121.537C143.071 121.629 143.32 121.998 143.554 122.356C144.232 123.398 144.715 123.802 145.416 123.916C146.22 124.046 147.102 123.643 147.398 123.01C147.519 122.75 147.522 122.604 147.41 122.373C147.21 121.959 146.135 121.476 145.163 121.364L144.869 121.33L145.079 121.3C145.687 121.214 146.471 121.288 147.097 121.49C147.504 121.622 147.5 121.621 147.615 121.514C147.738 121.399 147.731 121.251 147.587 120.948C147.357 120.463 146.906 120.069 146.4 119.912C146.071 119.809 145.512 119.81 145.163 119.912ZM143.376 125.206C143.067 125.255 142.639 125.377 142.301 125.513C141.555 125.812 141.367 125.971 138.951 128.349C137.731 129.55 136.732 130.546 136.732 130.561C136.732 130.575 137.77 131.626 139.037 132.894L141.342 135.201L142.112 134.043L142.883 132.884L146.798 132.871C150.656 132.858 150.718 132.857 150.993 132.769C151.385 132.643 151.767 132.452 152.038 132.244C152.165 132.147 153.597 130.886 155.22 129.442C157.37 127.529 158.182 126.781 158.216 126.686C158.405 126.142 158.05 125.72 157.293 125.59C157.038 125.546 156.945 125.549 156.65 125.61C156.461 125.649 156.183 125.743 156.033 125.819C155.882 125.895 154.591 126.814 153.163 127.862L150.567 129.766H149.021H147.474L147.122 129.412L146.77 129.058L148.342 129.042C149.848 129.027 149.926 129.022 150.183 128.931C151.073 128.615 151.518 127.887 151.306 127.1C151.178 126.629 150.828 126.272 150.282 126.057C150.052 125.966 149.965 125.96 148.485 125.932C146.758 125.9 146.686 125.89 146.037 125.604C145.303 125.281 144.8 125.176 144.028 125.184C143.727 125.187 143.434 125.197 143.376 125.206Z" fill="#9DE2A0"/>
<path d="M131.86 145.875C131.86 146.336 131.824 146.749 131.751 147.113C131.681 147.475 131.569 147.783 131.415 148.035C131.261 148.288 131.061 148.48 130.813 148.613C130.566 148.746 130.267 148.812 129.915 148.812C129.475 148.812 129.112 148.697 128.825 148.465C128.539 148.23 128.326 147.895 128.188 147.457C128.05 147.017 127.981 146.49 127.981 145.875C127.981 145.26 128.044 144.734 128.169 144.297C128.297 143.857 128.502 143.52 128.786 143.285C129.07 143.051 129.446 142.934 129.915 142.934C130.358 142.934 130.722 143.051 131.009 143.285C131.298 143.517 131.511 143.853 131.649 144.293C131.79 144.73 131.86 145.258 131.86 145.875ZM128.907 145.875C128.907 146.357 128.938 146.759 129.001 147.082C129.066 147.405 129.173 147.647 129.321 147.809C129.47 147.967 129.668 148.047 129.915 148.047C130.162 148.047 130.36 147.967 130.509 147.809C130.657 147.65 130.764 147.409 130.829 147.086C130.897 146.763 130.931 146.359 130.931 145.875C130.931 145.396 130.898 144.995 130.833 144.672C130.768 144.349 130.661 144.107 130.513 143.945C130.364 143.781 130.165 143.699 129.915 143.699C129.665 143.699 129.466 143.781 129.317 143.945C129.172 144.107 129.066 144.349 129.001 144.672C128.938 144.995 128.907 145.396 128.907 145.875ZM137.036 148.07C137.155 148.07 137.274 148.06 137.391 148.039C137.508 148.016 137.615 147.988 137.711 147.957V148.652C137.61 148.697 137.478 148.734 137.317 148.766C137.155 148.797 136.987 148.812 136.813 148.812C136.568 148.812 136.348 148.772 136.153 148.691C135.958 148.608 135.803 148.466 135.688 148.266C135.573 148.065 135.516 147.788 135.516 147.434V145.109H134.926V144.699L135.559 144.375L135.86 143.449H136.438V144.41H137.676V145.109H136.438V147.422C136.438 147.641 136.493 147.803 136.602 147.91C136.711 148.017 136.856 148.07 137.036 148.07ZM142.658 146.562C142.658 146.922 142.612 147.241 142.518 147.52C142.424 147.798 142.287 148.034 142.108 148.227C141.928 148.417 141.712 148.562 141.459 148.664C141.207 148.763 140.921 148.812 140.604 148.812C140.307 148.812 140.035 148.763 139.787 148.664C139.54 148.562 139.325 148.417 139.143 148.227C138.963 148.034 138.824 147.798 138.725 147.52C138.626 147.241 138.576 146.922 138.576 146.562C138.576 146.086 138.658 145.682 138.823 145.352C138.989 145.018 139.226 144.764 139.533 144.59C139.841 144.415 140.207 144.328 140.631 144.328C141.03 144.328 141.381 144.415 141.686 144.59C141.99 144.764 142.229 145.018 142.401 145.352C142.573 145.685 142.658 146.089 142.658 146.562ZM139.522 146.562C139.522 146.878 139.559 147.147 139.635 147.371C139.713 147.595 139.833 147.767 139.994 147.887C140.156 148.004 140.364 148.062 140.619 148.062C140.875 148.062 141.083 148.004 141.244 147.887C141.406 147.767 141.524 147.595 141.6 147.371C141.675 147.147 141.713 146.878 141.713 146.562C141.713 146.247 141.675 145.98 141.6 145.762C141.524 145.54 141.406 145.372 141.244 145.258C141.083 145.141 140.873 145.082 140.615 145.082C140.235 145.082 139.958 145.21 139.783 145.465C139.609 145.72 139.522 146.086 139.522 146.562ZM146.207 144.328C146.694 144.328 147.073 144.454 147.344 144.707C147.617 144.957 147.754 145.359 147.754 145.914V148.734H146.836V146.086C146.836 145.75 146.767 145.499 146.629 145.332C146.491 145.163 146.277 145.078 145.988 145.078C145.569 145.078 145.277 145.207 145.113 145.465C144.952 145.723 144.871 146.096 144.871 146.586V148.734H143.953V144.41H144.668L144.797 144.996H144.848C144.941 144.845 145.057 144.721 145.195 144.625C145.336 144.526 145.492 144.452 145.664 144.402C145.839 144.353 146.02 144.328 146.207 144.328ZM154.125 143.738C153.851 143.738 153.606 143.788 153.39 143.887C153.177 143.986 152.996 144.129 152.847 144.316C152.699 144.501 152.585 144.727 152.507 144.992C152.429 145.255 152.39 145.552 152.39 145.883C152.39 146.326 152.453 146.707 152.578 147.027C152.703 147.345 152.893 147.59 153.148 147.762C153.403 147.931 153.726 148.016 154.117 148.016C154.359 148.016 154.595 147.992 154.824 147.945C155.053 147.898 155.29 147.835 155.535 147.754V148.551C155.303 148.642 155.069 148.708 154.832 148.75C154.595 148.792 154.321 148.812 154.011 148.812C153.428 148.812 152.944 148.691 152.558 148.449C152.175 148.207 151.889 147.866 151.699 147.426C151.511 146.986 151.418 146.47 151.418 145.879C151.418 145.447 151.477 145.051 151.597 144.691C151.717 144.332 151.891 144.022 152.121 143.762C152.35 143.499 152.632 143.297 152.968 143.156C153.307 143.013 153.694 142.941 154.128 142.941C154.415 142.941 154.696 142.974 154.972 143.039C155.251 143.102 155.509 143.191 155.746 143.309L155.418 144.082C155.22 143.988 155.013 143.908 154.796 143.84C154.58 143.772 154.356 143.738 154.125 143.738ZM162.072 145.871C162.072 146.311 162.016 146.712 161.904 147.074C161.794 147.434 161.629 147.743 161.408 148.004C161.186 148.262 160.909 148.461 160.575 148.602C160.242 148.742 159.852 148.812 159.404 148.812C158.948 148.812 158.552 148.742 158.216 148.602C157.883 148.461 157.605 148.26 157.384 148C157.165 147.74 157.001 147.428 156.892 147.066C156.783 146.704 156.728 146.303 156.728 145.863C156.728 145.275 156.824 144.762 157.017 144.324C157.212 143.884 157.508 143.543 157.904 143.301C158.302 143.056 158.805 142.934 159.411 142.934C160.005 142.934 160.499 143.055 160.892 143.297C161.285 143.539 161.579 143.88 161.775 144.32C161.973 144.758 162.072 145.275 162.072 145.871ZM157.712 145.871C157.712 146.311 157.772 146.693 157.892 147.016C158.012 147.336 158.195 147.583 158.443 147.758C158.693 147.93 159.013 148.016 159.404 148.016C159.797 148.016 160.117 147.93 160.365 147.758C160.612 147.583 160.794 147.336 160.911 147.016C161.029 146.693 161.087 146.311 161.087 145.871C161.087 145.202 160.953 144.678 160.685 144.301C160.419 143.921 159.995 143.73 159.411 143.73C159.021 143.73 158.699 143.816 158.447 143.988C158.197 144.16 158.012 144.406 157.892 144.727C157.772 145.044 157.712 145.426 157.712 145.871ZM167.015 148.734H163.147V148.043L164.628 146.543C164.914 146.251 165.15 146 165.335 145.789C165.52 145.576 165.657 145.374 165.745 145.184C165.836 144.993 165.882 144.786 165.882 144.562C165.882 144.286 165.802 144.078 165.644 143.938C165.485 143.794 165.275 143.723 165.015 143.723C164.767 143.723 164.538 143.772 164.327 143.871C164.119 143.967 163.903 144.105 163.679 144.285L163.175 143.68C163.334 143.544 163.503 143.421 163.683 143.309C163.865 143.197 164.068 143.108 164.292 143.043C164.516 142.975 164.771 142.941 165.058 142.941C165.42 142.941 165.732 143.007 165.995 143.137C166.258 143.264 166.46 143.443 166.601 143.672C166.744 143.901 166.815 144.168 166.815 144.473C166.815 144.78 166.754 145.064 166.632 145.324C166.509 145.585 166.335 145.842 166.108 146.098C165.882 146.35 165.612 146.625 165.3 146.922L164.312 147.887V147.93H167.015V148.734Z" fill="#11D645"/>
</g>
<defs>
<filter id="filter0_d_2404_81026" x="0.7" y="0.167838" width="81.6" height="81.6" filterUnits="userSpaceOnUse" color-interpolation-filters="sRGB">
<feFlood flood-opacity="0" result="BackgroundImageFix"/>
<feColorMatrix in="SourceAlpha" type="matrix" values="0 0 0 0 0 0 0 0 0 0 0 0 0 0 0 0 0 0 127 0" result="hardAlpha"/>
<feOffset dy="2.26667"/>
<feGaussianBlur stdDeviation="3.4"/>
<feComposite in2="hardAlpha" operator="out"/>
<feColorMatrix type="matrix" values="0 0 0 0 0 0 0 0 0 0 0 0 0 0 0 0 0 0 0.05 0"/>
<feBlend mode="normal" in2="BackgroundImageFix" result="effect1_dropShadow_2404_81026"/>
<feBlend mode="normal" in="SourceGraphic" in2="effect1_dropShadow_2404_81026" result="shape"/>
</filter>
<filter id="filter1_d_2404_81026" x="106.7" y="0.167838" width="81.6" height="81.6" filterUnits="userSpaceOnUse" color-interpolation-filters="sRGB">
<feFlood flood-opacity="0" result="BackgroundImageFix"/>
<feColorMatrix in="SourceAlpha" type="matrix" values="0 0 0 0 0 0 0 0 0 0 0 0 0 0 0 0 0 0 127 0" result="hardAlpha"/>
<feOffset dy="2.26667"/>
<feGaussianBlur stdDeviation="3.4"/>
<feComposite in2="hardAlpha" operator="out"/>
<feColorMatrix type="matrix" values="0 0 0 0 0 0 0 0 0 0 0 0 0 0 0 0 0 0 0.05 0"/>
<feBlend mode="normal" in2="BackgroundImageFix" result="effect1_dropShadow_2404_81026"/>
<feBlend mode="normal" in="SourceGraphic" in2="effect1_dropShadow_2404_81026" result="shape"/>
</filter>
<filter id="filter2_d_2404_81026" x="0.7" y="94.1678" width="81.6" height="81.6" filterUnits="userSpaceOnUse" color-interpolation-filters="sRGB">
<feFlood flood-opacity="0" result="BackgroundImageFix"/>
<feColorMatrix in="SourceAlpha" type="matrix" values="0 0 0 0 0 0 0 0 0 0 0 0 0 0 0 0 0 0 127 0" result="hardAlpha"/>
<feOffset dy="2.26667"/>
<feGaussianBlur stdDeviation="3.4"/>
<feComposite in2="hardAlpha" operator="out"/>
<feColorMatrix type="matrix" values="0 0 0 0 0 0 0 0 0 0 0 0 0 0 0 0 0 0 0.05 0"/>
<feBlend mode="normal" in2="BackgroundImageFix" result="effect1_dropShadow_2404_81026"/>
<feBlend mode="normal" in="SourceGraphic" in2="effect1_dropShadow_2404_81026" result="shape"/>
</filter>
<filter id="filter3_d_2404_81026" x="106.7" y="94.1678" width="81.6" height="81.6" filterUnits="userSpaceOnUse" color-interpolation-filters="sRGB">
<feFlood flood-opacity="0" result="BackgroundImageFix"/>
<feColorMatrix in="SourceAlpha" type="matrix" values="0 0 0 0 0 0 0 0 0 0 0 0 0 0 0 0 0 0 127 0" result="hardAlpha"/>
<feOffset dy="2.26667"/>
<feGaussianBlur stdDeviation="3.4"/>
<feComposite in2="hardAlpha" operator="out"/>
<feColorMatrix type="matrix" values="0 0 0 0 0 0 0 0 0 0 0 0 0 0 0 0 0 0 0.05 0"/>
<feBlend mode="normal" in2="BackgroundImageFix" result="effect1_dropShadow_2404_81026"/>
<feBlend mode="normal" in="SourceGraphic" in2="effect1_dropShadow_2404_81026" result="shape"/>
</filter>
</defs>
</svg>
