<svg width="690" height="144" viewBox="0 0 690 144" fill="none" xmlns="http://www.w3.org/2000/svg">
<g filter="url(#filter0_d_2404_80310)">
<rect x="12" y="8" width="120" height="120" rx="60" fill="white" shape-rendering="crispEdges"/>
<path fill-rule="evenodd" clip-rule="evenodd" d="M71.1706 35.9191C69.3568 36.3177 68.0706 37.9375 68.0733 39.8197C68.0749 40.9709 68.4264 41.8429 69.2115 42.6431C71.0195 44.4862 73.9428 44.1689 75.3411 41.9776C75.7491 41.3384 75.9317 40.6855 75.9295 39.8744C75.9272 39.0631 75.8423 38.6691 75.5305 38.0228C75.0321 36.9896 73.9611 36.1643 72.7953 35.9148C72.1524 35.7773 71.8121 35.7781 71.1706 35.9191ZM68.1016 46.4555C66.4245 46.7159 65.0496 48.0531 64.7532 49.7122C64.7007 50.0059 64.6719 51.9027 64.6719 55.0634C64.6719 60.3487 64.6658 60.2628 65.0722 60.7114C65.2957 60.9581 65.7827 61.1779 66.1105 61.1799C66.4757 61.1822 66.996 60.8971 67.2745 60.5419L67.5056 60.2474L67.5255 56.4776C67.5365 54.4043 67.5621 52.6326 67.5824 52.5406C67.6277 52.3353 67.8624 52.2488 68.0695 52.3613C68.2231 52.4448 68.2235 52.4666 68.2235 61.6469C68.2235 69.7926 68.237 70.8816 68.3409 71.1339C68.8125 72.2798 70.3328 72.5486 71.1855 71.637C71.6339 71.1575 71.624 71.2812 71.624 66.1358C71.624 61.9534 71.6374 61.4091 71.7427 61.3021C71.887 61.1558 72.1054 61.1461 72.216 61.2813C72.2718 61.3496 72.3045 62.8664 72.3197 66.0933C72.3417 70.7536 72.3437 70.8089 72.505 71.1123C72.6933 71.4664 72.9998 71.7746 73.3242 71.9361C74.1361 72.3402 75.1736 71.986 75.6044 71.1578L75.7802 70.8197V61.6799C75.7802 52.9227 75.786 52.5347 75.9184 52.4131C76.0815 52.2633 76.2439 52.2507 76.3696 52.3782C76.4376 52.4472 76.4603 53.3832 76.4607 56.1166C76.4609 58.3227 76.4911 59.8725 76.537 60.0404C76.6567 60.4775 76.9242 60.8219 77.2892 61.0091C78.0153 61.3813 78.8365 61.0746 79.189 60.2997C79.3201 60.0116 79.3285 59.6919 79.329 55.0085C79.3296 49.5591 79.3258 49.5048 78.886 48.6207C78.4327 47.7093 77.5302 46.9295 76.5413 46.5943C76.0592 46.431 75.9339 46.4256 72.2663 46.4108C70.1882 46.4024 68.3141 46.4226 68.1016 46.4555Z" fill="#9498FF"/>
<path d="M62.8573 90.5654L65.2294 86.0059H66.9999L63.6777 92.1172V96H62.0439V92.1787L58.7148 86.0059H60.4989L62.8573 90.5654ZM75.2676 92.1992C75.2676 92.8281 75.1855 93.3864 75.0215 93.874C74.8574 94.3617 74.6182 94.7741 74.3037 95.1113C73.9893 95.444 73.611 95.6992 73.1689 95.877C72.7269 96.0501 72.2279 96.1367 71.6719 96.1367C71.1523 96.1367 70.6761 96.0501 70.2432 95.877C69.8102 95.6992 69.4342 95.444 69.1152 95.1113C68.8008 94.7741 68.557 94.3617 68.3838 93.874C68.2106 93.3864 68.124 92.8281 68.124 92.1992C68.124 91.3652 68.2676 90.6589 68.5547 90.0801C68.8464 89.4967 69.2611 89.0524 69.7988 88.7471C70.3366 88.4417 70.9769 88.2891 71.7197 88.2891C72.417 88.2891 73.0322 88.4417 73.5654 88.7471C74.0986 89.0524 74.5156 89.4967 74.8164 90.0801C75.1172 90.6634 75.2676 91.3698 75.2676 92.1992ZM69.7783 92.1992C69.7783 92.7507 69.8444 93.2223 69.9766 93.6143C70.1133 94.0062 70.3229 94.307 70.6055 94.5166C70.888 94.7217 71.2526 94.8242 71.6992 94.8242C72.1458 94.8242 72.5104 94.7217 72.793 94.5166C73.0755 94.307 73.2829 94.0062 73.415 93.6143C73.5472 93.2223 73.6133 92.7507 73.6133 92.1992C73.6133 91.6478 73.5472 91.1807 73.415 90.7979C73.2829 90.4105 73.0755 90.1165 72.793 89.916C72.5104 89.7109 72.1436 89.6084 71.6924 89.6084C71.027 89.6084 70.5417 89.8317 70.2363 90.2783C69.931 90.7249 69.7783 91.3652 69.7783 92.1992ZM84.13 88.4326V96H82.8653L82.6466 94.9814H82.5577C82.3982 95.2412 82.1954 95.4577 81.9493 95.6309C81.7032 95.7995 81.4298 95.9248 81.129 96.0068C80.8282 96.0934 80.5115 96.1367 80.1788 96.1367C79.6091 96.1367 79.1215 96.041 78.7159 95.8496C78.3149 95.6536 78.0072 95.3529 77.793 94.9473C77.5789 94.5417 77.4718 94.0176 77.4718 93.375V88.4326H79.085V93.0742C79.085 93.6621 79.2035 94.1019 79.4405 94.3936C79.682 94.6852 80.0557 94.8311 80.5616 94.8311C81.0492 94.8311 81.4366 94.7308 81.7237 94.5303C82.0108 94.3298 82.2136 94.0335 82.3321 93.6416C82.4552 93.2497 82.5167 92.7689 82.5167 92.1992V88.4326H84.13Z" fill="#374151"/>
</g>
<path d="M174.792 72.2587C175.986 71.4098 179.257 70.2396 179.919 68.9763C179.303 68.773 178.102 69.1463 177.451 69.2199C176.415 69.3303 175.381 69.4149 174.35 69.5093C172.527 69.6724 170.703 69.8061 168.873 69.8547C166.046 69.9323 163.206 69.8104 160.399 69.7985C157.232 69.7833 154.078 69.5706 150.922 69.4749C149.02 69.4168 147.122 69.3915 145.22 69.3334C144.158 69.2985 141.246 69.6294 140.483 68.6496C139.7 67.6453 140.798 67.5237 141.594 67.475C143.236 67.372 144.881 67.3863 146.528 67.339C149.967 67.2399 153.404 67.1537 156.841 67.0023C160.226 66.8533 163.641 66.7263 167.026 66.6911C170.283 66.6585 174.218 66.8537 177.375 65.9866C177.05 65.3939 175.508 64.9229 174.872 64.5683C173.88 64.0153 172.868 63.4543 171.913 62.8328C171.239 62.3905 170.158 61.6676 170.514 60.6623C170.77 59.948 171.831 59.7616 172.472 59.8954C174.218 60.2563 176.175 62.0366 177.771 62.8635C179.67 63.8452 181.581 64.7987 183.505 65.6979C184.706 66.2582 186.082 67.2752 185.015 68.6941C184.158 69.8308 181.751 70.7203 180.524 71.3681C178.852 72.256 177.118 72.9566 175.415 73.7866C173.255 74.8362 173.575 73.6327 174.789 72.2616C175.013 72.1043 174.412 72.683 174.789 72.2616L174.792 72.2587Z" fill="#D1D5DB"/>
<g filter="url(#filter1_d_2404_80310)">
<rect x="194" y="8" width="120" height="120" rx="60" fill="white" shape-rendering="crispEdges"/>
<path d="M241 73H247.609V49.8696H241V73Z" fill="#EC88E0"/>
<path d="M250.913 73H257.522V43.2609H250.913V73Z" fill="#EC88E0"/>
<path d="M260.826 73H267.435V35H260.826V73Z" fill="#EC88E0"/>
<path d="M217.59 90.4561H220.325V91.6729H217.59V94.4346H216.374V91.6729H213.646V90.4561H216.374V87.667H217.59V90.4561ZM230.831 96H229.218V89.5674C229.218 89.3532 229.22 89.139 229.224 88.9248C229.229 88.7106 229.233 88.501 229.238 88.2959C229.247 88.0908 229.259 87.8949 229.272 87.708C229.177 87.8128 229.058 87.9268 228.917 88.0498C228.78 88.1729 228.634 88.3005 228.479 88.4326L227.331 89.3486L226.524 88.3301L229.491 86.0059H230.831V96ZM241.932 94.8379C242.141 94.8379 242.349 94.8197 242.554 94.7832C242.759 94.7422 242.946 94.6943 243.114 94.6396V95.8564C242.936 95.9339 242.706 96 242.424 96.0547C242.141 96.1094 241.847 96.1367 241.542 96.1367C241.114 96.1367 240.728 96.0661 240.387 95.9248C240.045 95.779 239.774 95.5306 239.573 95.1797C239.373 94.8288 239.272 94.3434 239.272 93.7236V89.6562H238.24V88.9385L239.348 88.3711L239.874 86.751H240.886V88.4326H243.053V89.6562H240.886V93.7031C240.886 94.0859 240.981 94.3708 241.173 94.5576C241.364 94.7445 241.617 94.8379 241.932 94.8379ZM251.771 92.1992C251.771 92.8281 251.689 93.3864 251.525 93.874C251.361 94.3617 251.122 94.7741 250.808 95.1113C250.493 95.444 250.115 95.6992 249.673 95.877C249.231 96.0501 248.732 96.1367 248.176 96.1367C247.656 96.1367 247.18 96.0501 246.747 95.877C246.314 95.6992 245.938 95.444 245.619 95.1113C245.305 94.7741 245.061 94.3617 244.888 93.874C244.715 93.3864 244.628 92.8281 244.628 92.1992C244.628 91.3652 244.771 90.6589 245.059 90.0801C245.35 89.4967 245.765 89.0524 246.303 88.7471C246.84 88.4417 247.481 88.2891 248.224 88.2891C248.921 88.2891 249.536 88.4417 250.069 88.7471C250.603 89.0524 251.02 89.4967 251.32 90.0801C251.621 90.6634 251.771 91.3698 251.771 92.1992ZM246.282 92.1992C246.282 92.7507 246.348 93.2223 246.48 93.6143C246.617 94.0062 246.827 94.307 247.109 94.5166C247.392 94.7217 247.757 94.8242 248.203 94.8242C248.65 94.8242 249.014 94.7217 249.297 94.5166C249.579 94.307 249.787 94.0062 249.919 93.6143C250.051 93.2223 250.117 92.7507 250.117 92.1992C250.117 91.6478 250.051 91.1807 249.919 90.7979C249.787 90.4105 249.579 90.1165 249.297 89.916C249.014 89.7109 248.647 89.6084 248.196 89.6084C247.531 89.6084 247.046 89.8317 246.74 90.2783C246.435 90.7249 246.282 91.3652 246.282 92.1992ZM257.982 88.2891C258.834 88.2891 259.497 88.5101 259.971 88.9521C260.449 89.3896 260.689 90.0938 260.689 91.0645V96H259.082V91.3652C259.082 90.7773 258.961 90.3376 258.72 90.0459C258.478 89.7497 258.105 89.6016 257.599 89.6016C256.865 89.6016 256.355 89.8271 256.067 90.2783C255.785 90.7295 255.644 91.3835 255.644 92.2402V96H254.037V88.4326H255.288L255.514 89.458H255.603C255.767 89.1937 255.969 88.9772 256.211 88.8086C256.457 88.6354 256.731 88.5055 257.031 88.4189C257.337 88.3324 257.653 88.2891 257.982 88.2891ZM271.837 87.2568C271.359 87.2568 270.93 87.3434 270.552 87.5166C270.178 87.6898 269.862 87.9404 269.602 88.2686C269.342 88.5921 269.144 88.9863 269.007 89.4512C268.87 89.9115 268.802 90.431 268.802 91.0098C268.802 91.7845 268.911 92.4521 269.13 93.0127C269.349 93.5687 269.682 93.9971 270.128 94.2979C270.575 94.5941 271.14 94.7422 271.823 94.7422C272.247 94.7422 272.66 94.7012 273.061 94.6191C273.462 94.5371 273.877 94.4255 274.305 94.2842V95.6787C273.899 95.8382 273.489 95.9544 273.074 96.0273C272.66 96.1003 272.181 96.1367 271.639 96.1367C270.618 96.1367 269.77 95.9248 269.096 95.501C268.426 95.0771 267.925 94.4801 267.592 93.71C267.264 92.9398 267.1 92.0374 267.1 91.0029C267.1 90.2464 267.205 89.5537 267.414 88.9248C267.624 88.2959 267.929 87.7536 268.33 87.2979C268.731 86.8376 269.226 86.4844 269.814 86.2383C270.406 85.9876 271.083 85.8623 271.844 85.8623C272.345 85.8623 272.837 85.9193 273.321 86.0332C273.808 86.1426 274.259 86.2998 274.674 86.5049L274.1 87.8584C273.753 87.6943 273.391 87.5531 273.013 87.4346C272.635 87.3161 272.243 87.2568 271.837 87.2568ZM285.744 90.9893C285.744 91.7594 285.646 92.4613 285.451 93.0947C285.259 93.7236 284.97 94.266 284.582 94.7217C284.195 95.1729 283.71 95.5215 283.126 95.7676C282.543 96.0137 281.859 96.1367 281.076 96.1367C280.278 96.1367 279.585 96.0137 278.997 95.7676C278.414 95.5215 277.929 95.1706 277.541 94.7148C277.159 94.2591 276.871 93.7145 276.68 93.0811C276.489 92.4476 276.393 91.7458 276.393 90.9756C276.393 89.9456 276.562 89.0479 276.899 88.2822C277.241 87.512 277.758 86.915 278.451 86.4912C279.148 86.0628 280.027 85.8486 281.089 85.8486C282.128 85.8486 282.992 86.0605 283.68 86.4844C284.368 86.9082 284.883 87.5052 285.225 88.2754C285.571 89.041 285.744 89.9456 285.744 90.9893ZM278.116 90.9893C278.116 91.7594 278.22 92.4271 278.43 92.9922C278.64 93.5527 278.961 93.9857 279.394 94.291C279.831 94.5918 280.392 94.7422 281.076 94.7422C281.764 94.7422 282.324 94.5918 282.757 94.291C283.19 93.9857 283.509 93.5527 283.714 92.9922C283.919 92.4271 284.022 91.7594 284.022 90.9893C284.022 89.818 283.787 88.902 283.318 88.2412C282.853 87.5758 282.11 87.2432 281.089 87.2432C280.406 87.2432 279.843 87.3936 279.401 87.6943C278.963 87.9951 278.64 88.4258 278.43 88.9863C278.22 89.5423 278.116 90.21 278.116 90.9893ZM294.395 96H287.627V94.79L290.218 92.165C290.719 91.6546 291.132 91.2148 291.455 90.8457C291.779 90.472 292.018 90.1188 292.173 89.7861C292.333 89.4535 292.412 89.0911 292.412 88.6992C292.412 88.2161 292.274 87.8516 291.996 87.6055C291.718 87.3548 291.351 87.2295 290.895 87.2295C290.462 87.2295 290.061 87.3161 289.692 87.4893C289.327 87.6579 288.949 87.8994 288.557 88.2139L287.675 87.1543C287.953 86.9173 288.249 86.7008 288.564 86.5049C288.883 86.3089 289.238 86.154 289.63 86.04C290.022 85.9215 290.469 85.8623 290.97 85.8623C291.604 85.8623 292.15 85.9762 292.611 86.2041C293.071 86.4274 293.424 86.7396 293.67 87.1406C293.921 87.5417 294.046 88.0088 294.046 88.542C294.046 89.0798 293.939 89.5765 293.725 90.0322C293.511 90.488 293.205 90.9391 292.809 91.3857C292.412 91.8278 291.941 92.3086 291.394 92.8281L289.664 94.5166V94.5918H294.395V96Z" fill="#EB46B3"/>
</g>
<path d="M356.792 72.2587C357.986 71.4098 361.257 70.2396 361.919 68.9763C361.303 68.773 360.102 69.1463 359.451 69.2199C358.415 69.3303 357.381 69.4149 356.35 69.5093C354.527 69.6724 352.703 69.8061 350.873 69.8547C348.046 69.9323 345.206 69.8104 342.399 69.7985C339.232 69.7833 336.078 69.5706 332.922 69.4749C331.02 69.4168 329.122 69.3915 327.22 69.3334C326.158 69.2985 323.246 69.6294 322.483 68.6496C321.7 67.6453 322.798 67.5237 323.594 67.475C325.236 67.372 326.881 67.3863 328.528 67.339C331.967 67.2399 335.404 67.1537 338.841 67.0023C342.226 66.8533 345.641 66.7263 349.026 66.6911C352.283 66.6585 356.218 66.8537 359.375 65.9866C359.05 65.3939 357.508 64.9229 356.872 64.5683C355.88 64.0153 354.868 63.4543 353.913 62.8328C353.239 62.3905 352.158 61.6676 352.514 60.6623C352.77 59.948 353.831 59.7616 354.472 59.8954C356.218 60.2563 358.175 62.0366 359.771 62.8635C361.67 63.8452 363.581 64.7987 365.505 65.6979C366.706 66.2582 368.082 67.2752 367.015 68.6941C366.158 69.8308 363.751 70.7203 362.524 71.3681C360.852 72.256 359.118 72.9566 357.415 73.7866C355.255 74.8362 355.575 73.6327 356.789 72.2616C357.013 72.1043 356.412 72.683 356.789 72.2616L356.792 72.2587Z" fill="#D1D5DB"/>
<g filter="url(#filter2_d_2404_80310)">
<rect x="376" y="8" width="120" height="120" rx="60" fill="white" shape-rendering="crispEdges"/>
<path d="M423.5 65.5H429V72.5H423.5V65.5ZM433.25 65.5H438.75V72.5H433.25V65.5ZM443 65.5H448.5V72.5H443V65.5Z" fill="#9CA3AF" stroke="#9CA3AF"/>
<path d="M408.631 90.9961C408.631 91.8027 408.567 92.5251 408.439 93.1631C408.316 93.7965 408.12 94.3343 407.851 94.7764C407.582 95.2184 407.231 95.5557 406.799 95.7881C406.366 96.0205 405.841 96.1367 405.226 96.1367C404.456 96.1367 403.82 95.9339 403.319 95.5283C402.818 95.1182 402.446 94.5303 402.205 93.7646C401.963 92.9945 401.842 92.0716 401.842 90.9961C401.842 89.9206 401.952 89 402.171 88.2344C402.394 87.4642 402.754 86.874 403.251 86.4639C403.747 86.0537 404.406 85.8486 405.226 85.8486C406.001 85.8486 406.639 86.0537 407.14 86.4639C407.646 86.8695 408.02 87.4574 408.261 88.2275C408.507 88.9932 408.631 89.916 408.631 90.9961ZM403.463 90.9961C403.463 91.8392 403.517 92.5433 403.627 93.1084C403.741 93.6735 403.927 94.0973 404.187 94.3799C404.447 94.6579 404.793 94.7969 405.226 94.7969C405.659 94.7969 406.006 94.6579 406.265 94.3799C406.525 94.1019 406.712 93.6803 406.826 93.1152C406.944 92.5501 407.004 91.8438 407.004 90.9961C407.004 90.1576 406.947 89.4557 406.833 88.8906C406.719 88.3255 406.532 87.9017 406.272 87.6191C406.012 87.332 405.664 87.1885 405.226 87.1885C404.789 87.1885 404.44 87.332 404.18 87.6191C403.925 87.9017 403.741 88.3255 403.627 88.8906C403.517 89.4557 403.463 90.1576 403.463 90.9961ZM417.687 94.8379C417.897 94.8379 418.104 94.8197 418.309 94.7832C418.514 94.7422 418.701 94.6943 418.87 94.6396V95.8564C418.692 95.9339 418.462 96 418.18 96.0547C417.897 96.1094 417.603 96.1367 417.298 96.1367C416.869 96.1367 416.484 96.0661 416.142 95.9248C415.801 95.779 415.529 95.5306 415.329 95.1797C415.128 94.8288 415.028 94.3434 415.028 93.7236V89.6562H413.996V88.9385L415.103 88.3711L415.63 86.751H416.641V88.4326H418.808V89.6562H416.641V93.7031C416.641 94.0859 416.737 94.3708 416.929 94.5576C417.12 94.7445 417.373 94.8379 417.687 94.8379ZM427.527 92.1992C427.527 92.8281 427.445 93.3864 427.281 93.874C427.117 94.3617 426.878 94.7741 426.563 95.1113C426.249 95.444 425.871 95.6992 425.429 95.877C424.987 96.0501 424.488 96.1367 423.932 96.1367C423.412 96.1367 422.936 96.0501 422.503 95.877C422.07 95.6992 421.694 95.444 421.375 95.1113C421.06 94.7741 420.817 94.3617 420.643 93.874C420.47 93.3864 420.384 92.8281 420.384 92.1992C420.384 91.3652 420.527 90.6589 420.814 90.0801C421.106 89.4967 421.521 89.0524 422.059 88.7471C422.596 88.4417 423.237 88.2891 423.979 88.2891C424.677 88.2891 425.292 88.4417 425.825 88.7471C426.358 89.0524 426.775 89.4967 427.076 90.0801C427.377 90.6634 427.527 91.3698 427.527 92.1992ZM422.038 92.1992C422.038 92.7507 422.104 93.2223 422.236 93.6143C422.373 94.0062 422.583 94.307 422.865 94.5166C423.148 94.7217 423.512 94.8242 423.959 94.8242C424.406 94.8242 424.77 94.7217 425.053 94.5166C425.335 94.307 425.543 94.0062 425.675 93.6143C425.807 93.2223 425.873 92.7507 425.873 92.1992C425.873 91.6478 425.807 91.1807 425.675 90.7979C425.543 90.4105 425.335 90.1165 425.053 89.916C424.77 89.7109 424.403 89.6084 423.952 89.6084C423.287 89.6084 422.801 89.8317 422.496 90.2783C422.191 90.7249 422.038 91.3652 422.038 92.1992ZM433.737 88.2891C434.59 88.2891 435.253 88.5101 435.727 88.9521C436.205 89.3896 436.444 90.0938 436.444 91.0645V96H434.838V91.3652C434.838 90.7773 434.717 90.3376 434.476 90.0459C434.234 89.7497 433.86 89.6016 433.354 89.6016C432.621 89.6016 432.11 89.8271 431.823 90.2783C431.541 90.7295 431.399 91.3835 431.399 92.2402V96H429.793V88.4326H431.044L431.27 89.458H431.358C431.522 89.1937 431.725 88.9772 431.967 88.8086C432.213 88.6354 432.486 88.5055 432.787 88.4189C433.092 88.3324 433.409 88.2891 433.737 88.2891ZM447.593 87.2568C447.114 87.2568 446.686 87.3434 446.308 87.5166C445.934 87.6898 445.617 87.9404 445.358 88.2686C445.098 88.5921 444.9 88.9863 444.763 89.4512C444.626 89.9115 444.558 90.431 444.558 91.0098C444.558 91.7845 444.667 92.4521 444.886 93.0127C445.105 93.5687 445.437 93.9971 445.884 94.2979C446.331 94.5941 446.896 94.7422 447.579 94.7422C448.003 94.7422 448.416 94.7012 448.817 94.6191C449.218 94.5371 449.632 94.4255 450.061 94.2842V95.6787C449.655 95.8382 449.245 95.9544 448.83 96.0273C448.416 96.1003 447.937 96.1367 447.395 96.1367C446.374 96.1367 445.526 95.9248 444.852 95.501C444.182 95.0771 443.68 94.4801 443.348 93.71C443.02 92.9398 442.856 92.0374 442.856 91.0029C442.856 90.2464 442.96 89.5537 443.17 88.9248C443.38 88.2959 443.685 87.7536 444.086 87.2979C444.487 86.8376 444.982 86.4844 445.569 86.2383C446.162 85.9876 446.839 85.8623 447.6 85.8623C448.101 85.8623 448.593 85.9193 449.076 86.0332C449.564 86.1426 450.015 86.2998 450.43 86.5049L449.856 87.8584C449.509 87.6943 449.147 87.5531 448.769 87.4346C448.39 87.3161 447.999 87.2568 447.593 87.2568ZM461.5 90.9893C461.5 91.7594 461.402 92.4613 461.206 93.0947C461.015 93.7236 460.725 94.266 460.338 94.7217C459.951 95.1729 459.465 95.5215 458.882 95.7676C458.299 96.0137 457.615 96.1367 456.831 96.1367C456.034 96.1367 455.341 96.0137 454.753 95.7676C454.17 95.5215 453.684 95.1706 453.297 94.7148C452.914 94.2591 452.627 93.7145 452.436 93.0811C452.244 92.4476 452.149 91.7458 452.149 90.9756C452.149 89.9456 452.317 89.0479 452.655 88.2822C452.996 87.512 453.514 86.915 454.206 86.4912C454.904 86.0628 455.783 85.8486 456.845 85.8486C457.884 85.8486 458.748 86.0605 459.436 86.4844C460.124 86.9082 460.639 87.5052 460.981 88.2754C461.327 89.041 461.5 89.9456 461.5 90.9893ZM453.871 90.9893C453.871 91.7594 453.976 92.4271 454.186 92.9922C454.395 93.5527 454.717 93.9857 455.15 94.291C455.587 94.5918 456.148 94.7422 456.831 94.7422C457.519 94.7422 458.08 94.5918 458.513 94.291C458.946 93.9857 459.265 93.5527 459.47 92.9922C459.675 92.4271 459.778 91.7594 459.778 90.9893C459.778 89.818 459.543 88.902 459.073 88.2412C458.609 87.5758 457.866 87.2432 456.845 87.2432C456.161 87.2432 455.599 87.3936 455.156 87.6943C454.719 87.9951 454.395 88.4258 454.186 88.9863C453.976 89.5423 453.871 90.21 453.871 90.9893ZM470.151 96H463.383V94.79L465.974 92.165C466.475 91.6546 466.888 91.2148 467.211 90.8457C467.535 90.472 467.774 90.1188 467.929 89.7861C468.089 89.4535 468.168 89.0911 468.168 88.6992C468.168 88.2161 468.029 87.8516 467.751 87.6055C467.473 87.3548 467.106 87.2295 466.651 87.2295C466.218 87.2295 465.817 87.3161 465.448 87.4893C465.083 87.6579 464.705 87.8994 464.313 88.2139L463.431 87.1543C463.709 86.9173 464.005 86.7008 464.32 86.5049C464.639 86.3089 464.994 86.154 465.386 86.04C465.778 85.9215 466.225 85.8623 466.726 85.8623C467.359 85.8623 467.906 85.9762 468.367 86.2041C468.827 86.4274 469.18 86.7396 469.426 87.1406C469.677 87.5417 469.802 88.0088 469.802 88.542C469.802 89.0798 469.695 89.5765 469.481 90.0322C469.267 90.488 468.961 90.9391 468.565 91.3857C468.168 91.8278 467.697 92.3086 467.15 92.8281L465.42 94.5166V94.5918H470.151V96Z" fill="#6B7280"/>
</g>
<path d="M538.792 72.2587C539.986 71.4098 543.257 70.2396 543.919 68.9763C543.303 68.773 542.102 69.1463 541.451 69.2199C540.415 69.3303 539.381 69.4149 538.35 69.5093C536.527 69.6724 534.703 69.8061 532.873 69.8547C530.046 69.9323 527.206 69.8104 524.399 69.7985C521.232 69.7833 518.078 69.5706 514.922 69.4749C513.02 69.4168 511.122 69.3915 509.22 69.3334C508.158 69.2985 505.246 69.6294 504.483 68.6496C503.7 67.6453 504.798 67.5237 505.594 67.475C507.236 67.372 508.881 67.3863 510.528 67.339C513.967 67.2399 517.404 67.1537 520.841 67.0023C524.226 66.8533 527.641 66.7263 531.026 66.6911C534.283 66.6585 538.218 66.8537 541.375 65.9866C541.05 65.3939 539.508 64.9229 538.872 64.5683C537.88 64.0153 536.868 63.4543 535.913 62.8328C535.239 62.3905 534.158 61.6676 534.514 60.6623C534.77 59.948 535.831 59.7616 536.472 59.8954C538.218 60.2563 540.175 62.0366 541.771 62.8635C543.67 63.8452 545.581 64.7987 547.505 65.6979C548.706 66.2582 550.082 67.2752 549.015 68.6941C548.158 69.8308 545.751 70.7203 544.524 71.3681C542.852 72.256 541.118 72.9566 539.415 73.7866C537.255 74.8362 537.575 73.6327 538.789 72.2616C539.013 72.1043 538.412 72.683 538.789 72.2616L538.792 72.2587Z" fill="#D1D5DB"/>
<g filter="url(#filter3_d_2404_80310)">
<rect x="558" y="8" width="120" height="120" rx="60" fill="white" shape-rendering="crispEdges"/>
<path fill-rule="evenodd" clip-rule="evenodd" d="M613.36 35.0788C612.654 35.2946 612.074 35.7353 611.609 36.4092C611.161 37.0593 610.967 37.1185 610.306 36.8074C609.918 36.6248 609.606 36.5521 609.08 36.5215C608.084 36.4636 607.504 36.6903 606.771 37.4238C606.302 37.8924 606.2 38.0551 606.036 38.5935C605.932 38.9375 605.78 39.2782 605.698 39.3505C605.617 39.4228 605.292 39.5472 604.976 39.6268C603.858 39.9093 602.983 40.631 602.487 41.6808C601.591 43.5771 602.404 45.8317 604.306 46.7315C604.918 47.0209 605.097 47.2172 605.199 47.7133C605.461 48.981 606.506 49.8896 607.935 50.0915C608.836 50.2188 608.859 50.263 608.859 51.8296V53.1003H617.936L617.964 51.812C617.993 50.5247 617.993 50.5234 618.241 50.3106C618.408 50.1668 618.596 50.0977 618.822 50.0977C619.006 50.0977 619.35 50.0394 619.586 49.9682C619.822 49.8971 620.103 49.8606 620.209 49.8872C620.314 49.9138 620.624 50.1877 620.896 50.4958C621.547 51.2334 622.132 51.527 623.055 51.5792C623.593 51.6095 623.827 51.5797 624.214 51.4316C624.947 51.1511 625.041 51.1755 625.655 51.8072C626.266 52.4362 626.767 52.7538 627.473 52.9604C628.844 53.3606 630.494 52.8517 631.395 51.751C632.051 50.9503 632.378 49.8123 632.232 48.8438C632.029 47.5015 632.029 47.4923 632.273 47.2997C632.436 47.1721 632.687 47.1072 633.156 47.0717C634.001 47.0077 634.649 46.7055 635.196 46.1195C635.823 45.4488 635.995 45.0036 635.993 44.0483C635.992 43.039 635.781 42.5248 635.104 41.8839C634.365 41.1844 633.983 41.0457 632.8 41.0457C631.485 41.0457 631.495 41.0554 631.495 39.7399C631.495 38.8378 631.473 38.7054 631.252 38.2542C630.923 37.5834 630.217 36.9305 629.551 36.6802C628.436 36.2614 627.163 36.5596 626.288 37.444C625.665 38.0742 625.576 38.0851 624.695 37.6379C624.01 37.2903 623.899 37.2612 623.267 37.2616C622.773 37.262 622.447 37.3155 622.096 37.4538C621.829 37.5593 621.529 37.6455 621.428 37.6455C621.327 37.6456 621.017 37.4688 620.739 37.2528C620.461 37.0367 620.008 36.7749 619.731 36.671C619.22 36.479 618.757 36.472 617.489 36.6373L617.072 36.6915L616.43 36.0329C615.925 35.516 615.677 35.3338 615.276 35.1853C614.752 34.9913 613.817 34.9393 613.36 35.0788ZM610.321 40.4249C610.561 40.4964 610.902 40.6752 611.08 40.8222C611.76 41.3858 612.087 42.5789 611.68 43.016C611.254 43.4729 610.448 43.1311 610.448 42.4939C610.448 42.1086 610.102 41.7956 609.68 41.7991C608.943 41.8053 608.859 42.0379 608.859 44.0799C608.859 45.7551 608.86 45.7571 609.088 46.0285C609.272 46.2476 609.384 46.3003 609.665 46.3003C610.094 46.3003 610.448 45.9916 610.448 45.6174C610.448 45.0873 610.93 44.7302 611.417 44.9C611.749 45.0159 611.86 45.21 611.86 45.6791C611.86 46.4129 611.422 47.0974 610.701 47.4905C609.594 48.0943 608.226 47.6439 607.65 46.4864C607.515 46.215 607.487 45.8795 607.463 44.2249C607.445 42.9409 607.47 42.1623 607.537 41.9288C607.745 41.2044 608.246 40.6957 609.025 40.417C609.449 40.2656 609.795 40.2677 610.321 40.4249ZM616.326 40.4254C616.885 40.5915 617.434 41.061 617.698 41.5979C617.889 41.9844 617.907 42.148 617.935 43.6989C617.952 44.6741 617.924 45.6017 617.868 45.9067C617.697 46.842 617.023 47.534 616.096 47.727C615.168 47.9199 614.162 47.4192 613.685 46.5271C613.502 46.1867 613.492 46.0565 613.492 44.0483C613.492 41.7079 613.504 41.6472 614.098 41.0161C614.702 40.374 615.469 40.1707 616.326 40.4254ZM622.699 40.5538C623.693 41.0665 624.125 42.1214 623.824 43.2975C623.624 44.0786 623.275 44.5834 622.3 45.4985L621.467 46.2808L622.496 46.3135C623.495 46.3453 623.531 46.3533 623.737 46.5931C624.023 46.9255 624.007 47.2278 623.686 47.5486L623.423 47.8119L621.659 47.7846C619.989 47.7588 619.885 47.7473 619.705 47.567C619.469 47.3311 619.459 46.7188 619.682 46.232C619.765 46.05 620.354 45.3898 620.999 44.7548C622.251 43.5235 622.455 43.2297 622.479 42.6279C622.491 42.3187 622.448 42.1964 622.265 42.0136C621.856 41.6041 621.104 41.7757 620.987 42.3053C620.862 42.8713 620.792 42.996 620.517 43.1358C620.288 43.2521 620.172 43.2635 619.961 43.1902C619.206 42.9265 619.451 41.4807 620.37 40.7793C621.02 40.2826 621.991 40.1886 622.699 40.5538ZM615.511 41.7755C615.408 41.7921 615.229 41.9062 615.114 42.0289C614.907 42.2487 614.904 42.2793 614.904 44.0483C614.904 45.8277 614.906 45.8466 615.118 46.0723C615.41 46.3831 615.927 46.3883 616.232 46.0835C616.448 45.8675 616.449 45.8598 616.449 44.072C616.449 42.628 616.423 42.2406 616.318 42.09C616.169 41.8782 615.79 41.7304 615.511 41.7755Z" fill="#EC88E0"/>
<path d="M605.407 61.7824C604.514 65.4004 602.983 69.0326 601.097 72.0372C600.837 72.4508 601.129 73.0002 601.617 73L625.251 72.9895C625.737 72.9892 626.028 72.4451 625.77 72.0333C623.183 67.8985 621.485 63.2039 620.72 58.0749C620.675 57.7748 620.418 57.5504 620.115 57.5504H606.907C606.603 57.5504 606.348 57.775 606.297 58.0744C606.098 59.2618 605.816 60.1239 605.407 61.7824Z" fill="#EC88E0"/>
<path d="M607.372 55.2518C607.372 55.0843 607.508 54.9484 607.676 54.9484H618.922C619.09 54.9484 619.226 55.0843 619.226 55.2518V55.8015C619.226 55.969 619.09 56.1049 618.922 56.1049H607.676C607.508 56.1049 607.372 55.969 607.372 55.8015V55.2518Z" fill="#EC88E0"/>
<path d="M581.59 90.4561H584.325V91.6729H581.59V94.4346H580.374V91.6729H577.646V90.4561H580.374V87.667H581.59V90.4561ZM594.831 96H593.218V89.5674C593.218 89.3532 593.22 89.139 593.224 88.9248C593.229 88.7106 593.233 88.501 593.238 88.2959C593.247 88.0908 593.259 87.8949 593.272 87.708C593.177 87.8128 593.058 87.9268 592.917 88.0498C592.78 88.1729 592.634 88.3005 592.479 88.4326L591.331 89.3486L590.524 88.3301L593.491 86.0059H594.831V96ZM605.932 94.8379C606.141 94.8379 606.349 94.8197 606.554 94.7832C606.759 94.7422 606.946 94.6943 607.114 94.6396V95.8564C606.936 95.9339 606.706 96 606.424 96.0547C606.141 96.1094 605.847 96.1367 605.542 96.1367C605.114 96.1367 604.728 96.0661 604.387 95.9248C604.045 95.779 603.774 95.5306 603.573 95.1797C603.373 94.8288 603.272 94.3434 603.272 93.7236V89.6562H602.24V88.9385L603.348 88.3711L603.874 86.751H604.886V88.4326H607.053V89.6562H604.886V93.7031C604.886 94.0859 604.981 94.3708 605.173 94.5576C605.364 94.7445 605.617 94.8379 605.932 94.8379ZM615.771 92.1992C615.771 92.8281 615.689 93.3864 615.525 93.874C615.361 94.3617 615.122 94.7741 614.808 95.1113C614.493 95.444 614.115 95.6992 613.673 95.877C613.231 96.0501 612.732 96.1367 612.176 96.1367C611.656 96.1367 611.18 96.0501 610.747 95.877C610.314 95.6992 609.938 95.444 609.619 95.1113C609.305 94.7741 609.061 94.3617 608.888 93.874C608.715 93.3864 608.628 92.8281 608.628 92.1992C608.628 91.3652 608.771 90.6589 609.059 90.0801C609.35 89.4967 609.765 89.0524 610.303 88.7471C610.84 88.4417 611.481 88.2891 612.224 88.2891C612.921 88.2891 613.536 88.4417 614.069 88.7471C614.603 89.0524 615.02 89.4967 615.32 90.0801C615.621 90.6634 615.771 91.3698 615.771 92.1992ZM610.282 92.1992C610.282 92.7507 610.348 93.2223 610.48 93.6143C610.617 94.0062 610.827 94.307 611.109 94.5166C611.392 94.7217 611.757 94.8242 612.203 94.8242C612.65 94.8242 613.014 94.7217 613.297 94.5166C613.579 94.307 613.787 94.0062 613.919 93.6143C614.051 93.2223 614.117 92.7507 614.117 92.1992C614.117 91.6478 614.051 91.1807 613.919 90.7979C613.787 90.4105 613.579 90.1165 613.297 89.916C613.014 89.7109 612.647 89.6084 612.196 89.6084C611.531 89.6084 611.046 89.8317 610.74 90.2783C610.435 90.7249 610.282 91.3652 610.282 92.1992ZM621.982 88.2891C622.834 88.2891 623.497 88.5101 623.971 88.9521C624.449 89.3896 624.689 90.0938 624.689 91.0645V96H623.082V91.3652C623.082 90.7773 622.961 90.3376 622.72 90.0459C622.478 89.7497 622.105 89.6016 621.599 89.6016C620.865 89.6016 620.355 89.8271 620.067 90.2783C619.785 90.7295 619.644 91.3835 619.644 92.2402V96H618.037V88.4326H619.288L619.514 89.458H619.603C619.767 89.1937 619.969 88.9772 620.211 88.8086C620.457 88.6354 620.731 88.5055 621.031 88.4189C621.337 88.3324 621.653 88.2891 621.982 88.2891ZM635.837 87.2568C635.359 87.2568 634.93 87.3434 634.552 87.5166C634.178 87.6898 633.862 87.9404 633.602 88.2686C633.342 88.5921 633.144 88.9863 633.007 89.4512C632.87 89.9115 632.802 90.431 632.802 91.0098C632.802 91.7845 632.911 92.4521 633.13 93.0127C633.349 93.5687 633.682 93.9971 634.128 94.2979C634.575 94.5941 635.14 94.7422 635.823 94.7422C636.247 94.7422 636.66 94.7012 637.061 94.6191C637.462 94.5371 637.877 94.4255 638.305 94.2842V95.6787C637.899 95.8382 637.489 95.9544 637.074 96.0273C636.66 96.1003 636.181 96.1367 635.639 96.1367C634.618 96.1367 633.77 95.9248 633.096 95.501C632.426 95.0771 631.925 94.4801 631.592 93.71C631.264 92.9398 631.1 92.0374 631.1 91.0029C631.1 90.2464 631.205 89.5537 631.414 88.9248C631.624 88.2959 631.929 87.7536 632.33 87.2979C632.731 86.8376 633.226 86.4844 633.814 86.2383C634.406 85.9876 635.083 85.8623 635.844 85.8623C636.345 85.8623 636.837 85.9193 637.321 86.0332C637.808 86.1426 638.259 86.2998 638.674 86.5049L638.1 87.8584C637.753 87.6943 637.391 87.5531 637.013 87.4346C636.635 87.3161 636.243 87.2568 635.837 87.2568ZM649.744 90.9893C649.744 91.7594 649.646 92.4613 649.451 93.0947C649.259 93.7236 648.97 94.266 648.582 94.7217C648.195 95.1729 647.71 95.5215 647.126 95.7676C646.543 96.0137 645.859 96.1367 645.076 96.1367C644.278 96.1367 643.585 96.0137 642.997 95.7676C642.414 95.5215 641.929 95.1706 641.541 94.7148C641.159 94.2591 640.871 93.7145 640.68 93.0811C640.489 92.4476 640.393 91.7458 640.393 90.9756C640.393 89.9456 640.562 89.0479 640.899 88.2822C641.241 87.512 641.758 86.915 642.451 86.4912C643.148 86.0628 644.027 85.8486 645.089 85.8486C646.128 85.8486 646.992 86.0605 647.68 86.4844C648.368 86.9082 648.883 87.5052 649.225 88.2754C649.571 89.041 649.744 89.9456 649.744 90.9893ZM642.116 90.9893C642.116 91.7594 642.22 92.4271 642.43 92.9922C642.64 93.5527 642.961 93.9857 643.394 94.291C643.831 94.5918 644.392 94.7422 645.076 94.7422C645.764 94.7422 646.324 94.5918 646.757 94.291C647.19 93.9857 647.509 93.5527 647.714 92.9922C647.919 92.4271 648.022 91.7594 648.022 90.9893C648.022 89.818 647.787 88.902 647.318 88.2412C646.853 87.5758 646.11 87.2432 645.089 87.2432C644.406 87.2432 643.843 87.3936 643.401 87.6943C642.963 87.9951 642.64 88.4258 642.43 88.9863C642.22 89.5423 642.116 90.21 642.116 90.9893ZM658.395 96H651.627V94.79L654.218 92.165C654.719 91.6546 655.132 91.2148 655.455 90.8457C655.779 90.472 656.018 90.1188 656.173 89.7861C656.333 89.4535 656.412 89.0911 656.412 88.6992C656.412 88.2161 656.274 87.8516 655.996 87.6055C655.718 87.3548 655.351 87.2295 654.895 87.2295C654.462 87.2295 654.061 87.3161 653.692 87.4893C653.327 87.6579 652.949 87.8994 652.557 88.2139L651.675 87.1543C651.953 86.9173 652.249 86.7008 652.564 86.5049C652.883 86.3089 653.238 86.154 653.63 86.04C654.022 85.9215 654.469 85.8623 654.97 85.8623C655.604 85.8623 656.15 85.9762 656.611 86.2041C657.071 86.4274 657.424 86.7396 657.67 87.1406C657.921 87.5417 658.046 88.0088 658.046 88.542C658.046 89.0798 657.939 89.5765 657.725 90.0322C657.511 90.488 657.205 90.9391 656.809 91.3857C656.412 91.8278 655.941 92.3086 655.394 92.8281L653.664 94.5166V94.5918H658.395V96Z" fill="#EB46B3"/>
</g>
<defs>
<filter id="filter0_d_2404_80310" x="0" y="0" width="144" height="144" filterUnits="userSpaceOnUse" color-interpolation-filters="sRGB">
<feFlood flood-opacity="0" result="BackgroundImageFix"/>
<feColorMatrix in="SourceAlpha" type="matrix" values="0 0 0 0 0 0 0 0 0 0 0 0 0 0 0 0 0 0 127 0" result="hardAlpha"/>
<feOffset dy="4"/>
<feGaussianBlur stdDeviation="6"/>
<feComposite in2="hardAlpha" operator="out"/>
<feColorMatrix type="matrix" values="0 0 0 0 0 0 0 0 0 0 0 0 0 0 0 0 0 0 0.05 0"/>
<feBlend mode="normal" in2="BackgroundImageFix" result="effect1_dropShadow_2404_80310"/>
<feBlend mode="normal" in="SourceGraphic" in2="effect1_dropShadow_2404_80310" result="shape"/>
</filter>
<filter id="filter1_d_2404_80310" x="182" y="0" width="144" height="144" filterUnits="userSpaceOnUse" color-interpolation-filters="sRGB">
<feFlood flood-opacity="0" result="BackgroundImageFix"/>
<feColorMatrix in="SourceAlpha" type="matrix" values="0 0 0 0 0 0 0 0 0 0 0 0 0 0 0 0 0 0 127 0" result="hardAlpha"/>
<feOffset dy="4"/>
<feGaussianBlur stdDeviation="6"/>
<feComposite in2="hardAlpha" operator="out"/>
<feColorMatrix type="matrix" values="0 0 0 0 0 0 0 0 0 0 0 0 0 0 0 0 0 0 0.05 0"/>
<feBlend mode="normal" in2="BackgroundImageFix" result="effect1_dropShadow_2404_80310"/>
<feBlend mode="normal" in="SourceGraphic" in2="effect1_dropShadow_2404_80310" result="shape"/>
</filter>
<filter id="filter2_d_2404_80310" x="364" y="0" width="144" height="144" filterUnits="userSpaceOnUse" color-interpolation-filters="sRGB">
<feFlood flood-opacity="0" result="BackgroundImageFix"/>
<feColorMatrix in="SourceAlpha" type="matrix" values="0 0 0 0 0 0 0 0 0 0 0 0 0 0 0 0 0 0 127 0" result="hardAlpha"/>
<feOffset dy="4"/>
<feGaussianBlur stdDeviation="6"/>
<feComposite in2="hardAlpha" operator="out"/>
<feColorMatrix type="matrix" values="0 0 0 0 0 0 0 0 0 0 0 0 0 0 0 0 0 0 0.05 0"/>
<feBlend mode="normal" in2="BackgroundImageFix" result="effect1_dropShadow_2404_80310"/>
<feBlend mode="normal" in="SourceGraphic" in2="effect1_dropShadow_2404_80310" result="shape"/>
</filter>
<filter id="filter3_d_2404_80310" x="546" y="0" width="144" height="144" filterUnits="userSpaceOnUse" color-interpolation-filters="sRGB">
<feFlood flood-opacity="0" result="BackgroundImageFix"/>
<feColorMatrix in="SourceAlpha" type="matrix" values="0 0 0 0 0 0 0 0 0 0 0 0 0 0 0 0 0 0 127 0" result="hardAlpha"/>
<feOffset dy="4"/>
<feGaussianBlur stdDeviation="6"/>
<feComposite in2="hardAlpha" operator="out"/>
<feColorMatrix type="matrix" values="0 0 0 0 0 0 0 0 0 0 0 0 0 0 0 0 0 0 0.05 0"/>
<feBlend mode="normal" in2="BackgroundImageFix" result="effect1_dropShadow_2404_80310"/>
<feBlend mode="normal" in="SourceGraphic" in2="effect1_dropShadow_2404_80310" result="shape"/>
</filter>
</defs>
</svg>
