<svg width="93" height="110" viewBox="0 0 93 110" fill="none" xmlns="http://www.w3.org/2000/svg">
<path d="M18.2966 74.4492C18.2966 74.4492 16.1679 65.8584 10.4332 66.7713C4.69844 67.6842 1.95321 66.151 1.95321 66.151C1.95321 66.151 0.138569 81.0035 18.2966 74.4492Z" fill="url(#paint0_linear_2028_74047)"/>
<path d="M9.72357 62.476C9.72357 62.476 11.5498 55.6993 7.23426 54.1076C2.91867 52.5041 1.60422 50.3857 1.60422 50.3857C1.60422 50.3857 -5.35191 59.9596 9.72357 62.476Z" fill="url(#paint1_linear_2028_74047)"/>
<path d="M73.7013 74.4492C73.7013 74.4492 75.83 65.8584 81.5647 66.7713C87.2994 67.6842 90.0447 66.151 90.0447 66.151C90.0447 66.151 91.8593 81.0035 73.7013 74.4492Z" fill="url(#paint2_linear_2028_74047)"/>
<path d="M82.2863 62.476C82.2863 62.476 80.46 55.6993 84.7756 54.1076C89.0912 52.5158 90.4057 50.3857 90.4057 50.3857C90.4057 50.3857 97.3618 59.9596 82.2863 62.476Z" fill="url(#paint3_linear_2028_74047)"/>
<path d="M66.0592 56.4252C66.0592 56.4252 62.8836 60.0769 54.1245 61.7388C49.1807 62.6869 47.4592 67.4036 46.9008 71.3362V60.6738C76.2724 60.5918 66.0592 40.1682 66.0592 40.1682C66.0592 40.1682 62.8836 43.8199 54.1245 45.4819C49.1807 46.4299 47.4592 51.1467 46.9008 55.0792V46.5352C59.0333 45.9032 59.7545 29.1196 55.5087 25.8776C51.1233 22.5302 45.691 12.3477 45.691 12.3477C45.691 12.3477 40.2588 22.5302 35.8734 25.8776C31.6276 29.1196 32.3488 45.9032 44.4813 46.5352V54.9037C43.8997 51.0062 42.1548 46.4065 37.2809 45.4819C28.5217 43.8082 25.3461 40.1682 25.3461 40.1682C25.3461 40.1682 15.1329 60.5801 44.4813 60.6738V71.1723C43.8997 67.2749 42.1548 62.6752 37.2809 61.7505C28.5217 60.0769 25.3461 56.4369 25.3461 56.4369C25.3461 56.4369 15.1329 76.8488 44.4813 76.9424V87.441C43.8997 83.5435 42.1548 78.9438 37.2809 78.0192C28.5217 76.3455 25.3461 72.7056 25.3461 72.7056C25.3461 72.7056 15.1329 93.1174 44.4813 93.2111V107.806C44.4813 108.473 45.028 109.023 45.691 109.023C46.3541 109.023 46.9008 108.473 46.9008 107.806V93.2111C76.2724 93.1292 66.0592 72.7056 66.0592 72.7056C66.0592 72.7056 62.8836 76.3572 54.1245 78.0192C49.1807 78.9672 47.4592 83.684 46.9008 87.6165V76.9541C76.2724 76.8722 66.0592 56.4486 66.0592 56.4486V56.4252Z" fill="url(#paint4_linear_2028_74047)"/>
<path d="M12.7944 25.1516C14.2848 25.1516 15.4931 23.9359 15.4931 22.4362C15.4931 20.9366 14.2848 19.7209 12.7944 19.7209C11.3039 19.7209 10.0957 20.9366 10.0957 22.4362C10.0957 23.9359 11.3039 25.1516 12.7944 25.1516Z" fill="url(#paint5_linear_2028_74047)"/>
<path d="M76.4 25.1516C77.8904 25.1516 79.0986 23.9359 79.0986 22.4362C79.0986 20.9366 77.8904 19.7209 76.4 19.7209C74.9095 19.7209 73.7013 20.9366 73.7013 22.4362C73.7013 23.9359 74.9095 25.1516 76.4 25.1516Z" fill="url(#paint6_linear_2028_74047)"/>
<path d="M46.0167 5.43069C47.5071 5.43069 48.7154 4.21499 48.7154 2.71534C48.7154 1.2157 47.5071 0 46.0167 0C44.5262 0 43.318 1.2157 43.318 2.71534C43.318 4.21499 44.5262 5.43069 46.0167 5.43069Z" fill="url(#paint7_linear_2028_74047)"/>
<defs>
<linearGradient id="paint0_linear_2028_74047" x1="45.999" y1="109" x2="45.999" y2="10.5" gradientUnits="userSpaceOnUse">
<stop stop-color="#7994F9"/>
<stop offset="0.437692" stop-color="#EC84E5"/>
<stop offset="1" stop-color="#FFE576"/>
</linearGradient>
<linearGradient id="paint1_linear_2028_74047" x1="45.999" y1="109" x2="45.999" y2="10.5" gradientUnits="userSpaceOnUse">
<stop stop-color="#7994F9"/>
<stop offset="0.437692" stop-color="#EC84E5"/>
<stop offset="1" stop-color="#FFE576"/>
</linearGradient>
<linearGradient id="paint2_linear_2028_74047" x1="45.999" y1="109" x2="45.999" y2="10.5" gradientUnits="userSpaceOnUse">
<stop stop-color="#7994F9"/>
<stop offset="0.437692" stop-color="#EC84E5"/>
<stop offset="1" stop-color="#FFE576"/>
</linearGradient>
<linearGradient id="paint3_linear_2028_74047" x1="45.999" y1="109" x2="45.999" y2="10.5" gradientUnits="userSpaceOnUse">
<stop stop-color="#7994F9"/>
<stop offset="0.437692" stop-color="#EC84E5"/>
<stop offset="1" stop-color="#FFE576"/>
</linearGradient>
<linearGradient id="paint4_linear_2028_74047" x1="45.999" y1="109" x2="45.999" y2="10.5" gradientUnits="userSpaceOnUse">
<stop stop-color="#7994F9"/>
<stop offset="0.437692" stop-color="#EC84E5"/>
<stop offset="1" stop-color="#FFE576"/>
</linearGradient>
<linearGradient id="paint5_linear_2028_74047" x1="45.999" y1="109" x2="45.999" y2="10.5" gradientUnits="userSpaceOnUse">
<stop stop-color="#7994F9"/>
<stop offset="0.437692" stop-color="#EC84E5"/>
<stop offset="1" stop-color="#FFE576"/>
</linearGradient>
<linearGradient id="paint6_linear_2028_74047" x1="45.999" y1="109" x2="45.999" y2="10.5" gradientUnits="userSpaceOnUse">
<stop stop-color="#7994F9"/>
<stop offset="0.437692" stop-color="#EC84E5"/>
<stop offset="1" stop-color="#FFE576"/>
</linearGradient>
<linearGradient id="paint7_linear_2028_74047" x1="45.999" y1="109" x2="45.999" y2="10.5" gradientUnits="userSpaceOnUse">
<stop stop-color="#7994F9"/>
<stop offset="0.437692" stop-color="#EC84E5"/>
<stop offset="1" stop-color="#FFE576"/>
</linearGradient>
</defs>
</svg>
