<svg width="16" height="13" viewBox="0 0 16 13" fill="none" xmlns="http://www.w3.org/2000/svg">
<path fill-rule="evenodd" clip-rule="evenodd" d="M13.2664 0.0573566C12.0892 0.114572 11.9763 0.132175 11.861 0.276367C11.8287 0.316815 11.7882 0.400911 11.7712 0.463254C11.7173 0.65988 11.7706 0.748555 12.2019 1.17992C12.4169 1.39498 12.5928 1.58294 12.5928 1.5976C12.5928 1.61227 11.4101 2.7877 9.96456 4.20965L7.33636 6.79502L6.10581 5.58689C4.75174 4.25744 4.7433 4.25082 4.40622 4.25007C4.28014 4.24978 4.19151 4.26859 4.09448 4.31627C3.9961 4.36459 3.49693 4.83845 2.27546 6.04303C0.751635 7.54579 0.587502 7.71666 0.544331 7.84518C0.441089 8.15255 0.517356 8.41864 0.781743 8.67366C1.01093 8.89469 1.15462 8.96363 1.38611 8.96363C1.73072 8.96363 1.72545 8.96781 3.13926 7.58045L4.42157 6.32217L5.65889 7.53375C6.42473 8.28369 6.9371 8.76369 7.00361 8.79351C7.17665 8.87106 7.35068 8.88221 7.5434 8.82811L7.71626 8.77959L10.7682 5.77968L13.8202 2.77977L14.2427 3.18685C14.5874 3.51894 14.6852 3.59762 14.7741 3.61401C15.0446 3.66394 15.3084 3.46077 15.3574 3.1647C15.3665 3.10979 15.4023 2.4599 15.437 1.72047L15.5 0.376077L15.4376 0.249286C15.3323 0.0353462 15.2244 -0.00406537 14.7562 0.000313683C14.5409 0.00233035 13.8705 0.0279996 13.2664 0.0573566ZM12.7164 5.13279L11.597 6.23421V9.29113V12.3481L11.6742 12.4241L11.7514 12.5H12.7978H13.8442L13.9214 12.4241L13.9986 12.3481V8.26646V4.18481L13.9173 4.10809L13.8358 4.0314L12.7164 5.13279ZM9.57608 8.22302C8.98811 8.80224 8.44446 9.32355 8.36793 9.38148L8.22881 9.48684V10.9048V12.3227L8.30464 12.4114L8.38047 12.5H9.43356H10.4867L10.5566 12.4312C10.5951 12.3933 10.6345 12.3188 10.6442 12.2655C10.6539 12.2123 10.658 11.044 10.6534 9.66932L10.6451 7.16994L9.57608 8.22302ZM4.86063 10.1385C4.86063 12.3853 4.86119 12.3944 5.00268 12.4689C5.04184 12.4895 5.41258 12.5 6.10086 12.5H7.13992L7.21604 12.411L7.29216 12.322L7.28455 11.0354L7.27693 9.74869L7.11561 9.73163C6.91765 9.71066 6.77344 9.66583 6.54472 9.55408C6.40285 9.48476 6.22767 9.33011 5.63552 8.75136C5.23213 8.3571 4.89276 8.03452 4.88134 8.03452C4.86995 8.03452 4.86063 8.98132 4.86063 10.1385ZM3.14726 8.80751C2.61857 9.32349 2.33652 9.57747 2.22467 9.6382C2.04648 9.73497 1.83601 9.80683 1.64622 9.83566L1.52175 9.85459V11.1014V12.3481L1.59895 12.4241L1.67618 12.5H2.72796H3.77974L3.85159 12.4238L3.9234 12.3475V10.2054C3.9234 9.02727 3.92012 8.06353 3.91608 8.06379C3.91204 8.06405 3.56608 8.39873 3.14726 8.80751Z" fill="#4B5563"/>
</svg>
