<svg width="17" height="16" viewBox="0 0 17 16" fill="none" xmlns="http://www.w3.org/2000/svg">
<g clip-path="url(#clip0_1719_46776)">
<path d="M10.4959 0.870195C10.2267 0.594736 9.9052 0.375856 9.55024 0.226418C9.19527 0.0769807 8.81402 0 8.42888 0C8.04375 0 7.66249 0.0769807 7.30753 0.226418C6.95257 0.375856 6.63105 0.594736 6.36188 0.870195L5.73988 1.5082L4.84988 1.4972C4.46463 1.49264 4.08236 1.56515 3.72554 1.71048C3.36873 1.85581 3.04457 2.07102 2.77214 2.34345C2.49971 2.61589 2.2845 2.94004 2.13917 3.29686C1.99384 3.65367 1.92132 4.03595 1.92588 4.4212L1.93588 5.3112L1.29988 5.9332C1.02442 6.20237 0.805543 6.52388 0.656106 6.87884C0.506668 7.23381 0.429688 7.61506 0.429688 8.0002C0.429688 8.38533 0.506668 8.76659 0.656106 9.12155C0.805543 9.47651 1.02442 9.79803 1.29988 10.0672L1.93688 10.6892L1.92588 11.5792C1.92132 11.9644 1.99384 12.3467 2.13917 12.7035C2.2845 13.0603 2.49971 13.3845 2.77214 13.6569C3.04457 13.9294 3.36873 14.1446 3.72554 14.2899C4.08236 14.4352 4.46463 14.5078 4.84988 14.5032L5.73988 14.4932L6.36188 15.1292C6.63105 15.4047 6.95257 15.6235 7.30753 15.773C7.66249 15.9224 8.04375 15.9994 8.42888 15.9994C8.81402 15.9994 9.19527 15.9224 9.55024 15.773C9.9052 15.6235 10.2267 15.4047 10.4959 15.1292L11.1179 14.4922L12.0079 14.5032C12.3931 14.5078 12.7754 14.4352 13.1322 14.2899C13.489 14.1446 13.8132 13.9294 14.0856 13.6569C14.3581 13.3845 14.5733 13.0603 14.7186 12.7035C14.8639 12.3467 14.9364 11.9644 14.9319 11.5792L14.9219 10.6892L15.5579 10.0672C15.8333 9.79803 16.0522 9.47651 16.2017 9.12155C16.3511 8.76659 16.4281 8.38533 16.4281 8.0002C16.4281 7.61506 16.3511 7.23381 16.2017 6.87884C16.0522 6.52388 15.8333 6.20237 15.5579 5.9332L14.9209 5.3112L14.9319 4.4212C14.9364 4.03595 14.8639 3.65367 14.7186 3.29686C14.5733 2.94004 14.3581 2.61589 14.0856 2.34345C13.8132 2.07102 13.489 1.85581 13.1322 1.71048C12.7754 1.56515 12.3931 1.49264 12.0079 1.4972L11.1179 1.5072L10.4959 0.871195V0.870195ZM10.7829 6.8542L7.78288 9.8542C7.73644 9.90076 7.68126 9.9377 7.62052 9.96291C7.55977 9.98811 7.49465 10.0011 7.42888 10.0011C7.36312 10.0011 7.29799 9.98811 7.23725 9.96291C7.1765 9.9377 7.12133 9.90076 7.07488 9.8542L5.57488 8.3542C5.52839 8.30771 5.49152 8.25252 5.46636 8.19178C5.4412 8.13104 5.42825 8.06594 5.42825 8.0002C5.42825 7.93445 5.4412 7.86935 5.46636 7.80861C5.49152 7.74787 5.52839 7.69268 5.57488 7.6462C5.62137 7.59971 5.67656 7.56283 5.7373 7.53767C5.79804 7.51251 5.86314 7.49956 5.92888 7.49956C5.99463 7.49956 6.05973 7.51251 6.12047 7.53767C6.18121 7.56283 6.23639 7.59971 6.28288 7.6462L7.42888 8.7932L10.0749 6.1462C10.1688 6.05231 10.2961 5.99956 10.4289 5.99956C10.5617 5.99956 10.689 6.05231 10.7829 6.1462C10.8768 6.24008 10.9295 6.36742 10.9295 6.5002C10.9295 6.63297 10.8768 6.76031 10.7829 6.8542Z" fill="#528FD2"/>
<path d="M7.78334 9.85463L10.7833 6.85463C10.8772 6.76075 10.93 6.63341 10.93 6.50063C10.93 6.36786 10.8772 6.24052 10.7833 6.14663C10.6895 6.05274 10.5621 6 10.4293 6C10.2966 6 10.1692 6.05274 10.0753 6.14663L7.42934 8.79363L6.28334 7.64663C6.23686 7.60014 6.18167 7.56327 6.12093 7.53811C6.06019 7.51295 5.99509 7.5 5.92934 7.5C5.8636 7.5 5.7985 7.51295 5.73776 7.53811C5.67702 7.56327 5.62183 7.60014 5.57534 7.64663C5.52885 7.69312 5.49198 7.74831 5.46682 7.80905C5.44166 7.86979 5.42871 7.93489 5.42871 8.00063C5.42871 8.06638 5.44166 8.13148 5.46682 8.19222C5.49198 8.25295 5.52885 8.30814 5.57534 8.35463L7.07534 9.85463C7.12179 9.9012 7.17696 9.93814 7.23771 9.96334C7.29845 9.98855 7.36358 10.0015 7.42934 10.0015C7.49511 10.0015 7.56023 9.98855 7.62098 9.96334C7.68172 9.93814 7.7369 9.9012 7.78334 9.85463Z" fill="white"/>
</g>
<defs>
<clipPath id="clip0_1719_46776">
<rect width="16" height="16" fill="white" transform="translate(0.428711)"/>
</clipPath>
</defs>
</svg>
