<svg width="20" height="20" viewBox="0 0 20 20" fill="none" xmlns="http://www.w3.org/2000/svg">
<path d="M12.5837 1.08774C12.2473 0.74342 11.8454 0.46982 11.4017 0.283023C10.958 0.0962258 10.4814 0 9.99997 0C9.51855 0 9.04198 0.0962258 8.59828 0.283023C8.15458 0.46982 7.75268 0.74342 7.41622 1.08774L6.63872 1.88524L5.52622 1.87149C5.04466 1.86579 4.56682 1.95644 4.1208 2.1381C3.67478 2.31977 3.26958 2.58878 2.92904 2.92932C2.5885 3.26986 2.31949 3.67505 2.13783 4.12107C1.95617 4.56709 1.86552 5.04493 1.87122 5.52649L1.88372 6.63899L1.08872 7.41649C0.744396 7.75296 0.470796 8.15485 0.283999 8.59855C0.0972024 9.04226 0.000976563 9.51882 0.000976562 10.0002C0.000976563 10.4817 0.0972024 10.9582 0.283999 11.4019C0.470796 11.8456 0.744396 12.2475 1.08872 12.584L1.88497 13.3615L1.87122 14.474C1.86552 14.9556 1.95617 15.4334 2.13783 15.8794C2.31949 16.3254 2.5885 16.7306 2.92904 17.0712C3.26958 17.4117 3.67478 17.6807 4.1208 17.8624C4.56682 18.044 5.04466 18.1347 5.52622 18.129L6.63872 18.1165L7.41622 18.9115C7.75268 19.2558 8.15458 19.5294 8.59828 19.7162C9.04198 19.903 9.51855 19.9992 9.99997 19.9992C10.4814 19.9992 10.958 19.903 11.4017 19.7162C11.8454 19.5294 12.2473 19.2558 12.5837 18.9115L13.3612 18.1152L14.4737 18.129C14.9553 18.1347 15.4331 18.044 15.8791 17.8624C16.3252 17.6807 16.7304 17.4117 17.0709 17.0712C17.4114 16.7306 17.6804 16.3254 17.8621 15.8794C18.0438 15.4334 18.1344 14.9556 18.1287 14.474L18.1162 13.3615L18.9112 12.584C19.2555 12.2475 19.5291 11.8456 19.7159 11.4019C19.9027 10.9582 19.999 10.4817 19.999 10.0002C19.999 9.51882 19.9027 9.04226 19.7159 8.59855C19.5291 8.15485 19.2555 7.75296 18.9112 7.41649L18.115 6.63899L18.1287 5.52649C18.1344 5.04493 18.0438 4.56709 17.8621 4.12107C17.6804 3.67505 17.4114 3.26986 17.0709 2.92932C16.7304 2.58878 16.3252 2.31977 15.8791 2.1381C15.4331 1.95644 14.9553 1.86579 14.4737 1.87149L13.3612 1.88399L12.5837 1.08899V1.08774ZM12.9425 8.56774L9.19247 12.3177C9.13441 12.3759 9.06544 12.4221 8.98951 12.4536C8.91358 12.4851 8.83218 12.5014 8.74997 12.5014C8.66776 12.5014 8.58636 12.4851 8.51043 12.4536C8.4345 12.4221 8.36553 12.3759 8.30747 12.3177L6.43247 10.4427C6.37436 10.3846 6.32827 10.3156 6.29682 10.2397C6.26537 10.1638 6.24918 10.0824 6.24918 10.0002C6.24918 9.91806 6.26537 9.83669 6.29682 9.76076C6.32827 9.68484 6.37436 9.61585 6.43247 9.55774C6.49058 9.49963 6.55957 9.45354 6.63549 9.42209C6.71142 9.39064 6.79279 9.37445 6.87497 9.37445C6.95715 9.37445 7.03853 9.39064 7.11445 9.42209C7.19037 9.45354 7.25936 9.49963 7.31747 9.55774L8.74997 10.9915L12.0575 7.68274C12.1748 7.56539 12.334 7.49945 12.5 7.49945C12.6659 7.49945 12.8251 7.56539 12.9425 7.68274C13.0598 7.8001 13.1258 7.95927 13.1258 8.12524C13.1258 8.29121 13.0598 8.45039 12.9425 8.56774Z" fill="#528FD2"/>
</svg>
