<svg width="19" height="22" viewBox="0 0 19 22" fill="none" xmlns="http://www.w3.org/2000/svg">
<path d="M5.5 3V15C5.5 15.5304 5.71071 16.0391 6.08579 16.4142C6.46086 16.7893 6.96957 17 7.5 17H15.5C16.0304 17 16.5391 16.7893 16.9142 16.4142C17.2893 16.0391 17.5 15.5304 17.5 15V6.242C17.5 5.97556 17.4467 5.71181 17.3433 5.46624C17.2399 5.22068 17.0885 4.99824 16.898 4.812L13.583 1.57C13.2094 1.20466 12.7076 1.00007 12.185 1H7.5C6.96957 1 6.46086 1.21071 6.08579 1.58579C5.71071 1.96086 5.5 2.46957 5.5 3V3Z" stroke="#6B7280" stroke-width="2" stroke-linecap="round" stroke-linejoin="round"/>
<path d="M13.5 17V19C13.5 19.5304 13.2893 20.0391 12.9142 20.4142C12.5391 20.7893 12.0304 21 11.5 21H3.5C2.96957 21 2.46086 20.7893 2.08579 20.4142C1.71071 20.0391 1.5 19.5304 1.5 19V8C1.5 7.46957 1.71071 6.96086 2.08579 6.58579C2.46086 6.21071 2.96957 6 3.5 6H5.5" stroke="#6B7280" stroke-width="2" stroke-linecap="round" stroke-linejoin="round"/>
</svg>
