<svg width="18" height="10" viewBox="0 0 18 10" fill="none" xmlns="http://www.w3.org/2000/svg">
<path d="M7.81171 7.93172C7.81152 7.89099 7.79598 7.85198 7.76848 7.82318C7.74098 7.79437 7.70373 7.77811 7.66484 7.7779L4.64422 7.7779C3.24569 7.7779 1.99144 6.61951 1.99274 5.00103C1.99274 3.38119 3.24569 2.22416 4.64422 2.22416L7.66484 2.22417C7.74542 2.22417 7.81171 2.15474 7.81171 2.07035L7.81171 0.986825C7.81151 0.946092 7.79598 0.907084 7.76848 0.878282C7.74098 0.849479 7.70373 0.833209 7.66484 0.833008L4.64422 0.833008C2.44505 0.833008 0.665693 2.6965 0.666993 4.99831C0.668293 7.30012 2.44635 9.16498 4.64422 9.16362H7.66484C7.74542 9.16362 7.81171 9.09419 7.81171 9.0098V7.93172ZM17.3337 4.99967C17.3337 2.6965 15.5543 0.833008 13.3564 0.834369L10.3345 0.833008C10.2956 0.833209 10.2584 0.849479 10.2309 0.878282C10.2034 0.907085 10.1878 0.946092 10.1876 0.986825V2.06763C10.1876 2.15202 10.2539 2.22144 10.3345 2.22144L13.3551 2.22144C14.7537 2.22144 16.0079 3.37983 16.0066 4.99831C16.0066 6.61815 14.7537 7.77518 13.3551 7.77518H10.3345C10.2956 7.77538 10.2584 7.79165 10.2309 7.82046C10.2034 7.84926 10.1878 7.88827 10.1876 7.929V9.01252C10.1876 9.09692 10.2539 9.16634 10.3345 9.16634L13.3551 9.16634C15.553 9.16498 17.3324 7.30148 17.3337 4.99967ZM12.0905 4.43341C12.0903 4.39268 12.0748 4.35367 12.0472 4.32487C12.0197 4.29606 11.9825 4.27979 11.9436 4.27959L6.05705 4.27823C6.01815 4.27843 5.98091 4.2947 5.95341 4.32351C5.9259 4.35231 5.91037 4.39132 5.91018 4.43205L5.91018 5.51013C5.91018 5.59452 5.97646 5.66394 6.05705 5.66394H11.9423C12.0229 5.66394 12.0892 5.59452 12.0892 5.51013L12.0905 4.43341Z" fill="black"/>
</svg>
