<svg width="14" height="14" viewBox="0 0 14 14" fill="none" xmlns="http://www.w3.org/2000/svg">
<path d="M6.5043 6.50804L0.514714 3.98611C0.428906 3.94997 0.333984 4.01299 0.333984 4.10611V10.8483C0.333984 11.0186 0.437708 11.1719 0.595911 11.2351L6.40542 13.5589C6.49094 13.5931 6.58398 13.5302 6.58398 13.438V6.62804C6.58398 6.57565 6.55258 6.52838 6.5043 6.50804Z" fill="#CB00DD"/>
<path d="M7.05025 5.79146L12.8397 3.3538C12.9438 3.31 12.9466 3.16354 12.8442 3.11581L7.17593 0.470601C7.06424 0.418491 6.93523 0.418491 6.82354 0.470601L1.15523 3.11581C1.05291 3.16354 1.0557 3.31 1.15976 3.3538L6.94921 5.79146C6.9815 5.80508 7.01796 5.80508 7.05025 5.79146Z" fill="#CB00DD"/>
<path d="M7.41797 6.62804V13.438C7.41797 13.5302 7.51102 13.5931 7.59654 13.5589L13.406 11.2351C13.5642 11.1718 13.668 11.0186 13.668 10.8483V4.10611C13.668 4.01299 13.573 3.94997 13.4872 3.98611L7.49766 6.50804C7.44937 6.52838 7.41797 6.57565 7.41797 6.62804Z" fill="#CB00DD"/>
</svg>
