<svg width="12" height="12" viewBox="0 0 12 12" fill="none" xmlns="http://www.w3.org/2000/svg">
<path fill-rule="evenodd" clip-rule="evenodd" d="M2.78706 1.95566V3.05973L2.90149 2.95825C3.18357 2.70806 5.10885 0.886811 5.10885 0.87016C5.10885 0.859935 4.58645 0.851562 3.94796 0.851562H2.78706V1.95566ZM6.89516 0.874593C6.90093 0.891643 8.58912 2.48737 9.15154 3.0074L9.21303 3.06428V1.95791V0.851562H8.05019C7.29926 0.851562 6.89009 0.859724 6.89516 0.874593ZM4.75707 2.15533C4.07988 2.79324 3.47847 3.36238 3.42058 3.42014L3.31535 3.52514H5.99737C8.49461 3.52514 8.67714 3.52247 8.64717 3.48616C8.60329 3.43302 6.02118 1.00508 6.00288 0.999758C5.99489 0.997437 5.43426 1.51745 4.75707 2.15533ZM1.06866 2.45627L0.0655736 3.51341L1.06645 3.51953C1.61695 3.52289 2.07108 3.5219 2.07566 3.51733C2.08023 3.51276 2.08122 3.0343 2.07786 2.45407L2.07176 1.39913L1.06866 2.45627ZM9.9166 2.45304V3.52514H10.9299H11.9433L11.8486 3.42547C11.6648 3.23208 9.97927 1.44913 9.94815 1.41527C9.92169 1.38644 9.9166 1.55349 9.9166 2.45304ZM4.75001e-05 4.22756C0.0136499 4.2668 4.64783 9.85708 4.65817 9.84674C4.66359 9.84135 4.11529 8.57243 3.43975 7.02696L2.21149 4.21699L1.10182 4.21089C0.391586 4.207 -0.00499477 4.213 4.75001e-05 4.22756ZM2.98017 4.24712C2.9987 4.318 5.98755 11.1471 6.00005 11.1472C6.01257 11.1472 9.00125 4.31856 9.01985 4.2474C9.03043 4.207 8.90526 4.20526 6.00005 4.20526C3.10229 4.20526 2.96969 4.20709 2.98017 4.24712ZM9.73053 4.35184C9.39462 5.09931 7.33458 9.83943 7.3423 9.84714C7.3529 9.85772 11.9864 4.26785 12 4.22817C12.005 4.21347 11.6117 4.20526 10.9021 4.20526H9.79641L9.73053 4.35184Z" fill="#F8BB20"/>
</svg>
