<svg width="7" height="9" viewBox="0 0 7 9" fill="none" xmlns="http://www.w3.org/2000/svg">
<path d="M6.30723 4.53987C6.13189 4.14522 5.87699 3.791 5.55848 3.49938L5.29565 3.25822C5.28672 3.25026 5.27598 3.24461 5.26436 3.24176C5.25275 3.23892 5.24061 3.23897 5.22902 3.24192C5.21742 3.24486 5.20673 3.2506 5.19788 3.25864C5.18902 3.26668 5.18228 3.27677 5.17823 3.28803L5.06081 3.62492C4.98766 3.83627 4.85308 4.05214 4.6625 4.26439C4.64986 4.27794 4.63541 4.28155 4.62547 4.28245C4.61554 4.28336 4.60018 4.28155 4.58663 4.26891C4.57399 4.25807 4.56767 4.24181 4.56857 4.22555C4.60199 3.68182 4.43941 3.06855 4.08355 2.40108C3.78911 1.84652 3.37996 1.41388 2.86874 1.11221L2.49572 0.892737C2.44695 0.863835 2.38463 0.901769 2.38734 0.958671L2.40721 1.39221C2.42076 1.68846 2.38643 1.95039 2.30515 2.16806C2.20579 2.4345 2.06309 2.68198 1.88064 2.90417C1.75367 3.05858 1.60976 3.19825 1.45162 3.32054C1.07075 3.61333 0.761044 3.98849 0.545709 4.41793C0.330904 4.85112 0.219012 5.32805 0.21875 5.81157C0.21875 6.23788 0.302748 6.65065 0.468937 7.03993C0.629405 7.41473 0.860979 7.75488 1.15085 8.04158C1.44349 8.3306 1.7831 8.55821 2.16154 8.71627C2.55353 8.88065 2.969 8.96375 3.39802 8.96375C3.82704 8.96375 4.24251 8.88065 4.6345 8.71717C5.01201 8.56004 5.3553 8.33087 5.64519 8.04248C5.93782 7.75346 6.16724 7.41566 6.3271 7.04083C6.49304 6.65262 6.57817 6.23467 6.57729 5.81248C6.57729 5.37171 6.48697 4.9436 6.30723 4.53987Z" fill="#E962FF"/>
</svg>
