<svg width="10" height="14" viewBox="0 0 10 14" fill="none" xmlns="http://www.w3.org/2000/svg">
<path d="M9.40371 6.41463C9.13829 5.81725 8.75244 5.28107 8.27031 4.83963L7.87246 4.47459C7.85895 4.46254 7.84269 4.45398 7.82511 4.44968C7.80752 4.44538 7.78915 4.44546 7.7716 4.44991C7.75405 4.45436 7.73787 4.46306 7.72446 4.47523C7.71106 4.4874 7.70085 4.50267 7.69473 4.51971L7.51699 5.02967C7.40625 5.34959 7.20254 5.67635 6.91406 5.99764C6.89492 6.01815 6.87305 6.02362 6.85801 6.02498C6.84297 6.02635 6.81973 6.02362 6.79922 6.00448C6.78008 5.98807 6.77051 5.96346 6.77187 5.93885C6.82246 5.1158 6.57637 4.18748 6.0377 3.17713C5.59199 2.33768 4.97266 1.6828 4.19883 1.22616L3.63418 0.893929C3.56035 0.850179 3.46602 0.907601 3.47012 0.993734L3.5002 1.64998C3.5207 2.09842 3.46875 2.49491 3.3457 2.8244C3.19531 3.22772 2.9793 3.60233 2.70312 3.93866C2.51093 4.17239 2.29309 4.38381 2.05371 4.56893C1.47718 5.01212 1.00838 5.58001 0.682422 6.23006C0.357269 6.88578 0.187897 7.60772 0.1875 8.33963C0.1875 8.98494 0.314648 9.60975 0.566211 10.199C0.809114 10.7663 1.15965 11.2812 1.59844 11.7152C2.04141 12.1527 2.55547 12.4972 3.12832 12.7365C3.72168 12.9853 4.35059 13.1111 5 13.1111C5.64941 13.1111 6.27832 12.9853 6.87168 12.7379C7.44312 12.5 7.96276 12.1531 8.40156 11.7166C8.84453 11.2791 9.1918 10.7678 9.43379 10.2004C9.68497 9.61273 9.81383 8.98008 9.8125 8.341C9.8125 7.67381 9.67578 7.02576 9.40371 6.41463Z" fill="#D1D5DB"/>
</svg>
