<svg width="128" height="40" viewBox="0 0 128 40" fill="none" xmlns="http://www.w3.org/2000/svg">
<path d="M19.9021 5L32.8329 12.487L19.9021 20.182L7 12.4755L19.9021 5Z" stroke="url(#paint0_linear_1178_8128)" stroke-width="2" stroke-miterlimit="10" stroke-linejoin="round"/>
<path d="M19.9165 35.0003L32.8904 27.5018L32.833 12.4873L19.9021 20.1823L19.9165 35.0003Z" stroke="url(#paint1_linear_1178_8128)" stroke-width="2" stroke-miterlimit="10" stroke-linejoin="round"/>
<path d="M7 27.5304V12.4756L19.9021 20.1821L19.9165 35.0001L7 27.5304Z" stroke="url(#paint2_linear_1178_8128)" stroke-width="2" stroke-miterlimit="10" stroke-linejoin="round"/>
<path d="M32.8329 12.487L19.9021 5L7 12.4755M32.8329 12.487L19.9021 20.182M32.8329 12.487L32.8904 27.5015L19.9165 35M19.9021 20.182L7 12.4755M19.9021 20.182L19.9165 35M7 12.4755V27.5303L19.9165 35" stroke="#49FFDE" stroke-opacity="0.56" stroke-width="2" stroke-miterlimit="10" stroke-linejoin="round" style="mix-blend-mode:soft-light"/>
<path d="M53.3916 16.0078C52.8447 16.0078 52.3551 16.1068 51.9229 16.3047C51.4958 16.5026 51.1338 16.7891 50.8369 17.1641C50.54 17.5339 50.3135 17.9844 50.1572 18.5156C50.001 19.0417 49.9229 19.6354 49.9229 20.2969C49.9229 21.1823 50.0479 21.9453 50.2979 22.5859C50.5479 23.2214 50.9281 23.7109 51.4385 24.0547C51.9489 24.3932 52.5947 24.5625 53.376 24.5625C53.8604 24.5625 54.3317 24.5156 54.79 24.4219C55.2484 24.3281 55.7223 24.2005 56.2119 24.0391V25.6328C55.7484 25.8151 55.2796 25.9479 54.8057 26.0312C54.3317 26.1146 53.7848 26.1562 53.165 26.1562C51.9984 26.1562 51.0296 25.9141 50.2588 25.4297C49.4932 24.9453 48.9202 24.263 48.54 23.3828C48.165 22.5026 47.9775 21.4714 47.9775 20.2891C47.9775 19.4245 48.0973 18.6328 48.3369 17.9141C48.5765 17.1953 48.9255 16.5755 49.3838 16.0547C49.8421 15.5286 50.4072 15.125 51.0791 14.8438C51.7562 14.5573 52.5296 14.4141 53.3994 14.4141C53.9723 14.4141 54.5348 14.4792 55.0869 14.6094C55.6442 14.7344 56.1598 14.9141 56.6338 15.1484L55.9775 16.6953C55.5817 16.5078 55.1676 16.3464 54.7354 16.2109C54.3031 16.0755 53.8551 16.0078 53.3916 16.0078ZM57.8129 17.3516H59.8129L61.5863 22.2891C61.6644 22.513 61.7347 22.7344 61.7972 22.9531C61.8649 23.1667 61.9222 23.3776 61.9691 23.5859C62.0212 23.7943 62.0629 24.0026 62.0941 24.2109H62.141C62.1931 23.9401 62.266 23.638 62.3597 23.3047C62.4587 22.9661 62.5681 22.6276 62.6879 22.2891L64.391 17.3516H66.3675L62.6566 27.1875C62.4431 27.75 62.18 28.2292 61.8675 28.625C61.5602 29.026 61.1957 29.3281 60.7738 29.5312C60.3519 29.7396 59.8701 29.8438 59.3285 29.8438C59.0681 29.8438 58.8415 29.8281 58.6488 29.7969C58.4561 29.7708 58.292 29.7422 58.1566 29.7109V28.2422C58.266 28.2682 58.404 28.2917 58.5707 28.3125C58.7373 28.3333 58.9092 28.3438 59.0863 28.3438C59.4144 28.3438 59.6983 28.2786 59.9379 28.1484C60.1774 28.0182 60.3806 27.8333 60.5472 27.5938C60.7139 27.3594 60.8519 27.0911 60.9613 26.7891L61.266 25.9766L57.8129 17.3516ZM70.156 13.8438V16.7734C70.156 17.112 70.1456 17.4453 70.1247 17.7734C70.1091 18.0964 70.0935 18.349 70.0779 18.5312H70.156C70.3904 18.1562 70.7159 17.8411 71.1325 17.5859C71.5544 17.3255 72.0935 17.1953 72.7497 17.1953C73.7758 17.1953 74.6013 17.5729 75.2263 18.3281C75.8513 19.0781 76.1638 20.1901 76.1638 21.6641C76.1638 22.6432 76.0206 23.4661 75.7341 24.1328C75.4476 24.7995 75.044 25.3047 74.5232 25.6484C74.0075 25.987 73.4008 26.1562 72.7029 26.1562C72.0466 26.1562 71.5154 26.0365 71.1091 25.7969C70.7081 25.5521 70.393 25.2682 70.1638 24.9453H70.031L69.695 26H68.32V13.8438H70.156ZM72.2654 18.6875C71.7445 18.6875 71.3305 18.7917 71.0232 19C70.7211 19.2083 70.5023 19.5208 70.3669 19.9375C70.2315 20.349 70.1612 20.8724 70.156 21.5078V21.6719C70.156 22.6354 70.307 23.3724 70.6091 23.8828C70.9164 24.3932 71.4737 24.6484 72.281 24.6484C72.9216 24.6484 73.4138 24.3906 73.7575 23.875C74.1013 23.3542 74.2732 22.6094 74.2732 21.6406C74.2732 20.6615 74.1013 19.9245 73.7575 19.4297C73.419 18.9349 72.9216 18.6875 72.2654 18.6875ZM82.3741 17.1875C83.1449 17.1875 83.8064 17.3464 84.3585 17.6641C84.9106 17.9818 85.335 18.4323 85.6319 19.0156C85.9288 19.599 86.0772 20.2969 86.0772 21.1094V22.0938H80.3038C80.3246 22.9323 80.5486 23.5781 80.9757 24.0312C81.408 24.4844 82.0121 24.7109 82.7882 24.7109C83.3402 24.7109 83.835 24.6589 84.2725 24.5547C84.7152 24.4453 85.171 24.2865 85.6397 24.0781V25.5703C85.2074 25.7734 84.7673 25.9219 84.3194 26.0156C83.8715 26.1094 83.335 26.1562 82.71 26.1562C81.8611 26.1562 81.1137 25.9922 80.4679 25.6641C79.8272 25.3307 79.3246 24.8359 78.96 24.1797C78.6007 23.5234 78.421 22.7083 78.421 21.7344C78.421 20.7656 78.585 19.9427 78.9132 19.2656C79.2413 18.5885 79.7022 18.0729 80.296 17.7188C80.8897 17.3646 81.5824 17.1875 82.3741 17.1875ZM82.3741 18.5703C81.796 18.5703 81.3272 18.7578 80.9679 19.1328C80.6137 19.5078 80.4054 20.0573 80.3429 20.7812H84.2804C84.2751 20.349 84.2022 19.9661 84.0616 19.6328C83.9262 19.2995 83.7179 19.0391 83.4366 18.8516C83.1606 18.6641 82.8064 18.5703 82.3741 18.5703ZM93.1704 17.1875C93.3162 17.1875 93.475 17.1953 93.6469 17.2109C93.8188 17.2266 93.9672 17.2474 94.0922 17.2734L93.9204 18.9922C93.811 18.9609 93.6756 18.9375 93.5141 18.9219C93.3579 18.9062 93.2172 18.8984 93.0922 18.8984C92.7641 18.8984 92.4516 18.9531 92.1547 19.0625C91.8579 19.1667 91.5948 19.3281 91.3657 19.5469C91.1365 19.7604 90.9568 20.0286 90.8266 20.3516C90.6964 20.6745 90.6313 21.0495 90.6313 21.4766V26H88.7875V17.3516H90.225L90.475 18.875H90.561C90.7329 18.5677 90.9464 18.2865 91.2016 18.0312C91.4568 17.776 91.7485 17.5729 92.0766 17.4219C92.4099 17.2656 92.7745 17.1875 93.1704 17.1875ZM96.5213 14.5781H99.9197C101.394 14.5781 102.506 14.7917 103.256 15.2188C104.006 15.6458 104.381 16.3828 104.381 17.4297C104.381 17.8672 104.303 18.263 104.146 18.6172C103.995 18.9661 103.774 19.2552 103.482 19.4844C103.191 19.7083 102.831 19.8594 102.404 19.9375V20.0156C102.847 20.0938 103.24 20.2318 103.584 20.4297C103.933 20.6276 104.206 20.9115 104.404 21.2812C104.607 21.651 104.709 22.1302 104.709 22.7188C104.709 23.4167 104.542 24.0104 104.209 24.5C103.881 24.9896 103.409 25.362 102.795 25.6172C102.185 25.8724 101.461 26 100.623 26H96.5213V14.5781ZM98.3963 19.2891H100.193C101.042 19.2891 101.631 19.151 101.959 18.875C102.287 18.599 102.451 18.1953 102.451 17.6641C102.451 17.1224 102.256 16.7318 101.865 16.4922C101.48 16.2526 100.865 16.1328 100.021 16.1328H98.3963V19.2891ZM98.3963 20.8047V24.4297H100.373C101.248 24.4297 101.862 24.2604 102.217 23.9219C102.571 23.5833 102.748 23.125 102.748 22.5469C102.748 22.1927 102.667 21.8854 102.506 21.625C102.349 21.3646 102.092 21.1641 101.732 21.0234C101.373 20.8776 100.888 20.8047 100.279 20.8047H98.3963ZM115.177 21.6562C115.177 22.375 115.083 23.013 114.896 23.5703C114.708 24.1276 114.435 24.599 114.075 24.9844C113.716 25.3646 113.284 25.6562 112.778 25.8594C112.273 26.0573 111.703 26.1562 111.068 26.1562C110.474 26.1562 109.93 26.0573 109.435 25.8594C108.94 25.6562 108.51 25.3646 108.146 24.9844C107.786 24.599 107.508 24.1276 107.31 23.5703C107.112 23.013 107.013 22.375 107.013 21.6562C107.013 20.7031 107.177 19.8958 107.505 19.2344C107.838 18.5677 108.312 18.0599 108.927 17.7109C109.541 17.362 110.273 17.1875 111.122 17.1875C111.919 17.1875 112.622 17.362 113.232 17.7109C113.841 18.0599 114.318 18.5677 114.661 19.2344C115.005 19.901 115.177 20.7083 115.177 21.6562ZM108.903 21.6562C108.903 22.2865 108.979 22.8255 109.13 23.2734C109.286 23.7214 109.526 24.0651 109.849 24.3047C110.172 24.5391 110.588 24.6562 111.099 24.6562C111.609 24.6562 112.026 24.5391 112.349 24.3047C112.672 24.0651 112.909 23.7214 113.06 23.2734C113.211 22.8255 113.286 22.2865 113.286 21.6562C113.286 21.026 113.211 20.4922 113.06 20.0547C112.909 19.612 112.672 19.276 112.349 19.0469C112.026 18.8125 111.607 18.6953 111.091 18.6953C110.331 18.6953 109.776 18.9505 109.427 19.4609C109.078 19.9714 108.903 20.7031 108.903 21.6562ZM119.84 21.5781L116.95 17.3516H119.043L121.02 20.3906L123.004 17.3516H125.09L122.184 21.5781L125.239 26H123.137L121.02 22.7578L118.895 26H116.809L119.84 21.5781Z" fill="url(#paint3_linear_1178_8128)"/>
<defs>
<linearGradient id="paint0_linear_1178_8128" x1="13.4179" y1="7.08337" x2="28.0971" y2="27.3089" gradientUnits="userSpaceOnUse">
<stop stop-color="#F043FF"/>
<stop offset="0.461458" stop-color="#5489D8"/>
<stop offset="1" stop-color="#2CFF64"/>
</linearGradient>
<linearGradient id="paint1_linear_1178_8128" x1="19.9998" y1="6.00024" x2="38.13" y2="20.5392" gradientUnits="userSpaceOnUse">
<stop stop-color="#FC2EF5"/>
<stop offset="0.461458" stop-color="#5489D8"/>
<stop offset="1" stop-color="#2CFF64"/>
</linearGradient>
<linearGradient id="paint2_linear_1178_8128" x1="23.5" y1="8.00012" x2="33.5821" y2="40.801" gradientUnits="userSpaceOnUse">
<stop stop-color="#FC2EF5"/>
<stop offset="0.461458" stop-color="#5489D8"/>
<stop offset="1" stop-color="#2CFF64"/>
</linearGradient>
<linearGradient id="paint3_linear_1178_8128" x1="53.9475" y1="8.99999" x2="128.482" y2="23.5119" gradientUnits="userSpaceOnUse">
<stop stop-color="#FC2EF5"/>
<stop offset="0.461458" stop-color="#5489D8"/>
<stop offset="1" stop-color="#2CFF64"/>
</linearGradient>
</defs>
</svg>
