<svg width="34" height="32" viewBox="0 0 34 32" fill="none" xmlns="http://www.w3.org/2000/svg">
<mask id="path-1-inside-1_2029_77421" fill="white">
<path fill-rule="evenodd" clip-rule="evenodd" d="M11.1479 1.77351C9.6623 2.13398 8.55277 3.09587 8.06997 4.44172C7.93258 4.82466 7.90988 4.98946 7.9063 5.62946C7.90167 6.4629 8.02216 6.95177 8.37837 7.54444C8.85833 8.34306 9.39913 8.8054 10.3944 9.26785L10.9757 9.53801L8.05085 9.55979C5.19765 9.581 5.11548 9.58477 4.69418 9.71299C3.03244 10.2189 1.84524 11.3276 1.32357 12.8606L1.17773 13.2894V20.2347V27.1801L1.32364 27.6088C1.85135 29.1593 3.12159 30.327 4.75587 30.7637L5.24941 30.8957H16.9401H28.6307L29.1242 30.7637C31.1203 30.2302 32.5841 28.5733 32.7152 26.6989C32.9179 25.4458 32.802 19.7142 32.7187 17.005C32.6961 13.2407 32.6958 13.2313 32.5532 12.832C32.0067 11.3019 30.8329 10.2145 29.1859 9.71293C28.764 9.58442 28.686 9.58094 25.7674 9.55979L22.7808 9.53812L23.3749 9.26202C24.1398 8.90658 24.5233 8.64254 24.9049 8.20879C25.975 6.99229 26.1942 5.28837 25.4573 3.91456C24.6605 2.42917 23.1141 1.58367 21.3567 1.67261C20.1095 1.73578 19.0531 2.21715 18.2931 3.0686C17.9963 3.40106 17.4086 4.46424 17.1222 5.18645C17.0069 5.47729 16.898 5.71498 16.8801 5.71463C16.8621 5.71435 16.7521 5.47644 16.6355 5.18587C16.3247 4.41125 15.8681 3.56232 15.552 3.17144C14.5785 1.96763 12.7455 1.38582 11.1479 1.77351ZM29.5164 27.9436C29.9312 27.5593 30.1234 27.1739 30.2304 26.5121C30.346 25.4522 30.3022 20.0373 30.2658 17.4623C30.2632 13.7356 30.2462 13.5147 29.9244 13.0058C29.5562 12.4236 28.8909 11.9935 28.1955 11.888C27.9937 11.8574 26.6953 11.8322 25.31 11.832L22.7912 11.8317L23.0641 12.1318C24.1627 13.3401 25.0134 15.2363 25.1237 16.7229C25.1671 17.3072 25.1047 17.5623 24.8493 17.8434C24.5153 18.2112 23.8753 18.3349 23.3869 18.1259C22.9172 17.9251 22.7172 17.6066 22.6471 16.9478C22.4838 15.416 21.6163 13.863 20.3719 12.8749C19.9455 12.5363 19.0605 12.1081 18.5286 11.9831L18.1739 11.8997V20.2687V28.6377L22.9704 28.6373C25.9579 28.637 27.9183 28.6146 28.168 28.578C28.6868 28.5018 29.1483 28.2847 29.5164 27.9436ZM13.8872 5.11219C13.5428 4.4503 13.3848 4.29287 12.8633 4.09194C11.6869 3.63863 10.3763 4.46396 10.3763 5.65804C10.3763 6.08511 10.572 6.54791 10.8696 6.82469C11.1509 7.08627 12.2234 7.52317 13.7212 7.98619C14.4789 8.22045 15.1105 8.40131 15.1248 8.38805C15.2079 8.311 14.297 5.89962 13.8872 5.11219ZM23.3636 5.98673C23.5574 5.0915 22.9194 4.19855 21.9495 4.00751C21.5792 3.93462 21.5054 3.9344 21.1804 4.00534C20.5041 4.15299 20.1631 4.48202 19.7201 5.41464C19.4299 6.02549 18.5771 8.33723 18.6254 8.38194C18.6792 8.43178 20.8619 7.75743 21.7391 7.42005C22.8154 7.00607 23.2202 6.64886 23.3636 5.98673ZM8.36529 16.4048C8.80781 14.7514 9.59617 13.2133 10.5393 12.1632L10.837 11.8317L8.3825 11.8384C7.03256 11.8421 5.79335 11.866 5.62882 11.8917C4.9953 11.9901 4.30904 12.4471 3.95573 13.0058C3.61457 13.5452 3.61673 13.4991 3.61673 20.2347C3.61673 26.9703 3.61457 26.9242 3.95573 27.4636C4.33168 28.0581 4.98228 28.4709 5.7121 28.578C5.96183 28.6146 7.92222 28.637 10.9097 28.6373L15.7062 28.6377V20.2588V11.8798L15.5057 11.9185C15.052 12.0061 14.3518 12.2527 13.9171 12.478C13.339 12.7775 12.4407 13.5839 12.0361 14.1664C11.1446 15.4498 10.6107 17.102 10.4259 19.1486C10.3153 20.3737 10.2719 20.5641 10.0469 20.8119C9.48043 21.4357 8.3582 21.2925 7.98792 20.5491C7.73424 20.0398 7.91056 18.1039 8.36529 16.4048Z"/>
</mask>
<path d="M11.1479 1.77351L15.2777 18.7934L15.2781 18.7933L11.1479 1.77351ZM8.06997 4.44172L24.5549 10.3561L24.5551 10.3555L8.06997 4.44172ZM7.9063 5.62946L-9.60716 5.53155L-9.60717 5.53223L7.9063 5.62946ZM8.37837 7.54444L23.3897 -1.47717L23.3895 -1.47763L8.37837 7.54444ZM10.3944 9.26785L17.776 -6.61431L17.7743 -6.61508L10.3944 9.26785ZM10.9757 9.53801L11.1061 27.0513L18.3572 -6.34416L10.9757 9.53801ZM8.05085 9.55979L8.18102 27.073L8.18125 27.073L8.05085 9.55979ZM4.69418 9.71299L-0.405047 -7.04198L-0.406531 -7.04153L4.69418 9.71299ZM1.32357 12.8606L-15.2565 7.21878L-15.2571 7.22036L1.32357 12.8606ZM1.17773 13.2894L-15.4029 7.64909L-16.336 10.392V13.2894H1.17773ZM1.17773 27.1801H-16.336V30.0785L-15.4022 32.8225L1.17773 27.1801ZM1.32364 27.6088L-15.2563 33.2512L-15.2562 33.2515L1.32364 27.6088ZM4.75587 30.7637L9.27887 13.8441L9.27795 13.8439L4.75587 30.7637ZM5.24941 30.8957L0.726411 47.8153L2.94889 48.4094H5.24941V30.8957ZM28.6307 30.8957V48.4094H30.9312L33.1537 47.8153L28.6307 30.8957ZM29.1242 30.7637L24.602 13.8439L24.6012 13.8441L29.1242 30.7637ZM32.7152 26.6989L15.4263 23.9016L15.2995 24.6852L15.2441 25.477L32.7152 26.6989ZM30.2304 26.5121L47.5197 29.3068L47.5917 28.8611L47.6407 28.4122L30.2304 26.5121ZM29.5164 27.9436L17.6138 15.0961L17.6128 15.097L29.5164 27.9436ZM28.168 28.578L30.7105 45.9062L30.7113 45.9061L28.168 28.578ZM22.9704 28.6373L22.9691 11.1235H22.9688L22.9704 28.6373ZM18.1739 28.6377H0.660156V46.1531L18.1756 46.1515L18.1739 28.6377ZM18.1739 11.8997L22.1823 -5.14914L0.660156 -10.2093V11.8997H18.1739ZM18.5286 11.9831L14.5202 29.032L14.5211 29.0322L18.5286 11.9831ZM20.3719 12.8749L9.4803 26.59L9.48115 26.5907L20.3719 12.8749ZM22.6471 16.9478L40.0624 15.0936L40.0622 15.092L22.6471 16.9478ZM23.3869 18.1259L30.2743 2.02333L30.274 2.02318L23.3869 18.1259ZM24.8493 17.8434L11.8851 6.06797L11.884 6.06925L24.8493 17.8434ZM25.1237 16.7229L42.5894 15.4265L42.5894 15.4261L25.1237 16.7229ZM23.0641 12.1318L10.1058 23.9138L10.106 23.9139L23.0641 12.1318ZM22.7912 11.8317L22.7936 -5.68205L-16.8083 -5.68743L9.83298 23.6136L22.7912 11.8317ZM25.31 11.832L25.3076 29.3458H25.3078L25.31 11.832ZM28.1955 11.888L30.8228 -5.42755L30.8205 -5.42789L28.1955 11.888ZM29.9244 13.0058L44.7265 3.64481L44.7263 3.64441L29.9244 13.0058ZM30.2658 17.4623L12.7521 17.4747L12.7522 17.5922L12.7539 17.7096L30.2658 17.4623ZM32.7187 17.005L15.2052 17.1097L15.2065 17.3266L15.2132 17.5434L32.7187 17.005ZM32.5532 12.832L49.0468 6.94196L49.0465 6.94108L32.5532 12.832ZM29.1859 9.71293L34.2887 -7.04096L34.288 -7.04116L29.1859 9.71293ZM25.7674 9.55979L25.6404 27.0731L25.6405 27.0731L25.7674 9.55979ZM22.7808 9.53812L15.3997 -6.34425L22.6538 27.0514L22.7808 9.53812ZM23.3749 9.26202L15.994 -6.62048L15.9938 -6.62035L23.3749 9.26202ZM24.9049 8.20879L38.0548 19.7765L38.0548 19.7764L24.9049 8.20879ZM25.4573 3.91456L10.0236 12.1931L10.0237 12.1932L25.4573 3.91456ZM21.3567 1.67261L20.4714 -15.8187L20.4708 -15.8187L21.3567 1.67261ZM18.2931 3.0686L5.22712 -8.5938L5.22693 -8.59358L18.2931 3.0686ZM17.1222 5.18645L0.841723 -1.26926L0.841203 -1.26794L17.1222 5.18645ZM16.8801 5.71463L17.2158 -11.7959L17.1873 -11.7964L17.1589 -11.7969L16.8801 5.71463ZM16.6355 5.18587L0.381371 11.7076L0.381656 11.7083L16.6355 5.18587ZM15.552 3.17144L29.171 -7.84016L29.1701 -7.84129L15.552 3.17144ZM12.8633 4.09194L6.56607 20.4344L6.56645 20.4345L12.8633 4.09194ZM13.8872 5.11219L-1.64894 13.1967L-1.64886 13.1968L13.8872 5.11219ZM15.1248 8.38805L3.22118 -4.45857L3.20735 -4.44575L3.19354 -4.4329L15.1248 8.38805ZM13.7212 7.98619L18.8943 -8.74612L18.8937 -8.74629L13.7212 7.98619ZM10.8696 6.82469L-1.0578 19.6492L-1.05779 19.6492L10.8696 6.82469ZM21.9495 4.00751L25.3341 -13.1761L25.3314 -13.1766L21.9495 4.00751ZM23.3636 5.98673L6.2467 2.27941L6.2465 2.28031L23.3636 5.98673ZM21.7391 7.42005L28.0261 23.7665L28.0268 23.7662L21.7391 7.42005ZM18.6254 8.38194L30.5289 -4.46469L30.5208 -4.47227L18.6254 8.38194ZM19.7201 5.41464L3.90042 -2.09996L3.90016 -2.09943L19.7201 5.41464ZM21.1804 4.00534L17.4461 -13.1057L17.4449 -13.1054L21.1804 4.00534ZM10.5393 12.1632L23.5691 23.866L23.5692 23.8659L10.5393 12.1632ZM8.36529 16.4048L-8.55298 11.8767L-8.55304 11.877L8.36529 16.4048ZM7.98792 20.5491L23.6645 12.7404L23.6644 12.7403L7.98792 20.5491ZM10.0469 20.8119L-2.91829 9.03754L-2.91848 9.03775L10.0469 20.8119ZM10.4259 19.1486L-7.01689 17.5734L-7.01691 17.5737L10.4259 19.1486ZM12.0361 14.1664L-2.34794 4.17483L-2.34844 4.17555L12.0361 14.1664ZM13.9171 12.478L21.9742 28.0284L21.9759 28.0275L13.9171 12.478ZM15.5057 11.9185L12.1865 -5.27787L12.1842 -5.27743L15.5057 11.9185ZM15.7062 11.8798H33.2199V-9.33769L12.387 -5.31657L15.7062 11.8798ZM15.7062 28.6377L15.7045 46.1515L33.2199 46.1531V28.6377H15.7062ZM10.9097 28.6373L10.9113 11.1235H10.911L10.9097 28.6373ZM5.7121 28.578L3.16865 45.9061L3.16961 45.9062L5.7121 28.578ZM3.95573 27.4636L-10.8464 36.8247L-10.8462 36.825L3.95573 27.4636ZM3.95573 13.0058L-10.8463 3.64458L-10.8464 3.64471L3.95573 13.0058ZM5.62882 11.8917L8.31935 29.1975L8.32236 29.197L5.62882 11.8917ZM8.3825 11.8384L8.42997 29.3521L8.43062 29.3521L8.3825 11.8384ZM10.837 11.8317L23.8669 23.5344L50.2048 -5.79028L10.7889 -5.68198L10.837 11.8317ZM7.01815 -15.2464C0.279765 -13.6113 -5.78512 -8.80343 -8.41513 -1.47202L24.5551 10.3555C22.8907 14.9952 19.0448 17.8793 15.2777 18.7934L7.01815 -15.2464ZM-8.41491 -1.47263C-8.67989 -0.734061 -9.1547 0.682362 -9.41184 2.54851C-9.61098 3.99368 -9.6056 5.2528 -9.60716 5.53155L25.4198 5.72738C25.4203 5.63125 25.4211 5.75936 25.4117 5.97802C25.4014 6.2184 25.3739 6.70476 25.2878 7.32988C25.1946 8.00603 25.0585 8.66181 24.8902 9.28262C24.7389 9.84063 24.5939 10.2474 24.5549 10.3561L-8.41491 -1.47263ZM-9.60717 5.53223C-9.62594 8.91432 -8.95462 12.7033 -6.63274 16.5665L23.3895 -1.47763C23.9131 -0.606442 24.5826 0.744434 25.0117 2.48553C25.4068 4.08827 25.422 5.32467 25.4198 5.72669L-9.60717 5.53223ZM-6.63301 16.566C-4.04981 20.8643 -0.57654 23.4822 3.01446 25.1508L17.7743 -6.61508C18.1759 -6.42849 19.2981 -5.87047 20.5735 -4.78014C21.9416 -3.61062 22.847 -2.38025 23.3897 -1.47717L-6.63301 16.566ZM3.01282 25.15L3.59408 25.4202L18.3572 -6.34416L17.776 -6.61431L3.01282 25.15ZM10.8453 -7.97524L7.92044 -7.95346L8.18125 27.073L11.1061 27.0513L10.8453 -7.97524ZM7.92067 -7.95347C6.78563 -7.94503 3.141 -8.12119 -0.405047 -7.04198L9.79341 26.468C9.79175 26.4685 9.77553 26.4734 9.75146 26.4806C9.72682 26.488 9.68849 26.4993 9.64044 26.5133C9.544 26.5412 9.39742 26.5825 9.21616 26.6293C8.82245 26.7308 8.37791 26.8289 7.8936 26.9102C6.99955 27.0602 6.34094 27.088 6.25916 27.0918C6.16761 27.096 6.21468 27.092 6.60696 27.0869C6.96542 27.0823 7.45424 27.0784 8.18102 27.073L7.92067 -7.95347ZM-0.406531 -7.04153C-7.00118 -5.03386 -12.7702 -0.0880628 -15.2565 7.21878L17.9037 18.5025C17.2522 20.4171 16.1112 22.2297 14.5349 23.7018C12.9784 25.1553 11.2829 26.0145 9.79489 26.4675L-0.406531 -7.04153ZM-15.2571 7.22036L-15.4029 7.64909L17.7584 18.9296L17.9042 18.5009L-15.2571 7.22036ZM-16.336 13.2894V20.2347H18.6915V13.2894H-16.336ZM-16.336 20.2347V27.1801H18.6915V20.2347H-16.336ZM-15.4022 32.8225L-15.2563 33.2512L17.9036 21.9664L17.7577 21.5377L-15.4022 32.8225ZM-15.2562 33.2515C-12.7712 40.5531 -6.82803 45.7962 0.233801 47.6836L9.27795 13.8439C13.0712 14.8577 16.4739 17.7656 17.9035 21.966L-15.2562 33.2515ZM0.232874 47.6834L0.726411 47.8153L9.77241 13.9761L9.27887 13.8441L0.232874 47.6834ZM5.24941 48.4094H16.9401V13.3819H5.24941V48.4094ZM16.9401 48.4094H28.6307V13.3819H16.9401V48.4094ZM33.1537 47.8153L33.6472 47.6834L24.6012 13.8441L24.1077 13.9761L33.1537 47.8153ZM33.6464 47.6836C41.9076 45.4756 49.4672 38.2015 50.1863 27.9208L15.2441 25.477C15.701 18.9451 20.3331 14.9849 24.602 13.8439L33.6464 47.6836ZM12.9411 23.7174C13.0595 22.9848 13.3816 21.3892 14.3162 19.5152C15.3172 17.5082 16.5805 16.0534 17.6138 15.0961L41.419 40.7911C42.8671 39.4495 44.4338 37.6099 45.6614 35.1486C46.8226 32.8204 47.2943 30.7012 47.5197 29.3068L12.9411 23.7174ZM17.6128 15.097C19.9602 12.9219 22.8075 11.6634 25.6247 11.2499L30.7113 45.9061C34.5661 45.3403 38.3363 43.6475 41.42 40.7902L17.6128 15.097ZM25.6255 11.2498C25.9654 11.1999 26.237 11.1706 26.3898 11.1553C26.5566 11.1385 26.6921 11.1275 26.7815 11.1208C26.9554 11.1076 27.0824 11.1011 27.1308 11.0987C27.2296 11.0938 27.2639 11.0935 27.1922 11.0955C27.0615 11.099 26.8051 11.104 26.396 11.1087C25.5942 11.1178 24.4303 11.1234 22.9691 11.1235L22.9718 46.151C24.4981 46.1509 25.8081 46.1451 26.7957 46.1339C27.2813 46.1283 27.7486 46.1208 28.149 46.1099C28.3429 46.1046 28.5948 46.0965 28.8603 46.0834C28.8705 46.0829 29.7289 46.0502 30.7105 45.9062L25.6255 11.2498ZM22.9688 11.1235L18.1722 11.124L18.1756 46.1515L22.9721 46.151L22.9688 11.1235ZM35.6876 28.6377V20.2687H0.660156V28.6377H35.6876ZM35.6876 20.2687V11.8997H0.660156V20.2687H35.6876ZM14.1655 28.9486L14.5202 29.032L22.5371 -5.06574L22.1823 -5.14914L14.1655 28.9486ZM14.5211 29.0322C13.6424 28.8256 13.0082 28.5944 12.7139 28.4816C12.3677 28.3489 12.0869 28.2231 11.8626 28.1146C11.6384 28.0061 11.3645 27.8636 11.0441 27.6736C10.7724 27.5124 10.1928 27.1559 9.4803 26.59L31.2634 -0.840276C29.6256 -2.14087 28.0167 -2.98153 27.117 -3.41677C26.2145 -3.85342 24.5629 -4.58955 22.5362 -5.06594L14.5211 29.0322ZM9.48115 26.5907C8.19639 25.5705 7.27163 24.4061 6.62502 23.2485C5.98198 22.0974 5.42468 20.6124 5.23193 18.8037L40.0622 15.092C39.3842 8.73002 36.0537 2.96332 31.2626 -0.840952L9.48115 26.5907ZM5.23175 18.802C5.39395 20.3254 5.88585 23.5996 8.03538 27.0226C10.474 30.9058 13.8094 33.078 16.4998 34.2287L30.274 2.02318C32.4947 2.97298 35.4953 4.88553 37.6989 8.39466C39.6135 11.4435 39.9703 14.229 40.0624 15.0936L5.23175 18.802ZM16.4994 34.2286C23.2131 37.1001 32.0103 36.0092 37.8146 29.6176L11.884 6.06925C14.7278 2.93776 18.1456 1.5284 20.854 1.00518C23.6088 0.472978 26.9304 0.593086 30.2743 2.02333L16.4994 34.2286ZM37.8134 29.6189C39.4538 27.813 41.2302 25.1536 42.1096 21.563C42.8225 18.652 42.6479 16.2137 42.5894 15.4265L7.65805 18.0192C7.643 17.8164 7.45885 15.7978 8.08755 13.2307C8.88268 9.98403 10.5002 7.59274 11.8851 6.06797L37.8134 29.6189ZM42.5894 15.4261C42.1614 9.66141 39.4852 4.15834 36.0222 0.349657L10.106 23.9139C9.2095 22.928 8.74534 22.0717 8.48509 21.4916C8.248 20.9631 7.79041 19.802 7.65808 18.0196L42.5894 15.4261ZM36.0224 0.349837L35.7495 0.0497295L9.83298 23.6136L10.1058 23.9138L36.0224 0.349837ZM22.7889 29.3454L25.3076 29.3458L25.3124 -5.6817L22.7936 -5.68205L22.7889 29.3454ZM25.3078 29.3458C25.6025 29.3458 25.8918 29.3472 26.1599 29.3496C26.4295 29.352 26.6662 29.3554 26.8568 29.3591C26.9516 29.3609 27.0283 29.3627 27.0871 29.3643C27.1481 29.3659 27.1756 29.367 27.175 29.3669C27.1737 29.3669 27.1574 29.3662 27.1286 29.3649C27.1017 29.3636 27.0468 29.3608 26.9713 29.356C26.9325 29.3536 26.882 29.3502 26.8219 29.3458C26.7628 29.3414 26.6843 29.3353 26.5909 29.327C26.4999 29.3189 26.3727 29.3067 26.2197 29.2896C26.1418 29.2808 26.0492 29.2699 25.9447 29.2564C25.8412 29.243 25.7147 29.2258 25.5704 29.2039L30.8205 -5.42789C29.9618 -5.55807 29.2393 -5.59801 29.1694 -5.6024C28.9187 -5.61816 28.6933 -5.62799 28.5336 -5.63418C28.2042 -5.64697 27.8554 -5.65564 27.5363 -5.66183C26.8829 -5.67451 26.0979 -5.68161 25.3122 -5.6817L25.3078 29.3458ZM25.5681 29.2035C21.367 28.5661 17.5335 26.1793 15.1225 22.3671L44.7263 3.64441C41.5789 -1.33208 36.4148 -4.57905 30.8228 -5.42755L25.5681 29.2035ZM15.1222 22.3667C15.0469 22.2477 14.7361 21.756 14.3927 21.0749C14.0166 20.3289 13.6722 19.5012 13.3921 18.6022C12.8731 16.9362 12.7731 15.6371 12.7523 15.3655C12.7296 15.0694 12.7381 14.9957 12.7443 15.4869C12.7497 15.9177 12.7514 16.5259 12.7521 17.4747L47.7796 17.4498C47.7785 15.9579 47.7864 14.1126 47.6773 12.6892C47.6117 11.8329 47.447 10.1503 46.8341 8.18325C46.1244 5.90516 45.142 4.30184 44.7265 3.64481L15.1222 22.3667ZM50.2321 16.9002C50.2221 15.2296 50.2168 13.8663 50.1809 12.9628C50.1627 12.5038 50.115 11.3932 49.8835 10.0806C49.5873 8.40177 49.1163 7.13672 49.0468 6.94196L16.0596 18.7221C16.0999 18.835 15.9595 18.4532 15.8205 17.9884C15.6496 17.4167 15.5015 16.8054 15.3886 16.1657C15.285 15.5784 15.2362 15.1081 15.2123 14.8288C15.1891 14.5579 15.182 14.3765 15.181 14.3505C15.1801 14.3293 15.1851 14.468 15.1905 14.9983C15.1955 15.4899 15.1995 16.1534 15.2052 17.1097L50.2321 16.9002ZM49.0465 6.94108C46.5098 -0.160823 40.8688 -5.03685 34.2887 -7.04096L24.0832 26.4668C22.6156 26.0199 20.9319 25.1722 19.3805 23.7352C17.8115 22.2818 16.703 20.5235 16.0599 18.723L49.0465 6.94108ZM34.288 -7.04116C30.7333 -8.12368 27.0636 -7.94502 25.8944 -7.95349L25.6405 27.0731C26.3837 27.0785 26.8856 27.0823 27.2544 27.0869C27.6571 27.092 27.7129 27.096 27.6291 27.0923C27.559 27.0892 26.8993 27.0624 26.002 26.9127C25.5133 26.8312 25.0636 26.7322 24.664 26.6292C24.4803 26.5818 24.332 26.5399 24.2351 26.5118C24.1868 26.4979 24.1484 26.4864 24.1241 26.4792C24.1004 26.4721 24.0846 26.4673 24.0838 26.467L34.288 -7.04116ZM25.8945 -7.95349L22.9079 -7.97515L22.6538 27.0514L25.6404 27.0731L25.8945 -7.95349ZM30.162 25.4205L30.756 25.1444L15.9938 -6.62035L15.3997 -6.34425L30.162 25.4205ZM30.7558 25.1445C32.793 24.1978 35.5091 22.6704 38.0548 19.7765L11.755 -3.35889C12.4179 -4.11247 13.2895 -4.92925 14.3527 -5.66114C15.2571 -6.28376 15.9551 -6.60236 15.994 -6.62048L30.7558 25.1445ZM38.0548 19.7764C43.7009 13.358 45.262 3.78503 40.8909 -4.36403L10.0237 12.1932C7.12632 6.79171 8.24906 0.626603 11.7549 -3.35881L38.0548 19.7764ZM40.8909 -4.36394C36.7173 -12.1448 28.6125 -16.2308 20.4714 -15.8187L22.242 19.164C17.6156 19.3981 12.6037 17.0032 10.0236 12.1931L40.8909 -4.36394ZM20.4708 -15.8187C15.0336 -15.5433 9.41449 -13.2851 5.22712 -8.5938L31.3591 14.731C28.6916 17.7194 25.1855 19.0149 22.2426 19.1639L20.4708 -15.8187ZM5.22693 -8.59358C3.63718 -6.81246 2.60067 -4.89794 2.37636 -4.49221C1.91682 -3.66096 1.33804 -2.5209 0.841723 -1.26926L33.4027 11.6421C33.2758 11.9623 33.1789 12.1651 33.1457 12.2336C33.1043 12.3191 33.0686 12.3873 33.0312 12.455C33.0007 12.5101 32.9133 12.6663 32.7608 12.9035C32.6831 13.0246 32.5492 13.228 32.3636 13.4848C32.2019 13.7085 31.8585 14.1714 31.3592 14.7308L5.22693 -8.59358ZM0.841203 -1.26794C0.862429 -1.32149 0.927136 -1.48359 1.04401 -1.73855C1.0809 -1.81901 1.25224 -2.19415 1.51583 -2.67989C1.60946 -2.85245 1.97292 -3.52372 2.53575 -4.32902C2.77187 -4.66685 3.46593 -5.64695 4.55503 -6.72651C5.09305 -7.25981 6.173 -8.26726 7.75287 -9.23224C9.13874 -10.0787 12.5071 -11.8862 17.2158 -11.7959L16.5444 23.2252C21.2542 23.3154 24.6238 21.5076 26.0112 20.6602C27.5925 19.6943 28.6741 18.6855 29.2139 18.1504C30.3067 17.0673 31.005 16.0818 31.246 15.737C31.8187 14.9176 32.1945 14.2255 32.3027 14.0262C32.5953 13.4869 32.8045 13.0342 32.8852 12.858C33.0899 12.4116 33.2667 11.9852 33.4033 11.6408L0.841203 -1.26794ZM17.1589 -11.7969C21.7331 -11.7241 24.9557 -9.90086 26.2473 -9.08302C27.7466 -8.1337 28.7744 -7.16002 29.2899 -6.64198C30.3331 -5.59367 31.0018 -4.64818 31.2328 -4.3171C31.7797 -3.53325 32.1346 -2.8813 32.2273 -2.71122C32.4861 -2.23661 32.6547 -1.87066 32.6911 -1.79204C32.8059 -1.54367 32.8692 -1.38694 32.8894 -1.33657L0.381656 11.7083C0.518467 12.0492 0.695038 12.4702 0.898531 12.9103C0.979203 13.0847 1.186 13.5284 1.4741 14.0567C1.58149 14.2537 1.94882 14.9265 2.50559 15.7246C2.74152 16.0628 3.41455 17.0137 4.4614 18.0657C4.97873 18.5855 6.0082 19.5606 7.50895 20.5109C8.80206 21.3296 12.0259 23.1533 16.6013 23.2262L17.1589 -11.7969ZM32.8897 -1.33586C32.2973 -2.81234 31.0688 -5.49302 29.171 -7.84016L1.93309 14.183C1.42417 13.5536 1.10371 13.0544 0.979797 12.8571C0.826506 12.613 0.726057 12.4322 0.671655 12.331C0.574316 12.1501 0.48436 11.9643 0.381371 11.7076L32.8897 -1.33586ZM29.1701 -7.84129C23.6137 -14.7121 14.6771 -17.1049 7.01774 -15.2463L15.2781 18.7933C12.7074 19.4171 10.2986 19.2077 8.28549 18.5687C6.29758 17.9377 3.91326 16.6316 1.93401 14.1842L29.1701 -7.84129ZM6.56645 20.4345C6.00092 20.2166 3.49392 19.241 1.07973 16.8354C0.0170138 15.7765 -0.680052 14.7894 -1.07375 14.1774C-1.43412 13.6172 -1.64815 13.1982 -1.64894 13.1967L29.4234 -2.97228C29.2297 -3.34456 28.0527 -5.73587 25.8036 -7.97699C23.0939 -10.677 20.2472 -11.8318 19.1602 -12.2507L6.56645 20.4345ZM-1.64886 13.1968C-1.96711 12.5852 -1.949 12.5276 -1.6928 13.2058C-1.61041 13.4239 -1.6041 13.4549 -1.64934 13.3142C-1.65282 13.3034 -1.78762 12.8942 -1.92883 12.2987C-1.97974 12.0841 -2.18445 11.2254 -2.29812 10.0861C-2.34884 9.57787 -2.46453 8.26165 -2.29249 6.58569C-2.20467 5.73014 -1.99431 4.27817 -1.39226 2.56775C-0.813938 0.924773 0.454395 -1.89489 3.22118 -4.45857L27.0283 21.2347C32.0499 16.5818 32.4851 10.8131 32.5519 10.1625C32.7253 8.47288 32.6092 7.13865 32.5563 6.6083C32.4382 5.42486 32.222 4.50571 32.1534 4.21621C31.9767 3.47104 31.7811 2.85467 31.6975 2.59464C31.4921 1.95549 31.2606 1.32003 31.0745 0.827214C30.7936 0.0835817 30.1513 -1.57344 29.4233 -2.97244L-1.64886 13.1968ZM3.19354 -4.4329C6.66028 -7.65906 10.3895 -8.5062 11.4209 -8.72931C12.9114 -9.05173 14.1187 -9.10587 14.6981 -9.11988C15.9012 -9.14898 16.8364 -9.04344 17.1469 -9.00717C17.8992 -8.91929 18.476 -8.79999 18.6172 -8.77098C19.0205 -8.68809 19.3193 -8.61055 19.3601 -8.60005C19.5202 -8.55897 19.597 -8.53594 19.5227 -8.5572C19.4177 -8.58727 19.1925 -8.65392 18.8943 -8.74612L8.54815 24.7185C9.00763 24.8606 9.47705 25.0015 9.88082 25.1171C10.061 25.1687 10.3457 25.2491 10.6518 25.3277C10.7658 25.3569 11.1222 25.4482 11.5657 25.5394C11.727 25.5725 12.3195 25.6946 13.0831 25.7838C13.3992 25.8207 14.3388 25.9265 15.5451 25.8973C16.1263 25.8833 17.3348 25.829 18.8264 25.5064C19.8589 25.283 23.5888 24.4356 27.056 21.209L3.19354 -4.4329ZM18.8937 -8.74629C18.4493 -8.88369 18.3184 -8.94184 18.446 -8.88988C18.4985 -8.86849 18.8231 -8.73659 19.3 -8.48874C19.5436 -8.3621 19.954 -8.13967 20.4553 -7.81872C20.8946 -7.53742 21.7887 -6.93756 22.797 -5.99982L-1.05779 19.6492C0.812325 21.3885 2.67192 22.345 3.1464 22.5916C3.95029 23.0094 4.68937 23.3285 5.23242 23.5497C6.34099 24.0012 7.49533 24.3931 8.54867 24.7187L18.8937 -8.74629ZM22.797 -5.9998C24.7274 -4.20448 25.9213 -2.22825 26.6424 -0.522951C27.3716 1.20177 27.8901 3.29121 27.8901 5.65804H-7.13741C-7.13741 10.6723 -5.11655 15.8743 -1.0578 19.6492L22.797 -5.9998ZM27.8901 5.65804C27.8901 18.3673 15.3212 23.808 6.56607 20.4344L19.1606 -12.2505C8.05264 -16.5307 -7.13741 -9.43935 -7.13741 5.65804H27.8901ZM18.565 21.1911C11.213 19.743 4.09689 12.2052 6.2467 2.27941L40.4804 9.69405C43.018 -2.02218 34.6259 -11.3459 25.3341 -13.1761L18.565 21.1911ZM6.2465 2.28031C6.50708 1.07693 6.99806 -0.488717 7.93992 -2.16138C8.90048 -3.86723 10.0878 -5.25431 11.3136 -6.33594C12.4728 -7.3588 13.5338 -7.99175 14.1915 -8.34217C14.8402 -8.68782 15.3202 -8.87561 15.4514 -8.92608L28.0268 23.7662C29.0889 23.3576 31.8383 22.2674 34.4887 19.9288C37.8609 16.9534 39.7127 13.2393 40.4806 9.69316L6.2465 2.28031ZM15.4522 -8.92636C15.5809 -8.97587 15.2718 -8.86262 14.7041 -8.68725C14.4648 -8.61332 14.3689 -8.58722 14.412 -8.59894C14.4326 -8.60456 14.4901 -8.6201 14.5756 -8.64163C14.649 -8.66014 14.8202 -8.70267 15.0523 -8.75264C15.1871 -8.78165 15.7892 -8.91253 16.5867 -9.00758C16.9205 -9.04737 17.9045 -9.15985 19.1727 -9.12101C19.7915 -9.10206 21.0311 -9.03477 22.554 -8.68461C23.7162 -8.41737 27.2274 -7.52387 30.5289 -4.46469L6.72177 21.2286C10.025 24.2893 13.5389 25.184 14.7048 25.4521C16.2315 25.8031 17.4759 25.8709 18.1004 25.89C19.38 25.9292 20.3795 25.8158 20.7324 25.7737C21.5682 25.6741 22.2236 25.5335 22.4249 25.4901C22.9548 25.3761 23.4054 25.255 23.6105 25.1992C24.1053 25.0645 24.6201 24.9102 25.0429 24.7797C25.7993 24.546 27.0202 24.1533 28.0261 23.7665L15.4522 -8.92636ZM30.5208 -4.47227C32.8088 -2.35485 34.0522 -0.0780505 34.7164 1.46823C35.3897 3.03568 35.7041 4.40175 35.8637 5.29368C36.172 7.01695 36.1476 8.39834 36.1258 9.00319C36.0792 10.2936 35.8949 11.2841 35.8401 11.5764C35.6996 12.3257 35.5401 12.8877 35.5096 12.9966C35.4518 13.2026 35.4051 13.352 35.3866 13.4107C35.3645 13.4807 35.3498 13.5248 35.3464 13.5352C35.3441 13.5419 35.387 13.4163 35.477 13.1726C35.7564 12.4151 35.7855 12.4118 35.54 12.9287L3.90016 -2.09943C3.36449 -0.97164 2.82207 0.486348 2.61464 1.04859C2.46111 1.46473 2.28174 1.96363 2.1241 2.43543C2.05862 2.63142 1.92024 3.0499 1.78368 3.53674C1.73387 3.71433 1.56076 4.33113 1.41291 5.11948C1.35442 5.43131 1.1681 6.43743 1.12109 7.73926C1.09905 8.34981 1.07481 9.73586 1.38377 11.4627C1.58621 12.5942 2.4623 17.2868 6.72996 21.2361L30.5208 -4.47227ZM35.5397 12.9292C35.5076 12.997 34.6162 14.9995 32.5247 17.018C29.878 19.5721 26.9351 20.6752 24.9159 21.1161L17.4449 -13.1054C14.7494 -12.5169 11.2978 -11.1754 8.20083 -8.18671C5.65892 -5.73363 4.37559 -3.1003 3.90042 -2.09996L35.5397 12.9292ZM24.9147 21.1163C24.8971 21.1202 24.8002 21.1413 24.6633 21.1682C24.5236 21.1956 24.2919 21.239 23.9994 21.2831C23.3607 21.3795 22.5059 21.469 21.4981 21.4662C20.5192 21.4634 19.7301 21.374 19.2395 21.3038C19.0057 21.2704 18.8247 21.239 18.7269 21.2214C18.6752 21.2121 18.6349 21.2045 18.6103 21.1999C18.5856 21.1952 18.57 21.1921 18.5676 21.1916L25.3314 -13.1766C25.2749 -13.1877 23.6104 -13.5554 21.5979 -13.5612C19.398 -13.5674 17.6457 -13.1492 17.4461 -13.1057L24.9147 21.1163ZM-2.49047 0.460373C-5.62818 3.95387 -7.54709 8.11837 -8.55298 11.8767L25.2836 20.9328C25.1912 21.278 25.0573 21.6424 24.8503 22.0462C24.6568 22.4238 24.2735 23.0818 23.5691 23.866L-2.49047 0.460373ZM-8.55304 11.877C-9.03462 13.6764 -9.36975 15.5683 -9.53062 17.3349C-9.60986 18.205 -9.67776 19.3745 -9.62162 20.6789C-9.598 21.2275 -9.52115 24.679 -7.6886 28.3579L23.6644 12.7403C24.6829 14.7849 25.0324 16.5297 25.1588 17.2445C25.3128 18.1154 25.3574 18.7985 25.3734 19.1724C25.4055 19.9175 25.3625 20.4013 25.3525 20.5114C25.3301 20.7579 25.3105 20.8323 25.2836 20.9326L-8.55304 11.877ZM-7.68864 28.3578C-4.43615 34.8874 1.62959 37.9155 6.72678 38.566C11.8324 39.2176 18.2758 37.8017 23.0123 32.586L-2.91848 9.03775C1.25153 4.44585 6.85055 3.27025 11.1609 3.82032C15.4628 4.36931 20.7823 6.95412 23.6645 12.7404L-7.68864 28.3578ZM23.0121 32.5862C25.1548 30.2268 26.6348 27.4002 27.3554 24.2372C27.7243 22.6181 27.8467 20.9668 27.8686 20.7235L-7.01691 17.5737C-7.0429 17.8615 -7.04761 17.8897 -7.03888 17.8165C-7.03564 17.7894 -6.97287 17.2287 -6.79688 16.4562C-6.60073 15.5953 -6.19836 14.162 -5.34609 12.5264C-4.45837 10.8229 -3.46883 9.64377 -2.91829 9.03754L23.0121 32.5862ZM27.8686 20.7238C27.8639 20.7761 27.7223 22.283 26.4206 24.1572L-2.34844 4.17555C-5.43307 8.61673 -6.64251 13.4279 -7.01689 17.5734L27.8686 20.7238ZM26.4201 24.1579C25.9211 24.8763 25.4883 25.3624 25.2712 25.5969C25.0223 25.8658 24.801 26.0783 24.6103 26.2495C24.4218 26.4187 24.1684 26.6327 23.8362 26.8778C23.5607 27.0811 22.9184 27.5392 21.9742 28.0284L5.8601 -3.07243C3.68603 -1.94599 2.05302 -0.571532 1.21281 0.182634C0.311419 0.991714 -1.08628 2.35851 -2.34794 4.17483L26.4201 24.1579ZM21.9759 28.0275C21.5693 28.2382 21.25 28.3783 21.0614 28.4575C20.8573 28.5431 20.6789 28.6106 20.5224 28.6657C20.3669 28.7205 20.1754 28.7833 19.9429 28.8498C19.7327 28.91 19.3467 29.014 18.8272 29.1144L12.1842 -5.27743C9.98571 -4.85277 7.69664 -4.02424 5.85837 -3.07153L21.9759 28.0275ZM18.8249 29.1148L19.0254 29.0761L12.387 -5.31657L12.1865 -5.27787L18.8249 29.1148ZM-1.80753 11.8798V20.2588H33.2199V11.8798H-1.80753ZM-1.80753 20.2588V28.6377H33.2199V20.2588H-1.80753ZM15.7079 11.124L10.9113 11.1235L10.908 46.151L15.7045 46.1515L15.7079 11.124ZM10.911 11.1235C9.44982 11.1234 8.28592 11.1178 7.4841 11.1087C7.07498 11.104 6.81859 11.099 6.68786 11.0955C6.61618 11.0935 6.65053 11.0938 6.74935 11.0987C6.79771 11.1011 6.9247 11.1076 7.09863 11.1208C7.18802 11.1275 7.32349 11.1385 7.49029 11.1553C7.64307 11.1706 7.91466 11.1999 8.25459 11.2498L3.16961 45.9062C4.15116 46.0502 5.00963 46.0829 5.01985 46.0834C5.28535 46.0965 5.53717 46.1046 5.73107 46.1099C6.13151 46.1208 6.59876 46.1283 7.08438 46.1339C8.07204 46.1451 9.38205 46.1509 10.9083 46.151L10.911 11.1235ZM8.25555 11.2499C12.2966 11.8431 16.2558 14.1465 18.7576 18.1023L-10.8462 36.825C-7.59246 41.9697 -2.33206 45.0986 3.16865 45.9061L8.25555 11.2499ZM18.7578 18.1026C18.6942 18.002 18.7866 18.1467 18.8792 18.2997C18.9955 18.4919 19.1975 18.8347 19.4257 19.2797C19.9421 20.2861 20.3632 21.364 20.6661 22.4848C20.9365 23.4853 21.0473 24.282 21.0949 24.6906C21.1202 24.908 21.1342 25.0758 21.1417 25.1761C21.1492 25.2776 21.1523 25.3406 21.1528 25.3523C21.1534 25.3645 21.1494 25.2788 21.1451 25.0335C21.141 24.7968 21.1376 24.4762 21.1352 24.0355C21.1304 23.1433 21.1305 21.9414 21.1305 20.2347H-13.897C-13.897 23.2925 -13.9033 25.5631 -13.8362 26.9931C-13.8071 27.6136 -13.7254 29.4877 -13.1484 31.6226C-12.3464 34.5905 -10.9602 36.6447 -10.8464 36.8247L18.7578 18.1026ZM21.1305 20.2347C21.1305 18.528 21.1304 17.3261 21.1352 16.4339C21.1376 15.9933 21.141 15.6726 21.1451 15.4359C21.1494 15.1906 21.1534 15.1049 21.1528 15.1171C21.1523 15.1288 21.1492 15.1918 21.1417 15.2933C21.1342 15.3936 21.1202 15.5614 21.0949 15.7788C21.0473 16.1874 20.9365 16.9842 20.6661 17.9846C20.3632 19.1054 19.9421 20.1833 19.4257 21.1897C19.1975 21.6347 18.9955 21.9776 18.8792 22.1697C18.7866 22.3227 18.6942 22.4675 18.7578 22.3668L-10.8464 3.64471C-10.9602 3.82466 -12.3464 5.87891 -13.1484 8.84678C-13.7254 10.9817 -13.8071 12.8558 -13.8362 13.4763C-13.9033 14.9063 -13.897 17.1769 -13.897 20.2347H21.1305ZM18.7577 22.367C17.4274 24.4704 15.8205 25.904 14.3943 26.8537C12.9833 27.7932 10.9541 28.7879 8.31935 29.1975L2.93828 -5.41418C-2.86352 -4.51218 -7.88684 -1.0349 -10.8463 3.64458L18.7577 22.367ZM8.32236 29.197C8.14839 29.2241 7.99831 29.2447 7.88028 29.26C7.76065 29.2754 7.65589 29.2877 7.57007 29.2971C7.40219 29.3157 7.26411 29.3284 7.16976 29.3365C7.07201 29.3448 6.9905 29.3509 6.93072 29.3551C6.86975 29.3594 6.81874 29.3626 6.78025 29.3649C6.7055 29.3694 6.65142 29.372 6.62609 29.3731C6.59859 29.3744 6.58323 29.3749 6.58283 29.3749C6.58171 29.375 6.58882 29.3747 6.60525 29.3742C6.62139 29.3737 6.64364 29.3731 6.67242 29.3723C6.73069 29.3708 6.80636 29.3691 6.89956 29.3673C7.08688 29.3637 7.31958 29.3602 7.58521 29.3575C7.84941 29.3548 8.13601 29.3529 8.42997 29.3521L8.33504 -5.67524C7.58207 -5.6732 6.83608 -5.66551 6.2227 -5.65366C5.92383 -5.64788 5.59846 -5.64003 5.29448 -5.62884C5.14872 -5.62347 4.93551 -5.61475 4.69777 -5.60059C4.57976 -5.59356 4.39501 -5.58165 4.17429 -5.5627C4.02266 -5.54969 3.53989 -5.50782 2.93527 -5.41372L8.32236 29.197ZM8.43062 29.3521L10.8852 29.3454L10.7889 -5.68198L8.33438 -5.67524L8.43062 29.3521ZM-2.19281 0.128961L-2.49054 0.460451L23.5692 23.8659L23.8669 23.5344L-2.19281 0.128961ZM12.7539 17.7096C12.7713 18.9436 12.7904 20.8584 12.7914 22.5655C12.7919 23.4251 12.7877 24.169 12.7785 24.7218C12.7739 25.0011 12.7689 25.171 12.7658 25.2507C12.7585 25.4399 12.7639 25.126 12.82 24.612L47.6407 28.4122C47.8303 26.6756 47.8196 23.8166 47.8189 22.5452C47.8178 20.6361 47.7968 18.556 47.7778 17.2149L12.7539 17.7096ZM15.2132 17.5434C15.2519 18.8032 15.2981 20.7709 15.3109 22.5257C15.3174 23.4118 15.3145 24.1422 15.3033 24.6581C15.3007 24.7797 15.2979 24.8744 15.2954 24.9443C15.2929 25.0162 15.2912 25.0448 15.2916 25.0371C15.2917 25.0356 15.2963 24.9514 15.3096 24.807C15.3205 24.6893 15.3526 24.3568 15.4263 23.9016L50.0041 29.4961C50.2804 27.7884 50.3102 25.9886 50.3226 25.415C50.3442 24.4191 50.3451 23.3123 50.3375 22.2702C50.3221 20.1686 50.2687 17.9159 50.2241 16.4666L15.2132 17.5434Z" fill="url(#paint0_linear_2029_77421)" mask="url(#path-1-inside-1_2029_77421)"/>
<path d="M11.1479 1.77351L15.2777 18.7934L15.2781 18.7933L11.1479 1.77351ZM8.06997 4.44172L24.5549 10.3561L24.5551 10.3555L8.06997 4.44172ZM7.9063 5.62946L-9.60716 5.53155L-9.60717 5.53223L7.9063 5.62946ZM8.37837 7.54444L23.3897 -1.47717L23.3895 -1.47763L8.37837 7.54444ZM10.3944 9.26785L17.776 -6.61431L17.7743 -6.61508L10.3944 9.26785ZM10.9757 9.53801L11.1061 27.0513L18.3572 -6.34416L10.9757 9.53801ZM8.05085 9.55979L8.18102 27.073L8.18125 27.073L8.05085 9.55979ZM4.69418 9.71299L-0.405047 -7.04198L-0.406531 -7.04153L4.69418 9.71299ZM1.32357 12.8606L-15.2565 7.21878L-15.2571 7.22036L1.32357 12.8606ZM1.17773 13.2894L-15.4029 7.64909L-16.336 10.392V13.2894H1.17773ZM1.17773 27.1801H-16.336V30.0785L-15.4022 32.8225L1.17773 27.1801ZM1.32364 27.6088L-15.2563 33.2512L-15.2562 33.2515L1.32364 27.6088ZM4.75587 30.7637L9.27887 13.8441L9.27795 13.8439L4.75587 30.7637ZM5.24941 30.8957L0.726411 47.8153L2.94889 48.4094H5.24941V30.8957ZM28.6307 30.8957V48.4094H30.9312L33.1537 47.8153L28.6307 30.8957ZM29.1242 30.7637L24.602 13.8439L24.6012 13.8441L29.1242 30.7637ZM32.7152 26.6989L15.4263 23.9016L15.2995 24.6852L15.2441 25.477L32.7152 26.6989ZM30.2304 26.5121L47.5197 29.3068L47.5917 28.8611L47.6407 28.4122L30.2304 26.5121ZM29.5164 27.9436L17.6138 15.0961L17.6128 15.097L29.5164 27.9436ZM28.168 28.578L30.7105 45.9062L30.7113 45.9061L28.168 28.578ZM22.9704 28.6373L22.9691 11.1235H22.9688L22.9704 28.6373ZM18.1739 28.6377H0.660156V46.1531L18.1756 46.1515L18.1739 28.6377ZM18.1739 11.8997L22.1823 -5.14914L0.660156 -10.2093V11.8997H18.1739ZM18.5286 11.9831L14.5202 29.032L14.5211 29.0322L18.5286 11.9831ZM20.3719 12.8749L9.4803 26.59L9.48115 26.5907L20.3719 12.8749ZM22.6471 16.9478L40.0624 15.0936L40.0622 15.092L22.6471 16.9478ZM23.3869 18.1259L30.2743 2.02333L30.274 2.02318L23.3869 18.1259ZM24.8493 17.8434L11.8851 6.06797L11.884 6.06925L24.8493 17.8434ZM25.1237 16.7229L42.5894 15.4265L42.5894 15.4261L25.1237 16.7229ZM23.0641 12.1318L10.1058 23.9138L10.106 23.9139L23.0641 12.1318ZM22.7912 11.8317L22.7936 -5.68205L-16.8083 -5.68743L9.83298 23.6136L22.7912 11.8317ZM25.31 11.832L25.3076 29.3458H25.3078L25.31 11.832ZM28.1955 11.888L30.8228 -5.42755L30.8205 -5.42789L28.1955 11.888ZM29.9244 13.0058L44.7265 3.64481L44.7263 3.64441L29.9244 13.0058ZM30.2658 17.4623L12.7521 17.4747L12.7522 17.5922L12.7539 17.7096L30.2658 17.4623ZM32.7187 17.005L15.2052 17.1097L15.2065 17.3266L15.2132 17.5434L32.7187 17.005ZM32.5532 12.832L49.0468 6.94196L49.0465 6.94108L32.5532 12.832ZM29.1859 9.71293L34.2887 -7.04096L34.288 -7.04116L29.1859 9.71293ZM25.7674 9.55979L25.6404 27.0731L25.6405 27.0731L25.7674 9.55979ZM22.7808 9.53812L15.3997 -6.34425L22.6538 27.0514L22.7808 9.53812ZM23.3749 9.26202L15.994 -6.62048L15.9938 -6.62035L23.3749 9.26202ZM24.9049 8.20879L38.0548 19.7765L38.0548 19.7764L24.9049 8.20879ZM25.4573 3.91456L10.0236 12.1931L10.0237 12.1932L25.4573 3.91456ZM21.3567 1.67261L20.4714 -15.8187L20.4708 -15.8187L21.3567 1.67261ZM18.2931 3.0686L5.22712 -8.5938L5.22693 -8.59358L18.2931 3.0686ZM17.1222 5.18645L0.841723 -1.26926L0.841203 -1.26794L17.1222 5.18645ZM16.8801 5.71463L17.2158 -11.7959L17.1873 -11.7964L17.1589 -11.7969L16.8801 5.71463ZM16.6355 5.18587L0.381371 11.7076L0.381656 11.7083L16.6355 5.18587ZM15.552 3.17144L29.171 -7.84016L29.1701 -7.84129L15.552 3.17144ZM12.8633 4.09194L6.56607 20.4344L6.56645 20.4345L12.8633 4.09194ZM13.8872 5.11219L-1.64894 13.1967L-1.64886 13.1968L13.8872 5.11219ZM15.1248 8.38805L3.22118 -4.45857L3.20735 -4.44575L3.19354 -4.4329L15.1248 8.38805ZM13.7212 7.98619L18.8943 -8.74612L18.8937 -8.74629L13.7212 7.98619ZM10.8696 6.82469L-1.0578 19.6492L-1.05779 19.6492L10.8696 6.82469ZM21.9495 4.00751L25.3341 -13.1761L25.3314 -13.1766L21.9495 4.00751ZM23.3636 5.98673L6.2467 2.27941L6.2465 2.28031L23.3636 5.98673ZM21.7391 7.42005L28.0261 23.7665L28.0268 23.7662L21.7391 7.42005ZM18.6254 8.38194L30.5289 -4.46469L30.5208 -4.47227L18.6254 8.38194ZM19.7201 5.41464L3.90042 -2.09996L3.90016 -2.09943L19.7201 5.41464ZM21.1804 4.00534L17.4461 -13.1057L17.4449 -13.1054L21.1804 4.00534ZM10.5393 12.1632L23.5691 23.866L23.5692 23.8659L10.5393 12.1632ZM8.36529 16.4048L-8.55298 11.8767L-8.55304 11.877L8.36529 16.4048ZM7.98792 20.5491L23.6645 12.7404L23.6644 12.7403L7.98792 20.5491ZM10.0469 20.8119L-2.91829 9.03754L-2.91848 9.03775L10.0469 20.8119ZM10.4259 19.1486L-7.01689 17.5734L-7.01691 17.5737L10.4259 19.1486ZM12.0361 14.1664L-2.34794 4.17483L-2.34844 4.17555L12.0361 14.1664ZM13.9171 12.478L21.9742 28.0284L21.9759 28.0275L13.9171 12.478ZM15.5057 11.9185L12.1865 -5.27787L12.1842 -5.27743L15.5057 11.9185ZM15.7062 11.8798H33.2199V-9.33769L12.387 -5.31657L15.7062 11.8798ZM15.7062 28.6377L15.7045 46.1515L33.2199 46.1531V28.6377H15.7062ZM10.9097 28.6373L10.9113 11.1235H10.911L10.9097 28.6373ZM5.7121 28.578L3.16865 45.9061L3.16961 45.9062L5.7121 28.578ZM3.95573 27.4636L-10.8464 36.8247L-10.8462 36.825L3.95573 27.4636ZM3.95573 13.0058L-10.8463 3.64458L-10.8464 3.64471L3.95573 13.0058ZM5.62882 11.8917L8.31935 29.1975L8.32236 29.197L5.62882 11.8917ZM8.3825 11.8384L8.42997 29.3521L8.43062 29.3521L8.3825 11.8384ZM10.837 11.8317L23.8669 23.5344L50.2048 -5.79028L10.7889 -5.68198L10.837 11.8317ZM7.01815 -15.2464C0.279765 -13.6113 -5.78512 -8.80343 -8.41513 -1.47202L24.5551 10.3555C22.8907 14.9952 19.0448 17.8793 15.2777 18.7934L7.01815 -15.2464ZM-8.41491 -1.47263C-8.67989 -0.734061 -9.1547 0.682362 -9.41184 2.54851C-9.61098 3.99368 -9.6056 5.2528 -9.60716 5.53155L25.4198 5.72738C25.4203 5.63125 25.4211 5.75936 25.4117 5.97802C25.4014 6.2184 25.3739 6.70476 25.2878 7.32988C25.1946 8.00603 25.0585 8.66181 24.8902 9.28262C24.7389 9.84063 24.5939 10.2474 24.5549 10.3561L-8.41491 -1.47263ZM-9.60717 5.53223C-9.62594 8.91432 -8.95462 12.7033 -6.63274 16.5665L23.3895 -1.47763C23.9131 -0.606442 24.5826 0.744434 25.0117 2.48553C25.4068 4.08827 25.422 5.32467 25.4198 5.72669L-9.60717 5.53223ZM-6.63301 16.566C-4.04981 20.8643 -0.57654 23.4822 3.01446 25.1508L17.7743 -6.61508C18.1759 -6.42849 19.2981 -5.87047 20.5735 -4.78014C21.9416 -3.61062 22.847 -2.38025 23.3897 -1.47717L-6.63301 16.566ZM3.01282 25.15L3.59408 25.4202L18.3572 -6.34416L17.776 -6.61431L3.01282 25.15ZM10.8453 -7.97524L7.92044 -7.95346L8.18125 27.073L11.1061 27.0513L10.8453 -7.97524ZM7.92067 -7.95347C6.78563 -7.94503 3.141 -8.12119 -0.405047 -7.04198L9.79341 26.468C9.79175 26.4685 9.77553 26.4734 9.75146 26.4806C9.72682 26.488 9.68849 26.4993 9.64044 26.5133C9.544 26.5412 9.39742 26.5825 9.21616 26.6293C8.82245 26.7308 8.37791 26.8289 7.8936 26.9102C6.99955 27.0602 6.34094 27.088 6.25916 27.0918C6.16761 27.096 6.21468 27.092 6.60696 27.0869C6.96542 27.0823 7.45424 27.0784 8.18102 27.073L7.92067 -7.95347ZM-0.406531 -7.04153C-7.00118 -5.03386 -12.7702 -0.0880628 -15.2565 7.21878L17.9037 18.5025C17.2522 20.4171 16.1112 22.2297 14.5349 23.7018C12.9784 25.1553 11.2829 26.0145 9.79489 26.4675L-0.406531 -7.04153ZM-15.2571 7.22036L-15.4029 7.64909L17.7584 18.9296L17.9042 18.5009L-15.2571 7.22036ZM-16.336 13.2894V20.2347H18.6915V13.2894H-16.336ZM-16.336 20.2347V27.1801H18.6915V20.2347H-16.336ZM-15.4022 32.8225L-15.2563 33.2512L17.9036 21.9664L17.7577 21.5377L-15.4022 32.8225ZM-15.2562 33.2515C-12.7712 40.5531 -6.82803 45.7962 0.233801 47.6836L9.27795 13.8439C13.0712 14.8577 16.4739 17.7656 17.9035 21.966L-15.2562 33.2515ZM0.232874 47.6834L0.726411 47.8153L9.77241 13.9761L9.27887 13.8441L0.232874 47.6834ZM5.24941 48.4094H16.9401V13.3819H5.24941V48.4094ZM16.9401 48.4094H28.6307V13.3819H16.9401V48.4094ZM33.1537 47.8153L33.6472 47.6834L24.6012 13.8441L24.1077 13.9761L33.1537 47.8153ZM33.6464 47.6836C41.9076 45.4756 49.4672 38.2015 50.1863 27.9208L15.2441 25.477C15.701 18.9451 20.3331 14.9849 24.602 13.8439L33.6464 47.6836ZM12.9411 23.7174C13.0595 22.9848 13.3816 21.3892 14.3162 19.5152C15.3172 17.5082 16.5805 16.0534 17.6138 15.0961L41.419 40.7911C42.8671 39.4495 44.4338 37.6099 45.6614 35.1486C46.8226 32.8204 47.2943 30.7012 47.5197 29.3068L12.9411 23.7174ZM17.6128 15.097C19.9602 12.9219 22.8075 11.6634 25.6247 11.2499L30.7113 45.9061C34.5661 45.3403 38.3363 43.6475 41.42 40.7902L17.6128 15.097ZM25.6255 11.2498C25.9654 11.1999 26.237 11.1706 26.3898 11.1553C26.5566 11.1385 26.6921 11.1275 26.7815 11.1208C26.9554 11.1076 27.0824 11.1011 27.1308 11.0987C27.2296 11.0938 27.2639 11.0935 27.1922 11.0955C27.0615 11.099 26.8051 11.104 26.396 11.1087C25.5942 11.1178 24.4303 11.1234 22.9691 11.1235L22.9718 46.151C24.4981 46.1509 25.8081 46.1451 26.7957 46.1339C27.2813 46.1283 27.7486 46.1208 28.149 46.1099C28.3429 46.1046 28.5948 46.0965 28.8603 46.0834C28.8705 46.0829 29.7289 46.0502 30.7105 45.9062L25.6255 11.2498ZM22.9688 11.1235L18.1722 11.124L18.1756 46.1515L22.9721 46.151L22.9688 11.1235ZM35.6876 28.6377V20.2687H0.660156V28.6377H35.6876ZM35.6876 20.2687V11.8997H0.660156V20.2687H35.6876ZM14.1655 28.9486L14.5202 29.032L22.5371 -5.06574L22.1823 -5.14914L14.1655 28.9486ZM14.5211 29.0322C13.6424 28.8256 13.0082 28.5944 12.7139 28.4816C12.3677 28.3489 12.0869 28.2231 11.8626 28.1146C11.6384 28.0061 11.3645 27.8636 11.0441 27.6736C10.7724 27.5124 10.1928 27.1559 9.4803 26.59L31.2634 -0.840276C29.6256 -2.14087 28.0167 -2.98153 27.117 -3.41677C26.2145 -3.85342 24.5629 -4.58955 22.5362 -5.06594L14.5211 29.0322ZM9.48115 26.5907C8.19639 25.5705 7.27163 24.4061 6.62502 23.2485C5.98198 22.0974 5.42468 20.6124 5.23193 18.8037L40.0622 15.092C39.3842 8.73002 36.0537 2.96332 31.2626 -0.840952L9.48115 26.5907ZM5.23175 18.802C5.39395 20.3254 5.88585 23.5996 8.03538 27.0226C10.474 30.9058 13.8094 33.078 16.4998 34.2287L30.274 2.02318C32.4947 2.97298 35.4953 4.88553 37.6989 8.39466C39.6135 11.4435 39.9703 14.229 40.0624 15.0936L5.23175 18.802ZM16.4994 34.2286C23.2131 37.1001 32.0103 36.0092 37.8146 29.6176L11.884 6.06925C14.7278 2.93776 18.1456 1.5284 20.854 1.00518C23.6088 0.472978 26.9304 0.593086 30.2743 2.02333L16.4994 34.2286ZM37.8134 29.6189C39.4538 27.813 41.2302 25.1536 42.1096 21.563C42.8225 18.652 42.6479 16.2137 42.5894 15.4265L7.65805 18.0192C7.643 17.8164 7.45885 15.7978 8.08755 13.2307C8.88268 9.98403 10.5002 7.59274 11.8851 6.06797L37.8134 29.6189ZM42.5894 15.4261C42.1614 9.66141 39.4852 4.15834 36.0222 0.349657L10.106 23.9139C9.2095 22.928 8.74534 22.0717 8.48509 21.4916C8.248 20.9631 7.79041 19.802 7.65808 18.0196L42.5894 15.4261ZM36.0224 0.349837L35.7495 0.0497295L9.83298 23.6136L10.1058 23.9138L36.0224 0.349837ZM22.7889 29.3454L25.3076 29.3458L25.3124 -5.6817L22.7936 -5.68205L22.7889 29.3454ZM25.3078 29.3458C25.6025 29.3458 25.8918 29.3472 26.1599 29.3496C26.4295 29.352 26.6662 29.3554 26.8568 29.3591C26.9516 29.3609 27.0283 29.3627 27.0871 29.3643C27.1481 29.3659 27.1756 29.367 27.175 29.3669C27.1737 29.3669 27.1574 29.3662 27.1286 29.3649C27.1017 29.3636 27.0468 29.3608 26.9713 29.356C26.9325 29.3536 26.882 29.3502 26.8219 29.3458C26.7628 29.3414 26.6843 29.3353 26.5909 29.327C26.4999 29.3189 26.3727 29.3067 26.2197 29.2896C26.1418 29.2808 26.0492 29.2699 25.9447 29.2564C25.8412 29.243 25.7147 29.2258 25.5704 29.2039L30.8205 -5.42789C29.9618 -5.55807 29.2393 -5.59801 29.1694 -5.6024C28.9187 -5.61816 28.6933 -5.62799 28.5336 -5.63418C28.2042 -5.64697 27.8554 -5.65564 27.5363 -5.66183C26.8829 -5.67451 26.0979 -5.68161 25.3122 -5.6817L25.3078 29.3458ZM25.5681 29.2035C21.367 28.5661 17.5335 26.1793 15.1225 22.3671L44.7263 3.64441C41.5789 -1.33208 36.4148 -4.57905 30.8228 -5.42755L25.5681 29.2035ZM15.1222 22.3667C15.0469 22.2477 14.7361 21.756 14.3927 21.0749C14.0166 20.3289 13.6722 19.5012 13.3921 18.6022C12.8731 16.9362 12.7731 15.6371 12.7523 15.3655C12.7296 15.0694 12.7381 14.9957 12.7443 15.4869C12.7497 15.9177 12.7514 16.5259 12.7521 17.4747L47.7796 17.4498C47.7785 15.9579 47.7864 14.1126 47.6773 12.6892C47.6117 11.8329 47.447 10.1503 46.8341 8.18325C46.1244 5.90516 45.142 4.30184 44.7265 3.64481L15.1222 22.3667ZM50.2321 16.9002C50.2221 15.2296 50.2168 13.8663 50.1809 12.9628C50.1627 12.5038 50.115 11.3932 49.8835 10.0806C49.5873 8.40177 49.1163 7.13672 49.0468 6.94196L16.0596 18.7221C16.0999 18.835 15.9595 18.4532 15.8205 17.9884C15.6496 17.4167 15.5015 16.8054 15.3886 16.1657C15.285 15.5784 15.2362 15.1081 15.2123 14.8288C15.1891 14.5579 15.182 14.3765 15.181 14.3505C15.1801 14.3293 15.1851 14.468 15.1905 14.9983C15.1955 15.4899 15.1995 16.1534 15.2052 17.1097L50.2321 16.9002ZM49.0465 6.94108C46.5098 -0.160823 40.8688 -5.03685 34.2887 -7.04096L24.0832 26.4668C22.6156 26.0199 20.9319 25.1722 19.3805 23.7352C17.8115 22.2818 16.703 20.5235 16.0599 18.723L49.0465 6.94108ZM34.288 -7.04116C30.7333 -8.12368 27.0636 -7.94502 25.8944 -7.95349L25.6405 27.0731C26.3837 27.0785 26.8856 27.0823 27.2544 27.0869C27.6571 27.092 27.7129 27.096 27.6291 27.0923C27.559 27.0892 26.8993 27.0624 26.002 26.9127C25.5133 26.8312 25.0636 26.7322 24.664 26.6292C24.4803 26.5818 24.332 26.5399 24.2351 26.5118C24.1868 26.4979 24.1484 26.4864 24.1241 26.4792C24.1004 26.4721 24.0846 26.4673 24.0838 26.467L34.288 -7.04116ZM25.8945 -7.95349L22.9079 -7.97515L22.6538 27.0514L25.6404 27.0731L25.8945 -7.95349ZM30.162 25.4205L30.756 25.1444L15.9938 -6.62035L15.3997 -6.34425L30.162 25.4205ZM30.7558 25.1445C32.793 24.1978 35.5091 22.6704 38.0548 19.7765L11.755 -3.35889C12.4179 -4.11247 13.2895 -4.92925 14.3527 -5.66114C15.2571 -6.28376 15.9551 -6.60236 15.994 -6.62048L30.7558 25.1445ZM38.0548 19.7764C43.7009 13.358 45.262 3.78503 40.8909 -4.36403L10.0237 12.1932C7.12632 6.79171 8.24906 0.626603 11.7549 -3.35881L38.0548 19.7764ZM40.8909 -4.36394C36.7173 -12.1448 28.6125 -16.2308 20.4714 -15.8187L22.242 19.164C17.6156 19.3981 12.6037 17.0032 10.0236 12.1931L40.8909 -4.36394ZM20.4708 -15.8187C15.0336 -15.5433 9.41449 -13.2851 5.22712 -8.5938L31.3591 14.731C28.6916 17.7194 25.1855 19.0149 22.2426 19.1639L20.4708 -15.8187ZM5.22693 -8.59358C3.63718 -6.81246 2.60067 -4.89794 2.37636 -4.49221C1.91682 -3.66096 1.33804 -2.5209 0.841723 -1.26926L33.4027 11.6421C33.2758 11.9623 33.1789 12.1651 33.1457 12.2336C33.1043 12.3191 33.0686 12.3873 33.0312 12.455C33.0007 12.5101 32.9133 12.6663 32.7608 12.9035C32.6831 13.0246 32.5492 13.228 32.3636 13.4848C32.2019 13.7085 31.8585 14.1714 31.3592 14.7308L5.22693 -8.59358ZM0.841203 -1.26794C0.862429 -1.32149 0.927136 -1.48359 1.04401 -1.73855C1.0809 -1.81901 1.25224 -2.19415 1.51583 -2.67989C1.60946 -2.85245 1.97292 -3.52372 2.53575 -4.32902C2.77187 -4.66685 3.46593 -5.64695 4.55503 -6.72651C5.09305 -7.25981 6.173 -8.26726 7.75287 -9.23224C9.13874 -10.0787 12.5071 -11.8862 17.2158 -11.7959L16.5444 23.2252C21.2542 23.3154 24.6238 21.5076 26.0112 20.6602C27.5925 19.6943 28.6741 18.6855 29.2139 18.1504C30.3067 17.0673 31.005 16.0818 31.246 15.737C31.8187 14.9176 32.1945 14.2255 32.3027 14.0262C32.5953 13.4869 32.8045 13.0342 32.8852 12.858C33.0899 12.4116 33.2667 11.9852 33.4033 11.6408L0.841203 -1.26794ZM17.1589 -11.7969C21.7331 -11.7241 24.9557 -9.90086 26.2473 -9.08302C27.7466 -8.1337 28.7744 -7.16002 29.2899 -6.64198C30.3331 -5.59367 31.0018 -4.64818 31.2328 -4.3171C31.7797 -3.53325 32.1346 -2.8813 32.2273 -2.71122C32.4861 -2.23661 32.6547 -1.87066 32.6911 -1.79204C32.8059 -1.54367 32.8692 -1.38694 32.8894 -1.33657L0.381656 11.7083C0.518467 12.0492 0.695038 12.4702 0.898531 12.9103C0.979203 13.0847 1.186 13.5284 1.4741 14.0567C1.58149 14.2537 1.94882 14.9265 2.50559 15.7246C2.74152 16.0628 3.41455 17.0137 4.4614 18.0657C4.97873 18.5855 6.0082 19.5606 7.50895 20.5109C8.80206 21.3296 12.0259 23.1533 16.6013 23.2262L17.1589 -11.7969ZM32.8897 -1.33586C32.2973 -2.81234 31.0688 -5.49302 29.171 -7.84016L1.93309 14.183C1.42417 13.5536 1.10371 13.0544 0.979797 12.8571C0.826506 12.613 0.726057 12.4322 0.671655 12.331C0.574316 12.1501 0.48436 11.9643 0.381371 11.7076L32.8897 -1.33586ZM29.1701 -7.84129C23.6137 -14.7121 14.6771 -17.1049 7.01774 -15.2463L15.2781 18.7933C12.7074 19.4171 10.2986 19.2077 8.28549 18.5687C6.29758 17.9377 3.91326 16.6316 1.93401 14.1842L29.1701 -7.84129ZM6.56645 20.4345C6.00092 20.2166 3.49392 19.241 1.07973 16.8354C0.0170138 15.7765 -0.680052 14.7894 -1.07375 14.1774C-1.43412 13.6172 -1.64815 13.1982 -1.64894 13.1967L29.4234 -2.97228C29.2297 -3.34456 28.0527 -5.73587 25.8036 -7.97699C23.0939 -10.677 20.2472 -11.8318 19.1602 -12.2507L6.56645 20.4345ZM-1.64886 13.1968C-1.96711 12.5852 -1.949 12.5276 -1.6928 13.2058C-1.61041 13.4239 -1.6041 13.4549 -1.64934 13.3142C-1.65282 13.3034 -1.78762 12.8942 -1.92883 12.2987C-1.97974 12.0841 -2.18445 11.2254 -2.29812 10.0861C-2.34884 9.57787 -2.46453 8.26165 -2.29249 6.58569C-2.20467 5.73014 -1.99431 4.27817 -1.39226 2.56775C-0.813938 0.924773 0.454395 -1.89489 3.22118 -4.45857L27.0283 21.2347C32.0499 16.5818 32.4851 10.8131 32.5519 10.1625C32.7253 8.47288 32.6092 7.13865 32.5563 6.6083C32.4382 5.42486 32.222 4.50571 32.1534 4.21621C31.9767 3.47104 31.7811 2.85467 31.6975 2.59464C31.4921 1.95549 31.2606 1.32003 31.0745 0.827214C30.7936 0.0835817 30.1513 -1.57344 29.4233 -2.97244L-1.64886 13.1968ZM3.19354 -4.4329C6.66028 -7.65906 10.3895 -8.5062 11.4209 -8.72931C12.9114 -9.05173 14.1187 -9.10587 14.6981 -9.11988C15.9012 -9.14898 16.8364 -9.04344 17.1469 -9.00717C17.8992 -8.91929 18.476 -8.79999 18.6172 -8.77098C19.0205 -8.68809 19.3193 -8.61055 19.3601 -8.60005C19.5202 -8.55897 19.597 -8.53594 19.5227 -8.5572C19.4177 -8.58727 19.1925 -8.65392 18.8943 -8.74612L8.54815 24.7185C9.00763 24.8606 9.47705 25.0015 9.88082 25.1171C10.061 25.1687 10.3457 25.2491 10.6518 25.3277C10.7658 25.3569 11.1222 25.4482 11.5657 25.5394C11.727 25.5725 12.3195 25.6946 13.0831 25.7838C13.3992 25.8207 14.3388 25.9265 15.5451 25.8973C16.1263 25.8833 17.3348 25.829 18.8264 25.5064C19.8589 25.283 23.5888 24.4356 27.056 21.209L3.19354 -4.4329ZM18.8937 -8.74629C18.4493 -8.88369 18.3184 -8.94184 18.446 -8.88988C18.4985 -8.86849 18.8231 -8.73659 19.3 -8.48874C19.5436 -8.3621 19.954 -8.13967 20.4553 -7.81872C20.8946 -7.53742 21.7887 -6.93756 22.797 -5.99982L-1.05779 19.6492C0.812325 21.3885 2.67192 22.345 3.1464 22.5916C3.95029 23.0094 4.68937 23.3285 5.23242 23.5497C6.34099 24.0012 7.49533 24.3931 8.54867 24.7187L18.8937 -8.74629ZM22.797 -5.9998C24.7274 -4.20448 25.9213 -2.22825 26.6424 -0.522951C27.3716 1.20177 27.8901 3.29121 27.8901 5.65804H-7.13741C-7.13741 10.6723 -5.11655 15.8743 -1.0578 19.6492L22.797 -5.9998ZM27.8901 5.65804C27.8901 18.3673 15.3212 23.808 6.56607 20.4344L19.1606 -12.2505C8.05264 -16.5307 -7.13741 -9.43935 -7.13741 5.65804H27.8901ZM18.565 21.1911C11.213 19.743 4.09689 12.2052 6.2467 2.27941L40.4804 9.69405C43.018 -2.02218 34.6259 -11.3459 25.3341 -13.1761L18.565 21.1911ZM6.2465 2.28031C6.50708 1.07693 6.99806 -0.488717 7.93992 -2.16138C8.90048 -3.86723 10.0878 -5.25431 11.3136 -6.33594C12.4728 -7.3588 13.5338 -7.99175 14.1915 -8.34217C14.8402 -8.68782 15.3202 -8.87561 15.4514 -8.92608L28.0268 23.7662C29.0889 23.3576 31.8383 22.2674 34.4887 19.9288C37.8609 16.9534 39.7127 13.2393 40.4806 9.69316L6.2465 2.28031ZM15.4522 -8.92636C15.5809 -8.97587 15.2718 -8.86262 14.7041 -8.68725C14.4648 -8.61332 14.3689 -8.58722 14.412 -8.59894C14.4326 -8.60456 14.4901 -8.6201 14.5756 -8.64163C14.649 -8.66014 14.8202 -8.70267 15.0523 -8.75264C15.1871 -8.78165 15.7892 -8.91253 16.5867 -9.00758C16.9205 -9.04737 17.9045 -9.15985 19.1727 -9.12101C19.7915 -9.10206 21.0311 -9.03477 22.554 -8.68461C23.7162 -8.41737 27.2274 -7.52387 30.5289 -4.46469L6.72177 21.2286C10.025 24.2893 13.5389 25.184 14.7048 25.4521C16.2315 25.8031 17.4759 25.8709 18.1004 25.89C19.38 25.9292 20.3795 25.8158 20.7324 25.7737C21.5682 25.6741 22.2236 25.5335 22.4249 25.4901C22.9548 25.3761 23.4054 25.255 23.6105 25.1992C24.1053 25.0645 24.6201 24.9102 25.0429 24.7797C25.7993 24.546 27.0202 24.1533 28.0261 23.7665L15.4522 -8.92636ZM30.5208 -4.47227C32.8088 -2.35485 34.0522 -0.0780505 34.7164 1.46823C35.3897 3.03568 35.7041 4.40175 35.8637 5.29368C36.172 7.01695 36.1476 8.39834 36.1258 9.00319C36.0792 10.2936 35.8949 11.2841 35.8401 11.5764C35.6996 12.3257 35.5401 12.8877 35.5096 12.9966C35.4518 13.2026 35.4051 13.352 35.3866 13.4107C35.3645 13.4807 35.3498 13.5248 35.3464 13.5352C35.3441 13.5419 35.387 13.4163 35.477 13.1726C35.7564 12.4151 35.7855 12.4118 35.54 12.9287L3.90016 -2.09943C3.36449 -0.97164 2.82207 0.486348 2.61464 1.04859C2.46111 1.46473 2.28174 1.96363 2.1241 2.43543C2.05862 2.63142 1.92024 3.0499 1.78368 3.53674C1.73387 3.71433 1.56076 4.33113 1.41291 5.11948C1.35442 5.43131 1.1681 6.43743 1.12109 7.73926C1.09905 8.34981 1.07481 9.73586 1.38377 11.4627C1.58621 12.5942 2.4623 17.2868 6.72996 21.2361L30.5208 -4.47227ZM35.5397 12.9292C35.5076 12.997 34.6162 14.9995 32.5247 17.018C29.878 19.5721 26.9351 20.6752 24.9159 21.1161L17.4449 -13.1054C14.7494 -12.5169 11.2978 -11.1754 8.20083 -8.18671C5.65892 -5.73363 4.37559 -3.1003 3.90042 -2.09996L35.5397 12.9292ZM24.9147 21.1163C24.8971 21.1202 24.8002 21.1413 24.6633 21.1682C24.5236 21.1956 24.2919 21.239 23.9994 21.2831C23.3607 21.3795 22.5059 21.469 21.4981 21.4662C20.5192 21.4634 19.7301 21.374 19.2395 21.3038C19.0057 21.2704 18.8247 21.239 18.7269 21.2214C18.6752 21.2121 18.6349 21.2045 18.6103 21.1999C18.5856 21.1952 18.57 21.1921 18.5676 21.1916L25.3314 -13.1766C25.2749 -13.1877 23.6104 -13.5554 21.5979 -13.5612C19.398 -13.5674 17.6457 -13.1492 17.4461 -13.1057L24.9147 21.1163ZM-2.49047 0.460373C-5.62818 3.95387 -7.54709 8.11837 -8.55298 11.8767L25.2836 20.9328C25.1912 21.278 25.0573 21.6424 24.8503 22.0462C24.6568 22.4238 24.2735 23.0818 23.5691 23.866L-2.49047 0.460373ZM-8.55304 11.877C-9.03462 13.6764 -9.36975 15.5683 -9.53062 17.3349C-9.60986 18.205 -9.67776 19.3745 -9.62162 20.6789C-9.598 21.2275 -9.52115 24.679 -7.6886 28.3579L23.6644 12.7403C24.6829 14.7849 25.0324 16.5297 25.1588 17.2445C25.3128 18.1154 25.3574 18.7985 25.3734 19.1724C25.4055 19.9175 25.3625 20.4013 25.3525 20.5114C25.3301 20.7579 25.3105 20.8323 25.2836 20.9326L-8.55304 11.877ZM-7.68864 28.3578C-4.43615 34.8874 1.62959 37.9155 6.72678 38.566C11.8324 39.2176 18.2758 37.8017 23.0123 32.586L-2.91848 9.03775C1.25153 4.44585 6.85055 3.27025 11.1609 3.82032C15.4628 4.36931 20.7823 6.95412 23.6645 12.7404L-7.68864 28.3578ZM23.0121 32.5862C25.1548 30.2268 26.6348 27.4002 27.3554 24.2372C27.7243 22.6181 27.8467 20.9668 27.8686 20.7235L-7.01691 17.5737C-7.0429 17.8615 -7.04761 17.8897 -7.03888 17.8165C-7.03564 17.7894 -6.97287 17.2287 -6.79688 16.4562C-6.60073 15.5953 -6.19836 14.162 -5.34609 12.5264C-4.45837 10.8229 -3.46883 9.64377 -2.91829 9.03754L23.0121 32.5862ZM27.8686 20.7238C27.8639 20.7761 27.7223 22.283 26.4206 24.1572L-2.34844 4.17555C-5.43307 8.61673 -6.64251 13.4279 -7.01689 17.5734L27.8686 20.7238ZM26.4201 24.1579C25.9211 24.8763 25.4883 25.3624 25.2712 25.5969C25.0223 25.8658 24.801 26.0783 24.6103 26.2495C24.4218 26.4187 24.1684 26.6327 23.8362 26.8778C23.5607 27.0811 22.9184 27.5392 21.9742 28.0284L5.8601 -3.07243C3.68603 -1.94599 2.05302 -0.571532 1.21281 0.182634C0.311419 0.991714 -1.08628 2.35851 -2.34794 4.17483L26.4201 24.1579ZM21.9759 28.0275C21.5693 28.2382 21.25 28.3783 21.0614 28.4575C20.8573 28.5431 20.6789 28.6106 20.5224 28.6657C20.3669 28.7205 20.1754 28.7833 19.9429 28.8498C19.7327 28.91 19.3467 29.014 18.8272 29.1144L12.1842 -5.27743C9.98571 -4.85277 7.69664 -4.02424 5.85837 -3.07153L21.9759 28.0275ZM18.8249 29.1148L19.0254 29.0761L12.387 -5.31657L12.1865 -5.27787L18.8249 29.1148ZM-1.80753 11.8798V20.2588H33.2199V11.8798H-1.80753ZM-1.80753 20.2588V28.6377H33.2199V20.2588H-1.80753ZM15.7079 11.124L10.9113 11.1235L10.908 46.151L15.7045 46.1515L15.7079 11.124ZM10.911 11.1235C9.44982 11.1234 8.28592 11.1178 7.4841 11.1087C7.07498 11.104 6.81859 11.099 6.68786 11.0955C6.61618 11.0935 6.65053 11.0938 6.74935 11.0987C6.79771 11.1011 6.9247 11.1076 7.09863 11.1208C7.18802 11.1275 7.32349 11.1385 7.49029 11.1553C7.64307 11.1706 7.91466 11.1999 8.25459 11.2498L3.16961 45.9062C4.15116 46.0502 5.00963 46.0829 5.01985 46.0834C5.28535 46.0965 5.53717 46.1046 5.73107 46.1099C6.13151 46.1208 6.59876 46.1283 7.08438 46.1339C8.07204 46.1451 9.38205 46.1509 10.9083 46.151L10.911 11.1235ZM8.25555 11.2499C12.2966 11.8431 16.2558 14.1465 18.7576 18.1023L-10.8462 36.825C-7.59246 41.9697 -2.33206 45.0986 3.16865 45.9061L8.25555 11.2499ZM18.7578 18.1026C18.6942 18.002 18.7866 18.1467 18.8792 18.2997C18.9955 18.4919 19.1975 18.8347 19.4257 19.2797C19.9421 20.2861 20.3632 21.364 20.6661 22.4848C20.9365 23.4853 21.0473 24.282 21.0949 24.6906C21.1202 24.908 21.1342 25.0758 21.1417 25.1761C21.1492 25.2776 21.1523 25.3406 21.1528 25.3523C21.1534 25.3645 21.1494 25.2788 21.1451 25.0335C21.141 24.7968 21.1376 24.4762 21.1352 24.0355C21.1304 23.1433 21.1305 21.9414 21.1305 20.2347H-13.897C-13.897 23.2925 -13.9033 25.5631 -13.8362 26.9931C-13.8071 27.6136 -13.7254 29.4877 -13.1484 31.6226C-12.3464 34.5905 -10.9602 36.6447 -10.8464 36.8247L18.7578 18.1026ZM21.1305 20.2347C21.1305 18.528 21.1304 17.3261 21.1352 16.4339C21.1376 15.9933 21.141 15.6726 21.1451 15.4359C21.1494 15.1906 21.1534 15.1049 21.1528 15.1171C21.1523 15.1288 21.1492 15.1918 21.1417 15.2933C21.1342 15.3936 21.1202 15.5614 21.0949 15.7788C21.0473 16.1874 20.9365 16.9842 20.6661 17.9846C20.3632 19.1054 19.9421 20.1833 19.4257 21.1897C19.1975 21.6347 18.9955 21.9776 18.8792 22.1697C18.7866 22.3227 18.6942 22.4675 18.7578 22.3668L-10.8464 3.64471C-10.9602 3.82466 -12.3464 5.87891 -13.1484 8.84678C-13.7254 10.9817 -13.8071 12.8558 -13.8362 13.4763C-13.9033 14.9063 -13.897 17.1769 -13.897 20.2347H21.1305ZM18.7577 22.367C17.4274 24.4704 15.8205 25.904 14.3943 26.8537C12.9833 27.7932 10.9541 28.7879 8.31935 29.1975L2.93828 -5.41418C-2.86352 -4.51218 -7.88684 -1.0349 -10.8463 3.64458L18.7577 22.367ZM8.32236 29.197C8.14839 29.2241 7.99831 29.2447 7.88028 29.26C7.76065 29.2754 7.65589 29.2877 7.57007 29.2971C7.40219 29.3157 7.26411 29.3284 7.16976 29.3365C7.07201 29.3448 6.9905 29.3509 6.93072 29.3551C6.86975 29.3594 6.81874 29.3626 6.78025 29.3649C6.7055 29.3694 6.65142 29.372 6.62609 29.3731C6.59859 29.3744 6.58323 29.3749 6.58283 29.3749C6.58171 29.375 6.58882 29.3747 6.60525 29.3742C6.62139 29.3737 6.64364 29.3731 6.67242 29.3723C6.73069 29.3708 6.80636 29.3691 6.89956 29.3673C7.08688 29.3637 7.31958 29.3602 7.58521 29.3575C7.84941 29.3548 8.13601 29.3529 8.42997 29.3521L8.33504 -5.67524C7.58207 -5.6732 6.83608 -5.66551 6.2227 -5.65366C5.92383 -5.64788 5.59846 -5.64003 5.29448 -5.62884C5.14872 -5.62347 4.93551 -5.61475 4.69777 -5.60059C4.57976 -5.59356 4.39501 -5.58165 4.17429 -5.5627C4.02266 -5.54969 3.53989 -5.50782 2.93527 -5.41372L8.32236 29.197ZM8.43062 29.3521L10.8852 29.3454L10.7889 -5.68198L8.33438 -5.67524L8.43062 29.3521ZM-2.19281 0.128961L-2.49054 0.460451L23.5692 23.8659L23.8669 23.5344L-2.19281 0.128961ZM12.7539 17.7096C12.7713 18.9436 12.7904 20.8584 12.7914 22.5655C12.7919 23.4251 12.7877 24.169 12.7785 24.7218C12.7739 25.0011 12.7689 25.171 12.7658 25.2507C12.7585 25.4399 12.7639 25.126 12.82 24.612L47.6407 28.4122C47.8303 26.6756 47.8196 23.8166 47.8189 22.5452C47.8178 20.6361 47.7968 18.556 47.7778 17.2149L12.7539 17.7096ZM15.2132 17.5434C15.2519 18.8032 15.2981 20.7709 15.3109 22.5257C15.3174 23.4118 15.3145 24.1422 15.3033 24.6581C15.3007 24.7797 15.2979 24.8744 15.2954 24.9443C15.2929 25.0162 15.2912 25.0448 15.2916 25.0371C15.2917 25.0356 15.2963 24.9514 15.3096 24.807C15.3205 24.6893 15.3526 24.3568 15.4263 23.9016L50.0041 29.4961C50.2804 27.7884 50.3102 25.9886 50.3226 25.415C50.3442 24.4191 50.3451 23.3123 50.3375 22.2702C50.3221 20.1686 50.2687 17.9159 50.2241 16.4666L15.2132 17.5434Z" fill="white" fill-opacity="0.35" mask="url(#path-1-inside-1_2029_77421)"/>
<defs>
<linearGradient id="paint0_linear_2029_77421" x1="-3.33244" y1="16.275" x2="35.8348" y2="16.275" gradientUnits="userSpaceOnUse">
<stop stop-color="#365BE0"/>
<stop offset="0.508265" stop-color="#D676CF"/>
<stop offset="1" stop-color="#FFE884"/>
</linearGradient>
</defs>
</svg>
