<svg width="20" height="20" viewBox="0 0 20 20" fill="none" xmlns="http://www.w3.org/2000/svg">
<path fill-rule="evenodd" clip-rule="evenodd" d="M9.12281 0.00812619C6.77 0.247596 4.69527 1.20372 3.037 2.81275C1.45504 4.34766 0.469926 6.22278 0.0939529 8.41458C0.0127528 8.88794 8.18555e-05 9.10192 3.70168e-07 10.0001C-8.11152e-05 10.8817 0.0132417 11.1155 0.088249 11.5487C0.280269 12.6576 0.530836 13.4342 1.01421 14.4182C1.54248 15.4937 2.15402 16.3309 3.037 17.1875C4.55935 18.6642 6.42931 19.5906 8.55241 19.9198C9.24211 20.0267 10.7555 20.0267 11.4451 19.9198C13.572 19.5901 15.4363 18.6665 16.9606 17.1875C17.8437 16.3306 18.4551 15.4936 18.9833 14.4182C19.3466 13.6786 19.5375 13.169 19.7145 12.4657C19.9448 11.551 20 11.0742 20 10.0001C20 8.92605 19.9448 8.44931 19.7145 7.53463C19.5375 6.83129 19.3466 6.32165 18.9833 5.5821C17.9932 3.56626 16.3641 1.95133 14.3379 0.977082C12.9386 0.304237 11.754 0.0269792 10.1821 0.00442072C9.68913 -0.00270515 9.21245 -0.00103564 9.12281 0.00812619ZM11.2211 1.35264C13.1185 1.61935 14.8011 2.46179 16.1713 3.83118C17.5363 5.19543 18.3728 6.86566 18.6591 8.79893C18.748 9.39896 18.748 10.6013 18.6591 11.2014C18.3731 13.1323 17.5347 14.8064 16.1713 16.1691C14.8017 17.5379 13.1415 18.3684 11.2007 18.6555C10.5965 18.7449 9.39579 18.7444 8.79687 18.6546C6.84888 18.3623 5.19151 17.5336 3.82627 16.1691C2.45849 14.8021 1.62779 13.1437 1.33795 11.2014C1.24819 10.6001 1.24819 9.40023 1.33795 8.79893C1.62429 6.88015 2.4501 5.21714 3.78552 3.87014C4.2768 3.37463 4.6212 3.08956 5.17444 2.72048C6.94112 1.54194 9.09731 1.05416 11.2211 1.35264ZM6.64977 6.25727C6.25017 6.32006 5.90687 6.58706 5.71322 6.98566C5.58561 7.24842 5.58415 7.7478 5.71029 8.0049C5.85741 8.30484 6.03089 8.48062 6.32033 8.62302C6.55162 8.73683 6.63295 8.75585 6.87907 8.75356C7.39133 8.74888 7.80931 8.47293 8.02215 7.999C8.12127 7.77822 8.13223 7.71266 8.1159 7.43919C8.069 6.65506 7.42449 6.13548 6.64977 6.25727ZM12.9213 6.25817C12.328 6.34974 11.919 6.81439 11.8817 7.43919C11.8653 7.71266 11.8763 7.77822 11.9754 7.999C12.1882 8.47293 12.6062 8.74888 13.1185 8.75356C13.6244 8.75821 14.0522 8.48421 14.2873 8.0049C14.4174 7.73966 14.4121 7.24899 14.2761 6.96827C14.0274 6.45476 13.4859 6.17099 12.9213 6.25817ZM4.79655 11.2653C4.49493 11.3555 4.29134 11.7218 4.37381 12.0259C4.46356 12.357 5.02007 13.0635 5.53285 13.4972C6.73085 14.5107 8.19889 15.007 9.99878 15.007C11.7987 15.007 13.2667 14.5107 14.4647 13.4972C14.9775 13.0635 15.534 12.357 15.6237 12.0259C15.7355 11.6137 15.3193 11.1601 14.9083 11.2462C14.6855 11.2929 14.5586 11.4015 14.3356 11.7361C13.7296 12.6456 12.6148 13.3474 11.3728 13.6013C10.2907 13.8225 8.97129 13.7576 8.00508 13.4356C7.01197 13.1047 6.16074 12.485 5.65439 11.7245C5.52894 11.5361 5.3773 11.3566 5.31749 11.3256C5.16193 11.2453 4.94697 11.2203 4.79655 11.2653Z" fill="#11D645"/>
</svg>
