<svg width="22" height="16" viewBox="0 0 22 16" fill="none" xmlns="http://www.w3.org/2000/svg">
<path fill-rule="evenodd" clip-rule="evenodd" d="M6.55805 2.76529C3.53421 4.28625 0.917505 5.65136 0.743314 5.79899C0.337951 6.1424 0.147227 6.5188 0.0387757 7.18976C-0.137974 8.283 0.306262 9.74728 1.03068 10.4595C1.29266 10.7169 2.45796 11.3816 4.68594 12.5443C7.92973 14.237 7.95777 14.2544 8.0865 14.6432C8.24711 15.1281 8.80993 15.7093 9.26558 15.8606C9.45395 15.9232 9.84337 15.9548 10.1311 15.9307C10.9619 15.8613 11.6746 15.1956 11.8108 14.3616C11.8632 14.0409 11.9387 13.9719 12.6708 13.5763C13.1122 13.3377 14.682 12.4835 16.1595 11.678L18.8459 10.2136L19.1611 10.4071C19.7854 10.7904 21.0221 10.5981 21.5066 10.0422C22.238 9.20344 22.1437 7.81653 21.3071 7.10792C20.8869 6.75183 20.1569 6.59331 19.6112 6.73945C18.6516 6.99656 18.1084 7.74143 18.1643 8.7231L18.1971 9.29746L14.9002 11.0798L11.6034 12.8621L11.3081 12.579C10.4494 11.7554 9.21411 11.819 8.42179 12.7276L8.09575 13.1013L7.0448 12.5509C3.06153 10.4648 2.02436 9.89432 1.77606 9.65266C1.24453 9.13537 0.941616 8.04352 1.11846 7.2823C1.22623 6.81851 1.6435 6.40456 1.91571 6.49155C2.01658 6.52385 3.24123 7.15389 4.63702 7.89183C9.46723 10.4454 9.46162 10.4427 9.86856 10.3175C10.0649 10.257 12.6835 8.92106 15.6875 7.34868C20.9679 4.58478 21.1494 4.48025 21.1494 4.20659C21.1494 3.93393 21.0617 3.88191 18.7875 2.8077C17.4885 2.1941 15.6474 1.31131 14.6962 0.846035C13.2872 0.156743 12.8824 0 12.5114 0C12.112 0 11.3797 0.340138 6.55805 2.76529ZM20.5634 8.16955C20.8585 8.46659 20.8689 8.70953 20.601 9.05234C20.0906 9.70557 19.096 9.06334 19.475 8.3253C19.7144 7.85933 20.188 7.79156 20.5634 8.16955ZM10.3107 13.482C10.9576 13.9942 10.3221 14.9974 9.59163 14.6171C9.12318 14.3733 9.05527 13.9009 9.43387 13.5198C9.72891 13.2227 9.97022 13.2123 10.3107 13.482Z" fill="#9CA3AF"/>
</svg>
