<svg width="19" height="18" viewBox="0 0 19 18" fill="none" xmlns="http://www.w3.org/2000/svg">
<path d="M10.304 8.99835L12.734 6.56835C12.8159 6.4727 12.8587 6.34966 12.8538 6.22383C12.849 6.09799 12.7968 5.97862 12.7078 5.88957C12.6187 5.80052 12.4994 5.74836 12.3735 5.7435C12.2477 5.73864 12.1246 5.78144 12.029 5.86335L9.59899 8.26835L7.15399 5.82335C7.05834 5.74144 6.9353 5.69864 6.80946 5.7035C6.68363 5.70836 6.56426 5.76052 6.47521 5.84957C6.38616 5.93862 6.334 6.05799 6.32914 6.18383C6.32427 6.30966 6.36708 6.4327 6.44899 6.52835L8.88899 8.99835L6.49899 11.3584C6.44665 11.4032 6.40414 11.4583 6.37413 11.5204C6.34412 11.5824 6.32725 11.65 6.32459 11.7188C6.32193 11.7877 6.33353 11.8564 6.35867 11.9205C6.38381 11.9847 6.42194 12.043 6.47067 12.0917C6.51939 12.1404 6.57767 12.1785 6.64183 12.2037C6.70599 12.2288 6.77466 12.2404 6.84352 12.2378C6.91238 12.2351 6.97994 12.2182 7.04198 12.1882C7.10401 12.1582 7.15917 12.1157 7.20399 12.0634L9.58899 9.67835L11.959 12.0484C12.0546 12.1303 12.1777 12.1731 12.3035 12.1682C12.4294 12.1633 12.5487 12.1112 12.6378 12.0221C12.7268 11.9331 12.779 11.8137 12.7838 11.6879C12.7887 11.562 12.7459 11.439 12.664 11.3434L10.304 8.99835Z" fill="#CB00DD"/>
<path d="M9.5 17C7.91775 17 6.37103 16.5308 5.05544 15.6518C3.73985 14.7727 2.71447 13.5233 2.10897 12.0615C1.50347 10.5997 1.34504 8.99113 1.65372 7.43928C1.9624 5.88743 2.72433 4.46197 3.84315 3.34315C4.96197 2.22433 6.38743 1.4624 7.93928 1.15372C9.49113 0.84504 11.0997 1.00347 12.5615 1.60897C14.0233 2.21447 15.2727 3.23985 16.1518 4.55544C17.0308 5.87103 17.5 7.41775 17.5 9C17.5 11.1217 16.6571 13.1566 15.1569 14.6569C13.6566 16.1571 11.6217 17 9.5 17ZM9.5 2C8.11553 2 6.76216 2.41055 5.61101 3.17972C4.45987 3.94889 3.56266 5.04214 3.03285 6.32122C2.50303 7.6003 2.36441 9.00777 2.63451 10.3656C2.9046 11.7235 3.57129 12.9708 4.55026 13.9498C5.52922 14.9287 6.7765 15.5954 8.13437 15.8655C9.49224 16.1356 10.8997 15.997 12.1788 15.4672C13.4579 14.9373 14.5511 14.0401 15.3203 12.889C16.0895 11.7379 16.5 10.3845 16.5 9C16.5 7.14349 15.7625 5.36301 14.4498 4.05026C13.137 2.7375 11.3565 2 9.5 2Z" fill="#CB00DD"/>
</svg>
