<svg width="18" height="18" viewBox="0 0 18 18" fill="none" xmlns="http://www.w3.org/2000/svg">
<path fill-rule="evenodd" clip-rule="evenodd" d="M7.60382 1.62122C6.15928 1.947 4.7955 2.82711 3.90103 4.01094C3.17915 4.96634 2.83709 5.84879 2.61487 7.32933L2.54385 7.80269H1.9892C0.701364 7.80269 -0.216074 8.85521 0.0443393 10.034C0.153769 10.5295 0.504025 11.1314 1.12006 11.3012C1.34507 11.3633 2.20773 11.4771 2.79956 11.4775L3.8756 11.4782L4.273 12.0629L4.67039 12.6476L3.25397 14.0684C2.0703 15.2555 1.85704 15.5198 1.9565 15.6766C2.02202 15.7799 2.13817 15.885 2.21478 15.9104C2.29128 15.9358 3.04598 15.2747 3.89173 14.4414L5.42956 12.9261H7.02072H8.61187V14.3621C8.61187 15.5854 8.63886 15.8083 8.7941 15.8675C9.19631 16.021 9.2839 15.7417 9.2839 14.3047V12.9261H10.8751H12.4662L14.004 14.4414C14.8498 15.2747 15.6045 15.9358 15.681 15.9104C15.7576 15.885 15.8737 15.7799 15.9393 15.6766C16.0387 15.5198 15.8254 15.2556 14.6406 14.0684L13.2229 12.6476L13.6064 12.0907L13.9898 11.5338L15.3162 11.4764C16.5611 11.4223 16.8526 11.3791 17.2489 11.0785C17.7945 10.6646 17.9562 9.93045 17.8532 9.37846C17.667 8.37873 16.9312 7.80269 15.8407 7.80269H15.2202V7.25749C15.2202 6.15708 14.6163 4.73256 13.6685 3.59706C13.1086 2.92624 11.7802 2.06451 10.8751 1.78506C9.88403 1.479 8.53436 1.41139 7.60382 1.62122ZM10.869 2.55379C12.6074 3.22584 13.9196 4.67019 14.3767 6.41514C14.471 6.77523 14.5482 7.23477 14.5482 7.43625C14.5482 7.78075 14.5247 7.80269 14.1561 7.80269C13.7869 7.80269 13.7641 7.78119 13.7641 7.43314C13.7641 6.9884 13.4829 6.00873 13.1923 5.44148C12.6062 4.29719 11.0021 3.20769 9.61656 3.013C8.85447 2.90585 8.61187 2.98705 8.61187 3.34925C8.61187 3.58648 8.82714 3.68082 9.37709 3.68438C9.603 3.68583 10.0695 3.80222 10.4138 3.943C11.8657 4.53698 12.7889 5.72817 13.0381 7.32933L13.1118 7.80269H8.2297H3.34761V7.43625C3.34761 6.86199 3.65741 5.82228 4.04282 5.10323C4.71777 3.84388 5.8376 2.94951 7.37981 2.43796C8.24023 2.15261 9.98035 2.2103 10.869 2.55379ZM16.3782 8.57554C17.4729 8.90662 17.4729 10.5773 16.3782 10.7443C15.2836 10.9114 8.91047 10.6985 8.91047 10.6985C8.91047 10.6985 2.18411 10.8557 1.34407 10.633C0.504025 10.4102 0.448022 8.98293 1.44351 8.59436C1.81246 8.45035 15.2836 8.24446 16.3782 8.57554ZM4.17522 9.40987C4.06366 9.69889 4.21991 9.93769 4.49522 9.89882C4.68025 9.87264 4.74768 9.78889 4.74768 9.58473C4.74768 9.38057 4.68025 9.29682 4.49522 9.27065C4.34367 9.24926 4.21565 9.30495 4.17522 9.40987ZM7.17484 9.44551C7.02744 9.73063 7.13631 9.91886 7.44869 9.91886C7.77059 9.91886 7.91161 9.65234 7.71459 9.41622C7.52956 9.19446 7.29827 9.20694 7.17484 9.44551ZM10.1851 9.41143C9.98069 9.65646 10.1248 9.91886 10.4639 9.91886C10.715 9.91886 10.7501 9.8771 10.7194 9.61358C10.6789 9.26452 10.3968 9.15782 10.1851 9.41143ZM13.1326 9.41766C13.0971 9.50955 13.0985 9.66347 13.1357 9.75959C13.2281 9.99928 13.6952 9.91831 13.746 9.65378C13.8134 9.30239 13.2594 9.0891 13.1326 9.41766ZM6.37176 11.868V12.2578H5.81934C5.3375 12.2578 5.23736 12.2165 5.03531 11.9344C4.90796 11.7564 4.80368 11.581 4.80368 11.5445C4.80368 11.508 5.1565 11.4782 5.58772 11.4782H6.37176V11.868ZM8.61187 11.868V12.2578H7.82783H7.04379V11.868V11.4782H7.82783H8.61187V11.868ZM10.852 11.868V12.2578H10.0679H9.2839V11.868V11.4782H10.0679H10.852V11.868ZM13.0921 11.5445C13.0921 11.581 12.9878 11.7564 12.8605 11.9344C12.6584 12.2165 12.5583 12.2578 12.0764 12.2578H11.524V11.868V11.4782H12.308C12.7393 11.4782 13.0921 11.508 13.0921 11.5445Z" fill="#5452FC"/>
</svg>
