<svg width="45" height="65" viewBox="0 0 45 65" fill="none" xmlns="http://www.w3.org/2000/svg">
<path d="M29.1243 17.3479C25.2958 20.2739 26.9108 24.9384 30.3688 25.5939C30.5683 25.2994 30.7773 25.0144 30.9863 24.7294C31.2428 24.3874 31.4993 24.0644 31.7558 23.7509C32.0218 23.0479 32.1263 22.3259 32.1548 21.6799C32.1928 20.7869 32.0978 20.0079 31.9838 19.3809C31.7558 18.1269 31.4803 17.4714 31.4898 17.4714C31.4803 17.4714 31.8413 18.1079 32.1928 19.3619C32.3638 19.9889 32.5253 20.7774 32.5538 21.7179C32.5633 22.0789 32.5443 22.4779 32.4873 22.8864C33.2188 22.0694 33.9503 21.3569 34.6628 20.7299C34.6628 20.7299 34.7768 20.5779 34.8528 20.5304C35.6413 19.5044 35.7173 18.3169 35.6983 17.5379C35.6603 16.6259 35.5938 16.1129 35.6033 16.1129C35.5938 16.1129 35.7553 16.6069 35.9073 17.5379C35.9738 18.0034 36.0308 18.5924 35.9073 19.2764C35.8788 19.4474 35.8408 19.6184 35.7838 19.7989C36.0213 19.6184 36.2493 19.4474 36.4868 19.2859C38.2252 18.0699 39.7167 17.3954 40.7427 16.9964C41.7687 16.5974 42.3197 16.4644 42.3197 16.4549C42.3197 16.4549 41.7687 16.6544 40.7712 17.1484C39.7737 17.6329 38.3392 18.4404 36.7243 19.7609C36.6673 19.8084 36.6198 19.8559 36.5628 19.9034C36.7718 19.8559 36.9712 19.8274 37.1612 19.7894C37.9307 19.6754 38.6052 19.6849 39.1372 19.7609C40.2297 19.9129 40.6762 20.3879 40.6667 20.3689C40.6667 20.3879 40.1537 19.9889 39.0897 19.9699C38.5672 19.9509 37.9212 20.0174 37.2088 20.1979C36.7053 20.3309 36.1163 20.5114 35.5748 20.7869C34.6818 21.6324 33.7698 22.6299 32.8768 23.7984C33.4563 23.6179 34.0263 23.5229 34.5488 23.5134C35.6888 23.4849 36.6293 23.6749 37.3892 23.8364C38.8902 24.2069 39.6882 24.4919 39.6882 24.4824C39.6882 24.4919 38.8427 24.2829 37.3133 24.0359C36.5533 23.9219 35.6033 23.8079 34.5393 23.9219C33.8078 23.9884 33.0098 24.2164 32.2688 24.6439C32.0883 24.8909 31.9173 25.1474 31.7463 25.4134C31.4613 25.8504 31.1858 26.3063 30.9103 26.7813C31.6323 29.5648 35.3658 31.7308 38.8807 29.0423C41.4742 27.0473 40.8377 19.2764 44.9987 14.7734C38.3867 15.9894 33.1048 14.3079 29.1338 17.3574L29.1243 17.3479Z" fill="#7DEF37"/>
<path d="M15.7107 14.0706C14.8367 13.4721 13.8582 13.1111 12.9462 12.9591C11.6257 12.7311 10.4287 12.7786 9.46924 12.8451C7.54076 13.0066 6.45777 13.1966 6.45777 13.1776C6.45777 13.1871 7.47426 12.9021 9.39324 12.5886C10.3527 12.4461 11.5497 12.3036 12.9652 12.4461C13.6112 12.5126 14.3237 12.6836 15.0267 12.9591C14.0292 11.4201 12.9842 10.0806 11.9487 8.94063C11.2932 8.54163 10.5902 8.26614 9.96324 8.05714C9.07975 7.77215 8.28176 7.62964 7.62626 7.60114C6.29627 7.52514 5.61228 7.97164 5.62178 7.95264C5.62178 7.98114 6.21077 7.43015 7.58826 7.34465C8.26276 7.29715 9.09875 7.34465 10.0582 7.56314C10.2957 7.62014 10.5427 7.68665 10.7992 7.76265C10.7327 7.69615 10.6757 7.62964 10.6092 7.57264C8.71875 5.76765 6.99926 4.63716 5.80227 3.93416C4.60528 3.23117 3.92128 2.93667 3.93078 2.92717C3.93078 2.92717 4.60528 3.15518 5.84977 3.75368C7.08476 4.35217 8.88975 5.33066 10.9417 7.01215C11.2172 7.23065 11.4927 7.46815 11.7682 7.71515C11.7207 7.48715 11.6827 7.26865 11.6637 7.05015C11.5877 6.18566 11.7017 5.45415 11.8347 4.88416C12.1102 3.73467 12.3667 3.13618 12.3477 3.12668C12.3572 3.12668 12.2147 3.75368 12.0912 4.89367C11.9962 5.85316 11.9772 7.35414 12.8702 8.70313C12.9652 8.76963 13.0887 8.96913 13.0887 8.96913C13.9247 9.82412 14.7702 10.7836 15.6062 11.8666C15.5777 11.3536 15.5872 10.8501 15.6347 10.4036C15.7582 9.23514 16.0432 8.26613 16.3092 7.49664C16.8602 5.95765 17.3732 5.19766 17.3637 5.19766C17.3732 5.19766 16.9647 5.98616 16.5657 7.53465C16.3662 8.30414 16.1762 9.27313 16.1382 10.3941C16.1097 11.2016 16.1762 12.1136 16.4422 13.0161C16.7367 13.4341 17.0217 13.8616 17.3067 14.3176C17.5347 14.6881 17.7627 15.0681 17.9907 15.4481C22.3701 14.9636 24.8211 9.29213 20.3277 5.26416C15.6537 1.08419 8.89925 2.67069 0.757812 0.533203C5.52678 6.54666 3.99729 16.1986 7.04677 18.9346C11.1792 22.63 16.0432 20.2836 17.2117 16.8731C16.9172 16.2556 16.6132 15.6476 16.2902 15.0776C16.1002 14.7261 15.9007 14.3936 15.7107 14.0611V14.0706Z" fill="#7DEF37"/>
<path d="M29.4557 28.9002C32.3057 23.2668 35.0227 20.8158 34.9752 20.8158C35.0227 20.8253 32.1157 22.8963 28.7432 28.3302C27.2422 30.8002 25.6082 34.0112 24.5917 38.0012C24.5157 37.4407 24.4397 36.8802 24.3447 36.3292C24.0597 34.7522 23.7557 33.3557 23.4613 31.9402C22.8628 29.1472 22.2168 26.5917 21.4948 24.3308C20.0603 19.8088 18.2838 16.5218 16.8683 14.4793C15.4528 12.4274 14.5123 11.5154 14.5218 11.5059C14.5028 11.5059 15.3008 12.5129 16.4313 14.6408C17.5618 16.7593 18.9298 20.0653 19.8893 24.5303C20.3833 26.7627 20.7823 29.2802 21.1243 32.0637L21.6278 36.4337C21.7608 37.9157 21.8368 39.4831 21.8748 41.1171C22.0078 47.6626 21.7228 61.2855 19.5093 63.651L26.9002 64.2875C24.8387 60.174 24.7437 53.049 25.3232 45.5726C25.4942 43.4921 25.7222 41.4971 25.9977 39.6447C26.6057 35.2937 28.0592 31.7122 29.4462 28.9097L29.4557 28.9002Z" fill="#7DEF37"/>
</svg>
