<svg width="56" height="82" viewBox="0 0 56 82" fill="none" xmlns="http://www.w3.org/2000/svg">
<path d="M0.855469 46.8655C7.18606 44.8773 11.0313 40.9851 15.8988 41.8105C20.5882 42.6076 21.3291 47.4189 18.6093 49.5854C18.2998 49.4259 17.9809 49.2665 17.6808 49.1164C17.3056 48.9382 16.9305 48.7694 16.5553 48.61C16.002 48.1223 15.58 47.5314 15.2517 46.9875C14.8109 46.2184 14.5295 45.4963 14.342 44.9054C13.9668 43.7049 13.9012 43.0109 13.8918 43.0109C13.9012 43.0109 13.873 43.7237 14.1544 44.9898C14.2951 45.6182 14.5202 46.3779 14.9234 47.2126C15.0829 47.5314 15.2892 47.8691 15.5143 48.2067C14.5014 47.8316 13.5354 47.5408 12.6163 47.3251C12.6163 47.3251 12.4475 47.2407 12.3631 47.2407C11.2001 46.7155 10.5811 45.7026 10.2435 45.018C9.8496 44.202 9.68079 43.7237 9.67141 43.7331C9.68079 43.7331 9.76519 44.2395 10.0653 45.1211C10.2247 45.5619 10.4498 46.0965 10.8625 46.6405C10.9657 46.7718 11.0782 46.9124 11.2095 47.0437C10.9188 46.9969 10.6374 46.95 10.3654 46.9218C8.29274 46.6592 6.67024 46.7624 5.60108 46.8843C4.52253 47.0062 3.97856 47.1469 3.97856 47.1375C3.97856 47.1375 4.55066 47.0625 5.64796 47.025C6.73588 46.9968 8.35839 47.025 10.3842 47.4376C10.4498 47.447 10.5249 47.4658 10.5905 47.4845C10.3936 47.5408 10.1966 47.5971 10.009 47.6627C9.28688 47.916 8.7054 48.2348 8.27398 48.5443C7.39239 49.1821 7.22359 49.8011 7.21421 49.7823C7.21421 49.7917 7.48618 49.2102 8.40528 48.7038C8.85546 48.4505 9.44633 48.2067 10.1591 48.0285C10.6655 47.9066 11.2564 47.794 11.8566 47.7847C13.0196 48.1129 14.2857 48.5631 15.5987 49.1727C15.0079 49.2852 14.4639 49.4634 14.0137 49.6979C13.0102 50.195 12.2693 50.7952 11.6878 51.2923C10.5436 52.3052 9.99028 52.9242 9.98091 52.9148C9.98091 52.9148 10.628 52.3521 11.8472 51.433C12.4662 50.9828 13.2353 50.4482 14.22 50.0449C14.8953 49.7636 15.6925 49.5947 16.5272 49.6322C16.7992 49.7729 17.0712 49.9136 17.3431 50.0637C17.7933 50.3169 18.2435 50.5889 18.7031 50.8796C19.3502 53.6463 17.0899 57.2571 12.7851 56.5256C9.59637 55.9816 6.57645 48.9007 0.864857 46.8843L0.855469 46.8655Z" fill="#71E060"/>
<path d="M27.7979 81.5564H33.1156C29.5705 78.0488 30.9866 59.873 30.2457 51.451C30.0581 49.3408 29.8237 47.3056 29.5048 45.3361C29.1578 43.3478 28.792 41.5659 28.4356 39.7839C27.7229 36.2482 26.935 33.0125 26.0441 30.1614C24.2903 24.4311 22.0957 20.2669 20.3512 17.6597C18.5974 15.043 17.4157 13.8801 17.4439 13.8613C17.4251 13.8707 18.4474 15.1181 19.9198 17.791C21.3829 20.4639 23.1648 24.628 24.4591 30.2834C25.1156 33.1063 25.6596 36.2951 26.1285 39.8214L26.8225 45.3455C27.0195 47.2306 27.1226 49.2188 27.1883 51.3009C27.4321 59.6104 28.0605 70.8554 27.7979 81.5377V81.5564Z" fill="#71E060"/>
<path d="M55.9988 18.0078C47.633 19.5365 40.9461 17.4263 35.9191 21.2716C31.0797 24.9761 33.1149 30.8847 37.4947 31.71C37.7479 31.3349 38.0105 30.9785 38.2731 30.6221C38.592 30.1907 38.9203 29.778 39.2485 29.3841C39.5862 28.4931 39.7175 27.5834 39.755 26.7675C39.8019 25.6327 39.6799 24.6479 39.5393 23.8507C39.2485 22.2657 38.9015 21.4404 38.9109 21.431C38.9015 21.431 39.3611 22.2376 39.8019 23.8319C40.0176 24.6291 40.2239 25.6233 40.2614 26.805C40.2708 27.2645 40.2427 27.771 40.177 28.2868C41.0961 27.2552 42.0246 26.3454 42.9343 25.5576C42.9343 25.5576 43.075 25.3607 43.1782 25.3044C44.1817 24.0101 44.2755 22.5002 44.2473 21.5248C44.2004 20.3619 44.1067 19.7241 44.1254 19.7241C44.116 19.7241 44.3224 20.3525 44.5099 21.5342C44.5944 22.125 44.66 22.8659 44.5099 23.7288C44.4724 23.9445 44.4255 24.1602 44.3505 24.3947C44.6506 24.1602 44.9414 23.9445 45.2321 23.7475C47.4267 22.2094 49.3212 21.356 50.6155 20.8589C51.9097 20.3525 52.6131 20.1837 52.6037 20.1743C52.6037 20.1743 51.9003 20.4275 50.6436 21.0465C49.3869 21.6655 47.5674 22.6784 45.5228 24.3478C45.4572 24.404 45.3915 24.4697 45.3165 24.526C45.5791 24.4697 45.8323 24.4228 46.0762 24.3853C47.0516 24.2446 47.905 24.2446 48.5803 24.3478C49.9589 24.5447 50.5217 25.145 50.5217 25.1168C50.5217 25.1356 49.8745 24.6385 48.524 24.6104C47.8581 24.5916 47.0516 24.676 46.1418 24.8917C45.5041 25.0606 44.7632 25.2856 44.0785 25.6326C42.9531 26.6924 41.7901 27.9679 40.6647 29.4404C41.3962 29.2153 42.1184 29.0934 42.7749 29.084C44.2098 29.0465 45.4103 29.2809 46.3669 29.4967C48.2708 29.9656 49.2743 30.3314 49.2743 30.3126C49.2743 30.3314 48.2051 30.0594 46.2731 29.7405C45.3071 29.5998 44.1067 29.4591 42.7561 29.5904C41.8277 29.6748 40.8148 29.9562 39.8863 30.5002C39.6612 30.819 39.4455 31.1379 39.2204 31.4756C38.8546 32.0289 38.5076 32.6104 38.1606 33.2106C39.0797 36.737 43.7972 39.4755 48.252 36.0711C51.5346 33.5482 50.7374 23.71 55.9988 18.0078Z" fill="#71E060"/>
<path d="M0 0C10.3071 2.71043 18.8605 0.694019 24.769 5.99296C30.4618 11.0856 27.3575 18.2602 21.8147 18.8792C21.5334 18.3915 21.2426 17.9132 20.9519 17.4443C20.5955 16.8722 20.2297 16.3282 19.8546 15.803C19.517 14.6588 19.4419 13.5053 19.4701 12.483C19.517 11.0574 19.7702 9.83821 20.014 8.86283C20.5205 6.91208 21.0363 5.90855 21.0269 5.90855C21.0457 5.90855 20.3892 6.86518 19.6952 8.81594C19.3575 9.79132 19.0011 11.0199 18.8417 12.4924C18.7854 13.0645 18.776 13.6928 18.8042 14.3493C17.7538 12.9707 16.6752 11.7514 15.6248 10.6823C15.6248 10.6823 15.4748 10.4291 15.3528 10.3446C14.2274 8.62836 14.2462 6.73387 14.3681 5.51465C14.5275 4.07034 14.7057 3.28253 14.6963 3.27315C14.7151 3.27315 14.3962 4.0422 14.0398 5.49589C13.8804 6.22742 13.721 7.14654 13.8241 8.24384C13.8523 8.51582 13.8898 8.79718 13.9554 9.08791C13.6084 8.76904 13.2614 8.4783 12.9144 8.19695C10.3165 6.06799 8.02812 4.83002 6.47126 4.07034C4.90503 3.32005 4.04219 3.03869 4.05157 3.02931C4.05157 3.03869 4.90503 3.41384 6.42437 4.30481C7.93433 5.19578 10.1102 6.63071 12.5017 8.90972C12.5768 8.98475 12.6612 9.06916 12.7456 9.15357C12.4267 9.05978 12.1078 8.97537 11.8077 8.90034C10.6073 8.62836 9.53808 8.55333 8.68463 8.61898C6.9402 8.73153 6.18052 9.42555 6.1899 9.39741C6.1899 9.41617 7.04336 8.85345 8.73152 8.94724C9.55684 8.98475 10.5697 9.16294 11.6858 9.52871C12.4736 9.80069 13.374 10.1477 14.1993 10.6541C15.5123 12.0891 16.8347 13.7866 18.1008 15.7374C17.2098 15.381 16.3095 15.1747 15.4935 15.0903C13.7022 14.9027 12.1829 15.0902 10.973 15.2684C8.55333 15.6717 7.26845 16.0281 7.25907 16.0094C7.25907 16.0281 8.62835 15.7937 11.0668 15.5873C12.286 15.5029 13.796 15.4373 15.4748 15.7374C16.6283 15.9343 17.8569 16.3845 18.973 17.1442C19.2169 17.5662 19.4701 17.9883 19.7139 18.4291C20.1172 19.1512 20.4923 19.9109 20.8769 20.6987C19.395 25.0129 13.2426 27.9953 8.00936 23.3153C4.14536 19.8546 6.08673 7.63422 0.0468818 0.0187613L0 0Z" fill="#71E060"/>
<path d="M27.7969 68.4245H30.376C30.2635 61.3998 30.8637 54.9942 31.7265 49.4327C32.5425 43.9087 34.4276 39.3694 36.2283 35.8243C39.9047 28.7153 43.3748 25.6578 43.3279 25.6484C43.3842 25.6578 39.7453 28.3214 35.553 35.224C33.5085 38.6566 31.2576 43.1771 30.0853 48.8981C28.8942 54.5253 27.9657 61.0716 27.8062 68.4151L27.7969 68.4245Z" fill="#71E060"/>
<path d="M25.3598 81.5569H29.5802C29.9554 75.9579 29.055 68.258 27.9108 64.047C26.7385 59.836 25.0597 56.3752 23.1746 53.8993C21.3082 51.4046 19.2262 50.0165 17.735 49.3975C16.2344 48.7785 15.3716 48.741 15.3809 48.7129C15.3716 48.7316 16.1969 48.8817 17.5568 49.632C18.9073 50.3823 20.708 51.8641 22.2461 54.3588C23.803 56.8348 25.1066 60.2299 25.9319 64.3471C26.7291 68.4456 27.7983 78.8277 25.3598 81.5569Z" fill="#71E060"/>
</svg>
