<svg width="96" height="128" viewBox="0 0 96 128" fill="none" xmlns="http://www.w3.org/2000/svg">
<path d="M21.9161 83.0027C21.6572 82.858 21.4059 82.7285 21.1546 82.5991C20.3702 82.5686 19.6163 82.7285 18.9918 82.9874C18.0704 83.3606 17.3469 83.8632 16.7681 84.282C15.6258 85.1426 15.0242 85.6833 15.0166 85.6756C15.0242 85.6833 15.5497 85.1045 16.6235 84.1526C17.1718 83.6881 17.8571 83.1245 18.8014 82.66C19.2279 82.4468 19.7381 82.2716 20.2864 82.1726C19.0527 81.6015 17.8724 81.175 16.7834 80.8704C16.2198 80.878 15.6639 80.9846 15.1918 81.0912C14.5293 81.2588 13.9733 81.4796 13.5469 81.7233C12.6863 82.2031 12.435 82.7438 12.435 82.7361C12.435 82.7514 12.595 82.1726 13.425 81.5786C13.8286 81.2816 14.3769 80.9846 15.0547 80.7485C15.2298 80.6952 15.405 80.6343 15.5954 80.581C15.5345 80.5658 15.4659 80.5505 15.405 80.5353C13.5164 80.1546 11.9934 80.1165 10.9653 80.1469C9.93722 80.1774 9.39653 80.2612 9.39653 80.2536C9.39653 80.2536 9.90675 80.1317 10.9196 80.0175C11.9248 79.9033 13.4403 79.8119 15.3822 80.0556C15.6411 80.086 15.9076 80.1241 16.1741 80.1698C16.0523 80.0479 15.9457 79.9185 15.8467 79.7966C15.4583 79.2864 15.2451 78.7838 15.1004 78.3726C14.8263 77.5425 14.7425 77.0704 14.7349 77.0704C14.7425 77.0704 14.9024 77.512 15.2679 78.2812C15.5878 78.9209 16.1665 79.8652 17.2555 80.3602C17.3393 80.3602 17.4992 80.4439 17.4992 80.4439C18.3521 80.6496 19.266 80.9161 20.2103 81.2664C19.9894 80.9542 19.799 80.6343 19.6543 80.3373C19.2736 79.5606 19.068 78.8447 18.9309 78.2584C18.672 77.078 18.6948 76.4002 18.6872 76.4078C18.6948 76.4078 18.7557 77.0627 19.106 78.1822C19.2888 78.7381 19.5477 79.4159 19.9589 80.1393C20.2636 80.6496 20.6596 81.1979 21.1774 81.6624C21.5277 81.8071 21.878 81.967 22.2283 82.1345C22.5177 82.2716 22.8071 82.4163 23.1041 82.5762C25.6476 80.5506 24.9546 76.0347 20.5606 75.2884C15.9914 74.5116 12.3894 78.167 6.45703 80.0251C11.803 81.9137 14.6435 88.5542 17.6287 89.0645C21.6648 89.7498 23.7895 86.3686 23.1802 83.7718C22.7538 83.5053 22.3273 83.2464 21.9009 83.0103L21.9161 83.0027Z" fill="#71E060"/>
<path d="M27.1256 19.7505C26.7677 19.0194 26.4098 18.3036 26.0367 17.6258C25.8082 17.2146 25.5797 16.8186 25.3437 16.4226C24.3004 15.7068 23.1428 15.2879 22.0615 15.1051C20.4927 14.831 19.0763 14.8919 17.934 14.9681C15.6418 15.1661 14.3624 15.3869 14.3624 15.3641C14.3624 15.3793 15.5732 15.0442 17.8426 14.6635C18.9849 14.4959 20.4013 14.3208 22.0843 14.5035C22.8535 14.5797 23.6911 14.7777 24.5288 15.1128C23.3408 13.2851 22.0995 11.6935 20.8735 10.3532C20.0967 9.88105 19.259 9.5536 18.5204 9.30229C17.4771 8.9596 16.5328 8.79206 15.756 8.75399C14.1796 8.67022 13.3724 9.19567 13.38 9.17283C13.38 9.20329 14.0806 8.54837 15.7179 8.44938C16.5175 8.38845 17.5151 8.45699 18.6422 8.71591C18.924 8.79206 19.221 8.86821 19.518 8.95198C19.4418 8.87583 19.3656 8.79968 19.2971 8.73114C17.0506 6.59124 15.0173 5.25095 13.6009 4.41326C12.1768 3.57558 11.3772 3.22527 11.3772 3.21766C11.3772 3.22527 12.1768 3.49181 13.6466 4.19242C15.1087 4.90064 17.2486 6.06578 19.6855 8.06099C20.013 8.31991 20.3328 8.60168 20.6679 8.89867C20.607 8.62452 20.5689 8.36561 20.546 8.10669C20.4546 7.07862 20.5993 6.21809 20.7516 5.53271C21.0791 4.16957 21.3761 3.46135 21.3685 3.45374C21.3837 3.45374 21.2162 4.20004 21.0639 5.54795C20.9496 6.69024 20.9268 8.4646 21.9853 10.0714C22.0995 10.1476 22.2442 10.3913 22.2442 10.3913C23.2342 11.3965 24.2394 12.5464 25.2294 13.8334C25.199 13.2242 25.2066 12.6302 25.2675 12.0895C25.4122 10.7111 25.7473 9.5536 26.0671 8.64737C26.722 6.8197 27.3313 5.92109 27.3236 5.92109C27.3389 5.92109 26.8515 6.86539 26.3794 8.69306C26.1509 9.6069 25.9148 10.7492 25.8691 12.0819C25.8387 13.0414 25.9072 14.1228 26.227 15.1965C26.5697 15.6915 26.92 16.2018 27.2551 16.7348C27.5293 17.1689 27.7958 17.6182 28.07 18.0751C33.2636 17.4964 36.1802 10.772 30.8419 5.99725C25.298 1.03968 17.2791 2.92066 7.61523 0.384766C13.2734 7.5203 11.4534 18.9737 15.0782 22.2178C19.9825 26.6043 25.7549 23.8094 27.1409 19.7657L27.1256 19.7505Z" fill="#71E060"/>
<path d="M17.637 56.837C22.7698 55.7099 23.6531 50.6686 21.6808 47.8814C21.0411 47.7671 20.409 47.6681 19.7998 47.592C19.4266 47.5463 19.0611 47.5082 18.6956 47.4777C17.7513 47.8204 16.9364 48.3687 16.312 48.9856C15.3982 49.8766 14.7813 50.8209 14.2939 51.5976C13.3496 53.174 12.9003 54.1031 12.8851 54.0954C12.9003 54.0954 13.243 53.1588 14.0578 51.5139C14.4843 50.699 15.0326 49.6938 15.9312 48.6962C16.3425 48.2317 16.8603 47.7824 17.4619 47.394C15.7256 47.3102 14.1188 47.3711 12.6719 47.5387C12.0017 47.8204 11.4001 48.2088 10.8899 48.5744C10.1817 49.0922 9.63336 49.6253 9.24498 50.1126C8.45299 51.095 8.41492 51.8642 8.4073 51.8489C8.42253 51.8718 8.33114 51.1026 9.03175 49.9984C9.36682 49.4501 9.87705 48.8409 10.57 48.2241C10.7528 48.0717 10.9356 47.9194 11.1336 47.7671C11.0498 47.7824 10.966 47.7976 10.8823 47.8052C8.45299 48.2621 6.62532 48.9475 5.4221 49.4806C4.21889 50.0136 3.61727 50.364 3.60966 50.3563C3.60966 50.364 4.15796 49.9603 5.30787 49.3435C6.45016 48.7267 8.20169 47.8814 10.631 47.2341C10.9508 47.1503 11.2859 47.0665 11.6286 46.9904C11.423 46.899 11.2326 46.8076 11.0574 46.701C10.3492 46.2822 9.85421 45.7872 9.48867 45.3683C8.7576 44.5154 8.43776 43.9899 8.43015 43.9976C8.43776 43.9899 8.84137 44.4469 9.64098 45.1779C10.3264 45.7872 11.461 46.6324 12.9993 46.6934C13.0983 46.6553 13.3268 46.6705 13.3268 46.6705C14.4462 46.503 15.6494 46.3811 16.944 46.3507C16.5328 46.0841 16.1597 45.8024 15.8322 45.513C15.0098 44.7743 14.4158 44.0204 13.9741 43.3883C13.0983 42.109 12.8013 41.2941 12.7937 41.3017C12.8013 41.3017 13.1821 42.0404 14.1492 43.2056C14.6366 43.7843 15.2687 44.4621 16.1064 45.117C16.708 45.5815 17.4467 46.0461 18.2844 46.3431C18.7641 46.3431 19.2591 46.3659 19.7617 46.3964C20.1729 46.4192 20.5918 46.4573 21.0106 46.4954C23.0668 42.8629 20.0739 37.8292 14.4843 39.0552C8.68144 40.327 6.15316 46.404 0 51.4682C7.265 51.1407 13.8294 57.667 17.6218 56.837H17.637Z" fill="#71E060"/>
<path d="M55.835 36.146C56.0711 35.7957 56.3147 35.4454 56.5584 35.1103C56.8554 34.6991 57.16 34.3031 57.4646 33.9299C57.7769 33.0846 57.8911 32.2165 57.9216 31.4473C57.9596 30.3736 57.8302 29.4445 57.7007 28.6906C57.419 27.1904 57.0763 26.4136 57.0915 26.406C57.0763 26.406 57.5256 27.1599 57.952 28.6677C58.1577 29.4217 58.3633 30.3583 58.409 31.4778C58.4242 31.9119 58.4089 32.3916 58.348 32.879C59.2086 31.8966 60.0843 31.0285 60.9296 30.2746C60.9296 30.2746 61.0591 30.0918 61.1581 30.0309C62.0948 28.7972 62.1709 27.3655 62.1405 26.4441C62.0871 25.3475 61.9958 24.7459 62.011 24.7382C62.0034 24.7382 62.2014 25.3322 62.3918 26.4441C62.4755 27 62.5441 27.7082 62.4146 28.523C62.3841 28.7287 62.3308 28.9343 62.2699 29.1475C62.5517 28.9267 62.8258 28.721 63.1 28.5307C65.1637 27.0609 66.9533 26.2385 68.1718 25.7511C69.3902 25.2637 70.0527 25.0962 70.0527 25.0885C70.0527 25.0885 69.3902 25.3399 68.2022 25.9338C67.0142 26.5278 65.3084 27.5026 63.3894 29.1018C63.3284 29.1551 63.2599 29.216 63.199 29.2693C63.4503 29.216 63.6864 29.1704 63.9148 29.1247C64.8363 28.98 65.6435 28.98 66.2832 29.0714C67.593 29.2465 68.1261 29.8024 68.1261 29.7796C68.1261 29.7948 67.5092 29.3303 66.2375 29.315C65.613 29.2998 64.8439 29.3836 63.9833 29.6044C63.3741 29.7643 62.6811 29.9852 62.0338 30.3203C60.9753 31.3407 59.8863 32.5439 58.8354 33.9528C59.5284 33.7319 60.2138 33.6177 60.8306 33.5948C62.1938 33.5415 63.3208 33.7624 64.2347 33.9528C66.0395 34.3792 66.9914 34.7143 66.999 34.6991C66.999 34.7143 65.9786 34.463 64.1509 34.1812C63.237 34.0594 62.1024 33.9299 60.823 34.067C59.9472 34.1584 58.9953 34.4325 58.112 34.9504C57.9063 35.255 57.7007 35.5596 57.4875 35.8794C57.1524 36.4049 56.825 36.9608 56.4975 37.532C57.3961 40.8598 61.8892 43.4186 66.07 40.1592C69.1618 37.7452 68.3165 28.4393 73.2512 23.002C65.3465 24.5174 59.0029 22.5679 54.2738 26.2613C49.7199 29.81 51.6999 35.3768 55.8502 36.1231L55.835 36.146Z" fill="#71E060"/>
<path d="M66.2663 91.8683C62.5653 89.3857 58.9556 92.1805 59.4049 95.4018C59.7248 95.4931 60.037 95.5845 60.3416 95.6835C60.7147 95.8054 61.0803 95.9348 61.4306 96.0643C62.1236 96.0871 62.7937 95.9653 63.3649 95.8054C64.1645 95.5693 64.8118 95.2571 65.3296 94.9753C66.3577 94.4042 66.8527 93.9701 66.8527 93.9777C66.8527 93.9701 66.4034 94.4803 65.3982 95.1505C64.8956 95.4855 64.2559 95.8587 63.441 96.1633C63.1288 96.2775 62.7709 96.3765 62.3977 96.4527C63.3268 96.8487 64.1721 97.2827 64.9336 97.7244C64.9336 97.7244 65.1012 97.7701 65.1621 97.831C66.2968 98.2194 67.3629 97.9377 68.0331 97.6864C68.8251 97.3817 69.2439 97.1685 69.2515 97.1761C69.2515 97.1761 68.8631 97.4579 68.094 97.8691C67.7056 98.0671 67.203 98.288 66.5709 98.387C66.411 98.4098 66.2511 98.425 66.0759 98.4326C66.3044 98.585 66.5252 98.7373 66.7309 98.8972C68.3072 100.062 69.3429 101.174 69.9902 101.943C70.6451 102.72 70.9269 103.169 70.9269 103.162C70.9269 103.162 70.5842 102.735 69.8607 102.004C69.1373 101.281 68.0102 100.253 66.3806 99.2323C66.3272 99.2018 66.2663 99.1637 66.213 99.1333C66.312 99.3008 66.4034 99.4683 66.4948 99.6283C66.8222 100.268 67.0126 100.862 67.104 101.357C67.2944 102.362 67.0126 102.888 67.0278 102.88C67.0202 102.88 67.2106 102.316 66.9136 101.38C66.7689 100.915 66.5252 100.375 66.1597 99.7958C65.8932 99.3922 65.5657 98.9353 65.1621 98.5393C64.1645 98.0062 63.007 97.5036 61.7276 97.0695C62.055 97.5264 62.3064 97.9986 62.4739 98.4479C62.8394 99.4303 62.9536 100.321 63.0298 101.029C63.1516 102.461 63.1364 103.238 63.144 103.238C63.1364 103.238 63.0679 102.431 62.8318 101.022C62.7024 100.321 62.5196 99.4531 62.1084 98.5545C61.8342 97.93 61.4001 97.298 60.8061 96.7801C60.532 96.6964 60.2578 96.6202 59.9761 96.5517C59.5115 96.4298 59.0242 96.3232 58.5292 96.2242C56.2979 97.6864 55.5059 101.601 58.9099 103.878C61.423 105.561 68.0559 102.705 73.2343 105.012C70.2111 99.5826 70.112 94.4498 66.2663 91.8683Z" fill="#71E060"/>
<path d="M72.872 59.1299C65.8659 60.6149 65.0511 67.9027 69.2776 70.9869C69.7345 70.7204 70.1914 70.4691 70.6483 70.2254C71.2043 69.9284 71.7602 69.6542 72.3085 69.4029C73.1157 68.6338 73.7173 67.7276 74.1666 66.8823C74.7911 65.7019 75.1566 64.5977 75.4079 63.6915C75.9029 61.8638 75.9486 60.8129 75.9638 60.8129C75.9486 60.8129 76.0324 61.8942 75.6973 63.8057C75.5221 64.7576 75.2404 65.9151 74.6768 67.1945C74.456 67.6895 74.1742 68.2073 73.8468 68.7252C75.3394 68.0931 76.7863 67.6057 78.1418 67.225C78.1418 67.225 78.3855 67.0879 78.5226 67.0803C80.2436 66.2121 81.1042 64.6586 81.5687 63.6153C82.1094 62.3664 82.3302 61.6353 82.3455 61.6429C82.3302 61.6429 82.2312 62.4045 81.8428 63.7524C81.6372 64.4225 81.3326 65.245 80.7386 66.0903C80.5939 66.2959 80.4264 66.5091 80.236 66.7147C80.6701 66.6234 81.0889 66.5396 81.5001 66.471C84.6072 65.9532 87.0441 66.0065 88.6661 66.1207C90.2882 66.2426 91.1259 66.4101 91.1259 66.4025C91.1259 66.4101 90.2578 66.3187 88.6052 66.334C86.9603 66.3568 84.5234 66.5091 81.5154 67.2478C81.4164 67.2707 81.3098 67.3011 81.2108 67.3316C81.5154 67.4001 81.8124 67.4839 82.0942 67.56C83.1984 67.9027 84.097 68.3368 84.7595 68.7861C86.1303 69.6923 86.4196 70.6062 86.4272 70.5757C86.4272 70.5985 85.9856 69.738 84.5691 69.0298C83.8761 68.6719 82.9699 68.352 81.8962 68.1312C81.127 67.9789 80.236 67.8494 79.3298 67.8723C77.5935 68.4282 75.7277 69.1897 73.7935 70.1873C74.6844 70.3168 75.5145 70.5605 76.2151 70.8727C77.761 71.5581 78.911 72.411 79.8096 73.1192C81.5992 74.5737 82.4673 75.4647 82.4825 75.4571C82.4749 75.4723 81.4697 74.6423 79.5811 73.3324C78.6292 72.7004 77.426 71.9388 75.9334 71.3981C74.9053 71.025 73.6945 70.8118 72.4303 70.9108C72.0343 71.1392 71.6383 71.3677 71.2271 71.6114C70.5646 72.015 69.902 72.4567 69.2243 72.9136C68.4171 77.1172 72.042 82.4099 78.4769 81.0391C83.2365 80.0263 87.3487 69.1821 95.8017 65.8009C86.1607 63.2041 80.137 57.584 72.8644 59.1299H72.872Z" fill="#71E060"/>
<path d="M59.9018 96.0472C61.2802 96.2833 61.9123 96.7478 61.9123 96.7326C61.9123 96.7555 61.3716 96.2072 60.0237 95.7579C58.691 95.3238 56.5206 94.9963 53.8248 95.6817C51.1518 96.3366 47.9915 98.2176 45.6612 101.538C45.5394 101.705 45.4328 101.888 45.3185 102.056C45.3033 101.637 45.2881 101.226 45.2804 100.814C45.4327 99.8854 45.6384 98.9867 45.9125 98.1186C46.4532 96.3671 47.2756 94.7222 48.159 93.024L49.4308 90.5338C49.8344 89.7798 50.2837 89.0564 50.7558 88.3558C52.6825 85.561 54.9747 83.2078 57.1984 81.1746C59.4373 79.1489 61.6381 77.4431 63.679 75.9809C67.776 73.0719 71.2258 71.1528 73.5942 69.9268C75.9701 68.7083 77.2876 68.1676 77.28 68.16C77.28 68.1676 75.9549 68.5255 73.4875 69.4622C71.0202 70.4065 67.4105 71.922 62.986 74.4502C60.7776 75.7144 58.3788 77.2374 55.8733 79.126C53.3755 81.0223 50.7482 83.2612 48.3342 86.193C47.7326 86.9241 47.1538 87.7085 46.6055 88.5538C46.2248 89.1478 45.9049 89.6885 45.5851 90.2292C46.2781 76.712 47.5955 65.19 49.545 56.0821C51.2813 47.8119 53.5964 41.5978 55.8505 37.7369C58.0894 33.8531 60.0541 32.3681 60.0085 32.3528C60.0541 32.3757 58.0361 33.6627 55.5307 37.3561C53.0176 41.0267 50.2685 47.0885 48.0296 55.2825C46.4532 60.9559 45.1053 67.6498 43.9782 75.227C43.7878 72.8815 43.5594 70.5741 43.2548 68.3504C42.8055 65.0149 42.2496 61.8393 41.6479 58.8084C40.4371 52.7542 39.0131 47.2865 37.5585 42.4279C34.6343 32.7108 31.5196 25.4229 28.9913 20.7014C26.4707 15.9647 24.5592 13.8477 24.582 13.8477C24.5592 13.8477 26.2346 16.0561 28.344 20.8157C30.4611 25.5676 33.0122 32.8555 35.2892 42.5269C36.4238 47.3626 37.5052 52.7923 38.3734 58.7856C38.5638 60.1106 38.7465 61.4738 38.9064 62.8445C38.5485 62.0754 38.1754 61.3291 37.7718 60.6209C35.1292 55.8994 31.7557 52.5182 28.6182 50.3859C25.4807 48.2308 22.6173 47.2636 20.645 46.959C18.6497 46.6239 17.6064 47.058 17.6293 47.0504C17.614 47.0504 18.6421 46.6925 20.5535 47.0961C22.4421 47.4768 25.176 48.5354 28.1536 50.7286C31.116 52.9142 34.2916 56.2801 36.7285 60.9483C37.787 62.9511 38.678 65.2053 39.4014 67.6345C39.6984 71.0614 39.8888 74.633 39.9193 78.3797C40.0259 85.8808 39.9878 93.9911 39.8888 102.619C37.391 96.2605 34.0479 91.2268 30.5448 87.8913C27.0647 84.5101 23.6454 82.7966 21.3075 81.898C18.9467 81.007 17.6293 80.8014 17.6369 80.7786C17.6293 80.8014 18.8858 81.1136 21.1095 82.1493C23.3027 83.1926 26.4706 85.066 29.6005 88.4929C32.738 91.8893 35.708 96.8468 37.7946 103.122C38.5866 105.498 39.2567 108.049 39.7822 110.768C39.6984 116.053 39.7822 124.833 35.5938 127.133H49.6821C45.1129 124.833 45.6688 113.898 45.4937 107.645C45.9582 105.856 46.5903 104.218 47.3975 102.794C49.1262 99.6797 51.6697 97.6769 54.0457 96.7479C56.4292 95.7959 58.5463 95.7883 59.9018 96.0244V96.0472Z" fill="#71E060"/>
</svg>
