<svg width="34" height="54" viewBox="0 0 34 54" fill="none" xmlns="http://www.w3.org/2000/svg">
<path d="M12.5357 16.1978C11.8397 15.7967 11.0848 15.5844 10.3889 15.5136C9.37443 15.4192 8.47795 15.5136 7.75842 15.6315C6.30755 15.8675 5.51723 16.068 5.50544 16.0562C5.50544 16.0562 6.26036 15.7967 7.68764 15.4428C8.40718 15.2777 9.30365 15.1007 10.3771 15.1361C10.8725 15.1361 11.4151 15.2305 11.9577 15.4074C11.1202 14.2986 10.2473 13.355 9.40982 12.5529C8.8908 12.2934 8.3482 12.1164 7.86458 11.9985C7.18043 11.8333 6.57885 11.7744 6.08343 11.7862C5.08079 11.8097 4.58537 12.1872 4.59717 12.1636C4.59717 12.1872 5.01002 11.739 6.04804 11.5856C6.55526 11.5149 7.19222 11.5031 7.92356 11.6092C8.11229 11.6446 8.30102 11.68 8.48975 11.7154C8.44257 11.6682 8.38359 11.621 8.33641 11.5856C6.80297 10.3353 5.44646 9.58036 4.5028 9.12033C3.55915 8.6603 3.02834 8.47156 3.02834 8.47156C3.02834 8.47156 3.54735 8.60131 4.5146 8.97877C5.48185 9.35623 6.89733 9.9932 8.53693 11.1374C8.76105 11.2907 8.97337 11.4441 9.19749 11.621C9.15031 11.4559 9.10313 11.2907 9.07954 11.1256C8.97337 10.4768 9.02056 9.92244 9.07954 9.48599C9.22108 8.60132 9.37443 8.14127 9.36263 8.12948C9.36263 8.12948 9.30365 8.6131 9.26827 9.47419C9.24468 10.2055 9.31545 11.3379 10.0704 12.3052C10.1411 12.3523 10.2473 12.4939 10.2473 12.4939C10.9315 13.0837 11.6156 13.7678 12.3116 14.5346C12.2644 14.1453 12.2408 13.7678 12.2526 13.4258C12.2762 12.5411 12.4295 11.7979 12.5947 11.1964C12.9249 10.005 13.267 9.40342 13.2552 9.40342C13.2552 9.40342 13.0075 10.0286 12.7834 11.2082C12.6772 11.7979 12.5947 12.5411 12.63 13.3904C12.6536 14.0037 12.7598 14.6879 13.0075 15.3485C13.2552 15.6434 13.4911 15.95 13.7388 16.2803C13.9394 16.5398 14.1281 16.8111 14.3168 17.0942C17.5842 16.4808 19.1177 12.0575 15.4964 9.28547C11.7336 6.40732 6.73219 7.98793 0.480469 6.84375C4.42023 11.102 3.81865 18.4625 6.27216 20.3498C9.59855 22.8977 13.1255 20.8452 13.8214 18.2148C13.5619 17.7666 13.3024 17.3301 13.0311 16.9173C12.866 16.6696 12.7008 16.4219 12.5357 16.1859V16.1978Z" fill="#71E060"/>
<path d="M30.0181 5.48821C30.5843 3.8722 31.6695 1.51306 33.1794 0.109375C31.9762 0.722751 29.2514 3.44756 28.4375 4.82766C28.0954 5.2523 27.6708 5.81848 27.1871 6.52622C25.8896 8.43713 24.2382 11.4804 22.9053 15.7269C22.2329 17.8383 21.6314 20.2446 21.077 22.8869L20.2513 27.0272C20.0861 27.9472 19.9682 28.8909 19.8502 29.8581C18.9773 25.7296 17.3613 22.4033 15.8633 19.8672C12.7256 14.6417 9.93003 12.5892 9.97721 12.5774C9.93003 12.5774 12.4661 14.795 15.2263 20.0559C16.571 22.6745 17.9983 26.0599 18.6353 30.2002C18.9184 31.9578 19.1543 33.8333 19.3312 35.815C19.6497 42.3026 19.6497 53.7326 17.609 53.7326H23.8961C21.6432 51.4561 21.4426 29.4807 21.5842 28.077C21.7257 26.6851 22.1622 24.8685 22.3273 23.5592C22.6694 20.917 23.1294 18.7112 23.6012 16.5762C24.1321 14.158 25.2998 11.7989 25.9604 10.0885C28.4375 10.3009 29.5817 8.29559 30.0299 5.48821H30.0181Z" fill="#71E060"/>
<path d="M25.1686 8.90868C26.4779 6.93879 28.1647 4.23759 30.2289 1.94922C29.2499 2.75133 27.0559 4.15502 26.242 5.12227C25.3219 6.21927 24.4726 7.39883 25.0624 9.00304L25.1568 8.90868H25.1686Z" fill="#71E060"/>
</svg>
