<svg width="18" height="24" viewBox="0 0 18 24" fill="none" xmlns="http://www.w3.org/2000/svg">
<path d="M13.8766 0.102663C14.0234 0.18777 14.137 0.320148 14.1988 0.478169C14.2607 0.63619 14.2671 0.810514 14.2171 0.972663L11.5156 9.75066H16.5001C16.6465 9.7506 16.7898 9.79344 16.9122 9.87389C17.0347 9.95434 17.1308 10.0689 17.1889 10.2034C17.247 10.3378 17.2644 10.4864 17.239 10.6306C17.2136 10.7749 17.1465 10.9086 17.0461 11.0152L5.04606 23.7652C4.92994 23.8886 4.77544 23.9691 4.60772 23.9935C4.43999 24.018 4.26895 23.9848 4.12246 23.8996C3.97597 23.8143 3.86268 23.682 3.80104 23.5241C3.73941 23.3662 3.73307 23.1921 3.78306 23.0302L6.48456 14.2507H1.50006C1.35357 14.2507 1.21028 14.2079 1.08786 14.1274C0.965449 14.047 0.869271 13.9325 0.811203 13.798C0.753135 13.6635 0.735719 13.5149 0.761105 13.3707C0.786491 13.2264 0.853568 13.0927 0.954055 12.9862L12.9541 0.236163C13.07 0.112861 13.2243 0.0324155 13.3918 0.00790544C13.5593 -0.0166046 13.7301 0.0162624 13.8766 0.101163V0.102663Z" fill="#374151"/>
</svg>
