<svg width="24" height="24" viewBox="0 0 24 24" fill="none" xmlns="http://www.w3.org/2000/svg">
<circle cx="12" cy="12" r="11.5" stroke="#1F2937"/>
<mask id="path-2-inside-1_1511_13500" fill="white">
<path d="M24 12C24 13.5759 23.6896 15.1363 23.0866 16.5922C22.4835 18.0481 21.5996 19.371 20.4853 20.4853C19.371 21.5996 18.0481 22.4835 16.5922 23.0866C15.1363 23.6896 13.5759 24 12 24V23.25C13.4774 23.25 14.9403 22.959 16.3052 22.3937C17.6701 21.8283 18.9103 20.9996 19.955 19.955C20.9996 18.9103 21.8283 17.6701 22.3937 16.3052C22.959 14.9403 23.25 13.4774 23.25 12H24Z"/>
</mask>
<path d="M24 12C24 13.5759 23.6896 15.1363 23.0866 16.5922C22.4835 18.0481 21.5996 19.371 20.4853 20.4853C19.371 21.5996 18.0481 22.4835 16.5922 23.0866C15.1363 23.6896 13.5759 24 12 24V23.25C13.4774 23.25 14.9403 22.959 16.3052 22.3937C17.6701 21.8283 18.9103 20.9996 19.955 19.955C20.9996 18.9103 21.8283 17.6701 22.3937 16.3052C22.959 14.9403 23.25 13.4774 23.25 12H24Z" stroke="#FCDCFF" stroke-width="2" mask="url(#path-2-inside-1_1511_13500)"/>
</svg>
