<svg width="18" height="18" viewBox="0 0 18 18" fill="none" xmlns="http://www.w3.org/2000/svg">
<path fill-rule="evenodd" clip-rule="evenodd" d="M0.585983 0.0888752C0.482858 0.136594 0.341577 0.236344 0.272062 0.3105C-0.0101258 0.611438 4.59954e-05 0.458297 4.59954e-05 4.40475V8.01562H4.00786H8.01567V4.00781V0L4.39458 0.0010314C0.969983 0.00201577 0.763311 0.00675018 0.585983 0.0888752ZM9.98442 4.00781V8.01562H13.9922H18V4.40475C18 0.458297 18.0102 0.611438 17.728 0.3105C17.6585 0.236344 17.5172 0.136594 17.4141 0.0888752C17.2368 0.00675018 17.0301 0.00201577 13.6055 0.0010314L9.98442 0V4.00781ZM6.00004 4.00781V6H4.00786H2.01567V4.00781V2.01562H4.00786H6.00004V4.00781ZM15.9844 4.00781V6H13.9922H12V4.00781V2.01562H13.9922H15.9844V4.00781ZM0.00107739 13.6055C0.00206177 17.0301 0.00679617 17.2367 0.0889211 17.4141C0.13664 17.5172 0.23639 17.6585 0.310546 17.728C0.611483 18.0102 0.458343 18 4.4048 18H8.01567V13.9922V9.98438H4.00786H4.59954e-05L0.00107739 13.6055ZM9.98442 13.9922V18L13.6055 17.999C17.0301 17.998 17.2368 17.9933 17.4141 17.9111C17.5172 17.8634 17.6585 17.7637 17.728 17.6895C18.0102 17.3886 18 17.5417 18 13.5953V9.98438H13.9922H9.98442V13.9922ZM6.00004 13.9922V15.9844H4.00786H2.01567V13.9922V12H4.00786H6.00004V13.9922ZM15.9844 13.9922V15.9844H13.9922H12V13.9922V12H13.9922H15.9844V13.9922Z" fill="#374151"/>
</svg>
