<svg width="18" height="18" viewBox="0 0 18 18" fill="none" xmlns="http://www.w3.org/2000/svg">
<mask id="path-1-inside-1_2261_52887" fill="white">
<path d="M0 1.59C0 1.03938 0 0.764071 0.105455 0.553021C0.202249 0.359308 0.359308 0.202249 0.553021 0.105455C0.764071 0 1.03938 0 1.59 0H8V8H0V1.59Z"/>
</mask>
<path d="M0 1.59C0 1.03938 0 0.764071 0.105455 0.553021C0.202249 0.359308 0.359308 0.202249 0.553021 0.105455C0.764071 0 1.03938 0 1.59 0H8V8H0V1.59Z" stroke="#374151" stroke-width="3" mask="url(#path-1-inside-1_2261_52887)"/>
<mask id="path-2-inside-2_2261_52887" fill="white">
<path d="M10 0H16.42C16.9612 0 17.2318 0 17.4399 0.101972C17.6392 0.199607 17.8004 0.360764 17.898 0.560061C18 0.768212 18 1.03881 18 1.58V8H10V0Z"/>
</mask>
<path d="M10 0H16.42C16.9612 0 17.2318 0 17.4399 0.101972C17.6392 0.199607 17.8004 0.360764 17.898 0.560061C18 0.768212 18 1.03881 18 1.58V8H10V0Z" stroke="#374151" stroke-width="3" mask="url(#path-2-inside-2_2261_52887)"/>
<mask id="path-3-inside-3_2261_52887" fill="white">
<path d="M10 10H18V16.39C18 16.9595 18 17.2442 17.8874 17.461C17.7925 17.6436 17.6436 17.7925 17.461 17.8874C17.2442 18 16.9595 18 16.39 18H10V10Z"/>
</mask>
<path d="M10 10H18V16.39C18 16.9595 18 17.2442 17.8874 17.461C17.7925 17.6436 17.6436 17.7925 17.461 17.8874C17.2442 18 16.9595 18 16.39 18H10V10Z" stroke="#374151" stroke-width="3" mask="url(#path-3-inside-3_2261_52887)"/>
<mask id="path-4-inside-4_2261_52887" fill="white">
<path d="M0 10H8V18H1.61C1.04051 18 0.755764 18 0.539026 17.8874C0.356382 17.7925 0.207462 17.6436 0.112587 17.461C0 17.2442 0 16.9595 0 16.39V10Z"/>
</mask>
<path d="M0 10H8V18H1.61C1.04051 18 0.755764 18 0.539026 17.8874C0.356382 17.7925 0.207462 17.6436 0.112587 17.461C0 17.2442 0 16.9595 0 16.39V10Z" stroke="#374151" stroke-width="3" mask="url(#path-4-inside-4_2261_52887)"/>
</svg>
