<svg width="131" height="22" viewBox="0 0 131 22" fill="none" xmlns="http://www.w3.org/2000/svg">
<path fill-rule="evenodd" clip-rule="evenodd" d="M20.7244 6.14127C19.2784 6.37328 18.1129 7.09658 17.6117 8.07305C17.4305 8.4261 17.3862 8.59421 17.3633 9.01468C17.3291 9.64105 17.4098 9.94633 17.7304 10.4018C18.0855 10.9064 18.5657 11.2524 19.6658 11.7962C20.1987 12.0596 20.7342 12.3674 20.8557 12.4803C21.1409 12.7447 21.2022 13.0221 21.0409 13.3188C20.6261 14.0825 18.6207 14.1334 16.9392 13.4231L16.5799 13.2713L16.3842 14.3494L16.1884 15.4275L16.3673 15.5032C17.0718 15.8017 18.5413 15.9954 19.6827 15.9402C22.1365 15.8217 23.7254 14.7624 23.9977 13.0632C24.0637 12.6523 24.0588 12.5199 23.9644 12.153C23.74 11.281 23.195 10.7709 21.72 10.0522C20.6305 9.5214 20.3895 9.36038 20.2676 9.08191C20.1543 8.82284 20.2196 8.63508 20.5015 8.40846C21.0292 7.98435 22.3565 7.96213 23.5269 8.35774C24.0535 8.53577 24.0553 8.53589 24.0862 8.40369C24.1034 8.33074 24.1772 7.91799 24.2502 7.48641C24.3233 7.05483 24.3969 6.64309 24.4136 6.57146C24.4395 6.46117 24.3914 6.42539 24.1007 6.33844C23.1383 6.05062 21.7831 5.97146 20.7244 6.14127ZM-0.000427246 6.2154C-0.000427246 6.31019 0.138636 6.37297 0.723676 6.54227C3.12561 7.23757 5.04693 8.67029 6.05481 10.5178C6.22832 10.8358 6.37119 11.076 6.37231 11.0516C6.38144 10.8572 5.43324 6.74975 5.34714 6.61051C5.28609 6.51183 5.11522 6.36487 4.96735 6.28389C4.70118 6.13819 4.67542 6.13656 2.34906 6.11741C0.0912522 6.09889 -0.000427246 6.10272 -0.000427246 6.2154ZM9.34226 6.4977C9.27825 6.64447 8.68046 8.09979 8.01373 9.73182L6.80159 12.6992L6.68448 12.3056C6.38033 11.2839 5.80455 10.4526 4.60306 9.30087C3.87317 8.60112 2.79254 7.74806 2.72176 7.81573C2.70034 7.8362 5.10713 15.6933 5.15971 15.7745C5.1833 15.811 5.77432 15.8355 6.6296 15.8355H8.06006L10.1713 11.1431C11.3324 8.56219 12.3019 6.40122 12.3257 6.34076C12.3661 6.23819 12.2724 6.23091 10.9138 6.23091H9.45858L9.34226 6.4977ZM13.4417 6.30938C13.4064 6.41421 11.7634 15.6689 11.7634 15.7624C11.7634 15.8158 12.1371 15.8355 13.1436 15.8355C13.9026 15.8355 14.5237 15.8181 14.5237 15.7968C14.5237 15.7413 16.1615 6.54165 16.2015 6.37215L16.2349 6.23091H14.8515C13.8026 6.23091 13.4617 6.24987 13.4417 6.30938ZM28.5522 6.34893C28.4061 6.41227 28.2128 6.54792 28.1226 6.65031C27.9839 6.80769 23.9629 15.3886 23.8718 15.7217C23.8424 15.8291 23.9224 15.8355 25.2809 15.8355H26.7212L26.8095 15.6001C26.858 15.4707 26.9848 15.1458 27.0913 14.8782L27.2849 14.3917H29.0182H30.7515L30.8147 14.6271C30.8495 14.7566 30.9275 15.0815 30.9881 15.349L31.0983 15.8355H32.3732C33.0745 15.8355 33.6485 15.8144 33.6489 15.7884C33.6493 15.7625 33.1556 13.6015 32.5517 10.9861L31.4536 6.23091L30.1357 6.23229C28.9994 6.23348 28.7812 6.24955 28.5522 6.34893ZM29.8971 10.5783C30.0931 11.45 30.2666 12.2126 30.2827 12.273C30.3096 12.3744 30.2271 12.3829 29.2198 12.3829C28.6191 12.3829 28.1277 12.3641 28.1277 12.3411C28.1277 12.2536 29.4672 8.99302 29.503 8.99327C29.5238 8.99346 29.7011 9.70671 29.8971 10.5783Z" fill="#4B5563"/>
<path d="M45.57 5.69592L41.3561 17H39.655L43.8689 5.69592H45.57Z" fill="#4B5563"/>
<path fill-rule="evenodd" clip-rule="evenodd" d="M59.1196 4.12205C58.1569 4.35111 57.2662 5.37073 57.2274 6.28806C57.2126 6.63588 57.2137 6.63804 57.409 6.657C57.767 6.69186 58.3283 6.42654 58.7161 6.03915C59.1726 5.58306 59.4229 5.06514 59.4643 4.49105C59.4978 4.02479 59.5034 4.0307 59.1196 4.12205ZM63.6102 4.86133C63.5839 4.88798 63.5623 7.20933 63.5623 10.0199V15.1299H64.3919H65.2215V13.3807V11.6314L66.5138 11.6303C67.3905 11.6295 67.9453 11.5997 68.2392 11.5377C69.8277 11.2022 70.8354 9.91749 70.8354 8.22818C70.8354 6.63251 69.9807 5.45596 68.4761 4.98073C68.1788 4.88678 67.7838 4.86547 65.8916 4.84136C64.6631 4.82565 63.6364 4.83468 63.6102 4.86133ZM67.6594 6.29588C68.3074 6.43283 68.756 6.76813 69.0107 7.30583C69.1207 7.53814 69.1462 7.71192 69.1462 8.22818C69.1462 8.80774 69.1292 8.8982 68.9548 9.24596C68.7305 9.69308 68.3754 9.98899 67.883 10.1391C67.6581 10.2077 67.1746 10.2524 66.3862 10.2775L65.2215 10.3145V8.26947V6.22445H66.2714C66.8488 6.22445 67.4733 6.25657 67.6594 6.29588ZM58.8718 6.79828C58.7314 6.82639 58.3741 6.93771 58.0778 7.04579C57.7815 7.1538 57.4369 7.24165 57.3121 7.24088C57.1871 7.24018 56.7978 7.14025 56.4468 7.01882C55.7398 6.7743 55.4154 6.7486 54.859 6.89306C52.8141 7.42395 52.1126 10.011 53.2809 12.7123C53.7201 13.7278 54.5682 14.8392 55.0935 15.0876C55.4394 15.2513 55.8866 15.221 56.4903 14.9932C56.9016 14.838 57.1217 14.7929 57.4678 14.7929C57.814 14.7929 58.034 14.838 58.4454 14.9932C59.3094 15.3193 59.7602 15.2486 60.3297 14.6977C60.4999 14.5331 60.784 14.1861 60.9611 13.9266C61.284 13.4536 61.7754 12.4842 61.7754 12.3203C61.7754 12.2722 61.6766 12.1797 61.5558 12.1149C61.1955 11.9215 60.7501 11.4347 60.5514 11.0171C60.0747 10.0154 60.3544 8.81518 61.2315 8.0988L61.5268 7.85759L61.2204 7.54469C60.8491 7.16563 60.4334 6.94414 59.8693 6.82493C59.4034 6.72653 59.2512 6.72245 58.8718 6.79828ZM73.7224 7.58953C72.5709 7.85066 71.7296 8.6297 71.5727 9.57991L71.5281 9.85026H72.2668H73.0054L73.105 9.61261C73.1598 9.48189 73.2679 9.30626 73.3452 9.22229C73.6891 8.84883 74.5137 8.67861 75.1234 8.85532C75.8028 9.0522 76.0665 9.42833 76.0689 10.2044L76.0703 10.654L74.778 10.7294C73.0404 10.8306 72.4866 10.9851 71.8652 11.542C71.443 11.9203 71.2616 12.3457 71.2573 12.9672C71.2524 13.6715 71.4059 14.054 71.8846 14.5312C72.359 15.0039 72.8 15.1913 73.5529 15.2402C74.101 15.2757 74.5811 15.1771 75.0696 14.9287C75.3702 14.7759 75.8556 14.3408 76.016 14.0804L76.1337 13.8895L76.1339 14.5097L76.1341 15.1299H76.9041H77.674L77.6526 12.2834C77.6318 9.4997 77.6281 9.42884 77.4868 9.07758C77.2213 8.41736 76.7095 7.9656 75.9056 7.68202C75.4098 7.50709 74.2942 7.45983 73.7224 7.58953ZM78.3669 7.95784C78.4356 8.14148 79.0498 9.83315 79.7316 11.7171L80.9712 15.1424L80.8143 15.6073C80.6047 16.229 80.3485 16.4934 79.8577 16.595C79.6575 16.6364 79.3839 16.6557 79.2498 16.6377L79.0058 16.6051V17.2283C79.0058 17.9457 78.9914 17.9288 79.6056 17.9288C80.1268 17.9288 80.6835 17.8232 81.0445 17.6558C81.4582 17.464 81.9353 16.9513 82.2138 16.3989C82.3934 16.0426 85.1886 8.37131 85.3705 7.7352C85.3997 7.6333 85.3327 7.62388 84.5768 7.62388H83.7511L82.837 10.5659C82.3342 12.184 81.9036 13.5449 81.8802 13.5901C81.8448 13.6583 81.3691 12.1891 80.1077 8.11687L79.955 7.62388H79.0984H78.2418L78.3669 7.95784ZM76.0699 12.1561C76.0697 12.3748 76.0399 12.6603 76.0035 12.7907C75.9051 13.1441 75.5714 13.5341 75.1797 13.7535C74.8774 13.9227 74.7554 13.9515 74.2543 13.9719C73.7432 13.9927 73.6443 13.9781 73.39 13.8443C73.0704 13.6761 72.8156 13.2739 72.8158 12.9378C72.816 12.5005 73.1885 12.0892 73.7114 11.9488C73.9339 11.889 75.0789 11.7882 75.7672 11.7676L76.0703 11.7586L76.0699 12.1561Z" fill="#4B5563"/>
<path d="M97.2957 5.69592L93.0818 17H91.3808L95.5947 5.69592H97.2957Z" fill="#4B5563"/>
<path fill-rule="evenodd" clip-rule="evenodd" d="M111.536 3.11056C109.783 3.24215 108.15 3.99383 106.837 5.27407C105.285 6.78664 104.441 8.80684 104.441 11.009C104.441 12.6025 104.868 14.0619 105.722 15.3796C106.958 17.2885 108.895 18.5404 111.116 18.8655C111.787 18.9637 113.184 18.8999 113.835 18.7412C115.031 18.4498 116.179 17.8696 117.035 17.1235L117.295 16.8965L117.719 17.2462C118.694 18.0508 119.978 18.6274 121.27 18.8411C121.839 18.9353 122.94 18.9459 123.527 18.8627C125.104 18.6394 126.594 17.901 127.738 16.7757C129.042 15.4948 129.826 13.9577 130.087 12.1714C130.752 7.62972 127.46 3.41568 123.006 3.10674C122.366 3.06236 121.512 3.11547 120.94 3.23527C119.752 3.48377 118.359 4.17103 117.542 4.91084L117.305 5.12575L116.989 4.85535C115.887 3.91045 114.252 3.22143 112.892 3.12823C112.679 3.11361 112.402 3.09496 112.278 3.08675C112.154 3.07853 111.82 3.08928 111.536 3.11056ZM118.349 6.35945L118.618 6.74691L117.985 6.76138C117.637 6.76933 117.07 6.76933 116.725 6.76138L116.098 6.74691L116.356 6.34519L116.614 5.94346L117.346 5.95772L118.079 5.97198L118.349 6.35945ZM119.111 7.66392C119.111 7.67099 119.179 7.84778 119.261 8.05676C119.344 8.26568 119.412 8.44588 119.412 8.45714C119.412 8.4684 118.462 8.4776 117.301 8.4776H115.191L115.393 8.0643L115.595 7.651H117.353C118.319 7.651 119.111 7.65684 119.111 7.66392ZM109.884 9.83373C109.902 10.2387 109.916 10.7663 109.917 11.0065C109.917 11.2691 109.935 11.4235 109.962 11.3939C109.987 11.3669 110.222 10.845 110.483 10.2341L110.958 9.12337L111.697 9.10906C112.386 9.09574 112.434 9.10106 112.409 9.18656C112.377 9.29846 111.725 12.7631 111.725 12.8249C111.725 12.8491 111.521 12.8689 111.272 12.8689C110.828 12.8689 110.82 12.8665 110.845 12.7526C110.948 12.2801 111.323 10.1539 111.309 10.1135C111.3 10.0856 111.024 10.6942 110.696 11.4658L110.099 12.8689H109.69H109.281L109.221 11.7452C109.189 11.1272 109.162 10.5125 109.163 10.3792C109.164 9.84623 109.069 10.1465 108.838 11.4122C108.705 12.1423 108.585 12.7688 108.572 12.8043C108.557 12.8486 108.424 12.8689 108.15 12.8689C107.792 12.8689 107.752 12.8593 107.776 12.7785C107.801 12.6942 108.46 9.16801 108.46 9.1196C108.46 9.10746 108.773 9.09754 109.155 9.09754H109.851L109.884 9.83373ZM121.901 9.34294C121.882 9.47793 121.854 9.64062 121.84 9.70458C121.814 9.81265 121.829 9.82082 122.05 9.82082H122.288L122.255 9.98872C122.237 10.081 122.209 10.2438 122.193 10.3504C122.163 10.5422 122.16 10.5441 121.927 10.5441H121.692L121.557 11.2713C121.39 12.1745 121.412 12.2431 121.861 12.2034C121.991 12.1919 121.998 12.2351 121.92 12.6064C121.87 12.8487 121.854 12.8683 121.681 12.9054C121.354 12.9757 120.946 12.9503 120.797 12.8503C120.603 12.7192 120.501 12.441 120.541 12.1494C120.57 11.9396 120.978 9.60342 121.05 9.23961C121.078 9.09796 121.079 9.09754 121.507 9.09754H121.935L121.901 9.34294ZM126.695 9.91035C127.206 10.1732 127.452 10.7062 127.377 11.3871C127.27 12.362 126.725 12.8979 125.78 12.9585C124.79 13.0221 124.248 12.5835 124.196 11.6763C124.159 11.0479 124.36 10.4916 124.745 10.1571C125.257 9.71264 126.103 9.60554 126.695 9.91035ZM114.402 9.8312C114.513 9.8653 114.677 9.965 114.768 10.0527C115.048 10.325 115.05 10.5508 114.782 12.1583L114.664 12.8684L114.3 12.8686C113.947 12.8689 113.936 12.865 113.936 12.7425V12.6161L113.654 12.7683C113.425 12.8927 113.312 12.9205 113.039 12.9203C112.484 12.92 112.177 12.6341 112.179 12.1198C112.181 11.3835 112.737 10.9559 113.695 10.9523C114.09 10.9508 114.129 10.9415 114.154 10.8423C114.191 10.6969 114.108 10.5499 113.955 10.4899C113.779 10.4211 113.315 10.4305 112.944 10.5106C112.586 10.5876 112.597 10.603 112.697 10.1577L112.755 9.90048L113.032 9.8406C113.404 9.75996 114.154 9.75479 114.402 9.8312ZM117.401 9.88539C117.523 9.94935 117.692 10.0911 117.776 10.2003C117.925 10.3925 117.93 10.4162 117.93 10.9236C117.93 11.2121 117.914 11.4889 117.894 11.5386C117.861 11.62 117.767 11.629 116.946 11.629H116.033L116.065 11.792C116.104 11.9904 116.17 12.077 116.36 12.178C116.551 12.2796 117.198 12.2773 117.528 12.1739C117.666 12.1305 117.782 12.0948 117.786 12.0945C117.808 12.0926 117.643 12.7967 117.614 12.8256C117.525 12.9148 116.734 12.9777 116.39 12.9229C115.506 12.7818 115.132 12.2891 115.207 11.3651C115.265 10.6548 115.674 10.0483 116.234 9.84288C116.549 9.72746 117.142 9.74906 117.401 9.88539ZM120.346 9.79963C120.447 9.82743 120.449 9.84313 120.395 10.1477L120.339 10.4666L119.967 10.4527C119.407 10.432 119.158 10.5505 119.236 10.8008C119.25 10.8488 119.417 10.9626 119.606 11.0537C120.015 11.2511 120.208 11.4431 120.269 11.7136C120.392 12.2612 120.091 12.7461 119.549 12.8707C119.279 12.9329 118.043 12.9253 117.981 12.861C117.963 12.8424 117.976 12.6831 118.009 12.5068L118.071 12.1863L118.251 12.2186C118.993 12.3513 119.412 12.2816 119.412 12.0254C119.412 11.8695 119.351 11.8176 118.898 11.5835C118.41 11.332 118.291 11.1528 118.317 10.7126C118.344 10.2654 118.542 10.0095 118.988 9.84623C119.186 9.7736 120.134 9.74105 120.346 9.79963ZM124.416 9.81307C124.521 9.84649 124.521 9.84871 124.372 10.2599L124.221 10.6732H124.007C123.747 10.6732 123.628 10.7724 123.491 11.1031C123.402 11.3171 123.196 12.1858 123.107 12.7268L123.075 12.9205H122.65C122.256 12.9205 122.225 12.9129 122.225 12.8154C122.225 12.7576 122.338 12.0842 122.477 11.319C122.615 10.5539 122.728 9.90373 122.728 9.87434C122.728 9.84184 122.887 9.82082 123.134 9.82082H123.54L123.506 10.0404L123.471 10.2599L123.646 10.0882C123.742 9.99373 123.908 9.88431 124.015 9.84504C124.229 9.76647 124.261 9.76394 124.416 9.81307ZM116.428 10.5486C116.312 10.6425 116.146 10.8968 116.146 10.9806C116.146 10.9963 116.384 11.009 116.674 11.009H117.201V10.8517C117.201 10.4911 116.729 10.3058 116.428 10.5486ZM125.742 10.4981C125.38 10.6478 125.162 11.1067 125.2 11.6418C125.219 11.9139 125.243 11.9734 125.382 12.1017C125.588 12.2905 125.772 12.2901 126.028 12.0999C126.277 11.9142 126.401 11.6516 126.433 11.2422C126.458 10.922 126.39 10.6877 126.235 10.5592C126.131 10.4725 125.879 10.4413 125.742 10.4981ZM113.333 11.5621C113.166 11.6251 113.032 11.8046 113.032 11.9658C113.032 12.1758 113.166 12.3006 113.393 12.3006C113.677 12.3006 113.915 12.0552 114.005 11.6677L114.038 11.5257L113.723 11.5298C113.55 11.532 113.374 11.5466 113.333 11.5621ZM127.338 12.5589C127.287 12.6427 127.289 12.6842 127.346 12.7785C127.41 12.8849 127.409 12.8887 127.333 12.8238C127.235 12.7406 127.225 12.605 127.31 12.5176C127.398 12.4263 127.409 12.4419 127.338 12.5589ZM127.701 12.6622C127.701 12.7121 127.664 12.7848 127.618 12.8238C127.542 12.8887 127.541 12.8849 127.605 12.7785C127.665 12.6788 127.665 12.6457 127.605 12.546C127.541 12.4396 127.542 12.4358 127.618 12.5006C127.664 12.5396 127.701 12.6124 127.701 12.6622ZM127.433 12.7268C127.419 12.7624 127.408 12.7333 127.408 12.6622C127.408 12.5912 127.419 12.5622 127.433 12.5977C127.447 12.6332 127.447 12.6913 127.433 12.7268ZM127.534 12.7268C127.52 12.7624 127.508 12.7333 127.508 12.6622C127.508 12.5912 127.52 12.5622 127.534 12.5977C127.548 12.6332 127.548 12.6913 127.534 12.7268ZM119.059 14.4058C119.059 14.4272 118.973 14.6073 118.867 14.8062L118.676 15.1679L117.313 15.1816L115.951 15.1953L115.74 14.82C115.624 14.6135 115.52 14.4272 115.508 14.4058C115.497 14.3845 116.291 14.3671 117.274 14.3671C118.256 14.3671 119.06 14.3845 119.059 14.4058ZM129.179 15.2712C129.103 15.3908 129.103 15.4098 129.179 15.5295C129.277 15.683 129.459 15.6989 129.578 15.5642C129.686 15.4414 129.683 15.3336 129.569 15.2275C129.436 15.1041 129.274 15.1222 129.179 15.2712ZM129.342 15.4649C129.328 15.5005 129.317 15.4714 129.317 15.4003C129.317 15.3293 129.328 15.3003 129.342 15.3358C129.356 15.3713 129.356 15.4294 129.342 15.4649ZM129.443 15.4649C129.429 15.5005 129.418 15.4714 129.418 15.4003C129.418 15.3293 129.429 15.3003 129.443 15.3358C129.457 15.3713 129.457 15.4294 129.443 15.4649ZM117.962 16.1624C117.907 16.2405 117.736 16.4313 117.583 16.5863L117.303 16.8682L117.122 16.6896C117.023 16.5914 116.851 16.4007 116.74 16.2657L116.539 16.0203H117.301H118.062L117.962 16.1624Z" fill="#4B5563"/>
</svg>
