<svg width="24" height="22" viewBox="0 0 24 22" fill="none" xmlns="http://www.w3.org/2000/svg">
<path fill-rule="evenodd" clip-rule="evenodd" d="M0.548377 0.0854548C0.33442 0.256338 0.311903 0.418697 0.345815 1.54742C0.422983 4.11741 0.721128 5.86945 1.33474 7.35894C2.24663 9.57258 3.71657 10.5699 6.07179 10.5729C6.98035 10.574 7.84566 10.3957 8.60039 10.0517C8.79675 9.96226 8.96376 9.89543 8.9716 9.90323C9.08213 10.0138 9.64055 11.4669 9.87743 12.2604C10.4965 14.3343 10.9002 17.2864 10.903 19.7585C10.9035 20.2098 10.9249 20.6546 10.9505 20.747C11.059 21.1375 11.5337 21.2862 11.8052 21.0147C11.97 20.8499 11.9971 20.722 11.9979 20.1061C11.9986 19.5363 12.1009 18.2326 12.1998 17.5328C12.504 15.38 13.1697 13.3721 14.0827 11.8532C14.1967 11.6635 14.2954 11.5016 14.3021 11.4933C14.3087 11.485 14.4338 11.5758 14.5801 11.6951C14.7264 11.8143 15.0512 12.0097 15.3019 12.1291C16.0998 12.5092 16.8738 12.6702 17.9055 12.6705C19.6221 12.671 20.8542 12.1506 21.7367 11.0526C22.9447 9.54947 23.5454 7.21463 23.6483 3.62286C23.695 1.99224 23.7799 2.07178 22.0343 2.11053C20.1733 2.15187 18.9389 2.29622 17.6656 2.62144C15.4346 3.1913 14.049 4.19002 13.4483 5.66133C13.0734 6.57942 12.9292 8.21017 13.1902 8.57865C13.3103 8.74825 13.5857 8.82911 13.7755 8.75049C13.8536 8.71817 14.0854 8.50777 14.2906 8.28296C15.2378 7.24558 16.4593 6.32038 17.7838 5.63712C18.247 5.39819 18.3283 5.37048 18.5072 5.39062C18.7899 5.42248 18.9836 5.6188 18.9836 5.87332C18.9836 6.15884 18.8805 6.26546 18.3433 6.5353C16.9924 7.21391 15.9909 7.9344 14.9829 8.95282C13.5236 10.4271 12.4113 12.3453 11.7791 14.4776C11.5857 15.13 11.612 15.1544 11.426 14.1521C10.9548 11.6128 10.0474 9.26441 8.90847 7.63703C7.94972 6.26701 7.01454 5.31806 5.76926 4.45165C5.28829 4.117 5.11459 3.92027 5.11459 3.71019C5.11459 3.42987 5.24258 3.266 5.53361 3.17361C5.67851 3.12762 5.86676 3.22284 6.45922 3.64177C7.88158 4.64761 8.70723 5.47727 9.54688 6.7447C9.72145 7.00815 9.91859 7.26979 9.985 7.32608C10.1573 7.47217 10.4421 7.46592 10.625 7.312C10.7996 7.16513 10.8436 7.0046 10.9075 6.28091C11.029 4.90733 10.6859 3.49044 10.0186 2.61005C9.32996 1.70139 8.0005 0.950262 6.329 0.525493C5.04676 0.199681 3.7849 0.0524997 1.94671 0.0144396C0.691592 -0.0115415 0.668437 -0.010402 0.548377 0.0854548Z" fill="#63A60D"/>
</svg>
