<svg width="18" height="15" viewBox="0 0 18 15" fill="none" xmlns="http://www.w3.org/2000/svg">
<path fill-rule="evenodd" clip-rule="evenodd" d="M6.7515 0.875001C6.86259 0.875346 6.9711 0.90858 7.06333 0.970512C7.15556 1.03244 7.22739 1.1203 7.26975 1.223L11.9963 12.7018L13.9163 7.976C13.9583 7.87227 14.0304 7.78345 14.1233 7.72092C14.2161 7.6584 14.3256 7.625 14.4375 7.625H17.4375C17.5867 7.625 17.7298 7.68427 17.8352 7.78975C17.9407 7.89524 18 8.03832 18 8.1875C18 8.33669 17.9407 8.47976 17.8352 8.58525C17.7298 8.69074 17.5867 8.75 17.4375 8.75H14.8162L12.5212 14.399C12.4793 14.5026 12.4075 14.5914 12.3149 14.6541C12.2223 14.7167 12.1132 14.7503 12.0014 14.7506C11.8896 14.751 11.7802 14.718 11.6873 14.6559C11.5943 14.5938 11.522 14.5054 11.4795 14.402L6.74775 2.9075L4.45725 8.40425C4.41444 8.50677 4.34224 8.59431 4.24974 8.65584C4.15724 8.71737 4.04859 8.75014 3.9375 8.75H0.5625C0.413316 8.75 0.270242 8.69074 0.164752 8.58525C0.0592632 8.47976 0 8.33669 0 8.1875C0 8.03832 0.0592632 7.89524 0.164752 7.78975C0.270242 7.68427 0.413316 7.625 0.5625 7.625H3.5625L6.231 1.2215C6.27374 1.11873 6.34601 1.03094 6.43867 0.969264C6.53132 0.907584 6.64019 0.874779 6.7515 0.875001Z" fill="#FF6ED6"/>
</svg>
