<svg width="14" height="14" viewBox="0 0 14 14" fill="none" xmlns="http://www.w3.org/2000/svg">
<path d="M7.00065 13.6673C3.32043 13.6633 0.338026 10.6809 0.333984 7.00066V6.86733C0.407272 3.20368 3.42371 0.285967 7.08777 0.334583C10.7518 0.383199 13.6898 3.37992 13.6658 7.04422C13.6419 10.7085 10.665 13.6666 7.00065 13.6673ZM6.98998 12.334H7.00065C9.94513 12.3311 12.3301 9.94248 12.3287 6.998C12.3272 4.05352 9.9398 1.66733 6.99532 1.66733C4.05084 1.66733 1.66346 4.05352 1.66198 6.998C1.66051 9.94248 4.04551 12.3311 6.98998 12.334ZM7.66732 11.0007H6.33398V9.66733H7.66732V11.0007ZM7.66732 9.00066H6.33398C6.31291 8.13244 6.76474 7.32119 7.51398 6.882C7.95398 6.54466 8.33398 6.254 8.33398 5.66733C8.33398 4.93095 7.73703 4.334 7.00065 4.334C6.26427 4.334 5.66732 4.93095 5.66732 5.66733H4.33398V5.60733C4.3447 4.65462 4.86287 3.78 5.6933 3.31293C6.52373 2.84586 7.54025 2.85729 8.35997 3.34293C9.17968 3.82856 9.67804 4.71462 9.66732 5.66733C9.61958 6.38667 9.23376 7.04084 8.62732 7.43066C8.07912 7.77479 7.72381 8.35587 7.66732 9.00066Z" fill="#D1D5DB"/>
</svg>
