<svg width="16" height="16" viewBox="0 0 16 16" fill="none" xmlns="http://www.w3.org/2000/svg">
<path d="M8 15.5C3.85975 15.4955 0.504547 12.1403 0.5 8V7.85C0.582449 3.7284 3.97594 0.445965 8.098 0.500658C12.2201 0.555351 15.5253 3.92666 15.4983 8.049C15.4714 12.1713 12.1224 15.4992 8 15.5ZM7.988 14H8C11.3125 13.9967 13.9957 11.3095 13.994 7.997C13.9923 4.68446 11.3065 2 7.994 2C4.68146 2 1.99566 4.68446 1.994 7.997C1.99234 11.3095 4.67546 13.9967 7.988 14ZM8.75 12.5H7.25V11H8.75V12.5ZM8.75 10.25H7.25C7.2263 9.27325 7.7346 8.36059 8.5775 7.8665C9.0725 7.487 9.5 7.16 9.5 6.5C9.5 5.67157 8.82843 5 8 5C7.17157 5 6.5 5.67157 6.5 6.5H5V6.4325C5.01206 5.3607 5.595 4.37675 6.52923 3.8513C7.46346 3.32584 8.60705 3.33871 9.52923 3.88505C10.4514 4.43139 11.0121 5.4282 11 6.5C10.9463 7.30926 10.5122 8.04519 9.83 8.48375C9.21328 8.87089 8.81355 9.52461 8.75 10.25Z" fill="#9CA3AF"/>
</svg>
