<svg width="36" height="62" viewBox="0 0 36 62" fill="none" xmlns="http://www.w3.org/2000/svg">
<path d="M11.0221 42.5788V39.9921C11.0221 37.9664 11.2596 36.2009 11.7346 34.6954C12.2095 33.1898 13.0058 31.7801 14.1234 30.4662C15.241 29.1249 16.7497 27.7289 18.6496 26.2781C20.6054 24.7726 22.156 23.4724 23.3015 22.3775C24.475 21.2826 25.3132 20.1876 25.8161 19.0927C26.3469 17.9704 26.6123 16.6702 26.6123 15.1921C26.6123 12.8653 25.8021 11.0998 24.1816 9.89536C22.5891 8.66358 20.3399 8.04768 17.4342 8.04768C14.8638 8.04768 12.447 8.40353 10.1839 9.11523C7.92084 9.82693 5.68568 10.7166 3.47846 11.7841L0 4.55762C2.54249 3.18896 5.29453 2.09404 8.25611 1.27285C11.2456 0.424283 14.5285 0 18.1048 0C23.8044 0 28.2049 1.35497 31.3062 4.0649C34.4354 6.77483 36 10.347 36 14.7815C36 17.2177 35.6088 19.3117 34.8265 21.0636C34.0442 22.7881 32.8847 24.3894 31.3481 25.8675C29.8393 27.3183 28.0093 28.8512 25.858 30.4662C24.0978 31.8349 22.7427 33.0256 21.7928 34.0384C20.8708 35.0238 20.2282 36.023 19.865 37.0358C19.5297 38.0486 19.362 39.2667 19.362 40.6901V42.5788H11.0221ZM9.42957 55.8C9.42957 53.5554 10.0163 51.9815 11.1898 51.0781C12.3912 50.1475 13.858 49.6821 15.5902 49.6821C17.2666 49.6821 18.7055 50.1475 19.9069 51.0781C21.1083 51.9815 21.709 53.5554 21.709 55.8C21.709 57.9898 21.1083 59.5775 19.9069 60.5629C18.7055 61.521 17.2666 62 15.5902 62C13.858 62 12.3912 61.521 11.1898 60.5629C10.0163 59.5775 9.42957 57.9898 9.42957 55.8Z" fill="white"/>
</svg>
