<svg width="95" height="94" viewBox="0 0 95 94" fill="none" xmlns="http://www.w3.org/2000/svg">
<path fill-rule="evenodd" clip-rule="evenodd" d="M38.6614 41.9233C36.1176 42.4505 34.4142 44.4996 34.2679 47.2077C34.1113 50.1079 35.1826 52.0721 37.4959 53.1269C38.278 53.4836 38.5565 53.5262 40.0873 53.5236C41.5098 53.5213 41.928 53.4649 42.538 53.1932C43.5337 52.7497 44.7454 51.6155 45.2266 50.6765C45.8887 49.3845 45.8642 49.3558 44.1024 49.3626L42.5821 49.3684L42.2703 49.848C41.2734 51.3808 38.7802 51.3549 37.7226 49.8008C37.3636 49.2733 37.2737 48.9532 37.2259 48.0344C37.1563 46.6915 37.4372 45.8423 38.1791 45.1528C39.4073 44.0118 41.5407 44.3007 42.4061 45.7254C42.6763 46.1702 42.685 46.1725 44.1503 46.1725C45.8843 46.1725 45.8985 46.1513 45.1449 44.6849C44.5636 43.5536 43.5553 42.654 42.3958 42.2322C41.4166 41.8758 39.6108 41.7266 38.6614 41.9233ZM49.5306 42.4109C47.6464 43.1145 46.609 44.7644 46.7483 46.8365C46.8373 48.1628 47.2249 48.9491 48.2013 49.7849C49.3925 50.8046 50.0584 50.9488 53.5748 50.9488C57.1397 50.9488 57.7764 50.8049 59.0188 49.7186C60.8437 48.1231 60.9378 45.1663 59.2182 43.4535C58.0019 42.2422 57.3145 42.0771 53.5299 42.0865C50.7209 42.0936 50.2862 42.1288 49.5306 42.4109ZM56.5319 44.8543C57.2977 45.1108 57.8347 45.9255 57.7335 46.6771C57.6905 46.9963 57.5266 47.398 57.3693 47.5699C56.8036 48.1877 56.2212 48.2953 53.447 48.2953C50.9646 48.2953 50.7841 48.2756 50.2867 47.9496C49.5963 47.4971 49.336 46.9909 49.424 46.2714C49.5074 45.5886 50.0099 45.008 50.6816 44.8182C51.4042 44.6141 55.8973 44.6417 56.5319 44.8543ZM59.5466 50.9493C59.3626 51.0746 59.1318 51.4132 59.0341 51.7016C58.7218 52.6216 59.4527 53.6023 60.4507 53.6023C61.8566 53.6023 62.4661 51.727 61.3149 50.9427C60.8935 50.6557 59.9726 50.659 59.5466 50.9493Z" fill="url(#paint0_linear_1639_61595)"/>
<path d="M47.9552 87.3315C50.138 87.3315 51.9074 85.5755 51.9074 83.4094C51.9074 81.2433 50.138 79.4873 47.9552 79.4873C45.7724 79.4873 44.0029 81.2433 44.0029 83.4094C44.0029 85.5755 45.7724 87.3315 47.9552 87.3315Z" fill="#F7BF91"/>
<path d="M78.6505 30.7222C80.8333 30.7222 82.6028 28.9662 82.6028 26.8C82.6028 24.6339 80.8333 22.8779 78.6505 22.8779C76.4677 22.8779 74.6982 24.6339 74.6982 26.8C74.6982 28.9662 76.4677 30.7222 78.6505 30.7222Z" fill="#7862ED"/>
<path d="M15.8097 34.645C17.9924 34.645 19.7619 32.889 19.7619 30.7229C19.7619 28.5568 17.9924 26.8008 15.8097 26.8008C13.6269 26.8008 11.8574 28.5568 11.8574 30.7229C11.8574 32.889 13.6269 34.645 15.8097 34.645Z" fill="#9F74DA"/>
<path d="M81.4169 30.592L80.7582 30.9842C80.363 31.115 80.0995 31.2457 79.7042 31.3764L79.309 31.5072V31.8994C79.1773 35.6908 77.8599 39.8743 75.3568 44.3194C73.5124 41.5739 71.2728 38.8284 68.7697 36.2137C67.8475 30.0691 66.0031 24.3166 63.5 19.6101C64.1587 19.6101 64.6857 19.4794 65.2127 19.4794C69.6919 19.4794 73.3806 20.656 75.752 22.8785L76.0155 23.14L76.279 23.0093C76.6742 22.7478 76.9377 22.617 77.3329 22.617L78.1233 22.3556L77.5964 21.7019C74.6981 18.8257 70.4823 17.3876 65.0809 17.3876C64.1587 17.3876 63.1048 17.3876 62.1826 17.5183C58.2303 11.2429 53.2242 7.84375 47.8227 7.84375C42.4213 7.84375 37.5469 11.2429 33.5946 17.3876C32.5407 17.2568 31.6185 17.2568 30.6963 17.2568C24.6362 17.2568 19.8935 19.2179 17.1269 22.8785C16.4682 23.6629 15.9412 24.5781 15.546 25.4933L15.2825 26.1469H15.9412C16.3365 26.1469 16.5999 26.2777 16.9952 26.2777L17.3904 26.4084L17.5221 26.0162C17.7856 25.3625 18.1808 24.7088 18.7078 24.0552C21.0792 20.9175 25.1632 19.3486 30.5646 19.3486C31.0915 19.3486 31.6185 19.3486 32.2772 19.4794C29.7741 24.1859 27.9297 29.8076 27.0075 36.083C24.5044 38.6977 22.2648 41.4432 20.4205 44.1887C18.7078 41.1817 17.6539 38.3055 16.9952 35.56L16.8634 35.1678L16.4682 35.2985C16.2047 35.2985 15.9412 35.4293 15.6777 35.2985L14.8873 35.1678L15.019 35.8215C15.6777 39.2207 17.1269 42.6198 19.2348 46.2805C13.7016 55.5628 12.9112 64.3222 17.1269 69.6824C19.8935 73.343 24.6362 75.3041 30.6963 75.3041C31.6185 75.3041 32.6724 75.3041 33.5946 75.1734C36.2295 79.2262 39.2595 82.2332 42.5531 83.6713L43.2118 83.9328V83.1483C43.2118 82.7561 43.3435 82.4946 43.3435 82.1024L43.4753 81.7102L43.08 81.5795C40.4452 80.4029 37.9421 78.0496 35.8342 74.7812C39.6547 74.1275 43.7387 72.9508 47.8227 71.1205C51.9067 72.9508 55.9907 74.2582 59.8112 74.7812C57.7034 77.9188 55.2003 80.2721 52.5654 81.5795L52.1702 81.7102L52.302 82.1024C52.4337 82.4946 52.4337 82.8869 52.4337 83.1483V83.9328L53.0924 83.6713C56.386 82.2332 59.5478 79.2262 62.0509 75.1734C63.1048 75.3041 64.027 75.3041 64.9492 75.3041C71.0093 75.3041 75.752 73.343 78.5186 69.6824C82.7343 64.1915 81.9439 55.5628 76.4107 46.2805C79.5725 41.051 81.1534 35.8215 81.1534 31.3764V30.592H81.4169ZM69.1649 39.7436C71.0093 41.8354 72.7219 44.0579 74.0394 46.2805C72.5902 48.503 71.0093 50.5948 69.1649 52.8173C69.4284 50.7255 69.4284 48.503 69.4284 46.2805C69.4284 44.0579 69.4284 41.9661 69.1649 39.7436ZM66.0031 59.0927C64.9492 64.3222 63.2365 69.0287 61.1287 72.8201C57.8351 72.2971 54.2781 71.382 50.5893 69.8131C54.1463 67.9828 57.7034 65.7603 61.1287 63.2763C62.7096 61.9689 64.4222 60.5308 66.0031 59.0927ZM34.7803 63.2763C38.0738 65.7603 41.6309 67.9828 45.3196 69.8131C41.6309 71.2513 38.0738 72.2971 34.7803 72.8201C32.5407 69.0287 30.9598 64.3222 29.9059 59.0927C31.355 60.5308 33.0677 61.9689 34.7803 63.2763ZM29.7741 33.4682C30.8281 28.2387 32.5407 23.5322 34.6486 19.7408C37.9421 20.2638 41.4991 21.1789 45.1879 22.7478C41.6309 24.5781 38.0738 26.8006 34.6486 29.2846C33.0677 30.592 31.355 32.0301 29.7741 33.4682ZM35.966 17.7798C39.3913 12.681 43.607 9.93554 47.9545 9.93554C52.302 9.93554 56.5177 12.681 59.943 17.7798C56.1225 18.4335 52.0385 19.6101 47.9545 21.4404C43.7387 19.6101 39.7865 18.4335 35.966 17.7798ZM60.9969 29.2846C57.7034 26.8006 54.1463 24.5781 50.4576 22.7478C54.1463 21.3097 57.7034 20.2638 60.9969 19.7408C63.2365 23.5322 64.8174 28.2387 65.8714 33.4682C64.4222 32.0301 62.7096 30.592 60.9969 29.2846ZM28.5884 46.2805C28.5884 43.1428 28.8519 40.1358 29.2471 37.1289C31.355 35.0371 33.7264 32.9453 36.2295 30.9842C39.9182 28.108 43.8705 25.7547 47.9545 23.7937C52.0385 25.7547 55.9907 28.108 59.6795 30.9842C62.1826 32.8145 64.5539 34.9063 66.6618 37.1289C67.057 40.1358 67.3205 43.1428 67.3205 46.2805C67.3205 49.4182 67.057 52.4251 66.6618 55.4321C64.5539 57.5239 62.1826 59.6157 59.6795 61.446C55.9907 64.3222 52.0385 66.6755 47.9545 68.6365C43.8705 66.6755 39.9182 64.3222 36.2295 61.446C33.7264 59.6157 31.355 57.5239 29.2471 55.4321C28.7202 52.4251 28.5884 49.4182 28.5884 46.2805ZM76.9377 68.375C74.5663 71.5127 70.4823 73.0816 65.0809 73.0816C64.5539 73.0816 64.027 73.0816 63.3683 72.9508C65.8714 68.2443 67.7157 62.6226 68.6379 56.3472C71.141 53.7325 73.3806 50.987 75.225 48.2415C79.9677 56.478 80.4947 63.7992 76.9377 68.375ZM26.6123 52.8173C24.7679 50.7255 23.0553 48.503 21.7379 46.2805C23.187 44.0579 24.7679 41.9661 26.6123 39.7436C26.3488 41.8354 26.3488 44.0579 26.3488 46.2805C26.3488 48.3723 26.4806 50.5948 26.6123 52.8173ZM32.409 72.9508C31.7502 72.9508 31.2233 73.0816 30.6963 73.0816C25.2949 73.0816 21.2109 71.5127 18.8396 68.375C15.2825 63.7992 15.9412 56.478 20.5522 48.3723C22.3966 51.1177 24.6362 53.8632 27.1393 56.478C28.0615 62.6226 29.9059 68.375 32.409 72.9508Z" fill="url(#paint1_linear_1639_61595)"/>
<path d="M47.2953 94C21.2104 94 0 72.8206 0 46.9346C0 21.0487 21.2104 0 47.2953 0C73.3802 0 94.5906 21.0487 94.5906 46.9346C94.7223 72.8206 73.3802 94 47.2953 94ZM47.2953 1.17663C21.8691 1.17663 1.18568 21.7024 1.18568 46.9346C1.18568 72.1669 21.8691 92.6926 47.2953 92.6926C72.7214 92.6926 93.4049 72.1669 93.4049 46.9346C93.5366 21.7024 72.7214 1.17663 47.2953 1.17663Z" fill="url(#paint2_linear_1639_61595)"/>
<defs>
<linearGradient id="paint0_linear_1639_61595" x1="48.0858" y1="41.8359" x2="48.0858" y2="53.6023" gradientUnits="userSpaceOnUse">
<stop stop-color="#5C55FB"/>
<stop offset="0.539583" stop-color="#B87FCC"/>
<stop offset="1" stop-color="#FDC58A"/>
</linearGradient>
<linearGradient id="paint1_linear_1639_61595" x1="47.9306" y1="7.84375" x2="47.9306" y2="83.9328" gradientUnits="userSpaceOnUse">
<stop stop-color="#5C55FB"/>
<stop offset="0.539583" stop-color="#B87FCC"/>
<stop offset="1" stop-color="#FDC58A"/>
</linearGradient>
<linearGradient id="paint2_linear_1639_61595" x1="47.2956" y1="0" x2="47.2956" y2="94" gradientUnits="userSpaceOnUse">
<stop stop-color="#5C55FB"/>
<stop offset="0.539583" stop-color="#B87FCC"/>
<stop offset="1" stop-color="#FDC58A"/>
</linearGradient>
</defs>
</svg>
