<svg width="74" height="94" viewBox="0 0 74 94" fill="none" xmlns="http://www.w3.org/2000/svg">
<path d="M42.2715 80.483C42.3748 80.2783 42.3748 79.9711 42.2715 79.7663C41.548 77.104 41.0312 74.4417 39.3776 72.0865C38.4474 70.7554 38.3441 69.5266 39.2743 68.1955C39.791 67.3763 40.1011 66.4547 40.6178 65.4308C38.5508 65.4308 37.5173 64.0996 36.2771 62.8708C35.967 62.5637 35.5536 62.3589 35.1402 62.2565C33.6933 61.8469 32.2463 61.5397 30.7994 61.3349C30.386 61.2325 30.1793 61.0277 29.9726 60.6181C29.5592 59.5942 29.0424 58.5702 28.5257 57.6486H28.4223C28.4223 58.263 28.4223 58.9798 28.4223 59.5942C27.8022 59.799 27.4921 59.5942 27.2854 59.1846C25.9419 57.3414 24.4949 55.4983 23.1514 53.6552C22.9447 53.348 22.8413 53.0408 22.8413 52.6312C22.8413 51.1976 22.8413 49.8665 22.8413 48.4329C22.8413 48.1257 22.7379 47.7162 22.5312 47.5114C21.6011 45.9754 20.6709 44.5419 19.7407 43.0059C19.4307 42.3915 19.0173 42.2891 18.3972 42.3915C16.0201 42.8011 13.7463 43.3131 11.3692 43.3131C10.0257 43.3131 9.09549 42.8011 8.06197 41.982C8.78543 41.3676 9.5089 40.8556 10.2324 40.2412C9.61225 40.3436 8.99214 40.446 8.37203 40.5484C8.16532 40.5484 7.95862 40.7532 7.85527 40.958C5.99493 44.1323 4.75471 47.409 4.03124 50.9928C3.72119 52.5288 3.61784 54.0647 3.41113 55.7031C3.41113 56.8295 3.41113 58.0582 3.41113 59.1846C3.61784 60.5157 3.72119 61.7445 3.92789 63.0756C5.99493 73.6225 11.7826 81.507 21.291 86.7292C25.3217 88.982 29.7659 90.1083 34.4167 90.4155C34.6234 90.4155 34.7268 90.5179 34.9335 90.5179C36.1737 90.5179 37.4139 90.5179 38.5508 90.5179C39.3776 90.4155 40.2044 90.3131 41.0312 90.2107C41.0312 89.9035 40.9279 89.4939 40.9279 89.1868C40.8245 87.6508 40.5145 86.2173 41.0312 84.6813C41.6514 83.3502 41.9614 81.9166 42.2715 80.483Z" fill="url(#paint0_linear_1639_61609)"/>
<path d="M52.2967 38.501C51.8833 38.0914 51.5733 37.6819 51.3665 37.0675C50.8498 35.1219 50.023 33.4836 48.3693 32.1524C47.1291 31.1285 45.6822 31.2309 44.442 30.8213C44.2353 31.7429 44.3386 32.3572 45.0621 32.9716C45.7855 33.586 46.509 34.3028 47.1291 35.0195C47.7492 35.6339 48.266 36.3507 48.7827 36.9651C47.7492 37.8866 46.7157 37.989 45.4755 37.3747C45.1654 37.2723 44.9587 37.0675 44.6487 37.0675C43.8219 36.8627 43.5118 36.4531 43.7185 35.6339C43.7185 35.4291 43.7185 35.0195 43.5118 34.9171C42.685 34.5076 41.8582 34.2004 41.0314 33.8932C40.8246 34.9171 40.5146 35.8387 40.4112 36.8627C40.3079 37.5795 39.9978 37.8866 39.2744 37.989C38.7576 38.0914 37.9308 38.0914 37.7241 38.3986C37.5174 38.8082 37.6207 39.525 37.7241 40.1394C37.7241 40.3442 37.9308 40.549 38.0341 40.6514C39.0677 40.8561 40.2045 41.0609 41.3414 41.2657C41.5481 40.1394 41.7548 39.013 41.9615 37.7843C42.995 37.989 44.1319 37.989 45.0621 38.3986C45.9922 38.8082 46.8191 39.1154 47.8526 39.013C48.266 39.013 48.576 39.1154 48.7827 39.525C49.5062 41.2657 50.5397 42.6993 51.9867 43.928C52.5034 44.3376 52.9168 44.8496 53.3302 45.2592C54.157 46.0784 54.157 46.3856 53.5369 47.6143C51.4699 46.7951 49.7129 47.5119 47.7492 48.4335C45.7855 49.4575 44.1319 50.5838 42.7883 52.427C41.8582 53.6557 40.6179 54.7821 40.4112 56.5228C40.4112 56.6252 40.2045 56.83 40.1012 56.83C39.5844 56.83 38.9643 56.7276 38.4476 56.6252C37.8274 56.4204 37.2073 56.1132 36.5872 55.806C36.3805 55.7036 36.1738 55.7036 36.0705 55.806C35.2436 56.1132 34.5202 56.5228 33.6934 56.9324C33.9001 57.854 34.1068 58.6731 34.3135 59.4923C34.3135 59.5947 34.4168 59.5947 34.4168 59.6971C35.0369 58.2636 36.1738 58.1612 37.414 58.3659C37.414 59.1851 37.3107 59.9019 37.3107 60.8235C38.4475 60.9259 39.2744 61.4378 39.8945 62.3594C40.3079 63.0762 40.928 63.1786 41.6515 62.8714C42.2716 62.6666 42.995 62.3594 43.6152 62.4618C45.1654 62.6666 46.8191 63.0762 48.3693 63.3834C49.2995 63.5882 50.2297 63.6906 51.1598 63.9978C51.4699 64.1002 51.8833 64.2026 52.09 64.5097C53.7436 66.6601 55.7073 68.2984 58.0844 69.4248C58.7045 69.732 59.3246 70.1416 60.0481 70.5511C60.2548 70.6535 60.3582 70.7559 60.5649 70.8583C59.3246 73.2134 58.1878 75.4662 56.9476 77.7189C56.8442 77.9237 56.6375 78.0261 56.4308 78.1285C55.3973 78.6405 54.3638 79.05 53.3302 79.562C53.0202 79.6644 52.8135 79.9716 52.7101 80.2788C52.2967 81.3028 51.9867 82.2243 51.5733 83.2483C51.4699 83.5555 51.1598 83.9651 50.8498 84.1699C49.4029 85.1938 48.0593 86.1154 46.509 87.037C45.3721 87.6514 45.3721 88.7777 45.0621 89.8017C45.1654 89.8017 45.2688 89.8017 45.2688 89.8017C45.3721 89.8017 45.4755 89.8017 45.4755 89.6993C51.4699 88.1633 56.5341 85.1938 60.8749 80.8932C65.7325 75.9782 68.833 70.1415 70.0733 63.281C70.28 61.8474 70.3833 60.4139 70.59 59.0827C70.59 58.0588 70.59 57.1372 70.59 56.1132C70.59 55.9084 70.4867 55.7036 70.4867 55.4988C70.0732 49.9694 68.4196 44.8496 65.5258 40.2418C65.009 39.3202 65.009 39.3202 63.9755 39.525C63.8721 39.525 63.7688 39.525 63.6654 39.525C62.2185 39.6274 60.6682 39.8322 59.2213 39.9346C58.7045 39.9346 58.4978 40.1394 58.2911 40.549C57.9811 41.1633 57.4643 41.7777 57.0509 42.4945C56.4308 42.0849 55.8107 41.7777 55.3973 41.3681C54.157 40.2418 53.2269 39.3202 52.2967 38.501Z" fill="url(#paint1_linear_1639_61609)"/>
<path d="M37.1032 21.0934C43.0976 7.26986 52.296 7.37225 52.296 7.37225C42.0641 10.2394 38.4468 22.7317 38.4468 22.7317C52.1926 24.9845 56.2233 5.73391 56.2233 5.73391C56.2233 5.73391 46.0948 4.09557 40.3071 7.78184C34.5194 11.5705 37.1032 21.0934 37.1032 21.0934Z" fill="url(#paint2_linear_1639_61609)"/>
<path d="M21.187 19.455C26.1479 23.8581 35.1396 21.8101 35.1396 21.8101C35.553 22.1173 36.0697 23.0389 36.4831 24.0629C35.9664 24.0629 35.4496 24.0629 34.9328 24.0629C33.796 24.1653 32.6591 24.37 31.6256 24.4724C25.4245 25.4964 19.8435 28.0563 15.0893 32.2546C13.7457 33.3809 12.6088 34.7121 11.3686 35.9408C11.3686 36.0432 11.472 36.0432 11.472 36.1456C11.6787 36.0432 11.8854 36.0432 12.0921 35.9408C14.4692 35.2241 16.7429 34.6097 19.2234 34.4049C20.9803 34.3025 22.7373 33.8929 24.1842 32.869C24.5977 32.5618 25.0111 32.5618 25.4245 32.7666C26.2513 32.9714 27.1815 33.3809 28.1116 33.3809C29.5585 33.4833 30.9021 33.2785 32.3491 33.1761C32.5558 33.1761 32.8658 32.9714 33.0725 32.7666C33.4859 32.1522 33.8993 31.5378 34.3127 30.9234C34.4161 30.7186 34.7261 30.6162 34.9328 30.6162C35.7597 30.7186 36.6898 30.9234 37.5166 30.821C39.1703 30.7186 40.8239 30.5138 42.4775 30.309C42.6842 30.309 42.9943 30.1042 43.201 30.0019C43.8211 29.3875 44.4412 28.7731 45.0613 28.1587C46.1982 27.0324 47.5418 26.8276 49.0921 27.2371C49.7122 27.4419 50.4356 27.3395 51.1591 27.3395C51.1591 27.2372 51.1591 27.2371 51.1591 27.1348C48.5753 25.906 45.7848 25.0868 42.8909 24.5748C41.6507 24.37 40.4105 24.2677 39.1703 24.0629C38.6535 24.0629 38.1368 24.0629 37.62 24.0629C29.3518 5.52909 10.4384 3.07157 10.4384 3.07157C23.3574 1.63802 35.3463 15.9735 35.3463 15.9735C34.8295 13.3112 36.6898 9.52255 36.6898 9.52255C23.9775 -7.37287 6.09766 3.27636 6.09766 3.27636C11.9887 5.83628 16.2261 15.052 21.187 19.455ZM28.4217 30.7186C28.3183 30.7186 28.1116 30.6162 28.0083 30.6162C27.3882 30.309 26.768 29.8995 26.1479 29.4899C26.9748 28.8755 27.6982 28.3635 28.4217 27.7491H28.525C29.4552 28.3635 30.3854 28.2611 31.3155 27.8515C31.7289 27.6467 31.9356 27.7491 32.1423 28.1587C32.3491 28.5683 32.6591 28.9779 32.9692 29.4899C31.3155 30.0019 29.8686 30.309 28.4217 30.7186ZM41.6507 25.7012C41.7541 25.5988 41.9608 25.5988 42.1675 25.7012C42.7876 26.0084 43.4077 26.418 44.1312 26.8276C43.0977 27.6467 42.1675 28.5683 41.0306 29.0803C40.2038 29.4899 39.0669 29.4899 38.0334 29.4899C37.5166 29.4899 37.1032 28.9779 36.4831 28.6707C37.1032 28.3635 37.7234 27.9539 38.2401 27.6467C38.3435 27.6467 38.4468 27.5443 38.5502 27.4419C39.5837 26.8276 40.6172 26.3156 41.6507 25.7012Z" fill="url(#paint3_linear_1639_61609)"/>
<path d="M67.7991 37.0668C67.2824 36.35 66.2488 36.6572 66.2488 37.4764C70.5896 43.825 72.9667 51.6071 72.3466 59.9012C71.003 77.6158 56.3271 91.6441 38.4472 92.3609C18.2935 93.1801 1.55053 77.1038 1.55053 57.3413C1.55053 49.9688 3.41087 43.825 7.33824 38.1932C7.33824 37.374 6.20137 37.0668 5.78796 37.7836C1.75724 43.9274 -0.413155 51.4023 0.103605 59.3893C1.13712 77.6158 15.8131 92.5657 34.2097 93.8969C55.9137 95.5352 74.1036 78.435 74.1036 57.3413C74.0002 49.8664 71.7265 42.9034 67.7991 37.0668Z" fill="url(#paint4_linear_1639_61609)"/>
<defs>
<linearGradient id="paint0_linear_1639_61609" x1="22.8801" y1="40.2412" x2="22.8801" y2="90.5179" gradientUnits="userSpaceOnUse">
<stop stop-color="#F5CB98"/>
<stop offset="0.513542" stop-color="#F89CB9"/>
<stop offset="1" stop-color="#D476D0"/>
</linearGradient>
<linearGradient id="paint1_linear_1639_61609" x1="52.1417" y1="30.8213" x2="52.1417" y2="89.8017" gradientUnits="userSpaceOnUse">
<stop stop-color="#F5CB98"/>
<stop offset="0.513542" stop-color="#F89CB9"/>
<stop offset="1" stop-color="#D476D0"/>
</linearGradient>
<linearGradient id="paint2_linear_1639_61609" x1="46.3758" y1="5.37109" x2="46.3758" y2="22.9151" gradientUnits="userSpaceOnUse">
<stop stop-color="#F5CB98"/>
<stop offset="0.513542" stop-color="#F89CB9"/>
<stop offset="1" stop-color="#D476D0"/>
</linearGradient>
<linearGradient id="paint3_linear_1639_61609" x1="28.6284" y1="-0.0351563" x2="28.6284" y2="36.1456" gradientUnits="userSpaceOnUse">
<stop stop-color="#F5CB98"/>
<stop offset="0.513542" stop-color="#F89CB9"/>
<stop offset="1" stop-color="#D476D0"/>
</linearGradient>
<linearGradient id="paint4_linear_1639_61609" x1="37.066" y1="36.665" x2="37.066" y2="94.0056" gradientUnits="userSpaceOnUse">
<stop stop-color="#F5CB98"/>
<stop offset="0.513542" stop-color="#F89CB9"/>
<stop offset="1" stop-color="#D476D0"/>
</linearGradient>
</defs>
</svg>
