<svg width="87" height="94" viewBox="0 0 87 94" fill="none" xmlns="http://www.w3.org/2000/svg">
<path d="M33.5143 13.4275L30.3648 12.9744L28.9568 10.1492C28.9184 10.0719 28.8551 10.0092 28.7769 9.97119C28.5809 9.87542 28.3428 9.95522 28.2448 10.1492L26.8368 12.9744L23.6873 13.4275C23.6004 13.4397 23.5211 13.4803 23.4603 13.5416C23.3868 13.6164 23.3463 13.717 23.3477 13.8213C23.3491 13.9256 23.3923 14.025 23.4677 14.0978L25.7465 16.2968L25.2081 19.402C25.1955 19.4742 25.2036 19.5485 25.2314 19.6164C25.2593 19.6843 25.3058 19.7432 25.3657 19.7862C25.4256 19.8293 25.4966 19.8549 25.5704 19.8601C25.6443 19.8653 25.7182 19.85 25.7837 19.8157L28.6008 18.3497L31.4179 19.8157C31.4948 19.8562 31.5841 19.8698 31.6697 19.855C31.8856 19.8182 32.0307 19.6156 31.9935 19.402L31.4551 16.2968L33.7339 14.0978C33.7959 14.0377 33.8368 13.9591 33.8492 13.8732C33.8827 13.6583 33.7314 13.4594 33.5143 13.4275Z" fill="url(#paint0_linear_1639_61576)"/>
<path d="M63.8659 13.4275L60.7163 12.9744L59.3084 10.1492C59.2699 10.0719 59.2067 10.0092 59.1285 9.97119C58.9325 9.87542 58.6943 9.95522 58.5963 10.1492L57.1884 12.9744L54.0388 13.4275C53.952 13.4397 53.8726 13.4803 53.8118 13.5416C53.7384 13.6164 53.6979 13.717 53.6993 13.8213C53.7006 13.9256 53.7438 14.025 53.8193 14.0978L56.098 16.2968L55.5597 19.402C55.547 19.4742 55.5551 19.5485 55.583 19.6164C55.6108 19.6843 55.6574 19.7432 55.7173 19.7862C55.7772 19.8293 55.8481 19.8549 55.922 19.8601C55.9959 19.8653 56.0698 19.85 56.1352 19.8157L58.9524 18.3497L61.7695 19.8157C61.8464 19.8562 61.9357 19.8698 62.0213 19.855C62.2371 19.8182 62.3823 19.6156 62.3451 19.402L61.8067 16.2968L64.0854 14.0978C64.1475 14.0377 64.1884 13.9591 64.2008 13.8732C64.2343 13.6583 64.083 13.4594 63.8659 13.4275Z" fill="url(#paint1_linear_1639_61576)"/>
<path d="M49.7814 4.31957L45.9319 3.75991L44.2111 0.269978C44.1641 0.174426 44.0868 0.0970744 43.9913 0.0500567C43.7517 -0.0682459 43.4606 0.0303396 43.3408 0.269978L41.62 3.75991L37.7706 4.31957C37.6644 4.33474 37.5674 4.38479 37.4931 4.46062C37.4033 4.55297 37.3538 4.67721 37.3555 4.80604C37.3572 4.93487 37.41 5.05775 37.5022 5.14769L40.2873 7.8641L39.6293 11.6998C39.6139 11.7891 39.6238 11.8808 39.6578 11.9647C39.6919 12.0486 39.7488 12.1213 39.822 12.1745C39.8952 12.2277 39.9819 12.2594 40.0722 12.2658C40.1625 12.2722 40.2528 12.2532 40.3328 12.211L43.776 10.4L47.2191 12.211C47.3131 12.261 47.4223 12.2777 47.5269 12.2595C47.7907 12.214 47.9681 11.9637 47.9226 11.6998L47.2646 7.8641L50.0497 5.14769C50.1255 5.07337 50.1756 4.9763 50.1907 4.87013C50.2317 4.60471 50.0467 4.359 49.7814 4.31957Z" fill="url(#paint2_linear_1639_61576)"/>
<path d="M14.0871 66.0401C14.0871 66.0401 4.53708 54.6569 15.2674 44.8845L15.8039 46.0658C15.8039 46.0658 16.6623 43.2737 18.8084 41.3407L18.9157 42.7367C18.9157 42.7367 21.3837 39.515 23.5298 38.6559L23.1005 40.2668L28.8949 36.2934L28.573 37.9042L33.8309 35.3269L33.6163 36.0786L39.518 34.4678L38.3376 38.8707L39.7326 38.4412C39.7326 38.4412 39.518 42.4145 38.9814 43.918L40.0545 43.4884C40.0545 43.4884 38.7668 47.6766 38.0157 48.8579L40.0545 47.6766C40.0545 47.6766 38.3376 53.1534 37.2646 54.3347L39.0887 53.4756C39.0887 53.4756 38.0157 57.3416 35.8696 58.845C35.8696 58.845 32.5432 70.1208 17.0916 67.8657C17.0916 67.8657 14.1944 73.772 14.1944 75.9198C14.1944 75.9198 12.7994 76.3494 12.9067 75.1681C12.9067 73.9868 23.1005 48.5357 33.1871 41.5554C32.9724 41.448 26.5343 43.4884 14.0871 66.0401Z" fill="url(#paint3_linear_1639_61576)"/>
<path d="M54.2184 38.5477C54.2184 38.5477 67.9533 32.7487 74.0695 45.9575L72.7819 46.1723C72.7819 46.1723 75.1426 47.8905 76.4302 50.4678L75.0353 50.1456C75.0353 50.1456 77.3959 53.3673 77.5033 55.8372L76.1083 54.9781L78.1471 61.7436L76.7521 60.8845L77.7179 66.6835L77.074 66.254L76.7521 72.2677L72.8892 69.7978V71.3012C72.8892 71.3012 69.1336 69.9052 67.9533 68.9387L68.0606 70.0126C68.0606 70.0126 64.5196 67.5426 63.5538 66.4687L64.0903 68.7239C64.0903 68.7239 59.4763 65.3948 58.6179 63.9988L58.9398 65.9318C58.9398 65.9318 55.6134 63.6766 54.755 61.3141C54.755 61.3141 44.9904 54.7634 51.8578 40.6954C51.8578 40.6954 47.1364 36.1851 45.0977 35.5408C45.0977 35.5408 45.0977 34.1447 46.1707 34.5743C47.2437 35.0038 68.4898 52.2934 72.2454 63.9988C72.0308 63.8914 72.0308 57.2333 54.2184 38.5477Z" fill="url(#paint4_linear_1639_61576)"/>
<path d="M59.3697 83.6525C59.3697 83.6525 54.2192 97.613 40.377 93.1027L41.1282 92.0288C41.1282 92.0288 38.231 92.5657 35.5484 91.7066L36.6214 90.9549C36.6214 90.9549 32.6512 90.4179 30.7197 88.9145L32.3293 88.485L25.9984 85.3707L27.6079 84.9411L22.7793 81.6121L23.5304 81.3973L19.2383 76.9944L23.6377 75.8131L22.5647 74.8466C22.5647 74.8466 26.213 73.021 27.7152 72.8062L26.9641 72.2693C26.9641 72.2693 31.2563 71.4101 32.6512 71.4101L30.6124 70.2289C30.6124 70.2289 36.1922 69.0476 37.8018 69.3698L36.1922 68.1885C36.1922 68.1885 40.0551 67.222 42.4158 68.2959C42.4158 68.2959 53.8972 65.6112 59.477 80.3234C59.477 80.3234 66.0225 80.0012 67.954 78.9274C67.954 78.9274 68.9197 79.8939 67.954 80.4308C66.8809 80.9677 39.7332 84.7263 28.681 79.3569C28.681 79.3569 33.5096 83.9746 59.3697 83.6525Z" fill="url(#paint5_linear_1639_61576)"/>
<path d="M34.1531 91.4909C30.0756 91.1687 28.0368 88.9135 28.0368 88.9135H12.3705C9.68795 88.9135 7.32728 87.5175 6.03964 85.1549C4.752 82.7924 4.752 80.0003 6.25425 77.7451L12.5851 67.5432C11.5121 66.0398 10.5464 63.4624 10.0099 61.959L1.85481 74.953C-0.505858 78.819 -0.613162 83.5441 1.5329 87.5175C3.78627 91.4909 7.8638 93.9608 12.3705 93.9608H36.8357C34.5823 93.2091 32.8655 92.2426 32.8655 92.2426L34.1531 91.4909Z" fill="url(#paint6_linear_1639_61576)"/>
<path d="M29.9682 34.4679L33.7239 33.0718L37.1576 27.4876C38.4452 25.3398 40.8059 24.0511 43.3812 24.0511C45.9564 24.0511 48.2098 25.3398 49.6048 27.4876L54.9699 36.1861C56.7941 35.7565 58.9401 35.6491 60.7643 35.7565L54.0042 24.8029C51.7508 21.1516 47.7806 18.8965 43.3812 18.8965C39.089 18.8965 35.1188 21.1516 32.7581 24.8029L26.8564 34.3605L30.3975 33.1792L29.9682 34.4679Z" fill="url(#paint7_linear_1639_61576)"/>
<path d="M85.015 74.9538L78.5768 64.5371C78.6841 66.7923 78.5768 68.4031 78.5768 68.4031L78.2549 67.8662L77.8257 73.0208L80.7229 77.6385C82.1178 79.8937 82.2251 82.6858 80.9375 85.0484C79.6498 87.4109 77.2891 88.807 74.6066 88.807H58.0818C56.4723 91.4917 54.5408 93.1025 52.6094 93.9616H74.4993C79.1133 93.9616 83.1908 91.5991 85.3369 87.5183C87.5903 83.6523 87.483 78.9272 85.015 74.9538Z" fill="url(#paint8_linear_1639_61576)"/>
<defs>
<linearGradient id="paint0_linear_1639_61576" x1="28.6008" y1="9.93066" x2="28.6008" y2="19.8611" gradientUnits="userSpaceOnUse">
<stop stop-color="#1CC7B6"/>
<stop offset="0.482292" stop-color="#3185D5"/>
<stop offset="1" stop-color="#6062DC"/>
</linearGradient>
<linearGradient id="paint1_linear_1639_61576" x1="58.9523" y1="9.93066" x2="58.9523" y2="19.8611" gradientUnits="userSpaceOnUse">
<stop stop-color="#1CC7B6"/>
<stop offset="0.482292" stop-color="#3185D5"/>
<stop offset="1" stop-color="#6062DC"/>
</linearGradient>
<linearGradient id="paint2_linear_1639_61576" x1="43.7759" y1="0" x2="43.7759" y2="12.267" gradientUnits="userSpaceOnUse">
<stop stop-color="#1CC7B6"/>
<stop offset="0.482292" stop-color="#3185D5"/>
<stop offset="1" stop-color="#6062DC"/>
</linearGradient>
<linearGradient id="paint3_linear_1639_61576" x1="25.1132" y1="34.4678" x2="25.1132" y2="75.996" gradientUnits="userSpaceOnUse">
<stop stop-color="#1CC7B6"/>
<stop offset="0.482292" stop-color="#3185D5"/>
<stop offset="1" stop-color="#6062DC"/>
</linearGradient>
<linearGradient id="paint4_linear_1639_61576" x1="61.6224" y1="34.4922" x2="61.6224" y2="72.2677" gradientUnits="userSpaceOnUse">
<stop stop-color="#1CC7B6"/>
<stop offset="0.482292" stop-color="#3185D5"/>
<stop offset="1" stop-color="#6062DC"/>
</linearGradient>
<linearGradient id="paint5_linear_1639_61576" x1="43.8107" y1="67.7891" x2="43.8107" y2="93.9999" gradientUnits="userSpaceOnUse">
<stop stop-color="#1CC7B6"/>
<stop offset="0.482292" stop-color="#3185D5"/>
<stop offset="1" stop-color="#6062DC"/>
</linearGradient>
<linearGradient id="paint6_linear_1639_61576" x1="18.4178" y1="61.959" x2="18.4178" y2="93.9608" gradientUnits="userSpaceOnUse">
<stop stop-color="#1CC7B6"/>
<stop offset="0.482292" stop-color="#3185D5"/>
<stop offset="1" stop-color="#6062DC"/>
</linearGradient>
<linearGradient id="paint7_linear_1639_61576" x1="43.8104" y1="18.8965" x2="43.8104" y2="36.1861" gradientUnits="userSpaceOnUse">
<stop stop-color="#1CC7B6"/>
<stop offset="0.482292" stop-color="#3185D5"/>
<stop offset="1" stop-color="#6062DC"/>
</linearGradient>
<linearGradient id="paint8_linear_1639_61576" x1="69.7797" y1="64.5371" x2="69.7797" y2="93.9616" gradientUnits="userSpaceOnUse">
<stop stop-color="#1CC7B6"/>
<stop offset="0.482292" stop-color="#3185D5"/>
<stop offset="1" stop-color="#6062DC"/>
</linearGradient>
</defs>
</svg>
