<svg width="20" height="19" viewBox="0 0 20 19" fill="none" xmlns="http://www.w3.org/2000/svg">
<path d="M11.0316 8.78946C9.51579 8.78946 9.51579 8.31199 9.51579 8.03157C9.51579 7.75115 10.0463 7.27368 11.0316 7.27368C12.0168 7.27368 12.085 7.75873 12.0926 8.03157H13.6084C13.5982 7.51526 13.4125 7.01782 13.0819 6.6211C12.7513 6.22438 12.2955 5.95202 11.7895 5.84884V5H10.2737V5.8261C8.75789 6.07621 8 7.05389 8 8.03157C8 8.88041 8.3941 10.3052 11.0316 10.3052C12.5474 10.3052 12.5474 10.8206 12.5474 11.0631C12.5474 11.3057 12.0775 11.821 11.0316 11.821C9.63705 11.821 9.51579 11.1692 9.51579 11.0631H8C8 11.7604 8.50021 12.9958 10.2737 13.2762V14.0947H11.7895V13.2762C13.3052 13.0185 14.0631 12.0408 14.0631 11.0631C14.0631 10.2143 13.669 8.78946 11.0316 8.78946Z" fill="#1F2937"/>
<path fill-rule="evenodd" clip-rule="evenodd" d="M0.0585564 10.7567C0.147634 10.5812 1.62982 9.05907 1.80051 8.96788C1.88029 8.92525 1.9997 8.89038 2.06591 8.89038C2.13212 8.89038 2.25153 8.92525 2.3313 8.96788C2.50977 9.0632 3.98868 10.5872 4.07502 10.7647C4.31345 11.255 3.78152 11.8009 3.30494 11.5551C3.23615 11.5196 3.09595 11.407 2.99335 11.3049L2.80683 11.1192L2.83251 11.2591C2.88004 11.5177 3.12608 12.3185 3.2639 12.6629C4.13936 14.8506 5.97207 16.6106 8.15445 17.3594C11.0959 18.3686 14.2643 17.6038 16.4532 15.356C19.6269 12.0971 19.6259 6.90881 16.4508 3.62847C15.1254 2.2591 13.4066 1.41989 11.5304 1.22603C8.0388 0.865283 4.62399 2.95153 3.29701 6.25627C3.06417 6.83608 3.03603 6.88649 2.88488 6.99394C2.52826 7.24752 1.98832 6.95725 1.98789 6.5117C1.98758 6.19089 2.53819 4.98038 3.0236 4.23456C3.94522 2.81872 5.17018 1.71629 6.65854 0.963336C7.54838 0.513168 8.39843 0.239839 9.42206 0.0747989C10.0327 -0.0236554 11.4471 -0.0252206 12.054 0.0719092C13.0697 0.234461 13.9391 0.51389 14.8276 0.963296C18.1043 2.62085 20.1369 6.10343 19.9928 9.81351C19.9372 11.248 19.6456 12.4447 19.0492 13.6867C18.5861 14.6513 18.0553 15.4165 17.3242 16.1736C15.8068 17.745 13.8506 18.7142 11.7297 18.9453C9.28803 19.2114 6.91667 18.5016 4.9543 16.9174C4.53718 16.5806 3.8355 15.8611 3.5121 15.4385C2.62687 14.2818 1.99551 12.9239 1.69705 11.5346C1.64198 11.278 1.59687 11.0297 1.59687 10.9827C1.59687 10.9356 1.58319 10.8972 1.5665 10.8972C1.54981 10.8972 1.41348 11.025 1.26359 11.1812C0.842353 11.6202 0.619874 11.7032 0.306011 11.5388C0.0367462 11.3978 -0.079809 11.0294 0.0585564 10.7567Z" fill="#1F2937"/>
</svg>
