<svg width="20" height="20" viewBox="0 0 20 20" fill="none" xmlns="http://www.w3.org/2000/svg">
<path fill-rule="evenodd" clip-rule="evenodd" d="M9.12281 0.00812619C6.77 0.247596 4.69527 1.20372 3.037 2.81275C1.45504 4.34766 0.469926 6.22278 0.0939529 8.41458C0.0127528 8.88794 8.18555e-05 9.10192 3.70168e-07 10.0001C-8.11152e-05 10.8817 0.0132417 11.1155 0.088249 11.5487C0.280269 12.6576 0.530836 13.4342 1.01421 14.4182C1.54248 15.4937 2.15402 16.3309 3.037 17.1875C4.55935 18.6642 6.42931 19.5906 8.55241 19.9198C9.24211 20.0267 10.7555 20.0267 11.4451 19.9198C13.572 19.5901 15.4363 18.6665 16.9606 17.1875C17.8437 16.3306 18.4551 15.4936 18.9833 14.4182C19.3466 13.6786 19.5375 13.169 19.7145 12.4657C19.9448 11.551 20 11.0742 20 10.0001C20 8.92605 19.9448 8.44931 19.7145 7.53463C19.5375 6.83129 19.3466 6.32165 18.9833 5.5821C17.9932 3.56626 16.3641 1.95133 14.3379 0.977082C12.9386 0.304237 11.754 0.0269792 10.1821 0.00442072C9.68913 -0.00270515 9.21245 -0.00103564 9.12281 0.00812619ZM11.2211 1.35264C13.1185 1.61935 14.8011 2.46179 16.1713 3.83118C17.5363 5.19543 18.3728 6.86566 18.6591 8.79893C18.748 9.39896 18.748 10.6013 18.6591 11.2014C18.3731 13.1323 17.5347 14.8064 16.1713 16.1691C14.8017 17.5379 13.1415 18.3684 11.2007 18.6555C10.5965 18.7449 9.39579 18.7444 8.79687 18.6546C6.84888 18.3623 5.19151 17.5336 3.82627 16.1691C2.45849 14.8021 1.62779 13.1437 1.33795 11.2014C1.24819 10.6001 1.24819 9.40023 1.33795 8.79893C1.62429 6.88015 2.4501 5.21714 3.78552 3.87014C4.2768 3.37463 4.6212 3.08956 5.17444 2.72048C6.94112 1.54194 9.09731 1.05416 11.2211 1.35264ZM6.64977 6.25727C6.25017 6.32006 5.90687 6.58706 5.71322 6.98566C5.58561 7.24842 5.58415 7.7478 5.71029 8.0049C5.85741 8.30484 6.03089 8.48062 6.32033 8.62302C6.55162 8.73683 6.63295 8.75585 6.87907 8.75356C7.39133 8.74888 7.80931 8.47293 8.02215 7.999C8.12127 7.77822 8.13223 7.71266 8.1159 7.43919C8.069 6.65506 7.42449 6.13548 6.64977 6.25727ZM12.9213 6.25817C12.328 6.34974 11.919 6.81439 11.8817 7.43919C11.8653 7.71266 11.8763 7.77822 11.9754 7.999C12.1882 8.47293 12.6062 8.74888 13.1185 8.75356C13.6244 8.75821 14.0522 8.48421 14.2873 8.0049C14.4174 7.73966 14.4121 7.24899 14.2761 6.96827C14.0274 6.45476 13.4859 6.17099 12.9213 6.25817ZM9.3469 10.6365C8.37445 10.759 7.49192 11.0865 6.74144 11.6032C6.14933 12.0109 5.50409 12.698 5.13272 13.3164C4.89645 13.7098 4.94873 14.0428 5.28591 14.2923C5.44257 14.4082 5.79642 14.4073 5.95495 14.2906C6.01663 14.2452 6.16795 14.0602 6.2912 13.8794C6.61706 13.4015 6.86697 13.1268 7.24225 12.8341C8.08118 12.1798 8.8949 11.9096 10.0191 11.912C11.1447 11.9145 11.9925 12.2108 12.8355 12.8964C13.1691 13.1677 13.3894 13.4166 13.7064 13.8803C13.9943 14.3016 14.097 14.3775 14.3786 14.3775C14.6238 14.3775 14.7651 14.2976 14.9185 14.0725C15.0612 13.8629 15.0435 13.6139 14.8648 13.3164C14.0629 11.9812 12.6802 11.0162 11.1321 10.7112C10.8032 10.6464 9.65092 10.5982 9.3469 10.6365Z" fill="#CB00DD"/>
</svg>
