<svg width="14" height="14" viewBox="0 0 14 14" fill="none" xmlns="http://www.w3.org/2000/svg">
<path fill-rule="evenodd" clip-rule="evenodd" d="M0.333374 1.00065V1.66732L1.04171 1.67048L1.75004 1.67365L2.81504 4.26248L3.88004 6.85115L3.37687 7.82698C2.79987 8.94582 2.82087 9.50232 3.45937 10.0045C3.85171 10.313 4.14671 10.334 8.10587 10.334H12.3334V9.66732V9.00065H8.33337C6.13337 9.00065 4.33337 8.95332 4.33337 8.89532C4.33337 8.83732 4.48954 8.53732 4.68037 8.22865L5.02721 7.66732H8.60454C13.2834 7.66732 13 7.88715 13 4.25815V1.66732H8.08204H3.16404L2.89721 1.00065L2.63054 0.333984H1.48187H0.333374V1.00065ZM9.66671 3.66732V4.33398H8.33337H7.00004V3.66732V3.00065H8.33337H9.66671V3.66732ZM3.40921 11.4098C2.58237 12.2365 3.16821 13.6673 4.33337 13.6673C5.01854 13.6673 5.66671 13.0192 5.66671 12.334C5.66671 11.6488 5.01854 11.0007 4.33337 11.0007C4.00871 11.0007 3.66704 11.1518 3.40921 11.4098ZM10.0759 11.4098C9.81787 11.6677 9.66671 12.0093 9.66671 12.334C9.66671 12.6587 9.81787 13.0003 10.0759 13.2582C10.3337 13.5162 10.6754 13.6673 11 13.6673C11.3247 13.6673 11.6664 13.5162 11.9242 13.2582C12.1822 13.0003 12.3334 12.6587 12.3334 12.334C12.3334 12.0093 12.1822 11.6677 11.9242 11.4098C11.6664 11.1518 11.3247 11.0007 11 11.0007C10.6754 11.0007 10.3337 11.1518 10.0759 11.4098Z" fill="#6B7280"/>
</svg>
