<svg width="14" height="14" viewBox="0 0 14 14" fill="none" xmlns="http://www.w3.org/2000/svg">
<path fill-rule="evenodd" clip-rule="evenodd" d="M0.333496 1.00065V1.66732L1.04183 1.67048L1.75016 1.67365L2.81516 4.26248L3.88016 6.85115L3.377 7.82698C2.8 8.94582 2.821 9.50232 3.4595 10.0045C3.85183 10.313 4.14683 10.334 8.106 10.334H12.3335V9.66732V9.00065H8.3335C6.1335 9.00065 4.3335 8.95332 4.3335 8.89532C4.3335 8.83732 4.48966 8.53732 4.6805 8.22865L5.02733 7.66732H8.60466C13.2835 7.66732 13.0002 7.88715 13.0002 4.25815V1.66732H8.08216H3.16416L2.89733 1.00065L2.63066 0.333984H1.482H0.333496V1.00065ZM9.66683 3.66732V4.33398H8.3335H7.00016V3.66732V3.00065H8.3335H9.66683V3.66732ZM3.40933 11.4098C2.5825 12.2365 3.16833 13.6673 4.3335 13.6673C5.01866 13.6673 5.66683 13.0192 5.66683 12.334C5.66683 11.6488 5.01866 11.0007 4.3335 11.0007C4.00883 11.0007 3.66716 11.1518 3.40933 11.4098ZM10.076 11.4098C9.818 11.6677 9.66683 12.0093 9.66683 12.334C9.66683 12.6587 9.818 13.0003 10.076 13.2582C10.3338 13.5162 10.6755 13.6673 11.0002 13.6673C11.3248 13.6673 11.6665 13.5162 11.9243 13.2582C12.1823 13.0003 12.3335 12.6587 12.3335 12.334C12.3335 12.0093 12.1823 11.6677 11.9243 11.4098C11.6665 11.1518 11.3248 11.0007 11.0002 11.0007C10.6755 11.0007 10.3338 11.1518 10.076 11.4098Z" fill="#F4B730"/>
</svg>
