<svg width="9" height="10" viewBox="0 0 9 10" fill="none" xmlns="http://www.w3.org/2000/svg">
<path fill-rule="evenodd" clip-rule="evenodd" d="M0.714569 1.14342V1.57199L1.16993 1.57402L1.62528 1.57606L2.30993 3.24031L2.99457 4.90445L2.6711 5.53177C2.30018 6.25102 2.31368 6.60877 2.72414 6.93159C2.97636 7.12992 3.166 7.14342 5.71118 7.14342H8.42886V6.71484V6.28627H5.85743C4.44314 6.28627 3.286 6.25584 3.286 6.21856C3.286 6.18127 3.38639 5.98842 3.50907 5.78999L3.73203 5.42913H6.03175C9.03957 5.42913 8.85743 5.57045 8.85743 3.23752V1.57199H5.69586H2.53428L2.36275 1.14342L2.19132 0.714844H1.45289H0.714569V1.14342ZM6.71457 2.8577V3.28627H5.85743H5.00028V2.8577V2.42913H5.85743H6.71457V2.8577ZM2.69189 7.83502C2.16035 8.36645 2.53696 9.28627 3.286 9.28627C3.72646 9.28627 4.14314 8.86959 4.14314 8.42913C4.14314 7.98867 3.72646 7.57199 3.286 7.57199C3.07728 7.57199 2.85764 7.66917 2.69189 7.83502ZM6.97761 7.83502C6.81175 8.00077 6.71457 8.22042 6.71457 8.42913C6.71457 8.63784 6.81175 8.85749 6.97761 9.02324C7.14336 9.18909 7.363 9.28627 7.57171 9.28627C7.78043 9.28627 8.00007 9.18909 8.16582 9.02324C8.33168 8.85749 8.42886 8.63784 8.42886 8.42913C8.42886 8.22042 8.33168 8.00077 8.16582 7.83502C8.00007 7.66917 7.78043 7.57199 7.57171 7.57199C7.363 7.57199 7.14336 7.66917 6.97761 7.83502Z" fill="white"/>
</svg>
