<svg width="14" height="14" viewBox="0 0 14 14" fill="none" xmlns="http://www.w3.org/2000/svg">
<g clip-path="url(#clip0_3604_65253)">
<path d="M13.5625 5.03125H8.55312L7 0.4375L5.44688 5.03125H0.4375L4.48438 7.875L2.93125 12.4688L7 9.625L11.0469 12.4688L9.49375 7.875L13.5625 5.03125Z" fill="#52A4D2"/>
<path d="M10.1063 4.43906L10.9813 1.94531L8.68447 3.52031L9.0126 4.43906H10.1063ZM6.10322 10.9359L7.0001 13.5609L7.89697 10.9359L7.0001 10.3234L6.10322 10.9359ZM11.0907 7.50156L10.2595 8.07031L10.6095 9.12031H13.4313L11.0907 7.50156ZM5.31572 3.52031L3.01885 1.94531L3.89385 4.43906H4.9876L5.31572 3.52031ZM2.90947 7.50156L0.568848 9.12031H3.39072L3.74072 8.07031L2.90947 7.50156Z" fill="#52A4D2"/>
</g>
<defs>
<clipPath id="clip0_3604_65253">
<rect width="14" height="14" fill="white"/>
</clipPath>
</defs>
</svg>
