<svg width="14" height="14" viewBox="0 0 14 14" fill="none" xmlns="http://www.w3.org/2000/svg">
<g clip-path="url(#clip0_3442_65430)">
<path d="M13.5625 5.03125H8.55312L7 0.4375L5.44688 5.03125H0.4375L4.48438 7.875L2.93125 12.4688L7 9.625L11.0469 12.4688L9.49375 7.875L13.5625 5.03125Z" fill="#D1D5DB"/>
<path d="M10.1059 4.43906L10.9809 1.94531L8.68398 3.52031L9.01211 4.43906H10.1059ZM6.10273 10.9359L6.99961 13.5609L7.89648 10.9359L6.99961 10.3234L6.10273 10.9359ZM11.0902 7.50156L10.259 8.07031L10.609 9.12031H13.4309L11.0902 7.50156ZM5.31523 3.52031L3.01836 1.94531L3.89336 4.43906H4.98711L5.31523 3.52031ZM2.90898 7.50156L0.568359 9.12031H3.39023L3.74023 8.07031L2.90898 7.50156Z" fill="#D1D5DB"/>
</g>
<defs>
<clipPath id="clip0_3442_65430">
<rect width="14" height="14" fill="white"/>
</clipPath>
</defs>
</svg>
