<svg width="13" height="14" viewBox="0 0 13 14" fill="none" xmlns="http://www.w3.org/2000/svg">
<path d="M0.25 7C0.25 8.2405 1.2595 9.25 2.5 9.25C3.0955 9.25 3.634 9.01375 4.03675 8.635L8.53 11.203C8.5165 11.3005 8.5 11.398 8.5 11.5C8.5 12.7405 9.5095 13.75 10.75 13.75C11.9905 13.75 13 12.7405 13 11.5C13 10.2595 11.9905 9.25 10.75 9.25C10.1545 9.25 9.616 9.48625 9.21325 9.865L4.72 7.29775C4.7335 7.1995 4.75 7.102 4.75 7C4.75 6.898 4.7335 6.8005 4.72 6.70225L9.21325 4.135C9.616 4.51375 10.1545 4.75 10.75 4.75C11.9905 4.75 13 3.7405 13 2.5C13 1.2595 11.9905 0.25 10.75 0.25C9.5095 0.25 8.5 1.2595 8.5 2.5C8.5 2.602 8.5165 2.6995 8.53 2.79775L4.03675 5.365C3.622 4.97101 3.07205 4.75092 2.5 4.75C1.2595 4.75 0.25 5.7595 0.25 7Z" fill="#9CA3AF"/>
</svg>
