<svg width="20" height="20" viewBox="0 0 20 20" fill="none" xmlns="http://www.w3.org/2000/svg">
<path d="M19.2841 7.2756L13.3333 6.41075L10.6731 1.01778C10.6005 0.870126 10.4809 0.750595 10.3333 0.677938C9.96298 0.495126 9.51298 0.64747 9.32782 1.01778L6.66766 6.41075L0.716878 7.2756C0.552815 7.29904 0.402815 7.37638 0.287971 7.49357C0.149132 7.63627 0.0726244 7.82825 0.0752613 8.02734C0.0778981 8.22642 0.159463 8.41631 0.302034 8.55529L4.60751 12.7529L3.59032 18.6803C3.56646 18.8182 3.58172 18.96 3.63436 19.0896C3.687 19.2193 3.77491 19.3316 3.88813 19.4138C4.00135 19.4961 4.13535 19.5449 4.27493 19.5549C4.4145 19.5648 4.55408 19.5355 4.67782 19.4701L10.0005 16.6717L15.3231 19.4701C15.4685 19.5475 15.6372 19.5733 15.7989 19.5451C16.2067 19.4748 16.481 19.0881 16.4106 18.6803L15.3935 12.7529L19.6989 8.55529C19.8161 8.44044 19.8935 8.29044 19.9169 8.12638C19.9802 7.71622 19.6942 7.33653 19.2841 7.2756Z" fill="#FAA500"/>
</svg>
