<svg width="20" height="18" viewBox="0 0 20 18" fill="none" xmlns="http://www.w3.org/2000/svg">
<path fill-rule="evenodd" clip-rule="evenodd" d="M3.32698 0.0129604C1.80817 0.229788 0.508298 1.39792 0.0913159 2.92072L0.000201356 3.2534V8.59581C0.000201356 14.443 -0.0149453 14.0203 0.217499 14.6533C0.60227 15.701 1.4859 16.5847 2.5336 16.9694C3.16882 17.2027 2.67564 17.1867 9.2369 17.1867H15.2251L15.5773 17.0775C16.3157 16.8486 16.8031 16.5572 17.3192 16.0358C17.7042 15.6469 17.9629 15.2682 18.0206 15.0091C18.0794 14.745 17.9925 14.4793 17.7864 14.2931C17.5926 14.118 17.4861 14.0752 17.2443 14.0752C16.9519 14.0752 16.7488 14.2058 16.5086 14.548C16.1537 15.0537 15.718 15.3741 15.1468 15.5492C14.9234 15.6177 14.6354 15.6212 9.21733 15.6212C3.79926 15.6212 3.51128 15.6177 3.28784 15.5492C2.48515 15.3031 1.91165 14.7362 1.63831 13.9187C1.57021 13.715 1.5657 13.4381 1.55498 8.77193C1.54739 5.46069 1.55717 3.75277 1.58484 3.57351C1.74371 2.54354 2.53904 1.74825 3.56882 1.58958C3.74862 1.56191 5.65075 1.55204 9.39345 1.55944L14.9511 1.57044L15.2627 1.68058C15.5908 1.7965 16.0092 2.05102 16.199 2.25008C16.2611 2.31517 16.402 2.49571 16.5121 2.65121C16.7488 2.98542 16.955 3.11641 17.2443 3.11641C17.4861 3.11641 17.5926 3.07363 17.7864 2.89853C17.9925 2.71235 18.0794 2.4466 18.0206 2.18249C17.9629 1.92343 17.7042 1.54473 17.3192 1.15585C16.8031 0.634441 16.3157 0.342977 15.5773 0.114094L15.2251 0.00489786L9.33475 0.000553478C6.09505 -0.00183397 3.39156 0.00372375 3.32698 0.0129604ZM13.9727 4.70927C12.4488 4.92853 11.1482 6.09791 10.7383 7.61734C10.6619 7.90079 10.6486 8.0456 10.6485 8.59581C10.6483 9.2634 10.6783 9.45314 10.8632 9.9567C11.248 11.0044 12.1316 11.888 13.1793 12.2728C13.7827 12.4944 13.7262 12.4901 16.0274 12.4901H18.1605L18.4149 12.3986C19.1187 12.1454 19.6553 11.6088 19.9085 10.905L20 10.6506V8.59581V6.54104L19.9085 6.28663C19.6553 5.58285 19.1187 5.04618 18.4149 4.79303C18.1613 4.7018 18.1543 4.70152 16.1253 4.69694C15.0059 4.69444 14.0372 4.69996 13.9727 4.70927ZM17.8864 6.29137C18.0906 6.34804 18.3535 6.61094 18.4102 6.81512C18.47 7.0305 18.47 10.1611 18.4102 10.3765C18.3513 10.5886 18.0897 10.845 17.8725 10.9035C17.7515 10.9361 17.1936 10.945 15.9162 10.9348C13.93 10.919 13.9764 10.9246 13.4247 10.6374C12.6022 10.2093 12.0866 9.196 12.2279 8.28524C12.3861 7.26608 13.1708 6.45552 14.1587 6.29086C14.4726 6.23853 17.6977 6.23896 17.8864 6.29137ZM14.2075 7.87809C13.5904 8.20337 13.6074 9.05529 14.2361 9.31799C14.6257 9.48077 15.0736 9.30852 15.249 8.92849C15.4288 8.53886 15.2699 8.08529 14.8842 7.88752C14.7059 7.79605 14.3719 7.79139 14.2075 7.87809Z" fill="#374151"/>
</svg>
