<svg width="21" height="15" viewBox="0 0 21 15" fill="none" xmlns="http://www.w3.org/2000/svg">
<path fill-rule="evenodd" clip-rule="evenodd" d="M5.2201 0.461035C4.80294 0.609713 4.34962 0.806997 3.87406 1.06432C3.46524 1.28734 3.03973 1.55896 2.60866 1.88777C2.60866 1.88777 2.37505 2.30807 2.04688 3.05146C1.79658 3.61758 1.49344 4.36954 1.19587 5.26447C0.581248 7.12008 0 9.59614 0 12.3152C0 12.3152 0.164084 12.6069 0.531188 12.9986C0.720302 13.2016 0.965038 13.4332 1.27096 13.6619C1.7354 14.0107 2.3389 14.3567 3.10091 14.6111C3.75169 14.8284 4.51927 14.9771 5.41478 15C5.41478 15 5.99325 14.208 6.57727 13.5104C4.34962 12.8156 3.48192 11.426 3.48192 11.426L4.22725 11.8206C6.40485 12.7441 8.71037 13.9049 12.818 13.2101L12.8848 13.193C13.1963 13.1215 13.5077 13.05 13.8192 12.97C14.3532 12.8299 14.8872 12.6612 15.4211 12.4153L15.9134 12.1637C16.3723 11.9378 16.8896 11.6833 17.4402 11.3202C17.4402 11.3202 17.3012 11.5432 16.9869 11.8549C16.8033 12.035 16.5614 12.2466 16.2527 12.461C15.8911 12.7127 15.4406 12.97 14.8872 13.1901C14.6897 13.2673 14.4783 13.3417 14.2531 13.4074C14.7314 14.0994 15.4017 14.8914 15.4017 14.8914C17.532 14.8427 18.9615 14.0765 19.8458 13.3931C20.3103 13.0329 20.6246 12.6984 20.8053 12.5039C20.9221 12.3781 20.9861 12.3095 21 12.3295C21 6.57969 18.3747 1.89921 18.3747 1.89921C16.0274 0.109355 13.8359 0.0264387 13.4215 0.0264387L13.1545 0.298061C16.1526 1.19013 17.6043 2.58255 17.6043 2.58255C13.2547 0.346667 8.55741 0.220863 4.25507 1.98498C3.57926 2.2852 3.19269 2.48248 3.19269 2.48248C3.19269 2.48248 3.74056 1.91922 4.90584 1.30164C5.31744 1.08434 5.80691 0.858462 6.37704 0.646882C6.81367 0.483909 7.30036 0.332372 7.83433 0.200849L7.63965 0.000705972C7.63965 0.000705972 7.2642 -0.01359 6.65236 0.0864816C6.26023 0.152243 5.77076 0.26661 5.2201 0.461035ZM13.7302 10.5311C14.7453 10.5311 15.5685 9.63902 15.5685 8.5411C15.5685 7.44889 14.7481 6.55682 13.7302 6.56254C13.2797 6.56254 12.8653 6.73981 12.5455 7.0343C12.3063 7.25446 12.12 7.54038 12.0087 7.86919C11.9364 8.08077 11.8947 8.3095 11.8947 8.54967C11.8947 9.63902 12.7179 10.5311 13.7302 10.5311ZM8.99404 8.5411C8.99404 9.63902 8.17084 10.5311 7.15574 10.5311C6.72189 10.5311 6.3242 10.3681 6.00993 10.0965C5.58999 9.73338 5.32022 9.17298 5.32022 8.54967C5.32022 7.44889 6.14342 6.56254 7.15574 6.56254C8.1764 6.55682 8.99404 7.44889 8.99404 8.5411Z" fill="#9CA3AF"/>
</svg>
