<svg width="16" height="16" viewBox="0 0 16 16" fill="none" xmlns="http://www.w3.org/2000/svg">
<path d="M4.89263 7.37839C5.88858 6.38245 7.62554 6.38245 8.62149 7.37839L9.24296 7.99987L10.4859 6.75691L9.86444 6.13544C9.03551 5.30563 7.93145 4.84766 6.75706 4.84766C5.58267 4.84766 4.47861 5.30563 3.64968 6.13544L1.78438 7.99987C0.961862 8.82503 0.5 9.9426 0.5 11.1077C0.5 12.2728 0.961862 13.3903 1.78438 14.2155C2.19214 14.6238 2.67657 14.9476 3.20983 15.1681C3.7431 15.3887 4.31468 15.5017 4.89176 15.5006C5.46898 15.5018 6.04075 15.3889 6.57418 15.1684C7.10761 14.9478 7.59218 14.624 8.00001 14.2155L8.62149 13.594L7.37854 12.3511L6.75706 12.9725C6.2617 13.4657 5.59118 13.7426 4.8922 13.7426C4.19321 13.7426 3.52269 13.4657 3.02733 12.9725C2.53376 12.4774 2.2566 11.8068 2.2566 11.1077C2.2566 10.4086 2.53376 9.73795 3.02733 9.24282L4.89263 7.37839Z" fill="#374151"/>
<path d="M7.99957 1.7851L7.3781 2.40658L8.62105 3.64953L9.24253 3.02805C9.73789 2.53491 10.4084 2.25805 11.1074 2.25805C11.8064 2.25805 12.4769 2.53491 12.9723 3.02805C13.4658 3.52319 13.743 4.1938 13.743 4.89292C13.743 5.59204 13.4658 6.26265 12.9723 6.75779L11.107 8.62221C10.111 9.61816 8.37404 9.61816 7.3781 8.62221L6.75662 8.00074L5.51367 9.24369L6.13515 9.86516C6.96407 10.695 8.06814 11.1529 9.24253 11.1529C10.4169 11.1529 11.521 10.695 12.3499 9.86516L14.2152 8.00074C15.0377 7.17558 15.4996 6.058 15.4996 4.89292C15.4996 3.72784 15.0377 2.61026 14.2152 1.7851C13.3903 0.962158 12.2726 0.5 11.1074 0.5C9.94216 0.5 8.82451 0.962158 7.99957 1.7851Z" fill="#374151"/>
</svg>
