<svg width="20" height="17" viewBox="0 0 20 17" fill="none" xmlns="http://www.w3.org/2000/svg">
<path d="M6.66333 15.714C6.66333 16.2755 6.22917 16.5073 5.74833 16.2755L0.558333 13.7607C0.401667 13.6888 0.27 13.5684 0.1625 13.3996C0.055 13.2308 0 13.0627 0 12.8971V0.596349C0 0.137503 0.284167 -0.0701082 0.926667 0.240097L6.63 3.00286C6.7125 3.08284 6.65167 2.53352 6.66333 15.714ZM7.3775 4.14594L13.3375 13.4909L7.3775 10.6207V4.14594ZM20 4.34062V15.714C20 15.8942 19.9483 16.0396 19.8433 16.151C19.7392 16.2625 19.5975 16.3183 19.4192 16.3183C19.2408 16.3183 19.0658 16.2714 18.895 16.1777L13.9733 13.8035L20 4.34062ZM19.9667 3.04568C19.9667 3.06749 19.0125 4.57651 17.1042 7.57193C15.1958 10.5674 14.0775 12.3219 13.75 12.8325L9.3975 5.99101L13.0133 0.304724C13.21 -0.00871321 13.6133 -0.0636454 13.8842 0.0672225L19.9225 2.98105C19.9517 2.99479 19.9667 3.0166 19.9667 3.04568Z" fill="#9CA3AF"/>
</svg>
