<svg width="20" height="17" viewBox="0 0 20 17" fill="none" xmlns="http://www.w3.org/2000/svg">
<path d="M20 1.95283C19.2563 2.28395 18.4637 2.50343 17.6375 2.60999C18.4875 2.09492 19.1363 1.28552 19.4412 0.309918C18.6488 0.789471 17.7738 1.1282 16.8412 1.31723C16.0887 0.504023 15.0162 0.000366211 13.8462 0.000366211C11.5763 0.000366211 9.74875 1.87037 9.74875 4.16283C9.74875 4.49268 9.77625 4.80984 9.84375 5.11178C6.435 4.94305 3.41875 3.28492 1.3925 0.759023C1.03875 1.38193 0.83125 2.09492 0.83125 2.86246C0.83125 4.30365 1.5625 5.58119 2.6525 6.32081C1.99375 6.30813 1.3475 6.11402 0.8 5.80828C0.8 5.82096 0.8 5.83746 0.8 5.85395C0.8 7.87619 2.22125 9.55589 4.085 9.94283C3.75125 10.0354 3.3875 10.0798 3.01 10.0798C2.7475 10.0798 2.4825 10.0646 2.23375 10.0088C2.765 11.6568 4.2725 12.8684 6.065 12.9077C4.67 14.0152 2.89875 14.6825 0.98125 14.6825C0.645 14.6825 0.3225 14.6673 0 14.6254C1.81625 15.8142 3.96875 16.4929 6.29 16.4929C13.835 16.4929 17.96 10.1496 17.96 4.65126C17.96 4.46731 17.9538 4.28969 17.945 4.11335C18.7588 3.52723 19.4425 2.79522 20 1.95283Z" fill="black"/>
</svg>
