<svg width="20" height="17" viewBox="0 0 20 17" fill="none" xmlns="http://www.w3.org/2000/svg">
<path d="M20 1.95246C19.2563 2.28358 18.4637 2.50306 17.6375 2.60963C18.4875 2.09455 19.1363 1.28515 19.4412 0.309552C18.6488 0.789104 17.7738 1.12784 16.8412 1.31687C16.0887 0.503657 15.0162 0 13.8462 0C11.5763 0 9.74875 1.87 9.74875 4.16246C9.74875 4.49231 9.77625 4.80948 9.84375 5.11142C6.435 4.94269 3.41875 3.28455 1.3925 0.758657C1.03875 1.38157 0.83125 2.09455 0.83125 2.86209C0.83125 4.30328 1.5625 5.58082 2.6525 6.32045C1.99375 6.30776 1.3475 6.11366 0.8 5.80791C0.8 5.8206 0.8 5.83709 0.8 5.85358C0.8 7.87582 2.22125 9.55552 4.085 9.94246C3.75125 10.0351 3.3875 10.0795 3.01 10.0795C2.7475 10.0795 2.4825 10.0643 2.23375 10.0084C2.765 11.6564 4.2725 12.868 6.065 12.9073C4.67 14.0148 2.89875 14.6822 0.98125 14.6822C0.645 14.6822 0.3225 14.6669 0 14.6251C1.81625 15.8138 3.96875 16.4925 6.29 16.4925C13.835 16.4925 17.96 10.1493 17.96 4.6509C17.96 4.46694 17.9538 4.28933 17.945 4.11298C18.7588 3.52687 19.4425 2.79485 20 1.95246Z" fill="#9CA3AF"/>
</svg>
