<svg width="20" height="20" viewBox="0 0 20 20" fill="none" xmlns="http://www.w3.org/2000/svg">
<path d="M10.3574 19.9996C11.8868 19.7819 13.2276 18.1823 14.0712 15.82C12.8516 15.5462 11.6071 15.3993 10.3574 15.3818V19.9996Z" fill="#4B5563"/>
<path d="M12.8004 19.6248C12.8908 19.5986 12.9809 19.5722 13.0702 19.5432C13.1456 19.5189 13.22 19.4926 13.2943 19.4666C13.3823 19.4361 13.4699 19.4048 13.5572 19.3716C13.6315 19.3433 13.7052 19.3132 13.779 19.2831C13.8642 19.2472 13.9492 19.2116 14.0333 19.1757C14.1068 19.1434 14.1797 19.1094 14.2527 19.0753C14.3352 19.0363 14.4174 18.9966 14.4989 18.9553C14.5705 18.9188 14.6419 18.8815 14.7134 18.8432C14.7935 18.8002 14.8731 18.7563 14.9522 18.7112C15.0237 18.6706 15.0927 18.6299 15.1623 18.5879C15.2398 18.5401 15.3169 18.4924 15.3935 18.4446C15.4621 18.4009 15.5306 18.3565 15.5981 18.3107C15.6735 18.2598 15.7478 18.2068 15.8218 18.1538C15.8883 18.106 15.9545 18.0585 16.0194 18.0106C16.091 17.9553 16.1643 17.8981 16.236 17.8407C16.2997 17.7898 16.3632 17.7393 16.4259 17.687C16.4973 17.6275 16.5657 17.566 16.635 17.5044C16.6957 17.4504 16.7568 17.3968 16.8161 17.3414C16.8844 17.2776 16.9509 17.2114 17.0174 17.1459C17.075 17.0888 17.1332 17.0327 17.1896 16.9743C17.2001 16.9634 17.21 16.9517 17.2209 16.9405C16.4412 16.537 15.6201 16.2203 14.7717 15.9961C14.3305 17.4061 13.5453 18.6839 12.4873 19.7133C12.5163 19.7058 12.5452 19.6997 12.5742 19.6922C12.6507 19.6707 12.7257 19.6471 12.8004 19.6248Z" fill="#4B5563"/>
<path d="M19.9996 10.3574H15.7139C15.6976 12.0343 15.4549 13.7013 14.9922 15.3129C15.9357 15.5655 16.8462 15.9286 17.7049 16.3947C19.1147 14.6919 19.9217 12.5688 19.9996 10.3574Z" fill="#4B5563"/>
<path d="M10.3574 9.64056H14.9994C14.9812 8.02294 14.7444 6.41529 14.2957 4.86133C13.0031 5.15673 11.683 5.31449 10.3574 5.33198V9.64056Z" fill="#4B5563"/>
<path d="M10.3572 0V4.6178C11.6068 4.60013 12.8514 4.45339 14.071 4.17968C13.2273 1.81735 11.8866 0.217746 10.3572 0Z" fill="#4B5563"/>
<path d="M10.3574 14.666C11.683 14.6837 13.0031 14.8414 14.2957 15.1368C14.7444 13.5829 14.9812 11.975 14.9994 10.3574H10.3574V14.666Z" fill="#4B5563"/>
<path d="M17.7049 3.60547C16.8462 4.07157 15.9357 4.43465 14.9922 4.6872C15.4549 6.29888 15.6976 7.96582 15.7139 9.64273H19.9996C19.9216 7.43151 19.1146 5.30844 17.7049 3.60547Z" fill="#4B5563"/>
<path d="M17.2225 3.06002C17.212 3.04935 17.202 3.03781 17.1917 3.02679C17.1352 2.96838 17.0766 2.91206 17.019 2.85522C16.9526 2.78963 16.8865 2.72335 16.8181 2.65968C16.7589 2.60442 16.6977 2.55212 16.6369 2.49703C16.5676 2.43547 16.4983 2.37338 16.4271 2.31391C16.3653 2.26162 16.302 2.2116 16.2392 2.1614C16.1676 2.10334 16.0943 2.04562 16.0207 1.99018C15.9561 1.94138 15.8906 1.89416 15.8248 1.84694C15.7501 1.79307 15.6751 1.73938 15.599 1.68813C15.5321 1.64301 15.4643 1.59894 15.3964 1.55574C15.319 1.50589 15.2419 1.45709 15.1632 1.40987C15.0943 1.36842 15.0246 1.3275 14.9548 1.28779C14.8749 1.24197 14.7948 1.19755 14.714 1.15417C14.6424 1.11832 14.571 1.07932 14.4995 1.04346C14.4173 1.00184 14.3343 0.961788 14.2494 0.922436C14.1778 0.888331 14.1052 0.855101 14.0315 0.822745C13.9469 0.785142 13.8614 0.751212 13.776 0.715358C13.7024 0.685276 13.6291 0.655544 13.5547 0.62721C13.468 0.59398 13.38 0.562849 13.2921 0.532416C13.2177 0.506182 13.1434 0.480122 13.068 0.455637C12.9786 0.426604 12.8892 0.400195 12.7974 0.37361C12.7231 0.351748 12.6484 0.329536 12.5732 0.309598C12.5444 0.301728 12.5151 0.295607 12.4861 0.288086C13.5441 1.31753 14.3291 2.59515 14.7705 4.00534C15.6198 3.78112 16.4421 3.46421 17.2225 3.06002Z" fill="#4B5563"/>
<path d="M0 9.64273H4.28572C4.30196 7.96582 4.54472 6.29888 5.00723 4.6872C4.0639 4.43483 3.15338 4.07174 2.2947 3.60547C0.88486 5.30826 0.0778398 7.43151 0 9.64273Z" fill="#4B5563"/>
<path d="M9.64251 19.9996V15.3818C8.39288 15.3995 7.14832 15.5462 5.92871 15.82C6.77221 18.1823 8.11311 19.7819 9.64251 19.9996Z" fill="#4B5563"/>
<path d="M9.64291 10.3574H5.00098C5.01913 11.975 5.25579 13.5829 5.70468 15.1368C6.99723 14.8412 8.31719 14.6835 9.64291 14.666V10.3574Z" fill="#4B5563"/>
<path d="M9.64226 0C8.11287 0.217746 6.77196 1.81735 5.92847 4.17968C7.14807 4.45357 8.39264 4.60031 9.64226 4.6178V0Z" fill="#4B5563"/>
<path d="M9.64291 5.33198C8.31737 5.31449 6.99723 5.15673 5.70468 4.86133C5.25579 6.41529 5.01913 8.02294 5.00098 9.64056H9.64291V5.33198Z" fill="#4B5563"/>
<path d="M7.51158 0.288086C7.48261 0.295607 7.45364 0.301728 7.42466 0.309248C7.34892 0.329536 7.27422 0.352098 7.19882 0.37396C7.10912 0.400195 7.02011 0.426604 6.93005 0.455287C6.85413 0.479948 6.77943 0.506182 6.70473 0.532242C6.61729 0.563198 6.52968 0.59398 6.44311 0.626861C6.36842 0.655544 6.29476 0.685276 6.22076 0.715708C6.13577 0.751562 6.0506 0.787416 5.96665 0.823095C5.893 0.855451 5.82022 0.889381 5.74727 0.923485C5.66471 0.962487 5.58251 1.00219 5.50101 1.04346C5.42945 1.08002 5.35789 1.11745 5.28651 1.15557C5.2064 1.1986 5.12699 1.24267 5.0481 1.2878C4.97655 1.32785 4.90621 1.36895 4.83727 1.41092C4.75961 1.45779 4.68281 1.50624 4.60637 1.55416C4.53761 1.59824 4.46937 1.64266 4.40182 1.68848C4.32643 1.73938 4.25208 1.79237 4.17808 1.84537C4.11158 1.89311 4.04543 1.94068 3.98034 1.98878C3.90721 2.04387 3.8374 2.10124 3.76375 2.15843C3.70022 2.20933 3.63616 2.25987 3.57403 2.31251C3.50248 2.37163 3.43458 2.43284 3.36564 2.49406C3.30456 2.54862 3.24295 2.60162 3.18326 2.65811C3.11537 2.7216 3.04922 2.78753 2.9829 2.85294C2.92531 2.90996 2.86667 2.96628 2.81012 3.02487C2.79982 3.03571 2.78987 3.0476 2.77905 3.05862C3.5585 3.46228 4.37983 3.77902 5.22822 4.00324C5.66943 2.59392 6.45411 1.317 7.51158 0.288086Z" fill="#4B5563"/>
<path d="M2.98081 17.1436C3.0473 17.2091 3.11345 17.2754 3.18169 17.3393C3.24103 17.3944 3.30211 17.4467 3.36302 17.5017C3.43231 17.5635 3.5016 17.6254 3.57281 17.6849C3.63459 17.7368 3.6976 17.787 3.76078 17.8374C3.83233 17.8954 3.90371 17.9532 3.97946 18.0089C4.04386 18.0574 4.10931 18.1043 4.17476 18.1524C4.24946 18.2061 4.32485 18.2597 4.40095 18.3113C4.46779 18.3565 4.53568 18.4005 4.60357 18.4439C4.68089 18.4936 4.75803 18.5424 4.83674 18.5896C4.90568 18.6312 4.97532 18.672 5.04513 18.7119C5.12507 18.7577 5.20517 18.8021 5.28598 18.8453C5.35736 18.8812 5.42892 18.9202 5.50048 18.956C5.58268 18.9976 5.66558 19.0377 5.75058 19.0772C5.82213 19.111 5.89474 19.1442 5.96839 19.1767C6.05303 19.2143 6.13838 19.2483 6.2239 19.2841C6.29755 19.3142 6.37085 19.3439 6.4452 19.3723C6.53194 19.4057 6.6199 19.4368 6.70786 19.4672C6.78221 19.4933 6.85656 19.5195 6.93196 19.5438C7.02132 19.5729 7.11068 19.5995 7.20248 19.6259C7.27683 19.6477 7.35153 19.6699 7.42657 19.6901C7.45555 19.6979 7.48487 19.704 7.51384 19.7116C6.45585 18.6819 5.67082 17.4043 5.22943 15.9941C4.38105 16.2185 3.55972 16.5353 2.78027 16.9391C2.79075 16.9498 2.80069 16.9613 2.81116 16.9723C2.86475 17.0304 2.92251 17.0867 2.98081 17.1436Z" fill="#4B5563"/>
<path d="M2.2947 16.3947C3.15338 15.9286 4.0639 15.5655 5.00723 15.3129C4.54472 13.7013 4.30196 12.0343 4.28572 10.3574H0C0.0780143 12.5686 0.88486 14.6917 2.2947 16.3947Z" fill="#4B5563"/>
</svg>
